%TF.GenerationSoftware,KiCad,Pcbnew,(6.0.5-0)*%
%TF.CreationDate,2022-06-04T20:42:06+08:00*%
%TF.ProjectId,StealthBurner,53746561-6c74-4684-9275-726e65722e6b,Bata2*%
%TF.SameCoordinates,Original*%
%TF.FileFunction,Copper,L2,Bot*%
%TF.FilePolarity,Positive*%
%FSLAX46Y46*%
G04 Gerber Fmt 4.6, Leading zero omitted, Abs format (unit mm)*
G04 Created by KiCad (PCBNEW (6.0.5-0)) date 2022-06-04 20:42:06*
%MOMM*%
%LPD*%
G01*
G04 APERTURE LIST*
G04 Aperture macros list*
%AMRoundRect*
0 Rectangle with rounded corners*
0 $1 Rounding radius*
0 $2 $3 $4 $5 $6 $7 $8 $9 X,Y pos of 4 corners*
0 Add a 4 corners polygon primitive as box body*
4,1,4,$2,$3,$4,$5,$6,$7,$8,$9,$2,$3,0*
0 Add four circle primitives for the rounded corners*
1,1,$1+$1,$2,$3*
1,1,$1+$1,$4,$5*
1,1,$1+$1,$6,$7*
1,1,$1+$1,$8,$9*
0 Add four rect primitives between the rounded corners*
20,1,$1+$1,$2,$3,$4,$5,0*
20,1,$1+$1,$4,$5,$6,$7,0*
20,1,$1+$1,$6,$7,$8,$9,0*
20,1,$1+$1,$8,$9,$2,$3,0*%
G04 Aperture macros list end*
%TA.AperFunction,ComponentPad*%
%ADD10O,1.200000X1.750000*%
%TD*%
%TA.AperFunction,ComponentPad*%
%ADD11RoundRect,0.250000X0.350000X0.625000X-0.350000X0.625000X-0.350000X-0.625000X0.350000X-0.625000X0*%
%TD*%
%TA.AperFunction,ComponentPad*%
%ADD12O,1.750000X1.200000*%
%TD*%
%TA.AperFunction,ComponentPad*%
%ADD13RoundRect,0.250000X-0.625000X0.350000X-0.625000X-0.350000X0.625000X-0.350000X0.625000X0.350000X0*%
%TD*%
%TA.AperFunction,ComponentPad*%
%ADD14C,1.500000*%
%TD*%
%TA.AperFunction,ComponentPad*%
%ADD15RoundRect,0.250001X-0.499999X0.499999X-0.499999X-0.499999X0.499999X-0.499999X0.499999X0.499999X0*%
%TD*%
%TA.AperFunction,ComponentPad*%
%ADD16RoundRect,0.250001X0.499999X0.499999X-0.499999X0.499999X-0.499999X-0.499999X0.499999X-0.499999X0*%
%TD*%
%TA.AperFunction,ComponentPad*%
%ADD17O,1.600000X1.600000*%
%TD*%
%TA.AperFunction,ComponentPad*%
%ADD18R,1.600000X1.600000*%
%TD*%
%TA.AperFunction,ViaPad*%
%ADD19C,0.800000*%
%TD*%
%TA.AperFunction,Conductor*%
%ADD20C,0.500000*%
%TD*%
%TA.AperFunction,Conductor*%
%ADD21C,1.000000*%
%TD*%
%TA.AperFunction,Conductor*%
%ADD22C,0.254000*%
%TD*%
G04 APERTURE END LIST*
D10*
%TO.P,J5,2,Pin_2*%
%TO.N,GND*%
X134250000Y-92850000D03*
D11*
%TO.P,J5,1,Pin_1*%
%TO.N,/FS*%
X136250000Y-92850000D03*
%TD*%
D12*
%TO.P,J8,3,Pin_3*%
%TO.N,GND*%
X129250000Y-96000000D03*
%TO.P,J8,2,Pin_2*%
%TO.N,/DATA*%
X129250000Y-94000000D03*
D13*
%TO.P,J8,1,Pin_1*%
%TO.N,+5V*%
X129250000Y-92000000D03*
%TD*%
D12*
%TO.P,J6,2,Pin_2*%
%TO.N,/HEF*%
X129250000Y-110500000D03*
D13*
%TO.P,J6,1,Pin_1*%
%TO.N,/V_FAN*%
X129250000Y-108500000D03*
%TD*%
D14*
%TO.P,J9,18,Pin_18*%
%TO.N,GND*%
X158450000Y-116750000D03*
%TO.P,J9,17,Pin_17*%
%TO.N,GNDA*%
X158450000Y-113750000D03*
%TO.P,J9,16,Pin_16*%
%TO.N,/DATA*%
X158450000Y-110750000D03*
%TO.P,J9,15,Pin_15*%
%TO.N,/HE+*%
X158450000Y-107750000D03*
%TO.P,J9,14,Pin_14*%
%TO.N,/HE-*%
X158450000Y-104750000D03*
%TO.P,J9,13,Pin_13*%
%TO.N,/B-*%
X158450000Y-101750000D03*
%TO.P,J9,12,Pin_12*%
%TO.N,/B+*%
X158450000Y-98750000D03*
%TO.P,J9,11,Pin_11*%
%TO.N,/A-*%
X158450000Y-95750000D03*
%TO.P,J9,10,Pin_10*%
%TO.N,/A+*%
X158450000Y-92750000D03*
%TO.P,J9,9,Pin_9*%
%TO.N,/HEF*%
X161450000Y-116750000D03*
%TO.P,J9,8,Pin_8*%
%TO.N,/PCF*%
X161450000Y-113750000D03*
%TO.P,J9,7,Pin_7*%
%TO.N,/HET*%
X161450000Y-110750000D03*
%TO.P,J9,6,Pin_6*%
%TO.N,/CBT*%
X161450000Y-107750000D03*
%TO.P,J9,5,Pin_5*%
%TO.N,/FS*%
X161450000Y-104750000D03*
%TO.P,J9,4,Pin_4*%
%TO.N,/P_SIG*%
X161450000Y-101750000D03*
%TO.P,J9,3,Pin_3*%
%TO.N,/V_FAN*%
X161450000Y-98750000D03*
%TO.P,J9,2,Pin_2*%
%TO.N,+24V*%
X161450000Y-95750000D03*
D15*
%TO.P,J9,1,Pin_1*%
%TO.N,+5V*%
X161450000Y-92750000D03*
%TD*%
D10*
%TO.P,J2,4,Pin_4*%
%TO.N,/B-*%
X148750000Y-92850000D03*
%TO.P,J2,3,Pin_3*%
%TO.N,/B+*%
X150750000Y-92850000D03*
%TO.P,J2,2,Pin_2*%
%TO.N,/A-*%
X152750000Y-92850000D03*
D11*
%TO.P,J2,1,Pin_1*%
%TO.N,/A+*%
X154750000Y-92850000D03*
%TD*%
D14*
%TO.P,J3,2,Pin_2*%
%TO.N,/HE-*%
X140860000Y-96575000D03*
D16*
%TO.P,J3,1,Pin_1*%
%TO.N,/HE+*%
X140860000Y-99575000D03*
%TD*%
D17*
%TO.P,D1,2,A*%
%TO.N,/P_SIG*%
X154840000Y-97770000D03*
D18*
%TO.P,D1,1,K*%
%TO.N,Net-(D1-Pad1)*%
X152300000Y-97770000D03*
%TD*%
D12*
%TO.P,J1,3,Pin_3*%
%TO.N,+24V*%
X154350000Y-105500000D03*
%TO.P,J1,2,Pin_2*%
%TO.N,Net-(D1-Pad1)*%
X154350000Y-103500000D03*
D13*
%TO.P,J1,1,Pin_1*%
%TO.N,GND*%
X154350000Y-101500000D03*
%TD*%
D10*
%TO.P,J4,2,Pin_2*%
%TO.N,GNDA*%
X141500000Y-92850000D03*
D11*
%TO.P,J4,1,Pin_1*%
%TO.N,/HET*%
X143500000Y-92850000D03*
%TD*%
D12*
%TO.P,J7,2,Pin_2*%
%TO.N,/PCF*%
X129250000Y-103250000D03*
D13*
%TO.P,J7,1,Pin_1*%
%TO.N,/V_FAN*%
X129250000Y-101250000D03*
%TD*%
D19*
%TO.N,GND*%
X134830000Y-99890000D03*
X155290000Y-118540000D03*
X147150000Y-96040000D03*
X126840000Y-90250000D03*
X168770000Y-91170000D03*
X138390000Y-95670000D03*
X168760000Y-118460000D03*
X145960000Y-102340000D03*
X165860000Y-107630000D03*
X134150000Y-115720000D03*
X165910000Y-101820000D03*
X139380000Y-100710000D03*
X155270000Y-114950000D03*
X153800000Y-99970000D03*
X156580000Y-109400000D03*
%TO.N,GNDA*%
X126990000Y-110880000D03*
%TO.N,/CBT*%
X132200000Y-110880000D03*
%TD*%
D20*
%TO.N,GNDA*%
X141500000Y-92850000D02*
X140121480Y-94228520D01*
X163457031Y-91895341D02*
X163457031Y-113515702D01*
X161969222Y-115003511D02*
X159703511Y-115003511D01*
X132460000Y-93600000D02*
X132460000Y-91250000D01*
X161772131Y-90210441D02*
X163457031Y-91895341D01*
X128998922Y-90210440D02*
X133499560Y-90210440D01*
X163457031Y-113515702D02*
X161969222Y-115003511D01*
X126990000Y-110100000D02*
X126990000Y-110880000D01*
X132460000Y-91250000D02*
X133499560Y-90210440D01*
X140121480Y-94228520D02*
X133088520Y-94228520D01*
X159703511Y-115003511D02*
X158450000Y-113750000D01*
X127871480Y-91337882D02*
X127871480Y-109218520D01*
X127871480Y-109218520D02*
X126990000Y-110100000D01*
X133499560Y-90210440D02*
X161772131Y-90210441D01*
X133088520Y-94228520D02*
X132460000Y-93600000D01*
X128998922Y-90210440D02*
X127871480Y-91337882D01*
%TO.N,/A+*%
X156460000Y-92750000D02*
X158450000Y-92750000D01*
X156360000Y-92850000D02*
X156460000Y-92750000D01*
X154750000Y-92850000D02*
X156360000Y-92850000D01*
%TO.N,/A-*%
X153306960Y-94536960D02*
X155692579Y-94536960D01*
X155692579Y-94536960D02*
X156905619Y-95750000D01*
X156905619Y-95750000D02*
X158450000Y-95750000D01*
X152750000Y-93980000D02*
X153306960Y-94536960D01*
X152750000Y-92850000D02*
X152750000Y-93980000D01*
%TO.N,/B+*%
X150750000Y-92850000D02*
X150750000Y-94232106D01*
X155380461Y-95290480D02*
X156979520Y-96889539D01*
X151808374Y-95290480D02*
X155380461Y-95290480D01*
X150750000Y-94232106D02*
X151808374Y-95290480D01*
X156979520Y-98119520D02*
X157610000Y-98750000D01*
X156979520Y-96889539D02*
X156979520Y-98119520D01*
X157610000Y-98750000D02*
X158450000Y-98750000D01*
%TO.N,/B-*%
X156230000Y-97200000D02*
X156230000Y-99545000D01*
X156230000Y-99545000D02*
X158435000Y-101750000D01*
X155070000Y-96040000D02*
X156230000Y-97200000D01*
X148750000Y-92850000D02*
X148750000Y-94360000D01*
X148750000Y-94360000D02*
X150430000Y-96040000D01*
X150430000Y-96040000D02*
X155070000Y-96040000D01*
X158435000Y-101750000D02*
X158450000Y-101750000D01*
D21*
%TO.N,/HE-*%
X156904370Y-107160000D02*
X158450000Y-105614370D01*
X144220000Y-98330000D02*
X142465000Y-96575000D01*
X158450000Y-105614370D02*
X158450000Y-104750000D01*
X144220000Y-104970000D02*
X144220000Y-98330000D01*
X146406000Y-107156000D02*
X144220000Y-104970000D01*
X156904370Y-107156000D02*
X146406000Y-107156000D01*
X142465000Y-96575000D02*
X140860000Y-96575000D01*
D20*
%TO.N,/HET*%
X160031459Y-92551459D02*
X158951480Y-91471480D01*
X158951480Y-91471480D02*
X144878520Y-91471480D01*
X160031459Y-109331459D02*
X160031459Y-92551459D01*
X144878520Y-91471480D02*
X143500000Y-92850000D01*
X161450000Y-110750000D02*
X160031459Y-109331459D01*
%TO.N,/CBT*%
X162703511Y-111269222D02*
X162703511Y-109018511D01*
X162703511Y-109018511D02*
X161435000Y-107750000D01*
X132200000Y-110880000D02*
X133670000Y-109410000D01*
X154905771Y-112003511D02*
X161969222Y-112003511D01*
X133670000Y-109410000D02*
X152312260Y-109410000D01*
X152312260Y-109410000D02*
X154905771Y-112003511D01*
X161969222Y-112003511D02*
X162703511Y-111269222D01*
D22*
%TO.N,/FS*%
X162600000Y-103600000D02*
X162600000Y-91930000D01*
X138259039Y-90840961D02*
X136250000Y-92850000D01*
X161510960Y-90840960D02*
X138259039Y-90840961D01*
X161450000Y-104750000D02*
X162600000Y-103600000D01*
X162600000Y-91930000D02*
X161510960Y-90840960D01*
%TD*%
%TA.AperFunction,Conductor*%
%TO.N,GND*%
G36*
X168984563Y-89302414D02*
G01*
X168989145Y-89303222D01*
X169000000Y-89305136D01*
X169010856Y-89303222D01*
X169021878Y-89303222D01*
X169021878Y-89303779D01*
X169034152Y-89303188D01*
X169177759Y-89314490D01*
X169197285Y-89317583D01*
X169361030Y-89356895D01*
X169379824Y-89363001D01*
X169535405Y-89427445D01*
X169553010Y-89436415D01*
X169696597Y-89524405D01*
X169712592Y-89536027D01*
X169840634Y-89645385D01*
X169854615Y-89659366D01*
X169903545Y-89716656D01*
X169959598Y-89782285D01*
X169963973Y-89787408D01*
X169975594Y-89803401D01*
X170063585Y-89946990D01*
X170072555Y-89964595D01*
X170100888Y-90032996D01*
X170136997Y-90120171D01*
X170143105Y-90138970D01*
X170182417Y-90302714D01*
X170185510Y-90322242D01*
X170196812Y-90465845D01*
X170196221Y-90478122D01*
X170196778Y-90478122D01*
X170196778Y-90489144D01*
X170194864Y-90500000D01*
X170196778Y-90510855D01*
X170197586Y-90515437D01*
X170199500Y-90537317D01*
X170199500Y-118962683D01*
X170197586Y-118984563D01*
X170194864Y-119000000D01*
X170196778Y-119010856D01*
X170196778Y-119021878D01*
X170196221Y-119021878D01*
X170196812Y-119034155D01*
X170185510Y-119177758D01*
X170182417Y-119197285D01*
X170173239Y-119235517D01*
X170143107Y-119361025D01*
X170136999Y-119379824D01*
X170072555Y-119535405D01*
X170063585Y-119553010D01*
X169979331Y-119690500D01*
X169975595Y-119696597D01*
X169963973Y-119712592D01*
X169854615Y-119840634D01*
X169840634Y-119854615D01*
X169712592Y-119963973D01*
X169696599Y-119975594D01*
X169553010Y-120063585D01*
X169535405Y-120072555D01*
X169379824Y-120136999D01*
X169361030Y-120143105D01*
X169197286Y-120182417D01*
X169177759Y-120185510D01*
X169034152Y-120196812D01*
X169021878Y-120196221D01*
X169021878Y-120196778D01*
X169010856Y-120196778D01*
X169000000Y-120194864D01*
X168989145Y-120196778D01*
X168984563Y-120197586D01*
X168962683Y-120199500D01*
X154537317Y-120199500D01*
X154515437Y-120197586D01*
X154510855Y-120196778D01*
X154500000Y-120194864D01*
X154489144Y-120196778D01*
X154478122Y-120196778D01*
X154478122Y-120196221D01*
X154465848Y-120196812D01*
X154322241Y-120185510D01*
X154302714Y-120182417D01*
X154138970Y-120143105D01*
X154120176Y-120136999D01*
X153964595Y-120072555D01*
X153946990Y-120063585D01*
X153803401Y-119975594D01*
X153787408Y-119963973D01*
X153659366Y-119854615D01*
X153645385Y-119840634D01*
X153536027Y-119712592D01*
X153524405Y-119696597D01*
X153520669Y-119690500D01*
X153436415Y-119553010D01*
X153427445Y-119535405D01*
X153363001Y-119379824D01*
X153356893Y-119361025D01*
X153326762Y-119235517D01*
X153317583Y-119197285D01*
X153314490Y-119177758D01*
X153303188Y-119034155D01*
X153303779Y-119021878D01*
X153303222Y-119021878D01*
X153303222Y-119010856D01*
X153305136Y-119000000D01*
X153302414Y-118984563D01*
X153300500Y-118962683D01*
X153300500Y-117792088D01*
X157766810Y-117792088D01*
X157776106Y-117804103D01*
X157818104Y-117833510D01*
X157827599Y-117838993D01*
X158015860Y-117926780D01*
X158026152Y-117930526D01*
X158226796Y-117984288D01*
X158237591Y-117986191D01*
X158444525Y-118004296D01*
X158455475Y-118004296D01*
X158662409Y-117986191D01*
X158673204Y-117984288D01*
X158873848Y-117930526D01*
X158884140Y-117926780D01*
X159072401Y-117838993D01*
X159081896Y-117833510D01*
X159124732Y-117803516D01*
X159133107Y-117793039D01*
X159126039Y-117779592D01*
X158462812Y-117116365D01*
X158448868Y-117108751D01*
X158447035Y-117108882D01*
X158440420Y-117113133D01*
X157773240Y-117780313D01*
X157766810Y-117792088D01*
X153300500Y-117792088D01*
X153300500Y-116755475D01*
X157195704Y-116755475D01*
X157213809Y-116962409D01*
X157215712Y-116973204D01*
X157269474Y-117173848D01*
X157273220Y-117184140D01*
X157361010Y-117372406D01*
X157366488Y-117381892D01*
X157396484Y-117424731D01*
X157406961Y-117433106D01*
X157420409Y-117426038D01*
X158083635Y-116762812D01*
X158090013Y-116751132D01*
X158808751Y-116751132D01*
X158808882Y-116752965D01*
X158813133Y-116759580D01*
X159480313Y-117426760D01*
X159492087Y-117433190D01*
X159504103Y-117423893D01*
X159533512Y-117381892D01*
X159538990Y-117372406D01*
X159626780Y-117184140D01*
X159630526Y-117173848D01*
X159684288Y-116973204D01*
X159686191Y-116962409D01*
X159704296Y-116755475D01*
X159704296Y-116744525D01*
X159686191Y-116537591D01*
X159684288Y-116526796D01*
X159630526Y-116326152D01*
X159626780Y-116315860D01*
X159538990Y-116127594D01*
X159533512Y-116118108D01*
X159503516Y-116075269D01*
X159493039Y-116066894D01*
X159479591Y-116073962D01*
X158816365Y-116737188D01*
X158808751Y-116751132D01*
X158090013Y-116751132D01*
X158091249Y-116748868D01*
X158091118Y-116747035D01*
X158086867Y-116740420D01*
X157419687Y-116073240D01*
X157407913Y-116066810D01*
X157395897Y-116076107D01*
X157366488Y-116118108D01*
X157361010Y-116127594D01*
X157273220Y-116315860D01*
X157269474Y-116326152D01*
X157215712Y-116526796D01*
X157213809Y-116537591D01*
X157195704Y-116744525D01*
X157195704Y-116755475D01*
X153300500Y-116755475D01*
X153300500Y-115706961D01*
X157766894Y-115706961D01*
X157773962Y-115720409D01*
X158437188Y-116383635D01*
X158451132Y-116391249D01*
X158452965Y-116391118D01*
X158459580Y-116386867D01*
X159126760Y-115719687D01*
X159133190Y-115707912D01*
X159123894Y-115695897D01*
X159081896Y-115666490D01*
X159072401Y-115661007D01*
X158884140Y-115573220D01*
X158873848Y-115569474D01*
X158673204Y-115515712D01*
X158662409Y-115513809D01*
X158455475Y-115495704D01*
X158444525Y-115495704D01*
X158237591Y-115513809D01*
X158226796Y-115515712D01*
X158026152Y-115569474D01*
X158015860Y-115573220D01*
X157827594Y-115661010D01*
X157818108Y-115666488D01*
X157775269Y-115696484D01*
X157766894Y-115706961D01*
X153300500Y-115706961D01*
X153300500Y-111537317D01*
X153302414Y-111515437D01*
X153303222Y-111510853D01*
X153305136Y-111500000D01*
X153303906Y-111493022D01*
X153303341Y-111484403D01*
X153312937Y-111451726D01*
X153319392Y-111422946D01*
X153322203Y-111420171D01*
X153323227Y-111416684D01*
X153343734Y-111398916D01*
X153369917Y-111373068D01*
X153374739Y-111372052D01*
X153376884Y-111370193D01*
X153421003Y-111359076D01*
X153421416Y-111359049D01*
X153421620Y-111362170D01*
X153439387Y-111358425D01*
X153505746Y-111383664D01*
X153518683Y-111394948D01*
X154505901Y-112382166D01*
X154509554Y-112385975D01*
X154551570Y-112431667D01*
X154588568Y-112454606D01*
X154598319Y-112461308D01*
X154632987Y-112487623D01*
X154646964Y-112493157D01*
X154666973Y-112503220D01*
X154672459Y-112506622D01*
X154672463Y-112506624D01*
X154679757Y-112511146D01*
X154687999Y-112513540D01*
X154688002Y-112513542D01*
X154721555Y-112523290D01*
X154732768Y-112527129D01*
X154773224Y-112543146D01*
X154781767Y-112544044D01*
X154781768Y-112544044D01*
X154788173Y-112544717D01*
X154810151Y-112549029D01*
X154824596Y-112553226D01*
X154831179Y-112553709D01*
X154831182Y-112553710D01*
X154832979Y-112553842D01*
X154832990Y-112553842D01*
X154835286Y-112554011D01*
X154869990Y-112554011D01*
X154883161Y-112554701D01*
X154923225Y-112558912D01*
X154931690Y-112557480D01*
X154931699Y-112557480D01*
X154941771Y-112555776D01*
X154962784Y-112554011D01*
X157957190Y-112554011D01*
X158025311Y-112574013D01*
X158071804Y-112627669D01*
X158081908Y-112697943D01*
X158052414Y-112762523D01*
X158015566Y-112791672D01*
X157872002Y-112866726D01*
X157867201Y-112870586D01*
X157867198Y-112870588D01*
X157716254Y-112991950D01*
X157711447Y-112995815D01*
X157579024Y-113153630D01*
X157576056Y-113159028D01*
X157576053Y-113159033D01*
X157505331Y-113287677D01*
X157479776Y-113334162D01*
X157417484Y-113530532D01*
X157416798Y-113536649D01*
X157416797Y-113536653D01*
X157411407Y-113584706D01*
X157394520Y-113735262D01*
X157395036Y-113741406D01*
X157411178Y-113933629D01*
X157411759Y-113940553D01*
X157413458Y-113946478D01*
X157423145Y-113980259D01*
X157468544Y-114138586D01*
X157471359Y-114144063D01*
X157471360Y-114144066D01*
X157559897Y-114316341D01*
X157562712Y-114321818D01*
X157690677Y-114483270D01*
X157695370Y-114487264D01*
X157695371Y-114487265D01*
X157749217Y-114533091D01*
X157847564Y-114616791D01*
X158027398Y-114717297D01*
X158122238Y-114748113D01*
X158217471Y-114779056D01*
X158217475Y-114779057D01*
X158223329Y-114780959D01*
X158427894Y-114805351D01*
X158434029Y-114804879D01*
X158434031Y-114804879D01*
X158627156Y-114790019D01*
X158627159Y-114790019D01*
X158633300Y-114789546D01*
X158635566Y-114788913D01*
X158704812Y-114796633D01*
X158745233Y-114823757D01*
X159303629Y-115382153D01*
X159307282Y-115385962D01*
X159349310Y-115431667D01*
X159356610Y-115436193D01*
X159356611Y-115436194D01*
X159386294Y-115454598D01*
X159396064Y-115461312D01*
X159430727Y-115487623D01*
X159444704Y-115493157D01*
X159464713Y-115503220D01*
X159470199Y-115506622D01*
X159470203Y-115506624D01*
X159477497Y-115511146D01*
X159485739Y-115513540D01*
X159485742Y-115513542D01*
X159519295Y-115523290D01*
X159530508Y-115527129D01*
X159570964Y-115543146D01*
X159579507Y-115544044D01*
X159579508Y-115544044D01*
X159585913Y-115544717D01*
X159607891Y-115549029D01*
X159622336Y-115553226D01*
X159628919Y-115553709D01*
X159628922Y-115553710D01*
X159630719Y-115553842D01*
X159630730Y-115553842D01*
X159633026Y-115554011D01*
X159667730Y-115554011D01*
X159680901Y-115554701D01*
X159720965Y-115558912D01*
X159729430Y-115557480D01*
X159729439Y-115557480D01*
X159739511Y-115555776D01*
X159760524Y-115554011D01*
X160957190Y-115554011D01*
X161025311Y-115574013D01*
X161071804Y-115627669D01*
X161081908Y-115697943D01*
X161052414Y-115762523D01*
X161015566Y-115791672D01*
X160872002Y-115866726D01*
X160867201Y-115870586D01*
X160867198Y-115870588D01*
X160815946Y-115911796D01*
X160711447Y-115995815D01*
X160579024Y-116153630D01*
X160576056Y-116159028D01*
X160576053Y-116159033D01*
X160482743Y-116328765D01*
X160479776Y-116334162D01*
X160417484Y-116530532D01*
X160416798Y-116536649D01*
X160416797Y-116536653D01*
X160399051Y-116694864D01*
X160394520Y-116735262D01*
X160397931Y-116775877D01*
X160410999Y-116931497D01*
X160411759Y-116940553D01*
X160413458Y-116946478D01*
X160460027Y-117108882D01*
X160468544Y-117138586D01*
X160471359Y-117144063D01*
X160471360Y-117144066D01*
X160559897Y-117316341D01*
X160562712Y-117321818D01*
X160690677Y-117483270D01*
X160847564Y-117616791D01*
X161027398Y-117717297D01*
X161122238Y-117748113D01*
X161217471Y-117779056D01*
X161217475Y-117779057D01*
X161223329Y-117780959D01*
X161427894Y-117805351D01*
X161434029Y-117804879D01*
X161434031Y-117804879D01*
X161490039Y-117800569D01*
X161633300Y-117789546D01*
X161639230Y-117787890D01*
X161639232Y-117787890D01*
X161825797Y-117735800D01*
X161825796Y-117735800D01*
X161831725Y-117734145D01*
X161837214Y-117731372D01*
X161837220Y-117731370D01*
X162010116Y-117644033D01*
X162015610Y-117641258D01*
X162177951Y-117514424D01*
X162312564Y-117358472D01*
X162333387Y-117321818D01*
X162378229Y-117242881D01*
X162414323Y-117179344D01*
X162479351Y-116983863D01*
X162505171Y-116779474D01*
X162505449Y-116759580D01*
X162505534Y-116753522D01*
X162505534Y-116753518D01*
X162505583Y-116750000D01*
X162485480Y-116544970D01*
X162425935Y-116347749D01*
X162329218Y-116165849D01*
X162255859Y-116075902D01*
X162202906Y-116010975D01*
X162202903Y-116010972D01*
X162199011Y-116006200D01*
X162181786Y-115991950D01*
X162045025Y-115878811D01*
X162045021Y-115878809D01*
X162040275Y-115874882D01*
X162034855Y-115871952D01*
X162034850Y-115871948D01*
X161884856Y-115790847D01*
X161834447Y-115740852D01*
X161819069Y-115671541D01*
X161843605Y-115604919D01*
X161900265Y-115562138D01*
X161944784Y-115554011D01*
X161954229Y-115554011D01*
X161959506Y-115554122D01*
X162021516Y-115556721D01*
X162033070Y-115554011D01*
X162063884Y-115546784D01*
X162075555Y-115544621D01*
X162090451Y-115542580D01*
X162118654Y-115538717D01*
X162132452Y-115532746D01*
X162153721Y-115525712D01*
X162159997Y-115524240D01*
X162168358Y-115522279D01*
X162175883Y-115518142D01*
X162175886Y-115518141D01*
X162206490Y-115501316D01*
X162217135Y-115496100D01*
X162257077Y-115478816D01*
X162268763Y-115469353D01*
X162287348Y-115456865D01*
X162300530Y-115449618D01*
X162308644Y-115442614D01*
X162333180Y-115418078D01*
X162342981Y-115409253D01*
X162367614Y-115389305D01*
X162367615Y-115389304D01*
X162374292Y-115383897D01*
X162379265Y-115376899D01*
X162379270Y-115376894D01*
X162385190Y-115368563D01*
X162398801Y-115352457D01*
X163835686Y-113915572D01*
X163839471Y-113911941D01*
X163862320Y-113890931D01*
X163926000Y-113859546D01*
X163996541Y-113867572D01*
X164051545Y-113912461D01*
X164073549Y-113979962D01*
X164067606Y-114022093D01*
X164014338Y-114188503D01*
X163971322Y-114452636D01*
X163971261Y-114457313D01*
X163967897Y-114714290D01*
X163967819Y-114720226D01*
X164003907Y-114985395D01*
X164078792Y-115242317D01*
X164190831Y-115485348D01*
X164221907Y-115532746D01*
X164334996Y-115705236D01*
X164335000Y-115705241D01*
X164337562Y-115709149D01*
X164385200Y-115762523D01*
X164482866Y-115871948D01*
X164515760Y-115908803D01*
X164721512Y-116079925D01*
X164725505Y-116082348D01*
X164946306Y-116216334D01*
X164946310Y-116216336D01*
X164950298Y-116218756D01*
X164954606Y-116220563D01*
X164954607Y-116220563D01*
X165192776Y-116320436D01*
X165192781Y-116320438D01*
X165197091Y-116322245D01*
X165201623Y-116323396D01*
X165201626Y-116323397D01*
X165451933Y-116386967D01*
X165451936Y-116386968D01*
X165456470Y-116388119D01*
X165461126Y-116388588D01*
X165461127Y-116388588D01*
X165675602Y-116410184D01*
X165675603Y-116410184D01*
X165678741Y-116410500D01*
X165837944Y-116410500D01*
X165840267Y-116410327D01*
X165840277Y-116410327D01*
X166032212Y-116396064D01*
X166032216Y-116396063D01*
X166036877Y-116395717D01*
X166041441Y-116394684D01*
X166041443Y-116394684D01*
X166248863Y-116347749D01*
X166297891Y-116336655D01*
X166304302Y-116334162D01*
X166542956Y-116241355D01*
X166542958Y-116241354D01*
X166547309Y-116239662D01*
X166588125Y-116216334D01*
X166688380Y-116159033D01*
X166779650Y-116106868D01*
X166989811Y-115941190D01*
X167173175Y-115746269D01*
X167325714Y-115526385D01*
X167329761Y-115518178D01*
X167442011Y-115290559D01*
X167442012Y-115290556D01*
X167444076Y-115286371D01*
X167525662Y-115031497D01*
X167563911Y-114796633D01*
X167567927Y-114771976D01*
X167567927Y-114771975D01*
X167568678Y-114767364D01*
X167572181Y-114499774D01*
X167536093Y-114234605D01*
X167461208Y-113977683D01*
X167349169Y-113734652D01*
X167300843Y-113660943D01*
X167205004Y-113514764D01*
X167205000Y-113514759D01*
X167202438Y-113510851D01*
X167056864Y-113347749D01*
X167027357Y-113314689D01*
X167027355Y-113314687D01*
X167024240Y-113311197D01*
X166818488Y-113140075D01*
X166770266Y-113110813D01*
X166593694Y-113003666D01*
X166593690Y-113003664D01*
X166589702Y-113001244D01*
X166585393Y-112999437D01*
X166347224Y-112899564D01*
X166347219Y-112899562D01*
X166342909Y-112897755D01*
X166338377Y-112896604D01*
X166338374Y-112896603D01*
X166088067Y-112833033D01*
X166088064Y-112833032D01*
X166083530Y-112831881D01*
X166078874Y-112831412D01*
X166078873Y-112831412D01*
X165864398Y-112809816D01*
X165864397Y-112809816D01*
X165861259Y-112809500D01*
X165702056Y-112809500D01*
X165699733Y-112809673D01*
X165699723Y-112809673D01*
X165507788Y-112823936D01*
X165507784Y-112823937D01*
X165503123Y-112824283D01*
X165498559Y-112825316D01*
X165498557Y-112825316D01*
X165446489Y-112837098D01*
X165242109Y-112883345D01*
X165237757Y-112885037D01*
X165237755Y-112885038D01*
X164997044Y-112978645D01*
X164997042Y-112978646D01*
X164992691Y-112980338D01*
X164988637Y-112982655D01*
X164988635Y-112982656D01*
X164939087Y-113010975D01*
X164760350Y-113113132D01*
X164550189Y-113278810D01*
X164366825Y-113473731D01*
X164364164Y-113477567D01*
X164364159Y-113477573D01*
X164236950Y-113660943D01*
X164181687Y-113705513D01*
X164111100Y-113713130D01*
X164047601Y-113681376D01*
X164011349Y-113620332D01*
X164007690Y-113586187D01*
X164007531Y-113586187D01*
X164007531Y-113551493D01*
X164008221Y-113538322D01*
X164011535Y-113506792D01*
X164012433Y-113498248D01*
X164009296Y-113479701D01*
X164007531Y-113458688D01*
X164007531Y-95927755D01*
X164027533Y-95859634D01*
X164081189Y-95813141D01*
X164151463Y-95803037D01*
X164216043Y-95832531D01*
X164238903Y-95858670D01*
X164334996Y-96005236D01*
X164335000Y-96005241D01*
X164337562Y-96009149D01*
X164426661Y-96108976D01*
X164476696Y-96165035D01*
X164515760Y-96208803D01*
X164626014Y-96300500D01*
X164695718Y-96358472D01*
X164721512Y-96379925D01*
X164725505Y-96382348D01*
X164946306Y-96516334D01*
X164946310Y-96516336D01*
X164950298Y-96518756D01*
X164954606Y-96520563D01*
X164954607Y-96520563D01*
X165192776Y-96620436D01*
X165192781Y-96620438D01*
X165197091Y-96622245D01*
X165201623Y-96623396D01*
X165201626Y-96623397D01*
X165451933Y-96686967D01*
X165451936Y-96686968D01*
X165456470Y-96688119D01*
X165461126Y-96688588D01*
X165461127Y-96688588D01*
X165675602Y-96710184D01*
X165675603Y-96710184D01*
X165678741Y-96710500D01*
X165837944Y-96710500D01*
X165840267Y-96710327D01*
X165840277Y-96710327D01*
X166032212Y-96696064D01*
X166032216Y-96696063D01*
X166036877Y-96695717D01*
X166041441Y-96694684D01*
X166041443Y-96694684D01*
X166231451Y-96651689D01*
X166297891Y-96636655D01*
X166331984Y-96623397D01*
X166542956Y-96541355D01*
X166542958Y-96541354D01*
X166547309Y-96539662D01*
X166564834Y-96529646D01*
X166752385Y-96422451D01*
X166779650Y-96406868D01*
X166989811Y-96241190D01*
X167173175Y-96046269D01*
X167325714Y-95826385D01*
X167331243Y-95815173D01*
X167442011Y-95590559D01*
X167442012Y-95590556D01*
X167444076Y-95586371D01*
X167475188Y-95489179D01*
X167524239Y-95335942D01*
X167525662Y-95331497D01*
X167564458Y-95093277D01*
X167567927Y-95071976D01*
X167567927Y-95071975D01*
X167568678Y-95067364D01*
X167570969Y-94892352D01*
X167572120Y-94804451D01*
X167572120Y-94804448D01*
X167572181Y-94799774D01*
X167536093Y-94534605D01*
X167461208Y-94277683D01*
X167349169Y-94034652D01*
X167301648Y-93962171D01*
X167205004Y-93814764D01*
X167205000Y-93814759D01*
X167202438Y-93810851D01*
X167065314Y-93657216D01*
X167027357Y-93614689D01*
X167027355Y-93614687D01*
X167024240Y-93611197D01*
X166818488Y-93440075D01*
X166767179Y-93408940D01*
X166593694Y-93303666D01*
X166593690Y-93303664D01*
X166589702Y-93301244D01*
X166535810Y-93278645D01*
X166347224Y-93199564D01*
X166347219Y-93199562D01*
X166342909Y-93197755D01*
X166338377Y-93196604D01*
X166338374Y-93196603D01*
X166088067Y-93133033D01*
X166088064Y-93133032D01*
X166083530Y-93131881D01*
X166078874Y-93131412D01*
X166078873Y-93131412D01*
X165864398Y-93109816D01*
X165864397Y-93109816D01*
X165861259Y-93109500D01*
X165702056Y-93109500D01*
X165699733Y-93109673D01*
X165699723Y-93109673D01*
X165507788Y-93123936D01*
X165507784Y-93123937D01*
X165503123Y-93124283D01*
X165498559Y-93125316D01*
X165498557Y-93125316D01*
X165405677Y-93146333D01*
X165242109Y-93183345D01*
X165237757Y-93185037D01*
X165237755Y-93185038D01*
X164997044Y-93278645D01*
X164997042Y-93278646D01*
X164992691Y-93280338D01*
X164988637Y-93282655D01*
X164988635Y-93282656D01*
X164924112Y-93319534D01*
X164760350Y-93413132D01*
X164550189Y-93578810D01*
X164366825Y-93773731D01*
X164271018Y-93911837D01*
X164237059Y-93960788D01*
X164181795Y-94005358D01*
X164111209Y-94012975D01*
X164047709Y-93981221D01*
X164011457Y-93920177D01*
X164007531Y-93888968D01*
X164007531Y-91910334D01*
X164007642Y-91905058D01*
X164009881Y-91851632D01*
X164010241Y-91843047D01*
X164002263Y-91809033D01*
X164000304Y-91800679D01*
X163998141Y-91789008D01*
X163993403Y-91754422D01*
X163992237Y-91745909D01*
X163988696Y-91737725D01*
X163986266Y-91732111D01*
X163979232Y-91710842D01*
X163977761Y-91704569D01*
X163977760Y-91704567D01*
X163975799Y-91696205D01*
X163954836Y-91658075D01*
X163949614Y-91647414D01*
X163935747Y-91615368D01*
X163935746Y-91615367D01*
X163932336Y-91607486D01*
X163922873Y-91595800D01*
X163910382Y-91577212D01*
X163903137Y-91564033D01*
X163896133Y-91555919D01*
X163871598Y-91531384D01*
X163862773Y-91521583D01*
X163842825Y-91496949D01*
X163842824Y-91496948D01*
X163837417Y-91490271D01*
X163830415Y-91485295D01*
X163830413Y-91485293D01*
X163822082Y-91479373D01*
X163805976Y-91465762D01*
X162172013Y-89831799D01*
X162168360Y-89827990D01*
X162165285Y-89824646D01*
X162126332Y-89782285D01*
X162089329Y-89759342D01*
X162079579Y-89752641D01*
X162044914Y-89726329D01*
X162030935Y-89720795D01*
X162010932Y-89710734D01*
X161998145Y-89702806D01*
X161989894Y-89700409D01*
X161989892Y-89700408D01*
X161956359Y-89690666D01*
X161945126Y-89686820D01*
X161942224Y-89685671D01*
X161904678Y-89670805D01*
X161896137Y-89669907D01*
X161896136Y-89669907D01*
X161889723Y-89669233D01*
X161867748Y-89664921D01*
X161853306Y-89660726D01*
X161845823Y-89660176D01*
X161844923Y-89660110D01*
X161844912Y-89660110D01*
X161842616Y-89659941D01*
X161807914Y-89659941D01*
X161794744Y-89659251D01*
X161784515Y-89658176D01*
X161754677Y-89655040D01*
X161746212Y-89656472D01*
X161746203Y-89656472D01*
X161736131Y-89658176D01*
X161715118Y-89659941D01*
X133570045Y-89659940D01*
X133514553Y-89659940D01*
X133509277Y-89659829D01*
X133504870Y-89659644D01*
X133447266Y-89657230D01*
X133438903Y-89659192D01*
X133436899Y-89659381D01*
X133425043Y-89659940D01*
X129013915Y-89659940D01*
X129008639Y-89659829D01*
X129004232Y-89659644D01*
X128946628Y-89657230D01*
X128938263Y-89659192D01*
X128904260Y-89667167D01*
X128892589Y-89669330D01*
X128881822Y-89670805D01*
X128849490Y-89675234D01*
X128841606Y-89678646D01*
X128841605Y-89678646D01*
X128835692Y-89681205D01*
X128814423Y-89688239D01*
X128799786Y-89691672D01*
X128792261Y-89695809D01*
X128792258Y-89695810D01*
X128761654Y-89712635D01*
X128751009Y-89717851D01*
X128711067Y-89735135D01*
X128699381Y-89744598D01*
X128680797Y-89757085D01*
X128667614Y-89764333D01*
X128659500Y-89771337D01*
X128634964Y-89795873D01*
X128625163Y-89804698D01*
X128600530Y-89824646D01*
X128593852Y-89830054D01*
X128588879Y-89837052D01*
X128588874Y-89837057D01*
X128582954Y-89845388D01*
X128569343Y-89861494D01*
X127492835Y-90938002D01*
X127489028Y-90941653D01*
X127443324Y-90983681D01*
X127420381Y-91020684D01*
X127413680Y-91030434D01*
X127387368Y-91065099D01*
X127382654Y-91077005D01*
X127381834Y-91079077D01*
X127371773Y-91099081D01*
X127363845Y-91111868D01*
X127361448Y-91120119D01*
X127361447Y-91120121D01*
X127351705Y-91153654D01*
X127347860Y-91164884D01*
X127331844Y-91205335D01*
X127330946Y-91213876D01*
X127330946Y-91213877D01*
X127330272Y-91220290D01*
X127325960Y-91242265D01*
X127321765Y-91256707D01*
X127320980Y-91267397D01*
X127320980Y-91302099D01*
X127320290Y-91315269D01*
X127316079Y-91355336D01*
X127317511Y-91363801D01*
X127317511Y-91363810D01*
X127319215Y-91373882D01*
X127320980Y-91394895D01*
X127320980Y-108938304D01*
X127300978Y-109006425D01*
X127284076Y-109027399D01*
X126611346Y-109700130D01*
X126607536Y-109703783D01*
X126561844Y-109745799D01*
X126538901Y-109782802D01*
X126532200Y-109792552D01*
X126505888Y-109827217D01*
X126500354Y-109841195D01*
X126490293Y-109861199D01*
X126482365Y-109873986D01*
X126479968Y-109882237D01*
X126479967Y-109882239D01*
X126470225Y-109915772D01*
X126466380Y-109927002D01*
X126450364Y-109967453D01*
X126449466Y-109975994D01*
X126449466Y-109975995D01*
X126448792Y-109982408D01*
X126444480Y-110004383D01*
X126440285Y-110018825D01*
X126439500Y-110029515D01*
X126439500Y-110064217D01*
X126438810Y-110077387D01*
X126434599Y-110117454D01*
X126436031Y-110125919D01*
X126436031Y-110125928D01*
X126437735Y-110136000D01*
X126439500Y-110157013D01*
X126439500Y-110405125D01*
X126416587Y-110477575D01*
X126368113Y-110546547D01*
X126365354Y-110553622D01*
X126365353Y-110553625D01*
X126346842Y-110601103D01*
X126306524Y-110704513D01*
X126305532Y-110712046D01*
X126305532Y-110712047D01*
X126292703Y-110809500D01*
X126284394Y-110872611D01*
X126302999Y-111041135D01*
X126326689Y-111105871D01*
X126353577Y-111179344D01*
X126361266Y-111200356D01*
X126365502Y-111206659D01*
X126365502Y-111206660D01*
X126378574Y-111226113D01*
X126455830Y-111341083D01*
X126461442Y-111346190D01*
X126461445Y-111346193D01*
X126575612Y-111450077D01*
X126575616Y-111450080D01*
X126581233Y-111455191D01*
X126587906Y-111458814D01*
X126587910Y-111458817D01*
X126723558Y-111532467D01*
X126723560Y-111532468D01*
X126730235Y-111536092D01*
X126737584Y-111538020D01*
X126886883Y-111577188D01*
X126886885Y-111577188D01*
X126894233Y-111579116D01*
X126980609Y-111580473D01*
X127056161Y-111581660D01*
X127056164Y-111581660D01*
X127063760Y-111581779D01*
X127071165Y-111580083D01*
X127071166Y-111580083D01*
X127131586Y-111566245D01*
X127229029Y-111543928D01*
X127380498Y-111467747D01*
X127478981Y-111383634D01*
X127503651Y-111362564D01*
X127503652Y-111362563D01*
X127509423Y-111357634D01*
X127608361Y-111219947D01*
X127616237Y-111200356D01*
X127668766Y-111069687D01*
X127668767Y-111069685D01*
X127671601Y-111062634D01*
X127688132Y-110946478D01*
X127694909Y-110898862D01*
X127694909Y-110898859D01*
X127695490Y-110894778D01*
X127695645Y-110880000D01*
X127693840Y-110865080D01*
X127687586Y-110813401D01*
X127675276Y-110711680D01*
X127633651Y-110601522D01*
X127618029Y-110560179D01*
X127618028Y-110560176D01*
X127615345Y-110553077D01*
X127611047Y-110546823D01*
X127611043Y-110546816D01*
X127562661Y-110476421D01*
X127540500Y-110405053D01*
X127540500Y-110380216D01*
X127560502Y-110312095D01*
X127577404Y-110291121D01*
X128040751Y-109827774D01*
X128103063Y-109793749D01*
X128173878Y-109798813D01*
X128230714Y-109841360D01*
X128255525Y-109907880D01*
X128240434Y-109977254D01*
X128231782Y-109990929D01*
X128194733Y-110041923D01*
X128194730Y-110041928D01*
X128190849Y-110047270D01*
X128113856Y-110220197D01*
X128102470Y-110273766D01*
X128075963Y-110398473D01*
X128074500Y-110405354D01*
X128074500Y-110594646D01*
X128075872Y-110601099D01*
X128075872Y-110601103D01*
X128093022Y-110681788D01*
X128113856Y-110779803D01*
X128190849Y-110952730D01*
X128302112Y-111105871D01*
X128307014Y-111110284D01*
X128307015Y-111110286D01*
X128365451Y-111162902D01*
X128442784Y-111232533D01*
X128448505Y-111235836D01*
X128505251Y-111268598D01*
X128606716Y-111327179D01*
X128786744Y-111385674D01*
X128793305Y-111386364D01*
X128793307Y-111386364D01*
X128846963Y-111392003D01*
X128927808Y-111400500D01*
X129572192Y-111400500D01*
X129653037Y-111392003D01*
X129706693Y-111386364D01*
X129706695Y-111386364D01*
X129713256Y-111385674D01*
X129893284Y-111327179D01*
X129994750Y-111268598D01*
X130051495Y-111235836D01*
X130057216Y-111232533D01*
X130134549Y-111162902D01*
X130192985Y-111110286D01*
X130192986Y-111110284D01*
X130197888Y-111105871D01*
X130309151Y-110952730D01*
X130386144Y-110779803D01*
X130406978Y-110681788D01*
X130424128Y-110601103D01*
X130424128Y-110601099D01*
X130425500Y-110594646D01*
X130425500Y-110405354D01*
X130424038Y-110398473D01*
X130397530Y-110273766D01*
X130386144Y-110220197D01*
X130309151Y-110047270D01*
X130293268Y-110025408D01*
X130201767Y-109899468D01*
X130197888Y-109894129D01*
X130150710Y-109851649D01*
X130062124Y-109771886D01*
X130062123Y-109771885D01*
X130057216Y-109767467D01*
X129962559Y-109712817D01*
X129899007Y-109676125D01*
X129899006Y-109676124D01*
X129893284Y-109672821D01*
X129811763Y-109646333D01*
X129753157Y-109606259D01*
X129725520Y-109540863D01*
X129737627Y-109470906D01*
X129785633Y-109418600D01*
X129850699Y-109400500D01*
X129917772Y-109400500D01*
X130007547Y-109389636D01*
X130015075Y-109386656D01*
X130015077Y-109386655D01*
X130091063Y-109356570D01*
X130147783Y-109334113D01*
X130267922Y-109242922D01*
X130359113Y-109122783D01*
X130393228Y-109036617D01*
X130411655Y-108990077D01*
X130411656Y-108990075D01*
X130414636Y-108982547D01*
X130425500Y-108892772D01*
X130425500Y-108107228D01*
X130414636Y-108017453D01*
X130392460Y-107961441D01*
X130374400Y-107915827D01*
X130359113Y-107877217D01*
X130267922Y-107757078D01*
X130147783Y-107665887D01*
X130078020Y-107638266D01*
X130015077Y-107613345D01*
X130015075Y-107613344D01*
X130007547Y-107610364D01*
X129917772Y-107599500D01*
X128582228Y-107599500D01*
X128563117Y-107601813D01*
X128493089Y-107590141D01*
X128440486Y-107542460D01*
X128421980Y-107476726D01*
X128421980Y-104188196D01*
X128441982Y-104120075D01*
X128495638Y-104073582D01*
X128565912Y-104063478D01*
X128599231Y-104073090D01*
X128600991Y-104073873D01*
X128606716Y-104077179D01*
X128786744Y-104135674D01*
X128793305Y-104136364D01*
X128793307Y-104136364D01*
X128846963Y-104142003D01*
X128927808Y-104150500D01*
X129572192Y-104150500D01*
X129653037Y-104142003D01*
X129706693Y-104136364D01*
X129706695Y-104136364D01*
X129713256Y-104135674D01*
X129893284Y-104077179D01*
X129900367Y-104073090D01*
X130017911Y-104005226D01*
X139057819Y-104005226D01*
X139093907Y-104270395D01*
X139168792Y-104527317D01*
X139170752Y-104531570D01*
X139170753Y-104531571D01*
X139181828Y-104555594D01*
X139280831Y-104770348D01*
X139313072Y-104819524D01*
X139424996Y-104990236D01*
X139425000Y-104990241D01*
X139427562Y-104994149D01*
X139472377Y-105044360D01*
X139597642Y-105184707D01*
X139605760Y-105193803D01*
X139811512Y-105364925D01*
X139815505Y-105367348D01*
X140036306Y-105501334D01*
X140036310Y-105501336D01*
X140040298Y-105503756D01*
X140044606Y-105505563D01*
X140044607Y-105505563D01*
X140282776Y-105605436D01*
X140282781Y-105605438D01*
X140287091Y-105607245D01*
X140291623Y-105608396D01*
X140291626Y-105608397D01*
X140541933Y-105671967D01*
X140541936Y-105671968D01*
X140546470Y-105673119D01*
X140551126Y-105673588D01*
X140551127Y-105673588D01*
X140765602Y-105695184D01*
X140765603Y-105695184D01*
X140768741Y-105695500D01*
X140927944Y-105695500D01*
X140930267Y-105695327D01*
X140930277Y-105695327D01*
X141122212Y-105681064D01*
X141122216Y-105681063D01*
X141126877Y-105680717D01*
X141131441Y-105679684D01*
X141131443Y-105679684D01*
X141318004Y-105637469D01*
X141387891Y-105621655D01*
X141392245Y-105619962D01*
X141632956Y-105526355D01*
X141632958Y-105526354D01*
X141637309Y-105524662D01*
X141648593Y-105518213D01*
X141795892Y-105434024D01*
X141869650Y-105391868D01*
X142079811Y-105226190D01*
X142263175Y-105031269D01*
X142415714Y-104811385D01*
X142453254Y-104735262D01*
X142532011Y-104575559D01*
X142532012Y-104575556D01*
X142534076Y-104571371D01*
X142552325Y-104514363D01*
X142595281Y-104380167D01*
X142615662Y-104316497D01*
X142649964Y-104105871D01*
X142657927Y-104056976D01*
X142657927Y-104056975D01*
X142658678Y-104052364D01*
X142661146Y-103863869D01*
X142662120Y-103789451D01*
X142662120Y-103789448D01*
X142662181Y-103784774D01*
X142626093Y-103519605D01*
X142551208Y-103262683D01*
X142439169Y-103019652D01*
X142353978Y-102889714D01*
X142295004Y-102799764D01*
X142295000Y-102799759D01*
X142292438Y-102795851D01*
X142178388Y-102668069D01*
X142117357Y-102599689D01*
X142117355Y-102599687D01*
X142114240Y-102596197D01*
X141908488Y-102425075D01*
X141860266Y-102395813D01*
X141683694Y-102288666D01*
X141683690Y-102288664D01*
X141679702Y-102286244D01*
X141523889Y-102220906D01*
X141437224Y-102184564D01*
X141437219Y-102184562D01*
X141432909Y-102182755D01*
X141428377Y-102181604D01*
X141428374Y-102181603D01*
X141178067Y-102118033D01*
X141178064Y-102118032D01*
X141173530Y-102116881D01*
X141168874Y-102116412D01*
X141168873Y-102116412D01*
X140954398Y-102094816D01*
X140954397Y-102094816D01*
X140951259Y-102094500D01*
X140792056Y-102094500D01*
X140789733Y-102094673D01*
X140789723Y-102094673D01*
X140597788Y-102108936D01*
X140597784Y-102108937D01*
X140593123Y-102109283D01*
X140588559Y-102110316D01*
X140588557Y-102110316D01*
X140472157Y-102136655D01*
X140332109Y-102168345D01*
X140327757Y-102170037D01*
X140327755Y-102170038D01*
X140087044Y-102263645D01*
X140087042Y-102263646D01*
X140082691Y-102265338D01*
X140078637Y-102267655D01*
X140078635Y-102267656D01*
X140001455Y-102311768D01*
X139850350Y-102398132D01*
X139640189Y-102563810D01*
X139456825Y-102758731D01*
X139304286Y-102978615D01*
X139302220Y-102982804D01*
X139302219Y-102982806D01*
X139213872Y-103161957D01*
X139185924Y-103218629D01*
X139184502Y-103223072D01*
X139184501Y-103223074D01*
X139173184Y-103258429D01*
X139104338Y-103473503D01*
X139061322Y-103737636D01*
X139059632Y-103866726D01*
X139059161Y-103902748D01*
X139057819Y-104005226D01*
X130017911Y-104005226D01*
X130051495Y-103985836D01*
X130057216Y-103982533D01*
X130084383Y-103958072D01*
X130192985Y-103860286D01*
X130192986Y-103860284D01*
X130197888Y-103855871D01*
X130253137Y-103779827D01*
X130305270Y-103708072D01*
X130305271Y-103708071D01*
X130309151Y-103702730D01*
X130386144Y-103529803D01*
X130425500Y-103344646D01*
X130425500Y-103155354D01*
X130386144Y-102970197D01*
X130309151Y-102797270D01*
X130297301Y-102780959D01*
X130201767Y-102649468D01*
X130197888Y-102644129D01*
X130190492Y-102637469D01*
X130062124Y-102521886D01*
X130062123Y-102521885D01*
X130057216Y-102517467D01*
X130030755Y-102502190D01*
X129899007Y-102426125D01*
X129899006Y-102426124D01*
X129893284Y-102422821D01*
X129811763Y-102396333D01*
X129753157Y-102356259D01*
X129725520Y-102290863D01*
X129737627Y-102220906D01*
X129785633Y-102168600D01*
X129850699Y-102150500D01*
X129917772Y-102150500D01*
X130007547Y-102139636D01*
X130015075Y-102136656D01*
X130015077Y-102136655D01*
X130121548Y-102094500D01*
X130147783Y-102084113D01*
X130267922Y-101992922D01*
X130359113Y-101872783D01*
X130406587Y-101752876D01*
X130411655Y-101740077D01*
X130411656Y-101740075D01*
X130414636Y-101732547D01*
X130425500Y-101642772D01*
X130425500Y-100857228D01*
X130414636Y-100767453D01*
X130393097Y-100713050D01*
X130362275Y-100635204D01*
X130359113Y-100627217D01*
X130267922Y-100507078D01*
X130147783Y-100415887D01*
X130078020Y-100388266D01*
X130015077Y-100363345D01*
X130015075Y-100363344D01*
X130007547Y-100360364D01*
X129917772Y-100349500D01*
X128582228Y-100349500D01*
X128563117Y-100351813D01*
X128493089Y-100340141D01*
X128440486Y-100292460D01*
X128421980Y-100226726D01*
X128421980Y-99032229D01*
X139809500Y-99032229D01*
X139809501Y-100117770D01*
X139809956Y-100121528D01*
X139809956Y-100121533D01*
X139809957Y-100121537D01*
X139820364Y-100207547D01*
X139875888Y-100347783D01*
X139967078Y-100467922D01*
X140087217Y-100559112D01*
X140227453Y-100614636D01*
X140235491Y-100615609D01*
X140235492Y-100615609D01*
X140267063Y-100619429D01*
X140317229Y-100625500D01*
X140859642Y-100625500D01*
X141402770Y-100625499D01*
X141406528Y-100625044D01*
X141406533Y-100625044D01*
X141484517Y-100615608D01*
X141484520Y-100615607D01*
X141492547Y-100614636D01*
X141632783Y-100559112D01*
X141752922Y-100467922D01*
X141844112Y-100347783D01*
X141899636Y-100207547D01*
X141910500Y-100117771D01*
X141910499Y-99032230D01*
X141910044Y-99028467D01*
X141900608Y-98950483D01*
X141900607Y-98950480D01*
X141899636Y-98942453D01*
X141844112Y-98802217D01*
X141752922Y-98682078D01*
X141632783Y-98590888D01*
X141492547Y-98535364D01*
X141484509Y-98534391D01*
X141484508Y-98534391D01*
X141448188Y-98529996D01*
X141402771Y-98524500D01*
X140860358Y-98524500D01*
X140317230Y-98524501D01*
X140313472Y-98524956D01*
X140313467Y-98524956D01*
X140235483Y-98534392D01*
X140235480Y-98534393D01*
X140227453Y-98535364D01*
X140087217Y-98590888D01*
X139967078Y-98682078D01*
X139875888Y-98802217D01*
X139820364Y-98942453D01*
X139809500Y-99032229D01*
X128421980Y-99032229D01*
X128421980Y-97149733D01*
X128441982Y-97081612D01*
X128495638Y-97035119D01*
X128565912Y-97025015D01*
X128595079Y-97032867D01*
X128655600Y-97057258D01*
X128667051Y-97060650D01*
X128862722Y-97098861D01*
X128871557Y-97099935D01*
X128874242Y-97100000D01*
X128981885Y-97100000D01*
X128997124Y-97095525D01*
X128998329Y-97094135D01*
X129000000Y-97086452D01*
X129000000Y-97081885D01*
X129500000Y-97081885D01*
X129504475Y-97097124D01*
X129505865Y-97098329D01*
X129513548Y-97100000D01*
X129574454Y-97100000D01*
X129580430Y-97099715D01*
X129727974Y-97085638D01*
X129739709Y-97083379D01*
X129929615Y-97027667D01*
X129940691Y-97023237D01*
X130116637Y-96932619D01*
X130126683Y-96926169D01*
X130282314Y-96803919D01*
X130290967Y-96795679D01*
X130420670Y-96646209D01*
X130427604Y-96636489D01*
X130526704Y-96465188D01*
X130531678Y-96454324D01*
X130596599Y-96267371D01*
X130597221Y-96264820D01*
X130595677Y-96253992D01*
X130582112Y-96250000D01*
X129518115Y-96250000D01*
X129502876Y-96254475D01*
X129501671Y-96255865D01*
X129500000Y-96263548D01*
X129500000Y-97081885D01*
X129000000Y-97081885D01*
X129000000Y-95876000D01*
X129020002Y-95807879D01*
X129073658Y-95761386D01*
X129126000Y-95750000D01*
X130578138Y-95750000D01*
X130591669Y-95746027D01*
X130593024Y-95736601D01*
X130571206Y-95646072D01*
X130567323Y-95634793D01*
X130485403Y-95454622D01*
X130479457Y-95444282D01*
X130364949Y-95282854D01*
X130357156Y-95273826D01*
X130214188Y-95136964D01*
X130204823Y-95129568D01*
X130038560Y-95022213D01*
X130027963Y-95016720D01*
X129995189Y-95003512D01*
X129939482Y-94959497D01*
X129916415Y-94892352D01*
X129933311Y-94823395D01*
X129979286Y-94777526D01*
X130051495Y-94735836D01*
X130057216Y-94732533D01*
X130064111Y-94726325D01*
X130192985Y-94610286D01*
X130192986Y-94610284D01*
X130197888Y-94605871D01*
X130274140Y-94500919D01*
X130305270Y-94458072D01*
X130305271Y-94458071D01*
X130309151Y-94452730D01*
X130386144Y-94279803D01*
X130409721Y-94168881D01*
X130424128Y-94101103D01*
X130424128Y-94101099D01*
X130425500Y-94094646D01*
X130425500Y-93905354D01*
X130423200Y-93894529D01*
X130405413Y-93810851D01*
X130386144Y-93720197D01*
X130309151Y-93547270D01*
X130288058Y-93518237D01*
X130201767Y-93399468D01*
X130197888Y-93394129D01*
X130188453Y-93385633D01*
X130062124Y-93271886D01*
X130062123Y-93271885D01*
X130057216Y-93267467D01*
X130016504Y-93243962D01*
X129899007Y-93176125D01*
X129899006Y-93176124D01*
X129893284Y-93172821D01*
X129811763Y-93146333D01*
X129753157Y-93106259D01*
X129725520Y-93040863D01*
X129737627Y-92970906D01*
X129785633Y-92918600D01*
X129850699Y-92900500D01*
X129917772Y-92900500D01*
X130007547Y-92889636D01*
X130015075Y-92886656D01*
X130015077Y-92886655D01*
X130084168Y-92859300D01*
X130147783Y-92834113D01*
X130267922Y-92742922D01*
X130359113Y-92622783D01*
X130392623Y-92538146D01*
X130411655Y-92490077D01*
X130411656Y-92490075D01*
X130414636Y-92482547D01*
X130425500Y-92392772D01*
X130425500Y-91607228D01*
X130414636Y-91517453D01*
X130411025Y-91508331D01*
X130362275Y-91385204D01*
X130359113Y-91377217D01*
X130267922Y-91257078D01*
X130147783Y-91165887D01*
X130032191Y-91120121D01*
X130015077Y-91113345D01*
X130015075Y-91113344D01*
X130007547Y-91110364D01*
X129917772Y-91099500D01*
X129192576Y-91099500D01*
X129124455Y-91079498D01*
X129077962Y-91025842D01*
X129067858Y-90955568D01*
X129097352Y-90890988D01*
X129103481Y-90884405D01*
X129190041Y-90797845D01*
X129252353Y-90763819D01*
X129279136Y-90760940D01*
X131886226Y-90760940D01*
X131954347Y-90780942D01*
X132000840Y-90834598D01*
X132010944Y-90904872D01*
X131986590Y-90963118D01*
X131975888Y-90977217D01*
X131970438Y-90990982D01*
X131970354Y-90991195D01*
X131960293Y-91011199D01*
X131952365Y-91023986D01*
X131949968Y-91032237D01*
X131949967Y-91032239D01*
X131940225Y-91065772D01*
X131936380Y-91077002D01*
X131920364Y-91117453D01*
X131919466Y-91125994D01*
X131919466Y-91125995D01*
X131918792Y-91132408D01*
X131914480Y-91154383D01*
X131910285Y-91168825D01*
X131909500Y-91179515D01*
X131909500Y-91214217D01*
X131908810Y-91227387D01*
X131904599Y-91267454D01*
X131906031Y-91275919D01*
X131906031Y-91275928D01*
X131907735Y-91286000D01*
X131909500Y-91307013D01*
X131909500Y-93585007D01*
X131909389Y-93590283D01*
X131906790Y-93652294D01*
X131908752Y-93660659D01*
X131916727Y-93694662D01*
X131918890Y-93706333D01*
X131924794Y-93749432D01*
X131928206Y-93757316D01*
X131928206Y-93757317D01*
X131930765Y-93763230D01*
X131937799Y-93784499D01*
X131941232Y-93799136D01*
X131945369Y-93806661D01*
X131945370Y-93806664D01*
X131962195Y-93837268D01*
X131967411Y-93847913D01*
X131984695Y-93887855D01*
X131994158Y-93899541D01*
X132006645Y-93918125D01*
X132013893Y-93931308D01*
X132020897Y-93939422D01*
X132045433Y-93963958D01*
X132054258Y-93973759D01*
X132070338Y-93993615D01*
X132079614Y-94005070D01*
X132086612Y-94010043D01*
X132086617Y-94010048D01*
X132094948Y-94015968D01*
X132111054Y-94029579D01*
X132688650Y-94607175D01*
X132692303Y-94610984D01*
X132734319Y-94656676D01*
X132771309Y-94679611D01*
X132781063Y-94686314D01*
X132815737Y-94712633D01*
X132823723Y-94715795D01*
X132829718Y-94718169D01*
X132849722Y-94728229D01*
X132862506Y-94736155D01*
X132900827Y-94747288D01*
X132904283Y-94748292D01*
X132915512Y-94752137D01*
X132947983Y-94764993D01*
X132947986Y-94764994D01*
X132955973Y-94768156D01*
X132964519Y-94769054D01*
X132964522Y-94769055D01*
X132970929Y-94769729D01*
X132992905Y-94774040D01*
X132996468Y-94775075D01*
X133007345Y-94778235D01*
X133014323Y-94778747D01*
X133015728Y-94778851D01*
X133015739Y-94778851D01*
X133018035Y-94779020D01*
X133052730Y-94779020D01*
X133065901Y-94779710D01*
X133105975Y-94783922D01*
X133114447Y-94782489D01*
X133114449Y-94782489D01*
X133124522Y-94780785D01*
X133145535Y-94779020D01*
X140106487Y-94779020D01*
X140111764Y-94779131D01*
X140173774Y-94781730D01*
X140185328Y-94779020D01*
X140216142Y-94771793D01*
X140227813Y-94769630D01*
X140242709Y-94767589D01*
X140270912Y-94763726D01*
X140284710Y-94757755D01*
X140305979Y-94750721D01*
X140312255Y-94749249D01*
X140320616Y-94747288D01*
X140328141Y-94743151D01*
X140328144Y-94743150D01*
X140358748Y-94726325D01*
X140369393Y-94721109D01*
X140409335Y-94703825D01*
X140421021Y-94694362D01*
X140439606Y-94681874D01*
X140443739Y-94679602D01*
X140452788Y-94674627D01*
X140460902Y-94667623D01*
X140485438Y-94643087D01*
X140495239Y-94634262D01*
X140519872Y-94614314D01*
X140519873Y-94614313D01*
X140526550Y-94608906D01*
X140531523Y-94601908D01*
X140531528Y-94601903D01*
X140537448Y-94593572D01*
X140551059Y-94577466D01*
X141107646Y-94020879D01*
X141169958Y-93986853D01*
X141222937Y-93986727D01*
X141354242Y-94014636D01*
X141405354Y-94025500D01*
X141594646Y-94025500D01*
X141601099Y-94024128D01*
X141601103Y-94024128D01*
X141690762Y-94005070D01*
X141779803Y-93986144D01*
X141952730Y-93909151D01*
X141966844Y-93898897D01*
X142100532Y-93801767D01*
X142105871Y-93797888D01*
X142110288Y-93792983D01*
X142228114Y-93662124D01*
X142228115Y-93662123D01*
X142232533Y-93657216D01*
X142274223Y-93585007D01*
X142323875Y-93499007D01*
X142323876Y-93499006D01*
X142327179Y-93493284D01*
X142353667Y-93411763D01*
X142393741Y-93353157D01*
X142459137Y-93325520D01*
X142529094Y-93337627D01*
X142581400Y-93385633D01*
X142599500Y-93450699D01*
X142599500Y-93517772D01*
X142610364Y-93607547D01*
X142665887Y-93747783D01*
X142757078Y-93867922D01*
X142877217Y-93959113D01*
X142936178Y-93982457D01*
X143009923Y-94011655D01*
X143009925Y-94011656D01*
X143017453Y-94014636D01*
X143107228Y-94025500D01*
X143892772Y-94025500D01*
X143982547Y-94014636D01*
X143990075Y-94011656D01*
X143990077Y-94011655D01*
X144063822Y-93982457D01*
X144122783Y-93959113D01*
X144242922Y-93867922D01*
X144334113Y-93747783D01*
X144389636Y-93607547D01*
X144400500Y-93517772D01*
X144400500Y-92780215D01*
X144420502Y-92712094D01*
X144437405Y-92691120D01*
X145069640Y-92058885D01*
X145131952Y-92024859D01*
X145158735Y-92021980D01*
X147811804Y-92021980D01*
X147879925Y-92041982D01*
X147926418Y-92095638D01*
X147936522Y-92165912D01*
X147926910Y-92199231D01*
X147926127Y-92200991D01*
X147922821Y-92206716D01*
X147864326Y-92386744D01*
X147849500Y-92527808D01*
X147849500Y-93172192D01*
X147850252Y-93179344D01*
X147863064Y-93301244D01*
X147864326Y-93313256D01*
X147922821Y-93493284D01*
X147926124Y-93499006D01*
X147926125Y-93499007D01*
X147975777Y-93585007D01*
X148017467Y-93657216D01*
X148021885Y-93662123D01*
X148021886Y-93662124D01*
X148139712Y-93792983D01*
X148139715Y-93792985D01*
X148144129Y-93797888D01*
X148149472Y-93801770D01*
X148154376Y-93806185D01*
X148153117Y-93807584D01*
X148190917Y-93856608D01*
X148199500Y-93902317D01*
X148199500Y-94345007D01*
X148199389Y-94350283D01*
X148196790Y-94412294D01*
X148198752Y-94420659D01*
X148206727Y-94454662D01*
X148208890Y-94466333D01*
X148214794Y-94509432D01*
X148218206Y-94517316D01*
X148218206Y-94517317D01*
X148220765Y-94523230D01*
X148227799Y-94544499D01*
X148231232Y-94559136D01*
X148235369Y-94566661D01*
X148235370Y-94566664D01*
X148252195Y-94597268D01*
X148257411Y-94607913D01*
X148274695Y-94647855D01*
X148284158Y-94659541D01*
X148296645Y-94678125D01*
X148303893Y-94691308D01*
X148310897Y-94699422D01*
X148335433Y-94723958D01*
X148344258Y-94733759D01*
X148357994Y-94750721D01*
X148369614Y-94765070D01*
X148376612Y-94770043D01*
X148376617Y-94770048D01*
X148384948Y-94775968D01*
X148401054Y-94789579D01*
X150030118Y-96418642D01*
X150033771Y-96422451D01*
X150075799Y-96468156D01*
X150112802Y-96491099D01*
X150122552Y-96497800D01*
X150157217Y-96524112D01*
X150171195Y-96529646D01*
X150191199Y-96539707D01*
X150203986Y-96547635D01*
X150212237Y-96550032D01*
X150212239Y-96550033D01*
X150245772Y-96559775D01*
X150257002Y-96563620D01*
X150297453Y-96579636D01*
X150305994Y-96580534D01*
X150305995Y-96580534D01*
X150312408Y-96581208D01*
X150334383Y-96585520D01*
X150348825Y-96589715D01*
X150356308Y-96590265D01*
X150357208Y-96590331D01*
X150357219Y-96590331D01*
X150359515Y-96590500D01*
X150394217Y-96590500D01*
X150407387Y-96591190D01*
X150447454Y-96595401D01*
X150455919Y-96593969D01*
X150455928Y-96593969D01*
X150466000Y-96592265D01*
X150487013Y-96590500D01*
X151152950Y-96590500D01*
X151221071Y-96610502D01*
X151267564Y-96664158D01*
X151277668Y-96734432D01*
X151256915Y-96787685D01*
X151255978Y-96789054D01*
X151247759Y-96797287D01*
X151202494Y-96899673D01*
X151199500Y-96925354D01*
X151199500Y-98614646D01*
X151202618Y-98640846D01*
X151206456Y-98649486D01*
X151206456Y-98649487D01*
X151221634Y-98683658D01*
X151248061Y-98743153D01*
X151327287Y-98822241D01*
X151337924Y-98826944D01*
X151337926Y-98826945D01*
X151379915Y-98845508D01*
X151429673Y-98867506D01*
X151455354Y-98870500D01*
X153144646Y-98870500D01*
X153148350Y-98870059D01*
X153148353Y-98870059D01*
X153155746Y-98869179D01*
X153170846Y-98867382D01*
X153273153Y-98821939D01*
X153352241Y-98742713D01*
X153357140Y-98731634D01*
X153393675Y-98648992D01*
X153397506Y-98640327D01*
X153400500Y-98614646D01*
X153400500Y-96925354D01*
X153397382Y-96899154D01*
X153388729Y-96879672D01*
X153369883Y-96837245D01*
X153351939Y-96796847D01*
X153343708Y-96788630D01*
X153343182Y-96787865D01*
X153321083Y-96720395D01*
X153338970Y-96651689D01*
X153391163Y-96603559D01*
X153447023Y-96590500D01*
X154211801Y-96590500D01*
X154279922Y-96610502D01*
X154326415Y-96664158D01*
X154336519Y-96734432D01*
X154307025Y-96799012D01*
X154276224Y-96824785D01*
X154190371Y-96875862D01*
X154038305Y-97009220D01*
X153913089Y-97168057D01*
X153818914Y-97347053D01*
X153758937Y-97540213D01*
X153735164Y-97741069D01*
X153748392Y-97942894D01*
X153761832Y-97995815D01*
X153794075Y-98122771D01*
X153798178Y-98138928D01*
X153882856Y-98322607D01*
X153912914Y-98365139D01*
X153988010Y-98471397D01*
X153999588Y-98487780D01*
X154144466Y-98628913D01*
X154312637Y-98741282D01*
X154317940Y-98743560D01*
X154317943Y-98743562D01*
X154493163Y-98818842D01*
X154498470Y-98821122D01*
X154594361Y-98842820D01*
X154686526Y-98863675D01*
X154695740Y-98865760D01*
X154701509Y-98865987D01*
X154701512Y-98865987D01*
X154777683Y-98868979D01*
X154897842Y-98873700D01*
X154984132Y-98861189D01*
X155092286Y-98845508D01*
X155092291Y-98845507D01*
X155098007Y-98844678D01*
X155103479Y-98842820D01*
X155103481Y-98842820D01*
X155284067Y-98781519D01*
X155284069Y-98781518D01*
X155289531Y-98779664D01*
X155466001Y-98680837D01*
X155472929Y-98675075D01*
X155474340Y-98674465D01*
X155475204Y-98673871D01*
X155475321Y-98674041D01*
X155538093Y-98646894D01*
X155608148Y-98658416D01*
X155660853Y-98705983D01*
X155679500Y-98771948D01*
X155679500Y-99530007D01*
X155679389Y-99535283D01*
X155676790Y-99597294D01*
X155678752Y-99605659D01*
X155686727Y-99639662D01*
X155688890Y-99651333D01*
X155694794Y-99694432D01*
X155698206Y-99702316D01*
X155698206Y-99702317D01*
X155700765Y-99708230D01*
X155707799Y-99729499D01*
X155711232Y-99744136D01*
X155715369Y-99751661D01*
X155715370Y-99751664D01*
X155732195Y-99782268D01*
X155737411Y-99792913D01*
X155754695Y-99832855D01*
X155764158Y-99844541D01*
X155776645Y-99863125D01*
X155783893Y-99876308D01*
X155790897Y-99884422D01*
X155815433Y-99908958D01*
X155824258Y-99918759D01*
X155844206Y-99943392D01*
X155849614Y-99950070D01*
X155856612Y-99955043D01*
X155856617Y-99955048D01*
X155864948Y-99960968D01*
X155881054Y-99974579D01*
X156641484Y-100735008D01*
X157376574Y-101470098D01*
X157410599Y-101532410D01*
X157412694Y-101573237D01*
X157394520Y-101735262D01*
X157395036Y-101741406D01*
X157408070Y-101896618D01*
X157411759Y-101940553D01*
X157413458Y-101946478D01*
X157462651Y-102118033D01*
X157468544Y-102138586D01*
X157471359Y-102144063D01*
X157471360Y-102144066D01*
X157545674Y-102288666D01*
X157562712Y-102321818D01*
X157690677Y-102483270D01*
X157695370Y-102487264D01*
X157695371Y-102487265D01*
X157810082Y-102584891D01*
X157847564Y-102616791D01*
X157852942Y-102619797D01*
X157852944Y-102619798D01*
X157914771Y-102654352D01*
X158027398Y-102717297D01*
X158122238Y-102748113D01*
X158217471Y-102779056D01*
X158217475Y-102779057D01*
X158223329Y-102780959D01*
X158427894Y-102805351D01*
X158434029Y-102804879D01*
X158434031Y-102804879D01*
X158500504Y-102799764D01*
X158633300Y-102789546D01*
X158639230Y-102787890D01*
X158639232Y-102787890D01*
X158825797Y-102735800D01*
X158825796Y-102735800D01*
X158831725Y-102734145D01*
X158837214Y-102731372D01*
X158837220Y-102731370D01*
X159010116Y-102644033D01*
X159015610Y-102641258D01*
X159177951Y-102514424D01*
X159204194Y-102484021D01*
X159259577Y-102419859D01*
X159319230Y-102381362D01*
X159390227Y-102381226D01*
X159450026Y-102419496D01*
X159479642Y-102484021D01*
X159480959Y-102502190D01*
X159480959Y-103998053D01*
X159460957Y-104066174D01*
X159407301Y-104112667D01*
X159337027Y-104122771D01*
X159272447Y-104093277D01*
X159257316Y-104077689D01*
X159254206Y-104073875D01*
X159232847Y-104047687D01*
X159202906Y-104010975D01*
X159202903Y-104010972D01*
X159199011Y-104006200D01*
X159181786Y-103991950D01*
X159045025Y-103878811D01*
X159045021Y-103878809D01*
X159040275Y-103874882D01*
X158882273Y-103789451D01*
X158864474Y-103779827D01*
X158859055Y-103776897D01*
X158662254Y-103715977D01*
X158656129Y-103715333D01*
X158656128Y-103715333D01*
X158463498Y-103695087D01*
X158463496Y-103695087D01*
X158457369Y-103694443D01*
X158370529Y-103702346D01*
X158258342Y-103712555D01*
X158258339Y-103712556D01*
X158252203Y-103713114D01*
X158054572Y-103771280D01*
X158049107Y-103774137D01*
X158026718Y-103785842D01*
X157872002Y-103866726D01*
X157867201Y-103870586D01*
X157867198Y-103870588D01*
X157723858Y-103985836D01*
X157711447Y-103995815D01*
X157579024Y-104153630D01*
X157576056Y-104159028D01*
X157576053Y-104159033D01*
X157489487Y-104316497D01*
X157479776Y-104334162D01*
X157417484Y-104530532D01*
X157416798Y-104536649D01*
X157416797Y-104536653D01*
X157412903Y-104571371D01*
X157394520Y-104735262D01*
X157395036Y-104741406D01*
X157407861Y-104894129D01*
X157411759Y-104940553D01*
X157413458Y-104946478D01*
X157442360Y-105047270D01*
X157468544Y-105138586D01*
X157471358Y-105144062D01*
X157471363Y-105144074D01*
X157536927Y-105271647D01*
X157550275Y-105341377D01*
X157523805Y-105407255D01*
X157513956Y-105418336D01*
X156613697Y-106318595D01*
X156551385Y-106352621D01*
X156524602Y-106355500D01*
X155348888Y-106355500D01*
X155280767Y-106335498D01*
X155234274Y-106281842D01*
X155224170Y-106211568D01*
X155253664Y-106146988D01*
X155264573Y-106135868D01*
X155297888Y-106105871D01*
X155369813Y-106006875D01*
X155405270Y-105958072D01*
X155405271Y-105958071D01*
X155409151Y-105952730D01*
X155486144Y-105779803D01*
X155510306Y-105666128D01*
X155524128Y-105601103D01*
X155524128Y-105601099D01*
X155525500Y-105594646D01*
X155525500Y-105405354D01*
X155523127Y-105394187D01*
X155488032Y-105229081D01*
X155486144Y-105220197D01*
X155409151Y-105047270D01*
X155370557Y-104994149D01*
X155301767Y-104899468D01*
X155297888Y-104894129D01*
X155157216Y-104767467D01*
X154993284Y-104672821D01*
X154830205Y-104619833D01*
X154771599Y-104579759D01*
X154743962Y-104514363D01*
X154756069Y-104444406D01*
X154804075Y-104392100D01*
X154830205Y-104380167D01*
X154929976Y-104347749D01*
X154993284Y-104327179D01*
X155157216Y-104232533D01*
X155190864Y-104202236D01*
X155292985Y-104110286D01*
X155292986Y-104110284D01*
X155297888Y-104105871D01*
X155390709Y-103978114D01*
X155405270Y-103958072D01*
X155405271Y-103958071D01*
X155409151Y-103952730D01*
X155486144Y-103779803D01*
X155525500Y-103594646D01*
X155525500Y-103405354D01*
X155518142Y-103370734D01*
X155496131Y-103267182D01*
X155486144Y-103220197D01*
X155409151Y-103047270D01*
X155389086Y-103019652D01*
X155301767Y-102899468D01*
X155297888Y-102894129D01*
X155190316Y-102797270D01*
X155165921Y-102775305D01*
X155128682Y-102714859D01*
X155130034Y-102643875D01*
X155169548Y-102584891D01*
X155210356Y-102562145D01*
X155288368Y-102536118D01*
X155301547Y-102529944D01*
X155437804Y-102445626D01*
X155449205Y-102436590D01*
X155562418Y-102323179D01*
X155571430Y-102311768D01*
X155655516Y-102175354D01*
X155661663Y-102162173D01*
X155712251Y-102009657D01*
X155715118Y-101996281D01*
X155724672Y-101903034D01*
X155725000Y-101896618D01*
X155725000Y-101768115D01*
X155720525Y-101752876D01*
X155719135Y-101751671D01*
X155711452Y-101750000D01*
X152993116Y-101750000D01*
X152977877Y-101754475D01*
X152976672Y-101755865D01*
X152975001Y-101763548D01*
X152975001Y-101896567D01*
X152975339Y-101903087D01*
X152985140Y-101997560D01*
X152988031Y-102010951D01*
X153038882Y-102163368D01*
X153045056Y-102176547D01*
X153129374Y-102312804D01*
X153138410Y-102324205D01*
X153251821Y-102437418D01*
X153263232Y-102446430D01*
X153399646Y-102530516D01*
X153412827Y-102536663D01*
X153489438Y-102562074D01*
X153547797Y-102602505D01*
X153575034Y-102668069D01*
X153562500Y-102737951D01*
X153534081Y-102775303D01*
X153500710Y-102805351D01*
X153402112Y-102894129D01*
X153398233Y-102899468D01*
X153310915Y-103019652D01*
X153290849Y-103047270D01*
X153213856Y-103220197D01*
X153203869Y-103267182D01*
X153181859Y-103370734D01*
X153174500Y-103405354D01*
X153174500Y-103594646D01*
X153213856Y-103779803D01*
X153290849Y-103952730D01*
X153294729Y-103958071D01*
X153294730Y-103958072D01*
X153309291Y-103978114D01*
X153402112Y-104105871D01*
X153407014Y-104110284D01*
X153407015Y-104110286D01*
X153509136Y-104202236D01*
X153542784Y-104232533D01*
X153706716Y-104327179D01*
X153770024Y-104347749D01*
X153869795Y-104380167D01*
X153928401Y-104420241D01*
X153956038Y-104485637D01*
X153943931Y-104555594D01*
X153895925Y-104607900D01*
X153869794Y-104619833D01*
X153706716Y-104672821D01*
X153542784Y-104767467D01*
X153402112Y-104894129D01*
X153398233Y-104899468D01*
X153329444Y-104994149D01*
X153290849Y-105047270D01*
X153213856Y-105220197D01*
X153211968Y-105229081D01*
X153176874Y-105394187D01*
X153174500Y-105405354D01*
X153174500Y-105594646D01*
X153175872Y-105601099D01*
X153175872Y-105601103D01*
X153189694Y-105666128D01*
X153213856Y-105779803D01*
X153290849Y-105952730D01*
X153294729Y-105958071D01*
X153294730Y-105958072D01*
X153330187Y-106006875D01*
X153402112Y-106105871D01*
X153435423Y-106135864D01*
X153472662Y-106196309D01*
X153471311Y-106267293D01*
X153431797Y-106326278D01*
X153366667Y-106354536D01*
X153351112Y-106355500D01*
X146789768Y-106355500D01*
X146721647Y-106335498D01*
X146700673Y-106318595D01*
X145057405Y-104675327D01*
X145023379Y-104613015D01*
X145020500Y-104586232D01*
X145020500Y-101231885D01*
X152975000Y-101231885D01*
X152979475Y-101247124D01*
X152980865Y-101248329D01*
X152988548Y-101250000D01*
X154081885Y-101250000D01*
X154097124Y-101245525D01*
X154098329Y-101244135D01*
X154100000Y-101236452D01*
X154100000Y-101231885D01*
X154600000Y-101231885D01*
X154604475Y-101247124D01*
X154605865Y-101248329D01*
X154613548Y-101250000D01*
X155706884Y-101250000D01*
X155722123Y-101245525D01*
X155723328Y-101244135D01*
X155724999Y-101236452D01*
X155724999Y-101103433D01*
X155724661Y-101096913D01*
X155714860Y-101002440D01*
X155711969Y-100989049D01*
X155661118Y-100836632D01*
X155654944Y-100823453D01*
X155570626Y-100687196D01*
X155561590Y-100675795D01*
X155448179Y-100562582D01*
X155436768Y-100553570D01*
X155300354Y-100469484D01*
X155287173Y-100463337D01*
X155134657Y-100412749D01*
X155121281Y-100409882D01*
X155028034Y-100400328D01*
X155021617Y-100400000D01*
X154618115Y-100400000D01*
X154602876Y-100404475D01*
X154601671Y-100405865D01*
X154600000Y-100413548D01*
X154600000Y-101231885D01*
X154100000Y-101231885D01*
X154100000Y-100418116D01*
X154095525Y-100402877D01*
X154094135Y-100401672D01*
X154086452Y-100400001D01*
X153678433Y-100400001D01*
X153671913Y-100400339D01*
X153577440Y-100410140D01*
X153564049Y-100413031D01*
X153411632Y-100463882D01*
X153398453Y-100470056D01*
X153262196Y-100554374D01*
X153250795Y-100563410D01*
X153137582Y-100676821D01*
X153128570Y-100688232D01*
X153044484Y-100824646D01*
X153038337Y-100837827D01*
X152987749Y-100990343D01*
X152984882Y-101003719D01*
X152975328Y-101096966D01*
X152975000Y-101103383D01*
X152975000Y-101231885D01*
X145020500Y-101231885D01*
X145020500Y-99273233D01*
X146094906Y-99273233D01*
X146121102Y-99547792D01*
X146122187Y-99552226D01*
X146122188Y-99552232D01*
X146166023Y-99731370D01*
X146186657Y-99815694D01*
X146290199Y-100071326D01*
X146292500Y-100075256D01*
X146292503Y-100075262D01*
X146427255Y-100305403D01*
X146427260Y-100305410D01*
X146429558Y-100309335D01*
X146432405Y-100312895D01*
X146550028Y-100459974D01*
X146601816Y-100524732D01*
X146605157Y-100527853D01*
X146796236Y-100706349D01*
X146803364Y-100713008D01*
X147029979Y-100870216D01*
X147034055Y-100872244D01*
X147034057Y-100872245D01*
X147272827Y-100991032D01*
X147272830Y-100991033D01*
X147276914Y-100993065D01*
X147538998Y-101078980D01*
X147543489Y-101079760D01*
X147543490Y-101079760D01*
X147806957Y-101125506D01*
X147806965Y-101125507D01*
X147810738Y-101126162D01*
X147814575Y-101126353D01*
X147896305Y-101130422D01*
X147896313Y-101130422D01*
X147897876Y-101130500D01*
X148070070Y-101130500D01*
X148072338Y-101130335D01*
X148072350Y-101130335D01*
X148206603Y-101120594D01*
X148275083Y-101115625D01*
X148279538Y-101114641D01*
X148279541Y-101114641D01*
X148539947Y-101057148D01*
X148539950Y-101057147D01*
X148544403Y-101056164D01*
X148802319Y-100958449D01*
X148844282Y-100935141D01*
X149039435Y-100826743D01*
X149039436Y-100826742D01*
X149043428Y-100824525D01*
X149262678Y-100657198D01*
X149284179Y-100635204D01*
X149452283Y-100463242D01*
X149452287Y-100463237D01*
X149455477Y-100459974D01*
X149507672Y-100388266D01*
X149615100Y-100240676D01*
X149615102Y-100240673D01*
X149617787Y-100236984D01*
X149746206Y-99992899D01*
X149838045Y-99732832D01*
X149863111Y-99605659D01*
X149890499Y-99466704D01*
X149890500Y-99466698D01*
X149891380Y-99462232D01*
X149896546Y-99358472D01*
X149904867Y-99191336D01*
X149904867Y-99191330D01*
X149905094Y-99186767D01*
X149878898Y-98912208D01*
X149873122Y-98888601D01*
X149814429Y-98648744D01*
X149813343Y-98644306D01*
X149709801Y-98388674D01*
X149707500Y-98384744D01*
X149707497Y-98384738D01*
X149572745Y-98154597D01*
X149572740Y-98154590D01*
X149570442Y-98150665D01*
X149534271Y-98105436D01*
X149401036Y-97938834D01*
X149401035Y-97938833D01*
X149398184Y-97935268D01*
X149390833Y-97928401D01*
X149199972Y-97750108D01*
X149199969Y-97750106D01*
X149196636Y-97746992D01*
X148970021Y-97589784D01*
X148965943Y-97587755D01*
X148727173Y-97468968D01*
X148727170Y-97468967D01*
X148723086Y-97466935D01*
X148461002Y-97381020D01*
X148432280Y-97376033D01*
X148193043Y-97334494D01*
X148193035Y-97334493D01*
X148189262Y-97333838D01*
X148179029Y-97333329D01*
X148103695Y-97329578D01*
X148103687Y-97329578D01*
X148102124Y-97329500D01*
X147929930Y-97329500D01*
X147927662Y-97329665D01*
X147927650Y-97329665D01*
X147793397Y-97339406D01*
X147724917Y-97344375D01*
X147720462Y-97345359D01*
X147720459Y-97345359D01*
X147460053Y-97402852D01*
X147460050Y-97402853D01*
X147455597Y-97403836D01*
X147197681Y-97501551D01*
X147193694Y-97503765D01*
X147193693Y-97503766D01*
X146967109Y-97629622D01*
X146956572Y-97635475D01*
X146952940Y-97638247D01*
X146771266Y-97776897D01*
X146737322Y-97802802D01*
X146734129Y-97806068D01*
X146734127Y-97806070D01*
X146547717Y-97996758D01*
X146547713Y-97996763D01*
X146544523Y-98000026D01*
X146541836Y-98003718D01*
X146541834Y-98003720D01*
X146423824Y-98165849D01*
X146382213Y-98223016D01*
X146253794Y-98467101D01*
X146161955Y-98727168D01*
X146148511Y-98795377D01*
X146111361Y-98983863D01*
X146108620Y-98997768D01*
X146108393Y-99002322D01*
X146108393Y-99002324D01*
X146095327Y-99264786D01*
X146094906Y-99273233D01*
X145020500Y-99273233D01*
X145020500Y-98339083D01*
X145020507Y-98337763D01*
X145021367Y-98255640D01*
X145021441Y-98248593D01*
X145012384Y-98206704D01*
X145010324Y-98194126D01*
X145006331Y-98158524D01*
X145006330Y-98158522D01*
X145005546Y-98151528D01*
X144994650Y-98120241D01*
X144990489Y-98105436D01*
X144984977Y-98079939D01*
X144984976Y-98079936D01*
X144983489Y-98073058D01*
X144965370Y-98034201D01*
X144960586Y-98022418D01*
X144946485Y-97981927D01*
X144928930Y-97953833D01*
X144921589Y-97940313D01*
X144920900Y-97938834D01*
X144907591Y-97910293D01*
X144893010Y-97891496D01*
X144881326Y-97876433D01*
X144874031Y-97865976D01*
X144855050Y-97835600D01*
X144855048Y-97835597D01*
X144851316Y-97829625D01*
X144822997Y-97801107D01*
X144822415Y-97800485D01*
X144821901Y-97799823D01*
X144796041Y-97773963D01*
X144724770Y-97702193D01*
X144723743Y-97701541D01*
X144722535Y-97700457D01*
X143037519Y-96015441D01*
X143036590Y-96014503D01*
X143027515Y-96005236D01*
X142974141Y-95950732D01*
X142968221Y-95946917D01*
X142968215Y-95946912D01*
X142938109Y-95927510D01*
X142927755Y-95920070D01*
X142899774Y-95897733D01*
X142894266Y-95893336D01*
X142864441Y-95878918D01*
X142851025Y-95871389D01*
X142829109Y-95857265D01*
X142823183Y-95853446D01*
X142782909Y-95838787D01*
X142771169Y-95833828D01*
X142738916Y-95818237D01*
X142738917Y-95818237D01*
X142732578Y-95815173D01*
X142725723Y-95813590D01*
X142725719Y-95813589D01*
X142706757Y-95809212D01*
X142700302Y-95807721D01*
X142685554Y-95803352D01*
X142661045Y-95794432D01*
X142661041Y-95794431D01*
X142654422Y-95792022D01*
X142611882Y-95786648D01*
X142599363Y-95784418D01*
X142557589Y-95774774D01*
X142550548Y-95774749D01*
X142550545Y-95774749D01*
X142517418Y-95774633D01*
X142516545Y-95774604D01*
X142515717Y-95774500D01*
X142479262Y-95774500D01*
X142478822Y-95774499D01*
X142381493Y-95774159D01*
X142381490Y-95774159D01*
X142378000Y-95774147D01*
X142376812Y-95774413D01*
X142375200Y-95774500D01*
X141585836Y-95774500D01*
X141517715Y-95754498D01*
X141505521Y-95745585D01*
X141486017Y-95729450D01*
X141450275Y-95699882D01*
X141269055Y-95601897D01*
X141072254Y-95540977D01*
X141066129Y-95540333D01*
X141066128Y-95540333D01*
X140873498Y-95520087D01*
X140873496Y-95520087D01*
X140867369Y-95519443D01*
X140780529Y-95527346D01*
X140668342Y-95537555D01*
X140668339Y-95537556D01*
X140662203Y-95538114D01*
X140464572Y-95596280D01*
X140282002Y-95691726D01*
X140277201Y-95695586D01*
X140277198Y-95695588D01*
X140130434Y-95813589D01*
X140121447Y-95820815D01*
X139989024Y-95978630D01*
X139986056Y-95984028D01*
X139986053Y-95984033D01*
X139953946Y-96042436D01*
X139889776Y-96159162D01*
X139827484Y-96355532D01*
X139826798Y-96361649D01*
X139826797Y-96361653D01*
X139805667Y-96550033D01*
X139804520Y-96560262D01*
X139807395Y-96594503D01*
X139819261Y-96735800D01*
X139821759Y-96765553D01*
X139823458Y-96771478D01*
X139868632Y-96929017D01*
X139878544Y-96963586D01*
X139881359Y-96969063D01*
X139881360Y-96969066D01*
X139948651Y-97100000D01*
X139972712Y-97146818D01*
X140100677Y-97308270D01*
X140105370Y-97312264D01*
X140105371Y-97312265D01*
X140211058Y-97402211D01*
X140257564Y-97441791D01*
X140437398Y-97542297D01*
X140532238Y-97573113D01*
X140627471Y-97604056D01*
X140627475Y-97604057D01*
X140633329Y-97605959D01*
X140837894Y-97630351D01*
X140844029Y-97629879D01*
X140844031Y-97629879D01*
X140900039Y-97625569D01*
X141043300Y-97614546D01*
X141049230Y-97612890D01*
X141049232Y-97612890D01*
X141235797Y-97560800D01*
X141235796Y-97560800D01*
X141241725Y-97559145D01*
X141247214Y-97556372D01*
X141247220Y-97556370D01*
X141420116Y-97469033D01*
X141425610Y-97466258D01*
X141430462Y-97462467D01*
X141430467Y-97462464D01*
X141507588Y-97402211D01*
X141573582Y-97376033D01*
X141585161Y-97375500D01*
X142081232Y-97375500D01*
X142149353Y-97395502D01*
X142170327Y-97412405D01*
X143382595Y-98624673D01*
X143416621Y-98686985D01*
X143419500Y-98713768D01*
X143419500Y-104960917D01*
X143419493Y-104962237D01*
X143418559Y-105051407D01*
X143427615Y-105093292D01*
X143429676Y-105105874D01*
X143432681Y-105132662D01*
X143434454Y-105148472D01*
X143445350Y-105179759D01*
X143449511Y-105194563D01*
X143456511Y-105226942D01*
X143474630Y-105265799D01*
X143479414Y-105277582D01*
X143493515Y-105318073D01*
X143497249Y-105324048D01*
X143511070Y-105346167D01*
X143518408Y-105359682D01*
X143532409Y-105389707D01*
X143536728Y-105395274D01*
X143536728Y-105395275D01*
X143558674Y-105423567D01*
X143565969Y-105434024D01*
X143584950Y-105464400D01*
X143588684Y-105470375D01*
X143593646Y-105475372D01*
X143593647Y-105475373D01*
X143617003Y-105498893D01*
X143617585Y-105499515D01*
X143618099Y-105500177D01*
X143643957Y-105526035D01*
X143715230Y-105597807D01*
X143716257Y-105598459D01*
X143717465Y-105599543D01*
X145833435Y-107715512D01*
X145834364Y-107716450D01*
X145874150Y-107757078D01*
X145896859Y-107780268D01*
X145902782Y-107784085D01*
X145902783Y-107784086D01*
X145932886Y-107803487D01*
X145943237Y-107810925D01*
X145971224Y-107833267D01*
X145971233Y-107833273D01*
X145976734Y-107837664D01*
X145983077Y-107840730D01*
X145983078Y-107840731D01*
X146006559Y-107852082D01*
X146019974Y-107859611D01*
X146047817Y-107877554D01*
X146054437Y-107879964D01*
X146054438Y-107879964D01*
X146088089Y-107892212D01*
X146099831Y-107897172D01*
X146111790Y-107902953D01*
X146138422Y-107915827D01*
X146145277Y-107917410D01*
X146145281Y-107917411D01*
X146158710Y-107920511D01*
X146170698Y-107923279D01*
X146185446Y-107927648D01*
X146209955Y-107936568D01*
X146209959Y-107936569D01*
X146216578Y-107938978D01*
X146259118Y-107944352D01*
X146271637Y-107946582D01*
X146313411Y-107956226D01*
X146320452Y-107956251D01*
X146320455Y-107956251D01*
X146353582Y-107956367D01*
X146354455Y-107956396D01*
X146355283Y-107956500D01*
X146391738Y-107956500D01*
X146392178Y-107956501D01*
X146489507Y-107956841D01*
X146489510Y-107956841D01*
X146493000Y-107956853D01*
X146494188Y-107956587D01*
X146495800Y-107956500D01*
X156780011Y-107956500D01*
X156795366Y-107957439D01*
X156799342Y-107957927D01*
X156806196Y-107959560D01*
X156813239Y-107959634D01*
X156813241Y-107959634D01*
X156900374Y-107960546D01*
X156985777Y-107961441D01*
X157066126Y-107944068D01*
X157073510Y-107942860D01*
X157075836Y-107942332D01*
X157082842Y-107941546D01*
X157089499Y-107939228D01*
X157096366Y-107937668D01*
X157096368Y-107937678D01*
X157098636Y-107937040D01*
X157161312Y-107923489D01*
X157217750Y-107897172D01*
X157234030Y-107889581D01*
X157245832Y-107884788D01*
X157252435Y-107882488D01*
X157253112Y-107884433D01*
X157313272Y-107874652D01*
X157378384Y-107902953D01*
X157418754Y-107964948D01*
X157460639Y-108111017D01*
X157468544Y-108138586D01*
X157471359Y-108144063D01*
X157471360Y-108144066D01*
X157503672Y-108206938D01*
X157562712Y-108321818D01*
X157690677Y-108483270D01*
X157847564Y-108616791D01*
X158027398Y-108717297D01*
X158122238Y-108748113D01*
X158217471Y-108779056D01*
X158217475Y-108779057D01*
X158223329Y-108780959D01*
X158427894Y-108805351D01*
X158434029Y-108804879D01*
X158434031Y-108804879D01*
X158490039Y-108800569D01*
X158633300Y-108789546D01*
X158639230Y-108787890D01*
X158639232Y-108787890D01*
X158825797Y-108735800D01*
X158825796Y-108735800D01*
X158831725Y-108734145D01*
X158837214Y-108731372D01*
X158837220Y-108731370D01*
X159010116Y-108644033D01*
X159015610Y-108641258D01*
X159177951Y-108514424D01*
X159204194Y-108484021D01*
X159259577Y-108419859D01*
X159319230Y-108381362D01*
X159390227Y-108381226D01*
X159450026Y-108419496D01*
X159479642Y-108484021D01*
X159480959Y-108502190D01*
X159480959Y-109316466D01*
X159480848Y-109321742D01*
X159478249Y-109383753D01*
X159480211Y-109392118D01*
X159488186Y-109426121D01*
X159490349Y-109437792D01*
X159496253Y-109480891D01*
X159499665Y-109488775D01*
X159499665Y-109488776D01*
X159502224Y-109494689D01*
X159509258Y-109515958D01*
X159512691Y-109530595D01*
X159516828Y-109538120D01*
X159516829Y-109538123D01*
X159533654Y-109568727D01*
X159538870Y-109579372D01*
X159556154Y-109619314D01*
X159565617Y-109631000D01*
X159578104Y-109649584D01*
X159585352Y-109662767D01*
X159592356Y-109670881D01*
X159616892Y-109695417D01*
X159625717Y-109705218D01*
X159643264Y-109726886D01*
X159651073Y-109736529D01*
X159658071Y-109741502D01*
X159658076Y-109741507D01*
X159666407Y-109747427D01*
X159682513Y-109761038D01*
X160378087Y-110456612D01*
X160412113Y-110518924D01*
X160414207Y-110559749D01*
X160394520Y-110735262D01*
X160411759Y-110940553D01*
X160418110Y-110962702D01*
X160448788Y-111069687D01*
X160468544Y-111138586D01*
X160471358Y-111144062D01*
X160471363Y-111144074D01*
X160535781Y-111269417D01*
X160549129Y-111339147D01*
X160522659Y-111405025D01*
X160464774Y-111446133D01*
X160423715Y-111453011D01*
X159475348Y-111453011D01*
X159407227Y-111433009D01*
X159360734Y-111379353D01*
X159350630Y-111309079D01*
X159365792Y-111264774D01*
X159391257Y-111219947D01*
X159414323Y-111179344D01*
X159479351Y-110983863D01*
X159505171Y-110779474D01*
X159505583Y-110750000D01*
X159485480Y-110544970D01*
X159425935Y-110347749D01*
X159329218Y-110165849D01*
X159219918Y-110031834D01*
X159202906Y-110010975D01*
X159202903Y-110010972D01*
X159199011Y-110006200D01*
X159180552Y-109990929D01*
X159045025Y-109878811D01*
X159045021Y-109878809D01*
X159040275Y-109874882D01*
X158859055Y-109776897D01*
X158662254Y-109715977D01*
X158656129Y-109715333D01*
X158656128Y-109715333D01*
X158463498Y-109695087D01*
X158463496Y-109695087D01*
X158457369Y-109694443D01*
X158374450Y-109701989D01*
X158258342Y-109712555D01*
X158258339Y-109712556D01*
X158252203Y-109713114D01*
X158054572Y-109771280D01*
X157872002Y-109866726D01*
X157867201Y-109870586D01*
X157867198Y-109870588D01*
X157728122Y-109982408D01*
X157711447Y-109995815D01*
X157579024Y-110153630D01*
X157576056Y-110159028D01*
X157576053Y-110159033D01*
X157497495Y-110301931D01*
X157479776Y-110334162D01*
X157417484Y-110530532D01*
X157416798Y-110536649D01*
X157416797Y-110536653D01*
X157409568Y-110601103D01*
X157394520Y-110735262D01*
X157411759Y-110940553D01*
X157418110Y-110962702D01*
X157448788Y-111069687D01*
X157468544Y-111138586D01*
X157471358Y-111144062D01*
X157471363Y-111144074D01*
X157535781Y-111269417D01*
X157549129Y-111339147D01*
X157522659Y-111405025D01*
X157464774Y-111446133D01*
X157423715Y-111453011D01*
X155185985Y-111453011D01*
X155117864Y-111433009D01*
X155096890Y-111416106D01*
X152712142Y-109031358D01*
X152708489Y-109027549D01*
X152674416Y-108990495D01*
X152666461Y-108981844D01*
X152629458Y-108958901D01*
X152619708Y-108952200D01*
X152585043Y-108925888D01*
X152571064Y-108920354D01*
X152551061Y-108910293D01*
X152538274Y-108902365D01*
X152530023Y-108899968D01*
X152530021Y-108899967D01*
X152496488Y-108890225D01*
X152485255Y-108886379D01*
X152464613Y-108878206D01*
X152444807Y-108870364D01*
X152436266Y-108869466D01*
X152436265Y-108869466D01*
X152429852Y-108868792D01*
X152407877Y-108864480D01*
X152393435Y-108860285D01*
X152385952Y-108859736D01*
X152385052Y-108859669D01*
X152385041Y-108859669D01*
X152382745Y-108859500D01*
X152348043Y-108859500D01*
X152334873Y-108858810D01*
X152324644Y-108857735D01*
X152294806Y-108854599D01*
X152286341Y-108856031D01*
X152286332Y-108856031D01*
X152276260Y-108857735D01*
X152255247Y-108859500D01*
X133684993Y-108859500D01*
X133679717Y-108859389D01*
X133675310Y-108859204D01*
X133617706Y-108856790D01*
X133609341Y-108858752D01*
X133575338Y-108866727D01*
X133563667Y-108868890D01*
X133552907Y-108870364D01*
X133520568Y-108874794D01*
X133512684Y-108878206D01*
X133512683Y-108878206D01*
X133506770Y-108880765D01*
X133485501Y-108887799D01*
X133470864Y-108891232D01*
X133463339Y-108895369D01*
X133463336Y-108895370D01*
X133432732Y-108912195D01*
X133422087Y-108917411D01*
X133382145Y-108934695D01*
X133370459Y-108944158D01*
X133351875Y-108956645D01*
X133338692Y-108963893D01*
X133330578Y-108970897D01*
X133306042Y-108995433D01*
X133296241Y-109004258D01*
X133271608Y-109024206D01*
X133264930Y-109029614D01*
X133259957Y-109036612D01*
X133259952Y-109036617D01*
X133254032Y-109044948D01*
X133240421Y-109061054D01*
X132148693Y-110152782D01*
X132089013Y-110186205D01*
X132013532Y-110204327D01*
X131954032Y-110218612D01*
X131947288Y-110222093D01*
X131947285Y-110222094D01*
X131847173Y-110273766D01*
X131803369Y-110296375D01*
X131797647Y-110301367D01*
X131797645Y-110301368D01*
X131781711Y-110315268D01*
X131675604Y-110407831D01*
X131650059Y-110444178D01*
X131582482Y-110540330D01*
X131582481Y-110540332D01*
X131578113Y-110546547D01*
X131516524Y-110704513D01*
X131515532Y-110712046D01*
X131515532Y-110712047D01*
X131502703Y-110809500D01*
X131494394Y-110872611D01*
X131512999Y-111041135D01*
X131536689Y-111105871D01*
X131563577Y-111179344D01*
X131571266Y-111200356D01*
X131575502Y-111206659D01*
X131575502Y-111206660D01*
X131588574Y-111226113D01*
X131665830Y-111341083D01*
X131671442Y-111346190D01*
X131671445Y-111346193D01*
X131785612Y-111450077D01*
X131785616Y-111450080D01*
X131791233Y-111455191D01*
X131797906Y-111458814D01*
X131797910Y-111458817D01*
X131933558Y-111532467D01*
X131933560Y-111532468D01*
X131940235Y-111536092D01*
X131947584Y-111538020D01*
X132096883Y-111577188D01*
X132096885Y-111577188D01*
X132104233Y-111579116D01*
X132190609Y-111580473D01*
X132266161Y-111581660D01*
X132266164Y-111581660D01*
X132273760Y-111581779D01*
X132281165Y-111580083D01*
X132281166Y-111580083D01*
X132341586Y-111566245D01*
X132439029Y-111543928D01*
X132590498Y-111467747D01*
X132688981Y-111383634D01*
X132713651Y-111362564D01*
X132713652Y-111362563D01*
X132719423Y-111357634D01*
X132818361Y-111219947D01*
X132826237Y-111200356D01*
X132878766Y-111069687D01*
X132878767Y-111069685D01*
X132881601Y-111062634D01*
X132889900Y-111004318D01*
X132919300Y-110939696D01*
X132925534Y-110932991D01*
X133861120Y-109997404D01*
X133923431Y-109963380D01*
X133950214Y-109960500D01*
X135330477Y-109960500D01*
X135398598Y-109980502D01*
X135445091Y-110034158D01*
X135455195Y-110104432D01*
X135425701Y-110169012D01*
X135375117Y-110204327D01*
X135197681Y-110271551D01*
X135193694Y-110273765D01*
X135193693Y-110273766D01*
X134963597Y-110401573D01*
X134956572Y-110405475D01*
X134889567Y-110456612D01*
X134754422Y-110559752D01*
X134737322Y-110572802D01*
X134734129Y-110576068D01*
X134734127Y-110576070D01*
X134547717Y-110766758D01*
X134547713Y-110766763D01*
X134544523Y-110770026D01*
X134541836Y-110773718D01*
X134541834Y-110773720D01*
X134420400Y-110940553D01*
X134382213Y-110993016D01*
X134253794Y-111237101D01*
X134161955Y-111497168D01*
X134154283Y-111536092D01*
X134124587Y-111686760D01*
X134108620Y-111767768D01*
X134108393Y-111772322D01*
X134108393Y-111772324D01*
X134095522Y-112030861D01*
X134094906Y-112043233D01*
X134121102Y-112317792D01*
X134122187Y-112322226D01*
X134122188Y-112322232D01*
X134180893Y-112562138D01*
X134186657Y-112585694D01*
X134290199Y-112841326D01*
X134292500Y-112845256D01*
X134292503Y-112845262D01*
X134427255Y-113075403D01*
X134427260Y-113075410D01*
X134429558Y-113079335D01*
X134432405Y-113082895D01*
X134554436Y-113235486D01*
X134601816Y-113294732D01*
X134605157Y-113297853D01*
X134777330Y-113458688D01*
X134803364Y-113483008D01*
X135029979Y-113640216D01*
X135034055Y-113642244D01*
X135034057Y-113642245D01*
X135272827Y-113761032D01*
X135272830Y-113761033D01*
X135276914Y-113763065D01*
X135538998Y-113848980D01*
X135543489Y-113849760D01*
X135543490Y-113849760D01*
X135806957Y-113895506D01*
X135806965Y-113895507D01*
X135810738Y-113896162D01*
X135814575Y-113896353D01*
X135896305Y-113900422D01*
X135896313Y-113900422D01*
X135897876Y-113900500D01*
X136070070Y-113900500D01*
X136072338Y-113900335D01*
X136072350Y-113900335D01*
X136206603Y-113890594D01*
X136275083Y-113885625D01*
X136279538Y-113884641D01*
X136279541Y-113884641D01*
X136539947Y-113827148D01*
X136539950Y-113827147D01*
X136544403Y-113826164D01*
X136802319Y-113728449D01*
X136829899Y-113713130D01*
X137039435Y-113596743D01*
X137039436Y-113596742D01*
X137043428Y-113594525D01*
X137201705Y-113473731D01*
X137259046Y-113429970D01*
X137259047Y-113429969D01*
X137262678Y-113427198D01*
X137334577Y-113353649D01*
X137452283Y-113233242D01*
X137452287Y-113233237D01*
X137455477Y-113229974D01*
X137458166Y-113226280D01*
X137615100Y-113010676D01*
X137615102Y-113010673D01*
X137617787Y-113006984D01*
X137746206Y-112762899D01*
X137838045Y-112502832D01*
X137866018Y-112360910D01*
X137890499Y-112236704D01*
X137890500Y-112236698D01*
X137891380Y-112232232D01*
X137895528Y-112148917D01*
X137904867Y-111961336D01*
X137904867Y-111961330D01*
X137905094Y-111956767D01*
X137878898Y-111682208D01*
X137854324Y-111581779D01*
X137814429Y-111418744D01*
X137813343Y-111414306D01*
X137709801Y-111158674D01*
X137707500Y-111154744D01*
X137707497Y-111154738D01*
X137572745Y-110924597D01*
X137572740Y-110924590D01*
X137570442Y-110920665D01*
X137525989Y-110865080D01*
X137401036Y-110708834D01*
X137401035Y-110708833D01*
X137398184Y-110705268D01*
X137253413Y-110570030D01*
X137199972Y-110520108D01*
X137199969Y-110520106D01*
X137196636Y-110516992D01*
X136970021Y-110359784D01*
X136965943Y-110357755D01*
X136727173Y-110238968D01*
X136727170Y-110238967D01*
X136723086Y-110236935D01*
X136718752Y-110235514D01*
X136718744Y-110235511D01*
X136629424Y-110206231D01*
X136570923Y-110166004D01*
X136543457Y-110100535D01*
X136555747Y-110030611D01*
X136603889Y-109978430D01*
X136668673Y-109960500D01*
X141189953Y-109960500D01*
X141258074Y-109980502D01*
X141304567Y-110034158D01*
X141314671Y-110104432D01*
X141285177Y-110169012D01*
X141273030Y-110181232D01*
X141227219Y-110221407D01*
X141227212Y-110221414D01*
X141224123Y-110224123D01*
X141221414Y-110227212D01*
X141071221Y-110398473D01*
X141071217Y-110398479D01*
X141068503Y-110401573D01*
X140937376Y-110597819D01*
X140935550Y-110601522D01*
X140849532Y-110775949D01*
X140832986Y-110809500D01*
X140831662Y-110813401D01*
X140766854Y-111004319D01*
X140757119Y-111032996D01*
X140756315Y-111037040D01*
X140756313Y-111037046D01*
X140715666Y-111241397D01*
X140711074Y-111264483D01*
X140710805Y-111268594D01*
X140710804Y-111268598D01*
X140708151Y-111309079D01*
X140696094Y-111493022D01*
X140694864Y-111500000D01*
X140696778Y-111510853D01*
X140696778Y-111515793D01*
X140698055Y-111534937D01*
X140692147Y-111677768D01*
X140681956Y-111924165D01*
X140681096Y-111934543D01*
X140669722Y-112025796D01*
X140632772Y-112322232D01*
X140629231Y-112350638D01*
X140627518Y-112360902D01*
X140603928Y-112473411D01*
X140541467Y-112771297D01*
X140538911Y-112781392D01*
X140503730Y-112899564D01*
X140425876Y-113161073D01*
X140419263Y-113183285D01*
X140415884Y-113193127D01*
X140276049Y-113551493D01*
X140263459Y-113583757D01*
X140259280Y-113593286D01*
X140092514Y-113934411D01*
X140075116Y-113970000D01*
X140070161Y-113979156D01*
X140068359Y-113982182D01*
X139855513Y-114339382D01*
X139849817Y-114348100D01*
X139606166Y-114689355D01*
X139599770Y-114697573D01*
X139328755Y-115017560D01*
X139321701Y-115025221D01*
X139025221Y-115321701D01*
X139017560Y-115328755D01*
X138697573Y-115599770D01*
X138689355Y-115606166D01*
X138348100Y-115849817D01*
X138339382Y-115855513D01*
X137979159Y-116070160D01*
X137970004Y-116075114D01*
X137593286Y-116259280D01*
X137583765Y-116263455D01*
X137193127Y-116415884D01*
X137183294Y-116419260D01*
X137011464Y-116470416D01*
X136781392Y-116538911D01*
X136771297Y-116541467D01*
X136641123Y-116568762D01*
X136360902Y-116627518D01*
X136350646Y-116629230D01*
X136142591Y-116655163D01*
X135934543Y-116681096D01*
X135924165Y-116681956D01*
X135699517Y-116691248D01*
X135534937Y-116698055D01*
X135515795Y-116696778D01*
X135510856Y-116696778D01*
X135500000Y-116694864D01*
X135489145Y-116696778D01*
X135484563Y-116697586D01*
X135462683Y-116699500D01*
X127037317Y-116699500D01*
X127015437Y-116697586D01*
X127010855Y-116696778D01*
X127000000Y-116694864D01*
X126989144Y-116696778D01*
X126978122Y-116696778D01*
X126978122Y-116696221D01*
X126965848Y-116696812D01*
X126822241Y-116685510D01*
X126802714Y-116682417D01*
X126800794Y-116681956D01*
X126638970Y-116643105D01*
X126620176Y-116636999D01*
X126464595Y-116572555D01*
X126446990Y-116563585D01*
X126303401Y-116475594D01*
X126287408Y-116463973D01*
X126159366Y-116354615D01*
X126145385Y-116340634D01*
X126036027Y-116212592D01*
X126024405Y-116196597D01*
X125969419Y-116106868D01*
X125936415Y-116053010D01*
X125927445Y-116035405D01*
X125863001Y-115879824D01*
X125856893Y-115861025D01*
X125854203Y-115849817D01*
X125817583Y-115697285D01*
X125814490Y-115677758D01*
X125810548Y-115627669D01*
X125803188Y-115534152D01*
X125803779Y-115521878D01*
X125803222Y-115521878D01*
X125803222Y-115510856D01*
X125805136Y-115500000D01*
X125802414Y-115484563D01*
X125800500Y-115462683D01*
X125800500Y-90537317D01*
X125802414Y-90515437D01*
X125803222Y-90510855D01*
X125805136Y-90500000D01*
X125803222Y-90489144D01*
X125803222Y-90478122D01*
X125803779Y-90478122D01*
X125803188Y-90465845D01*
X125814490Y-90322242D01*
X125817583Y-90302714D01*
X125856895Y-90138970D01*
X125863003Y-90120171D01*
X125899112Y-90032996D01*
X125927445Y-89964595D01*
X125936415Y-89946990D01*
X126024406Y-89803401D01*
X126036027Y-89787408D01*
X126040403Y-89782285D01*
X126096455Y-89716656D01*
X126145385Y-89659366D01*
X126159366Y-89645385D01*
X126287408Y-89536027D01*
X126303403Y-89524405D01*
X126446990Y-89436415D01*
X126464595Y-89427445D01*
X126620176Y-89363001D01*
X126638970Y-89356895D01*
X126802715Y-89317583D01*
X126822241Y-89314490D01*
X126965848Y-89303188D01*
X126978122Y-89303779D01*
X126978122Y-89303222D01*
X126989144Y-89303222D01*
X127000000Y-89305136D01*
X127015437Y-89302414D01*
X127037317Y-89300500D01*
X168962683Y-89300500D01*
X168984563Y-89302414D01*
G37*
%TD.AperFunction*%
%TA.AperFunction,Conductor*%
G36*
X137498413Y-90780942D02*
G01*
X137544906Y-90834598D01*
X137555010Y-90904872D01*
X137525516Y-90969452D01*
X137519388Y-90976035D01*
X136844174Y-91651250D01*
X136781861Y-91685275D01*
X136732661Y-91684425D01*
X136732547Y-91685364D01*
X136642772Y-91674500D01*
X135857228Y-91674500D01*
X135767453Y-91685364D01*
X135759925Y-91688344D01*
X135759923Y-91688345D01*
X135698958Y-91712483D01*
X135627217Y-91740887D01*
X135507078Y-91832078D01*
X135415887Y-91952217D01*
X135412725Y-91960204D01*
X135412724Y-91960206D01*
X135409662Y-91967938D01*
X135365986Y-92023910D01*
X135298982Y-92047384D01*
X135229924Y-92030906D01*
X135187973Y-91987051D01*
X135185858Y-91988409D01*
X135176169Y-91973317D01*
X135053919Y-91817686D01*
X135045679Y-91809033D01*
X134896209Y-91679330D01*
X134886489Y-91672396D01*
X134715188Y-91573296D01*
X134704324Y-91568322D01*
X134517371Y-91503401D01*
X134514820Y-91502779D01*
X134503992Y-91504323D01*
X134500000Y-91517888D01*
X134500000Y-92974000D01*
X134479998Y-93042121D01*
X134426342Y-93088614D01*
X134374000Y-93100000D01*
X134126000Y-93100000D01*
X134057879Y-93079998D01*
X134011386Y-93026342D01*
X134000000Y-92974000D01*
X134000000Y-91521862D01*
X133996027Y-91508331D01*
X133986601Y-91506976D01*
X133896072Y-91528794D01*
X133884793Y-91532677D01*
X133704622Y-91614597D01*
X133694282Y-91620543D01*
X133532854Y-91735051D01*
X133523826Y-91742844D01*
X133386964Y-91885812D01*
X133379568Y-91895177D01*
X133272213Y-92061440D01*
X133266717Y-92072043D01*
X133253366Y-92105171D01*
X133209351Y-92160877D01*
X133142206Y-92183944D01*
X133073249Y-92167047D01*
X133024374Y-92115552D01*
X133010500Y-92058073D01*
X133010500Y-91530216D01*
X133030502Y-91462095D01*
X133047404Y-91441121D01*
X133690679Y-90797845D01*
X133752992Y-90763820D01*
X133779775Y-90760940D01*
X137430292Y-90760940D01*
X137498413Y-90780942D01*
G37*
%TD.AperFunction*%
%TD*%
%TA.AperFunction,NonConductor*%
G36*
X161349813Y-91288462D02*
G01*
X161370787Y-91305364D01*
X161548980Y-91483556D01*
X161549828Y-91484404D01*
X161583853Y-91546716D01*
X161578789Y-91617532D01*
X161536242Y-91674368D01*
X161469722Y-91699179D01*
X161460733Y-91699500D01*
X160917796Y-91699501D01*
X160907230Y-91699501D01*
X160903472Y-91699956D01*
X160903467Y-91699956D01*
X160825483Y-91709392D01*
X160825480Y-91709393D01*
X160817453Y-91710364D01*
X160677217Y-91765888D01*
X160557078Y-91857078D01*
X160465888Y-91977217D01*
X160464049Y-91981863D01*
X160414419Y-92030184D01*
X160344850Y-92044348D01*
X160278667Y-92018651D01*
X160266421Y-92007896D01*
X159742080Y-91483555D01*
X159708055Y-91421243D01*
X159713119Y-91350428D01*
X159755666Y-91293592D01*
X159822186Y-91268781D01*
X159831175Y-91268460D01*
X161281692Y-91268460D01*
X161349813Y-91288462D01*
G37*
%TD.AperFunction*%
%TA.AperFunction,NonConductor*%
G36*
X156215826Y-92041982D02*
G01*
X156262319Y-92095638D01*
X156272423Y-92165912D01*
X156242929Y-92230492D01*
X156197745Y-92263617D01*
X156172145Y-92274695D01*
X156165467Y-92280102D01*
X156163526Y-92281278D01*
X156098257Y-92299500D01*
X155775974Y-92299500D01*
X155707853Y-92279498D01*
X155661360Y-92225842D01*
X155650500Y-92182286D01*
X155650500Y-92182228D01*
X155648187Y-92163117D01*
X155659859Y-92093089D01*
X155707540Y-92040486D01*
X155773274Y-92021980D01*
X156147705Y-92021980D01*
X156215826Y-92041982D01*
G37*
%TD.AperFunction*%
%TA.AperFunction,NonConductor*%
G36*
X144066945Y-91288463D02*
G01*
X144113438Y-91342119D01*
X144123542Y-91412393D01*
X144094048Y-91476973D01*
X144087919Y-91483556D01*
X143933880Y-91637595D01*
X143871568Y-91671621D01*
X143844785Y-91674500D01*
X143107228Y-91674500D01*
X143017453Y-91685364D01*
X143009925Y-91688344D01*
X143009923Y-91688345D01*
X142948958Y-91712483D01*
X142877217Y-91740887D01*
X142757078Y-91832078D01*
X142665887Y-91952217D01*
X142610364Y-92092453D01*
X142599500Y-92182228D01*
X142599500Y-92249301D01*
X142579498Y-92317422D01*
X142525842Y-92363915D01*
X142455568Y-92374019D01*
X142390988Y-92344525D01*
X142353667Y-92288237D01*
X142329221Y-92213001D01*
X142327179Y-92206716D01*
X142315229Y-92186017D01*
X142235836Y-92048505D01*
X142232533Y-92042784D01*
X142213801Y-92021980D01*
X142110286Y-91907015D01*
X142110284Y-91907014D01*
X142105871Y-91902112D01*
X142009477Y-91832078D01*
X141958072Y-91794730D01*
X141958071Y-91794729D01*
X141952730Y-91790849D01*
X141779803Y-91713856D01*
X141681788Y-91693022D01*
X141601103Y-91675872D01*
X141601099Y-91675872D01*
X141594646Y-91674500D01*
X141405354Y-91674500D01*
X141398901Y-91675872D01*
X141398897Y-91675872D01*
X141318212Y-91693022D01*
X141220197Y-91713856D01*
X141047270Y-91790849D01*
X141041929Y-91794729D01*
X141041928Y-91794730D01*
X140990523Y-91832078D01*
X140894129Y-91902112D01*
X140889716Y-91907014D01*
X140889714Y-91907015D01*
X140786199Y-92021980D01*
X140767467Y-92042784D01*
X140764164Y-92048505D01*
X140684772Y-92186017D01*
X140672821Y-92206716D01*
X140614326Y-92386744D01*
X140599500Y-92527808D01*
X140599500Y-92919784D01*
X140579498Y-92987905D01*
X140562596Y-93008879D01*
X139930361Y-93641115D01*
X139868048Y-93675140D01*
X139841265Y-93678020D01*
X137273274Y-93678020D01*
X137205153Y-93658018D01*
X137158660Y-93604362D01*
X137148187Y-93536883D01*
X137150500Y-93517772D01*
X137150500Y-92606267D01*
X137170502Y-92538146D01*
X137187405Y-92517172D01*
X138399210Y-91305366D01*
X138461522Y-91271341D01*
X138488305Y-91268461D01*
X143998824Y-91268461D01*
X144066945Y-91288463D01*
G37*
%TD.AperFunction*%
%TA.AperFunction,NonConductor*%
G36*
X153779094Y-93337627D02*
G01*
X153831400Y-93385633D01*
X153849500Y-93450699D01*
X153849500Y-93517772D01*
X153860364Y-93607547D01*
X153915887Y-93747783D01*
X153921079Y-93754623D01*
X153921082Y-93754628D01*
X153943589Y-93784280D01*
X153968843Y-93850633D01*
X153954215Y-93920107D01*
X153904348Y-93970642D01*
X153843227Y-93986460D01*
X153587174Y-93986460D01*
X153519053Y-93966458D01*
X153498079Y-93949555D01*
X153435938Y-93887414D01*
X153401912Y-93825102D01*
X153406977Y-93754287D01*
X153431397Y-93714008D01*
X153478114Y-93662124D01*
X153478115Y-93662123D01*
X153482533Y-93657216D01*
X153524223Y-93585007D01*
X153573875Y-93499007D01*
X153573876Y-93499006D01*
X153577179Y-93493284D01*
X153603667Y-93411763D01*
X153643741Y-93353157D01*
X153709137Y-93325520D01*
X153779094Y-93337627D01*
G37*
%TD.AperFunction*%
%TA.AperFunction,NonConductor*%
G36*
X151805594Y-93256069D02*
G01*
X151857900Y-93304075D01*
X151869833Y-93330205D01*
X151884313Y-93374769D01*
X151922821Y-93493284D01*
X151926124Y-93499006D01*
X151926125Y-93499007D01*
X151975777Y-93585007D01*
X152017467Y-93657216D01*
X152021885Y-93662123D01*
X152021886Y-93662124D01*
X152139712Y-93792983D01*
X152139715Y-93792985D01*
X152144129Y-93797888D01*
X152149472Y-93801770D01*
X152154376Y-93806185D01*
X152153117Y-93807584D01*
X152190917Y-93856608D01*
X152199500Y-93902317D01*
X152199500Y-93965007D01*
X152199389Y-93970283D01*
X152196790Y-94032294D01*
X152198752Y-94040659D01*
X152206727Y-94074662D01*
X152208890Y-94086333D01*
X152214794Y-94129432D01*
X152218206Y-94137316D01*
X152218206Y-94137317D01*
X152220765Y-94143230D01*
X152227799Y-94164499D01*
X152231232Y-94179136D01*
X152235369Y-94186661D01*
X152235370Y-94186664D01*
X152252195Y-94217268D01*
X152257411Y-94227913D01*
X152274695Y-94267855D01*
X152284158Y-94279541D01*
X152296645Y-94298125D01*
X152303893Y-94311308D01*
X152310897Y-94319422D01*
X152335433Y-94343958D01*
X152344258Y-94353759D01*
X152359860Y-94373025D01*
X152369614Y-94385070D01*
X152376612Y-94390043D01*
X152376617Y-94390048D01*
X152384948Y-94395968D01*
X152401054Y-94409579D01*
X152516360Y-94524885D01*
X152550386Y-94587197D01*
X152545321Y-94658012D01*
X152502774Y-94714848D01*
X152436254Y-94739659D01*
X152427265Y-94739980D01*
X152088590Y-94739980D01*
X152020469Y-94719978D01*
X151999495Y-94703076D01*
X151337405Y-94040987D01*
X151303380Y-93978674D01*
X151300500Y-93951891D01*
X151300500Y-93902317D01*
X151320502Y-93834196D01*
X151346274Y-93806907D01*
X151345624Y-93806185D01*
X151350528Y-93801770D01*
X151355871Y-93797888D01*
X151360285Y-93792985D01*
X151360288Y-93792983D01*
X151478114Y-93662124D01*
X151478115Y-93662123D01*
X151482533Y-93657216D01*
X151524223Y-93585007D01*
X151573875Y-93499007D01*
X151573876Y-93499006D01*
X151577179Y-93493284D01*
X151615687Y-93374769D01*
X151630167Y-93330205D01*
X151670241Y-93271599D01*
X151735637Y-93243962D01*
X151805594Y-93256069D01*
G37*
%TD.AperFunction*%
%TA.AperFunction,NonConductor*%
G36*
X160754343Y-93764649D02*
G01*
X160776825Y-93773550D01*
X160817453Y-93789636D01*
X160825491Y-93790609D01*
X160825492Y-93790609D01*
X160857063Y-93794429D01*
X160907229Y-93800500D01*
X161449642Y-93800500D01*
X161992770Y-93800499D01*
X161996528Y-93800044D01*
X161996533Y-93800044D01*
X162021172Y-93797062D01*
X162031364Y-93795829D01*
X162101394Y-93807503D01*
X162153996Y-93855186D01*
X162172500Y-93920917D01*
X162172500Y-94735008D01*
X162152498Y-94803129D01*
X162098842Y-94849622D01*
X162028568Y-94859726D01*
X161986572Y-94845844D01*
X161864478Y-94779829D01*
X161864476Y-94779828D01*
X161859055Y-94776897D01*
X161662254Y-94715977D01*
X161656129Y-94715333D01*
X161656128Y-94715333D01*
X161463498Y-94695087D01*
X161463496Y-94695087D01*
X161457369Y-94694443D01*
X161370529Y-94702346D01*
X161258342Y-94712555D01*
X161258339Y-94712556D01*
X161252203Y-94713114D01*
X161054572Y-94771280D01*
X161049107Y-94774137D01*
X161008932Y-94795140D01*
X160872002Y-94866726D01*
X160867201Y-94870586D01*
X160867198Y-94870588D01*
X160786911Y-94935141D01*
X160721289Y-94962237D01*
X160651434Y-94949554D01*
X160599526Y-94901118D01*
X160581959Y-94836944D01*
X160581959Y-93881801D01*
X160601961Y-93813680D01*
X160655617Y-93767187D01*
X160725891Y-93757083D01*
X160754343Y-93764649D01*
G37*
%TD.AperFunction*%
%TA.AperFunction,NonConductor*%
G36*
X157553026Y-93320502D02*
G01*
X157583650Y-93348235D01*
X157625074Y-93400500D01*
X157686849Y-93478441D01*
X157686852Y-93478444D01*
X157690677Y-93483270D01*
X157695370Y-93487264D01*
X157695371Y-93487265D01*
X157735647Y-93521542D01*
X157847564Y-93616791D01*
X157852942Y-93619797D01*
X157852944Y-93619798D01*
X157891342Y-93641258D01*
X158027398Y-93717297D01*
X158096643Y-93739796D01*
X158217471Y-93779056D01*
X158217475Y-93779057D01*
X158223329Y-93780959D01*
X158427894Y-93805351D01*
X158434029Y-93804879D01*
X158434031Y-93804879D01*
X158496865Y-93800044D01*
X158633300Y-93789546D01*
X158639230Y-93787890D01*
X158639232Y-93787890D01*
X158825797Y-93735800D01*
X158825796Y-93735800D01*
X158831725Y-93734145D01*
X158837214Y-93731372D01*
X158837220Y-93731370D01*
X158974928Y-93661808D01*
X159015610Y-93641258D01*
X159049121Y-93615077D01*
X159099241Y-93575919D01*
X159177951Y-93514424D01*
X159188511Y-93502190D01*
X159259577Y-93419859D01*
X159319230Y-93381362D01*
X159390227Y-93381226D01*
X159450026Y-93419496D01*
X159479642Y-93484021D01*
X159480959Y-93502190D01*
X159480959Y-94998053D01*
X159460957Y-95066174D01*
X159407301Y-95112667D01*
X159337027Y-95122771D01*
X159272447Y-95093277D01*
X159257316Y-95077689D01*
X159202906Y-95010975D01*
X159202903Y-95010972D01*
X159199011Y-95006200D01*
X159061393Y-94892352D01*
X159045025Y-94878811D01*
X159045021Y-94878809D01*
X159040275Y-94874882D01*
X158868667Y-94782094D01*
X158864474Y-94779827D01*
X158859055Y-94776897D01*
X158662254Y-94715977D01*
X158656129Y-94715333D01*
X158656128Y-94715333D01*
X158463498Y-94695087D01*
X158463496Y-94695087D01*
X158457369Y-94694443D01*
X158370529Y-94702346D01*
X158258342Y-94712555D01*
X158258339Y-94712556D01*
X158252203Y-94713114D01*
X158054572Y-94771280D01*
X158049107Y-94774137D01*
X158008932Y-94795140D01*
X157872002Y-94866726D01*
X157867201Y-94870586D01*
X157867198Y-94870588D01*
X157716254Y-94991950D01*
X157711447Y-94995815D01*
X157579024Y-95153630D01*
X157577009Y-95151939D01*
X157530845Y-95189611D01*
X157481913Y-95199500D01*
X157185834Y-95199500D01*
X157117713Y-95179498D01*
X157096739Y-95162595D01*
X156092461Y-94158318D01*
X156088808Y-94154509D01*
X156052594Y-94115127D01*
X156046780Y-94108804D01*
X156009777Y-94085861D01*
X156000027Y-94079160D01*
X155965362Y-94052848D01*
X155951383Y-94047314D01*
X155931380Y-94037253D01*
X155918593Y-94029325D01*
X155910342Y-94026928D01*
X155910340Y-94026927D01*
X155876807Y-94017185D01*
X155865574Y-94013339D01*
X155845417Y-94005358D01*
X155825126Y-93997324D01*
X155816585Y-93996426D01*
X155816584Y-93996426D01*
X155810171Y-93995752D01*
X155788196Y-93991440D01*
X155773754Y-93987245D01*
X155766271Y-93986696D01*
X155765371Y-93986629D01*
X155765360Y-93986629D01*
X155763064Y-93986460D01*
X155728362Y-93986460D01*
X155715192Y-93985770D01*
X155710814Y-93985310D01*
X155675125Y-93981559D01*
X155666655Y-93982992D01*
X155663235Y-93983099D01*
X155594520Y-93965247D01*
X155546364Y-93913078D01*
X155534058Y-93843156D01*
X155558915Y-93780981D01*
X155578918Y-93754628D01*
X155578921Y-93754623D01*
X155584113Y-93747783D01*
X155639636Y-93607547D01*
X155650500Y-93517772D01*
X155650607Y-93517785D01*
X155674275Y-93452114D01*
X155730635Y-93408940D01*
X155775974Y-93400500D01*
X156345007Y-93400500D01*
X156350284Y-93400611D01*
X156412294Y-93403210D01*
X156428248Y-93399468D01*
X156454662Y-93393273D01*
X156466333Y-93391110D01*
X156481229Y-93389069D01*
X156509432Y-93385206D01*
X156523230Y-93379235D01*
X156544499Y-93372201D01*
X156550775Y-93370729D01*
X156559136Y-93368768D01*
X156566661Y-93364631D01*
X156566664Y-93364630D01*
X156597268Y-93347805D01*
X156607913Y-93342589D01*
X156647855Y-93325305D01*
X156654532Y-93319898D01*
X156656471Y-93318724D01*
X156721742Y-93300500D01*
X157484905Y-93300500D01*
X157553026Y-93320502D01*
G37*
%TD.AperFunction*%
%TA.AperFunction,NonConductor*%
G36*
X149805594Y-93256069D02*
G01*
X149857900Y-93304075D01*
X149869833Y-93330205D01*
X149884313Y-93374769D01*
X149922821Y-93493284D01*
X149926124Y-93499006D01*
X149926125Y-93499007D01*
X149975777Y-93585007D01*
X150017467Y-93657216D01*
X150021885Y-93662123D01*
X150021886Y-93662124D01*
X150139712Y-93792983D01*
X150139715Y-93792985D01*
X150144129Y-93797888D01*
X150149472Y-93801770D01*
X150154376Y-93806185D01*
X150153117Y-93807584D01*
X150190917Y-93856608D01*
X150199500Y-93902317D01*
X150199500Y-94217113D01*
X150199389Y-94222389D01*
X150196790Y-94284400D01*
X150198752Y-94292765D01*
X150206727Y-94326768D01*
X150208890Y-94338439D01*
X150214794Y-94381538D01*
X150218206Y-94389422D01*
X150218206Y-94389423D01*
X150220765Y-94395336D01*
X150227799Y-94416605D01*
X150231232Y-94431242D01*
X150235369Y-94438767D01*
X150235370Y-94438770D01*
X150252195Y-94469374D01*
X150257411Y-94480019D01*
X150274695Y-94519961D01*
X150284158Y-94531647D01*
X150296645Y-94550231D01*
X150303893Y-94563414D01*
X150310897Y-94571528D01*
X150335433Y-94596064D01*
X150344258Y-94605865D01*
X150364206Y-94630498D01*
X150369614Y-94637176D01*
X150376613Y-94642150D01*
X150376614Y-94642151D01*
X150384946Y-94648072D01*
X150401051Y-94661682D01*
X150806734Y-95067364D01*
X151013774Y-95274404D01*
X151047799Y-95336717D01*
X151042735Y-95407532D01*
X151000188Y-95464368D01*
X150933668Y-95489179D01*
X150924679Y-95489500D01*
X150710215Y-95489500D01*
X150642094Y-95469498D01*
X150621120Y-95452595D01*
X149337405Y-94168881D01*
X149303380Y-94106569D01*
X149300500Y-94079786D01*
X149300500Y-93902317D01*
X149320502Y-93834196D01*
X149346274Y-93806907D01*
X149345624Y-93806185D01*
X149350528Y-93801770D01*
X149355871Y-93797888D01*
X149360285Y-93792985D01*
X149360288Y-93792983D01*
X149478114Y-93662124D01*
X149478115Y-93662123D01*
X149482533Y-93657216D01*
X149524223Y-93585007D01*
X149573875Y-93499007D01*
X149573876Y-93499006D01*
X149577179Y-93493284D01*
X149615687Y-93374769D01*
X149630167Y-93330205D01*
X149670241Y-93271599D01*
X149735637Y-93243962D01*
X149805594Y-93256069D01*
G37*
%TD.AperFunction*%
%TA.AperFunction,NonConductor*%
G36*
X160789622Y-96567479D02*
G01*
X160821971Y-96595010D01*
X160847564Y-96616791D01*
X160852942Y-96619797D01*
X160852944Y-96619798D01*
X160911048Y-96652271D01*
X161027398Y-96717297D01*
X161097600Y-96740107D01*
X161217471Y-96779056D01*
X161217475Y-96779057D01*
X161223329Y-96780959D01*
X161427894Y-96805351D01*
X161434029Y-96804879D01*
X161434031Y-96804879D01*
X161490039Y-96800569D01*
X161633300Y-96789546D01*
X161639230Y-96787890D01*
X161639232Y-96787890D01*
X161825797Y-96735800D01*
X161825796Y-96735800D01*
X161831725Y-96734145D01*
X161837218Y-96731370D01*
X161837224Y-96731368D01*
X161989690Y-96654352D01*
X162059512Y-96641492D01*
X162125203Y-96668421D01*
X162165906Y-96726591D01*
X162172500Y-96766818D01*
X162172500Y-97735008D01*
X162152498Y-97803129D01*
X162098842Y-97849622D01*
X162028568Y-97859726D01*
X161986572Y-97845844D01*
X161864478Y-97779829D01*
X161864476Y-97779828D01*
X161859055Y-97776897D01*
X161662254Y-97715977D01*
X161656129Y-97715333D01*
X161656128Y-97715333D01*
X161463498Y-97695087D01*
X161463496Y-97695087D01*
X161457369Y-97694443D01*
X161372208Y-97702193D01*
X161258342Y-97712555D01*
X161258339Y-97712556D01*
X161252203Y-97713114D01*
X161054572Y-97771280D01*
X160872002Y-97866726D01*
X160867201Y-97870586D01*
X160867198Y-97870588D01*
X160856971Y-97878811D01*
X160790635Y-97932147D01*
X160786911Y-97935141D01*
X160721289Y-97962237D01*
X160651434Y-97949554D01*
X160599526Y-97901118D01*
X160581959Y-97836944D01*
X160581959Y-96663433D01*
X160601961Y-96595312D01*
X160655617Y-96548819D01*
X160725891Y-96538715D01*
X160789622Y-96567479D01*
G37*
%TD.AperFunction*%
%TA.AperFunction,NonConductor*%
G36*
X157553026Y-96320502D02*
G01*
X157583650Y-96348235D01*
X157625142Y-96400585D01*
X157686849Y-96478441D01*
X157686852Y-96478444D01*
X157690677Y-96483270D01*
X157695370Y-96487264D01*
X157695371Y-96487265D01*
X157821376Y-96594503D01*
X157847564Y-96616791D01*
X157852942Y-96619797D01*
X157852944Y-96619798D01*
X157911048Y-96652271D01*
X158027398Y-96717297D01*
X158097600Y-96740107D01*
X158217471Y-96779056D01*
X158217475Y-96779057D01*
X158223329Y-96780959D01*
X158427894Y-96805351D01*
X158434029Y-96804879D01*
X158434031Y-96804879D01*
X158490039Y-96800569D01*
X158633300Y-96789546D01*
X158639230Y-96787890D01*
X158639232Y-96787890D01*
X158825797Y-96735800D01*
X158825796Y-96735800D01*
X158831725Y-96734145D01*
X158837214Y-96731372D01*
X158837220Y-96731370D01*
X159004114Y-96647065D01*
X159015610Y-96641258D01*
X159076138Y-96593969D01*
X159134361Y-96548480D01*
X159177951Y-96514424D01*
X159192289Y-96497813D01*
X159259577Y-96419859D01*
X159319230Y-96381362D01*
X159390227Y-96381226D01*
X159450026Y-96419496D01*
X159479642Y-96484021D01*
X159480959Y-96502190D01*
X159480959Y-97998053D01*
X159460957Y-98066174D01*
X159407301Y-98112667D01*
X159337027Y-98122771D01*
X159272447Y-98093277D01*
X159257316Y-98077689D01*
X159202906Y-98010975D01*
X159202903Y-98010972D01*
X159199011Y-98006200D01*
X159169670Y-97981927D01*
X159045025Y-97878811D01*
X159045021Y-97878809D01*
X159040275Y-97874882D01*
X158859055Y-97776897D01*
X158662254Y-97715977D01*
X158656129Y-97715333D01*
X158656128Y-97715333D01*
X158463498Y-97695087D01*
X158463496Y-97695087D01*
X158457369Y-97694443D01*
X158372208Y-97702193D01*
X158258342Y-97712555D01*
X158258339Y-97712556D01*
X158252203Y-97713114D01*
X158054572Y-97771280D01*
X157872002Y-97866726D01*
X157867201Y-97870586D01*
X157867198Y-97870588D01*
X157817815Y-97910293D01*
X157756810Y-97959342D01*
X157691189Y-97986438D01*
X157621334Y-97973755D01*
X157588764Y-97950240D01*
X157566925Y-97928401D01*
X157532899Y-97866089D01*
X157530020Y-97839306D01*
X157530020Y-96904532D01*
X157530131Y-96899256D01*
X157532370Y-96845830D01*
X157532730Y-96837245D01*
X157530768Y-96828880D01*
X157522793Y-96794877D01*
X157520630Y-96783206D01*
X157515892Y-96748620D01*
X157514726Y-96740107D01*
X157508755Y-96726309D01*
X157501721Y-96705040D01*
X157500249Y-96698764D01*
X157498288Y-96690403D01*
X157494151Y-96682878D01*
X157494150Y-96682875D01*
X157477325Y-96652271D01*
X157472109Y-96641626D01*
X157454825Y-96601684D01*
X157445362Y-96589998D01*
X157432874Y-96571413D01*
X157428810Y-96564021D01*
X157425627Y-96558231D01*
X157418623Y-96550117D01*
X157394087Y-96525581D01*
X157385259Y-96515777D01*
X157377173Y-96505791D01*
X157349850Y-96440263D01*
X157362291Y-96370365D01*
X157410548Y-96318290D01*
X157475096Y-96300500D01*
X157484905Y-96300500D01*
X157553026Y-96320502D01*
G37*
%TD.AperFunction*%
%TA.AperFunction,NonConductor*%
G36*
X160789622Y-99567479D02*
G01*
X160822326Y-99595312D01*
X160847564Y-99616791D01*
X160852942Y-99619797D01*
X160852944Y-99619798D01*
X160914771Y-99654352D01*
X161027398Y-99717297D01*
X161088419Y-99737124D01*
X161217471Y-99779056D01*
X161217475Y-99779057D01*
X161223329Y-99780959D01*
X161427894Y-99805351D01*
X161434029Y-99804879D01*
X161434031Y-99804879D01*
X161490039Y-99800569D01*
X161633300Y-99789546D01*
X161639230Y-99787890D01*
X161639232Y-99787890D01*
X161825797Y-99735800D01*
X161825796Y-99735800D01*
X161831725Y-99734145D01*
X161837218Y-99731370D01*
X161837224Y-99731368D01*
X161989690Y-99654352D01*
X162059512Y-99641492D01*
X162125203Y-99668421D01*
X162165906Y-99726591D01*
X162172500Y-99766818D01*
X162172500Y-100735008D01*
X162152498Y-100803129D01*
X162098842Y-100849622D01*
X162028568Y-100859726D01*
X161986572Y-100845844D01*
X161864478Y-100779829D01*
X161864476Y-100779828D01*
X161859055Y-100776897D01*
X161662254Y-100715977D01*
X161656129Y-100715333D01*
X161656128Y-100715333D01*
X161463498Y-100695087D01*
X161463496Y-100695087D01*
X161457369Y-100694443D01*
X161370529Y-100702346D01*
X161258342Y-100712555D01*
X161258339Y-100712556D01*
X161252203Y-100713114D01*
X161054572Y-100771280D01*
X160872002Y-100866726D01*
X160867201Y-100870586D01*
X160867198Y-100870588D01*
X160786911Y-100935141D01*
X160721289Y-100962237D01*
X160651434Y-100949554D01*
X160599526Y-100901118D01*
X160581959Y-100836944D01*
X160581959Y-99663433D01*
X160601961Y-99595312D01*
X160655617Y-99548819D01*
X160725891Y-99538715D01*
X160789622Y-99567479D01*
G37*
%TD.AperFunction*%
%TA.AperFunction,NonConductor*%
G36*
X156989012Y-98907991D02*
G01*
X156995595Y-98914120D01*
X157210130Y-99128655D01*
X157213783Y-99132464D01*
X157255799Y-99178156D01*
X157292797Y-99201095D01*
X157302548Y-99207797D01*
X157337216Y-99234112D01*
X157351193Y-99239646D01*
X157371202Y-99249709D01*
X157376688Y-99253111D01*
X157376692Y-99253113D01*
X157383986Y-99257635D01*
X157392228Y-99260029D01*
X157392231Y-99260031D01*
X157425784Y-99269779D01*
X157436997Y-99273618D01*
X157477453Y-99289635D01*
X157488450Y-99290791D01*
X157489956Y-99290949D01*
X157493311Y-99292329D01*
X157494340Y-99292582D01*
X157494302Y-99292737D01*
X157555614Y-99317961D01*
X157575533Y-99337995D01*
X157686844Y-99478435D01*
X157686849Y-99478440D01*
X157690677Y-99483270D01*
X157695370Y-99487264D01*
X157695371Y-99487265D01*
X157814568Y-99588709D01*
X157847564Y-99616791D01*
X157852942Y-99619797D01*
X157852944Y-99619798D01*
X157914771Y-99654352D01*
X158027398Y-99717297D01*
X158088419Y-99737124D01*
X158217471Y-99779056D01*
X158217475Y-99779057D01*
X158223329Y-99780959D01*
X158427894Y-99805351D01*
X158434029Y-99804879D01*
X158434031Y-99804879D01*
X158490039Y-99800569D01*
X158633300Y-99789546D01*
X158639230Y-99787890D01*
X158639232Y-99787890D01*
X158825797Y-99735800D01*
X158825796Y-99735800D01*
X158831725Y-99734145D01*
X158837214Y-99731372D01*
X158837220Y-99731370D01*
X159010116Y-99644033D01*
X159015610Y-99641258D01*
X159177951Y-99514424D01*
X159204194Y-99484021D01*
X159259577Y-99419859D01*
X159319230Y-99381362D01*
X159390227Y-99381226D01*
X159450026Y-99419496D01*
X159479642Y-99484021D01*
X159480959Y-99502190D01*
X159480959Y-100998053D01*
X159460957Y-101066174D01*
X159407301Y-101112667D01*
X159337027Y-101122771D01*
X159272447Y-101093277D01*
X159257316Y-101077689D01*
X159202906Y-101010975D01*
X159202903Y-101010972D01*
X159199011Y-101006200D01*
X159186458Y-100995815D01*
X159045025Y-100878811D01*
X159045021Y-100878809D01*
X159040275Y-100874882D01*
X158859055Y-100776897D01*
X158662254Y-100715977D01*
X158656129Y-100715333D01*
X158656128Y-100715333D01*
X158463498Y-100695087D01*
X158463496Y-100695087D01*
X158457369Y-100694443D01*
X158252904Y-100713050D01*
X158252902Y-100713050D01*
X158252203Y-100713114D01*
X158252191Y-100712981D01*
X158184124Y-100706349D01*
X158142084Y-100678560D01*
X156817405Y-99353881D01*
X156783379Y-99291569D01*
X156780500Y-99264786D01*
X156780500Y-99003215D01*
X156800502Y-98935094D01*
X156854158Y-98888601D01*
X156924432Y-98878497D01*
X156989012Y-98907991D01*
G37*
%TD.AperFunction*%
%TA.AperFunction,NonConductor*%
G36*
X160789622Y-102567479D02*
G01*
X160819849Y-102593204D01*
X160847564Y-102616791D01*
X160852942Y-102619797D01*
X160852944Y-102619798D01*
X160914771Y-102654352D01*
X161027398Y-102717297D01*
X161122238Y-102748113D01*
X161217471Y-102779056D01*
X161217475Y-102779057D01*
X161223329Y-102780959D01*
X161427894Y-102805351D01*
X161434029Y-102804879D01*
X161434031Y-102804879D01*
X161500504Y-102799764D01*
X161633300Y-102789546D01*
X161639230Y-102787890D01*
X161639232Y-102787890D01*
X161825797Y-102735800D01*
X161825796Y-102735800D01*
X161831725Y-102734145D01*
X161837218Y-102731370D01*
X161837224Y-102731368D01*
X161989690Y-102654352D01*
X162059512Y-102641492D01*
X162125203Y-102668421D01*
X162165906Y-102726591D01*
X162172500Y-102766818D01*
X162172500Y-103370734D01*
X162152498Y-103438855D01*
X162135595Y-103459829D01*
X161881853Y-103713571D01*
X161819541Y-103747597D01*
X161755499Y-103744841D01*
X161717324Y-103733024D01*
X161662254Y-103715977D01*
X161656129Y-103715333D01*
X161656128Y-103715333D01*
X161463498Y-103695087D01*
X161463496Y-103695087D01*
X161457369Y-103694443D01*
X161370529Y-103702346D01*
X161258342Y-103712555D01*
X161258339Y-103712556D01*
X161252203Y-103713114D01*
X161054572Y-103771280D01*
X161049107Y-103774137D01*
X161026718Y-103785842D01*
X160872002Y-103866726D01*
X160867201Y-103870586D01*
X160867198Y-103870588D01*
X160786911Y-103935141D01*
X160721289Y-103962237D01*
X160651434Y-103949554D01*
X160599526Y-103901118D01*
X160581959Y-103836944D01*
X160581959Y-102663433D01*
X160601961Y-102595312D01*
X160655617Y-102548819D01*
X160725891Y-102538715D01*
X160789622Y-102567479D01*
G37*
%TD.AperFunction*%
%TA.AperFunction,NonConductor*%
G36*
X159401710Y-105715084D02*
G01*
X159457547Y-105758934D01*
X159480959Y-105832090D01*
X159480959Y-106998053D01*
X159460957Y-107066174D01*
X159407301Y-107112667D01*
X159337027Y-107122771D01*
X159272447Y-107093277D01*
X159257316Y-107077689D01*
X159202906Y-107010975D01*
X159202903Y-107010972D01*
X159199011Y-107006200D01*
X159071989Y-106901118D01*
X159045025Y-106878811D01*
X159045021Y-106878809D01*
X159040275Y-106874882D01*
X158859055Y-106776897D01*
X158788643Y-106755101D01*
X158722972Y-106734772D01*
X158663812Y-106695521D01*
X158635265Y-106630516D01*
X158646394Y-106560397D01*
X158671136Y-106525312D01*
X159009559Y-106186889D01*
X159010497Y-106185960D01*
X159050294Y-106146988D01*
X159074268Y-106123511D01*
X159078083Y-106117591D01*
X159078088Y-106117585D01*
X159097490Y-106087479D01*
X159104930Y-106077125D01*
X159127267Y-106049144D01*
X159131664Y-106043636D01*
X159146082Y-106013811D01*
X159153611Y-106000395D01*
X159167735Y-105978479D01*
X159171554Y-105972553D01*
X159186213Y-105932279D01*
X159191172Y-105920539D01*
X159206763Y-105888286D01*
X159209827Y-105881948D01*
X159217279Y-105849672D01*
X159221648Y-105834924D01*
X159230568Y-105810417D01*
X159230570Y-105810407D01*
X159232978Y-105803792D01*
X159233329Y-105801012D01*
X159267948Y-105740958D01*
X159331031Y-105708383D01*
X159401710Y-105715084D01*
G37*
%TD.AperFunction*%
%TA.AperFunction,NonConductor*%
G36*
X162824563Y-104084180D02*
G01*
X162881399Y-104126727D01*
X162906210Y-104193247D01*
X162906531Y-104202236D01*
X162906531Y-108138817D01*
X162886529Y-108206938D01*
X162832873Y-108253431D01*
X162762599Y-108263535D01*
X162698019Y-108234041D01*
X162691436Y-108227912D01*
X162519413Y-108055889D01*
X162485387Y-107993577D01*
X162483502Y-107951002D01*
X162484060Y-107946584D01*
X162505171Y-107779474D01*
X162505583Y-107750000D01*
X162485480Y-107544970D01*
X162425935Y-107347749D01*
X162329218Y-107165849D01*
X162247925Y-107066174D01*
X162202906Y-107010975D01*
X162202903Y-107010972D01*
X162199011Y-107006200D01*
X162071989Y-106901118D01*
X162045025Y-106878811D01*
X162045021Y-106878809D01*
X162040275Y-106874882D01*
X161859055Y-106776897D01*
X161662254Y-106715977D01*
X161656129Y-106715333D01*
X161656128Y-106715333D01*
X161463498Y-106695087D01*
X161463496Y-106695087D01*
X161457369Y-106694443D01*
X161370529Y-106702346D01*
X161258342Y-106712555D01*
X161258339Y-106712556D01*
X161252203Y-106713114D01*
X161054572Y-106771280D01*
X160872002Y-106866726D01*
X160867201Y-106870586D01*
X160867198Y-106870588D01*
X160786911Y-106935141D01*
X160721289Y-106962237D01*
X160651434Y-106949554D01*
X160599526Y-106901118D01*
X160581959Y-106836944D01*
X160581959Y-105663433D01*
X160601961Y-105595312D01*
X160655617Y-105548819D01*
X160725891Y-105538715D01*
X160789622Y-105567479D01*
X160834222Y-105605436D01*
X160847564Y-105616791D01*
X160852942Y-105619797D01*
X160852944Y-105619798D01*
X160868475Y-105628478D01*
X161027398Y-105717297D01*
X161100219Y-105740958D01*
X161217471Y-105779056D01*
X161217475Y-105779057D01*
X161223329Y-105780959D01*
X161427894Y-105805351D01*
X161434029Y-105804879D01*
X161434031Y-105804879D01*
X161490039Y-105800569D01*
X161633300Y-105789546D01*
X161639230Y-105787890D01*
X161639232Y-105787890D01*
X161825797Y-105735800D01*
X161825796Y-105735800D01*
X161831725Y-105734145D01*
X161837214Y-105731372D01*
X161837220Y-105731370D01*
X162010116Y-105644033D01*
X162015610Y-105641258D01*
X162057671Y-105608397D01*
X162162680Y-105526355D01*
X162177951Y-105514424D01*
X162187160Y-105503756D01*
X162308540Y-105363134D01*
X162308540Y-105363133D01*
X162312564Y-105358472D01*
X162315843Y-105352701D01*
X162358508Y-105277596D01*
X162414323Y-105179344D01*
X162479351Y-104983863D01*
X162505171Y-104779474D01*
X162505583Y-104750000D01*
X162485480Y-104544970D01*
X162454895Y-104443668D01*
X162454354Y-104372674D01*
X162486422Y-104318155D01*
X162691436Y-104113141D01*
X162753748Y-104079115D01*
X162824563Y-104084180D01*
G37*
%TD.AperFunction*%
%TA.AperFunction,NonConductor*%
G36*
X128582228Y-109400500D02*
G01*
X128649301Y-109400500D01*
X128717422Y-109420502D01*
X128763915Y-109474158D01*
X128774019Y-109544432D01*
X128744525Y-109609012D01*
X128688237Y-109646333D01*
X128606716Y-109672821D01*
X128600994Y-109676124D01*
X128600993Y-109676125D01*
X128561248Y-109699072D01*
X128477495Y-109747427D01*
X128463898Y-109755277D01*
X128394903Y-109772015D01*
X128327811Y-109748795D01*
X128283924Y-109692987D01*
X128277175Y-109622312D01*
X128300358Y-109573170D01*
X128299635Y-109572722D01*
X128303541Y-109566423D01*
X128303541Y-109566422D01*
X128322579Y-109535718D01*
X128329280Y-109525968D01*
X128355592Y-109491303D01*
X128361126Y-109477324D01*
X128371184Y-109457325D01*
X128371294Y-109457147D01*
X128376303Y-109449070D01*
X128429192Y-109401712D01*
X128498529Y-109390371D01*
X128582228Y-109400500D01*
G37*
%TD.AperFunction*%
%TA.AperFunction,NonConductor*%
G36*
X160789623Y-108567479D02*
G01*
X160847564Y-108616791D01*
X161027398Y-108717297D01*
X161122238Y-108748113D01*
X161217471Y-108779056D01*
X161217475Y-108779057D01*
X161223329Y-108780959D01*
X161427894Y-108805351D01*
X161434029Y-108804879D01*
X161434031Y-108804879D01*
X161633300Y-108789546D01*
X161633517Y-108792361D01*
X161692033Y-108798871D01*
X161732481Y-108826006D01*
X162116106Y-109209631D01*
X162150132Y-109271943D01*
X162153011Y-109298726D01*
X162153011Y-109724471D01*
X162133009Y-109792592D01*
X162079353Y-109839085D01*
X162009079Y-109849189D01*
X161967082Y-109835307D01*
X161859055Y-109776897D01*
X161662254Y-109715977D01*
X161656129Y-109715333D01*
X161656128Y-109715333D01*
X161463498Y-109695087D01*
X161463496Y-109695087D01*
X161457369Y-109694443D01*
X161255468Y-109712817D01*
X161185816Y-109699072D01*
X161154955Y-109676431D01*
X160618864Y-109140340D01*
X160584838Y-109078028D01*
X160581959Y-109051245D01*
X160581959Y-108663433D01*
X160601961Y-108595312D01*
X160655617Y-108548819D01*
X160725891Y-108538715D01*
X160789623Y-108567479D01*
G37*
%TD.AperFunction*%
%TA.AperFunction,NonConductor*%
G36*
X162824563Y-112030861D02*
G01*
X162881399Y-112073408D01*
X162906210Y-112139928D01*
X162906531Y-112148917D01*
X162906531Y-113235486D01*
X162886529Y-113303607D01*
X162869627Y-113324581D01*
X162704435Y-113489774D01*
X162672324Y-113521885D01*
X162610012Y-113555910D01*
X162539196Y-113550846D01*
X162482360Y-113508299D01*
X162462606Y-113469208D01*
X162449922Y-113427198D01*
X162425935Y-113347749D01*
X162329218Y-113165849D01*
X162255452Y-113075403D01*
X162202906Y-113010975D01*
X162202903Y-113010972D01*
X162199011Y-113006200D01*
X162194262Y-113002271D01*
X162045025Y-112878811D01*
X162045021Y-112878809D01*
X162040275Y-112874882D01*
X162034855Y-112871952D01*
X162034850Y-112871948D01*
X161884856Y-112790847D01*
X161834447Y-112740852D01*
X161819069Y-112671541D01*
X161843605Y-112604919D01*
X161900265Y-112562138D01*
X161944784Y-112554011D01*
X161954229Y-112554011D01*
X161959506Y-112554122D01*
X162021516Y-112556721D01*
X162033070Y-112554011D01*
X162063884Y-112546784D01*
X162075555Y-112544621D01*
X162090451Y-112542580D01*
X162118654Y-112538717D01*
X162132452Y-112532746D01*
X162153721Y-112525712D01*
X162159997Y-112524240D01*
X162168358Y-112522279D01*
X162175883Y-112518142D01*
X162175886Y-112518141D01*
X162206490Y-112501316D01*
X162217135Y-112496100D01*
X162257077Y-112478816D01*
X162268763Y-112469353D01*
X162287348Y-112456865D01*
X162294740Y-112452801D01*
X162300530Y-112449618D01*
X162308644Y-112442614D01*
X162333180Y-112418078D01*
X162342981Y-112409253D01*
X162367614Y-112389305D01*
X162367615Y-112389304D01*
X162374292Y-112383897D01*
X162379265Y-112376899D01*
X162379270Y-112376894D01*
X162385190Y-112368563D01*
X162398801Y-112352457D01*
X162691436Y-112059822D01*
X162753748Y-112025796D01*
X162824563Y-112030861D01*
G37*
%TD.AperFunction*%
%TA.AperFunction,NonConductor*%
G36*
X161025311Y-112574013D02*
G01*
X161071804Y-112627669D01*
X161081908Y-112697943D01*
X161052414Y-112762523D01*
X161015566Y-112791672D01*
X160872002Y-112866726D01*
X160867201Y-112870586D01*
X160867198Y-112870588D01*
X160716254Y-112991950D01*
X160711447Y-112995815D01*
X160579024Y-113153630D01*
X160576056Y-113159028D01*
X160576053Y-113159033D01*
X160505331Y-113287677D01*
X160479776Y-113334162D01*
X160417484Y-113530532D01*
X160416798Y-113536649D01*
X160416797Y-113536653D01*
X160411407Y-113584706D01*
X160394520Y-113735262D01*
X160395036Y-113741406D01*
X160411178Y-113933629D01*
X160411759Y-113940553D01*
X160413458Y-113946478D01*
X160423145Y-113980259D01*
X160468544Y-114138586D01*
X160471358Y-114144062D01*
X160471363Y-114144074D01*
X160535781Y-114269417D01*
X160549129Y-114339147D01*
X160522659Y-114405025D01*
X160464774Y-114446133D01*
X160423715Y-114453011D01*
X159983726Y-114453011D01*
X159915605Y-114433009D01*
X159894631Y-114416106D01*
X159521096Y-114042571D01*
X159487070Y-113980259D01*
X159485184Y-113937688D01*
X159505171Y-113779474D01*
X159505583Y-113750000D01*
X159485480Y-113544970D01*
X159425935Y-113347749D01*
X159329218Y-113165849D01*
X159255452Y-113075403D01*
X159202906Y-113010975D01*
X159202903Y-113010972D01*
X159199011Y-113006200D01*
X159194262Y-113002271D01*
X159045025Y-112878811D01*
X159045021Y-112878809D01*
X159040275Y-112874882D01*
X159034855Y-112871952D01*
X159034850Y-112871948D01*
X158884856Y-112790847D01*
X158834447Y-112740852D01*
X158819069Y-112671541D01*
X158843605Y-112604919D01*
X158900265Y-112562138D01*
X158944784Y-112554011D01*
X160957190Y-112554011D01*
X161025311Y-112574013D01*
G37*
%TD.AperFunction*%
M02*
