%TF.GenerationSoftware,KiCad,Pcbnew,(6.0.5-0)*%
%TF.CreationDate,2022-05-22T19:36:29+08:00*%
%TF.ProjectId,StealthBurner,53746561-6c74-4684-9275-726e65722e6b,rev?*%
%TF.SameCoordinates,Original*%
%TF.FileFunction,Soldermask,Top*%
%TF.FilePolarity,Negative*%
%FSLAX46Y46*%
G04 Gerber Fmt 4.6, Leading zero omitted, Abs format (unit mm)*
G04 Created by KiCad (PCBNEW (6.0.5-0)) date 2022-05-22 19:36:29*
%MOMM*%
%LPD*%
G01*
G04 APERTURE LIST*
G04 Aperture macros list*
%AMRoundRect*
0 Rectangle with rounded corners*
0 $1 Rounding radius*
0 $2 $3 $4 $5 $6 $7 $8 $9 X,Y pos of 4 corners*
0 Add a 4 corners polygon primitive as box body*
4,1,4,$2,$3,$4,$5,$6,$7,$8,$9,$2,$3,0*
0 Add four circle primitives for the rounded corners*
1,1,$1+$1,$2,$3*
1,1,$1+$1,$4,$5*
1,1,$1+$1,$6,$7*
1,1,$1+$1,$8,$9*
0 Add four rect primitives between the rounded corners*
20,1,$1+$1,$2,$3,$4,$5,0*
20,1,$1+$1,$4,$5,$6,$7,0*
20,1,$1+$1,$6,$7,$8,$9,0*
20,1,$1+$1,$8,$9,$2,$3,0*%
G04 Aperture macros list end*
%ADD10RoundRect,0.250000X0.350000X0.625000X-0.350000X0.625000X-0.350000X-0.625000X0.350000X-0.625000X0*%
%ADD11O,1.200000X1.750000*%
%ADD12RoundRect,0.250000X0.262500X0.450000X-0.262500X0.450000X-0.262500X-0.450000X0.262500X-0.450000X0*%
%ADD13RoundRect,0.250000X-0.625000X0.350000X-0.625000X-0.350000X0.625000X-0.350000X0.625000X0.350000X0*%
%ADD14O,1.750000X1.200000*%
%ADD15C,5.700000*%
%ADD16C,3.000000*%
%ADD17RoundRect,0.250001X-0.499999X0.499999X-0.499999X-0.499999X0.499999X-0.499999X0.499999X0.499999X0*%
%ADD18C,1.500000*%
%ADD19RoundRect,0.250001X0.499999X0.499999X-0.499999X0.499999X-0.499999X-0.499999X0.499999X-0.499999X0*%
%ADD20R,1.500000X1.500000*%
%ADD21O,1.500000X1.500000*%
G04 APERTURE END LIST*
D10*
%TO.C,J5*%
X136037370Y-92641658D03*
D11*
X134037370Y-92641658D03*
%TD*%
D12*
%TO.C,TH1*%
X129499688Y-115214398D03*
X127674688Y-115214398D03*
%TD*%
D13*
%TO.C,J8*%
X129247970Y-91796058D03*
D14*
X129247970Y-93796058D03*
X129247970Y-95796058D03*
%TD*%
D15*
%TO.C,M1*%
X134667970Y-113731658D03*
%TD*%
D13*
%TO.C,J6*%
X129247970Y-108169198D03*
D14*
X129247970Y-110169198D03*
%TD*%
D16*
%TO.C,J9*%
X165604970Y-114640058D03*
X165604970Y-94940058D03*
D17*
X161284970Y-92780058D03*
D18*
X161284970Y-95780058D03*
X161284970Y-98780058D03*
X161284970Y-101780058D03*
X161284970Y-104780058D03*
X161284970Y-107780058D03*
X161284970Y-110780058D03*
X161284970Y-113780058D03*
X161284970Y-116780058D03*
X158284970Y-92780058D03*
X158284970Y-95780058D03*
X158284970Y-98780058D03*
X158284970Y-101780058D03*
X158284970Y-104780058D03*
X158284970Y-107780058D03*
X158284970Y-110780058D03*
X158284970Y-113780058D03*
X158284970Y-116780058D03*
%TD*%
D10*
%TO.C,J2*%
X154099570Y-92641658D03*
D11*
X152099570Y-92641658D03*
X150099570Y-92641658D03*
X148099570Y-92641658D03*
%TD*%
D16*
%TO.C,J3*%
X139059970Y-104268658D03*
D19*
X139059970Y-99948658D03*
D18*
X139059970Y-96948658D03*
%TD*%
D20*
%TO.C,D1*%
X150921770Y-102965458D03*
D21*
X153461770Y-102965458D03*
%TD*%
D10*
%TO.C,J1*%
X152007370Y-107452458D03*
D11*
X150007370Y-107452458D03*
X148007370Y-107452458D03*
%TD*%
D15*
%TO.C,M2*%
X146647970Y-100961658D03*
%TD*%
D10*
%TO.C,J4*%
X143022370Y-92641658D03*
D11*
X141022370Y-92641658D03*
%TD*%
D13*
%TO.C,J7*%
X129247970Y-100974858D03*
D14*
X129247970Y-102974858D03*
%TD*%
M02*
