%TF.GenerationSoftware,KiCad,Pcbnew,(6.0.5-0)*%
%TF.CreationDate,2022-05-22T17:48:16+08:00*%
%TF.ProjectId,StealthBurner,53746561-6c74-4684-9275-726e65722e6b,rev?*%
%TF.SameCoordinates,Original*%
%TF.FileFunction,Copper,L2,Bot*%
%TF.FilePolarity,Positive*%
%FSLAX46Y46*%
G04 Gerber Fmt 4.6, Leading zero omitted, Abs format (unit mm)*
G04 Created by KiCad (PCBNEW (6.0.5-0)) date 2022-05-22 17:48:16*
%MOMM*%
%LPD*%
G01*
G04 APERTURE LIST*
G04 Aperture macros list*
%AMRoundRect*
0 Rectangle with rounded corners*
0 $1 Rounding radius*
0 $2 $3 $4 $5 $6 $7 $8 $9 X,Y pos of 4 corners*
0 Add a 4 corners polygon primitive as box body*
4,1,4,$2,$3,$4,$5,$6,$7,$8,$9,$2,$3,0*
0 Add four circle primitives for the rounded corners*
1,1,$1+$1,$2,$3*
1,1,$1+$1,$4,$5*
1,1,$1+$1,$6,$7*
1,1,$1+$1,$8,$9*
0 Add four rect primitives between the rounded corners*
20,1,$1+$1,$2,$3,$4,$5,0*
20,1,$1+$1,$4,$5,$6,$7,0*
20,1,$1+$1,$6,$7,$8,$9,0*
20,1,$1+$1,$8,$9,$2,$3,0*%
G04 Aperture macros list end*
%TA.AperFunction,ComponentPad*%
%ADD10RoundRect,0.250000X0.350000X0.625000X-0.350000X0.625000X-0.350000X-0.625000X0.350000X-0.625000X0*%
%TD*%
%TA.AperFunction,ComponentPad*%
%ADD11O,1.200000X1.750000*%
%TD*%
%TA.AperFunction,ComponentPad*%
%ADD12RoundRect,0.250000X-0.625000X0.350000X-0.625000X-0.350000X0.625000X-0.350000X0.625000X0.350000X0*%
%TD*%
%TA.AperFunction,ComponentPad*%
%ADD13O,1.750000X1.200000*%
%TD*%
%TA.AperFunction,ComponentPad*%
%ADD14C,5.700000*%
%TD*%
%TA.AperFunction,ComponentPad*%
%ADD15RoundRect,0.250001X-0.499999X0.499999X-0.499999X-0.499999X0.499999X-0.499999X0.499999X0.499999X0*%
%TD*%
%TA.AperFunction,ComponentPad*%
%ADD16C,1.500000*%
%TD*%
%TA.AperFunction,ComponentPad*%
%ADD17RoundRect,0.250001X0.499999X0.499999X-0.499999X0.499999X-0.499999X-0.499999X0.499999X-0.499999X0*%
%TD*%
%TA.AperFunction,ComponentPad*%
%ADD18R,1.500000X1.500000*%
%TD*%
%TA.AperFunction,ComponentPad*%
%ADD19O,1.500000X1.500000*%
%TD*%
%TA.AperFunction,ViaPad*%
%ADD20C,0.800000*%
%TD*%
%TA.AperFunction,Conductor*%
%ADD21C,0.500000*%
%TD*%
%TA.AperFunction,Conductor*%
%ADD22C,1.000000*%
%TD*%
G04 APERTURE END LIST*
D10*
%TO.P,J5,1,Pin_1*%
%TO.N,/FS*%
X136037370Y-92641658D03*
D11*
%TO.P,J5,2,Pin_2*%
%TO.N,GND*%
X134037370Y-92641658D03*
%TD*%
D12*
%TO.P,J8,1,Pin_1*%
%TO.N,+5V*%
X129247970Y-91796058D03*
D13*
%TO.P,J8,2,Pin_2*%
%TO.N,/DATA*%
X129247970Y-93796058D03*
%TO.P,J8,3,Pin_3*%
%TO.N,GND*%
X129247970Y-95796058D03*
%TD*%
D14*
%TO.P,M1,1*%
%TO.N,GND*%
X134667970Y-113731658D03*
%TD*%
D12*
%TO.P,J6,1,Pin_1*%
%TO.N,/V_FAN*%
X129247970Y-108169198D03*
D13*
%TO.P,J6,2,Pin_2*%
%TO.N,/HEF*%
X129247970Y-110169198D03*
%TD*%
D15*
%TO.P,J9,1,Pin_1*%
%TO.N,+5V*%
X161284970Y-92780058D03*
D16*
%TO.P,J9,2,Pin_2*%
%TO.N,+24V*%
X161284970Y-95780058D03*
%TO.P,J9,3,Pin_3*%
%TO.N,/V_FAN*%
X161284970Y-98780058D03*
%TO.P,J9,4,Pin_4*%
%TO.N,/HE-*%
X161284970Y-101780058D03*
%TO.P,J9,5,Pin_5*%
%TO.N,/HE+*%
X161284970Y-104780058D03*
%TO.P,J9,6,Pin_6*%
%TO.N,/CBT*%
X161284970Y-107780058D03*
%TO.P,J9,7,Pin_7*%
%TO.N,/HET*%
X161284970Y-110780058D03*
%TO.P,J9,8,Pin_8*%
%TO.N,/HEF*%
X161284970Y-113780058D03*
%TO.P,J9,9,Pin_9*%
%TO.N,/PCF*%
X161284970Y-116780058D03*
%TO.P,J9,10,Pin_10*%
%TO.N,/A+*%
X158284970Y-92780058D03*
%TO.P,J9,11,Pin_11*%
%TO.N,/A-*%
X158284970Y-95780058D03*
%TO.P,J9,12,Pin_12*%
%TO.N,/B+*%
X158284970Y-98780058D03*
%TO.P,J9,13,Pin_13*%
%TO.N,/B-*%
X158284970Y-101780058D03*
%TO.P,J9,14,Pin_14*%
%TO.N,/P_SIG*%
X158284970Y-104780058D03*
%TO.P,J9,15,Pin_15*%
%TO.N,/FS*%
X158284970Y-107780058D03*
%TO.P,J9,16,Pin_16*%
%TO.N,/DATA*%
X158284970Y-110780058D03*
%TO.P,J9,17,Pin_17*%
%TO.N,GNDA*%
X158284970Y-113780058D03*
%TO.P,J9,18,Pin_18*%
%TO.N,GND*%
X158284970Y-116780058D03*
%TD*%
D10*
%TO.P,J2,1,Pin_1*%
%TO.N,/A+*%
X154099570Y-92641658D03*
D11*
%TO.P,J2,2,Pin_2*%
%TO.N,/A-*%
X152099570Y-92641658D03*
%TO.P,J2,3,Pin_3*%
%TO.N,/B+*%
X150099570Y-92641658D03*
%TO.P,J2,4,Pin_4*%
%TO.N,/B-*%
X148099570Y-92641658D03*
%TD*%
D17*
%TO.P,J3,1,Pin_1*%
%TO.N,/HE+*%
X139059970Y-99948658D03*
D16*
%TO.P,J3,2,Pin_2*%
%TO.N,/HE-*%
X139059970Y-96948658D03*
%TD*%
D18*
%TO.P,D1,1,K*%
%TO.N,Net-(D1-Pad1)*%
X150921770Y-102965458D03*
D19*
%TO.P,D1,2,A*%
%TO.N,/P_SIG*%
X153461770Y-102965458D03*
%TD*%
D10*
%TO.P,J1,1,Pin_1*%
%TO.N,+24V*%
X152007370Y-107452458D03*
D11*
%TO.P,J1,2,Pin_2*%
%TO.N,Net-(D1-Pad1)*%
X150007370Y-107452458D03*
%TO.P,J1,3,Pin_3*%
%TO.N,GND*%
X148007370Y-107452458D03*
%TD*%
D14*
%TO.P,M2,1*%
%TO.N,GND*%
X146647970Y-100961658D03*
%TD*%
D10*
%TO.P,J4,1,Pin_1*%
%TO.N,/HET*%
X143022370Y-92641658D03*
D11*
%TO.P,J4,2,Pin_2*%
%TO.N,GNDA*%
X141022370Y-92641658D03*
%TD*%
D12*
%TO.P,J7,1,Pin_1*%
%TO.N,/V_FAN*%
X129247970Y-100974858D03*
D13*
%TO.P,J7,2,Pin_2*%
%TO.N,/PCF*%
X129247970Y-102974858D03*
%TD*%
D20*
%TO.N,GND*%
X146679970Y-97123458D03*
X133319570Y-101746258D03*
X140533170Y-107435858D03*
X138450370Y-101949458D03*
X133522770Y-106724658D03*
X133903770Y-95574058D03*
X143250970Y-97225058D03*
X154503170Y-97072658D03*
X144419370Y-107537458D03*
X139644170Y-112896858D03*
%TO.N,GNDA*%
X127782370Y-113989058D03*
%TO.N,/PCF*%
X132379770Y-95294658D03*
%TD*%
D21*
%TO.N,GNDA*%
X141022370Y-92641658D02*
X139488070Y-92641658D01*
X136088170Y-106943098D02*
X137922050Y-108776978D01*
X139488070Y-92641658D02*
X136088170Y-96041558D01*
X154014641Y-108776978D02*
X158284970Y-113047307D01*
X136088170Y-96041558D02*
X136088170Y-106943098D01*
X132994450Y-108776978D02*
X137922050Y-108776978D01*
X137922050Y-108776978D02*
X154014641Y-108776978D01*
X158284970Y-113047307D02*
X158284970Y-113780058D01*
X127782370Y-113989058D02*
X132994450Y-108776978D01*
D22*
%TO.N,/HE+*%
X157684562Y-106229569D02*
X159835459Y-106229569D01*
X139059970Y-99948658D02*
X143651570Y-104540258D01*
X155995251Y-104540258D02*
X157684562Y-106229569D01*
X159835459Y-106229569D02*
X161284970Y-104780058D01*
X143651570Y-104540258D02*
X155995251Y-104540258D01*
%TO.N,/HE-*%
X140663170Y-95345458D02*
X149800451Y-95345458D01*
X159794770Y-103270258D02*
X161284970Y-101780058D01*
X157725251Y-103270258D02*
X159794770Y-103270258D01*
X139059970Y-96948658D02*
X140663170Y-95345458D01*
X149800451Y-95345458D02*
X157725251Y-103270258D01*
D21*
%TO.N,/HET*%
X144444770Y-105489778D02*
X154298324Y-105489778D01*
X137060449Y-105690337D02*
X137638291Y-106268179D01*
X141268090Y-94395938D02*
X139916324Y-94395938D01*
X137638291Y-106268179D02*
X143666369Y-106268179D01*
X154298324Y-105489778D02*
X158389093Y-109580547D01*
X158389093Y-109580547D02*
X160085459Y-109580547D01*
X137060449Y-97251813D02*
X137060449Y-105690337D01*
X160085459Y-109580547D02*
X161284970Y-110780058D01*
X139916324Y-94395938D02*
X137060449Y-97251813D01*
X143666369Y-106268179D02*
X144444770Y-105489778D01*
X143022370Y-92641658D02*
X141268090Y-94395938D01*
%TO.N,/PCF*%
X161284970Y-116780058D02*
X162484490Y-115580538D01*
X162484490Y-91990308D02*
X160988240Y-90494058D01*
X134411770Y-90494058D02*
X132379770Y-92526058D01*
X132379770Y-92526058D02*
X132379770Y-94989858D01*
X160988240Y-90494058D02*
X134411770Y-90494058D01*
X162484490Y-115580538D02*
X162484490Y-91990308D01*
X132379770Y-94989858D02*
X132379770Y-95294658D01*
%TO.N,/V_FAN*%
X160085459Y-97580547D02*
X161284970Y-98780058D01*
X148000770Y-94395938D02*
X154603506Y-94395938D01*
X127923450Y-106844678D02*
X129247970Y-108169198D01*
X127923450Y-102299378D02*
X127923450Y-106844678D01*
X144921970Y-91317138D02*
X148000770Y-94395938D01*
X129247970Y-100974858D02*
X130165600Y-100974858D01*
X154603506Y-94395938D02*
X157788115Y-97580547D01*
X129247970Y-100974858D02*
X127923450Y-102299378D01*
X157788115Y-97580547D02*
X160085459Y-97580547D01*
X130165600Y-100974858D02*
X139823320Y-91317138D01*
X139823320Y-91317138D02*
X144921970Y-91317138D01*
%TD*%
%TA.AperFunction,Conductor*%
%TO.N,GND*%
G36*
X168911553Y-89229537D02*
G01*
X168936095Y-89232800D01*
X168946860Y-89230428D01*
X168957875Y-89229961D01*
X168957901Y-89230574D01*
X168970121Y-89229480D01*
X169036465Y-89232021D01*
X169118923Y-89235180D01*
X169139071Y-89237589D01*
X169308609Y-89271879D01*
X169328105Y-89277489D01*
X169489947Y-89338561D01*
X169508298Y-89347234D01*
X169658218Y-89433492D01*
X169674940Y-89444999D01*
X169809073Y-89554219D01*
X169823729Y-89568262D01*
X169938575Y-89697594D01*
X169950787Y-89713808D01*
X170043381Y-89859912D01*
X170052830Y-89877876D01*
X170085519Y-89954422D01*
X170117031Y-90028211D01*
X170120760Y-90036944D01*
X170127203Y-90056194D01*
X170168711Y-90224116D01*
X170171978Y-90244150D01*
X170184034Y-90392570D01*
X170183466Y-90404817D01*
X170184079Y-90404817D01*
X170184084Y-90415838D01*
X170182174Y-90426697D01*
X170184093Y-90437553D01*
X170184886Y-90442038D01*
X170186810Y-90463971D01*
X170186810Y-119088692D01*
X170184897Y-119110562D01*
X170182174Y-119126012D01*
X170184089Y-119136869D01*
X170184090Y-119147894D01*
X170183534Y-119147894D01*
X170184124Y-119160173D01*
X170172833Y-119303769D01*
X170169741Y-119323300D01*
X170130439Y-119487039D01*
X170124330Y-119505845D01*
X170059893Y-119661427D01*
X170050916Y-119679045D01*
X169962938Y-119822620D01*
X169951320Y-119838613D01*
X169841954Y-119966668D01*
X169827978Y-119980643D01*
X169699929Y-120090007D01*
X169683933Y-120101629D01*
X169540354Y-120189612D01*
X169522739Y-120198587D01*
X169460305Y-120224446D01*
X169367164Y-120263023D01*
X169348359Y-120269133D01*
X169297572Y-120281324D01*
X169184611Y-120308439D01*
X169165088Y-120311529D01*
X169050240Y-120320562D01*
X169021566Y-120322817D01*
X169009208Y-120322223D01*
X169009208Y-120322769D01*
X168998183Y-120322769D01*
X168987328Y-120320854D01*
X168971879Y-120323577D01*
X168950008Y-120325490D01*
X156832908Y-120325490D01*
X156811038Y-120323577D01*
X156810820Y-120323539D01*
X156795588Y-120320854D01*
X156784731Y-120322769D01*
X156773706Y-120322770D01*
X156773706Y-120322214D01*
X156761426Y-120322804D01*
X156617831Y-120311512D01*
X156598301Y-120308420D01*
X156434567Y-120269119D01*
X156415762Y-120263010D01*
X156260181Y-120198574D01*
X156242572Y-120189603D01*
X156098976Y-120101613D01*
X156082996Y-120090002D01*
X155954950Y-119980643D01*
X155940968Y-119966662D01*
X155831606Y-119838613D01*
X155819985Y-119822617D01*
X155732002Y-119679038D01*
X155723025Y-119661418D01*
X155658594Y-119505853D01*
X155652484Y-119487048D01*
X155652482Y-119487039D01*
X155613180Y-119323300D01*
X155610089Y-119303777D01*
X155610089Y-119303769D01*
X155598793Y-119160141D01*
X155599382Y-119147902D01*
X155598820Y-119147902D01*
X155598821Y-119136876D01*
X155600736Y-119126020D01*
X155598013Y-119110570D01*
X155596100Y-119088699D01*
X155596100Y-117857011D01*
X157637626Y-117857011D01*
X157646922Y-117869026D01*
X157649059Y-117870522D01*
X157658554Y-117876005D01*
X157848083Y-117964384D01*
X157858375Y-117968130D01*
X158060371Y-118022254D01*
X158071166Y-118024157D01*
X158279495Y-118042384D01*
X158290445Y-118042384D01*
X158498774Y-118024157D01*
X158509569Y-118022254D01*
X158711565Y-117968130D01*
X158721857Y-117964384D01*
X158911386Y-117876005D01*
X158920881Y-117870522D01*
X158923856Y-117868439D01*
X158932231Y-117857962D01*
X158925163Y-117844515D01*
X158297782Y-117217134D01*
X158283838Y-117209520D01*
X158282005Y-117209651D01*
X158275390Y-117213902D01*
X157644056Y-117845236D01*
X157637626Y-117857011D01*
X155596100Y-117857011D01*
X155596100Y-116785533D01*
X157022644Y-116785533D01*
X157040871Y-116993862D01*
X157042774Y-117004657D01*
X157096898Y-117206653D01*
X157100644Y-117216945D01*
X157189025Y-117406476D01*
X157194505Y-117415967D01*
X157196589Y-117418944D01*
X157207066Y-117427319D01*
X157220513Y-117420251D01*
X157847894Y-116792870D01*
X157854272Y-116781190D01*
X158714432Y-116781190D01*
X158714563Y-116783023D01*
X158718814Y-116789638D01*
X159350148Y-117420972D01*
X159361922Y-117427402D01*
X159373938Y-117418105D01*
X159375435Y-117415967D01*
X159380915Y-117406476D01*
X159469296Y-117216945D01*
X159473042Y-117206653D01*
X159527166Y-117004657D01*
X159529069Y-116993862D01*
X159547296Y-116785533D01*
X159547296Y-116774583D01*
X159529069Y-116566254D01*
X159527166Y-116555459D01*
X159473042Y-116353463D01*
X159469296Y-116343171D01*
X159380915Y-116153640D01*
X159375435Y-116144149D01*
X159373351Y-116141172D01*
X159362874Y-116132797D01*
X159349427Y-116139865D01*
X158722046Y-116767246D01*
X158714432Y-116781190D01*
X157854272Y-116781190D01*
X157855508Y-116778926D01*
X157855377Y-116777093D01*
X157851126Y-116770478D01*
X157219792Y-116139144D01*
X157208018Y-116132714D01*
X157196002Y-116142011D01*
X157194505Y-116144149D01*
X157189025Y-116153640D01*
X157100644Y-116343171D01*
X157096898Y-116353463D01*
X157042774Y-116555459D01*
X157040871Y-116566254D01*
X157022644Y-116774583D01*
X157022644Y-116785533D01*
X155596100Y-116785533D01*
X155596100Y-115702154D01*
X157637709Y-115702154D01*
X157644777Y-115715601D01*
X158272158Y-116342982D01*
X158286102Y-116350596D01*
X158287935Y-116350465D01*
X158294550Y-116346214D01*
X158925884Y-115714880D01*
X158932314Y-115703105D01*
X158923018Y-115691090D01*
X158920881Y-115689594D01*
X158911386Y-115684111D01*
X158721857Y-115595732D01*
X158711565Y-115591986D01*
X158509569Y-115537862D01*
X158498774Y-115535959D01*
X158290445Y-115517732D01*
X158279495Y-115517732D01*
X158071166Y-115535959D01*
X158060371Y-115537862D01*
X157858375Y-115591986D01*
X157848083Y-115595732D01*
X157658552Y-115684113D01*
X157649061Y-115689593D01*
X157646084Y-115691677D01*
X157637709Y-115702154D01*
X155596100Y-115702154D01*
X155596100Y-111441152D01*
X155616102Y-111373031D01*
X155669758Y-111326538D01*
X155740032Y-111316434D01*
X155804612Y-111345928D01*
X155811195Y-111352057D01*
X157436760Y-112977621D01*
X157470785Y-113039933D01*
X157465721Y-113110748D01*
X157444187Y-113147706D01*
X157413994Y-113183688D01*
X157411031Y-113189077D01*
X157411028Y-113189082D01*
X157335814Y-113325897D01*
X157314746Y-113364220D01*
X157252454Y-113560590D01*
X157251768Y-113566707D01*
X157251767Y-113566711D01*
X157234161Y-113723673D01*
X157229490Y-113765320D01*
X157230006Y-113771464D01*
X157246148Y-113963687D01*
X157246729Y-113970611D01*
X157248428Y-113976536D01*
X157301357Y-114161120D01*
X157303514Y-114168644D01*
X157306329Y-114174121D01*
X157306330Y-114174124D01*
X157379099Y-114315718D01*
X157397682Y-114351876D01*
X157525647Y-114513328D01*
X157530340Y-114517322D01*
X157530341Y-114517323D01*
X157634712Y-114606149D01*
X157682534Y-114646849D01*
X157687912Y-114649855D01*
X157687914Y-114649856D01*
X157756476Y-114688174D01*
X157862368Y-114747355D01*
X157957208Y-114778171D01*
X158052441Y-114809114D01*
X158052445Y-114809115D01*
X158058299Y-114811017D01*
X158262864Y-114835409D01*
X158268999Y-114834937D01*
X158269001Y-114834937D01*
X158325009Y-114830627D01*
X158468270Y-114819604D01*
X158474200Y-114817948D01*
X158474202Y-114817948D01*
X158660767Y-114765858D01*
X158660766Y-114765858D01*
X158666695Y-114764203D01*
X158672184Y-114761430D01*
X158672190Y-114761428D01*
X158811935Y-114690837D01*
X158850580Y-114671316D01*
X158874042Y-114652986D01*
X158971549Y-114576805D01*
X159012921Y-114544482D01*
X159021530Y-114534509D01*
X159143510Y-114393192D01*
X159143510Y-114393191D01*
X159147534Y-114388530D01*
X159168357Y-114351876D01*
X159196531Y-114302280D01*
X159249293Y-114209402D01*
X159314321Y-114013921D01*
X159340141Y-113809532D01*
X159340553Y-113780058D01*
X159320450Y-113575028D01*
X159260905Y-113377807D01*
X159164188Y-113195907D01*
X159052743Y-113059262D01*
X159037876Y-113041033D01*
X159037873Y-113041030D01*
X159033981Y-113036258D01*
X159029232Y-113032329D01*
X158879994Y-112908868D01*
X158879989Y-112908865D01*
X158875245Y-112904940D01*
X158869826Y-112902010D01*
X158869823Y-112902008D01*
X158850523Y-112891573D01*
X158800037Y-112841439D01*
X158782776Y-112810042D01*
X158777553Y-112799380D01*
X158763686Y-112767334D01*
X158763685Y-112767333D01*
X158760275Y-112759452D01*
X158750812Y-112747766D01*
X158738321Y-112729178D01*
X158731076Y-112715999D01*
X158724073Y-112707885D01*
X158699537Y-112683349D01*
X158690712Y-112673548D01*
X158670764Y-112648915D01*
X158670763Y-112648914D01*
X158665356Y-112642237D01*
X158658358Y-112637264D01*
X158658353Y-112637259D01*
X158650022Y-112631339D01*
X158633916Y-112617728D01*
X158053209Y-112037021D01*
X158019183Y-111974709D01*
X158024248Y-111903894D01*
X158066795Y-111847058D01*
X158133315Y-111822247D01*
X158157217Y-111822812D01*
X158262864Y-111835409D01*
X158268999Y-111834937D01*
X158269001Y-111834937D01*
X158325009Y-111830627D01*
X158468270Y-111819604D01*
X158474200Y-111817948D01*
X158474202Y-111817948D01*
X158660767Y-111765858D01*
X158660766Y-111765858D01*
X158666695Y-111764203D01*
X158672184Y-111761430D01*
X158672190Y-111761428D01*
X158845086Y-111674091D01*
X158850580Y-111671316D01*
X159012921Y-111544482D01*
X159147534Y-111388530D01*
X159168357Y-111351876D01*
X159215307Y-111269228D01*
X159249293Y-111209402D01*
X159314321Y-111013921D01*
X159340141Y-110809532D01*
X159340553Y-110780058D01*
X159320450Y-110575028D01*
X159260905Y-110377807D01*
X159258014Y-110372370D01*
X159258010Y-110372360D01*
X159228149Y-110316200D01*
X159213829Y-110246663D01*
X159239377Y-110180422D01*
X159296681Y-110138510D01*
X159339400Y-110131047D01*
X159805244Y-110131047D01*
X159873365Y-110151049D01*
X159894339Y-110167952D01*
X160213057Y-110486670D01*
X160247083Y-110548982D01*
X160249177Y-110589807D01*
X160231017Y-110751706D01*
X160230241Y-110758629D01*
X160229490Y-110765320D01*
X160230006Y-110771463D01*
X160230006Y-110771464D01*
X160245192Y-110952304D01*
X160246729Y-110970611D01*
X160248428Y-110976536D01*
X160298858Y-111152405D01*
X160303514Y-111168644D01*
X160306329Y-111174121D01*
X160306330Y-111174124D01*
X160379467Y-111316434D01*
X160397682Y-111351876D01*
X160525647Y-111513328D01*
X160530340Y-111517322D01*
X160530341Y-111517323D01*
X160634712Y-111606149D01*
X160682534Y-111646849D01*
X160862368Y-111747355D01*
X160957208Y-111778170D01*
X161052441Y-111809114D01*
X161052445Y-111809115D01*
X161058299Y-111811017D01*
X161262864Y-111835409D01*
X161268999Y-111834937D01*
X161269001Y-111834937D01*
X161325009Y-111830627D01*
X161468270Y-111819604D01*
X161474200Y-111817948D01*
X161474202Y-111817948D01*
X161660767Y-111765858D01*
X161660766Y-111765858D01*
X161666695Y-111764203D01*
X161672184Y-111761430D01*
X161672190Y-111761428D01*
X161751179Y-111721527D01*
X161821001Y-111708667D01*
X161886692Y-111735596D01*
X161927396Y-111793766D01*
X161933990Y-111833993D01*
X161933990Y-112725336D01*
X161913988Y-112793457D01*
X161860332Y-112839950D01*
X161790058Y-112850054D01*
X161748062Y-112836172D01*
X161699448Y-112809887D01*
X161699446Y-112809886D01*
X161694025Y-112806955D01*
X161497224Y-112746035D01*
X161491099Y-112745391D01*
X161491098Y-112745391D01*
X161298468Y-112725145D01*
X161298466Y-112725145D01*
X161292339Y-112724501D01*
X161205499Y-112732404D01*
X161093312Y-112742613D01*
X161093309Y-112742614D01*
X161087173Y-112743172D01*
X160889542Y-112801338D01*
X160884077Y-112804195D01*
X160815830Y-112839874D01*
X160706972Y-112896784D01*
X160702171Y-112900644D01*
X160702168Y-112900646D01*
X160562563Y-113012891D01*
X160546417Y-113025873D01*
X160413994Y-113183688D01*
X160411029Y-113189082D01*
X160411023Y-113189091D01*
X160335814Y-113325897D01*
X160314746Y-113364220D01*
X160252454Y-113560590D01*
X160251768Y-113566707D01*
X160251767Y-113566711D01*
X160234161Y-113723673D01*
X160229490Y-113765320D01*
X160230006Y-113771464D01*
X160246148Y-113963687D01*
X160246729Y-113970611D01*
X160248428Y-113976536D01*
X160301357Y-114161120D01*
X160303514Y-114168644D01*
X160306329Y-114174121D01*
X160306330Y-114174124D01*
X160379099Y-114315718D01*
X160397682Y-114351876D01*
X160525647Y-114513328D01*
X160530340Y-114517322D01*
X160530341Y-114517323D01*
X160634712Y-114606149D01*
X160682534Y-114646849D01*
X160687912Y-114649855D01*
X160687914Y-114649856D01*
X160756476Y-114688174D01*
X160862368Y-114747355D01*
X160957208Y-114778171D01*
X161052441Y-114809114D01*
X161052445Y-114809115D01*
X161058299Y-114811017D01*
X161262864Y-114835409D01*
X161268999Y-114834937D01*
X161269001Y-114834937D01*
X161325009Y-114830627D01*
X161468270Y-114819604D01*
X161474200Y-114817948D01*
X161474202Y-114817948D01*
X161660767Y-114765858D01*
X161660766Y-114765858D01*
X161666695Y-114764203D01*
X161672184Y-114761430D01*
X161672190Y-114761428D01*
X161751179Y-114721527D01*
X161821001Y-114708667D01*
X161886692Y-114735596D01*
X161927396Y-114793766D01*
X161933990Y-114833993D01*
X161933990Y-115300324D01*
X161913988Y-115368445D01*
X161897085Y-115389419D01*
X161578853Y-115707651D01*
X161516541Y-115741677D01*
X161476588Y-115743866D01*
X161298468Y-115725145D01*
X161298466Y-115725145D01*
X161292339Y-115724501D01*
X161205499Y-115732404D01*
X161093312Y-115742613D01*
X161093309Y-115742614D01*
X161087173Y-115743172D01*
X160889542Y-115801338D01*
X160706972Y-115896784D01*
X160702171Y-115900644D01*
X160702168Y-115900646D01*
X160605290Y-115978538D01*
X160546417Y-116025873D01*
X160413994Y-116183688D01*
X160411026Y-116189086D01*
X160411023Y-116189091D01*
X160343702Y-116311549D01*
X160314746Y-116364220D01*
X160252454Y-116560590D01*
X160251768Y-116566707D01*
X160251767Y-116566711D01*
X160249490Y-116587014D01*
X160229490Y-116765320D01*
X160232907Y-116806007D01*
X160237904Y-116865513D01*
X160246729Y-116970611D01*
X160303514Y-117168644D01*
X160306329Y-117174121D01*
X160306330Y-117174124D01*
X160394867Y-117346399D01*
X160397682Y-117351876D01*
X160525647Y-117513328D01*
X160530340Y-117517322D01*
X160530341Y-117517323D01*
X160567589Y-117549023D01*
X160682534Y-117646849D01*
X160862368Y-117747355D01*
X160957208Y-117778170D01*
X161052441Y-117809114D01*
X161052445Y-117809115D01*
X161058299Y-117811017D01*
X161262864Y-117835409D01*
X161268999Y-117834937D01*
X161269001Y-117834937D01*
X161325009Y-117830627D01*
X161468270Y-117819604D01*
X161474200Y-117817948D01*
X161474202Y-117817948D01*
X161660767Y-117765858D01*
X161660766Y-117765858D01*
X161666695Y-117764203D01*
X161672184Y-117761430D01*
X161672190Y-117761428D01*
X161845086Y-117674091D01*
X161850580Y-117671316D01*
X162012921Y-117544482D01*
X162120154Y-117420251D01*
X162143510Y-117393192D01*
X162143510Y-117393191D01*
X162147534Y-117388530D01*
X162168357Y-117351876D01*
X162232852Y-117238343D01*
X162249293Y-117209402D01*
X162314321Y-117013921D01*
X162340141Y-116809532D01*
X162340419Y-116789638D01*
X162340504Y-116783580D01*
X162340504Y-116783576D01*
X162340553Y-116780058D01*
X162321625Y-116587013D01*
X162334885Y-116517267D01*
X162357929Y-116485624D01*
X162863145Y-115980408D01*
X162866954Y-115976755D01*
X162876642Y-115967846D01*
X162912646Y-115934739D01*
X162935585Y-115897741D01*
X162942287Y-115887990D01*
X162968602Y-115853322D01*
X162974136Y-115839345D01*
X162984199Y-115819336D01*
X162987601Y-115813850D01*
X162987603Y-115813846D01*
X162992125Y-115806552D01*
X162994519Y-115798310D01*
X162994521Y-115798307D01*
X163004269Y-115764754D01*
X163008108Y-115753541D01*
X163024125Y-115713085D01*
X163025696Y-115698136D01*
X163030009Y-115676153D01*
X163032363Y-115668052D01*
X163034205Y-115661713D01*
X163034990Y-115651023D01*
X163034990Y-115616319D01*
X163035680Y-115603148D01*
X163038993Y-115571626D01*
X163039891Y-115563084D01*
X163038459Y-115554619D01*
X163038459Y-115554610D01*
X163036755Y-115544538D01*
X163034990Y-115523525D01*
X163034990Y-114750284D01*
X163802789Y-114750284D01*
X163838877Y-115015453D01*
X163913762Y-115272375D01*
X164025801Y-115515406D01*
X164057060Y-115563084D01*
X164169966Y-115735294D01*
X164169970Y-115735299D01*
X164172532Y-115739207D01*
X164214406Y-115786123D01*
X164297398Y-115879107D01*
X164350730Y-115938861D01*
X164556482Y-116109983D01*
X164560475Y-116112406D01*
X164781276Y-116246392D01*
X164781280Y-116246394D01*
X164785268Y-116248814D01*
X164789576Y-116250621D01*
X164789577Y-116250621D01*
X165027746Y-116350494D01*
X165027751Y-116350496D01*
X165032061Y-116352303D01*
X165036593Y-116353454D01*
X165036596Y-116353455D01*
X165286903Y-116417025D01*
X165286906Y-116417026D01*
X165291440Y-116418177D01*
X165296096Y-116418646D01*
X165296097Y-116418646D01*
X165510572Y-116440242D01*
X165510573Y-116440242D01*
X165513711Y-116440558D01*
X165672914Y-116440558D01*
X165675237Y-116440385D01*
X165675247Y-116440385D01*
X165867182Y-116426122D01*
X165867186Y-116426121D01*
X165871847Y-116425775D01*
X165876411Y-116424742D01*
X165876413Y-116424742D01*
X166015735Y-116393216D01*
X166132861Y-116366713D01*
X166139272Y-116364220D01*
X166377926Y-116271413D01*
X166377928Y-116271412D01*
X166382279Y-116269720D01*
X166423095Y-116246392D01*
X166523350Y-116189091D01*
X166614620Y-116136926D01*
X166824781Y-115971248D01*
X167008145Y-115776327D01*
X167160684Y-115556443D01*
X167171699Y-115534107D01*
X167276981Y-115320617D01*
X167276982Y-115320614D01*
X167279046Y-115316429D01*
X167360632Y-115061555D01*
X167399959Y-114820076D01*
X167402897Y-114802034D01*
X167402897Y-114802033D01*
X167403648Y-114797422D01*
X167406152Y-114606149D01*
X167407090Y-114534509D01*
X167407090Y-114534506D01*
X167407151Y-114529832D01*
X167371063Y-114264663D01*
X167296178Y-114007741D01*
X167184139Y-113764710D01*
X167108530Y-113649388D01*
X167039974Y-113544822D01*
X167039970Y-113544817D01*
X167037408Y-113540909D01*
X166948309Y-113441082D01*
X166862327Y-113344747D01*
X166862325Y-113344745D01*
X166859210Y-113341255D01*
X166653458Y-113170133D01*
X166641063Y-113162611D01*
X166428664Y-113033724D01*
X166428660Y-113033722D01*
X166424672Y-113031302D01*
X166420363Y-113029495D01*
X166182194Y-112929622D01*
X166182189Y-112929620D01*
X166177879Y-112927813D01*
X166173347Y-112926662D01*
X166173344Y-112926661D01*
X165923037Y-112863091D01*
X165923034Y-112863090D01*
X165918500Y-112861939D01*
X165913844Y-112861470D01*
X165913843Y-112861470D01*
X165699368Y-112839874D01*
X165699367Y-112839874D01*
X165696229Y-112839558D01*
X165537026Y-112839558D01*
X165534703Y-112839731D01*
X165534693Y-112839731D01*
X165342758Y-112853994D01*
X165342754Y-112853995D01*
X165338093Y-112854341D01*
X165333529Y-112855374D01*
X165333527Y-112855374D01*
X165194205Y-112886900D01*
X165077079Y-112913403D01*
X165072727Y-112915095D01*
X165072725Y-112915096D01*
X164832014Y-113008703D01*
X164832012Y-113008704D01*
X164827661Y-113010396D01*
X164823607Y-113012713D01*
X164823605Y-113012714D01*
X164782412Y-113036258D01*
X164595320Y-113143190D01*
X164385159Y-113308868D01*
X164201795Y-113503789D01*
X164049256Y-113723673D01*
X164047190Y-113727862D01*
X164047189Y-113727864D01*
X164044421Y-113733478D01*
X163930894Y-113963687D01*
X163929472Y-113968130D01*
X163929471Y-113968132D01*
X163903664Y-114048754D01*
X163849308Y-114218561D01*
X163806292Y-114482694D01*
X163806231Y-114487371D01*
X163802867Y-114744348D01*
X163802789Y-114750284D01*
X163034990Y-114750284D01*
X163034990Y-95050284D01*
X163802789Y-95050284D01*
X163838877Y-95315453D01*
X163913762Y-95572375D01*
X164025801Y-95815406D01*
X164058042Y-95864582D01*
X164169966Y-96035294D01*
X164169970Y-96035299D01*
X164172532Y-96039207D01*
X164239442Y-96114173D01*
X164282772Y-96162720D01*
X164350730Y-96238861D01*
X164486616Y-96351876D01*
X164530688Y-96388530D01*
X164556482Y-96409983D01*
X164560475Y-96412406D01*
X164781276Y-96546392D01*
X164781280Y-96546394D01*
X164785268Y-96548814D01*
X164789576Y-96550621D01*
X164789577Y-96550621D01*
X165027746Y-96650494D01*
X165027751Y-96650496D01*
X165032061Y-96652303D01*
X165036593Y-96653454D01*
X165036596Y-96653455D01*
X165286903Y-96717025D01*
X165286906Y-96717026D01*
X165291440Y-96718177D01*
X165296096Y-96718646D01*
X165296097Y-96718646D01*
X165510572Y-96740242D01*
X165510573Y-96740242D01*
X165513711Y-96740558D01*
X165672914Y-96740558D01*
X165675237Y-96740385D01*
X165675247Y-96740385D01*
X165867182Y-96726122D01*
X165867186Y-96726121D01*
X165871847Y-96725775D01*
X165876411Y-96724742D01*
X165876413Y-96724742D01*
X166049822Y-96685503D01*
X166132861Y-96666713D01*
X166166954Y-96653455D01*
X166377926Y-96571413D01*
X166377928Y-96571412D01*
X166382279Y-96569720D01*
X166423095Y-96546392D01*
X166489397Y-96508497D01*
X166614620Y-96436926D01*
X166824781Y-96271248D01*
X167008145Y-96076327D01*
X167160684Y-95856443D01*
X167183818Y-95809532D01*
X167276981Y-95620617D01*
X167276982Y-95620614D01*
X167279046Y-95616429D01*
X167290336Y-95581161D01*
X167359209Y-95366000D01*
X167360632Y-95361555D01*
X167393207Y-95161533D01*
X167402897Y-95102034D01*
X167402897Y-95102033D01*
X167403648Y-95097422D01*
X167407151Y-94829832D01*
X167371063Y-94564663D01*
X167296178Y-94307741D01*
X167184139Y-94064710D01*
X167117625Y-93963259D01*
X167039974Y-93844822D01*
X167039970Y-93844817D01*
X167037408Y-93840909D01*
X166901078Y-93688164D01*
X166862327Y-93644747D01*
X166862325Y-93644745D01*
X166859210Y-93641255D01*
X166653458Y-93470133D01*
X166609057Y-93443190D01*
X166428664Y-93333724D01*
X166428660Y-93333722D01*
X166424672Y-93331302D01*
X166374817Y-93310396D01*
X166182194Y-93229622D01*
X166182189Y-93229620D01*
X166177879Y-93227813D01*
X166173347Y-93226662D01*
X166173344Y-93226661D01*
X165923037Y-93163091D01*
X165923034Y-93163090D01*
X165918500Y-93161939D01*
X165913844Y-93161470D01*
X165913843Y-93161470D01*
X165699368Y-93139874D01*
X165699367Y-93139874D01*
X165696229Y-93139558D01*
X165537026Y-93139558D01*
X165534703Y-93139731D01*
X165534693Y-93139731D01*
X165342758Y-93153994D01*
X165342754Y-93153995D01*
X165338093Y-93154341D01*
X165333529Y-93155374D01*
X165333527Y-93155374D01*
X165199189Y-93185772D01*
X165077079Y-93213403D01*
X165072727Y-93215095D01*
X165072725Y-93215096D01*
X164832014Y-93308703D01*
X164832012Y-93308704D01*
X164827661Y-93310396D01*
X164823607Y-93312713D01*
X164823605Y-93312714D01*
X164770042Y-93343328D01*
X164595320Y-93443190D01*
X164385159Y-93608868D01*
X164201795Y-93803789D01*
X164049256Y-94023673D01*
X164047190Y-94027862D01*
X164047189Y-94027864D01*
X164020542Y-94081900D01*
X163930894Y-94263687D01*
X163849308Y-94518561D01*
X163806292Y-94782694D01*
X163805295Y-94858836D01*
X163802973Y-95036258D01*
X163802789Y-95050284D01*
X163034990Y-95050284D01*
X163034990Y-92005301D01*
X163035101Y-92000025D01*
X163036038Y-91977675D01*
X163037700Y-91938014D01*
X163030864Y-91908869D01*
X163027763Y-91895646D01*
X163025600Y-91883975D01*
X163020862Y-91849389D01*
X163019696Y-91840876D01*
X163013725Y-91827078D01*
X163006691Y-91805809D01*
X163005219Y-91799533D01*
X163003258Y-91791172D01*
X162999121Y-91783647D01*
X162999120Y-91783644D01*
X162982295Y-91753040D01*
X162977079Y-91742395D01*
X162959795Y-91702453D01*
X162950332Y-91690767D01*
X162937844Y-91672182D01*
X162933780Y-91664790D01*
X162930597Y-91659000D01*
X162923593Y-91650886D01*
X162899057Y-91626350D01*
X162890232Y-91616549D01*
X162870284Y-91591916D01*
X162870283Y-91591915D01*
X162864876Y-91585238D01*
X162857878Y-91580265D01*
X162857873Y-91580260D01*
X162849542Y-91574340D01*
X162833436Y-91560729D01*
X161388122Y-90115416D01*
X161384469Y-90111607D01*
X161348255Y-90072225D01*
X161342441Y-90065902D01*
X161305438Y-90042959D01*
X161295688Y-90036258D01*
X161261023Y-90009946D01*
X161247044Y-90004412D01*
X161227041Y-89994351D01*
X161214254Y-89986423D01*
X161206003Y-89984026D01*
X161206001Y-89984025D01*
X161172468Y-89974283D01*
X161161235Y-89970437D01*
X161140593Y-89962264D01*
X161120787Y-89954422D01*
X161112246Y-89953524D01*
X161112245Y-89953524D01*
X161105832Y-89952850D01*
X161083857Y-89948538D01*
X161069415Y-89944343D01*
X161061932Y-89943794D01*
X161061032Y-89943727D01*
X161061021Y-89943727D01*
X161058725Y-89943558D01*
X161024023Y-89943558D01*
X161010853Y-89942868D01*
X161000624Y-89941793D01*
X160970786Y-89938657D01*
X160962321Y-89940089D01*
X160962312Y-89940089D01*
X160952240Y-89941793D01*
X160931227Y-89943558D01*
X134426763Y-89943558D01*
X134421487Y-89943447D01*
X134417080Y-89943262D01*
X134359476Y-89940848D01*
X134351111Y-89942810D01*
X134317108Y-89950785D01*
X134305437Y-89952948D01*
X134294677Y-89954422D01*
X134262338Y-89958852D01*
X134254454Y-89962264D01*
X134254453Y-89962264D01*
X134248540Y-89964823D01*
X134227271Y-89971857D01*
X134212634Y-89975290D01*
X134205109Y-89979427D01*
X134205106Y-89979428D01*
X134174502Y-89996253D01*
X134163857Y-90001469D01*
X134123915Y-90018753D01*
X134112229Y-90028216D01*
X134093645Y-90040703D01*
X134080462Y-90047951D01*
X134072348Y-90054955D01*
X134047812Y-90079491D01*
X134038011Y-90088316D01*
X134013378Y-90108264D01*
X134006700Y-90113672D01*
X134001727Y-90120670D01*
X134001722Y-90120675D01*
X133995802Y-90129006D01*
X133982191Y-90145112D01*
X132001128Y-92126176D01*
X131997319Y-92129829D01*
X131951614Y-92171857D01*
X131928671Y-92208860D01*
X131921970Y-92218610D01*
X131895658Y-92253275D01*
X131890124Y-92267253D01*
X131880063Y-92287257D01*
X131872135Y-92300044D01*
X131869738Y-92308295D01*
X131869737Y-92308297D01*
X131859995Y-92341830D01*
X131856156Y-92353044D01*
X131840134Y-92393511D01*
X131839236Y-92402052D01*
X131839236Y-92402053D01*
X131838562Y-92408466D01*
X131834250Y-92430441D01*
X131830055Y-92444883D01*
X131829270Y-92455573D01*
X131829270Y-92490275D01*
X131828580Y-92503445D01*
X131824369Y-92543512D01*
X131825801Y-92551977D01*
X131825801Y-92551986D01*
X131827505Y-92562058D01*
X131829270Y-92583071D01*
X131829270Y-94819783D01*
X131806357Y-94892233D01*
X131803159Y-94896784D01*
X131757883Y-94961205D01*
X131755124Y-94968280D01*
X131755123Y-94968283D01*
X131699054Y-95112092D01*
X131696294Y-95119171D01*
X131695302Y-95126704D01*
X131695302Y-95126705D01*
X131680870Y-95236334D01*
X131674164Y-95287269D01*
X131692769Y-95455793D01*
X131700637Y-95477292D01*
X131731120Y-95560590D01*
X131751036Y-95615014D01*
X131755272Y-95621317D01*
X131755272Y-95621318D01*
X131768344Y-95640771D01*
X131845600Y-95755741D01*
X131851212Y-95760848D01*
X131851215Y-95760851D01*
X131965382Y-95864735D01*
X131965386Y-95864738D01*
X131971003Y-95869849D01*
X131977676Y-95873472D01*
X131977680Y-95873475D01*
X132113328Y-95947125D01*
X132113330Y-95947126D01*
X132120005Y-95950750D01*
X132127354Y-95952678D01*
X132276653Y-95991846D01*
X132276655Y-95991846D01*
X132284003Y-95993774D01*
X132370379Y-95995131D01*
X132445931Y-95996318D01*
X132445934Y-95996318D01*
X132453530Y-95996437D01*
X132460935Y-95994741D01*
X132460936Y-95994741D01*
X132566294Y-95970611D01*
X132618799Y-95958586D01*
X132770268Y-95882405D01*
X132899193Y-95772292D01*
X132998131Y-95634605D01*
X133007225Y-95611984D01*
X133058536Y-95484345D01*
X133058537Y-95484343D01*
X133061371Y-95477292D01*
X133076304Y-95372368D01*
X133084679Y-95313520D01*
X133084679Y-95313517D01*
X133085260Y-95309436D01*
X133085415Y-95294658D01*
X133083610Y-95279738D01*
X133080774Y-95256311D01*
X133065046Y-95126338D01*
X133036308Y-95050284D01*
X133007799Y-94974837D01*
X133007798Y-94974834D01*
X133005115Y-94967735D01*
X133000817Y-94961481D01*
X133000813Y-94961474D01*
X132952431Y-94891079D01*
X132930270Y-94819711D01*
X132930270Y-93665336D01*
X132950272Y-93597215D01*
X133003928Y-93550722D01*
X133074202Y-93540618D01*
X133138782Y-93570112D01*
X133155356Y-93587503D01*
X133227632Y-93679514D01*
X133235869Y-93688164D01*
X133386493Y-93818870D01*
X133396217Y-93825805D01*
X133568837Y-93925668D01*
X133579701Y-93930642D01*
X133720258Y-93979452D01*
X133734342Y-93980137D01*
X133737370Y-93974278D01*
X133737370Y-92467658D01*
X133757372Y-92399537D01*
X133811028Y-92353044D01*
X133863370Y-92341658D01*
X134211370Y-92341658D01*
X134279491Y-92361660D01*
X134325984Y-92415316D01*
X134337370Y-92467658D01*
X134337370Y-93965974D01*
X134341343Y-93979505D01*
X134350769Y-93980860D01*
X134393911Y-93970463D01*
X134405196Y-93966577D01*
X134586752Y-93884029D01*
X134597094Y-93878082D01*
X134759767Y-93762690D01*
X134768795Y-93754897D01*
X134906712Y-93610827D01*
X134914114Y-93601455D01*
X134975725Y-93506037D01*
X135029480Y-93459659D01*
X135099775Y-93449706D01*
X135164293Y-93479338D01*
X135195878Y-93523973D01*
X135195879Y-93523972D01*
X135195887Y-93523986D01*
X135198727Y-93528000D01*
X135203257Y-93539441D01*
X135294448Y-93659580D01*
X135414587Y-93750771D01*
X135448513Y-93764203D01*
X135547293Y-93803313D01*
X135547295Y-93803314D01*
X135554823Y-93806294D01*
X135644598Y-93817158D01*
X136240586Y-93817158D01*
X136308707Y-93837160D01*
X136355200Y-93890816D01*
X136365304Y-93961090D01*
X136335810Y-94025670D01*
X136329681Y-94032253D01*
X130258318Y-100103616D01*
X130196006Y-100137642D01*
X130122840Y-100131673D01*
X130013047Y-100088203D01*
X130013045Y-100088202D01*
X130005517Y-100085222D01*
X129915742Y-100074358D01*
X128580198Y-100074358D01*
X128490423Y-100085222D01*
X128482895Y-100088202D01*
X128482893Y-100088203D01*
X128413802Y-100115558D01*
X128350187Y-100140745D01*
X128230048Y-100231936D01*
X128138857Y-100352075D01*
X128083334Y-100492311D01*
X128072470Y-100582086D01*
X128072470Y-101319644D01*
X128052468Y-101387765D01*
X128035565Y-101408739D01*
X127544808Y-101899496D01*
X127540999Y-101903149D01*
X127495294Y-101945177D01*
X127472351Y-101982180D01*
X127465650Y-101991930D01*
X127439338Y-102026595D01*
X127433804Y-102040573D01*
X127423743Y-102060577D01*
X127415815Y-102073364D01*
X127413418Y-102081615D01*
X127413417Y-102081617D01*
X127403675Y-102115150D01*
X127399830Y-102126380D01*
X127383814Y-102166831D01*
X127382916Y-102175372D01*
X127382916Y-102175373D01*
X127382242Y-102181786D01*
X127377930Y-102203761D01*
X127373735Y-102218203D01*
X127373252Y-102224786D01*
X127373131Y-102226433D01*
X127372950Y-102228893D01*
X127372950Y-102263595D01*
X127372260Y-102276765D01*
X127368049Y-102316832D01*
X127369481Y-102325297D01*
X127369481Y-102325306D01*
X127371185Y-102335378D01*
X127372950Y-102356391D01*
X127372950Y-106829685D01*
X127372839Y-106834961D01*
X127370240Y-106896972D01*
X127372202Y-106905337D01*
X127380177Y-106939340D01*
X127382340Y-106951011D01*
X127382686Y-106953538D01*
X127388244Y-106994110D01*
X127391656Y-107001994D01*
X127391656Y-107001995D01*
X127394215Y-107007908D01*
X127401249Y-107029177D01*
X127404682Y-107043814D01*
X127408819Y-107051339D01*
X127408820Y-107051342D01*
X127425645Y-107081946D01*
X127430861Y-107092591D01*
X127448145Y-107132533D01*
X127457608Y-107144219D01*
X127470095Y-107162803D01*
X127477343Y-107175986D01*
X127484347Y-107184100D01*
X127508883Y-107208636D01*
X127517708Y-107218437D01*
X127537656Y-107243070D01*
X127543064Y-107249748D01*
X127550063Y-107254722D01*
X127550064Y-107254723D01*
X127558396Y-107260644D01*
X127574501Y-107274254D01*
X127818220Y-107517972D01*
X128035565Y-107735317D01*
X128069590Y-107797630D01*
X128072470Y-107824413D01*
X128072470Y-108561970D01*
X128083334Y-108651745D01*
X128086314Y-108659273D01*
X128086315Y-108659275D01*
X128092181Y-108674091D01*
X128138857Y-108791981D01*
X128230048Y-108912120D01*
X128350187Y-109003311D01*
X128405336Y-109025146D01*
X128482893Y-109055853D01*
X128482895Y-109055854D01*
X128490423Y-109058834D01*
X128580198Y-109069698D01*
X128647271Y-109069698D01*
X128715392Y-109089700D01*
X128761885Y-109143356D01*
X128771989Y-109213630D01*
X128742495Y-109278210D01*
X128686207Y-109315531D01*
X128604686Y-109342019D01*
X128440754Y-109436665D01*
X128435847Y-109441083D01*
X128435846Y-109441084D01*
X128330443Y-109535990D01*
X128300082Y-109563327D01*
X128188819Y-109716468D01*
X128111826Y-109889395D01*
X128108522Y-109904940D01*
X128075292Y-110061277D01*
X128072470Y-110074552D01*
X128072470Y-110263844D01*
X128073842Y-110270297D01*
X128073842Y-110270301D01*
X128088852Y-110340916D01*
X128111826Y-110449001D01*
X128188819Y-110621928D01*
X128300082Y-110775069D01*
X128304984Y-110779482D01*
X128304985Y-110779484D01*
X128407603Y-110871882D01*
X128440754Y-110901731D01*
X128446475Y-110905034D01*
X128577746Y-110980823D01*
X128604686Y-110996377D01*
X128784714Y-111054872D01*
X128791275Y-111055562D01*
X128791277Y-111055562D01*
X128829680Y-111059598D01*
X128925778Y-111069698D01*
X129570162Y-111069698D01*
X129610807Y-111065426D01*
X129680645Y-111078198D01*
X129732491Y-111126700D01*
X129749886Y-111195533D01*
X129727305Y-111262843D01*
X129713072Y-111279831D01*
X127731063Y-113261840D01*
X127671383Y-113295263D01*
X127614716Y-113308868D01*
X127536402Y-113327670D01*
X127529658Y-113331151D01*
X127529655Y-113331152D01*
X127449801Y-113372368D01*
X127385739Y-113405433D01*
X127257974Y-113516889D01*
X127160483Y-113655605D01*
X127098894Y-113813571D01*
X127097902Y-113821104D01*
X127097902Y-113821105D01*
X127078220Y-113970611D01*
X127076764Y-113981669D01*
X127095369Y-114150193D01*
X127153636Y-114309414D01*
X127157872Y-114315717D01*
X127157872Y-114315718D01*
X127170944Y-114335171D01*
X127248200Y-114450141D01*
X127253812Y-114455248D01*
X127253815Y-114455251D01*
X127367982Y-114559135D01*
X127367986Y-114559138D01*
X127373603Y-114564249D01*
X127380276Y-114567872D01*
X127380280Y-114567875D01*
X127515928Y-114641525D01*
X127515930Y-114641526D01*
X127522605Y-114645150D01*
X127529954Y-114647078D01*
X127679253Y-114686246D01*
X127679255Y-114686246D01*
X127686603Y-114688174D01*
X127772979Y-114689531D01*
X127848531Y-114690718D01*
X127848534Y-114690718D01*
X127856130Y-114690837D01*
X127863535Y-114689141D01*
X127863536Y-114689141D01*
X127929248Y-114674091D01*
X128021399Y-114652986D01*
X128172868Y-114576805D01*
X128283057Y-114482694D01*
X128296021Y-114471622D01*
X128296022Y-114471621D01*
X128301793Y-114466692D01*
X128400731Y-114329005D01*
X128408607Y-114309414D01*
X128461136Y-114178745D01*
X128461137Y-114178743D01*
X128463971Y-114171692D01*
X128472270Y-114113376D01*
X128501670Y-114048754D01*
X128507918Y-114042035D01*
X128826638Y-113723315D01*
X131305230Y-113723315D01*
X131323288Y-114079785D01*
X131323998Y-114086541D01*
X131380448Y-114438963D01*
X131381887Y-114445618D01*
X131476064Y-114789873D01*
X131478213Y-114796334D01*
X131609023Y-115128414D01*
X131611854Y-115134597D01*
X131777762Y-115450607D01*
X131781245Y-115456449D01*
X131980310Y-115752689D01*
X131984413Y-115758133D01*
X132079172Y-115870664D01*
X132091911Y-115879107D01*
X132102355Y-115873009D01*
X134230894Y-113744470D01*
X134237272Y-113732790D01*
X135097432Y-113732790D01*
X135097563Y-113734623D01*
X135101814Y-113741238D01*
X137232515Y-115871939D01*
X137246112Y-115879364D01*
X137255723Y-115872664D01*
X137330160Y-115786123D01*
X137334318Y-115780723D01*
X137536473Y-115486587D01*
X137540020Y-115480776D01*
X137709220Y-115166537D01*
X137712127Y-115160359D01*
X137846405Y-114829674D01*
X137848619Y-114823244D01*
X137946397Y-114479989D01*
X137947904Y-114473359D01*
X138008043Y-114121531D01*
X138008823Y-114114791D01*
X138030710Y-113756933D01*
X138030826Y-113753331D01*
X138030896Y-113733478D01*
X138030804Y-113729851D01*
X138011416Y-113371866D01*
X138010681Y-113365100D01*
X137953004Y-113012891D01*
X137951537Y-113006219D01*
X137856164Y-112662313D01*
X137853990Y-112655850D01*
X137722023Y-112324233D01*
X137719167Y-112318053D01*
X137552164Y-112002639D01*
X137548652Y-111996795D01*
X137348556Y-111701253D01*
X137344443Y-111695835D01*
X137256862Y-111592563D01*
X137244037Y-111584127D01*
X137233713Y-111590179D01*
X135105046Y-113718846D01*
X135097432Y-113732790D01*
X134237272Y-113732790D01*
X134238508Y-113730526D01*
X134238377Y-113728693D01*
X134234126Y-113722078D01*
X132103530Y-111591482D01*
X132089993Y-111584090D01*
X132080292Y-111590877D01*
X131998619Y-111686505D01*
X131994485Y-111691913D01*
X131793364Y-111986744D01*
X131789829Y-111992581D01*
X131621724Y-112307415D01*
X131618848Y-112313584D01*
X131485724Y-112644739D01*
X131483531Y-112651179D01*
X131386949Y-112994779D01*
X131385466Y-113001414D01*
X131326559Y-113353431D01*
X131325800Y-113360203D01*
X131305254Y-113716520D01*
X131305230Y-113723315D01*
X128826638Y-113723315D01*
X130841286Y-111708667D01*
X131397726Y-111152227D01*
X132518307Y-111152227D01*
X132525014Y-111164438D01*
X134655158Y-113294582D01*
X134669102Y-113302196D01*
X134670935Y-113302065D01*
X134677550Y-113297814D01*
X136810422Y-111164942D01*
X136817268Y-111152405D01*
X136809041Y-111141318D01*
X136560925Y-110952304D01*
X136555301Y-110948482D01*
X136249692Y-110764127D01*
X136243680Y-110760930D01*
X135919936Y-110610653D01*
X135913636Y-110608133D01*
X135575565Y-110493703D01*
X135568987Y-110491867D01*
X135220562Y-110414623D01*
X135213827Y-110413508D01*
X134859076Y-110374343D01*
X134852294Y-110373964D01*
X134495365Y-110373341D01*
X134488592Y-110373696D01*
X134133684Y-110411624D01*
X134126975Y-110412711D01*
X133778259Y-110488744D01*
X133771684Y-110490555D01*
X133433220Y-110603803D01*
X133426898Y-110606306D01*
X133102650Y-110755443D01*
X133096607Y-110758629D01*
X132790374Y-110941906D01*
X132784714Y-110945724D01*
X132526766Y-111140810D01*
X132518307Y-111152227D01*
X131397726Y-111152227D01*
X133185569Y-109364383D01*
X133247881Y-109330357D01*
X133274664Y-109327478D01*
X137886267Y-109327478D01*
X137899437Y-109328168D01*
X137939504Y-109332379D01*
X137947969Y-109330947D01*
X137947978Y-109330947D01*
X137958050Y-109329243D01*
X137979063Y-109327478D01*
X141539898Y-109327478D01*
X141608019Y-109347480D01*
X141654512Y-109401136D01*
X141664616Y-109471410D01*
X141635122Y-109535990D01*
X141580395Y-109572793D01*
X141539283Y-109586747D01*
X141535585Y-109588570D01*
X141535579Y-109588573D01*
X141331295Y-109689308D01*
X141331289Y-109689311D01*
X141327593Y-109691134D01*
X141131341Y-109822262D01*
X140953885Y-109977885D01*
X140798262Y-110155341D01*
X140667134Y-110351593D01*
X140665311Y-110355289D01*
X140665308Y-110355295D01*
X140569799Y-110548982D01*
X140562747Y-110563283D01*
X140486886Y-110786787D01*
X140486081Y-110790832D01*
X140486080Y-110790838D01*
X140481666Y-110813036D01*
X140440849Y-111018282D01*
X140440579Y-111022399D01*
X140440579Y-111022402D01*
X140427982Y-111214765D01*
X140425882Y-111246828D01*
X140424652Y-111253806D01*
X140427374Y-111269236D01*
X140429288Y-111291114D01*
X140429288Y-116821211D01*
X140427373Y-116843093D01*
X140424652Y-116858523D01*
X140426566Y-116869381D01*
X140426566Y-116880404D01*
X140426009Y-116880404D01*
X140426599Y-116892682D01*
X140415295Y-117036276D01*
X140412202Y-117055804D01*
X140372890Y-117219539D01*
X140366780Y-117238343D01*
X140302338Y-117393911D01*
X140293362Y-117411527D01*
X140205378Y-117555100D01*
X140193756Y-117571096D01*
X140084397Y-117699136D01*
X140070418Y-117713115D01*
X140014701Y-117760700D01*
X139942366Y-117822478D01*
X139926371Y-117834098D01*
X139887428Y-117857962D01*
X139782799Y-117922077D01*
X139765183Y-117931052D01*
X139724504Y-117947902D01*
X139609614Y-117995489D01*
X139590810Y-118001599D01*
X139504772Y-118022254D01*
X139427072Y-118040907D01*
X139407549Y-118044000D01*
X139263783Y-118055313D01*
X139251669Y-118054730D01*
X139251669Y-118055307D01*
X139240645Y-118055307D01*
X139229790Y-118053393D01*
X139214350Y-118056115D01*
X139192474Y-118058029D01*
X127163322Y-118058029D01*
X127141446Y-118056115D01*
X127126006Y-118053393D01*
X127115150Y-118055307D01*
X127104128Y-118055307D01*
X127104128Y-118054751D01*
X127091853Y-118055341D01*
X126948255Y-118044040D01*
X126928727Y-118040947D01*
X126764990Y-118001637D01*
X126746185Y-117995526D01*
X126653064Y-117956953D01*
X126590625Y-117931090D01*
X126573009Y-117922114D01*
X126488821Y-117870522D01*
X126429437Y-117834131D01*
X126413441Y-117822509D01*
X126347113Y-117765858D01*
X126285401Y-117713149D01*
X126271422Y-117699169D01*
X126162065Y-117571123D01*
X126150444Y-117555128D01*
X126062466Y-117411554D01*
X126053490Y-117393935D01*
X125989061Y-117238375D01*
X125982952Y-117219572D01*
X125943646Y-117055830D01*
X125940553Y-117036300D01*
X125934903Y-116964469D01*
X125929235Y-116892422D01*
X125929812Y-116880429D01*
X125929218Y-116880429D01*
X125929219Y-116869409D01*
X125931134Y-116858551D01*
X125928411Y-116843104D01*
X125926498Y-116821230D01*
X125926498Y-116310613D01*
X132518999Y-116310613D01*
X132527137Y-116321619D01*
X132765312Y-116504378D01*
X132770942Y-116508233D01*
X133075899Y-116693650D01*
X133081901Y-116696868D01*
X133405109Y-116848269D01*
X133411414Y-116850817D01*
X133749087Y-116966429D01*
X133755638Y-116968282D01*
X134103808Y-117046745D01*
X134110527Y-117047882D01*
X134465144Y-117088286D01*
X134471934Y-117088689D01*
X134828835Y-117090557D01*
X134835636Y-117090225D01*
X135190656Y-117053538D01*
X135197384Y-117052472D01*
X135546372Y-116977655D01*
X135552920Y-116975876D01*
X135891790Y-116863805D01*
X135898132Y-116861319D01*
X136222891Y-116713318D01*
X136228945Y-116710153D01*
X136535809Y-116527951D01*
X136541490Y-116524148D01*
X136809558Y-116322876D01*
X136818012Y-116311549D01*
X136811267Y-116299219D01*
X134680782Y-114168734D01*
X134666838Y-114161120D01*
X134665005Y-114161251D01*
X134658390Y-114165502D01*
X132525880Y-116298012D01*
X132518999Y-116310613D01*
X125926498Y-116310613D01*
X125926498Y-96109457D01*
X127908768Y-96109457D01*
X127919165Y-96152599D01*
X127923051Y-96163884D01*
X128005599Y-96345440D01*
X128011546Y-96355782D01*
X128126938Y-96518455D01*
X128134731Y-96527483D01*
X128278801Y-96665400D01*
X128288166Y-96672796D01*
X128455711Y-96780979D01*
X128466315Y-96786475D01*
X128651282Y-96861019D01*
X128662740Y-96864413D01*
X128859898Y-96902915D01*
X128868761Y-96903992D01*
X128871470Y-96904058D01*
X128929855Y-96904058D01*
X128945094Y-96899583D01*
X128946299Y-96898193D01*
X128947970Y-96890510D01*
X128947970Y-96885943D01*
X129547970Y-96885943D01*
X129552445Y-96901182D01*
X129553835Y-96902387D01*
X129561518Y-96904058D01*
X129572802Y-96904058D01*
X129578778Y-96903773D01*
X129727464Y-96889587D01*
X129739198Y-96887328D01*
X129930569Y-96831186D01*
X129941645Y-96826756D01*
X130118948Y-96735439D01*
X130128994Y-96728989D01*
X130285827Y-96605796D01*
X130294476Y-96597559D01*
X130425182Y-96446935D01*
X130432117Y-96437211D01*
X130531980Y-96264591D01*
X130536954Y-96253727D01*
X130585764Y-96113170D01*
X130586449Y-96099086D01*
X130580590Y-96096058D01*
X129566085Y-96096058D01*
X129550846Y-96100533D01*
X129549641Y-96101923D01*
X129547970Y-96109606D01*
X129547970Y-96885943D01*
X128947970Y-96885943D01*
X128947970Y-96114173D01*
X128943495Y-96098934D01*
X128942105Y-96097729D01*
X128934422Y-96096058D01*
X127923654Y-96096058D01*
X127910123Y-96100031D01*
X127908768Y-96109457D01*
X125926498Y-96109457D01*
X125926498Y-95493030D01*
X127909491Y-95493030D01*
X127915350Y-95496058D01*
X130572286Y-95496058D01*
X130585817Y-95492085D01*
X130587172Y-95482659D01*
X130576775Y-95439517D01*
X130572889Y-95428232D01*
X130490341Y-95246676D01*
X130484394Y-95236334D01*
X130369002Y-95073661D01*
X130361209Y-95064633D01*
X130217139Y-94926716D01*
X130207774Y-94919320D01*
X130040229Y-94811137D01*
X130029631Y-94805644D01*
X130001956Y-94794491D01*
X129946249Y-94750476D01*
X129923182Y-94683331D01*
X129940078Y-94614375D01*
X129986053Y-94568505D01*
X130049465Y-94531894D01*
X130055186Y-94528591D01*
X130061210Y-94523167D01*
X130190955Y-94406344D01*
X130190956Y-94406342D01*
X130195858Y-94401929D01*
X130307121Y-94248788D01*
X130384114Y-94075861D01*
X130411961Y-93944851D01*
X130422098Y-93897161D01*
X130422098Y-93897157D01*
X130423470Y-93890704D01*
X130423470Y-93701412D01*
X130420655Y-93688164D01*
X130398650Y-93584643D01*
X130384114Y-93516255D01*
X130307121Y-93343328D01*
X130289471Y-93319034D01*
X130199737Y-93195526D01*
X130195858Y-93190187D01*
X130178019Y-93174124D01*
X130060094Y-93067944D01*
X130060093Y-93067943D01*
X130055186Y-93063525D01*
X129958671Y-93007802D01*
X129896977Y-92972183D01*
X129896976Y-92972182D01*
X129891254Y-92968879D01*
X129809733Y-92942391D01*
X129751127Y-92902317D01*
X129723490Y-92836921D01*
X129735597Y-92766964D01*
X129783603Y-92714658D01*
X129848669Y-92696558D01*
X129915742Y-92696558D01*
X130005517Y-92685694D01*
X130013045Y-92682714D01*
X130013047Y-92682713D01*
X130082138Y-92655358D01*
X130145753Y-92630171D01*
X130265892Y-92538980D01*
X130357083Y-92418841D01*
X130387642Y-92341658D01*
X130409625Y-92286135D01*
X130409626Y-92286133D01*
X130412606Y-92278605D01*
X130423470Y-92188830D01*
X130423470Y-91403286D01*
X130412606Y-91313511D01*
X130357083Y-91173275D01*
X130265892Y-91053136D01*
X130145753Y-90961945D01*
X130082138Y-90936758D01*
X130013047Y-90909403D01*
X130013045Y-90909402D01*
X130005517Y-90906422D01*
X129915742Y-90895558D01*
X128580198Y-90895558D01*
X128490423Y-90906422D01*
X128482895Y-90909402D01*
X128482893Y-90909403D01*
X128413802Y-90936758D01*
X128350187Y-90961945D01*
X128230048Y-91053136D01*
X128138857Y-91173275D01*
X128083334Y-91313511D01*
X128072470Y-91403286D01*
X128072470Y-92188830D01*
X128083334Y-92278605D01*
X128086314Y-92286133D01*
X128086315Y-92286135D01*
X128108298Y-92341658D01*
X128138857Y-92418841D01*
X128230048Y-92538980D01*
X128350187Y-92630171D01*
X128413802Y-92655358D01*
X128482893Y-92682713D01*
X128482895Y-92682714D01*
X128490423Y-92685694D01*
X128580198Y-92696558D01*
X128647271Y-92696558D01*
X128715392Y-92716560D01*
X128761885Y-92770216D01*
X128771989Y-92840490D01*
X128742495Y-92905070D01*
X128686207Y-92942391D01*
X128604686Y-92968879D01*
X128598964Y-92972182D01*
X128598963Y-92972183D01*
X128537269Y-93007802D01*
X128440754Y-93063525D01*
X128435847Y-93067943D01*
X128435846Y-93067944D01*
X128317922Y-93174124D01*
X128300082Y-93190187D01*
X128296203Y-93195526D01*
X128206470Y-93319034D01*
X128188819Y-93343328D01*
X128111826Y-93516255D01*
X128097290Y-93584643D01*
X128075286Y-93688164D01*
X128072470Y-93701412D01*
X128072470Y-93890704D01*
X128073842Y-93897157D01*
X128073842Y-93897161D01*
X128083979Y-93944851D01*
X128111826Y-94075861D01*
X128188819Y-94248788D01*
X128300082Y-94401929D01*
X128304984Y-94406342D01*
X128304985Y-94406344D01*
X128434730Y-94523167D01*
X128440754Y-94528591D01*
X128446475Y-94531894D01*
X128511101Y-94569206D01*
X128560094Y-94620589D01*
X128573530Y-94690302D01*
X128547144Y-94756213D01*
X128505793Y-94790341D01*
X128376992Y-94856677D01*
X128366946Y-94863127D01*
X128210113Y-94986320D01*
X128201464Y-94994557D01*
X128070758Y-95145181D01*
X128063823Y-95154905D01*
X127963960Y-95327525D01*
X127958986Y-95338389D01*
X127910176Y-95478946D01*
X127909491Y-95493030D01*
X125926498Y-95493030D01*
X125926498Y-90434924D01*
X125928856Y-90411246D01*
X125928872Y-90410576D01*
X125931046Y-90399767D01*
X125929392Y-90388866D01*
X125929656Y-90377849D01*
X125930413Y-90377867D01*
X125930166Y-90365635D01*
X125947812Y-90205706D01*
X125952021Y-90184491D01*
X126000983Y-90015343D01*
X126003257Y-90007489D01*
X126011030Y-89987308D01*
X126091788Y-89821666D01*
X126102895Y-89803119D01*
X126210790Y-89653733D01*
X126224912Y-89637351D01*
X126356762Y-89508623D01*
X126373477Y-89494897D01*
X126469003Y-89429326D01*
X126525405Y-89390611D01*
X126544216Y-89379950D01*
X126711741Y-89303185D01*
X126732105Y-89295896D01*
X126815536Y-89273897D01*
X126910287Y-89248913D01*
X126931592Y-89245215D01*
X127092011Y-89231396D01*
X127104120Y-89231934D01*
X127104120Y-89231160D01*
X127115143Y-89231160D01*
X127125998Y-89233074D01*
X127141435Y-89230352D01*
X127163315Y-89228438D01*
X168894947Y-89228438D01*
X168911553Y-89229537D01*
G37*
%TD.AperFunction*%
%TA.AperFunction,Conductor*%
G36*
X135455702Y-96567447D02*
G01*
X135512538Y-96609994D01*
X135537349Y-96676514D01*
X135537670Y-96685503D01*
X135537670Y-106928105D01*
X135537559Y-106933381D01*
X135534960Y-106995392D01*
X135536922Y-107003757D01*
X135544897Y-107037760D01*
X135547060Y-107049431D01*
X135552964Y-107092530D01*
X135556376Y-107100414D01*
X135556376Y-107100415D01*
X135558935Y-107106328D01*
X135565969Y-107127597D01*
X135569402Y-107142234D01*
X135573539Y-107149759D01*
X135573540Y-107149762D01*
X135590365Y-107180366D01*
X135595581Y-107191011D01*
X135612865Y-107230953D01*
X135622328Y-107242639D01*
X135634815Y-107261223D01*
X135642063Y-107274406D01*
X135649067Y-107282520D01*
X135673603Y-107307056D01*
X135682428Y-107316857D01*
X135701394Y-107340277D01*
X135707784Y-107348168D01*
X135714782Y-107353141D01*
X135714787Y-107353146D01*
X135723118Y-107359066D01*
X135739224Y-107372677D01*
X136377930Y-108011383D01*
X136411956Y-108073695D01*
X136406891Y-108144510D01*
X136364344Y-108201346D01*
X136297824Y-108226157D01*
X136288835Y-108226478D01*
X133009443Y-108226478D01*
X133004167Y-108226367D01*
X132999156Y-108226157D01*
X132942156Y-108223768D01*
X132933791Y-108225730D01*
X132899788Y-108233705D01*
X132888117Y-108235868D01*
X132877357Y-108237342D01*
X132845018Y-108241772D01*
X132837134Y-108245184D01*
X132837133Y-108245184D01*
X132831220Y-108247743D01*
X132809951Y-108254777D01*
X132803678Y-108256248D01*
X132803676Y-108256249D01*
X132795314Y-108258210D01*
X132787786Y-108262349D01*
X132787785Y-108262349D01*
X132757185Y-108279172D01*
X132746523Y-108284395D01*
X132714477Y-108298262D01*
X132714476Y-108298263D01*
X132706595Y-108301673D01*
X132699922Y-108307077D01*
X132694909Y-108311136D01*
X132676321Y-108323627D01*
X132663142Y-108330872D01*
X132655028Y-108337875D01*
X132630492Y-108362411D01*
X132620691Y-108371236D01*
X132596058Y-108391184D01*
X132589380Y-108396592D01*
X132584407Y-108403590D01*
X132584402Y-108403595D01*
X132578482Y-108411926D01*
X132564871Y-108428032D01*
X130638401Y-110354502D01*
X130576089Y-110388528D01*
X130505274Y-110383463D01*
X130448438Y-110340916D01*
X130423627Y-110274396D01*
X130423802Y-110263844D01*
X130423470Y-110263844D01*
X130423470Y-110074552D01*
X130420649Y-110061277D01*
X130387418Y-109904940D01*
X130384114Y-109889395D01*
X130307121Y-109716468D01*
X130195858Y-109563327D01*
X130165498Y-109535990D01*
X130060094Y-109441084D01*
X130060093Y-109441083D01*
X130055186Y-109436665D01*
X129891254Y-109342019D01*
X129809733Y-109315531D01*
X129751127Y-109275457D01*
X129723490Y-109210061D01*
X129735597Y-109140104D01*
X129783603Y-109087798D01*
X129848669Y-109069698D01*
X129915742Y-109069698D01*
X130005517Y-109058834D01*
X130013045Y-109055854D01*
X130013047Y-109055853D01*
X130090604Y-109025146D01*
X130145753Y-109003311D01*
X130265892Y-108912120D01*
X130357083Y-108791981D01*
X130403759Y-108674091D01*
X130409625Y-108659275D01*
X130409626Y-108659273D01*
X130412606Y-108651745D01*
X130423470Y-108561970D01*
X130423470Y-107776426D01*
X130412606Y-107686651D01*
X130357083Y-107546415D01*
X130265892Y-107426276D01*
X130145753Y-107335085D01*
X130017123Y-107284157D01*
X130013047Y-107282543D01*
X130013045Y-107282542D01*
X130005517Y-107279562D01*
X129915742Y-107268698D01*
X129178186Y-107268698D01*
X129110065Y-107248696D01*
X129089091Y-107231794D01*
X128510855Y-106653559D01*
X128476830Y-106591246D01*
X128473950Y-106564463D01*
X128473950Y-103932982D01*
X128493952Y-103864861D01*
X128547608Y-103818368D01*
X128617882Y-103808264D01*
X128638880Y-103813147D01*
X128784714Y-103860532D01*
X128791275Y-103861222D01*
X128791277Y-103861222D01*
X128844933Y-103866861D01*
X128925778Y-103875358D01*
X129570162Y-103875358D01*
X129651007Y-103866861D01*
X129704663Y-103861222D01*
X129704665Y-103861222D01*
X129711226Y-103860532D01*
X129891254Y-103802037D01*
X129931421Y-103778847D01*
X130049465Y-103710694D01*
X130055186Y-103707391D01*
X130134095Y-103636341D01*
X130190955Y-103585144D01*
X130190956Y-103585142D01*
X130195858Y-103580729D01*
X130307121Y-103427588D01*
X130384114Y-103254661D01*
X130406388Y-103149869D01*
X130422098Y-103075961D01*
X130422098Y-103075957D01*
X130423470Y-103069504D01*
X130423470Y-102880212D01*
X130419874Y-102863291D01*
X130399313Y-102766561D01*
X130384114Y-102695055D01*
X130307121Y-102522128D01*
X130300845Y-102513489D01*
X130199737Y-102374326D01*
X130195858Y-102368987D01*
X130190721Y-102364361D01*
X130060094Y-102246744D01*
X130060093Y-102246743D01*
X130055186Y-102242325D01*
X129924901Y-102167105D01*
X129896977Y-102150983D01*
X129896976Y-102150982D01*
X129891254Y-102147679D01*
X129809733Y-102121191D01*
X129751127Y-102081117D01*
X129723490Y-102015721D01*
X129735597Y-101945764D01*
X129783603Y-101893458D01*
X129848669Y-101875358D01*
X129915742Y-101875358D01*
X130005517Y-101864494D01*
X130013045Y-101861514D01*
X130013047Y-101861513D01*
X130082138Y-101834158D01*
X130145753Y-101808971D01*
X130265892Y-101717780D01*
X130357083Y-101597641D01*
X130388593Y-101518054D01*
X130432267Y-101462080D01*
X130440476Y-101456659D01*
X130445564Y-101453578D01*
X130453455Y-101450163D01*
X130465141Y-101440700D01*
X130483726Y-101428212D01*
X130491118Y-101424148D01*
X130496908Y-101420965D01*
X130505022Y-101413961D01*
X130529558Y-101389425D01*
X130539359Y-101380600D01*
X130563992Y-101360652D01*
X130563993Y-101360651D01*
X130570670Y-101355244D01*
X130575643Y-101348246D01*
X130575648Y-101348241D01*
X130581568Y-101339910D01*
X130595179Y-101323804D01*
X135322575Y-96596408D01*
X135384887Y-96562382D01*
X135455702Y-96567447D01*
G37*
%TD.AperFunction*%
%TA.AperFunction,Conductor*%
G36*
X147368131Y-106060280D02*
G01*
X147414624Y-106113936D01*
X147424728Y-106184210D01*
X147395234Y-106248790D01*
X147372910Y-106269048D01*
X147284973Y-106331426D01*
X147275945Y-106339219D01*
X147138028Y-106483289D01*
X147130632Y-106492654D01*
X147022449Y-106660199D01*
X147016953Y-106670803D01*
X146942409Y-106855770D01*
X146939015Y-106867228D01*
X146900513Y-107064386D01*
X146899436Y-107073249D01*
X146899370Y-107075958D01*
X146899370Y-107134343D01*
X146903845Y-107149582D01*
X146905235Y-107150787D01*
X146912918Y-107152458D01*
X148181370Y-107152458D01*
X148249491Y-107172460D01*
X148295984Y-107226116D01*
X148307370Y-107278458D01*
X148307370Y-107626458D01*
X148287368Y-107694579D01*
X148233712Y-107741072D01*
X148181370Y-107752458D01*
X146917485Y-107752458D01*
X146902246Y-107756933D01*
X146901041Y-107758323D01*
X146899370Y-107766006D01*
X146899370Y-107777290D01*
X146899655Y-107783266D01*
X146913841Y-107931952D01*
X146916100Y-107943686D01*
X146951692Y-108065009D01*
X146951675Y-108136005D01*
X146913277Y-108195722D01*
X146848689Y-108225200D01*
X146830787Y-108226478D01*
X138202265Y-108226478D01*
X138134144Y-108206476D01*
X138113170Y-108189573D01*
X136675575Y-106751979D01*
X136641550Y-106689667D01*
X136638670Y-106662884D01*
X136638670Y-106351274D01*
X136658672Y-106283153D01*
X136712328Y-106236660D01*
X136782602Y-106226556D01*
X136847182Y-106256050D01*
X136853765Y-106262178D01*
X137238422Y-106646834D01*
X137242074Y-106650643D01*
X137284090Y-106696335D01*
X137321093Y-106719278D01*
X137330843Y-106725979D01*
X137365508Y-106752291D01*
X137379486Y-106757825D01*
X137399490Y-106767886D01*
X137412277Y-106775814D01*
X137420528Y-106778211D01*
X137420530Y-106778212D01*
X137454063Y-106787954D01*
X137465293Y-106791799D01*
X137505744Y-106807815D01*
X137514285Y-106808713D01*
X137514286Y-106808713D01*
X137520699Y-106809387D01*
X137542674Y-106813699D01*
X137557116Y-106817894D01*
X137564599Y-106818443D01*
X137565499Y-106818510D01*
X137565510Y-106818510D01*
X137567806Y-106818679D01*
X137602508Y-106818679D01*
X137615678Y-106819369D01*
X137655745Y-106823580D01*
X137664210Y-106822148D01*
X137664219Y-106822148D01*
X137674291Y-106820444D01*
X137695304Y-106818679D01*
X143651376Y-106818679D01*
X143656653Y-106818790D01*
X143718663Y-106821389D01*
X143730217Y-106818679D01*
X143761031Y-106811452D01*
X143772702Y-106809289D01*
X143803040Y-106805133D01*
X143815801Y-106803385D01*
X143824553Y-106799598D01*
X143829599Y-106797414D01*
X143850868Y-106790380D01*
X143857144Y-106788908D01*
X143865505Y-106786947D01*
X143873030Y-106782810D01*
X143873033Y-106782809D01*
X143903637Y-106765984D01*
X143914282Y-106760768D01*
X143954224Y-106743484D01*
X143965910Y-106734021D01*
X143984495Y-106721533D01*
X143997677Y-106714286D01*
X144005791Y-106707282D01*
X144030327Y-106682746D01*
X144040128Y-106673921D01*
X144064761Y-106653973D01*
X144064762Y-106653972D01*
X144071439Y-106648565D01*
X144077289Y-106640334D01*
X144082335Y-106633233D01*
X144095945Y-106617128D01*
X144364536Y-106348537D01*
X144635889Y-106077183D01*
X144698202Y-106043158D01*
X144724985Y-106040278D01*
X147300010Y-106040278D01*
X147368131Y-106060280D01*
G37*
%TD.AperFunction*%
%TA.AperFunction,Conductor*%
G36*
X149484804Y-96165960D02*
G01*
X149505778Y-96182863D01*
X157152732Y-103829817D01*
X157153661Y-103830755D01*
X157216110Y-103894526D01*
X157222030Y-103898341D01*
X157222036Y-103898346D01*
X157252142Y-103917748D01*
X157262496Y-103925188D01*
X157295985Y-103951922D01*
X157302323Y-103954986D01*
X157302328Y-103954989D01*
X157325804Y-103966337D01*
X157339224Y-103973868D01*
X157361148Y-103987998D01*
X157361157Y-103988002D01*
X157367068Y-103991812D01*
X157371864Y-103993558D01*
X157423426Y-104041242D01*
X157441214Y-104109974D01*
X157419245Y-104177084D01*
X157417960Y-104178961D01*
X157413994Y-104183688D01*
X157314746Y-104364220D01*
X157296625Y-104421345D01*
X157289878Y-104442614D01*
X157250214Y-104501498D01*
X157185012Y-104529590D01*
X157114973Y-104517972D01*
X157080681Y-104493610D01*
X156567770Y-103980699D01*
X156566841Y-103979761D01*
X156566280Y-103979188D01*
X156504392Y-103915990D01*
X156498472Y-103912175D01*
X156498466Y-103912170D01*
X156468360Y-103892768D01*
X156458006Y-103885328D01*
X156430025Y-103862991D01*
X156424517Y-103858594D01*
X156394692Y-103844176D01*
X156381276Y-103836647D01*
X156372134Y-103830755D01*
X156353434Y-103818704D01*
X156313160Y-103804045D01*
X156301420Y-103799086D01*
X156269167Y-103783495D01*
X156269168Y-103783495D01*
X156262829Y-103780431D01*
X156255974Y-103778848D01*
X156255970Y-103778847D01*
X156237008Y-103774470D01*
X156230553Y-103772979D01*
X156215805Y-103768610D01*
X156191296Y-103759690D01*
X156191292Y-103759689D01*
X156184673Y-103757280D01*
X156142133Y-103751906D01*
X156129614Y-103749676D01*
X156087840Y-103740032D01*
X156080799Y-103740007D01*
X156080796Y-103740007D01*
X156047669Y-103739891D01*
X156046796Y-103739862D01*
X156045968Y-103739758D01*
X156009513Y-103739758D01*
X156009073Y-103739757D01*
X155911744Y-103739417D01*
X155911741Y-103739417D01*
X155908251Y-103739405D01*
X155907063Y-103739671D01*
X155905451Y-103739758D01*
X154446620Y-103739758D01*
X154378499Y-103719756D01*
X154332006Y-103666100D01*
X154321902Y-103595826D01*
X154337064Y-103551521D01*
X154407468Y-103427588D01*
X154426093Y-103394802D01*
X154491121Y-103199321D01*
X154516941Y-102994932D01*
X154517353Y-102965458D01*
X154497250Y-102760428D01*
X154437705Y-102563207D01*
X154340988Y-102381307D01*
X154224943Y-102239022D01*
X154214676Y-102226433D01*
X154214673Y-102226430D01*
X154210781Y-102221658D01*
X154203943Y-102216001D01*
X154056795Y-102094269D01*
X154056791Y-102094267D01*
X154052045Y-102090340D01*
X153870825Y-101992355D01*
X153674024Y-101931435D01*
X153667899Y-101930791D01*
X153667898Y-101930791D01*
X153475268Y-101910545D01*
X153475266Y-101910545D01*
X153469139Y-101909901D01*
X153382299Y-101917804D01*
X153270112Y-101928013D01*
X153270109Y-101928014D01*
X153263973Y-101928572D01*
X153066342Y-101986738D01*
X152883772Y-102082184D01*
X152878971Y-102086044D01*
X152878968Y-102086046D01*
X152732824Y-102203549D01*
X152723217Y-102211273D01*
X152590794Y-102369088D01*
X152587826Y-102374486D01*
X152587823Y-102374491D01*
X152506660Y-102522128D01*
X152491546Y-102549620D01*
X152489683Y-102555493D01*
X152441094Y-102708667D01*
X152429254Y-102745990D01*
X152428568Y-102752107D01*
X152428567Y-102752111D01*
X152414923Y-102873755D01*
X152406290Y-102950720D01*
X152423529Y-103156011D01*
X152480314Y-103354044D01*
X152483129Y-103359521D01*
X152483130Y-103359524D01*
X152502676Y-103397556D01*
X152574482Y-103537276D01*
X152578309Y-103542105D01*
X152580498Y-103545501D01*
X152600588Y-103613596D01*
X152580674Y-103681742D01*
X152527078Y-103728304D01*
X152474588Y-103739758D01*
X152098270Y-103739758D01*
X152030149Y-103719756D01*
X151983656Y-103666100D01*
X151972270Y-103613758D01*
X151972270Y-102170812D01*
X151969152Y-102144612D01*
X151956066Y-102115150D01*
X151928433Y-102052940D01*
X151923709Y-102042305D01*
X151895276Y-102013921D01*
X151852715Y-101971435D01*
X151844483Y-101963217D01*
X151833846Y-101958514D01*
X151833844Y-101958513D01*
X151774308Y-101932193D01*
X151742097Y-101917952D01*
X151716416Y-101914958D01*
X150127124Y-101914958D01*
X150123420Y-101915399D01*
X150123417Y-101915399D01*
X150116024Y-101916279D01*
X150100924Y-101918076D01*
X150079353Y-101927658D01*
X150008982Y-101937031D01*
X149944711Y-101906869D01*
X149906949Y-101846748D01*
X149907027Y-101777988D01*
X149926400Y-101709977D01*
X149927904Y-101703359D01*
X149988043Y-101351531D01*
X149988823Y-101344791D01*
X150010710Y-100986933D01*
X150010826Y-100983331D01*
X150010896Y-100963478D01*
X150010804Y-100959851D01*
X149991416Y-100601866D01*
X149990681Y-100595100D01*
X149933004Y-100242891D01*
X149931537Y-100236219D01*
X149836164Y-99892313D01*
X149833990Y-99885850D01*
X149702023Y-99554233D01*
X149699167Y-99548053D01*
X149532164Y-99232639D01*
X149528652Y-99226795D01*
X149328556Y-98931253D01*
X149324443Y-98925835D01*
X149236862Y-98822563D01*
X149224037Y-98814127D01*
X149213713Y-98820179D01*
X147085046Y-100948846D01*
X147077432Y-100962790D01*
X147077563Y-100964623D01*
X147081814Y-100971238D01*
X149212515Y-103101939D01*
X149226112Y-103109364D01*
X149235723Y-103102664D01*
X149310160Y-103016123D01*
X149314318Y-103010723D01*
X149516473Y-102716587D01*
X149520020Y-102710776D01*
X149634330Y-102498479D01*
X149684237Y-102447983D01*
X149753521Y-102432484D01*
X149820186Y-102456904D01*
X149863065Y-102513489D01*
X149871270Y-102558214D01*
X149871270Y-103613758D01*
X149851268Y-103681879D01*
X149797612Y-103728372D01*
X149745270Y-103739758D01*
X148901343Y-103739758D01*
X148833222Y-103719756D01*
X148786729Y-103666100D01*
X148776625Y-103595826D01*
X148798610Y-103542644D01*
X148791267Y-103529219D01*
X146660782Y-101398734D01*
X146646838Y-101391120D01*
X146645005Y-101391251D01*
X146638390Y-101395502D01*
X144505880Y-103528012D01*
X144498606Y-103541334D01*
X144522111Y-103605516D01*
X144506608Y-103674799D01*
X144456108Y-103724702D01*
X144396381Y-103739758D01*
X144035338Y-103739758D01*
X143967217Y-103719756D01*
X143946243Y-103702853D01*
X141196705Y-100953315D01*
X143285230Y-100953315D01*
X143303288Y-101309785D01*
X143303998Y-101316541D01*
X143360448Y-101668963D01*
X143361887Y-101675618D01*
X143456064Y-102019873D01*
X143458213Y-102026334D01*
X143589023Y-102358414D01*
X143591854Y-102364597D01*
X143757762Y-102680607D01*
X143761245Y-102686449D01*
X143960310Y-102982689D01*
X143964413Y-102988133D01*
X144059172Y-103100664D01*
X144071911Y-103109107D01*
X144082355Y-103103009D01*
X146210894Y-100974470D01*
X146218508Y-100960526D01*
X146218377Y-100958693D01*
X146214126Y-100952078D01*
X144083530Y-98821482D01*
X144069993Y-98814090D01*
X144060292Y-98820877D01*
X143978619Y-98916505D01*
X143974485Y-98921913D01*
X143773364Y-99216744D01*
X143769829Y-99222581D01*
X143601724Y-99537415D01*
X143598848Y-99543584D01*
X143465724Y-99874739D01*
X143463531Y-99881179D01*
X143366949Y-100224779D01*
X143365466Y-100231414D01*
X143306559Y-100583431D01*
X143305800Y-100590203D01*
X143285254Y-100946520D01*
X143285230Y-100953315D01*
X141196705Y-100953315D01*
X140147374Y-99903984D01*
X140113348Y-99841672D01*
X140110469Y-99814889D01*
X140110469Y-99405888D01*
X140110014Y-99402125D01*
X140100578Y-99324141D01*
X140100577Y-99324138D01*
X140099606Y-99316111D01*
X140044082Y-99175875D01*
X139952892Y-99055736D01*
X139832753Y-98964546D01*
X139692517Y-98909022D01*
X139684479Y-98908049D01*
X139684478Y-98908049D01*
X139652907Y-98904229D01*
X139602741Y-98898158D01*
X139060328Y-98898158D01*
X138517200Y-98898159D01*
X138513442Y-98898614D01*
X138513437Y-98898614D01*
X138435453Y-98908050D01*
X138435450Y-98908051D01*
X138427423Y-98909022D01*
X138287187Y-98964546D01*
X138167048Y-99055736D01*
X138075858Y-99175875D01*
X138020334Y-99316111D01*
X138009470Y-99405887D01*
X138009471Y-100491428D01*
X138009926Y-100495186D01*
X138009926Y-100495191D01*
X138013874Y-100527814D01*
X138020334Y-100581205D01*
X138075858Y-100721441D01*
X138167048Y-100841580D01*
X138287187Y-100932770D01*
X138427423Y-100988294D01*
X138435461Y-100989267D01*
X138435462Y-100989267D01*
X138467033Y-100993087D01*
X138517199Y-100999158D01*
X138926202Y-100999158D01*
X138994323Y-101019160D01*
X139015297Y-101036063D01*
X143079051Y-105099817D01*
X143079980Y-105100755D01*
X143142429Y-105164526D01*
X143148349Y-105168341D01*
X143148355Y-105168346D01*
X143178461Y-105187748D01*
X143188815Y-105195188D01*
X143222304Y-105221922D01*
X143252080Y-105236316D01*
X143252129Y-105236340D01*
X143265544Y-105243869D01*
X143293387Y-105261812D01*
X143300007Y-105264222D01*
X143300008Y-105264222D01*
X143333659Y-105276470D01*
X143345401Y-105281430D01*
X143353070Y-105285137D01*
X143383992Y-105300085D01*
X143390847Y-105301668D01*
X143390851Y-105301669D01*
X143409813Y-105306046D01*
X143416268Y-105307537D01*
X143431016Y-105311906D01*
X143455525Y-105320826D01*
X143455529Y-105320827D01*
X143462148Y-105323236D01*
X143504688Y-105328610D01*
X143517219Y-105330843D01*
X143545935Y-105337473D01*
X143607810Y-105372287D01*
X143641041Y-105435026D01*
X143635077Y-105505772D01*
X143606685Y-105549338D01*
X143475249Y-105680774D01*
X143412937Y-105714800D01*
X143386154Y-105717679D01*
X140460455Y-105717679D01*
X140392334Y-105697677D01*
X140345841Y-105644021D01*
X140335737Y-105573747D01*
X140368680Y-105505346D01*
X140409161Y-105462313D01*
X140463145Y-105404927D01*
X140615684Y-105185043D01*
X140625802Y-105164526D01*
X140731981Y-104949217D01*
X140731982Y-104949214D01*
X140734046Y-104945029D01*
X140815632Y-104690155D01*
X140858648Y-104426022D01*
X140860875Y-104255911D01*
X140862090Y-104163109D01*
X140862090Y-104163106D01*
X140862151Y-104158432D01*
X140826063Y-103893263D01*
X140819432Y-103870511D01*
X140789730Y-103768610D01*
X140751178Y-103636341D01*
X140736968Y-103605516D01*
X140701794Y-103529219D01*
X140639139Y-103393310D01*
X140552196Y-103260700D01*
X140494974Y-103173422D01*
X140494970Y-103173417D01*
X140492408Y-103169509D01*
X140325665Y-102982689D01*
X140317327Y-102973347D01*
X140317325Y-102973345D01*
X140314210Y-102969855D01*
X140108458Y-102798733D01*
X140054282Y-102765858D01*
X139883664Y-102662324D01*
X139883660Y-102662322D01*
X139879672Y-102659902D01*
X139751486Y-102606149D01*
X139637194Y-102558222D01*
X139637189Y-102558220D01*
X139632879Y-102556413D01*
X139628347Y-102555262D01*
X139628344Y-102555261D01*
X139378037Y-102491691D01*
X139378034Y-102491690D01*
X139373500Y-102490539D01*
X139368844Y-102490070D01*
X139368843Y-102490070D01*
X139154368Y-102468474D01*
X139154367Y-102468474D01*
X139151229Y-102468158D01*
X138992026Y-102468158D01*
X138989703Y-102468331D01*
X138989693Y-102468331D01*
X138797758Y-102482594D01*
X138797754Y-102482595D01*
X138793093Y-102482941D01*
X138788529Y-102483974D01*
X138788527Y-102483974D01*
X138649205Y-102515500D01*
X138532079Y-102542003D01*
X138527727Y-102543695D01*
X138527725Y-102543696D01*
X138287014Y-102637303D01*
X138287012Y-102637304D01*
X138282661Y-102638996D01*
X138278607Y-102641313D01*
X138278605Y-102641314D01*
X138226113Y-102671316D01*
X138050320Y-102771790D01*
X137840159Y-102937468D01*
X137836960Y-102940869D01*
X137828725Y-102949623D01*
X137767481Y-102985536D01*
X137696543Y-102982637D01*
X137638435Y-102941846D01*
X137611603Y-102876115D01*
X137610949Y-102863291D01*
X137610949Y-98382227D01*
X144498307Y-98382227D01*
X144505014Y-98394438D01*
X146635158Y-100524582D01*
X146649102Y-100532196D01*
X146650935Y-100532065D01*
X146657550Y-100527814D01*
X148790422Y-98394942D01*
X148797268Y-98382405D01*
X148789041Y-98371318D01*
X148540925Y-98182304D01*
X148535301Y-98178482D01*
X148229692Y-97994127D01*
X148223680Y-97990930D01*
X147899936Y-97840653D01*
X147893636Y-97838133D01*
X147555565Y-97723703D01*
X147548987Y-97721867D01*
X147200562Y-97644623D01*
X147193827Y-97643508D01*
X146839076Y-97604343D01*
X146832294Y-97603964D01*
X146475365Y-97603341D01*
X146468592Y-97603696D01*
X146113684Y-97641624D01*
X146106975Y-97642711D01*
X145758259Y-97718744D01*
X145751684Y-97720555D01*
X145413220Y-97833803D01*
X145406898Y-97836306D01*
X145082650Y-97985443D01*
X145076607Y-97988629D01*
X144770374Y-98171906D01*
X144764714Y-98175724D01*
X144506766Y-98370810D01*
X144498307Y-98382227D01*
X137610949Y-98382227D01*
X137610949Y-97532029D01*
X137630951Y-97463908D01*
X137647853Y-97442934D01*
X137854842Y-97235945D01*
X137917153Y-97201920D01*
X137987969Y-97206984D01*
X138044805Y-97249531D01*
X138065056Y-97290310D01*
X138078514Y-97337244D01*
X138081329Y-97342721D01*
X138081330Y-97342724D01*
X138102217Y-97383365D01*
X138172682Y-97520476D01*
X138300647Y-97681928D01*
X138305340Y-97685922D01*
X138305341Y-97685923D01*
X138450999Y-97809887D01*
X138457534Y-97815449D01*
X138462912Y-97818455D01*
X138462914Y-97818456D01*
X138494533Y-97836127D01*
X138637368Y-97915955D01*
X138732208Y-97946771D01*
X138827441Y-97977714D01*
X138827445Y-97977715D01*
X138833299Y-97979617D01*
X139037864Y-98004009D01*
X139043999Y-98003537D01*
X139044001Y-98003537D01*
X139100009Y-97999227D01*
X139243270Y-97988204D01*
X139249200Y-97986548D01*
X139249202Y-97986548D01*
X139435767Y-97934458D01*
X139435766Y-97934458D01*
X139441695Y-97932803D01*
X139447184Y-97930030D01*
X139447190Y-97930028D01*
X139620086Y-97842691D01*
X139625580Y-97839916D01*
X139633405Y-97833803D01*
X139767380Y-97729130D01*
X139787921Y-97713082D01*
X139849602Y-97641624D01*
X139918510Y-97561792D01*
X139918510Y-97561791D01*
X139922534Y-97557130D01*
X139936794Y-97532029D01*
X139966442Y-97479838D01*
X140024293Y-97378002D01*
X140089321Y-97182521D01*
X140102876Y-97075222D01*
X140131257Y-97010146D01*
X140138787Y-97001919D01*
X140957843Y-96182863D01*
X141020155Y-96148837D01*
X141046938Y-96145958D01*
X149416683Y-96145958D01*
X149484804Y-96165960D01*
G37*
%TD.AperFunction*%
%TA.AperFunction,Conductor*%
G36*
X154391412Y-94966440D02*
G01*
X154412386Y-94983343D01*
X157388233Y-97959189D01*
X157391864Y-97962974D01*
X157425347Y-97999387D01*
X157456732Y-98063066D01*
X157448707Y-98133608D01*
X157429120Y-98165662D01*
X157413994Y-98183688D01*
X157411030Y-98189080D01*
X157411027Y-98189084D01*
X157379373Y-98246663D01*
X157314746Y-98364220D01*
X157252454Y-98560590D01*
X157251768Y-98566707D01*
X157251767Y-98566711D01*
X157249176Y-98589810D01*
X157229490Y-98765320D01*
X157230006Y-98771464D01*
X157242640Y-98921913D01*
X157246729Y-98970611D01*
X157303514Y-99168644D01*
X157306329Y-99174121D01*
X157306330Y-99174124D01*
X157375436Y-99308590D01*
X157397682Y-99351876D01*
X157525647Y-99513328D01*
X157530340Y-99517322D01*
X157530341Y-99517323D01*
X157634712Y-99606149D01*
X157682534Y-99646849D01*
X157862368Y-99747355D01*
X157957208Y-99778171D01*
X158052441Y-99809114D01*
X158052445Y-99809115D01*
X158058299Y-99811017D01*
X158262864Y-99835409D01*
X158268999Y-99834937D01*
X158269001Y-99834937D01*
X158325009Y-99830627D01*
X158468270Y-99819604D01*
X158474200Y-99817948D01*
X158474202Y-99817948D01*
X158660767Y-99765858D01*
X158660766Y-99765858D01*
X158666695Y-99764203D01*
X158672184Y-99761430D01*
X158672190Y-99761428D01*
X158845086Y-99674091D01*
X158850580Y-99671316D01*
X159012921Y-99544482D01*
X159129282Y-99409676D01*
X159143510Y-99393192D01*
X159143510Y-99393191D01*
X159147534Y-99388530D01*
X159168357Y-99351876D01*
X159192949Y-99308585D01*
X159249293Y-99209402D01*
X159314321Y-99013921D01*
X159340141Y-98809532D01*
X159340553Y-98780058D01*
X159320450Y-98575028D01*
X159260905Y-98377807D01*
X159258014Y-98372370D01*
X159258010Y-98372360D01*
X159228149Y-98316200D01*
X159213829Y-98246663D01*
X159239377Y-98180422D01*
X159296681Y-98138510D01*
X159339400Y-98131047D01*
X159805244Y-98131047D01*
X159873365Y-98151049D01*
X159894339Y-98167952D01*
X160213057Y-98486670D01*
X160247083Y-98548982D01*
X160249177Y-98589807D01*
X160229490Y-98765320D01*
X160230006Y-98771464D01*
X160242640Y-98921913D01*
X160246729Y-98970611D01*
X160303514Y-99168644D01*
X160306329Y-99174121D01*
X160306330Y-99174124D01*
X160375436Y-99308590D01*
X160397682Y-99351876D01*
X160525647Y-99513328D01*
X160530340Y-99517322D01*
X160530341Y-99517323D01*
X160634712Y-99606149D01*
X160682534Y-99646849D01*
X160862368Y-99747355D01*
X160957208Y-99778171D01*
X161052441Y-99809114D01*
X161052445Y-99809115D01*
X161058299Y-99811017D01*
X161262864Y-99835409D01*
X161268999Y-99834937D01*
X161269001Y-99834937D01*
X161325009Y-99830627D01*
X161468270Y-99819604D01*
X161474200Y-99817948D01*
X161474202Y-99817948D01*
X161660767Y-99765858D01*
X161660766Y-99765858D01*
X161666695Y-99764203D01*
X161672184Y-99761430D01*
X161672190Y-99761428D01*
X161751179Y-99721527D01*
X161821001Y-99708667D01*
X161886692Y-99735596D01*
X161927396Y-99793766D01*
X161933990Y-99833993D01*
X161933990Y-100725336D01*
X161913988Y-100793457D01*
X161860332Y-100839950D01*
X161790058Y-100850054D01*
X161748062Y-100836172D01*
X161699448Y-100809887D01*
X161699446Y-100809886D01*
X161694025Y-100806955D01*
X161497224Y-100746035D01*
X161491099Y-100745391D01*
X161491098Y-100745391D01*
X161298468Y-100725145D01*
X161298466Y-100725145D01*
X161292339Y-100724501D01*
X161205499Y-100732404D01*
X161093312Y-100742613D01*
X161093309Y-100742614D01*
X161087173Y-100743172D01*
X160889542Y-100801338D01*
X160706972Y-100896784D01*
X160702171Y-100900644D01*
X160702168Y-100900646D01*
X160599329Y-100983331D01*
X160546417Y-101025873D01*
X160413994Y-101183688D01*
X160411026Y-101189086D01*
X160411023Y-101189091D01*
X160321722Y-101351531D01*
X160314746Y-101364220D01*
X160252454Y-101560590D01*
X160251768Y-101566710D01*
X160242223Y-101651798D01*
X160214752Y-101717264D01*
X160206103Y-101726847D01*
X159500097Y-102432853D01*
X159437785Y-102466879D01*
X159411002Y-102469758D01*
X159317880Y-102469758D01*
X159249759Y-102449756D01*
X159203266Y-102396100D01*
X159193162Y-102325826D01*
X159208323Y-102281522D01*
X159236903Y-102231212D01*
X159249293Y-102209402D01*
X159314321Y-102013921D01*
X159340141Y-101809532D01*
X159340553Y-101780058D01*
X159320450Y-101575028D01*
X159260905Y-101377807D01*
X159164188Y-101195907D01*
X159090829Y-101105960D01*
X159037876Y-101041033D01*
X159037873Y-101041030D01*
X159033981Y-101036258D01*
X158976003Y-100988294D01*
X158879995Y-100908869D01*
X158879991Y-100908867D01*
X158875245Y-100904940D01*
X158694025Y-100806955D01*
X158497224Y-100746035D01*
X158491099Y-100745391D01*
X158491098Y-100745391D01*
X158298468Y-100725145D01*
X158298466Y-100725145D01*
X158292339Y-100724501D01*
X158205499Y-100732404D01*
X158093312Y-100742613D01*
X158093309Y-100742614D01*
X158087173Y-100743172D01*
X157889542Y-100801338D01*
X157706972Y-100896784D01*
X157702171Y-100900644D01*
X157702168Y-100900646D01*
X157599329Y-100983331D01*
X157546417Y-101025873D01*
X157413994Y-101183688D01*
X157411026Y-101189086D01*
X157411023Y-101189091D01*
X157321722Y-101351531D01*
X157314746Y-101364220D01*
X157295736Y-101424148D01*
X157289878Y-101442614D01*
X157250214Y-101501498D01*
X157185012Y-101529590D01*
X157114973Y-101517972D01*
X157080681Y-101493610D01*
X150748604Y-95161533D01*
X150714578Y-95099221D01*
X150719643Y-95028406D01*
X150762190Y-94971570D01*
X150828710Y-94946759D01*
X150837699Y-94946438D01*
X154323291Y-94946438D01*
X154391412Y-94966440D01*
G37*
%TD.AperFunction*%
%TD*%
%TA.AperFunction,NonConductor*%
G36*
X139081306Y-91064560D02*
G01*
X139127799Y-91118216D01*
X139137903Y-91188490D01*
X139108409Y-91253070D01*
X139102280Y-91259653D01*
X138114238Y-92247696D01*
X137152965Y-93208969D01*
X137090653Y-93242994D01*
X137019838Y-93237930D01*
X136963002Y-93195383D01*
X136938191Y-93128863D01*
X136937870Y-93119874D01*
X136937870Y-91973886D01*
X136927006Y-91884111D01*
X136871483Y-91743875D01*
X136780292Y-91623736D01*
X136660153Y-91532545D01*
X136588412Y-91504141D01*
X136527447Y-91480003D01*
X136527445Y-91480002D01*
X136519917Y-91477022D01*
X136430142Y-91466158D01*
X135644598Y-91466158D01*
X135554823Y-91477022D01*
X135547295Y-91480002D01*
X135547293Y-91480003D01*
X135486328Y-91504141D01*
X135414587Y-91532545D01*
X135294448Y-91623736D01*
X135203257Y-91743875D01*
X135200095Y-91751862D01*
X135195879Y-91759344D01*
X135194320Y-91758465D01*
X135157065Y-91806215D01*
X135090063Y-91829693D01*
X135021004Y-91813221D01*
X134977555Y-91771932D01*
X134970303Y-91760636D01*
X134847108Y-91603801D01*
X134838871Y-91595152D01*
X134688247Y-91464446D01*
X134678523Y-91457511D01*
X134534386Y-91374125D01*
X134485437Y-91322700D01*
X134472062Y-91252974D01*
X134498506Y-91187086D01*
X134508386Y-91175966D01*
X134602889Y-91081463D01*
X134665201Y-91047437D01*
X134691984Y-91044558D01*
X139013185Y-91044558D01*
X139081306Y-91064560D01*
G37*
%TD.AperFunction*%
%TA.AperFunction,NonConductor*%
G36*
X149155164Y-93047727D02*
G01*
X149207470Y-93095733D01*
X149219403Y-93121863D01*
X149232272Y-93161470D01*
X149272391Y-93284942D01*
X149275694Y-93290663D01*
X149275695Y-93290665D01*
X149286109Y-93308703D01*
X149367037Y-93448874D01*
X149371455Y-93453781D01*
X149371456Y-93453782D01*
X149460650Y-93552841D01*
X149493699Y-93589546D01*
X149499038Y-93593425D01*
X149532177Y-93617502D01*
X149575531Y-93673724D01*
X149581606Y-93744461D01*
X149548474Y-93807252D01*
X149486654Y-93842164D01*
X149458116Y-93845438D01*
X148741024Y-93845438D01*
X148672903Y-93825436D01*
X148626410Y-93771780D01*
X148616306Y-93701506D01*
X148645800Y-93636926D01*
X148666963Y-93617502D01*
X148700102Y-93593425D01*
X148705441Y-93589546D01*
X148738491Y-93552841D01*
X148827684Y-93453782D01*
X148827685Y-93453781D01*
X148832103Y-93448874D01*
X148913031Y-93308703D01*
X148923445Y-93290665D01*
X148923446Y-93290663D01*
X148926749Y-93284942D01*
X148966868Y-93161470D01*
X148979737Y-93121863D01*
X149019811Y-93063257D01*
X149085207Y-93035620D01*
X149155164Y-93047727D01*
G37*
%TD.AperFunction*%
%TA.AperFunction,NonConductor*%
G36*
X151155164Y-93047727D02*
G01*
X151207470Y-93095733D01*
X151219403Y-93121863D01*
X151232272Y-93161470D01*
X151272391Y-93284942D01*
X151275694Y-93290663D01*
X151275695Y-93290665D01*
X151286109Y-93308703D01*
X151367037Y-93448874D01*
X151371455Y-93453781D01*
X151371456Y-93453782D01*
X151460650Y-93552841D01*
X151493699Y-93589546D01*
X151499038Y-93593425D01*
X151532177Y-93617502D01*
X151575531Y-93673724D01*
X151581606Y-93744461D01*
X151548474Y-93807252D01*
X151486654Y-93842164D01*
X151458116Y-93845438D01*
X150741024Y-93845438D01*
X150672903Y-93825436D01*
X150626410Y-93771780D01*
X150616306Y-93701506D01*
X150645800Y-93636926D01*
X150666963Y-93617502D01*
X150700102Y-93593425D01*
X150705441Y-93589546D01*
X150738491Y-93552841D01*
X150827684Y-93453782D01*
X150827685Y-93453781D01*
X150832103Y-93448874D01*
X150913031Y-93308703D01*
X150923445Y-93290665D01*
X150923446Y-93290663D01*
X150926749Y-93284942D01*
X150966868Y-93161470D01*
X150979737Y-93121863D01*
X151019811Y-93063257D01*
X151085207Y-93035620D01*
X151155164Y-93047727D01*
G37*
%TD.AperFunction*%
%TA.AperFunction,NonConductor*%
G36*
X153128664Y-93129285D02*
G01*
X153180970Y-93177291D01*
X153199070Y-93242357D01*
X153199070Y-93309430D01*
X153209934Y-93399205D01*
X153212914Y-93406733D01*
X153212915Y-93406735D01*
X153227334Y-93443153D01*
X153265457Y-93539441D01*
X153270649Y-93546281D01*
X153270652Y-93546286D01*
X153344258Y-93643258D01*
X153369512Y-93709611D01*
X153354884Y-93779085D01*
X153305017Y-93829620D01*
X153243896Y-93845438D01*
X152741024Y-93845438D01*
X152672903Y-93825436D01*
X152626410Y-93771780D01*
X152616306Y-93701506D01*
X152645800Y-93636926D01*
X152666963Y-93617502D01*
X152700102Y-93593425D01*
X152705441Y-93589546D01*
X152738491Y-93552841D01*
X152827684Y-93453782D01*
X152827685Y-93453781D01*
X152832103Y-93448874D01*
X152913031Y-93308703D01*
X152923445Y-93290665D01*
X152923446Y-93290663D01*
X152926749Y-93284942D01*
X152945686Y-93226661D01*
X152953237Y-93203421D01*
X152993311Y-93144815D01*
X153058707Y-93117178D01*
X153128664Y-93129285D01*
G37*
%TD.AperFunction*%
%TA.AperFunction,NonConductor*%
G36*
X144709876Y-91887640D02*
G01*
X144730850Y-91904543D01*
X147156170Y-94329863D01*
X147190196Y-94392175D01*
X147185131Y-94462990D01*
X147142584Y-94519826D01*
X147076064Y-94544637D01*
X147067075Y-94544958D01*
X142201785Y-94544958D01*
X142133664Y-94524956D01*
X142087171Y-94471300D01*
X142077067Y-94401026D01*
X142106561Y-94336446D01*
X142112690Y-94329863D01*
X142588490Y-93854063D01*
X142650802Y-93820037D01*
X142677585Y-93817158D01*
X143415142Y-93817158D01*
X143504917Y-93806294D01*
X143512445Y-93803314D01*
X143512447Y-93803313D01*
X143611227Y-93764203D01*
X143645153Y-93750771D01*
X143765292Y-93659580D01*
X143856483Y-93539441D01*
X143894606Y-93443153D01*
X143909025Y-93406735D01*
X143909026Y-93406733D01*
X143912006Y-93399205D01*
X143922870Y-93309430D01*
X143922870Y-91993638D01*
X143942872Y-91925517D01*
X143996528Y-91879024D01*
X144048870Y-91867638D01*
X144641755Y-91867638D01*
X144709876Y-91887640D01*
G37*
%TD.AperFunction*%
%TA.AperFunction,NonConductor*%
G36*
X140141620Y-93212160D02*
G01*
X140188113Y-93265816D01*
X140192860Y-93278010D01*
X140193151Y-93278663D01*
X140195191Y-93284942D01*
X140289837Y-93448874D01*
X140294255Y-93453781D01*
X140294256Y-93453782D01*
X140383450Y-93552841D01*
X140416499Y-93589546D01*
X140421838Y-93593425D01*
X140454977Y-93617502D01*
X140498331Y-93673724D01*
X140504406Y-93744461D01*
X140471274Y-93807252D01*
X140409454Y-93842164D01*
X140380916Y-93845438D01*
X139931317Y-93845438D01*
X139926041Y-93845327D01*
X139921634Y-93845142D01*
X139864030Y-93842728D01*
X139855665Y-93844690D01*
X139821662Y-93852665D01*
X139809991Y-93854828D01*
X139799231Y-93856302D01*
X139766892Y-93860732D01*
X139759008Y-93864144D01*
X139759007Y-93864144D01*
X139753094Y-93866703D01*
X139731825Y-93873737D01*
X139725552Y-93875208D01*
X139725550Y-93875209D01*
X139717188Y-93877170D01*
X139709660Y-93881309D01*
X139709659Y-93881309D01*
X139679059Y-93898132D01*
X139668397Y-93903355D01*
X139636351Y-93917222D01*
X139636350Y-93917223D01*
X139628469Y-93920633D01*
X139621796Y-93926037D01*
X139616783Y-93930096D01*
X139598195Y-93942587D01*
X139585016Y-93949832D01*
X139576902Y-93956835D01*
X139552366Y-93981371D01*
X139542565Y-93990196D01*
X139517932Y-94010144D01*
X139511254Y-94015552D01*
X139506281Y-94022550D01*
X139506276Y-94022555D01*
X139500356Y-94030886D01*
X139486745Y-94046992D01*
X138094221Y-95439517D01*
X136853765Y-96679973D01*
X136791453Y-96713999D01*
X136720638Y-96708934D01*
X136663802Y-96666387D01*
X136638991Y-96599867D01*
X136638670Y-96590878D01*
X136638670Y-96321773D01*
X136658672Y-96253652D01*
X136675575Y-96232678D01*
X139679190Y-93229063D01*
X139741502Y-93195037D01*
X139768285Y-93192158D01*
X140073499Y-93192158D01*
X140141620Y-93212160D01*
G37*
%TD.AperFunction*%
%TA.AperFunction,NonConductor*%
G36*
X160776145Y-91064560D02*
G01*
X160797119Y-91081462D01*
X161089783Y-91374125D01*
X161230120Y-91514462D01*
X161264145Y-91576775D01*
X161259081Y-91647590D01*
X161216534Y-91704426D01*
X161150014Y-91729237D01*
X161141025Y-91729558D01*
X160750860Y-91729559D01*
X160742200Y-91729559D01*
X160738442Y-91730014D01*
X160738437Y-91730014D01*
X160660453Y-91739450D01*
X160660450Y-91739451D01*
X160652423Y-91740422D01*
X160512187Y-91795946D01*
X160392048Y-91887136D01*
X160300858Y-92007275D01*
X160245334Y-92147511D01*
X160244361Y-92155549D01*
X160244361Y-92155550D01*
X160241596Y-92178402D01*
X160234470Y-92237287D01*
X160234471Y-93322828D01*
X160234926Y-93326586D01*
X160234926Y-93326591D01*
X160243713Y-93399205D01*
X160245334Y-93412605D01*
X160300858Y-93552841D01*
X160392048Y-93672980D01*
X160512187Y-93764170D01*
X160652423Y-93819694D01*
X160660461Y-93820667D01*
X160660462Y-93820667D01*
X160692033Y-93824487D01*
X160742199Y-93830558D01*
X160916935Y-93830558D01*
X161807990Y-93830557D01*
X161876111Y-93850559D01*
X161922604Y-93904215D01*
X161933990Y-93956557D01*
X161933990Y-94725336D01*
X161913988Y-94793457D01*
X161860332Y-94839950D01*
X161790058Y-94850054D01*
X161748062Y-94836172D01*
X161699448Y-94809887D01*
X161699446Y-94809886D01*
X161694025Y-94806955D01*
X161497224Y-94746035D01*
X161491099Y-94745391D01*
X161491098Y-94745391D01*
X161298468Y-94725145D01*
X161298466Y-94725145D01*
X161292339Y-94724501D01*
X161205499Y-94732404D01*
X161093312Y-94742613D01*
X161093309Y-94742614D01*
X161087173Y-94743172D01*
X160889542Y-94801338D01*
X160706972Y-94896784D01*
X160702171Y-94900644D01*
X160702168Y-94900646D01*
X160609893Y-94974837D01*
X160546417Y-95025873D01*
X160413994Y-95183688D01*
X160411026Y-95189086D01*
X160411023Y-95189091D01*
X160334919Y-95327525D01*
X160314746Y-95364220D01*
X160252454Y-95560590D01*
X160251768Y-95566707D01*
X160251767Y-95566711D01*
X160245721Y-95620617D01*
X160229490Y-95765320D01*
X160230728Y-95780058D01*
X160245862Y-95960281D01*
X160246729Y-95970611D01*
X160248428Y-95976536D01*
X160287895Y-96114173D01*
X160303514Y-96168644D01*
X160306329Y-96174121D01*
X160306330Y-96174124D01*
X160355389Y-96269583D01*
X160397682Y-96351876D01*
X160525647Y-96513328D01*
X160530340Y-96517322D01*
X160530341Y-96517323D01*
X160634712Y-96606149D01*
X160682534Y-96646849D01*
X160687912Y-96649855D01*
X160687914Y-96649856D01*
X160731278Y-96674091D01*
X160862368Y-96747355D01*
X160957208Y-96778171D01*
X161052441Y-96809114D01*
X161052445Y-96809115D01*
X161058299Y-96811017D01*
X161262864Y-96835409D01*
X161268999Y-96834937D01*
X161269001Y-96834937D01*
X161325009Y-96830627D01*
X161468270Y-96819604D01*
X161474200Y-96817948D01*
X161474202Y-96817948D01*
X161660767Y-96765858D01*
X161660766Y-96765858D01*
X161666695Y-96764203D01*
X161672184Y-96761430D01*
X161672190Y-96761428D01*
X161751179Y-96721527D01*
X161821001Y-96708667D01*
X161886692Y-96735596D01*
X161927396Y-96793766D01*
X161933990Y-96833993D01*
X161933990Y-97725336D01*
X161913988Y-97793457D01*
X161860332Y-97839950D01*
X161790058Y-97850054D01*
X161748062Y-97836172D01*
X161699448Y-97809887D01*
X161699446Y-97809886D01*
X161694025Y-97806955D01*
X161497224Y-97746035D01*
X161491099Y-97745391D01*
X161491098Y-97745391D01*
X161298468Y-97725145D01*
X161298466Y-97725145D01*
X161292339Y-97724501D01*
X161090438Y-97742875D01*
X161020786Y-97729130D01*
X160989925Y-97706489D01*
X160485341Y-97201905D01*
X160481688Y-97198096D01*
X160467366Y-97182521D01*
X160439660Y-97152391D01*
X160402657Y-97129448D01*
X160392907Y-97122747D01*
X160358242Y-97096435D01*
X160344263Y-97090901D01*
X160324260Y-97080840D01*
X160311473Y-97072912D01*
X160303222Y-97070515D01*
X160303220Y-97070514D01*
X160269687Y-97060772D01*
X160258454Y-97056926D01*
X160218006Y-97040911D01*
X160209465Y-97040013D01*
X160209464Y-97040013D01*
X160203051Y-97039339D01*
X160181076Y-97035027D01*
X160166634Y-97030832D01*
X160159151Y-97030282D01*
X160158251Y-97030216D01*
X160158240Y-97030216D01*
X160155944Y-97030047D01*
X160121242Y-97030047D01*
X160108072Y-97029357D01*
X160097843Y-97028282D01*
X160068005Y-97025146D01*
X160059540Y-97026578D01*
X160059531Y-97026578D01*
X160049459Y-97028282D01*
X160028446Y-97030047D01*
X158634373Y-97030047D01*
X158566252Y-97010045D01*
X158519759Y-96956389D01*
X158509655Y-96886115D01*
X158539149Y-96821535D01*
X158600489Y-96782688D01*
X158660767Y-96765858D01*
X158660766Y-96765858D01*
X158666695Y-96764203D01*
X158672184Y-96761430D01*
X158672190Y-96761428D01*
X158804922Y-96694380D01*
X158850580Y-96671316D01*
X159012921Y-96544482D01*
X159103759Y-96439245D01*
X159143510Y-96393192D01*
X159143510Y-96393191D01*
X159147534Y-96388530D01*
X159166138Y-96355782D01*
X159212517Y-96274139D01*
X159249293Y-96209402D01*
X159314321Y-96013921D01*
X159340141Y-95809532D01*
X159340553Y-95780058D01*
X159320450Y-95575028D01*
X159260905Y-95377807D01*
X159164188Y-95195907D01*
X159080051Y-95092745D01*
X159037876Y-95041033D01*
X159037873Y-95041030D01*
X159033981Y-95036258D01*
X159016756Y-95022008D01*
X158879995Y-94908869D01*
X158879991Y-94908867D01*
X158875245Y-94904940D01*
X158717617Y-94819711D01*
X158699444Y-94809885D01*
X158694025Y-94806955D01*
X158497224Y-94746035D01*
X158491099Y-94745391D01*
X158491098Y-94745391D01*
X158298468Y-94725145D01*
X158298466Y-94725145D01*
X158292339Y-94724501D01*
X158205499Y-94732404D01*
X158093312Y-94742613D01*
X158093309Y-94742614D01*
X158087173Y-94743172D01*
X157889542Y-94801338D01*
X157706972Y-94896784D01*
X157702171Y-94900644D01*
X157702168Y-94900646D01*
X157609893Y-94974837D01*
X157546417Y-95025873D01*
X157413994Y-95183688D01*
X157411026Y-95189086D01*
X157411023Y-95189091D01*
X157334919Y-95327525D01*
X157314746Y-95364220D01*
X157252454Y-95560590D01*
X157251768Y-95566707D01*
X157251767Y-95566711D01*
X157245721Y-95620617D01*
X157229490Y-95765320D01*
X157230006Y-95771464D01*
X157230006Y-95771465D01*
X157244504Y-95944121D01*
X157230272Y-96013676D01*
X157180695Y-96064496D01*
X157111513Y-96080445D01*
X157044691Y-96056459D01*
X157029856Y-96043763D01*
X155003388Y-94017296D01*
X154999735Y-94013487D01*
X154963521Y-93974105D01*
X154957707Y-93967782D01*
X154920704Y-93944839D01*
X154910954Y-93938138D01*
X154876289Y-93911826D01*
X154862310Y-93906292D01*
X154842307Y-93896231D01*
X154829524Y-93888305D01*
X154830948Y-93886008D01*
X154787248Y-93848863D01*
X154766600Y-93780936D01*
X154785953Y-93712628D01*
X154816413Y-93679377D01*
X154835651Y-93664774D01*
X154835657Y-93664768D01*
X154842492Y-93659580D01*
X154933683Y-93539441D01*
X154971806Y-93443153D01*
X154986225Y-93406735D01*
X154986226Y-93406733D01*
X154989206Y-93399205D01*
X155000070Y-93309430D01*
X155000070Y-92765320D01*
X157229490Y-92765320D01*
X157230006Y-92771464D01*
X157241672Y-92910384D01*
X157246729Y-92970611D01*
X157248428Y-92976536D01*
X157299413Y-93154341D01*
X157303514Y-93168644D01*
X157306329Y-93174121D01*
X157306330Y-93174124D01*
X157393289Y-93343328D01*
X157397682Y-93351876D01*
X157525647Y-93513328D01*
X157530340Y-93517322D01*
X157530341Y-93517323D01*
X157612803Y-93587503D01*
X157682534Y-93646849D01*
X157687912Y-93649855D01*
X157687914Y-93649856D01*
X157717053Y-93666141D01*
X157862368Y-93747355D01*
X157923848Y-93767331D01*
X158052441Y-93809114D01*
X158052445Y-93809115D01*
X158058299Y-93811017D01*
X158262864Y-93835409D01*
X158268999Y-93834937D01*
X158269001Y-93834937D01*
X158338099Y-93829620D01*
X158468270Y-93819604D01*
X158474200Y-93817948D01*
X158474202Y-93817948D01*
X158613393Y-93779085D01*
X158666695Y-93764203D01*
X158672184Y-93761430D01*
X158672190Y-93761428D01*
X158804922Y-93694380D01*
X158850580Y-93671316D01*
X158858954Y-93664774D01*
X159008071Y-93548271D01*
X159012921Y-93544482D01*
X159017273Y-93539441D01*
X159143510Y-93393192D01*
X159143510Y-93393191D01*
X159147534Y-93388530D01*
X159168357Y-93351876D01*
X159206380Y-93284942D01*
X159249293Y-93209402D01*
X159314321Y-93013921D01*
X159340141Y-92809532D01*
X159340553Y-92780058D01*
X159320450Y-92575028D01*
X159260905Y-92377807D01*
X159164188Y-92195907D01*
X159069571Y-92079895D01*
X159037876Y-92041033D01*
X159037873Y-92041030D01*
X159033981Y-92036258D01*
X158998947Y-92007275D01*
X158879995Y-91908869D01*
X158879991Y-91908867D01*
X158875245Y-91904940D01*
X158694025Y-91806955D01*
X158497224Y-91746035D01*
X158491099Y-91745391D01*
X158491098Y-91745391D01*
X158298468Y-91725145D01*
X158298466Y-91725145D01*
X158292339Y-91724501D01*
X158205499Y-91732404D01*
X158093312Y-91742613D01*
X158093309Y-91742614D01*
X158087173Y-91743172D01*
X157889542Y-91801338D01*
X157706972Y-91896784D01*
X157702171Y-91900644D01*
X157702168Y-91900646D01*
X157569548Y-92007275D01*
X157546417Y-92025873D01*
X157413994Y-92183688D01*
X157411026Y-92189086D01*
X157411023Y-92189091D01*
X157327055Y-92341830D01*
X157314746Y-92364220D01*
X157252454Y-92560590D01*
X157251768Y-92566707D01*
X157251767Y-92566711D01*
X157243968Y-92636241D01*
X157229490Y-92765320D01*
X155000070Y-92765320D01*
X155000070Y-91973886D01*
X154989206Y-91884111D01*
X154933683Y-91743875D01*
X154842492Y-91623736D01*
X154722353Y-91532545D01*
X154650612Y-91504141D01*
X154589647Y-91480003D01*
X154589645Y-91480002D01*
X154582117Y-91477022D01*
X154492342Y-91466158D01*
X153706798Y-91466158D01*
X153617023Y-91477022D01*
X153609495Y-91480002D01*
X153609493Y-91480003D01*
X153548528Y-91504141D01*
X153476787Y-91532545D01*
X153356648Y-91623736D01*
X153265457Y-91743875D01*
X153209934Y-91884111D01*
X153199070Y-91973886D01*
X153199070Y-92040959D01*
X153179068Y-92109080D01*
X153125412Y-92155573D01*
X153055138Y-92165677D01*
X152990558Y-92136183D01*
X152953237Y-92079895D01*
X152928791Y-92004659D01*
X152926749Y-91998374D01*
X152914799Y-91977675D01*
X152835406Y-91840163D01*
X152832103Y-91834442D01*
X152827684Y-91829534D01*
X152709856Y-91698673D01*
X152709854Y-91698672D01*
X152705441Y-91693770D01*
X152644163Y-91649249D01*
X152557642Y-91586388D01*
X152557641Y-91586387D01*
X152552300Y-91582507D01*
X152379373Y-91505514D01*
X152281358Y-91484680D01*
X152200673Y-91467530D01*
X152200669Y-91467530D01*
X152194216Y-91466158D01*
X152004924Y-91466158D01*
X151998471Y-91467530D01*
X151998467Y-91467530D01*
X151917782Y-91484680D01*
X151819767Y-91505514D01*
X151646840Y-91582507D01*
X151641499Y-91586387D01*
X151641498Y-91586388D01*
X151554977Y-91649249D01*
X151493699Y-91693770D01*
X151489286Y-91698672D01*
X151489284Y-91698673D01*
X151371456Y-91829534D01*
X151367037Y-91834442D01*
X151363734Y-91840163D01*
X151284342Y-91977675D01*
X151272391Y-91998374D01*
X151270349Y-92004659D01*
X151219403Y-92161453D01*
X151179329Y-92220059D01*
X151113933Y-92247696D01*
X151043976Y-92235589D01*
X150991670Y-92187583D01*
X150979737Y-92161453D01*
X150928791Y-92004659D01*
X150926749Y-91998374D01*
X150914799Y-91977675D01*
X150835406Y-91840163D01*
X150832103Y-91834442D01*
X150827684Y-91829534D01*
X150709856Y-91698673D01*
X150709854Y-91698672D01*
X150705441Y-91693770D01*
X150644163Y-91649249D01*
X150557642Y-91586388D01*
X150557641Y-91586387D01*
X150552300Y-91582507D01*
X150379373Y-91505514D01*
X150281358Y-91484680D01*
X150200673Y-91467530D01*
X150200669Y-91467530D01*
X150194216Y-91466158D01*
X150004924Y-91466158D01*
X149998471Y-91467530D01*
X149998467Y-91467530D01*
X149917782Y-91484680D01*
X149819767Y-91505514D01*
X149646840Y-91582507D01*
X149641499Y-91586387D01*
X149641498Y-91586388D01*
X149554977Y-91649249D01*
X149493699Y-91693770D01*
X149489286Y-91698672D01*
X149489284Y-91698673D01*
X149371456Y-91829534D01*
X149367037Y-91834442D01*
X149363734Y-91840163D01*
X149284342Y-91977675D01*
X149272391Y-91998374D01*
X149270349Y-92004659D01*
X149219403Y-92161453D01*
X149179329Y-92220059D01*
X149113933Y-92247696D01*
X149043976Y-92235589D01*
X148991670Y-92187583D01*
X148979737Y-92161453D01*
X148928791Y-92004659D01*
X148926749Y-91998374D01*
X148914799Y-91977675D01*
X148835406Y-91840163D01*
X148832103Y-91834442D01*
X148827684Y-91829534D01*
X148709856Y-91698673D01*
X148709854Y-91698672D01*
X148705441Y-91693770D01*
X148644163Y-91649249D01*
X148557642Y-91586388D01*
X148557641Y-91586387D01*
X148552300Y-91582507D01*
X148379373Y-91505514D01*
X148281358Y-91484680D01*
X148200673Y-91467530D01*
X148200669Y-91467530D01*
X148194216Y-91466158D01*
X148004924Y-91466158D01*
X147998471Y-91467530D01*
X147998467Y-91467530D01*
X147917782Y-91484680D01*
X147819767Y-91505514D01*
X147646840Y-91582507D01*
X147641499Y-91586387D01*
X147641498Y-91586388D01*
X147554977Y-91649249D01*
X147493699Y-91693770D01*
X147489286Y-91698672D01*
X147489284Y-91698673D01*
X147371456Y-91829534D01*
X147367037Y-91834442D01*
X147363734Y-91840163D01*
X147284342Y-91977675D01*
X147272391Y-91998374D01*
X147213896Y-92178402D01*
X147213206Y-92184963D01*
X147213206Y-92184965D01*
X147210166Y-92213891D01*
X147199070Y-92319466D01*
X147199070Y-92511523D01*
X147179068Y-92579644D01*
X147125412Y-92626137D01*
X147055138Y-92636241D01*
X146990558Y-92606747D01*
X146983975Y-92600618D01*
X145643009Y-91259653D01*
X145608984Y-91197341D01*
X145614048Y-91126526D01*
X145656595Y-91069690D01*
X145723115Y-91044879D01*
X145732104Y-91044558D01*
X160708024Y-91044558D01*
X160776145Y-91064560D01*
G37*
%TD.AperFunction*%
%TA.AperFunction,NonConductor*%
G36*
X161886692Y-102735596D02*
G01*
X161927396Y-102793766D01*
X161933990Y-102833993D01*
X161933990Y-103725336D01*
X161913988Y-103793457D01*
X161860332Y-103839950D01*
X161790058Y-103850054D01*
X161748062Y-103836172D01*
X161699448Y-103809887D01*
X161699446Y-103809886D01*
X161694025Y-103806955D01*
X161497224Y-103746035D01*
X161491099Y-103745391D01*
X161491098Y-103745391D01*
X161298468Y-103725145D01*
X161298466Y-103725145D01*
X161292339Y-103724501D01*
X161205499Y-103732404D01*
X161093312Y-103742613D01*
X161093309Y-103742614D01*
X161087173Y-103743172D01*
X160889542Y-103801338D01*
X160706972Y-103896784D01*
X160702171Y-103900644D01*
X160702168Y-103900646D01*
X160551224Y-104022008D01*
X160546417Y-104025873D01*
X160413994Y-104183688D01*
X160411026Y-104189086D01*
X160411023Y-104189091D01*
X160374289Y-104255911D01*
X160314746Y-104364220D01*
X160252454Y-104560590D01*
X160251768Y-104566710D01*
X160242223Y-104651798D01*
X160214752Y-104717264D01*
X160206103Y-104726847D01*
X159540786Y-105392164D01*
X159478474Y-105426190D01*
X159451691Y-105429069D01*
X159340994Y-105429069D01*
X159272873Y-105409067D01*
X159226380Y-105355411D01*
X159216276Y-105285137D01*
X159231438Y-105240832D01*
X159246247Y-105214765D01*
X159246249Y-105214760D01*
X159249293Y-105209402D01*
X159314321Y-105013921D01*
X159340141Y-104809532D01*
X159340553Y-104780058D01*
X159320450Y-104575028D01*
X159260905Y-104377807D01*
X159258011Y-104372365D01*
X159258009Y-104372359D01*
X159196093Y-104255911D01*
X159181773Y-104186374D01*
X159207321Y-104120133D01*
X159264626Y-104078221D01*
X159307344Y-104070758D01*
X159785687Y-104070758D01*
X159787008Y-104070765D01*
X159876177Y-104071699D01*
X159918066Y-104062642D01*
X159930640Y-104060583D01*
X159945247Y-104058944D01*
X159966246Y-104056589D01*
X159966248Y-104056588D01*
X159973242Y-104055804D01*
X160004529Y-104044908D01*
X160019334Y-104040747D01*
X160044831Y-104035235D01*
X160044834Y-104035234D01*
X160051712Y-104033747D01*
X160090569Y-104015628D01*
X160102352Y-104010844D01*
X160142843Y-103996743D01*
X160170937Y-103979188D01*
X160184452Y-103971850D01*
X160214477Y-103957849D01*
X160227784Y-103947527D01*
X160248337Y-103931584D01*
X160258794Y-103924289D01*
X160289170Y-103905308D01*
X160289173Y-103905306D01*
X160295145Y-103901574D01*
X160300143Y-103896611D01*
X160323663Y-103873255D01*
X160324285Y-103872673D01*
X160324947Y-103872159D01*
X160350807Y-103846299D01*
X160422577Y-103775028D01*
X160423229Y-103774001D01*
X160424313Y-103772793D01*
X161336978Y-102860128D01*
X161399290Y-102826102D01*
X161416403Y-102823595D01*
X161468270Y-102819604D01*
X161666695Y-102764203D01*
X161672184Y-102761430D01*
X161672190Y-102761428D01*
X161751179Y-102721527D01*
X161821001Y-102708667D01*
X161886692Y-102735596D01*
G37*
%TD.AperFunction*%
%TA.AperFunction,NonConductor*%
G36*
X149895524Y-106060280D02*
G01*
X149942017Y-106113936D01*
X149952121Y-106184210D01*
X149922627Y-106248790D01*
X149862901Y-106287174D01*
X149853600Y-106289525D01*
X149727567Y-106316314D01*
X149554640Y-106393307D01*
X149549299Y-106397187D01*
X149549298Y-106397188D01*
X149497893Y-106434536D01*
X149401499Y-106504570D01*
X149397086Y-106509472D01*
X149397084Y-106509473D01*
X149323455Y-106591246D01*
X149274837Y-106645242D01*
X149271534Y-106650963D01*
X149234222Y-106715589D01*
X149182839Y-106764582D01*
X149113126Y-106778018D01*
X149047215Y-106751632D01*
X149013087Y-106710281D01*
X148946751Y-106581480D01*
X148940301Y-106571434D01*
X148817108Y-106414601D01*
X148808871Y-106405952D01*
X148658244Y-106275245D01*
X148649288Y-106268856D01*
X148605445Y-106213015D01*
X148598753Y-106142334D01*
X148631336Y-106079256D01*
X148692849Y-106043806D01*
X148722457Y-106040278D01*
X149827403Y-106040278D01*
X149895524Y-106060280D01*
G37*
%TD.AperFunction*%
%TA.AperFunction,NonConductor*%
G36*
X151563856Y-106060280D02*
G01*
X151610349Y-106113936D01*
X151620453Y-106184210D01*
X151590959Y-106248790D01*
X151528387Y-106287391D01*
X151524823Y-106287822D01*
X151384587Y-106343345D01*
X151264448Y-106434536D01*
X151173257Y-106554675D01*
X151170095Y-106562662D01*
X151136084Y-106648565D01*
X151117734Y-106694911D01*
X151106870Y-106784686D01*
X151106870Y-106851759D01*
X151086868Y-106919880D01*
X151033212Y-106966373D01*
X150962938Y-106976477D01*
X150898358Y-106946983D01*
X150861037Y-106890695D01*
X150842928Y-106834961D01*
X150834549Y-106809174D01*
X150827760Y-106797414D01*
X150743206Y-106650963D01*
X150739903Y-106645242D01*
X150691285Y-106591246D01*
X150617656Y-106509473D01*
X150617654Y-106509472D01*
X150613241Y-106504570D01*
X150516847Y-106434536D01*
X150465442Y-106397188D01*
X150465441Y-106397187D01*
X150460100Y-106393307D01*
X150287173Y-106316314D01*
X150161140Y-106289525D01*
X150098667Y-106255797D01*
X150064345Y-106193647D01*
X150069073Y-106122808D01*
X150111349Y-106065770D01*
X150177750Y-106040643D01*
X150187337Y-106040278D01*
X151495735Y-106040278D01*
X151563856Y-106060280D01*
G37*
%TD.AperFunction*%
%TA.AperFunction,NonConductor*%
G36*
X155679604Y-105360760D02*
G01*
X155700578Y-105377663D01*
X157112043Y-106789128D01*
X157112972Y-106790066D01*
X157175421Y-106853837D01*
X157181341Y-106857652D01*
X157181347Y-106857657D01*
X157211453Y-106877059D01*
X157221807Y-106884499D01*
X157229569Y-106890695D01*
X157255296Y-106911233D01*
X157261634Y-106914297D01*
X157261639Y-106914300D01*
X157285115Y-106925648D01*
X157298535Y-106933179D01*
X157320453Y-106947305D01*
X157320461Y-106947309D01*
X157326379Y-106951123D01*
X157332999Y-106953533D01*
X157333000Y-106953533D01*
X157366650Y-106965781D01*
X157378388Y-106970739D01*
X157385114Y-106973990D01*
X157437741Y-107021643D01*
X157456251Y-107090184D01*
X157434766Y-107157852D01*
X157426811Y-107168413D01*
X157413994Y-107183688D01*
X157411026Y-107189086D01*
X157411023Y-107189091D01*
X157340784Y-107316857D01*
X157314746Y-107364220D01*
X157295061Y-107426276D01*
X157289878Y-107442614D01*
X157250214Y-107501498D01*
X157185012Y-107529590D01*
X157114973Y-107517972D01*
X157080681Y-107493610D01*
X156134906Y-106547835D01*
X155142923Y-105555853D01*
X155108898Y-105493541D01*
X155113962Y-105422726D01*
X155156509Y-105365890D01*
X155223029Y-105341079D01*
X155232018Y-105340758D01*
X155611483Y-105340758D01*
X155679604Y-105360760D01*
G37*
%TD.AperFunction*%
%TA.AperFunction,NonConductor*%
G36*
X161886692Y-105735596D02*
G01*
X161927396Y-105793766D01*
X161933990Y-105833993D01*
X161933990Y-106725336D01*
X161913988Y-106793457D01*
X161860332Y-106839950D01*
X161790058Y-106850054D01*
X161748062Y-106836172D01*
X161699448Y-106809887D01*
X161699446Y-106809886D01*
X161694025Y-106806955D01*
X161497224Y-106746035D01*
X161491099Y-106745391D01*
X161491098Y-106745391D01*
X161298468Y-106725145D01*
X161298466Y-106725145D01*
X161292339Y-106724501D01*
X161208794Y-106732104D01*
X161093312Y-106742613D01*
X161093309Y-106742614D01*
X161087173Y-106743172D01*
X160889542Y-106801338D01*
X160884077Y-106804195D01*
X160831905Y-106831470D01*
X160706972Y-106896784D01*
X160702171Y-106900644D01*
X160702168Y-106900646D01*
X160555316Y-107018718D01*
X160546417Y-107025873D01*
X160413994Y-107183688D01*
X160411026Y-107189086D01*
X160411023Y-107189091D01*
X160340784Y-107316857D01*
X160314746Y-107364220D01*
X160252454Y-107560590D01*
X160251768Y-107566707D01*
X160251767Y-107566711D01*
X160241885Y-107654814D01*
X160229490Y-107765320D01*
X160230423Y-107776426D01*
X160243483Y-107931952D01*
X160246729Y-107970611D01*
X160248428Y-107976536D01*
X160298977Y-108152820D01*
X160303514Y-108168644D01*
X160306329Y-108174121D01*
X160306330Y-108174124D01*
X160389707Y-108336359D01*
X160397682Y-108351876D01*
X160525647Y-108513328D01*
X160530340Y-108517322D01*
X160530341Y-108517323D01*
X160634712Y-108606149D01*
X160682534Y-108646849D01*
X160687912Y-108649855D01*
X160687914Y-108649856D01*
X160719533Y-108667527D01*
X160862368Y-108747355D01*
X160919327Y-108765862D01*
X161052441Y-108809114D01*
X161052445Y-108809115D01*
X161058299Y-108811017D01*
X161262864Y-108835409D01*
X161268999Y-108834937D01*
X161269001Y-108834937D01*
X161325009Y-108830627D01*
X161468270Y-108819604D01*
X161474200Y-108817948D01*
X161474202Y-108817948D01*
X161660767Y-108765858D01*
X161660766Y-108765858D01*
X161666695Y-108764203D01*
X161672184Y-108761430D01*
X161672190Y-108761428D01*
X161751179Y-108721527D01*
X161821001Y-108708667D01*
X161886692Y-108735596D01*
X161927396Y-108793766D01*
X161933990Y-108833993D01*
X161933990Y-109725336D01*
X161913988Y-109793457D01*
X161860332Y-109839950D01*
X161790058Y-109850054D01*
X161748062Y-109836172D01*
X161699448Y-109809887D01*
X161699446Y-109809886D01*
X161694025Y-109806955D01*
X161497224Y-109746035D01*
X161491099Y-109745391D01*
X161491098Y-109745391D01*
X161298468Y-109725145D01*
X161298466Y-109725145D01*
X161292339Y-109724501D01*
X161090438Y-109742875D01*
X161020786Y-109729130D01*
X160989925Y-109706489D01*
X160485341Y-109201905D01*
X160481688Y-109198096D01*
X160445474Y-109158714D01*
X160439660Y-109152391D01*
X160402657Y-109129448D01*
X160392907Y-109122747D01*
X160358242Y-109096435D01*
X160344263Y-109090901D01*
X160324260Y-109080840D01*
X160311473Y-109072912D01*
X160303222Y-109070515D01*
X160303220Y-109070514D01*
X160269687Y-109060772D01*
X160258454Y-109056926D01*
X160255744Y-109055853D01*
X160218006Y-109040911D01*
X160209465Y-109040013D01*
X160209464Y-109040013D01*
X160203051Y-109039339D01*
X160181076Y-109035027D01*
X160166634Y-109030832D01*
X160159151Y-109030282D01*
X160158251Y-109030216D01*
X160158240Y-109030216D01*
X160155944Y-109030047D01*
X160121242Y-109030047D01*
X160108072Y-109029357D01*
X160097843Y-109028282D01*
X160068005Y-109025146D01*
X160059540Y-109026578D01*
X160059531Y-109026578D01*
X160049459Y-109028282D01*
X160028446Y-109030047D01*
X158669308Y-109030047D01*
X158601187Y-109010045D01*
X158580213Y-108993142D01*
X158572588Y-108985517D01*
X158538562Y-108923205D01*
X158543627Y-108852390D01*
X158586174Y-108795554D01*
X158627799Y-108775064D01*
X158660758Y-108765862D01*
X158660771Y-108765857D01*
X158666695Y-108764203D01*
X158672184Y-108761430D01*
X158672190Y-108761428D01*
X158845086Y-108674091D01*
X158850580Y-108671316D01*
X159012921Y-108544482D01*
X159147534Y-108388530D01*
X159157359Y-108371236D01*
X159203675Y-108289704D01*
X159249293Y-108209402D01*
X159314321Y-108013921D01*
X159340141Y-107809532D01*
X159340553Y-107780058D01*
X159320450Y-107575028D01*
X159260905Y-107377807D01*
X159210253Y-107282543D01*
X159174458Y-107215222D01*
X159160139Y-107145684D01*
X159185687Y-107079444D01*
X159242992Y-107037531D01*
X159285710Y-107030069D01*
X159826376Y-107030069D01*
X159827697Y-107030076D01*
X159916866Y-107031010D01*
X159958755Y-107021953D01*
X159971329Y-107019894D01*
X159986178Y-107018228D01*
X160006935Y-107015900D01*
X160006937Y-107015899D01*
X160013931Y-107015115D01*
X160045218Y-107004219D01*
X160060023Y-107000058D01*
X160085520Y-106994546D01*
X160085523Y-106994545D01*
X160092401Y-106993058D01*
X160131258Y-106974939D01*
X160143041Y-106970155D01*
X160183532Y-106956054D01*
X160211626Y-106938499D01*
X160225141Y-106931161D01*
X160255166Y-106917160D01*
X160270408Y-106905337D01*
X160289026Y-106890895D01*
X160299483Y-106883600D01*
X160329859Y-106864619D01*
X160329862Y-106864617D01*
X160335834Y-106860885D01*
X160340985Y-106855770D01*
X160364352Y-106832566D01*
X160364974Y-106831984D01*
X160365636Y-106831470D01*
X160391496Y-106805610D01*
X160463266Y-106734339D01*
X160463918Y-106733312D01*
X160465002Y-106732104D01*
X161336978Y-105860128D01*
X161399290Y-105826102D01*
X161416403Y-105823595D01*
X161468270Y-105819604D01*
X161666695Y-105764203D01*
X161672184Y-105761430D01*
X161672190Y-105761428D01*
X161751179Y-105721527D01*
X161821001Y-105708667D01*
X161886692Y-105735596D01*
G37*
%TD.AperFunction*%
%TA.AperFunction,NonConductor*%
G36*
X154086230Y-106060280D02*
G01*
X154107204Y-106077183D01*
X155945736Y-107915714D01*
X157730654Y-109700632D01*
X157764680Y-109762944D01*
X157759615Y-109833759D01*
X157717068Y-109890595D01*
X157711942Y-109894186D01*
X157706972Y-109896784D01*
X157546417Y-110025873D01*
X157413994Y-110183688D01*
X157411026Y-110189086D01*
X157411023Y-110189091D01*
X157379373Y-110246663D01*
X157314746Y-110364220D01*
X157252454Y-110560590D01*
X157251768Y-110566707D01*
X157251767Y-110566711D01*
X157230177Y-110759195D01*
X157229490Y-110765320D01*
X157241223Y-110905034D01*
X157241746Y-110911267D01*
X157227515Y-110980823D01*
X157177938Y-111031643D01*
X157108756Y-111047592D01*
X157041933Y-111023606D01*
X157027093Y-111010906D01*
X154414523Y-108398336D01*
X154410870Y-108394527D01*
X154405355Y-108388530D01*
X154368842Y-108348822D01*
X154331839Y-108325879D01*
X154322089Y-108319178D01*
X154287424Y-108292866D01*
X154273445Y-108287332D01*
X154253442Y-108277271D01*
X154240655Y-108269343D01*
X154232404Y-108266946D01*
X154232402Y-108266945D01*
X154198869Y-108257203D01*
X154187636Y-108253357D01*
X154166994Y-108245184D01*
X154147188Y-108237342D01*
X154138647Y-108236444D01*
X154138646Y-108236444D01*
X154132233Y-108235770D01*
X154110258Y-108231458D01*
X154095816Y-108227263D01*
X154088333Y-108226713D01*
X154087433Y-108226647D01*
X154087422Y-108226647D01*
X154085126Y-108226478D01*
X154050424Y-108226478D01*
X154037254Y-108225788D01*
X154027025Y-108224713D01*
X153997187Y-108221577D01*
X153988722Y-108223009D01*
X153988713Y-108223009D01*
X153978641Y-108224713D01*
X153957628Y-108226478D01*
X153033870Y-108226478D01*
X152965749Y-108206476D01*
X152919256Y-108152820D01*
X152907870Y-108100478D01*
X152907870Y-106784686D01*
X152897006Y-106694911D01*
X152878657Y-106648565D01*
X152844645Y-106562662D01*
X152841483Y-106554675D01*
X152750292Y-106434536D01*
X152630153Y-106343345D01*
X152489917Y-106287822D01*
X152486265Y-106287380D01*
X152426890Y-106252248D01*
X152395034Y-106188800D01*
X152402538Y-106118201D01*
X152447019Y-106062866D01*
X152519005Y-106040278D01*
X154018109Y-106040278D01*
X154086230Y-106060280D01*
G37*
%TD.AperFunction*%
M02*
