%TF.GenerationSoftware,KiCad,Pcbnew,(6.0.5-0)*%
%TF.CreationDate,2022-05-29T18:31:12+08:00*%
%TF.ProjectId,StealthBurner,53746561-6c74-4684-9275-726e65722e6b,Bata1*%
%TF.SameCoordinates,Original*%
%TF.FileFunction,Legend,Top*%
%TF.FilePolarity,Positive*%
%FSLAX46Y46*%
G04 Gerber Fmt 4.6, Leading zero omitted, Abs format (unit mm)*
G04 Created by KiCad (PCBNEW (6.0.5-0)) date 2022-05-29 18:31:12*
%MOMM*%
%LPD*%
G01*
G04 APERTURE LIST*
%ADD10C,0.200000*%
%ADD11C,0.150000*%
%ADD12C,0.120000*%
%ADD13C,0.750000*%
%ADD14C,0.020000*%
G04 APERTURE END LIST*
D10*
X136785714Y-108357142D02*
X136738095Y-108404761D01*
X136595238Y-108452380D01*
X136500000Y-108452380D01*
X136357142Y-108404761D01*
X136261904Y-108309523D01*
X136214285Y-108214285D01*
X136166666Y-108023809D01*
X136166666Y-107880952D01*
X136214285Y-107690476D01*
X136261904Y-107595238D01*
X136357142Y-107500000D01*
X136500000Y-107452380D01*
X136595238Y-107452380D01*
X136738095Y-107500000D01*
X136785714Y-107547619D01*
X137214285Y-108452380D02*
X137214285Y-107452380D01*
X137642857Y-108452380D02*
X137642857Y-107928571D01*
X137595238Y-107833333D01*
X137500000Y-107785714D01*
X137357142Y-107785714D01*
X137261904Y-107833333D01*
X137214285Y-107880952D01*
X138547619Y-108452380D02*
X138547619Y-107928571D01*
X138500000Y-107833333D01*
X138404761Y-107785714D01*
X138214285Y-107785714D01*
X138119047Y-107833333D01*
X138547619Y-108404761D02*
X138452380Y-108452380D01*
X138214285Y-108452380D01*
X138119047Y-108404761D01*
X138071428Y-108309523D01*
X138071428Y-108214285D01*
X138119047Y-108119047D01*
X138214285Y-108071428D01*
X138452380Y-108071428D01*
X138547619Y-108023809D01*
X139023809Y-108452380D02*
X139023809Y-107785714D01*
X139023809Y-107976190D02*
X139071428Y-107880952D01*
X139119047Y-107833333D01*
X139214285Y-107785714D01*
X139309523Y-107785714D01*
X139785714Y-108452380D02*
X139690476Y-108404761D01*
X139642857Y-108309523D01*
X139642857Y-107452380D01*
X140166666Y-108452380D02*
X140166666Y-107785714D01*
X140166666Y-107452380D02*
X140119047Y-107500000D01*
X140166666Y-107547619D01*
X140214285Y-107500000D01*
X140166666Y-107452380D01*
X140166666Y-107547619D01*
X141023809Y-108404761D02*
X140928571Y-108452380D01*
X140738095Y-108452380D01*
X140642857Y-108404761D01*
X140595238Y-108309523D01*
X140595238Y-107928571D01*
X140642857Y-107833333D01*
X140738095Y-107785714D01*
X140928571Y-107785714D01*
X141023809Y-107833333D01*
X141071428Y-107928571D01*
X141071428Y-108023809D01*
X140595238Y-108119047D01*
X141690476Y-107976190D02*
X141690476Y-108452380D01*
X141357142Y-107452380D02*
X141690476Y-107976190D01*
X142023809Y-107452380D01*
X142785714Y-107785714D02*
X142785714Y-108452380D01*
X142357142Y-107785714D02*
X142357142Y-108309523D01*
X142404761Y-108404761D01*
X142500000Y-108452380D01*
X142642857Y-108452380D01*
X142738095Y-108404761D01*
X142785714Y-108357142D01*
X137071428Y-105952380D02*
X136595238Y-105952380D01*
X136595238Y-104952380D01*
X137833333Y-105952380D02*
X137833333Y-105428571D01*
X137785714Y-105333333D01*
X137690476Y-105285714D01*
X137500000Y-105285714D01*
X137404761Y-105333333D01*
X137833333Y-105904761D02*
X137738095Y-105952380D01*
X137500000Y-105952380D01*
X137404761Y-105904761D01*
X137357142Y-105809523D01*
X137357142Y-105714285D01*
X137404761Y-105619047D01*
X137500000Y-105571428D01*
X137738095Y-105571428D01*
X137833333Y-105523809D01*
X138261904Y-105904761D02*
X138357142Y-105952380D01*
X138547619Y-105952380D01*
X138642857Y-105904761D01*
X138690476Y-105809523D01*
X138690476Y-105761904D01*
X138642857Y-105666666D01*
X138547619Y-105619047D01*
X138404761Y-105619047D01*
X138309523Y-105571428D01*
X138261904Y-105476190D01*
X138261904Y-105428571D01*
X138309523Y-105333333D01*
X138404761Y-105285714D01*
X138547619Y-105285714D01*
X138642857Y-105333333D01*
X139071428Y-105904761D02*
X139166666Y-105952380D01*
X139357142Y-105952380D01*
X139452380Y-105904761D01*
X139500000Y-105809523D01*
X139500000Y-105761904D01*
X139452380Y-105666666D01*
X139357142Y-105619047D01*
X139214285Y-105619047D01*
X139119047Y-105571428D01*
X139071428Y-105476190D01*
X139071428Y-105428571D01*
X139119047Y-105333333D01*
X139214285Y-105285714D01*
X139357142Y-105285714D01*
X139452380Y-105333333D01*
X139928571Y-105952380D02*
X139928571Y-105285714D01*
X139928571Y-104952380D02*
X139880952Y-105000000D01*
X139928571Y-105047619D01*
X139976190Y-105000000D01*
X139928571Y-104952380D01*
X139928571Y-105047619D01*
X140976190Y-105857142D02*
X140928571Y-105904761D01*
X140785714Y-105952380D01*
X140690476Y-105952380D01*
X140547619Y-105904761D01*
X140452380Y-105809523D01*
X140404761Y-105714285D01*
X140357142Y-105523809D01*
X140357142Y-105380952D01*
X140404761Y-105190476D01*
X140452380Y-105095238D01*
X140547619Y-105000000D01*
X140690476Y-104952380D01*
X140785714Y-104952380D01*
X140928571Y-105000000D01*
X140976190Y-105047619D01*
X141833333Y-105952380D02*
X141833333Y-105428571D01*
X141785714Y-105333333D01*
X141690476Y-105285714D01*
X141500000Y-105285714D01*
X141404761Y-105333333D01*
X141833333Y-105904761D02*
X141738095Y-105952380D01*
X141500000Y-105952380D01*
X141404761Y-105904761D01*
X141357142Y-105809523D01*
X141357142Y-105714285D01*
X141404761Y-105619047D01*
X141500000Y-105571428D01*
X141738095Y-105571428D01*
X141833333Y-105523809D01*
X142166666Y-105285714D02*
X142547619Y-105285714D01*
X142309523Y-104952380D02*
X142309523Y-105809523D01*
X142357142Y-105904761D01*
X142452380Y-105952380D01*
X142547619Y-105952380D01*
D11*
%TO.C,J5*%
X134713436Y-90581438D02*
X134713436Y-91295724D01*
X134665817Y-91438581D01*
X134570579Y-91533819D01*
X134427722Y-91581438D01*
X134332484Y-91581438D01*
X135665817Y-90581438D02*
X135189627Y-90581438D01*
X135142008Y-91057629D01*
X135189627Y-91010010D01*
X135284865Y-90962391D01*
X135522960Y-90962391D01*
X135618198Y-91010010D01*
X135665817Y-91057629D01*
X135713436Y-91152867D01*
X135713436Y-91390962D01*
X135665817Y-91486200D01*
X135618198Y-91533819D01*
X135522960Y-91581438D01*
X135284865Y-91581438D01*
X135189627Y-91533819D01*
X135142008Y-91486200D01*
%TO.C,TH1*%
X130384285Y-114662380D02*
X130955714Y-114662380D01*
X130670000Y-115662380D02*
X130670000Y-114662380D01*
X131289047Y-115662380D02*
X131289047Y-114662380D01*
X131289047Y-115138571D02*
X131860476Y-115138571D01*
X131860476Y-115662380D02*
X131860476Y-114662380D01*
X132860476Y-115662380D02*
X132289047Y-115662380D01*
X132574761Y-115662380D02*
X132574761Y-114662380D01*
X132479523Y-114805238D01*
X132384285Y-114900476D01*
X132289047Y-114948095D01*
%TO.C,J8*%
X127209350Y-94129391D02*
X127923636Y-94129391D01*
X128066493Y-94177010D01*
X128161731Y-94272248D01*
X128209350Y-94415105D01*
X128209350Y-94510343D01*
X127637922Y-93510343D02*
X127590303Y-93605581D01*
X127542684Y-93653200D01*
X127447446Y-93700819D01*
X127399827Y-93700819D01*
X127304589Y-93653200D01*
X127256970Y-93605581D01*
X127209350Y-93510343D01*
X127209350Y-93319867D01*
X127256970Y-93224629D01*
X127304589Y-93177010D01*
X127399827Y-93129391D01*
X127447446Y-93129391D01*
X127542684Y-93177010D01*
X127590303Y-93224629D01*
X127637922Y-93319867D01*
X127637922Y-93510343D01*
X127685541Y-93605581D01*
X127733160Y-93653200D01*
X127828398Y-93700819D01*
X128018874Y-93700819D01*
X128114112Y-93653200D01*
X128161731Y-93605581D01*
X128209350Y-93510343D01*
X128209350Y-93319867D01*
X128161731Y-93224629D01*
X128114112Y-93177010D01*
X128018874Y-93129391D01*
X127828398Y-93129391D01*
X127733160Y-93177010D01*
X127685541Y-93224629D01*
X127637922Y-93319867D01*
%TO.C,J6*%
X127209350Y-109496391D02*
X127923636Y-109496391D01*
X128066493Y-109544010D01*
X128161731Y-109639248D01*
X128209350Y-109782105D01*
X128209350Y-109877343D01*
X127209350Y-108591629D02*
X127209350Y-108782105D01*
X127256970Y-108877343D01*
X127304589Y-108924962D01*
X127447446Y-109020200D01*
X127637922Y-109067819D01*
X128018874Y-109067819D01*
X128114112Y-109020200D01*
X128161731Y-108972581D01*
X128209350Y-108877343D01*
X128209350Y-108686867D01*
X128161731Y-108591629D01*
X128114112Y-108544010D01*
X128018874Y-108496391D01*
X127780779Y-108496391D01*
X127685541Y-108544010D01*
X127637922Y-108591629D01*
X127590303Y-108686867D01*
X127590303Y-108877343D01*
X127637922Y-108972581D01*
X127685541Y-109020200D01*
X127780779Y-109067819D01*
%TO.C,J9*%
X168941550Y-105072133D02*
X169655836Y-105072133D01*
X169798693Y-105119752D01*
X169893931Y-105214990D01*
X169941550Y-105357847D01*
X169941550Y-105453085D01*
X169941550Y-104548323D02*
X169941550Y-104357847D01*
X169893931Y-104262609D01*
X169846312Y-104214990D01*
X169703455Y-104119752D01*
X169512979Y-104072133D01*
X169132027Y-104072133D01*
X169036789Y-104119752D01*
X168989170Y-104167371D01*
X168941550Y-104262609D01*
X168941550Y-104453085D01*
X168989170Y-104548323D01*
X169036789Y-104595942D01*
X169132027Y-104643561D01*
X169370122Y-104643561D01*
X169465360Y-104595942D01*
X169512979Y-104548323D01*
X169560598Y-104453085D01*
X169560598Y-104262609D01*
X169512979Y-104167371D01*
X169465360Y-104119752D01*
X169370122Y-104072133D01*
%TO.C,J2*%
X150766236Y-90606838D02*
X150766236Y-91321124D01*
X150718617Y-91463981D01*
X150623379Y-91559219D01*
X150480522Y-91606838D01*
X150385284Y-91606838D01*
X151194808Y-90702077D02*
X151242427Y-90654458D01*
X151337665Y-90606838D01*
X151575760Y-90606838D01*
X151670998Y-90654458D01*
X151718617Y-90702077D01*
X151766236Y-90797315D01*
X151766236Y-90892553D01*
X151718617Y-91035410D01*
X151147189Y-91606838D01*
X151766236Y-91606838D01*
%TO.C,J3*%
X143818580Y-106443333D02*
X144532866Y-106443333D01*
X144675723Y-106490952D01*
X144770961Y-106586190D01*
X144818580Y-106729047D01*
X144818580Y-106824285D01*
X143818580Y-106062380D02*
X143818580Y-105443333D01*
X144199533Y-105776666D01*
X144199533Y-105633809D01*
X144247152Y-105538571D01*
X144294771Y-105490952D01*
X144390009Y-105443333D01*
X144628104Y-105443333D01*
X144723342Y-105490952D01*
X144770961Y-105538571D01*
X144818580Y-105633809D01*
X144818580Y-105919523D01*
X144770961Y-106014761D01*
X144723342Y-106062380D01*
%TO.C,D1*%
X139161904Y-103042380D02*
X139161904Y-102042380D01*
X139400000Y-102042380D01*
X139542857Y-102090000D01*
X139638095Y-102185238D01*
X139685714Y-102280476D01*
X139733333Y-102470952D01*
X139733333Y-102613809D01*
X139685714Y-102804285D01*
X139638095Y-102899523D01*
X139542857Y-102994761D01*
X139400000Y-103042380D01*
X139161904Y-103042380D01*
X140685714Y-103042380D02*
X140114285Y-103042380D01*
X140400000Y-103042380D02*
X140400000Y-102042380D01*
X140304761Y-102185238D01*
X140209523Y-102280476D01*
X140114285Y-102328095D01*
%TO.C,J1*%
X134232580Y-99633333D02*
X134946866Y-99633333D01*
X135089723Y-99680952D01*
X135184961Y-99776190D01*
X135232580Y-99919047D01*
X135232580Y-100014285D01*
X135232580Y-98633333D02*
X135232580Y-99204761D01*
X135232580Y-98919047D02*
X134232580Y-98919047D01*
X134375438Y-99014285D01*
X134470676Y-99109523D01*
X134518295Y-99204761D01*
%TO.C,J4*%
X141698436Y-90606838D02*
X141698436Y-91321124D01*
X141650817Y-91463981D01*
X141555579Y-91559219D01*
X141412722Y-91606838D01*
X141317484Y-91606838D01*
X142603198Y-90940172D02*
X142603198Y-91606838D01*
X142365103Y-90559219D02*
X142127008Y-91273505D01*
X142746055Y-91273505D01*
%TO.C,J7*%
X127209350Y-102308191D02*
X127923636Y-102308191D01*
X128066493Y-102355810D01*
X128161731Y-102451048D01*
X128209350Y-102593905D01*
X128209350Y-102689143D01*
X127209350Y-101927238D02*
X127209350Y-101260572D01*
X128209350Y-101689143D01*
%TO.C,REF\u002A\u002A*%
G36*
X133731018Y-105734385D02*
G01*
X133742879Y-105740440D01*
X133773738Y-105768619D01*
X133794684Y-105806949D01*
X133804628Y-105850969D01*
X133802482Y-105896219D01*
X133789892Y-105933199D01*
X133763429Y-105967882D01*
X133728143Y-105989429D01*
X133687168Y-105996885D01*
X133643635Y-105989298D01*
X133627632Y-105982549D01*
X133595733Y-105958205D01*
X133573601Y-105923931D01*
X133561424Y-105883581D01*
X133559389Y-105841004D01*
X133567686Y-105800051D01*
X133586503Y-105764573D01*
X133615704Y-105738609D01*
X133651418Y-105726318D01*
X133692432Y-105724947D01*
X133731018Y-105734385D01*
G37*
G36*
X134258328Y-107231422D02*
G01*
X134282723Y-107246893D01*
X134301028Y-107270570D01*
X134308646Y-107298165D01*
X134308664Y-107299517D01*
X134303371Y-107328061D01*
X134286359Y-107350528D01*
X134255925Y-107368313D01*
X134210368Y-107382808D01*
X134205498Y-107383991D01*
X134161995Y-107391580D01*
X134106164Y-107397228D01*
X134042644Y-107400837D01*
X133976077Y-107402311D01*
X133911104Y-107401552D01*
X133852367Y-107398464D01*
X133804506Y-107392949D01*
X133801512Y-107392440D01*
X133753959Y-107382051D01*
X133721087Y-107369265D01*
X133700521Y-107352423D01*
X133689887Y-107329864D01*
X133687260Y-107312552D01*
X133687898Y-107285786D01*
X133696816Y-107266333D01*
X133707143Y-107254727D01*
X133717130Y-107245169D01*
X133726600Y-107239067D01*
X133738760Y-107236339D01*
X133756815Y-107236902D01*
X133783970Y-107240672D01*
X133823433Y-107247567D01*
X133843509Y-107251205D01*
X133888290Y-107256537D01*
X133943995Y-107259045D01*
X134004731Y-107258828D01*
X134064604Y-107255982D01*
X134117721Y-107250604D01*
X134143615Y-107246260D01*
X134178463Y-107239169D01*
X134209331Y-107232972D01*
X134230336Y-107228847D01*
X134232445Y-107228447D01*
X134258328Y-107231422D01*
G37*
G36*
X134065802Y-106243846D02*
G01*
X134129748Y-106271582D01*
X134131683Y-106272715D01*
X134160581Y-106292591D01*
X134197065Y-106321799D01*
X134237802Y-106357224D01*
X134279461Y-106395755D01*
X134318708Y-106434278D01*
X134352210Y-106469681D01*
X134376636Y-106498851D01*
X134382256Y-106506759D01*
X134409357Y-106560543D01*
X134419962Y-106616189D01*
X134414207Y-106675107D01*
X134402334Y-106714300D01*
X134371579Y-106773464D01*
X134328145Y-106821577D01*
X134272998Y-106857846D01*
X134207101Y-106881477D01*
X134195966Y-106883962D01*
X134171584Y-106888129D01*
X134148836Y-106889359D01*
X134122863Y-106887345D01*
X134088807Y-106881785D01*
X134055139Y-106875124D01*
X134012633Y-106866788D01*
X133981378Y-106862070D01*
X133956004Y-106860700D01*
X133931141Y-106862413D01*
X133901417Y-106866941D01*
X133898986Y-106867362D01*
X133848760Y-106875953D01*
X133811789Y-106881760D01*
X133784539Y-106885086D01*
X133763476Y-106886236D01*
X133745067Y-106885511D01*
X133725778Y-106883215D01*
X133721487Y-106882592D01*
X133683848Y-106874963D01*
X133652582Y-106862728D01*
X133621727Y-106842900D01*
X133590137Y-106816756D01*
X133549038Y-106771276D01*
X133518683Y-106718429D01*
X133501236Y-106662669D01*
X133497844Y-106626921D01*
X133500583Y-106588417D01*
X133509747Y-106552599D01*
X133526758Y-106517341D01*
X133553035Y-106480516D01*
X133590000Y-106440000D01*
X133639073Y-106393666D01*
X133674557Y-106362501D01*
X133715794Y-106327291D01*
X133747506Y-106301370D01*
X133772896Y-106282649D01*
X133795165Y-106269039D01*
X133817514Y-106258453D01*
X133843146Y-106248802D01*
X133855139Y-106244700D01*
X133924001Y-106229949D01*
X133995720Y-106229817D01*
X134065802Y-106243846D01*
G37*
G36*
X131918736Y-106299025D02*
G01*
X131924214Y-106227455D01*
X131932727Y-106159271D01*
X131944790Y-106089934D01*
X131960915Y-106014905D01*
X131971307Y-105971186D01*
X132022546Y-105796428D01*
X132089100Y-105628036D01*
X132170130Y-105466853D01*
X132264800Y-105313724D01*
X132372271Y-105169495D01*
X132491705Y-105035010D01*
X132622265Y-104911113D01*
X132763113Y-104798649D01*
X132913411Y-104698464D01*
X133072320Y-104611401D01*
X133239004Y-104538305D01*
X133412625Y-104480021D01*
X133464333Y-104465963D01*
X133562970Y-104442602D01*
X133655616Y-104425388D01*
X133748470Y-104413468D01*
X133847734Y-104405988D01*
X133921613Y-104403015D01*
X134108862Y-104405099D01*
X134289606Y-104422608D01*
X134465256Y-104455846D01*
X134637219Y-104505113D01*
X134806907Y-104570712D01*
X134894601Y-104611323D01*
X135057883Y-104700524D01*
X135211202Y-104803153D01*
X135353927Y-104918344D01*
X135485424Y-105045231D01*
X135605063Y-105182948D01*
X135712210Y-105330628D01*
X135806234Y-105487406D01*
X135886502Y-105652415D01*
X135952382Y-105824789D01*
X136003243Y-106003662D01*
X136036651Y-106176025D01*
X136041739Y-106216855D01*
X136046660Y-106269160D01*
X136050971Y-106327346D01*
X136054230Y-106385819D01*
X136055235Y-106410736D01*
X136053203Y-106594923D01*
X136034601Y-106777179D01*
X135999907Y-106956413D01*
X135949602Y-107131536D01*
X135884163Y-107301455D01*
X135804071Y-107465083D01*
X135709803Y-107621327D01*
X135601839Y-107769099D01*
X135480657Y-107907307D01*
X135346738Y-108034861D01*
X135338633Y-108041871D01*
X135190327Y-108158375D01*
X135033339Y-108260262D01*
X134868152Y-108347318D01*
X134695247Y-108419331D01*
X134515103Y-108476086D01*
X134328203Y-108517369D01*
X134236117Y-108531643D01*
X134200135Y-108535310D01*
X134151789Y-108538613D01*
X134095431Y-108541413D01*
X134035415Y-108543575D01*
X133976093Y-108544963D01*
X133921818Y-108545440D01*
X133876942Y-108544870D01*
X133852044Y-108543672D01*
X133670917Y-108523144D01*
X133498757Y-108489445D01*
X133332851Y-108441847D01*
X133170483Y-108379624D01*
X133075364Y-108335815D01*
X132910544Y-108245995D01*
X132755952Y-108143027D01*
X132612227Y-108027725D01*
X132480011Y-107900903D01*
X132359944Y-107763377D01*
X132252666Y-107615961D01*
X132158818Y-107459470D01*
X132079041Y-107294718D01*
X132013975Y-107122521D01*
X131964260Y-106943692D01*
X131957726Y-106914298D01*
X131943701Y-106846167D01*
X131933001Y-106786365D01*
X131925212Y-106730594D01*
X131919917Y-106674555D01*
X131916702Y-106613950D01*
X131915151Y-106544481D01*
X131914834Y-106470481D01*
X131915317Y-106423539D01*
X132066573Y-106423539D01*
X132069581Y-106604176D01*
X132089169Y-106781544D01*
X132125034Y-106954878D01*
X132176869Y-107123410D01*
X132244371Y-107286373D01*
X132327234Y-107443001D01*
X132425154Y-107592527D01*
X132537826Y-107734183D01*
X132624746Y-107827680D01*
X132660175Y-107862016D01*
X132701041Y-107899229D01*
X132745184Y-107937598D01*
X132790446Y-107975401D01*
X132834666Y-108010917D01*
X132875686Y-108042424D01*
X132911346Y-108068199D01*
X132939486Y-108086522D01*
X132957948Y-108095672D01*
X132961775Y-108096388D01*
X132967189Y-108088958D01*
X132972182Y-108070850D01*
X132972572Y-108068650D01*
X132974408Y-108052195D01*
X132977079Y-108020381D01*
X132980477Y-107974891D01*
X132984497Y-107917408D01*
X132989029Y-107849617D01*
X132993967Y-107773201D01*
X132999203Y-107689845D01*
X133004630Y-107601231D01*
X133010141Y-107509044D01*
X133015627Y-107414967D01*
X133020981Y-107320685D01*
X133025428Y-107240200D01*
X133039287Y-106985725D01*
X132948332Y-106900063D01*
X132890939Y-106844100D01*
X132844630Y-106794155D01*
X132806450Y-106746539D01*
X132773441Y-106697565D01*
X132742647Y-106643542D01*
X132742495Y-106643256D01*
X132703015Y-106554161D01*
X132676602Y-106461776D01*
X132663875Y-106369435D01*
X132664553Y-106331240D01*
X132789851Y-106331240D01*
X132795103Y-106412668D01*
X132815790Y-106496220D01*
X132851945Y-106580796D01*
X132903600Y-106665298D01*
X132904653Y-106666785D01*
X132928522Y-106696870D01*
X132961313Y-106733447D01*
X132999454Y-106772983D01*
X133039370Y-106811942D01*
X133077488Y-106846790D01*
X133110236Y-106873992D01*
X133124681Y-106884426D01*
X133145577Y-106901621D01*
X133159539Y-106919271D01*
X133161777Y-106924651D01*
X133162484Y-106937681D01*
X133162184Y-106966038D01*
X133160969Y-107008014D01*
X133158937Y-107061901D01*
X133156183Y-107125991D01*
X133152800Y-107198578D01*
X133148886Y-107277953D01*
X133144535Y-107362408D01*
X133139842Y-107450236D01*
X133134904Y-107539730D01*
X133129814Y-107629181D01*
X133124668Y-107716882D01*
X133119563Y-107801126D01*
X133114592Y-107880204D01*
X133109851Y-107952409D01*
X133105436Y-108016034D01*
X133101442Y-108069370D01*
X133097963Y-108110711D01*
X133095096Y-108138348D01*
X133093468Y-108148787D01*
X133092488Y-108160029D01*
X133096726Y-108170020D01*
X133108416Y-108180375D01*
X133129787Y-108192712D01*
X133163072Y-108208648D01*
X133197097Y-108223891D01*
X133350703Y-108284458D01*
X133506685Y-108331785D01*
X133661588Y-108364919D01*
X133753892Y-108377734D01*
X133793165Y-108382041D01*
X133829424Y-108386069D01*
X133856952Y-108389179D01*
X133864846Y-108390096D01*
X133893076Y-108391766D01*
X133934452Y-108392071D01*
X133985117Y-108391172D01*
X134041216Y-108389233D01*
X134098894Y-108386416D01*
X134154294Y-108382884D01*
X134203560Y-108378800D01*
X134242837Y-108374326D01*
X134244652Y-108374069D01*
X134346143Y-108357547D01*
X134436962Y-108338364D01*
X134523458Y-108315163D01*
X134530572Y-108313036D01*
X134574418Y-108299072D01*
X134620964Y-108282981D01*
X134667091Y-108265985D01*
X134709684Y-108249309D01*
X134745624Y-108234175D01*
X134771796Y-108221807D01*
X134785082Y-108213427D01*
X134785457Y-108213012D01*
X134788148Y-108202094D01*
X134788776Y-108177706D01*
X134787310Y-108138983D01*
X134783717Y-108085061D01*
X134777964Y-108015077D01*
X134777951Y-108014927D01*
X134768058Y-107899231D01*
X134758723Y-107785129D01*
X134750066Y-107674357D01*
X134742203Y-107568646D01*
X134735255Y-107469729D01*
X134729338Y-107379339D01*
X134724570Y-107299209D01*
X134721072Y-107231071D01*
X134718959Y-107176659D01*
X134718341Y-107141307D01*
X134718341Y-107030678D01*
X134788754Y-106968472D01*
X134872159Y-106892468D01*
X134941878Y-106823562D01*
X134998991Y-106760281D01*
X135044574Y-106701152D01*
X135079704Y-106644700D01*
X135105459Y-106589454D01*
X135122916Y-106533938D01*
X135129411Y-106502522D01*
X135134125Y-106427845D01*
X135122907Y-106356565D01*
X135096776Y-106290056D01*
X135056750Y-106229690D01*
X135003848Y-106176840D01*
X134939087Y-106132879D01*
X134863485Y-106099181D01*
X134820760Y-106086307D01*
X134790759Y-106077745D01*
X134766765Y-106069324D01*
X134754615Y-106063263D01*
X134749453Y-106051902D01*
X134746029Y-106026993D01*
X134744218Y-105987245D01*
X134743845Y-105950938D01*
X134740713Y-105869956D01*
X134730911Y-105802422D01*
X134713568Y-105745728D01*
X134687812Y-105697268D01*
X134652774Y-105654435D01*
X134640941Y-105642869D01*
X134581972Y-105598066D01*
X134516483Y-105566561D01*
X134447438Y-105549152D01*
X134377798Y-105546638D01*
X134321020Y-105556618D01*
X134272552Y-105575798D01*
X134219924Y-105605763D01*
X134168397Y-105643065D01*
X134123231Y-105684253D01*
X134118169Y-105689639D01*
X134088690Y-105717640D01*
X134063462Y-105731268D01*
X134040473Y-105730080D01*
X134017708Y-105713631D01*
X133993154Y-105681477D01*
X133979374Y-105659025D01*
X133934635Y-105596835D01*
X133880770Y-105545881D01*
X133820044Y-105507356D01*
X133754721Y-105482456D01*
X133687065Y-105472376D01*
X133632269Y-105475867D01*
X133565152Y-105492479D01*
X133501484Y-105518741D01*
X133445450Y-105552474D01*
X133401236Y-105591498D01*
X133394042Y-105599916D01*
X133361314Y-105646394D01*
X133338826Y-105693924D01*
X133325218Y-105746874D01*
X133319129Y-105809615D01*
X133318479Y-105842578D01*
X133317799Y-105878903D01*
X133316082Y-105909069D01*
X133313627Y-105928795D01*
X133312078Y-105933635D01*
X133294318Y-105950107D01*
X133267560Y-105957551D01*
X133229192Y-105956494D01*
X133211340Y-105954023D01*
X133137503Y-105950534D01*
X133065995Y-105963822D01*
X132997451Y-105993678D01*
X132932509Y-106039892D01*
X132922560Y-106048732D01*
X132866388Y-106110681D01*
X132825525Y-106179147D01*
X132800002Y-106253033D01*
X132789851Y-106331240D01*
X132664553Y-106331240D01*
X132665455Y-106280472D01*
X132669497Y-106250784D01*
X132674623Y-106218519D01*
X132675940Y-106196588D01*
X132672531Y-106178500D01*
X132663476Y-106157764D01*
X132653648Y-106138885D01*
X132634190Y-106089840D01*
X132628495Y-106045240D01*
X132635349Y-106006932D01*
X132653538Y-105976763D01*
X132681850Y-105956579D01*
X132719070Y-105948227D01*
X132763985Y-105953552D01*
X132773601Y-105956363D01*
X132816605Y-105970115D01*
X132863180Y-105932179D01*
X132935744Y-105882323D01*
X133011601Y-105847803D01*
X133089075Y-105829270D01*
X133136658Y-105826092D01*
X133190586Y-105826092D01*
X133190712Y-105794086D01*
X133194646Y-105752978D01*
X133205014Y-105703716D01*
X133220074Y-105653131D01*
X133238085Y-105608056D01*
X133238186Y-105607842D01*
X133262958Y-105566095D01*
X133297687Y-105521415D01*
X133337527Y-105479371D01*
X133377634Y-105445531D01*
X133382294Y-105442245D01*
X133401238Y-105428158D01*
X133412816Y-105414753D01*
X133419911Y-105396627D01*
X133425407Y-105368377D01*
X133426948Y-105358591D01*
X133437726Y-105309608D01*
X133453532Y-105274407D01*
X133475974Y-105250044D01*
X133491613Y-105240257D01*
X133525524Y-105231761D01*
X133561989Y-105238348D01*
X133598516Y-105258796D01*
X133632611Y-105291882D01*
X133651842Y-105318860D01*
X133664763Y-105336919D01*
X133678522Y-105345491D01*
X133700030Y-105348031D01*
X133710364Y-105348135D01*
X133777449Y-105356129D01*
X133846714Y-105379287D01*
X133915598Y-105416378D01*
X133981535Y-105466170D01*
X134008681Y-105491512D01*
X134036970Y-105519325D01*
X134056088Y-105536667D01*
X134068837Y-105545229D01*
X134078022Y-105546704D01*
X134086447Y-105542783D01*
X134089763Y-105540429D01*
X134166563Y-105488906D01*
X134236853Y-105452075D01*
X134255777Y-105444209D01*
X134285760Y-105433531D01*
X134313074Y-105426867D01*
X134343511Y-105423340D01*
X134382861Y-105422074D01*
X134402548Y-105422005D01*
X134442230Y-105422864D01*
X134477439Y-105425098D01*
X134503450Y-105428329D01*
X134513335Y-105430845D01*
X134527418Y-105434329D01*
X134542554Y-105431222D01*
X134563586Y-105419976D01*
X134579559Y-105409669D01*
X134623662Y-105386051D01*
X134666349Y-105375745D01*
X134666998Y-105375682D01*
X134693677Y-105374268D01*
X134711513Y-105378435D01*
X134728517Y-105391058D01*
X134739466Y-105401694D01*
X134757230Y-105421328D01*
X134766194Y-105438971D01*
X134769288Y-105462155D01*
X134769551Y-105479018D01*
X134768136Y-105509697D01*
X134764518Y-105536316D01*
X134761690Y-105546933D01*
X134759056Y-105560646D01*
X134762930Y-105576401D01*
X134774868Y-105598491D01*
X134787438Y-105617902D01*
X134824057Y-105686228D01*
X134850843Y-105765565D01*
X134866677Y-105852244D01*
X134869647Y-105887348D01*
X134872062Y-105925452D01*
X134874688Y-105949877D01*
X134878527Y-105963997D01*
X134884579Y-105971185D01*
X134893845Y-105974814D01*
X134895737Y-105975301D01*
X134929918Y-105987020D01*
X134971428Y-106005779D01*
X135013940Y-106028375D01*
X135051131Y-106051602D01*
X135062152Y-106059619D01*
X135102973Y-106090990D01*
X135149178Y-106077558D01*
X135187112Y-106069735D01*
X135219634Y-106068897D01*
X135224876Y-106069659D01*
X135255782Y-106082763D01*
X135283432Y-106106791D01*
X135301325Y-106135908D01*
X135302468Y-106139332D01*
X135303733Y-106166098D01*
X135295929Y-106200811D01*
X135280675Y-106238105D01*
X135264147Y-106266268D01*
X135249798Y-106288875D01*
X135244363Y-106305419D01*
X135246256Y-106323296D01*
X135249416Y-106334917D01*
X135255956Y-106370752D01*
X135259000Y-106417424D01*
X135258674Y-106469089D01*
X135255103Y-106519902D01*
X135248412Y-106564018D01*
X135244161Y-106580989D01*
X135214452Y-106660100D01*
X135172568Y-106738179D01*
X135117545Y-106816543D01*
X135048420Y-106896505D01*
X134964226Y-106979380D01*
X134927886Y-107012081D01*
X134836195Y-107092795D01*
X134841771Y-107187048D01*
X134844824Y-107235714D01*
X134848791Y-107293783D01*
X134853745Y-107362172D01*
X134859758Y-107441799D01*
X134866901Y-107533581D01*
X134875245Y-107638436D01*
X134884863Y-107757283D01*
X134895826Y-107891038D01*
X134908206Y-108040621D01*
X134911957Y-108085719D01*
X134915185Y-108115725D01*
X134918944Y-108137713D01*
X134922484Y-108147452D01*
X134922894Y-108147598D01*
X134931741Y-108143161D01*
X134952103Y-108130971D01*
X134981268Y-108112708D01*
X135016525Y-108090050D01*
X135030483Y-108080948D01*
X135176078Y-107975777D01*
X135309374Y-107859483D01*
X135430047Y-107733062D01*
X135537777Y-107597511D01*
X135632241Y-107453829D01*
X135713119Y-107303013D01*
X135780088Y-107146060D01*
X135832827Y-106983967D01*
X135871015Y-106817731D01*
X135894329Y-106648351D01*
X135902448Y-106476824D01*
X135895051Y-106304146D01*
X135871816Y-106131316D01*
X135832422Y-105959330D01*
X135776546Y-105789186D01*
X135772698Y-105779150D01*
X135700971Y-105616761D01*
X135615038Y-105462847D01*
X135515837Y-105318205D01*
X135404305Y-105183629D01*
X135281377Y-105059915D01*
X135147992Y-104947859D01*
X135005085Y-104848255D01*
X134853595Y-104761899D01*
X134694457Y-104689587D01*
X134528609Y-104632114D01*
X134376943Y-104594256D01*
X134198801Y-104566081D01*
X134021801Y-104554463D01*
X133846840Y-104558908D01*
X133674814Y-104578922D01*
X133506618Y-104614011D01*
X133343148Y-104663681D01*
X133185300Y-104727437D01*
X133033969Y-104804786D01*
X132890052Y-104895234D01*
X132754445Y-104998287D01*
X132628042Y-105113450D01*
X132511740Y-105240229D01*
X132406434Y-105378131D01*
X132313021Y-105526662D01*
X132232397Y-105685326D01*
X132183307Y-105804127D01*
X132138372Y-105938560D01*
X132104888Y-106073502D01*
X132082070Y-106213113D01*
X132069133Y-106361554D01*
X132066573Y-106423539D01*
X131915317Y-106423539D01*
X131915780Y-106378520D01*
X131918736Y-106299025D01*
G37*
G36*
X134770808Y-106316666D02*
G01*
X134811071Y-106329063D01*
X134813026Y-106330083D01*
X134837770Y-106352216D01*
X134854619Y-106384869D01*
X134862525Y-106422925D01*
X134860437Y-106461265D01*
X134847305Y-106494772D01*
X134846929Y-106495350D01*
X134814379Y-106531621D01*
X134774445Y-106555677D01*
X134730701Y-106566276D01*
X134686724Y-106562178D01*
X134670675Y-106556501D01*
X134635353Y-106532703D01*
X134612155Y-106499367D01*
X134602577Y-106460173D01*
X134608114Y-106418801D01*
X134611289Y-106410295D01*
X134630516Y-106373707D01*
X134655395Y-106347670D01*
X134687859Y-106327795D01*
X134727189Y-106316197D01*
X134770808Y-106316666D01*
G37*
G36*
X133297316Y-106235596D02*
G01*
X133334334Y-106260459D01*
X133363439Y-106294402D01*
X133378767Y-106327666D01*
X133383409Y-106369131D01*
X133373823Y-106407528D01*
X133352547Y-106440045D01*
X133322120Y-106463870D01*
X133285080Y-106476191D01*
X133246063Y-106474675D01*
X133196827Y-106456478D01*
X133159040Y-106426622D01*
X133134040Y-106386406D01*
X133125753Y-106357949D01*
X133126302Y-106318175D01*
X133140905Y-106280319D01*
X133166715Y-106248671D01*
X133200881Y-106227520D01*
X133215272Y-106223169D01*
X133256318Y-106222329D01*
X133297316Y-106235596D01*
G37*
G36*
X134436450Y-105818908D02*
G01*
X134467262Y-105836794D01*
X134490544Y-105864299D01*
X134503377Y-105901007D01*
X134504967Y-105921402D01*
X134498845Y-105972511D01*
X134479894Y-106013388D01*
X134450036Y-106043896D01*
X134412127Y-106063783D01*
X134369584Y-106071731D01*
X134328420Y-106067029D01*
X134311403Y-106060320D01*
X134284111Y-106037414D01*
X134265926Y-106003731D01*
X134257826Y-105963503D01*
X134260788Y-105920961D01*
X134271700Y-105888269D01*
X134296338Y-105851841D01*
X134328053Y-105827106D01*
X134363925Y-105813649D01*
X134401031Y-105811054D01*
X134436450Y-105818908D01*
G37*
D12*
%TO.C,J5*%
X131977370Y-94451658D02*
X138097370Y-94451658D01*
X136337370Y-94551658D02*
X136637370Y-94551658D01*
X138097370Y-93141658D02*
X137487370Y-93141658D01*
X138097370Y-94451658D02*
X138097370Y-89731658D01*
X137487370Y-93841658D02*
X137487370Y-90341658D01*
X134937370Y-90841658D02*
X134937370Y-90341658D01*
X135537370Y-94451658D02*
X135537370Y-93841658D01*
X136637370Y-94651658D02*
X136637370Y-94451658D01*
X135537370Y-93841658D02*
X137487370Y-93841658D01*
X132587370Y-90341658D02*
X132587370Y-93841658D01*
X131977370Y-91841658D02*
X132587370Y-91841658D01*
X134537370Y-93841658D02*
X134537370Y-94451658D01*
X136337370Y-94451658D02*
X136337370Y-94651658D01*
X138397370Y-94751658D02*
X138397370Y-93501658D01*
X131977370Y-89731658D02*
X131977370Y-94451658D01*
X132587370Y-93841658D02*
X134537370Y-93841658D01*
X135037370Y-90341658D02*
X135037370Y-90841658D01*
X138097370Y-91841658D02*
X137487370Y-91841658D01*
X131977370Y-93141658D02*
X132587370Y-93141658D01*
X135137370Y-90841658D02*
X134937370Y-90841658D01*
X137147370Y-94751658D02*
X138397370Y-94751658D01*
X138097370Y-89731658D02*
X131977370Y-89731658D01*
X137487370Y-90341658D02*
X132587370Y-90341658D01*
X136337370Y-94651658D02*
X136637370Y-94651658D01*
X135137370Y-90341658D02*
X135137370Y-90841658D01*
%TO.C,TH1*%
X128814252Y-114479398D02*
X128360124Y-114479398D01*
X128814252Y-115949398D02*
X128360124Y-115949398D01*
%TO.C,J8*%
X129747970Y-89736058D02*
X129747970Y-90346058D01*
X126947970Y-92696058D02*
X127447970Y-92696058D01*
X126947970Y-94796058D02*
X127447970Y-94796058D01*
X130447970Y-95296058D02*
X131057970Y-95296058D01*
X126947970Y-94696058D02*
X127447970Y-94696058D01*
X131057970Y-89736058D02*
X126337970Y-89736058D01*
X127447970Y-94896058D02*
X126947970Y-94896058D01*
X130447970Y-97246058D02*
X130447970Y-95296058D01*
X130447970Y-90346058D02*
X126947970Y-90346058D01*
X131057970Y-91496058D02*
X131257970Y-91496058D01*
X126947970Y-97246058D02*
X130447970Y-97246058D01*
X126337970Y-97856058D02*
X131057970Y-97856058D01*
X131257970Y-91496058D02*
X131257970Y-91196058D01*
X127447970Y-92696058D02*
X127447970Y-92896058D01*
X131057970Y-92296058D02*
X130447970Y-92296058D01*
X130447970Y-92296058D02*
X130447970Y-90346058D01*
X126337970Y-89736058D02*
X126337970Y-97856058D01*
X131057970Y-97856058D02*
X131057970Y-89736058D01*
X128447970Y-97856058D02*
X128447970Y-97246058D01*
X131257970Y-91196058D02*
X131057970Y-91196058D01*
X128447970Y-89736058D02*
X128447970Y-90346058D01*
X127447970Y-92896058D02*
X126947970Y-92896058D01*
X131157970Y-91496058D02*
X131157970Y-91196058D01*
X127447970Y-94696058D02*
X127447970Y-94896058D01*
X131357970Y-89436058D02*
X130107970Y-89436058D01*
X126947970Y-90346058D02*
X126947970Y-97246058D01*
X131357970Y-90686058D02*
X131357970Y-89436058D01*
X129747970Y-97856058D02*
X129747970Y-97246058D01*
X126947970Y-92796058D02*
X127447970Y-92796058D01*
%TO.C,J6*%
X130447970Y-108669198D02*
X130447970Y-106719198D01*
X130447970Y-111619198D02*
X130447970Y-109669198D01*
X131057970Y-106109198D02*
X126337970Y-106109198D01*
X129747970Y-106109198D02*
X129747970Y-106719198D01*
X131357970Y-107059198D02*
X131357970Y-105809198D01*
X129747970Y-112229198D02*
X129747970Y-111619198D01*
X130447970Y-109669198D02*
X131057970Y-109669198D01*
X126947970Y-106719198D02*
X126947970Y-111619198D01*
X131157970Y-107869198D02*
X131157970Y-107569198D01*
X128447970Y-112229198D02*
X128447970Y-111619198D01*
X131057970Y-108669198D02*
X130447970Y-108669198D01*
X127447970Y-109269198D02*
X126947970Y-109269198D01*
X130447970Y-106719198D02*
X126947970Y-106719198D01*
X131257970Y-107569198D02*
X131057970Y-107569198D01*
X131257970Y-107869198D02*
X131257970Y-107569198D01*
X126947970Y-109069198D02*
X127447970Y-109069198D01*
X131357970Y-105809198D02*
X130107970Y-105809198D01*
X126947970Y-109169198D02*
X127447970Y-109169198D01*
X128447970Y-106109198D02*
X128447970Y-106719198D01*
X131057970Y-107869198D02*
X131257970Y-107869198D01*
X126337970Y-112229198D02*
X131057970Y-112229198D01*
X131057970Y-112229198D02*
X131057970Y-106109198D01*
X126337970Y-106109198D02*
X126337970Y-112229198D01*
X126947970Y-111619198D02*
X130447970Y-111619198D01*
X127447970Y-109069198D02*
X127447970Y-109269198D01*
%TO.C,J9*%
X169314970Y-120435000D02*
X160184970Y-120435000D01*
X170314970Y-119435000D02*
X169314970Y-120435000D01*
X169314970Y-89065000D02*
X170314970Y-90065000D01*
X170314970Y-90065000D02*
X170314970Y-119435000D01*
X160184970Y-89065000D02*
X169314970Y-89065000D01*
X160184970Y-120435000D02*
X160184970Y-89065000D01*
%TO.C,J2*%
X146649570Y-93841658D02*
X148599570Y-93841658D01*
X152999570Y-90841658D02*
X152999570Y-90341658D01*
X155549570Y-93841658D02*
X155549570Y-90341658D01*
X151199570Y-90841658D02*
X150999570Y-90841658D01*
X149199570Y-90341658D02*
X149199570Y-90841658D01*
X156159570Y-94451658D02*
X156159570Y-89731658D01*
X146039570Y-94451658D02*
X156159570Y-94451658D01*
X154399570Y-94451658D02*
X154399570Y-94651658D01*
X148599570Y-93841658D02*
X148599570Y-94451658D01*
X146039570Y-93141658D02*
X146649570Y-93141658D01*
X154699570Y-94651658D02*
X154699570Y-94451658D01*
X149199570Y-90841658D02*
X148999570Y-90841658D01*
X146649570Y-90341658D02*
X146649570Y-93841658D01*
X156159570Y-93141658D02*
X155549570Y-93141658D01*
X148999570Y-90841658D02*
X148999570Y-90341658D01*
X151199570Y-90341658D02*
X151199570Y-90841658D01*
X146039570Y-89731658D02*
X146039570Y-94451658D01*
X153599570Y-94451658D02*
X153599570Y-93841658D01*
X153199570Y-90841658D02*
X152999570Y-90841658D01*
X156459570Y-94751658D02*
X156459570Y-93501658D01*
X149099570Y-90341658D02*
X149099570Y-90841658D01*
X153199570Y-90341658D02*
X153199570Y-90841658D01*
X154399570Y-94651658D02*
X154699570Y-94651658D01*
X156159570Y-91841658D02*
X155549570Y-91841658D01*
X150999570Y-90841658D02*
X150999570Y-90341658D01*
X155549570Y-90341658D02*
X146649570Y-90341658D01*
X146039570Y-91841658D02*
X146649570Y-91841658D01*
X156159570Y-89731658D02*
X146039570Y-89731658D01*
X154399570Y-94551658D02*
X154699570Y-94551658D01*
X153099570Y-90341658D02*
X153099570Y-90841658D01*
X153599570Y-93841658D02*
X155549570Y-93841658D01*
X151099570Y-90341658D02*
X151099570Y-90841658D01*
X155209570Y-94751658D02*
X156459570Y-94751658D01*
%TO.C,J3*%
X144560000Y-102425000D02*
X153690000Y-102425000D01*
X143560000Y-108795000D02*
X143560000Y-103425000D01*
X153690000Y-109795000D02*
X144560000Y-109795000D01*
X144560000Y-109795000D02*
X143560000Y-108795000D01*
X153690000Y-102425000D02*
X153690000Y-109795000D01*
X143560000Y-103425000D02*
X144560000Y-102425000D01*
%TO.C,D1*%
X139900000Y-99063629D02*
X139900000Y-98950000D01*
X141226371Y-100390000D02*
G75*
G03*
X141226371Y-100390000I-1326371J0D01*
G01*
%TO.C,J1*%
X133970000Y-100200000D02*
X134470000Y-100200000D01*
X134470000Y-100200000D02*
X134470000Y-100400000D01*
X133970000Y-95850000D02*
X133970000Y-102750000D01*
X136770000Y-103360000D02*
X136770000Y-102750000D01*
X133360000Y-95240000D02*
X133360000Y-103360000D01*
X134470000Y-98400000D02*
X133970000Y-98400000D01*
X138080000Y-103360000D02*
X138080000Y-95240000D01*
X133360000Y-103360000D02*
X138080000Y-103360000D01*
X135470000Y-95240000D02*
X135470000Y-95850000D01*
X138280000Y-97000000D02*
X138280000Y-96700000D01*
X137470000Y-100800000D02*
X138080000Y-100800000D01*
X134470000Y-98200000D02*
X134470000Y-98400000D01*
X135470000Y-103360000D02*
X135470000Y-102750000D01*
X137470000Y-102750000D02*
X137470000Y-100800000D01*
X138280000Y-96700000D02*
X138080000Y-96700000D01*
X133970000Y-98300000D02*
X134470000Y-98300000D01*
X133970000Y-100300000D02*
X134470000Y-100300000D01*
X138080000Y-95240000D02*
X133360000Y-95240000D01*
X136770000Y-95240000D02*
X136770000Y-95850000D01*
X138380000Y-96190000D02*
X138380000Y-94940000D01*
X138080000Y-97800000D02*
X137470000Y-97800000D01*
X133970000Y-98200000D02*
X134470000Y-98200000D01*
X138380000Y-94940000D02*
X137130000Y-94940000D01*
X133970000Y-102750000D02*
X137470000Y-102750000D01*
X137470000Y-95850000D02*
X133970000Y-95850000D01*
X138180000Y-97000000D02*
X138180000Y-96700000D01*
X138080000Y-97000000D02*
X138280000Y-97000000D01*
X137470000Y-97800000D02*
X137470000Y-95850000D01*
X134470000Y-100400000D02*
X133970000Y-100400000D01*
D13*
%TO.C,M2*%
X138050000Y-112000000D02*
G75*
G03*
X138050000Y-112000000I-2050000J0D01*
G01*
%TO.C,M1*%
X150050000Y-99230000D02*
G75*
G03*
X150050000Y-99230000I-2050000J0D01*
G01*
D12*
%TO.C,J4*%
X139572370Y-93841658D02*
X141522370Y-93841658D01*
X143322370Y-94451658D02*
X143322370Y-94651658D01*
X141522370Y-93841658D02*
X141522370Y-94451658D01*
X145082370Y-94451658D02*
X145082370Y-89731658D01*
X145082370Y-89731658D02*
X138962370Y-89731658D01*
X138962370Y-94451658D02*
X145082370Y-94451658D01*
X144132370Y-94751658D02*
X145382370Y-94751658D01*
X145082370Y-91841658D02*
X144472370Y-91841658D01*
X144472370Y-93841658D02*
X144472370Y-90341658D01*
X138962370Y-89731658D02*
X138962370Y-94451658D01*
X142122370Y-90841658D02*
X141922370Y-90841658D01*
X142122370Y-90341658D02*
X142122370Y-90841658D01*
X143322370Y-94651658D02*
X143622370Y-94651658D01*
X141922370Y-90841658D02*
X141922370Y-90341658D01*
X144472370Y-90341658D02*
X139572370Y-90341658D01*
X138962370Y-91841658D02*
X139572370Y-91841658D01*
X139572370Y-90341658D02*
X139572370Y-93841658D01*
X142522370Y-93841658D02*
X144472370Y-93841658D01*
X143322370Y-94551658D02*
X143622370Y-94551658D01*
X143622370Y-94651658D02*
X143622370Y-94451658D01*
X145382370Y-94751658D02*
X145382370Y-93501658D01*
X138962370Y-93141658D02*
X139572370Y-93141658D01*
X142022370Y-90341658D02*
X142022370Y-90841658D01*
X145082370Y-93141658D02*
X144472370Y-93141658D01*
X142522370Y-94451658D02*
X142522370Y-93841658D01*
%TO.C,G\u002A\u002A\u002A*%
G36*
X153440000Y-96709745D02*
G01*
X155622813Y-97970021D01*
X155622813Y-100490178D01*
X153440000Y-101750256D01*
X151445906Y-100599120D01*
X152211077Y-100599120D01*
X152869294Y-100599120D01*
X153424522Y-100599120D01*
X154082938Y-100599120D01*
X154983447Y-99229108D01*
X154325032Y-99229108D01*
X153424522Y-100599120D01*
X152869294Y-100599120D01*
X154670709Y-97858698D01*
X154012294Y-97858698D01*
X152211077Y-100599120D01*
X151445906Y-100599120D01*
X151257188Y-100490178D01*
X151257188Y-99230393D01*
X151898537Y-99230393D01*
X152556755Y-99230694D01*
X153457463Y-97860682D01*
X152799047Y-97860682D01*
X151898537Y-99230393D01*
X151257188Y-99230393D01*
X151257188Y-97970021D01*
X153440000Y-96709745D01*
G37*
D14*
X153440000Y-96709745D02*
X155622813Y-97970021D01*
X155622813Y-100490178D01*
X153440000Y-101750256D01*
X151445906Y-100599120D01*
X152211077Y-100599120D01*
X152869294Y-100599120D01*
X153424522Y-100599120D01*
X154082938Y-100599120D01*
X154983447Y-99229108D01*
X154325032Y-99229108D01*
X153424522Y-100599120D01*
X152869294Y-100599120D01*
X154670709Y-97858698D01*
X154012294Y-97858698D01*
X152211077Y-100599120D01*
X151445906Y-100599120D01*
X151257188Y-100490178D01*
X151257188Y-99230393D01*
X151898537Y-99230393D01*
X152556755Y-99230694D01*
X153457463Y-97860682D01*
X152799047Y-97860682D01*
X151898537Y-99230393D01*
X151257188Y-99230393D01*
X151257188Y-97970021D01*
X153440000Y-96709745D01*
D12*
%TO.C,J7*%
X131257970Y-100674858D02*
X131257970Y-100374858D01*
X127447970Y-102074858D02*
X126947970Y-102074858D01*
X131357970Y-98614858D02*
X130107970Y-98614858D01*
X131057970Y-100674858D02*
X131257970Y-100674858D01*
X130447970Y-99524858D02*
X126947970Y-99524858D01*
X131057970Y-101474858D02*
X130447970Y-101474858D01*
X131257970Y-100374858D02*
X131057970Y-100374858D01*
X128447970Y-98914858D02*
X128447970Y-99524858D01*
X128447970Y-105034858D02*
X128447970Y-104424858D01*
X126947970Y-101874858D02*
X127447970Y-101874858D01*
X126337970Y-105034858D02*
X131057970Y-105034858D01*
X130447970Y-104424858D02*
X130447970Y-102474858D01*
X126947970Y-104424858D02*
X130447970Y-104424858D01*
X131357970Y-99864858D02*
X131357970Y-98614858D01*
X129747970Y-105034858D02*
X129747970Y-104424858D01*
X126947970Y-101974858D02*
X127447970Y-101974858D01*
X126947970Y-99524858D02*
X126947970Y-104424858D01*
X126337970Y-98914858D02*
X126337970Y-105034858D01*
X129747970Y-98914858D02*
X129747970Y-99524858D01*
X131157970Y-100674858D02*
X131157970Y-100374858D01*
X131057970Y-105034858D02*
X131057970Y-98914858D01*
X127447970Y-101874858D02*
X127447970Y-102074858D01*
X131057970Y-98914858D02*
X126337970Y-98914858D01*
X130447970Y-102474858D02*
X131057970Y-102474858D01*
X130447970Y-101474858D02*
X130447970Y-99524858D01*
%TD*%
M02*
