M48
; DRILL file {KiCad (6.0.5-0)} date Saturday, 04 June 2022 at 20:41:55
; FORMAT={-:-/ absolute / metric / decimal}
; #@! TF.CreationDate,2022-06-04T20:41:55+08:00
; #@! TF.GenerationSoftware,Kicad,Pcbnew,(6.0.5-0)
; #@! TF.FileFunction,Plated,1,2,PTH
FMAT,2
METRIC
; #@! TA.AperFunction,Plated,PTH,ViaDrill
T1C0.400
; #@! TA.AperFunction,Plated,PTH,ComponentDrill
T2C0.750
; #@! TA.AperFunction,Plated,PTH,ComponentDrill
T3C0.800
; #@! TA.AperFunction,Plated,PTH,ComponentDrill
T4C1.020
%
G90
G05
T1
X126.84Y-90.25
X126.99Y-110.88
X132.2Y-110.88
X134.15Y-115.72
X134.83Y-99.89
X138.39Y-95.67
X139.38Y-100.71
X145.96Y-102.34
X147.15Y-96.04
X153.8Y-99.97
X155.27Y-114.95
X155.29Y-118.54
X156.58Y-109.4
X165.86Y-107.63
X165.91Y-101.82
X168.76Y-118.46
X168.77Y-91.17
T2
X129.25Y-92.0
X129.25Y-94.0
X129.25Y-96.0
X129.25Y-101.25
X129.25Y-103.25
X129.25Y-108.5
X129.25Y-110.5
X134.25Y-92.85
X136.25Y-92.85
X141.5Y-92.85
X143.5Y-92.85
X148.75Y-92.85
X150.75Y-92.85
X152.75Y-92.85
X154.35Y-101.5
X154.35Y-103.5
X154.35Y-105.5
X154.75Y-92.85
T3
X152.3Y-97.77
X154.84Y-97.77
T4
X140.86Y-96.575
X140.86Y-99.575
X158.45Y-92.75
X158.45Y-95.75
X158.45Y-98.75
X158.45Y-101.75
X158.45Y-104.75
X158.45Y-107.75
X158.45Y-110.75
X158.45Y-113.75
X158.45Y-116.75
X161.45Y-92.75
X161.45Y-95.75
X161.45Y-98.75
X161.45Y-101.75
X161.45Y-104.75
X161.45Y-107.75
X161.45Y-110.75
X161.45Y-113.75
X161.45Y-116.75
T0
M30
