M48
; DRILL file {KiCad (6.0.5-0)} date Sunday, 29 May 2022 at 18:30:58
; FORMAT={-:-/ absolute / metric / decimal}
; #@! TF.CreationDate,2022-05-29T18:30:58+08:00
; #@! TF.GenerationSoftware,Kicad,Pcbnew,(6.0.5-0)
; #@! TF.FileFunction,Plated,1,2,PTH
FMAT,2
METRIC
; #@! TA.AperFunction,Plated,PTH,ViaDrill
T1C0.400
; #@! TA.AperFunction,Plated,PTH,ComponentDrill
T2C0.750
; #@! TA.AperFunction,Plated,PTH,ComponentDrill
T3C0.800
; #@! TA.AperFunction,Plated,PTH,ComponentDrill
T4C1.020
%
G90
G05
T1
X127.68Y-113.09
X129.5Y-113.19
X145.39Y-104.2
T2
X129.248Y-91.796
X129.248Y-93.796
X129.248Y-95.796
X129.248Y-100.975
X129.248Y-102.975
X129.248Y-108.169
X129.248Y-110.169
X134.037Y-92.642
X136.037Y-92.642
X136.27Y-97.3
X136.27Y-99.3
X136.27Y-101.3
X141.022Y-92.642
X143.022Y-92.642
X148.1Y-92.642
X150.1Y-92.642
X152.1Y-92.642
X154.1Y-92.642
T3
X139.9Y-97.85
X139.9Y-100.39
T4
X152.59Y-106.11
X155.59Y-106.11
X158.285Y-92.75
X158.285Y-95.75
X158.285Y-98.75
X158.285Y-101.75
X158.285Y-104.75
X158.285Y-107.75
X158.285Y-110.75
X158.285Y-113.75
X158.285Y-116.75
X161.285Y-92.75
X161.285Y-95.75
X161.285Y-98.75
X161.285Y-101.75
X161.285Y-104.75
X161.285Y-107.75
X161.285Y-110.75
X161.285Y-113.75
X161.285Y-116.75
T0
M30
