%TF.GenerationSoftware,KiCad,Pcbnew,(6.0.5-0)*%
%TF.CreationDate,2022-06-02T09:51:47+08:00*%
%TF.ProjectId,StealthBurner,53746561-6c74-4684-9275-726e65722e6b,Bata2*%
%TF.SameCoordinates,Original*%
%TF.FileFunction,Legend,Top*%
%TF.FilePolarity,Positive*%
%FSLAX46Y46*%
G04 Gerber Fmt 4.6, Leading zero omitted, Abs format (unit mm)*
G04 Created by KiCad (PCBNEW (6.0.5-0)) date 2022-06-02 09:51:47*
%MOMM*%
%LPD*%
G01*
G04 APERTURE LIST*
%ADD10C,0.150000*%
%ADD11C,0.020000*%
%ADD12C,0.120000*%
%ADD13C,0.750000*%
G04 APERTURE END LIST*
D10*
X146044285Y-108617857D02*
X146008571Y-108653571D01*
X145901428Y-108689285D01*
X145830000Y-108689285D01*
X145722857Y-108653571D01*
X145651428Y-108582142D01*
X145615714Y-108510714D01*
X145580000Y-108367857D01*
X145580000Y-108260714D01*
X145615714Y-108117857D01*
X145651428Y-108046428D01*
X145722857Y-107975000D01*
X145830000Y-107939285D01*
X145901428Y-107939285D01*
X146008571Y-107975000D01*
X146044285Y-108010714D01*
X146365714Y-108689285D02*
X146365714Y-107939285D01*
X146687142Y-108689285D02*
X146687142Y-108296428D01*
X146651428Y-108225000D01*
X146580000Y-108189285D01*
X146472857Y-108189285D01*
X146401428Y-108225000D01*
X146365714Y-108260714D01*
X147365714Y-108689285D02*
X147365714Y-108296428D01*
X147330000Y-108225000D01*
X147258571Y-108189285D01*
X147115714Y-108189285D01*
X147044285Y-108225000D01*
X147365714Y-108653571D02*
X147294285Y-108689285D01*
X147115714Y-108689285D01*
X147044285Y-108653571D01*
X147008571Y-108582142D01*
X147008571Y-108510714D01*
X147044285Y-108439285D01*
X147115714Y-108403571D01*
X147294285Y-108403571D01*
X147365714Y-108367857D01*
X147722857Y-108689285D02*
X147722857Y-108189285D01*
X147722857Y-108332142D02*
X147758571Y-108260714D01*
X147794285Y-108225000D01*
X147865714Y-108189285D01*
X147937142Y-108189285D01*
X148294285Y-108689285D02*
X148222857Y-108653571D01*
X148187142Y-108582142D01*
X148187142Y-107939285D01*
X148580000Y-108689285D02*
X148580000Y-108189285D01*
X148580000Y-107939285D02*
X148544285Y-107975000D01*
X148580000Y-108010714D01*
X148615714Y-107975000D01*
X148580000Y-107939285D01*
X148580000Y-108010714D01*
X149222857Y-108653571D02*
X149151428Y-108689285D01*
X149008571Y-108689285D01*
X148937142Y-108653571D01*
X148901428Y-108582142D01*
X148901428Y-108296428D01*
X148937142Y-108225000D01*
X149008571Y-108189285D01*
X149151428Y-108189285D01*
X149222857Y-108225000D01*
X149258571Y-108296428D01*
X149258571Y-108367857D01*
X148901428Y-108439285D01*
X149722857Y-108332142D02*
X149722857Y-108689285D01*
X149472857Y-107939285D02*
X149722857Y-108332142D01*
X149972857Y-107939285D01*
X150544285Y-108189285D02*
X150544285Y-108689285D01*
X150222857Y-108189285D02*
X150222857Y-108582142D01*
X150258571Y-108653571D01*
X150330000Y-108689285D01*
X150437142Y-108689285D01*
X150508571Y-108653571D01*
X150544285Y-108617857D01*
X146258571Y-107639196D02*
X145901428Y-107639196D01*
X145901428Y-106889196D01*
X146830000Y-107639196D02*
X146830000Y-107246339D01*
X146794285Y-107174911D01*
X146722857Y-107139196D01*
X146580000Y-107139196D01*
X146508571Y-107174911D01*
X146830000Y-107603482D02*
X146758571Y-107639196D01*
X146580000Y-107639196D01*
X146508571Y-107603482D01*
X146472857Y-107532053D01*
X146472857Y-107460625D01*
X146508571Y-107389196D01*
X146580000Y-107353482D01*
X146758571Y-107353482D01*
X146830000Y-107317768D01*
X147151428Y-107603482D02*
X147222857Y-107639196D01*
X147365714Y-107639196D01*
X147437142Y-107603482D01*
X147472857Y-107532053D01*
X147472857Y-107496339D01*
X147437142Y-107424911D01*
X147365714Y-107389196D01*
X147258571Y-107389196D01*
X147187142Y-107353482D01*
X147151428Y-107282053D01*
X147151428Y-107246339D01*
X147187142Y-107174911D01*
X147258571Y-107139196D01*
X147365714Y-107139196D01*
X147437142Y-107174911D01*
X147758571Y-107603482D02*
X147830000Y-107639196D01*
X147972857Y-107639196D01*
X148044285Y-107603482D01*
X148080000Y-107532053D01*
X148080000Y-107496339D01*
X148044285Y-107424911D01*
X147972857Y-107389196D01*
X147865714Y-107389196D01*
X147794285Y-107353482D01*
X147758571Y-107282053D01*
X147758571Y-107246339D01*
X147794285Y-107174911D01*
X147865714Y-107139196D01*
X147972857Y-107139196D01*
X148044285Y-107174911D01*
X148401428Y-107639196D02*
X148401428Y-107139196D01*
X148401428Y-106889196D02*
X148365714Y-106924911D01*
X148401428Y-106960625D01*
X148437142Y-106924911D01*
X148401428Y-106889196D01*
X148401428Y-106960625D01*
X149187142Y-107567768D02*
X149151428Y-107603482D01*
X149044285Y-107639196D01*
X148972857Y-107639196D01*
X148865714Y-107603482D01*
X148794285Y-107532053D01*
X148758571Y-107460625D01*
X148722857Y-107317768D01*
X148722857Y-107210625D01*
X148758571Y-107067768D01*
X148794285Y-106996339D01*
X148865714Y-106924911D01*
X148972857Y-106889196D01*
X149044285Y-106889196D01*
X149151428Y-106924911D01*
X149187142Y-106960625D01*
X149830000Y-107639196D02*
X149830000Y-107246339D01*
X149794285Y-107174911D01*
X149722857Y-107139196D01*
X149580000Y-107139196D01*
X149508571Y-107174911D01*
X149830000Y-107603482D02*
X149758571Y-107639196D01*
X149580000Y-107639196D01*
X149508571Y-107603482D01*
X149472857Y-107532053D01*
X149472857Y-107460625D01*
X149508571Y-107389196D01*
X149580000Y-107353482D01*
X149758571Y-107353482D01*
X149830000Y-107317768D01*
X150080000Y-107139196D02*
X150365714Y-107139196D01*
X150187142Y-106889196D02*
X150187142Y-107532053D01*
X150222857Y-107603482D01*
X150294285Y-107639196D01*
X150365714Y-107639196D01*
%TO.C,J5*%
X134916666Y-95628571D02*
X134583333Y-95628571D01*
X134583333Y-96152380D02*
X134583333Y-95152380D01*
X135059523Y-95152380D01*
X135392857Y-96104761D02*
X135535714Y-96152380D01*
X135773809Y-96152380D01*
X135869047Y-96104761D01*
X135916666Y-96057142D01*
X135964285Y-95961904D01*
X135964285Y-95866666D01*
X135916666Y-95771428D01*
X135869047Y-95723809D01*
X135773809Y-95676190D01*
X135583333Y-95628571D01*
X135488095Y-95580952D01*
X135440476Y-95533333D01*
X135392857Y-95438095D01*
X135392857Y-95342857D01*
X135440476Y-95247619D01*
X135488095Y-95200000D01*
X135583333Y-95152380D01*
X135821428Y-95152380D01*
X135964285Y-95200000D01*
%TO.C,TH1*%
X131497097Y-113847982D02*
X132068526Y-113847982D01*
X131782812Y-114847982D02*
X131782812Y-113847982D01*
X132401859Y-114847982D02*
X132401859Y-113847982D01*
X132401859Y-114324173D02*
X132973288Y-114324173D01*
X132973288Y-114847982D02*
X132973288Y-113847982D01*
X133973288Y-114847982D02*
X133401859Y-114847982D01*
X133687573Y-114847982D02*
X133687573Y-113847982D01*
X133592335Y-113990840D01*
X133497097Y-114086078D01*
X133401859Y-114133697D01*
%TO.C,J8*%
X132552380Y-98061904D02*
X131552380Y-98061904D01*
X132552380Y-97490476D01*
X131552380Y-97490476D01*
X132028571Y-97014285D02*
X132028571Y-96680952D01*
X132552380Y-96538095D02*
X132552380Y-97014285D01*
X131552380Y-97014285D01*
X131552380Y-96538095D01*
X131552380Y-95919047D02*
X131552380Y-95728571D01*
X131600000Y-95633333D01*
X131695238Y-95538095D01*
X131885714Y-95490476D01*
X132219047Y-95490476D01*
X132409523Y-95538095D01*
X132504761Y-95633333D01*
X132552380Y-95728571D01*
X132552380Y-95919047D01*
X132504761Y-96014285D01*
X132409523Y-96109523D01*
X132219047Y-96157142D01*
X131885714Y-96157142D01*
X131695238Y-96109523D01*
X131600000Y-96014285D01*
X131552380Y-95919047D01*
%TO.C,J6*%
X132552380Y-110666666D02*
X131552380Y-110666666D01*
X132028571Y-110666666D02*
X132028571Y-110095238D01*
X132552380Y-110095238D02*
X131552380Y-110095238D01*
X132028571Y-109619047D02*
X132028571Y-109285714D01*
X132552380Y-109142857D02*
X132552380Y-109619047D01*
X131552380Y-109619047D01*
X131552380Y-109142857D01*
X132028571Y-108380952D02*
X132028571Y-108714285D01*
X132552380Y-108714285D02*
X131552380Y-108714285D01*
X131552380Y-108238095D01*
%TO.C,J9*%
X167452380Y-106107142D02*
X166452380Y-106107142D01*
X167166666Y-105773809D01*
X166452380Y-105440476D01*
X167452380Y-105440476D01*
X167357142Y-104392857D02*
X167404761Y-104440476D01*
X167452380Y-104583333D01*
X167452380Y-104678571D01*
X167404761Y-104821428D01*
X167309523Y-104916666D01*
X167214285Y-104964285D01*
X167023809Y-105011904D01*
X166880952Y-105011904D01*
X166690476Y-104964285D01*
X166595238Y-104916666D01*
X166500000Y-104821428D01*
X166452380Y-104678571D01*
X166452380Y-104583333D01*
X166500000Y-104440476D01*
X166547619Y-104392857D01*
X166452380Y-103964285D02*
X167261904Y-103964285D01*
X167357142Y-103916666D01*
X167404761Y-103869047D01*
X167452380Y-103773809D01*
X167452380Y-103583333D01*
X167404761Y-103488095D01*
X167357142Y-103440476D01*
X167261904Y-103392857D01*
X166452380Y-103392857D01*
%TO.C,J2*%
X149273809Y-95628571D02*
X149607142Y-95628571D01*
X149750000Y-96152380D02*
X149273809Y-96152380D01*
X149273809Y-95152380D01*
X149750000Y-95152380D01*
X150178571Y-95771428D02*
X150940476Y-95771428D01*
X151369047Y-96104761D02*
X151511904Y-96152380D01*
X151750000Y-96152380D01*
X151845238Y-96104761D01*
X151892857Y-96057142D01*
X151940476Y-95961904D01*
X151940476Y-95866666D01*
X151892857Y-95771428D01*
X151845238Y-95723809D01*
X151750000Y-95676190D01*
X151559523Y-95628571D01*
X151464285Y-95580952D01*
X151416666Y-95533333D01*
X151369047Y-95438095D01*
X151369047Y-95342857D01*
X151416666Y-95247619D01*
X151464285Y-95200000D01*
X151559523Y-95152380D01*
X151797619Y-95152380D01*
X151940476Y-95200000D01*
X152226190Y-95485714D02*
X152607142Y-95485714D01*
X152369047Y-95152380D02*
X152369047Y-96009523D01*
X152416666Y-96104761D01*
X152511904Y-96152380D01*
X152607142Y-96152380D01*
X153321428Y-96104761D02*
X153226190Y-96152380D01*
X153035714Y-96152380D01*
X152940476Y-96104761D01*
X152892857Y-96009523D01*
X152892857Y-95628571D01*
X152940476Y-95533333D01*
X153035714Y-95485714D01*
X153226190Y-95485714D01*
X153321428Y-95533333D01*
X153369047Y-95628571D01*
X153369047Y-95723809D01*
X152892857Y-95819047D01*
X153797619Y-95485714D02*
X153797619Y-96485714D01*
X153797619Y-95533333D02*
X153892857Y-95485714D01*
X154083333Y-95485714D01*
X154178571Y-95533333D01*
X154226190Y-95580952D01*
X154273809Y-95676190D01*
X154273809Y-95961904D01*
X154226190Y-96057142D01*
X154178571Y-96104761D01*
X154083333Y-96152380D01*
X153892857Y-96152380D01*
X153797619Y-96104761D01*
%TO.C,J3*%
X137241904Y-98132380D02*
X137241904Y-97132380D01*
X137241904Y-97608571D02*
X137813333Y-97608571D01*
X137813333Y-98132380D02*
X137813333Y-97132380D01*
X138289523Y-97608571D02*
X138622857Y-97608571D01*
X138765714Y-98132380D02*
X138289523Y-98132380D01*
X138289523Y-97132380D01*
X138765714Y-97132380D01*
%TO.C,D1*%
X157036693Y-98508095D02*
X156036693Y-98508095D01*
X156036693Y-98270000D01*
X156084313Y-98127142D01*
X156179551Y-98031904D01*
X156274789Y-97984285D01*
X156465265Y-97936666D01*
X156608122Y-97936666D01*
X156798598Y-97984285D01*
X156893836Y-98031904D01*
X156989074Y-98127142D01*
X157036693Y-98270000D01*
X157036693Y-98508095D01*
X157036693Y-96984285D02*
X157036693Y-97555714D01*
X157036693Y-97270000D02*
X156036693Y-97270000D01*
X156179551Y-97365238D01*
X156274789Y-97460476D01*
X156322408Y-97555714D01*
%TO.C,J1*%
X151621904Y-109072380D02*
X151621904Y-108072380D01*
X152002857Y-108072380D01*
X152098095Y-108120000D01*
X152145714Y-108167619D01*
X152193333Y-108262857D01*
X152193333Y-108405714D01*
X152145714Y-108500952D01*
X152098095Y-108548571D01*
X152002857Y-108596190D01*
X151621904Y-108596190D01*
X153193333Y-109072380D02*
X152860000Y-108596190D01*
X152621904Y-109072380D02*
X152621904Y-108072380D01*
X153002857Y-108072380D01*
X153098095Y-108120000D01*
X153145714Y-108167619D01*
X153193333Y-108262857D01*
X153193333Y-108405714D01*
X153145714Y-108500952D01*
X153098095Y-108548571D01*
X153002857Y-108596190D01*
X152621904Y-108596190D01*
X153812380Y-108072380D02*
X154002857Y-108072380D01*
X154098095Y-108120000D01*
X154193333Y-108215238D01*
X154240952Y-108405714D01*
X154240952Y-108739047D01*
X154193333Y-108929523D01*
X154098095Y-109024761D01*
X154002857Y-109072380D01*
X153812380Y-109072380D01*
X153717142Y-109024761D01*
X153621904Y-108929523D01*
X153574285Y-108739047D01*
X153574285Y-108405714D01*
X153621904Y-108215238D01*
X153717142Y-108120000D01*
X153812380Y-108072380D01*
X155002857Y-108548571D02*
X155145714Y-108596190D01*
X155193333Y-108643809D01*
X155240952Y-108739047D01*
X155240952Y-108881904D01*
X155193333Y-108977142D01*
X155145714Y-109024761D01*
X155050476Y-109072380D01*
X154669523Y-109072380D01*
X154669523Y-108072380D01*
X155002857Y-108072380D01*
X155098095Y-108120000D01*
X155145714Y-108167619D01*
X155193333Y-108262857D01*
X155193333Y-108358095D01*
X155145714Y-108453333D01*
X155098095Y-108500952D01*
X155002857Y-108548571D01*
X154669523Y-108548571D01*
X155669523Y-108548571D02*
X156002857Y-108548571D01*
X156145714Y-109072380D02*
X155669523Y-109072380D01*
X155669523Y-108072380D01*
X156145714Y-108072380D01*
%TO.C,J4*%
X142880952Y-96152380D02*
X142880952Y-95152380D01*
X142880952Y-95628571D02*
X143452380Y-95628571D01*
X143452380Y-96152380D02*
X143452380Y-95152380D01*
X143928571Y-95628571D02*
X144261904Y-95628571D01*
X144404761Y-96152380D02*
X143928571Y-96152380D01*
X143928571Y-95152380D01*
X144404761Y-95152380D01*
X144690476Y-95152380D02*
X145261904Y-95152380D01*
X144976190Y-96152380D02*
X144976190Y-95152380D01*
%TO.C,J7*%
X132552380Y-103440476D02*
X131552380Y-103440476D01*
X131552380Y-103059523D01*
X131600000Y-102964285D01*
X131647619Y-102916666D01*
X131742857Y-102869047D01*
X131885714Y-102869047D01*
X131980952Y-102916666D01*
X132028571Y-102964285D01*
X132076190Y-103059523D01*
X132076190Y-103440476D01*
X132457142Y-101869047D02*
X132504761Y-101916666D01*
X132552380Y-102059523D01*
X132552380Y-102154761D01*
X132504761Y-102297619D01*
X132409523Y-102392857D01*
X132314285Y-102440476D01*
X132123809Y-102488095D01*
X131980952Y-102488095D01*
X131790476Y-102440476D01*
X131695238Y-102392857D01*
X131600000Y-102297619D01*
X131552380Y-102154761D01*
X131552380Y-102059523D01*
X131600000Y-101916666D01*
X131647619Y-101869047D01*
X132028571Y-101107142D02*
X132028571Y-101440476D01*
X132552380Y-101440476D02*
X131552380Y-101440476D01*
X131552380Y-100964285D01*
%TO.C,L2*%
G36*
X134330000Y-103209745D02*
G01*
X136512813Y-104470021D01*
X136512813Y-106990178D01*
X134330000Y-108250256D01*
X132335906Y-107099120D01*
X133101077Y-107099120D01*
X133759294Y-107099120D01*
X134314522Y-107099120D01*
X134972938Y-107099120D01*
X135873447Y-105729108D01*
X135215032Y-105729108D01*
X134314522Y-107099120D01*
X133759294Y-107099120D01*
X135560709Y-104358698D01*
X134902294Y-104358698D01*
X133101077Y-107099120D01*
X132335906Y-107099120D01*
X132147188Y-106990178D01*
X132147188Y-105730393D01*
X132788537Y-105730393D01*
X133446755Y-105730694D01*
X134347463Y-104360682D01*
X133689047Y-104360682D01*
X132788537Y-105730393D01*
X132147188Y-105730393D01*
X132147188Y-104470021D01*
X134330000Y-103209745D01*
G37*
D11*
X134330000Y-103209745D02*
X136512813Y-104470021D01*
X136512813Y-106990178D01*
X134330000Y-108250256D01*
X132335906Y-107099120D01*
X133101077Y-107099120D01*
X133759294Y-107099120D01*
X134314522Y-107099120D01*
X134972938Y-107099120D01*
X135873447Y-105729108D01*
X135215032Y-105729108D01*
X134314522Y-107099120D01*
X133759294Y-107099120D01*
X135560709Y-104358698D01*
X134902294Y-104358698D01*
X133101077Y-107099120D01*
X132335906Y-107099120D01*
X132147188Y-106990178D01*
X132147188Y-105730393D01*
X132788537Y-105730393D01*
X133446755Y-105730694D01*
X134347463Y-104360682D01*
X133689047Y-104360682D01*
X132788537Y-105730393D01*
X132147188Y-105730393D01*
X132147188Y-104470021D01*
X134330000Y-103209745D01*
%TO.C,L1*%
G36*
X147388325Y-104452771D02*
G01*
X147425343Y-104477634D01*
X147454448Y-104511577D01*
X147469776Y-104544841D01*
X147474418Y-104586306D01*
X147464832Y-104624703D01*
X147443556Y-104657220D01*
X147413129Y-104681045D01*
X147376089Y-104693366D01*
X147337072Y-104691850D01*
X147287836Y-104673653D01*
X147250049Y-104643797D01*
X147225049Y-104603581D01*
X147216762Y-104575124D01*
X147217311Y-104535350D01*
X147231914Y-104497494D01*
X147257724Y-104465846D01*
X147291890Y-104444695D01*
X147306281Y-104440344D01*
X147347327Y-104439504D01*
X147388325Y-104452771D01*
G37*
G36*
X148156811Y-104461021D02*
G01*
X148220757Y-104488757D01*
X148222692Y-104489890D01*
X148251590Y-104509766D01*
X148288074Y-104538974D01*
X148328811Y-104574399D01*
X148370470Y-104612930D01*
X148409717Y-104651453D01*
X148443219Y-104686856D01*
X148467645Y-104716026D01*
X148473265Y-104723934D01*
X148500366Y-104777718D01*
X148510971Y-104833364D01*
X148505216Y-104892282D01*
X148493343Y-104931475D01*
X148462588Y-104990639D01*
X148419154Y-105038752D01*
X148364007Y-105075021D01*
X148298110Y-105098652D01*
X148286975Y-105101137D01*
X148262593Y-105105304D01*
X148239845Y-105106534D01*
X148213872Y-105104520D01*
X148179816Y-105098960D01*
X148146148Y-105092299D01*
X148103642Y-105083963D01*
X148072387Y-105079245D01*
X148047013Y-105077875D01*
X148022150Y-105079588D01*
X147992426Y-105084116D01*
X147989995Y-105084537D01*
X147939769Y-105093128D01*
X147902798Y-105098935D01*
X147875548Y-105102261D01*
X147854485Y-105103411D01*
X147836076Y-105102686D01*
X147816787Y-105100390D01*
X147812496Y-105099767D01*
X147774857Y-105092138D01*
X147743591Y-105079903D01*
X147712736Y-105060075D01*
X147681146Y-105033931D01*
X147640047Y-104988451D01*
X147609692Y-104935604D01*
X147592245Y-104879844D01*
X147588853Y-104844096D01*
X147591592Y-104805592D01*
X147600756Y-104769774D01*
X147617767Y-104734516D01*
X147644044Y-104697691D01*
X147681009Y-104657175D01*
X147730082Y-104610841D01*
X147765566Y-104579676D01*
X147806803Y-104544466D01*
X147838515Y-104518545D01*
X147863905Y-104499824D01*
X147886174Y-104486214D01*
X147908523Y-104475628D01*
X147934155Y-104465977D01*
X147946148Y-104461875D01*
X148015010Y-104447124D01*
X148086729Y-104446992D01*
X148156811Y-104461021D01*
G37*
G36*
X147822027Y-103951560D02*
G01*
X147833888Y-103957615D01*
X147864747Y-103985794D01*
X147885693Y-104024124D01*
X147895637Y-104068144D01*
X147893491Y-104113394D01*
X147880901Y-104150374D01*
X147854438Y-104185057D01*
X147819152Y-104206604D01*
X147778177Y-104214060D01*
X147734644Y-104206473D01*
X147718641Y-104199724D01*
X147686742Y-104175380D01*
X147664610Y-104141106D01*
X147652433Y-104100756D01*
X147650398Y-104058179D01*
X147658695Y-104017226D01*
X147677512Y-103981748D01*
X147706713Y-103955784D01*
X147742427Y-103943493D01*
X147783441Y-103942122D01*
X147822027Y-103951560D01*
G37*
G36*
X148349337Y-105448597D02*
G01*
X148373732Y-105464068D01*
X148392037Y-105487745D01*
X148399655Y-105515340D01*
X148399673Y-105516692D01*
X148394380Y-105545236D01*
X148377368Y-105567703D01*
X148346934Y-105585488D01*
X148301377Y-105599983D01*
X148296507Y-105601166D01*
X148253004Y-105608755D01*
X148197173Y-105614403D01*
X148133653Y-105618012D01*
X148067086Y-105619486D01*
X148002113Y-105618727D01*
X147943376Y-105615639D01*
X147895515Y-105610124D01*
X147892521Y-105609615D01*
X147844968Y-105599226D01*
X147812096Y-105586440D01*
X147791530Y-105569598D01*
X147780896Y-105547039D01*
X147778269Y-105529727D01*
X147778907Y-105502961D01*
X147787825Y-105483508D01*
X147798152Y-105471902D01*
X147808139Y-105462344D01*
X147817609Y-105456242D01*
X147829769Y-105453514D01*
X147847824Y-105454077D01*
X147874979Y-105457847D01*
X147914442Y-105464742D01*
X147934518Y-105468380D01*
X147979299Y-105473712D01*
X148035004Y-105476220D01*
X148095740Y-105476003D01*
X148155613Y-105473157D01*
X148208730Y-105467779D01*
X148234624Y-105463435D01*
X148269472Y-105456344D01*
X148300340Y-105450147D01*
X148321345Y-105446022D01*
X148323454Y-105445622D01*
X148349337Y-105448597D01*
G37*
G36*
X148861817Y-104533841D02*
G01*
X148902080Y-104546238D01*
X148904035Y-104547258D01*
X148928779Y-104569391D01*
X148945628Y-104602044D01*
X148953534Y-104640100D01*
X148951446Y-104678440D01*
X148938314Y-104711947D01*
X148937938Y-104712525D01*
X148905388Y-104748796D01*
X148865454Y-104772852D01*
X148821710Y-104783451D01*
X148777733Y-104779353D01*
X148761684Y-104773676D01*
X148726362Y-104749878D01*
X148703164Y-104716542D01*
X148693586Y-104677348D01*
X148699123Y-104635976D01*
X148702298Y-104627470D01*
X148721525Y-104590882D01*
X148746404Y-104564845D01*
X148778868Y-104544970D01*
X148818198Y-104533372D01*
X148861817Y-104533841D01*
G37*
G36*
X148527459Y-104036083D02*
G01*
X148558271Y-104053969D01*
X148581553Y-104081474D01*
X148594386Y-104118182D01*
X148595976Y-104138577D01*
X148589854Y-104189686D01*
X148570903Y-104230563D01*
X148541045Y-104261071D01*
X148503136Y-104280958D01*
X148460593Y-104288906D01*
X148419429Y-104284204D01*
X148402412Y-104277495D01*
X148375120Y-104254589D01*
X148356935Y-104220906D01*
X148348835Y-104180678D01*
X148351797Y-104138136D01*
X148362709Y-104105444D01*
X148387347Y-104069016D01*
X148419062Y-104044281D01*
X148454934Y-104030824D01*
X148492040Y-104028229D01*
X148527459Y-104036083D01*
G37*
G36*
X146009745Y-104516200D02*
G01*
X146015223Y-104444630D01*
X146023736Y-104376446D01*
X146035799Y-104307109D01*
X146051924Y-104232080D01*
X146062316Y-104188361D01*
X146113555Y-104013603D01*
X146180109Y-103845211D01*
X146261139Y-103684028D01*
X146355809Y-103530899D01*
X146463280Y-103386670D01*
X146582714Y-103252185D01*
X146713274Y-103128288D01*
X146854122Y-103015824D01*
X147004420Y-102915639D01*
X147163329Y-102828576D01*
X147330013Y-102755480D01*
X147503634Y-102697196D01*
X147555342Y-102683138D01*
X147653979Y-102659777D01*
X147746625Y-102642563D01*
X147839479Y-102630643D01*
X147938743Y-102623163D01*
X148012622Y-102620190D01*
X148199871Y-102622274D01*
X148380615Y-102639783D01*
X148556265Y-102673021D01*
X148728228Y-102722288D01*
X148897916Y-102787887D01*
X148985610Y-102828498D01*
X149148892Y-102917699D01*
X149302211Y-103020328D01*
X149444936Y-103135519D01*
X149576433Y-103262406D01*
X149696072Y-103400123D01*
X149803219Y-103547803D01*
X149897243Y-103704581D01*
X149977511Y-103869590D01*
X150043391Y-104041964D01*
X150094252Y-104220837D01*
X150127660Y-104393200D01*
X150132748Y-104434030D01*
X150137669Y-104486335D01*
X150141980Y-104544521D01*
X150145239Y-104602994D01*
X150146244Y-104627911D01*
X150144212Y-104812098D01*
X150125610Y-104994354D01*
X150090916Y-105173588D01*
X150040611Y-105348711D01*
X149975172Y-105518630D01*
X149895080Y-105682258D01*
X149800812Y-105838502D01*
X149692848Y-105986274D01*
X149571666Y-106124482D01*
X149437747Y-106252036D01*
X149429642Y-106259046D01*
X149281336Y-106375550D01*
X149124348Y-106477437D01*
X148959161Y-106564493D01*
X148786256Y-106636506D01*
X148606112Y-106693261D01*
X148419212Y-106734544D01*
X148327126Y-106748818D01*
X148291144Y-106752485D01*
X148242798Y-106755788D01*
X148186440Y-106758588D01*
X148126424Y-106760750D01*
X148067102Y-106762138D01*
X148012827Y-106762615D01*
X147967951Y-106762045D01*
X147943053Y-106760847D01*
X147761926Y-106740319D01*
X147589766Y-106706620D01*
X147423860Y-106659022D01*
X147261492Y-106596799D01*
X147166373Y-106552990D01*
X147001553Y-106463170D01*
X146846961Y-106360202D01*
X146703236Y-106244900D01*
X146571020Y-106118078D01*
X146450953Y-105980552D01*
X146343675Y-105833136D01*
X146249827Y-105676645D01*
X146170050Y-105511893D01*
X146104984Y-105339696D01*
X146055269Y-105160867D01*
X146048735Y-105131473D01*
X146034710Y-105063342D01*
X146024010Y-105003540D01*
X146016221Y-104947769D01*
X146010926Y-104891730D01*
X146007711Y-104831125D01*
X146006160Y-104761656D01*
X146005843Y-104687656D01*
X146006326Y-104640714D01*
X146157582Y-104640714D01*
X146160590Y-104821351D01*
X146180178Y-104998719D01*
X146216043Y-105172053D01*
X146267878Y-105340585D01*
X146335380Y-105503548D01*
X146418243Y-105660176D01*
X146516163Y-105809702D01*
X146628835Y-105951358D01*
X146715755Y-106044855D01*
X146751184Y-106079191D01*
X146792050Y-106116404D01*
X146836193Y-106154773D01*
X146881455Y-106192576D01*
X146925675Y-106228092D01*
X146966695Y-106259599D01*
X147002355Y-106285374D01*
X147030495Y-106303697D01*
X147048957Y-106312847D01*
X147052784Y-106313563D01*
X147058198Y-106306133D01*
X147063191Y-106288025D01*
X147063581Y-106285825D01*
X147065417Y-106269370D01*
X147068088Y-106237556D01*
X147071486Y-106192066D01*
X147075506Y-106134583D01*
X147080038Y-106066792D01*
X147084976Y-105990376D01*
X147090212Y-105907020D01*
X147095639Y-105818406D01*
X147101150Y-105726219D01*
X147106636Y-105632142D01*
X147111990Y-105537860D01*
X147116437Y-105457375D01*
X147130296Y-105202900D01*
X147039341Y-105117238D01*
X146981948Y-105061275D01*
X146935639Y-105011330D01*
X146897459Y-104963714D01*
X146864450Y-104914740D01*
X146833656Y-104860717D01*
X146833504Y-104860431D01*
X146794024Y-104771336D01*
X146767611Y-104678951D01*
X146754884Y-104586610D01*
X146755562Y-104548415D01*
X146880860Y-104548415D01*
X146886112Y-104629843D01*
X146906799Y-104713395D01*
X146942954Y-104797971D01*
X146994609Y-104882473D01*
X146995662Y-104883960D01*
X147019531Y-104914045D01*
X147052322Y-104950622D01*
X147090463Y-104990158D01*
X147130379Y-105029117D01*
X147168497Y-105063965D01*
X147201245Y-105091167D01*
X147215690Y-105101601D01*
X147236586Y-105118796D01*
X147250548Y-105136446D01*
X147252786Y-105141826D01*
X147253493Y-105154856D01*
X147253193Y-105183213D01*
X147251978Y-105225189D01*
X147249946Y-105279076D01*
X147247192Y-105343166D01*
X147243809Y-105415753D01*
X147239895Y-105495128D01*
X147235544Y-105579583D01*
X147230851Y-105667411D01*
X147225913Y-105756905D01*
X147220823Y-105846356D01*
X147215677Y-105934057D01*
X147210572Y-106018301D01*
X147205601Y-106097379D01*
X147200860Y-106169584D01*
X147196445Y-106233209D01*
X147192451Y-106286545D01*
X147188972Y-106327886D01*
X147186105Y-106355523D01*
X147184477Y-106365962D01*
X147183497Y-106377204D01*
X147187735Y-106387195D01*
X147199425Y-106397550D01*
X147220796Y-106409887D01*
X147254081Y-106425823D01*
X147288106Y-106441066D01*
X147441712Y-106501633D01*
X147597694Y-106548960D01*
X147752597Y-106582094D01*
X147844901Y-106594909D01*
X147884174Y-106599216D01*
X147920433Y-106603244D01*
X147947961Y-106606354D01*
X147955855Y-106607271D01*
X147984085Y-106608941D01*
X148025461Y-106609246D01*
X148076126Y-106608347D01*
X148132225Y-106606408D01*
X148189903Y-106603591D01*
X148245303Y-106600059D01*
X148294569Y-106595975D01*
X148333846Y-106591501D01*
X148335661Y-106591244D01*
X148437152Y-106574722D01*
X148527971Y-106555539D01*
X148614467Y-106532338D01*
X148621581Y-106530211D01*
X148665427Y-106516247D01*
X148711973Y-106500156D01*
X148758100Y-106483160D01*
X148800693Y-106466484D01*
X148836633Y-106451350D01*
X148862805Y-106438982D01*
X148876091Y-106430602D01*
X148876466Y-106430187D01*
X148879157Y-106419269D01*
X148879785Y-106394881D01*
X148878319Y-106356158D01*
X148874726Y-106302236D01*
X148868973Y-106232252D01*
X148868960Y-106232102D01*
X148859067Y-106116406D01*
X148849732Y-106002304D01*
X148841075Y-105891532D01*
X148833212Y-105785821D01*
X148826264Y-105686904D01*
X148820347Y-105596514D01*
X148815579Y-105516384D01*
X148812081Y-105448246D01*
X148809968Y-105393834D01*
X148809350Y-105358482D01*
X148809350Y-105247853D01*
X148879763Y-105185647D01*
X148963168Y-105109643D01*
X149032887Y-105040737D01*
X149090000Y-104977456D01*
X149135583Y-104918327D01*
X149170713Y-104861875D01*
X149196468Y-104806629D01*
X149213925Y-104751113D01*
X149220420Y-104719697D01*
X149225134Y-104645020D01*
X149213916Y-104573740D01*
X149187785Y-104507231D01*
X149147759Y-104446865D01*
X149094857Y-104394015D01*
X149030096Y-104350054D01*
X148954494Y-104316356D01*
X148911769Y-104303482D01*
X148881768Y-104294920D01*
X148857774Y-104286499D01*
X148845624Y-104280438D01*
X148840462Y-104269077D01*
X148837038Y-104244168D01*
X148835227Y-104204420D01*
X148834854Y-104168113D01*
X148831722Y-104087131D01*
X148821920Y-104019597D01*
X148804577Y-103962903D01*
X148778821Y-103914443D01*
X148743783Y-103871610D01*
X148731950Y-103860044D01*
X148672981Y-103815241D01*
X148607492Y-103783736D01*
X148538447Y-103766327D01*
X148468807Y-103763813D01*
X148412029Y-103773793D01*
X148363561Y-103792973D01*
X148310933Y-103822938D01*
X148259406Y-103860240D01*
X148214240Y-103901428D01*
X148209178Y-103906814D01*
X148179699Y-103934815D01*
X148154471Y-103948443D01*
X148131482Y-103947255D01*
X148108717Y-103930806D01*
X148084163Y-103898652D01*
X148070383Y-103876200D01*
X148025644Y-103814010D01*
X147971779Y-103763056D01*
X147911053Y-103724531D01*
X147845730Y-103699631D01*
X147778074Y-103689551D01*
X147723278Y-103693042D01*
X147656161Y-103709654D01*
X147592493Y-103735916D01*
X147536459Y-103769649D01*
X147492245Y-103808673D01*
X147485051Y-103817091D01*
X147452323Y-103863569D01*
X147429835Y-103911099D01*
X147416227Y-103964049D01*
X147410138Y-104026790D01*
X147409488Y-104059753D01*
X147408808Y-104096078D01*
X147407091Y-104126244D01*
X147404636Y-104145970D01*
X147403087Y-104150810D01*
X147385327Y-104167282D01*
X147358569Y-104174726D01*
X147320201Y-104173669D01*
X147302349Y-104171198D01*
X147228512Y-104167709D01*
X147157004Y-104180997D01*
X147088460Y-104210853D01*
X147023518Y-104257067D01*
X147013569Y-104265907D01*
X146957397Y-104327856D01*
X146916534Y-104396322D01*
X146891011Y-104470208D01*
X146880860Y-104548415D01*
X146755562Y-104548415D01*
X146756464Y-104497647D01*
X146760506Y-104467959D01*
X146765632Y-104435694D01*
X146766949Y-104413763D01*
X146763540Y-104395675D01*
X146754485Y-104374939D01*
X146744657Y-104356060D01*
X146725199Y-104307015D01*
X146719504Y-104262415D01*
X146726358Y-104224107D01*
X146744547Y-104193938D01*
X146772859Y-104173754D01*
X146810079Y-104165402D01*
X146854994Y-104170727D01*
X146864610Y-104173538D01*
X146907614Y-104187290D01*
X146954189Y-104149354D01*
X147026753Y-104099498D01*
X147102610Y-104064978D01*
X147180084Y-104046445D01*
X147227667Y-104043267D01*
X147281595Y-104043267D01*
X147281721Y-104011261D01*
X147285655Y-103970153D01*
X147296023Y-103920891D01*
X147311083Y-103870306D01*
X147329094Y-103825231D01*
X147329195Y-103825017D01*
X147353967Y-103783270D01*
X147388696Y-103738590D01*
X147428536Y-103696546D01*
X147468643Y-103662706D01*
X147473303Y-103659420D01*
X147492247Y-103645333D01*
X147503825Y-103631928D01*
X147510920Y-103613802D01*
X147516416Y-103585552D01*
X147517957Y-103575766D01*
X147528735Y-103526783D01*
X147544541Y-103491582D01*
X147566983Y-103467219D01*
X147582622Y-103457432D01*
X147616533Y-103448936D01*
X147652998Y-103455523D01*
X147689525Y-103475971D01*
X147723620Y-103509057D01*
X147742851Y-103536035D01*
X147755772Y-103554094D01*
X147769531Y-103562666D01*
X147791039Y-103565206D01*
X147801373Y-103565310D01*
X147868458Y-103573304D01*
X147937723Y-103596462D01*
X148006607Y-103633553D01*
X148072544Y-103683345D01*
X148099690Y-103708687D01*
X148127979Y-103736500D01*
X148147097Y-103753842D01*
X148159846Y-103762404D01*
X148169031Y-103763879D01*
X148177456Y-103759958D01*
X148180772Y-103757604D01*
X148257572Y-103706081D01*
X148327862Y-103669250D01*
X148346786Y-103661384D01*
X148376769Y-103650706D01*
X148404083Y-103644042D01*
X148434520Y-103640515D01*
X148473870Y-103639249D01*
X148493557Y-103639180D01*
X148533239Y-103640039D01*
X148568448Y-103642273D01*
X148594459Y-103645504D01*
X148604344Y-103648020D01*
X148618427Y-103651504D01*
X148633563Y-103648397D01*
X148654595Y-103637151D01*
X148670568Y-103626844D01*
X148714671Y-103603226D01*
X148757358Y-103592920D01*
X148758007Y-103592857D01*
X148784686Y-103591443D01*
X148802522Y-103595610D01*
X148819526Y-103608233D01*
X148830475Y-103618869D01*
X148848239Y-103638503D01*
X148857203Y-103656146D01*
X148860297Y-103679330D01*
X148860560Y-103696193D01*
X148859145Y-103726872D01*
X148855527Y-103753491D01*
X148852699Y-103764108D01*
X148850065Y-103777821D01*
X148853939Y-103793576D01*
X148865877Y-103815666D01*
X148878447Y-103835077D01*
X148915066Y-103903403D01*
X148941852Y-103982740D01*
X148957686Y-104069419D01*
X148960656Y-104104523D01*
X148963071Y-104142627D01*
X148965697Y-104167052D01*
X148969536Y-104181172D01*
X148975588Y-104188360D01*
X148984854Y-104191989D01*
X148986746Y-104192476D01*
X149020927Y-104204195D01*
X149062437Y-104222954D01*
X149104949Y-104245550D01*
X149142140Y-104268777D01*
X149153161Y-104276794D01*
X149193982Y-104308165D01*
X149240187Y-104294733D01*
X149278121Y-104286910D01*
X149310643Y-104286072D01*
X149315885Y-104286834D01*
X149346791Y-104299938D01*
X149374441Y-104323966D01*
X149392334Y-104353083D01*
X149393477Y-104356507D01*
X149394742Y-104383273D01*
X149386938Y-104417986D01*
X149371684Y-104455280D01*
X149355156Y-104483443D01*
X149340807Y-104506050D01*
X149335372Y-104522594D01*
X149337265Y-104540471D01*
X149340425Y-104552092D01*
X149346965Y-104587927D01*
X149350009Y-104634599D01*
X149349683Y-104686264D01*
X149346112Y-104737077D01*
X149339421Y-104781193D01*
X149335170Y-104798164D01*
X149305461Y-104877275D01*
X149263577Y-104955354D01*
X149208554Y-105033718D01*
X149139429Y-105113680D01*
X149055235Y-105196555D01*
X149018895Y-105229256D01*
X148927204Y-105309970D01*
X148932780Y-105404223D01*
X148935833Y-105452889D01*
X148939800Y-105510958D01*
X148944754Y-105579347D01*
X148950767Y-105658974D01*
X148957910Y-105750756D01*
X148966254Y-105855611D01*
X148975872Y-105974458D01*
X148986835Y-106108213D01*
X148999215Y-106257796D01*
X149002966Y-106302894D01*
X149006194Y-106332900D01*
X149009953Y-106354888D01*
X149013493Y-106364627D01*
X149013903Y-106364773D01*
X149022750Y-106360336D01*
X149043112Y-106348146D01*
X149072277Y-106329883D01*
X149107534Y-106307225D01*
X149121492Y-106298123D01*
X149267087Y-106192952D01*
X149400383Y-106076658D01*
X149521056Y-105950237D01*
X149628786Y-105814686D01*
X149723250Y-105671004D01*
X149804128Y-105520188D01*
X149871097Y-105363235D01*
X149923836Y-105201142D01*
X149962024Y-105034906D01*
X149985338Y-104865526D01*
X149993457Y-104693999D01*
X149986060Y-104521321D01*
X149962825Y-104348491D01*
X149923431Y-104176505D01*
X149867555Y-104006361D01*
X149863707Y-103996325D01*
X149791980Y-103833936D01*
X149706047Y-103680022D01*
X149606846Y-103535380D01*
X149495314Y-103400804D01*
X149372386Y-103277090D01*
X149239001Y-103165034D01*
X149096094Y-103065430D01*
X148944604Y-102979074D01*
X148785466Y-102906762D01*
X148619618Y-102849289D01*
X148467952Y-102811431D01*
X148289810Y-102783256D01*
X148112810Y-102771638D01*
X147937849Y-102776083D01*
X147765823Y-102796097D01*
X147597627Y-102831186D01*
X147434157Y-102880856D01*
X147276309Y-102944612D01*
X147124978Y-103021961D01*
X146981061Y-103112409D01*
X146845454Y-103215462D01*
X146719051Y-103330625D01*
X146602749Y-103457404D01*
X146497443Y-103595306D01*
X146404030Y-103743837D01*
X146323406Y-103902501D01*
X146274316Y-104021302D01*
X146229381Y-104155735D01*
X146195897Y-104290677D01*
X146173079Y-104430288D01*
X146160142Y-104578729D01*
X146157582Y-104640714D01*
X146006326Y-104640714D01*
X146006789Y-104595695D01*
X146009745Y-104516200D01*
G37*
D12*
%TO.C,J5*%
X135350000Y-90550000D02*
X135350000Y-91050000D01*
X136550000Y-94860000D02*
X136850000Y-94860000D01*
X137700000Y-90550000D02*
X132800000Y-90550000D01*
X138310000Y-89940000D02*
X132190000Y-89940000D01*
X137360000Y-94960000D02*
X138610000Y-94960000D01*
X135350000Y-91050000D02*
X135150000Y-91050000D01*
X132190000Y-93350000D02*
X132800000Y-93350000D01*
X138310000Y-92050000D02*
X137700000Y-92050000D01*
X135250000Y-90550000D02*
X135250000Y-91050000D01*
X132800000Y-94050000D02*
X134750000Y-94050000D01*
X132190000Y-89940000D02*
X132190000Y-94660000D01*
X138610000Y-94960000D02*
X138610000Y-93710000D01*
X136550000Y-94660000D02*
X136550000Y-94860000D01*
X134750000Y-94050000D02*
X134750000Y-94660000D01*
X132190000Y-92050000D02*
X132800000Y-92050000D01*
X132800000Y-90550000D02*
X132800000Y-94050000D01*
X135750000Y-94050000D02*
X137700000Y-94050000D01*
X136850000Y-94860000D02*
X136850000Y-94660000D01*
X135750000Y-94660000D02*
X135750000Y-94050000D01*
X135150000Y-91050000D02*
X135150000Y-90550000D01*
X137700000Y-94050000D02*
X137700000Y-90550000D01*
X138310000Y-94660000D02*
X138310000Y-89940000D01*
X138310000Y-93350000D02*
X137700000Y-93350000D01*
X136550000Y-94760000D02*
X136850000Y-94760000D01*
X132190000Y-94660000D02*
X138310000Y-94660000D01*
%TO.C,TH1*%
X129927064Y-113665000D02*
X129472936Y-113665000D01*
X129927064Y-115135000D02*
X129472936Y-115135000D01*
%TO.C,J8*%
X126950000Y-93000000D02*
X127450000Y-93000000D01*
X129750000Y-98060000D02*
X129750000Y-97450000D01*
X131360000Y-90890000D02*
X131360000Y-89640000D01*
X126950000Y-90550000D02*
X126950000Y-97450000D01*
X131360000Y-89640000D02*
X130110000Y-89640000D01*
X127450000Y-94900000D02*
X127450000Y-95100000D01*
X131160000Y-91700000D02*
X131160000Y-91400000D01*
X127450000Y-93100000D02*
X126950000Y-93100000D01*
X128450000Y-89940000D02*
X128450000Y-90550000D01*
X131260000Y-91400000D02*
X131060000Y-91400000D01*
X128450000Y-98060000D02*
X128450000Y-97450000D01*
X131060000Y-98060000D02*
X131060000Y-89940000D01*
X126340000Y-89940000D02*
X126340000Y-98060000D01*
X130450000Y-92500000D02*
X130450000Y-90550000D01*
X131060000Y-92500000D02*
X130450000Y-92500000D01*
X127450000Y-92900000D02*
X127450000Y-93100000D01*
X131260000Y-91700000D02*
X131260000Y-91400000D01*
X126340000Y-98060000D02*
X131060000Y-98060000D01*
X126950000Y-97450000D02*
X130450000Y-97450000D01*
X131060000Y-91700000D02*
X131260000Y-91700000D01*
X130450000Y-90550000D02*
X126950000Y-90550000D01*
X130450000Y-97450000D02*
X130450000Y-95500000D01*
X127450000Y-95100000D02*
X126950000Y-95100000D01*
X131060000Y-89940000D02*
X126340000Y-89940000D01*
X126950000Y-94900000D02*
X127450000Y-94900000D01*
X130450000Y-95500000D02*
X131060000Y-95500000D01*
X126950000Y-95000000D02*
X127450000Y-95000000D01*
X126950000Y-92900000D02*
X127450000Y-92900000D01*
X129750000Y-89940000D02*
X129750000Y-90550000D01*
%TO.C,J6*%
X130450000Y-109000000D02*
X130450000Y-107050000D01*
X130450000Y-111950000D02*
X130450000Y-110000000D01*
X131060000Y-106440000D02*
X126340000Y-106440000D01*
X129750000Y-106440000D02*
X129750000Y-107050000D01*
X131360000Y-107390000D02*
X131360000Y-106140000D01*
X129750000Y-112560000D02*
X129750000Y-111950000D01*
X130450000Y-110000000D02*
X131060000Y-110000000D01*
X126950000Y-107050000D02*
X126950000Y-111950000D01*
X131160000Y-108200000D02*
X131160000Y-107900000D01*
X128450000Y-112560000D02*
X128450000Y-111950000D01*
X131060000Y-109000000D02*
X130450000Y-109000000D01*
X127450000Y-109600000D02*
X126950000Y-109600000D01*
X130450000Y-107050000D02*
X126950000Y-107050000D01*
X131260000Y-107900000D02*
X131060000Y-107900000D01*
X131260000Y-108200000D02*
X131260000Y-107900000D01*
X126950000Y-109400000D02*
X127450000Y-109400000D01*
X131360000Y-106140000D02*
X130110000Y-106140000D01*
X126950000Y-109500000D02*
X127450000Y-109500000D01*
X128450000Y-106440000D02*
X128450000Y-107050000D01*
X131060000Y-108200000D02*
X131260000Y-108200000D01*
X126340000Y-112560000D02*
X131060000Y-112560000D01*
X131060000Y-112560000D02*
X131060000Y-106440000D01*
X126340000Y-106440000D02*
X126340000Y-112560000D01*
X126950000Y-111950000D02*
X130450000Y-111950000D01*
X127450000Y-109400000D02*
X127450000Y-109600000D01*
%TO.C,J9*%
X169480000Y-120435000D02*
X160350000Y-120435000D01*
X170480000Y-119435000D02*
X169480000Y-120435000D01*
X169480000Y-89065000D02*
X170480000Y-90065000D01*
X170480000Y-90065000D02*
X170480000Y-119435000D01*
X160350000Y-89065000D02*
X169480000Y-89065000D01*
X160350000Y-120435000D02*
X160350000Y-89065000D01*
%TO.C,J2*%
X147300000Y-94050000D02*
X149250000Y-94050000D01*
X153650000Y-91050000D02*
X153650000Y-90550000D01*
X156200000Y-94050000D02*
X156200000Y-90550000D01*
X151850000Y-91050000D02*
X151650000Y-91050000D01*
X149850000Y-90550000D02*
X149850000Y-91050000D01*
X156810000Y-94660000D02*
X156810000Y-89940000D01*
X146690000Y-94660000D02*
X156810000Y-94660000D01*
X155050000Y-94660000D02*
X155050000Y-94860000D01*
X149250000Y-94050000D02*
X149250000Y-94660000D01*
X146690000Y-93350000D02*
X147300000Y-93350000D01*
X155350000Y-94860000D02*
X155350000Y-94660000D01*
X149850000Y-91050000D02*
X149650000Y-91050000D01*
X147300000Y-90550000D02*
X147300000Y-94050000D01*
X156810000Y-93350000D02*
X156200000Y-93350000D01*
X149650000Y-91050000D02*
X149650000Y-90550000D01*
X151850000Y-90550000D02*
X151850000Y-91050000D01*
X146690000Y-89940000D02*
X146690000Y-94660000D01*
X154250000Y-94660000D02*
X154250000Y-94050000D01*
X153850000Y-91050000D02*
X153650000Y-91050000D01*
X157110000Y-94960000D02*
X157110000Y-93710000D01*
X149750000Y-90550000D02*
X149750000Y-91050000D01*
X153850000Y-90550000D02*
X153850000Y-91050000D01*
X155050000Y-94860000D02*
X155350000Y-94860000D01*
X156810000Y-92050000D02*
X156200000Y-92050000D01*
X151650000Y-91050000D02*
X151650000Y-90550000D01*
X156200000Y-90550000D02*
X147300000Y-90550000D01*
X146690000Y-92050000D02*
X147300000Y-92050000D01*
X156810000Y-89940000D02*
X146690000Y-89940000D01*
X155050000Y-94760000D02*
X155350000Y-94760000D01*
X153750000Y-90550000D02*
X153750000Y-91050000D01*
X154250000Y-94050000D02*
X156200000Y-94050000D01*
X151750000Y-90550000D02*
X151750000Y-91050000D01*
X155860000Y-94960000D02*
X157110000Y-94960000D01*
%TO.C,J3*%
X137315000Y-107780000D02*
X137315000Y-98650000D01*
X143685000Y-108780000D02*
X138315000Y-108780000D01*
X144685000Y-98650000D02*
X144685000Y-107780000D01*
X144685000Y-107780000D02*
X143685000Y-108780000D01*
X137315000Y-98650000D02*
X144685000Y-98650000D01*
X138315000Y-108780000D02*
X137315000Y-107780000D01*
%TO.C,D1*%
X153626371Y-97770000D02*
X153740000Y-97770000D01*
X153626371Y-97770000D02*
G75*
G03*
X153626371Y-97770000I-1326371J0D01*
G01*
%TO.C,J1*%
X152050000Y-104400000D02*
X152550000Y-104400000D01*
X152550000Y-104400000D02*
X152550000Y-104600000D01*
X152050000Y-100050000D02*
X152050000Y-106950000D01*
X154850000Y-107560000D02*
X154850000Y-106950000D01*
X151440000Y-99440000D02*
X151440000Y-107560000D01*
X152550000Y-102600000D02*
X152050000Y-102600000D01*
X156160000Y-107560000D02*
X156160000Y-99440000D01*
X151440000Y-107560000D02*
X156160000Y-107560000D01*
X153550000Y-99440000D02*
X153550000Y-100050000D01*
X156360000Y-101200000D02*
X156360000Y-100900000D01*
X155550000Y-105000000D02*
X156160000Y-105000000D01*
X152550000Y-102400000D02*
X152550000Y-102600000D01*
X153550000Y-107560000D02*
X153550000Y-106950000D01*
X155550000Y-106950000D02*
X155550000Y-105000000D01*
X156360000Y-100900000D02*
X156160000Y-100900000D01*
X152050000Y-102500000D02*
X152550000Y-102500000D01*
X152050000Y-104500000D02*
X152550000Y-104500000D01*
X156160000Y-99440000D02*
X151440000Y-99440000D01*
X154850000Y-99440000D02*
X154850000Y-100050000D01*
X156460000Y-100390000D02*
X156460000Y-99140000D01*
X156160000Y-102000000D02*
X155550000Y-102000000D01*
X152050000Y-102400000D02*
X152550000Y-102400000D01*
X156460000Y-99140000D02*
X155210000Y-99140000D01*
X152050000Y-106950000D02*
X155550000Y-106950000D01*
X155550000Y-100050000D02*
X152050000Y-100050000D01*
X156260000Y-101200000D02*
X156260000Y-100900000D01*
X156160000Y-101200000D02*
X156360000Y-101200000D01*
X155550000Y-102000000D02*
X155550000Y-100050000D01*
X152550000Y-104600000D02*
X152050000Y-104600000D01*
D13*
%TO.C,M2*%
X138050000Y-112000000D02*
G75*
G03*
X138050000Y-112000000I-2050000J0D01*
G01*
%TO.C,M1*%
X150050000Y-99230000D02*
G75*
G03*
X150050000Y-99230000I-2050000J0D01*
G01*
D12*
%TO.C,J4*%
X143000000Y-94660000D02*
X143000000Y-94050000D01*
X145560000Y-93350000D02*
X144950000Y-93350000D01*
X142500000Y-90550000D02*
X142500000Y-91050000D01*
X139440000Y-93350000D02*
X140050000Y-93350000D01*
X145860000Y-94960000D02*
X145860000Y-93710000D01*
X144100000Y-94860000D02*
X144100000Y-94660000D01*
X143800000Y-94760000D02*
X144100000Y-94760000D01*
X143000000Y-94050000D02*
X144950000Y-94050000D01*
X140050000Y-90550000D02*
X140050000Y-94050000D01*
X139440000Y-92050000D02*
X140050000Y-92050000D01*
X144950000Y-90550000D02*
X140050000Y-90550000D01*
X142400000Y-91050000D02*
X142400000Y-90550000D01*
X143800000Y-94860000D02*
X144100000Y-94860000D01*
X142600000Y-90550000D02*
X142600000Y-91050000D01*
X142600000Y-91050000D02*
X142400000Y-91050000D01*
X139440000Y-89940000D02*
X139440000Y-94660000D01*
X144950000Y-94050000D02*
X144950000Y-90550000D01*
X145560000Y-92050000D02*
X144950000Y-92050000D01*
X144610000Y-94960000D02*
X145860000Y-94960000D01*
X139440000Y-94660000D02*
X145560000Y-94660000D01*
X145560000Y-89940000D02*
X139440000Y-89940000D01*
X145560000Y-94660000D02*
X145560000Y-89940000D01*
X142000000Y-94050000D02*
X142000000Y-94660000D01*
X143800000Y-94660000D02*
X143800000Y-94860000D01*
X140050000Y-94050000D02*
X142000000Y-94050000D01*
%TO.C,J7*%
X131260000Y-100950000D02*
X131260000Y-100650000D01*
X127450000Y-102350000D02*
X126950000Y-102350000D01*
X131360000Y-98890000D02*
X130110000Y-98890000D01*
X131060000Y-100950000D02*
X131260000Y-100950000D01*
X130450000Y-99800000D02*
X126950000Y-99800000D01*
X131060000Y-101750000D02*
X130450000Y-101750000D01*
X131260000Y-100650000D02*
X131060000Y-100650000D01*
X128450000Y-99190000D02*
X128450000Y-99800000D01*
X128450000Y-105310000D02*
X128450000Y-104700000D01*
X126950000Y-102150000D02*
X127450000Y-102150000D01*
X126340000Y-105310000D02*
X131060000Y-105310000D01*
X130450000Y-104700000D02*
X130450000Y-102750000D01*
X126950000Y-104700000D02*
X130450000Y-104700000D01*
X131360000Y-100140000D02*
X131360000Y-98890000D01*
X129750000Y-105310000D02*
X129750000Y-104700000D01*
X126950000Y-102250000D02*
X127450000Y-102250000D01*
X126950000Y-99800000D02*
X126950000Y-104700000D01*
X126340000Y-99190000D02*
X126340000Y-105310000D01*
X129750000Y-99190000D02*
X129750000Y-99800000D01*
X131160000Y-100950000D02*
X131160000Y-100650000D01*
X131060000Y-105310000D02*
X131060000Y-99190000D01*
X127450000Y-102150000D02*
X127450000Y-102350000D01*
X131060000Y-99190000D02*
X126340000Y-99190000D01*
X130450000Y-102750000D02*
X131060000Y-102750000D01*
X130450000Y-101750000D02*
X130450000Y-99800000D01*
%TD*%
M02*
