%TF.GenerationSoftware,KiCad,Pcbnew,(6.0.5-0)*%
%TF.CreationDate,2022-05-22T17:48:16+08:00*%
%TF.ProjectId,StealthBurner,53746561-6c74-4684-9275-726e65722e6b,rev?*%
%TF.SameCoordinates,Original*%
%TF.FileFunction,Legend,Top*%
%TF.FilePolarity,Positive*%
%FSLAX46Y46*%
G04 Gerber Fmt 4.6, Leading zero omitted, Abs format (unit mm)*
G04 Created by KiCad (PCBNEW (6.0.5-0)) date 2022-05-22 17:48:16*
%MOMM*%
%LPD*%
G01*
G04 APERTURE LIST*
%ADD10C,0.150000*%
%ADD11C,0.120000*%
G04 APERTURE END LIST*
D10*
X132654350Y-97470962D02*
X131654350Y-97470962D01*
X132654350Y-96899534D01*
X131654350Y-96899534D01*
X132130541Y-96423343D02*
X132130541Y-96090010D01*
X132654350Y-95947153D02*
X132654350Y-96423343D01*
X131654350Y-96423343D01*
X131654350Y-95947153D01*
X131654350Y-95328105D02*
X131654350Y-95137629D01*
X131701970Y-95042391D01*
X131797208Y-94947153D01*
X131987684Y-94899534D01*
X132321017Y-94899534D01*
X132511493Y-94947153D01*
X132606731Y-95042391D01*
X132654350Y-95137629D01*
X132654350Y-95328105D01*
X132606731Y-95423343D01*
X132511493Y-95518581D01*
X132321017Y-95566200D01*
X131987684Y-95566200D01*
X131797208Y-95518581D01*
X131701970Y-95423343D01*
X131654350Y-95328105D01*
X138321874Y-110326638D02*
X138321874Y-109326638D01*
X138321874Y-109802829D02*
X138893303Y-109802829D01*
X138893303Y-110326638D02*
X138893303Y-109326638D01*
X139369493Y-109802829D02*
X139702827Y-109802829D01*
X139845684Y-110326638D02*
X139369493Y-110326638D01*
X139369493Y-109326638D01*
X139845684Y-109326638D01*
X132654350Y-103241534D02*
X131654350Y-103241534D01*
X131654350Y-102860581D01*
X131701970Y-102765343D01*
X131749589Y-102717724D01*
X131844827Y-102670105D01*
X131987684Y-102670105D01*
X132082922Y-102717724D01*
X132130541Y-102765343D01*
X132178160Y-102860581D01*
X132178160Y-103241534D01*
X132559112Y-101670105D02*
X132606731Y-101717724D01*
X132654350Y-101860581D01*
X132654350Y-101955819D01*
X132606731Y-102098677D01*
X132511493Y-102193915D01*
X132416255Y-102241534D01*
X132225779Y-102289153D01*
X132082922Y-102289153D01*
X131892446Y-102241534D01*
X131797208Y-102193915D01*
X131701970Y-102098677D01*
X131654350Y-101955819D01*
X131654350Y-101860581D01*
X131701970Y-101717724D01*
X131749589Y-101670105D01*
X132130541Y-100908200D02*
X132130541Y-101241534D01*
X132654350Y-101241534D02*
X131654350Y-101241534D01*
X131654350Y-100765343D01*
X134789636Y-95401029D02*
X134456303Y-95401029D01*
X134456303Y-95924838D02*
X134456303Y-94924838D01*
X134932493Y-94924838D01*
X135265827Y-95877219D02*
X135408684Y-95924838D01*
X135646779Y-95924838D01*
X135742017Y-95877219D01*
X135789636Y-95829600D01*
X135837255Y-95734362D01*
X135837255Y-95639124D01*
X135789636Y-95543886D01*
X135742017Y-95496267D01*
X135646779Y-95448648D01*
X135456303Y-95401029D01*
X135361065Y-95353410D01*
X135313446Y-95305791D01*
X135265827Y-95210553D01*
X135265827Y-95115315D01*
X135313446Y-95020077D01*
X135361065Y-94972458D01*
X135456303Y-94924838D01*
X135694398Y-94924838D01*
X135837255Y-94972458D01*
X166391912Y-107775219D02*
X166439531Y-107822838D01*
X166487150Y-107965696D01*
X166487150Y-108060934D01*
X166439531Y-108203791D01*
X166344293Y-108299029D01*
X166249055Y-108346648D01*
X166058579Y-108394267D01*
X165915722Y-108394267D01*
X165725246Y-108346648D01*
X165630008Y-108299029D01*
X165534770Y-108203791D01*
X165487150Y-108060934D01*
X165487150Y-107965696D01*
X165534770Y-107822838D01*
X165582389Y-107775219D01*
X166487150Y-107203791D02*
X166439531Y-107299029D01*
X166391912Y-107346648D01*
X166296674Y-107394267D01*
X166010960Y-107394267D01*
X165915722Y-107346648D01*
X165868103Y-107299029D01*
X165820484Y-107203791D01*
X165820484Y-107060934D01*
X165868103Y-106965696D01*
X165915722Y-106918077D01*
X166010960Y-106870458D01*
X166296674Y-106870458D01*
X166391912Y-106918077D01*
X166439531Y-106965696D01*
X166487150Y-107060934D01*
X166487150Y-107203791D01*
X165820484Y-106441886D02*
X166487150Y-106441886D01*
X165915722Y-106441886D02*
X165868103Y-106394267D01*
X165820484Y-106299029D01*
X165820484Y-106156172D01*
X165868103Y-106060934D01*
X165963341Y-106013315D01*
X166487150Y-106013315D01*
X165820484Y-105679981D02*
X165820484Y-105299029D01*
X165487150Y-105537124D02*
X166344293Y-105537124D01*
X166439531Y-105489505D01*
X166487150Y-105394267D01*
X166487150Y-105299029D01*
X166487150Y-104965696D02*
X165820484Y-104965696D01*
X166010960Y-104965696D02*
X165915722Y-104918077D01*
X165868103Y-104870458D01*
X165820484Y-104775219D01*
X165820484Y-104679981D01*
X166487150Y-104203791D02*
X166439531Y-104299029D01*
X166391912Y-104346648D01*
X166296674Y-104394267D01*
X166010960Y-104394267D01*
X165915722Y-104346648D01*
X165868103Y-104299029D01*
X165820484Y-104203791D01*
X165820484Y-104060934D01*
X165868103Y-103965696D01*
X165915722Y-103918077D01*
X166010960Y-103870458D01*
X166296674Y-103870458D01*
X166391912Y-103918077D01*
X166439531Y-103965696D01*
X166487150Y-104060934D01*
X166487150Y-104203791D01*
X166487150Y-103299029D02*
X166439531Y-103394267D01*
X166344293Y-103441886D01*
X165487150Y-103441886D01*
X166487150Y-102775219D02*
X166439531Y-102870458D01*
X166344293Y-102918077D01*
X165487150Y-102918077D01*
X166439531Y-102013315D02*
X166487150Y-102108553D01*
X166487150Y-102299029D01*
X166439531Y-102394267D01*
X166344293Y-102441886D01*
X165963341Y-102441886D01*
X165868103Y-102394267D01*
X165820484Y-102299029D01*
X165820484Y-102108553D01*
X165868103Y-102013315D01*
X165963341Y-101965696D01*
X166058579Y-101965696D01*
X166153817Y-102441886D01*
X166487150Y-101537124D02*
X165820484Y-101537124D01*
X166010960Y-101537124D02*
X165915722Y-101489505D01*
X165868103Y-101441886D01*
X165820484Y-101346648D01*
X165820484Y-101251410D01*
X148482112Y-95401029D02*
X148815446Y-95401029D01*
X148958303Y-95924838D02*
X148482112Y-95924838D01*
X148482112Y-94924838D01*
X148958303Y-94924838D01*
X149386874Y-95543886D02*
X150148779Y-95543886D01*
X150577350Y-95877219D02*
X150720208Y-95924838D01*
X150958303Y-95924838D01*
X151053541Y-95877219D01*
X151101160Y-95829600D01*
X151148779Y-95734362D01*
X151148779Y-95639124D01*
X151101160Y-95543886D01*
X151053541Y-95496267D01*
X150958303Y-95448648D01*
X150767827Y-95401029D01*
X150672589Y-95353410D01*
X150624970Y-95305791D01*
X150577350Y-95210553D01*
X150577350Y-95115315D01*
X150624970Y-95020077D01*
X150672589Y-94972458D01*
X150767827Y-94924838D01*
X151005922Y-94924838D01*
X151148779Y-94972458D01*
X151434493Y-94924838D02*
X152005922Y-94924838D01*
X151720208Y-95924838D02*
X151720208Y-94924838D01*
X152339255Y-95401029D02*
X152672589Y-95401029D01*
X152815446Y-95924838D02*
X152339255Y-95924838D01*
X152339255Y-94924838D01*
X152815446Y-94924838D01*
X153244017Y-95924838D02*
X153244017Y-94924838D01*
X153624970Y-94924838D01*
X153720208Y-94972458D01*
X153767827Y-95020077D01*
X153815446Y-95115315D01*
X153815446Y-95258172D01*
X153767827Y-95353410D01*
X153720208Y-95401029D01*
X153624970Y-95448648D01*
X153244017Y-95448648D01*
X132654350Y-110405924D02*
X131654350Y-110405924D01*
X132130541Y-110405924D02*
X132130541Y-109834496D01*
X132654350Y-109834496D02*
X131654350Y-109834496D01*
X132130541Y-109358305D02*
X132130541Y-109024972D01*
X132654350Y-108882115D02*
X132654350Y-109358305D01*
X131654350Y-109358305D01*
X131654350Y-108882115D01*
X132130541Y-108120210D02*
X132130541Y-108453543D01*
X132654350Y-108453543D02*
X131654350Y-108453543D01*
X131654350Y-107977353D01*
X128015759Y-117267200D02*
X127968140Y-117314819D01*
X127825283Y-117362438D01*
X127730045Y-117362438D01*
X127587188Y-117314819D01*
X127491949Y-117219581D01*
X127444330Y-117124343D01*
X127396711Y-116933867D01*
X127396711Y-116791010D01*
X127444330Y-116600534D01*
X127491949Y-116505296D01*
X127587188Y-116410058D01*
X127730045Y-116362438D01*
X127825283Y-116362438D01*
X127968140Y-116410058D01*
X128015759Y-116457677D01*
X128777664Y-116838629D02*
X128920521Y-116886248D01*
X128968140Y-116933867D01*
X129015759Y-117029105D01*
X129015759Y-117171962D01*
X128968140Y-117267200D01*
X128920521Y-117314819D01*
X128825283Y-117362438D01*
X128444330Y-117362438D01*
X128444330Y-116362438D01*
X128777664Y-116362438D01*
X128872902Y-116410058D01*
X128920521Y-116457677D01*
X128968140Y-116552915D01*
X128968140Y-116648153D01*
X128920521Y-116743391D01*
X128872902Y-116791010D01*
X128777664Y-116838629D01*
X128444330Y-116838629D01*
X129301473Y-116362438D02*
X129872902Y-116362438D01*
X129587188Y-117362438D02*
X129587188Y-116362438D01*
X145481350Y-109140553D02*
X144481350Y-109140553D01*
X144481350Y-108759600D01*
X144528970Y-108664362D01*
X144576589Y-108616743D01*
X144671827Y-108569124D01*
X144814684Y-108569124D01*
X144909922Y-108616743D01*
X144957541Y-108664362D01*
X145005160Y-108759600D01*
X145005160Y-109140553D01*
X145481350Y-107569124D02*
X145005160Y-107902458D01*
X145481350Y-108140553D02*
X144481350Y-108140553D01*
X144481350Y-107759600D01*
X144528970Y-107664362D01*
X144576589Y-107616743D01*
X144671827Y-107569124D01*
X144814684Y-107569124D01*
X144909922Y-107616743D01*
X144957541Y-107664362D01*
X145005160Y-107759600D01*
X145005160Y-108140553D01*
X144481350Y-106950077D02*
X144481350Y-106759600D01*
X144528970Y-106664362D01*
X144624208Y-106569124D01*
X144814684Y-106521505D01*
X145148017Y-106521505D01*
X145338493Y-106569124D01*
X145433731Y-106664362D01*
X145481350Y-106759600D01*
X145481350Y-106950077D01*
X145433731Y-107045315D01*
X145338493Y-107140553D01*
X145148017Y-107188172D01*
X144814684Y-107188172D01*
X144624208Y-107140553D01*
X144528970Y-107045315D01*
X144481350Y-106950077D01*
X144957541Y-105759600D02*
X145005160Y-105616743D01*
X145052779Y-105569124D01*
X145148017Y-105521505D01*
X145290874Y-105521505D01*
X145386112Y-105569124D01*
X145433731Y-105616743D01*
X145481350Y-105711981D01*
X145481350Y-106092934D01*
X144481350Y-106092934D01*
X144481350Y-105759600D01*
X144528970Y-105664362D01*
X144576589Y-105616743D01*
X144671827Y-105569124D01*
X144767065Y-105569124D01*
X144862303Y-105616743D01*
X144909922Y-105664362D01*
X144957541Y-105759600D01*
X144957541Y-106092934D01*
X144957541Y-105092934D02*
X144957541Y-104759600D01*
X145481350Y-104616743D02*
X145481350Y-105092934D01*
X144481350Y-105092934D01*
X144481350Y-104616743D01*
X140963522Y-95924838D02*
X140963522Y-94924838D01*
X140963522Y-95401029D02*
X141534950Y-95401029D01*
X141534950Y-95924838D02*
X141534950Y-94924838D01*
X142011141Y-95401029D02*
X142344474Y-95401029D01*
X142487331Y-95924838D02*
X142011141Y-95924838D01*
X142011141Y-94924838D01*
X142487331Y-94924838D01*
X142773046Y-94924838D02*
X143344474Y-94924838D01*
X143058760Y-95924838D02*
X143058760Y-94924838D01*
%TO.C,J5*%
X134713436Y-90581438D02*
X134713436Y-91295724D01*
X134665817Y-91438581D01*
X134570579Y-91533819D01*
X134427722Y-91581438D01*
X134332484Y-91581438D01*
X135665817Y-90581438D02*
X135189627Y-90581438D01*
X135142008Y-91057629D01*
X135189627Y-91010010D01*
X135284865Y-90962391D01*
X135522960Y-90962391D01*
X135618198Y-91010010D01*
X135665817Y-91057629D01*
X135713436Y-91152867D01*
X135713436Y-91390962D01*
X135665817Y-91486200D01*
X135618198Y-91533819D01*
X135522960Y-91581438D01*
X135284865Y-91581438D01*
X135189627Y-91533819D01*
X135142008Y-91486200D01*
%TO.C,TH1*%
X127301473Y-112908038D02*
X127872902Y-112908038D01*
X127587188Y-113908038D02*
X127587188Y-112908038D01*
X128206235Y-113908038D02*
X128206235Y-112908038D01*
X128206235Y-113384229D02*
X128777664Y-113384229D01*
X128777664Y-113908038D02*
X128777664Y-112908038D01*
X129777664Y-113908038D02*
X129206235Y-113908038D01*
X129491949Y-113908038D02*
X129491949Y-112908038D01*
X129396711Y-113050896D01*
X129301473Y-113146134D01*
X129206235Y-113193753D01*
%TO.C,J8*%
X127209350Y-94129391D02*
X127923636Y-94129391D01*
X128066493Y-94177010D01*
X128161731Y-94272248D01*
X128209350Y-94415105D01*
X128209350Y-94510343D01*
X127637922Y-93510343D02*
X127590303Y-93605581D01*
X127542684Y-93653200D01*
X127447446Y-93700819D01*
X127399827Y-93700819D01*
X127304589Y-93653200D01*
X127256970Y-93605581D01*
X127209350Y-93510343D01*
X127209350Y-93319867D01*
X127256970Y-93224629D01*
X127304589Y-93177010D01*
X127399827Y-93129391D01*
X127447446Y-93129391D01*
X127542684Y-93177010D01*
X127590303Y-93224629D01*
X127637922Y-93319867D01*
X127637922Y-93510343D01*
X127685541Y-93605581D01*
X127733160Y-93653200D01*
X127828398Y-93700819D01*
X128018874Y-93700819D01*
X128114112Y-93653200D01*
X128161731Y-93605581D01*
X128209350Y-93510343D01*
X128209350Y-93319867D01*
X128161731Y-93224629D01*
X128114112Y-93177010D01*
X128018874Y-93129391D01*
X127828398Y-93129391D01*
X127733160Y-93177010D01*
X127685541Y-93224629D01*
X127637922Y-93319867D01*
%TO.C,J6*%
X127209350Y-109496391D02*
X127923636Y-109496391D01*
X128066493Y-109544010D01*
X128161731Y-109639248D01*
X128209350Y-109782105D01*
X128209350Y-109877343D01*
X127209350Y-108591629D02*
X127209350Y-108782105D01*
X127256970Y-108877343D01*
X127304589Y-108924962D01*
X127447446Y-109020200D01*
X127637922Y-109067819D01*
X128018874Y-109067819D01*
X128114112Y-109020200D01*
X128161731Y-108972581D01*
X128209350Y-108877343D01*
X128209350Y-108686867D01*
X128161731Y-108591629D01*
X128114112Y-108544010D01*
X128018874Y-108496391D01*
X127780779Y-108496391D01*
X127685541Y-108544010D01*
X127637922Y-108591629D01*
X127590303Y-108686867D01*
X127590303Y-108877343D01*
X127637922Y-108972581D01*
X127685541Y-109020200D01*
X127780779Y-109067819D01*
%TO.C,J9*%
X168941550Y-105102191D02*
X169655836Y-105102191D01*
X169798693Y-105149810D01*
X169893931Y-105245048D01*
X169941550Y-105387905D01*
X169941550Y-105483143D01*
X169941550Y-104578381D02*
X169941550Y-104387905D01*
X169893931Y-104292667D01*
X169846312Y-104245048D01*
X169703455Y-104149810D01*
X169512979Y-104102191D01*
X169132027Y-104102191D01*
X169036789Y-104149810D01*
X168989170Y-104197429D01*
X168941550Y-104292667D01*
X168941550Y-104483143D01*
X168989170Y-104578381D01*
X169036789Y-104626000D01*
X169132027Y-104673619D01*
X169370122Y-104673619D01*
X169465360Y-104626000D01*
X169512979Y-104578381D01*
X169560598Y-104483143D01*
X169560598Y-104292667D01*
X169512979Y-104197429D01*
X169465360Y-104149810D01*
X169370122Y-104102191D01*
%TO.C,J2*%
X150766236Y-90606838D02*
X150766236Y-91321124D01*
X150718617Y-91463981D01*
X150623379Y-91559219D01*
X150480522Y-91606838D01*
X150385284Y-91606838D01*
X151194808Y-90702077D02*
X151242427Y-90654458D01*
X151337665Y-90606838D01*
X151575760Y-90606838D01*
X151670998Y-90654458D01*
X151718617Y-90702077D01*
X151766236Y-90797315D01*
X151766236Y-90892553D01*
X151718617Y-91035410D01*
X151147189Y-91606838D01*
X151766236Y-91606838D01*
%TO.C,J3*%
X138726636Y-107624838D02*
X138726636Y-108339124D01*
X138679017Y-108481981D01*
X138583779Y-108577219D01*
X138440922Y-108624838D01*
X138345684Y-108624838D01*
X139107589Y-107624838D02*
X139726636Y-107624838D01*
X139393303Y-108005791D01*
X139536160Y-108005791D01*
X139631398Y-108053410D01*
X139679017Y-108101029D01*
X139726636Y-108196267D01*
X139726636Y-108434362D01*
X139679017Y-108529600D01*
X139631398Y-108577219D01*
X139536160Y-108624838D01*
X139250446Y-108624838D01*
X139155208Y-108577219D01*
X139107589Y-108529600D01*
%TO.C,D1*%
X155717550Y-103678153D02*
X154717550Y-103678153D01*
X154717550Y-103440058D01*
X154765170Y-103297200D01*
X154860408Y-103201962D01*
X154955646Y-103154343D01*
X155146122Y-103106724D01*
X155288979Y-103106724D01*
X155479455Y-103154343D01*
X155574693Y-103201962D01*
X155669931Y-103297200D01*
X155717550Y-103440058D01*
X155717550Y-103678153D01*
X155717550Y-102154343D02*
X155717550Y-102725772D01*
X155717550Y-102440058D02*
X154717550Y-102440058D01*
X154860408Y-102535296D01*
X154955646Y-102630534D01*
X155003265Y-102725772D01*
%TO.C,J1*%
X149674036Y-105415038D02*
X149674036Y-106129324D01*
X149626417Y-106272181D01*
X149531179Y-106367419D01*
X149388322Y-106415038D01*
X149293084Y-106415038D01*
X150674036Y-106415038D02*
X150102608Y-106415038D01*
X150388322Y-106415038D02*
X150388322Y-105415038D01*
X150293084Y-105557896D01*
X150197846Y-105653134D01*
X150102608Y-105700753D01*
%TO.C,J4*%
X141698436Y-90606838D02*
X141698436Y-91321124D01*
X141650817Y-91463981D01*
X141555579Y-91559219D01*
X141412722Y-91606838D01*
X141317484Y-91606838D01*
X142603198Y-90940172D02*
X142603198Y-91606838D01*
X142365103Y-90559219D02*
X142127008Y-91273505D01*
X142746055Y-91273505D01*
%TO.C,J7*%
X127209350Y-102308191D02*
X127923636Y-102308191D01*
X128066493Y-102355810D01*
X128161731Y-102451048D01*
X128209350Y-102593905D01*
X128209350Y-102689143D01*
X127209350Y-101927238D02*
X127209350Y-101260572D01*
X128209350Y-101689143D01*
D11*
%TO.C,J5*%
X131977370Y-94451658D02*
X138097370Y-94451658D01*
X136337370Y-94551658D02*
X136637370Y-94551658D01*
X138097370Y-93141658D02*
X137487370Y-93141658D01*
X138097370Y-94451658D02*
X138097370Y-89731658D01*
X137487370Y-93841658D02*
X137487370Y-90341658D01*
X134937370Y-90841658D02*
X134937370Y-90341658D01*
X135537370Y-94451658D02*
X135537370Y-93841658D01*
X136637370Y-94651658D02*
X136637370Y-94451658D01*
X135537370Y-93841658D02*
X137487370Y-93841658D01*
X132587370Y-90341658D02*
X132587370Y-93841658D01*
X131977370Y-91841658D02*
X132587370Y-91841658D01*
X134537370Y-93841658D02*
X134537370Y-94451658D01*
X136337370Y-94451658D02*
X136337370Y-94651658D01*
X138397370Y-94751658D02*
X138397370Y-93501658D01*
X131977370Y-89731658D02*
X131977370Y-94451658D01*
X132587370Y-93841658D02*
X134537370Y-93841658D01*
X135037370Y-90341658D02*
X135037370Y-90841658D01*
X138097370Y-91841658D02*
X137487370Y-91841658D01*
X131977370Y-93141658D02*
X132587370Y-93141658D01*
X135137370Y-90841658D02*
X134937370Y-90841658D01*
X137147370Y-94751658D02*
X138397370Y-94751658D01*
X138097370Y-89731658D02*
X131977370Y-89731658D01*
X137487370Y-90341658D02*
X132587370Y-90341658D01*
X136337370Y-94651658D02*
X136637370Y-94651658D01*
X135137370Y-90341658D02*
X135137370Y-90841658D01*
%TO.C,TH1*%
X128814252Y-114479398D02*
X128360124Y-114479398D01*
X128814252Y-115949398D02*
X128360124Y-115949398D01*
%TO.C,J8*%
X129747970Y-89736058D02*
X129747970Y-90346058D01*
X126947970Y-92696058D02*
X127447970Y-92696058D01*
X126947970Y-94796058D02*
X127447970Y-94796058D01*
X130447970Y-95296058D02*
X131057970Y-95296058D01*
X126947970Y-94696058D02*
X127447970Y-94696058D01*
X131057970Y-89736058D02*
X126337970Y-89736058D01*
X127447970Y-94896058D02*
X126947970Y-94896058D01*
X130447970Y-97246058D02*
X130447970Y-95296058D01*
X130447970Y-90346058D02*
X126947970Y-90346058D01*
X131057970Y-91496058D02*
X131257970Y-91496058D01*
X126947970Y-97246058D02*
X130447970Y-97246058D01*
X126337970Y-97856058D02*
X131057970Y-97856058D01*
X131257970Y-91496058D02*
X131257970Y-91196058D01*
X127447970Y-92696058D02*
X127447970Y-92896058D01*
X131057970Y-92296058D02*
X130447970Y-92296058D01*
X130447970Y-92296058D02*
X130447970Y-90346058D01*
X126337970Y-89736058D02*
X126337970Y-97856058D01*
X131057970Y-97856058D02*
X131057970Y-89736058D01*
X128447970Y-97856058D02*
X128447970Y-97246058D01*
X131257970Y-91196058D02*
X131057970Y-91196058D01*
X128447970Y-89736058D02*
X128447970Y-90346058D01*
X127447970Y-92896058D02*
X126947970Y-92896058D01*
X131157970Y-91496058D02*
X131157970Y-91196058D01*
X127447970Y-94696058D02*
X127447970Y-94896058D01*
X131357970Y-89436058D02*
X130107970Y-89436058D01*
X126947970Y-90346058D02*
X126947970Y-97246058D01*
X131357970Y-90686058D02*
X131357970Y-89436058D01*
X129747970Y-97856058D02*
X129747970Y-97246058D01*
X126947970Y-92796058D02*
X127447970Y-92796058D01*
%TO.C,J6*%
X130447970Y-108669198D02*
X130447970Y-106719198D01*
X130447970Y-111619198D02*
X130447970Y-109669198D01*
X131057970Y-106109198D02*
X126337970Y-106109198D01*
X129747970Y-106109198D02*
X129747970Y-106719198D01*
X131357970Y-107059198D02*
X131357970Y-105809198D01*
X129747970Y-112229198D02*
X129747970Y-111619198D01*
X130447970Y-109669198D02*
X131057970Y-109669198D01*
X126947970Y-106719198D02*
X126947970Y-111619198D01*
X131157970Y-107869198D02*
X131157970Y-107569198D01*
X128447970Y-112229198D02*
X128447970Y-111619198D01*
X131057970Y-108669198D02*
X130447970Y-108669198D01*
X127447970Y-109269198D02*
X126947970Y-109269198D01*
X130447970Y-106719198D02*
X126947970Y-106719198D01*
X131257970Y-107569198D02*
X131057970Y-107569198D01*
X131257970Y-107869198D02*
X131257970Y-107569198D01*
X126947970Y-109069198D02*
X127447970Y-109069198D01*
X131357970Y-105809198D02*
X130107970Y-105809198D01*
X126947970Y-109169198D02*
X127447970Y-109169198D01*
X128447970Y-106109198D02*
X128447970Y-106719198D01*
X131057970Y-107869198D02*
X131257970Y-107869198D01*
X126337970Y-112229198D02*
X131057970Y-112229198D01*
X131057970Y-112229198D02*
X131057970Y-106109198D01*
X126337970Y-106109198D02*
X126337970Y-112229198D01*
X126947970Y-111619198D02*
X130447970Y-111619198D01*
X127447970Y-109069198D02*
X127447970Y-109269198D01*
%TO.C,J9*%
X169314970Y-120465058D02*
X160184970Y-120465058D01*
X170314970Y-119465058D02*
X169314970Y-120465058D01*
X169314970Y-89095058D02*
X170314970Y-90095058D01*
X170314970Y-90095058D02*
X170314970Y-119465058D01*
X160184970Y-89095058D02*
X169314970Y-89095058D01*
X160184970Y-120465058D02*
X160184970Y-89095058D01*
%TO.C,J2*%
X146649570Y-93841658D02*
X148599570Y-93841658D01*
X152999570Y-90841658D02*
X152999570Y-90341658D01*
X155549570Y-93841658D02*
X155549570Y-90341658D01*
X151199570Y-90841658D02*
X150999570Y-90841658D01*
X149199570Y-90341658D02*
X149199570Y-90841658D01*
X156159570Y-94451658D02*
X156159570Y-89731658D01*
X146039570Y-94451658D02*
X156159570Y-94451658D01*
X154399570Y-94451658D02*
X154399570Y-94651658D01*
X148599570Y-93841658D02*
X148599570Y-94451658D01*
X146039570Y-93141658D02*
X146649570Y-93141658D01*
X154699570Y-94651658D02*
X154699570Y-94451658D01*
X149199570Y-90841658D02*
X148999570Y-90841658D01*
X146649570Y-90341658D02*
X146649570Y-93841658D01*
X156159570Y-93141658D02*
X155549570Y-93141658D01*
X148999570Y-90841658D02*
X148999570Y-90341658D01*
X151199570Y-90341658D02*
X151199570Y-90841658D01*
X146039570Y-89731658D02*
X146039570Y-94451658D01*
X153599570Y-94451658D02*
X153599570Y-93841658D01*
X153199570Y-90841658D02*
X152999570Y-90841658D01*
X156459570Y-94751658D02*
X156459570Y-93501658D01*
X149099570Y-90341658D02*
X149099570Y-90841658D01*
X153199570Y-90341658D02*
X153199570Y-90841658D01*
X154399570Y-94651658D02*
X154699570Y-94651658D01*
X156159570Y-91841658D02*
X155549570Y-91841658D01*
X150999570Y-90841658D02*
X150999570Y-90341658D01*
X155549570Y-90341658D02*
X146649570Y-90341658D01*
X146039570Y-91841658D02*
X146649570Y-91841658D01*
X156159570Y-89731658D02*
X146039570Y-89731658D01*
X154399570Y-94551658D02*
X154699570Y-94551658D01*
X153099570Y-90341658D02*
X153099570Y-90841658D01*
X153599570Y-93841658D02*
X155549570Y-93841658D01*
X151099570Y-90341658D02*
X151099570Y-90841658D01*
X155209570Y-94751658D02*
X156459570Y-94751658D01*
%TO.C,G\u002A\u002A\u002A*%
G36*
X150383231Y-98800835D02*
G01*
X151034629Y-98800835D01*
X151037601Y-98810171D01*
X151061261Y-98816942D01*
X151109841Y-98821480D01*
X151187576Y-98824118D01*
X151298698Y-98825191D01*
X151344856Y-98825258D01*
X151668649Y-98825258D01*
X152108009Y-98159702D01*
X152203097Y-98015225D01*
X152291110Y-97880660D01*
X152369779Y-97759540D01*
X152436832Y-97655398D01*
X152490001Y-97571768D01*
X152527014Y-97512183D01*
X152545602Y-97480175D01*
X152547370Y-97475855D01*
X152528722Y-97469308D01*
X152476321Y-97463959D01*
X152395482Y-97460112D01*
X152291517Y-97458068D01*
X152229870Y-97457819D01*
X151912370Y-97458072D01*
X151480282Y-98117242D01*
X151385742Y-98261556D01*
X151297680Y-98396156D01*
X151218450Y-98517427D01*
X151150411Y-98621755D01*
X151095918Y-98705525D01*
X151057327Y-98765122D01*
X151036996Y-98796932D01*
X151034629Y-98800835D01*
X150383231Y-98800835D01*
X150378314Y-97578322D01*
X150832727Y-97315021D01*
X150971551Y-97234630D01*
X151125035Y-97145836D01*
X151288572Y-97051297D01*
X151457556Y-96953670D01*
X151627384Y-96855611D01*
X151793448Y-96759778D01*
X151951145Y-96668828D01*
X152095869Y-96585419D01*
X152223015Y-96512208D01*
X152327976Y-96451851D01*
X152406149Y-96407006D01*
X152435023Y-96390506D01*
X152547370Y-96326456D01*
X152659716Y-96390506D01*
X152721906Y-96426099D01*
X152813313Y-96478606D01*
X152929334Y-96545370D01*
X153065361Y-96623732D01*
X153216790Y-96711036D01*
X153379016Y-96804625D01*
X153547433Y-96901841D01*
X153717436Y-97000027D01*
X153884420Y-97096526D01*
X154043779Y-97188681D01*
X154190908Y-97273834D01*
X154262013Y-97315021D01*
X154716425Y-97578322D01*
X154711397Y-98828490D01*
X154706370Y-100078658D01*
X154383985Y-100265259D01*
X154285210Y-100322382D01*
X154159832Y-100394811D01*
X154015112Y-100478357D01*
X153858314Y-100568829D01*
X153696697Y-100662036D01*
X153537526Y-100753787D01*
X153475447Y-100789557D01*
X153328762Y-100874079D01*
X153185020Y-100956931D01*
X153049730Y-101034934D01*
X152928405Y-101104910D01*
X152826556Y-101163680D01*
X152749696Y-101208065D01*
X152717438Y-101226717D01*
X152645358Y-101268089D01*
X152587329Y-101300740D01*
X152550651Y-101320603D01*
X152541592Y-101324721D01*
X152524197Y-101314837D01*
X152480561Y-101289392D01*
X152418081Y-101252711D01*
X152371523Y-101225278D01*
X152314082Y-101191629D01*
X152228220Y-101141653D01*
X152119392Y-101078509D01*
X151993051Y-101005357D01*
X151854650Y-100925354D01*
X151709642Y-100841659D01*
X151619293Y-100789578D01*
X151463176Y-100699603D01*
X151301676Y-100606477D01*
X151142054Y-100514390D01*
X150991571Y-100427533D01*
X150857490Y-100350096D01*
X150747071Y-100286272D01*
X150710754Y-100265259D01*
X150560511Y-100178296D01*
X151336237Y-100178296D01*
X151354611Y-100183188D01*
X151405604Y-100187387D01*
X151482765Y-100190597D01*
X151579637Y-100192524D01*
X151656194Y-100192950D01*
X151976403Y-100192950D01*
X151988396Y-100174660D01*
X152547370Y-100174660D01*
X152566017Y-100181207D01*
X152618418Y-100186556D01*
X152699257Y-100190403D01*
X152803223Y-100192447D01*
X152864870Y-100192697D01*
X153182370Y-100192443D01*
X153614457Y-99533274D01*
X153708997Y-99388959D01*
X153797060Y-99254359D01*
X153876289Y-99133088D01*
X153944328Y-99028760D01*
X153998821Y-98944990D01*
X154037412Y-98885393D01*
X154057743Y-98853583D01*
X154060110Y-98849681D01*
X154057138Y-98840344D01*
X154033478Y-98833573D01*
X153984898Y-98829035D01*
X153907163Y-98826397D01*
X153796041Y-98825325D01*
X153749883Y-98825258D01*
X153426090Y-98825258D01*
X152986730Y-99490814D01*
X152891642Y-99635290D01*
X152803629Y-99769855D01*
X152724960Y-99890975D01*
X152657907Y-99995117D01*
X152604738Y-100078747D01*
X152567725Y-100138333D01*
X152549138Y-100170340D01*
X152547370Y-100174660D01*
X151988396Y-100174660D01*
X152191001Y-99865681D01*
X152241382Y-99788927D01*
X152310573Y-99683634D01*
X152395883Y-99553893D01*
X152494620Y-99403795D01*
X152604092Y-99237430D01*
X152721608Y-99058889D01*
X152844476Y-98872263D01*
X152970003Y-98681642D01*
X153074884Y-98522411D01*
X153193054Y-98342866D01*
X153304865Y-98172673D01*
X153408454Y-98014687D01*
X153501961Y-97871762D01*
X153583522Y-97746755D01*
X153651276Y-97642519D01*
X153703360Y-97561910D01*
X153737913Y-97507781D01*
X153753071Y-97482988D01*
X153753552Y-97481988D01*
X153748554Y-97472572D01*
X153722425Y-97465755D01*
X153670943Y-97461208D01*
X153589884Y-97458600D01*
X153475025Y-97457602D01*
X153441218Y-97457565D01*
X153119501Y-97457565D01*
X152682012Y-98122113D01*
X152564406Y-98300724D01*
X152431531Y-98502466D01*
X152289638Y-98717853D01*
X152144977Y-98937399D01*
X152003798Y-99151618D01*
X151872351Y-99351023D01*
X151790507Y-99475152D01*
X151693865Y-99622030D01*
X151604238Y-99758881D01*
X151523852Y-99882256D01*
X151454938Y-99988703D01*
X151399724Y-100074773D01*
X151360439Y-100137016D01*
X151339311Y-100171983D01*
X151336237Y-100178296D01*
X150560511Y-100178296D01*
X150388370Y-100078658D01*
X150383231Y-98800835D01*
G37*
%TO.C,J3*%
X135374970Y-107978658D02*
X135374970Y-98848658D01*
X141744970Y-108978658D02*
X136374970Y-108978658D01*
X142744970Y-98848658D02*
X142744970Y-107978658D01*
X142744970Y-107978658D02*
X141744970Y-108978658D01*
X135374970Y-98848658D02*
X142744970Y-98848658D01*
X136374970Y-108978658D02*
X135374970Y-107978658D01*
%TO.C,D1*%
X152177430Y-102965458D02*
X152411770Y-102965458D01*
X152177430Y-102965458D02*
G75*
G03*
X152177430Y-102965458I-1255660J0D01*
G01*
%TO.C,J1*%
X149107370Y-105152458D02*
X149107370Y-105652458D01*
X149107370Y-105652458D02*
X148907370Y-105652458D01*
X153457370Y-105152458D02*
X146557370Y-105152458D01*
X145947370Y-107952458D02*
X146557370Y-107952458D01*
X154067370Y-104542458D02*
X145947370Y-104542458D01*
X150907370Y-105652458D02*
X150907370Y-105152458D01*
X145947370Y-109262458D02*
X154067370Y-109262458D01*
X145947370Y-104542458D02*
X145947370Y-109262458D01*
X154067370Y-106652458D02*
X153457370Y-106652458D01*
X152307370Y-109462458D02*
X152607370Y-109462458D01*
X148507370Y-108652458D02*
X148507370Y-109262458D01*
X151107370Y-105652458D02*
X150907370Y-105652458D01*
X145947370Y-106652458D02*
X146557370Y-106652458D01*
X146557370Y-108652458D02*
X148507370Y-108652458D01*
X152607370Y-109462458D02*
X152607370Y-109262458D01*
X151007370Y-105152458D02*
X151007370Y-105652458D01*
X149007370Y-105152458D02*
X149007370Y-105652458D01*
X154067370Y-109262458D02*
X154067370Y-104542458D01*
X154067370Y-107952458D02*
X153457370Y-107952458D01*
X153117370Y-109562458D02*
X154367370Y-109562458D01*
X151507370Y-109262458D02*
X151507370Y-108652458D01*
X151107370Y-105152458D02*
X151107370Y-105652458D01*
X154367370Y-109562458D02*
X154367370Y-108312458D01*
X146557370Y-105152458D02*
X146557370Y-108652458D01*
X153457370Y-108652458D02*
X153457370Y-105152458D01*
X152307370Y-109362458D02*
X152607370Y-109362458D01*
X152307370Y-109262458D02*
X152307370Y-109462458D01*
X151507370Y-108652458D02*
X153457370Y-108652458D01*
X148907370Y-105652458D02*
X148907370Y-105152458D01*
%TO.C,J4*%
X139572370Y-93841658D02*
X141522370Y-93841658D01*
X143322370Y-94451658D02*
X143322370Y-94651658D01*
X141522370Y-93841658D02*
X141522370Y-94451658D01*
X145082370Y-94451658D02*
X145082370Y-89731658D01*
X145082370Y-89731658D02*
X138962370Y-89731658D01*
X138962370Y-94451658D02*
X145082370Y-94451658D01*
X144132370Y-94751658D02*
X145382370Y-94751658D01*
X145082370Y-91841658D02*
X144472370Y-91841658D01*
X144472370Y-93841658D02*
X144472370Y-90341658D01*
X138962370Y-89731658D02*
X138962370Y-94451658D01*
X142122370Y-90841658D02*
X141922370Y-90841658D01*
X142122370Y-90341658D02*
X142122370Y-90841658D01*
X143322370Y-94651658D02*
X143622370Y-94651658D01*
X141922370Y-90841658D02*
X141922370Y-90341658D01*
X144472370Y-90341658D02*
X139572370Y-90341658D01*
X138962370Y-91841658D02*
X139572370Y-91841658D01*
X139572370Y-90341658D02*
X139572370Y-93841658D01*
X142522370Y-93841658D02*
X144472370Y-93841658D01*
X143322370Y-94551658D02*
X143622370Y-94551658D01*
X143622370Y-94651658D02*
X143622370Y-94451658D01*
X145382370Y-94751658D02*
X145382370Y-93501658D01*
X138962370Y-93141658D02*
X139572370Y-93141658D01*
X142022370Y-90341658D02*
X142022370Y-90841658D01*
X145082370Y-93141658D02*
X144472370Y-93141658D01*
X142522370Y-94451658D02*
X142522370Y-93841658D01*
%TO.C,J7*%
X131257970Y-100674858D02*
X131257970Y-100374858D01*
X127447970Y-102074858D02*
X126947970Y-102074858D01*
X131357970Y-98614858D02*
X130107970Y-98614858D01*
X131057970Y-100674858D02*
X131257970Y-100674858D01*
X130447970Y-99524858D02*
X126947970Y-99524858D01*
X131057970Y-101474858D02*
X130447970Y-101474858D01*
X131257970Y-100374858D02*
X131057970Y-100374858D01*
X128447970Y-98914858D02*
X128447970Y-99524858D01*
X128447970Y-105034858D02*
X128447970Y-104424858D01*
X126947970Y-101874858D02*
X127447970Y-101874858D01*
X126337970Y-105034858D02*
X131057970Y-105034858D01*
X130447970Y-104424858D02*
X130447970Y-102474858D01*
X126947970Y-104424858D02*
X130447970Y-104424858D01*
X131357970Y-99864858D02*
X131357970Y-98614858D01*
X129747970Y-105034858D02*
X129747970Y-104424858D01*
X126947970Y-101974858D02*
X127447970Y-101974858D01*
X126947970Y-99524858D02*
X126947970Y-104424858D01*
X126337970Y-98914858D02*
X126337970Y-105034858D01*
X129747970Y-98914858D02*
X129747970Y-99524858D01*
X131157970Y-100674858D02*
X131157970Y-100374858D01*
X131057970Y-105034858D02*
X131057970Y-98914858D01*
X127447970Y-101874858D02*
X127447970Y-102074858D01*
X131057970Y-98914858D02*
X126337970Y-98914858D01*
X130447970Y-102474858D02*
X131057970Y-102474858D01*
X130447970Y-101474858D02*
X130447970Y-99524858D01*
%TD*%
M02*
