M48
; DRILL file {KiCad (6.0.5-0)} date Sunday, 22 May 2022 at 19:34:39
; FORMAT={-:-/ absolute / metric / decimal}
; #@! TF.CreationDate,2022-05-22T19:34:39+08:00
; #@! TF.GenerationSoftware,Kicad,Pcbnew,(6.0.5-0)
; #@! TF.FileFunction,Plated,1,2,PTH
FMAT,2
METRIC
; #@! TA.AperFunction,Plated,PTH,ViaDrill
T1C0.400
; #@! TA.AperFunction,Plated,PTH,ComponentDrill
T2C0.750
; #@! TA.AperFunction,Plated,PTH,ComponentDrill
T3C1.020
; #@! TA.AperFunction,Plated,PTH,ComponentDrill
T4C3.200
%
G90
G05
T1
X127.782Y-113.989
X132.38Y-95.295
X133.32Y-101.746
X133.523Y-106.725
X133.904Y-95.574
X138.45Y-101.949
X139.644Y-112.897
X140.533Y-107.436
X143.251Y-97.225
X144.419Y-107.537
X146.68Y-97.123
X154.503Y-97.073
T2
X129.248Y-91.796
X129.248Y-93.796
X129.248Y-95.796
X129.248Y-100.975
X129.248Y-102.975
X129.248Y-108.169
X129.248Y-110.169
X134.037Y-92.642
X136.037Y-92.642
X141.022Y-92.642
X143.022Y-92.642
X148.007Y-107.452
X148.1Y-92.642
X150.007Y-107.452
X150.1Y-92.642
X150.922Y-102.965
X152.007Y-107.452
X152.1Y-92.642
X153.462Y-102.965
X154.1Y-92.642
T3
X139.06Y-96.949
X139.06Y-99.949
X158.285Y-92.78
X158.285Y-95.78
X158.285Y-98.78
X158.285Y-101.78
X158.285Y-104.78
X158.285Y-107.78
X158.285Y-110.78
X158.285Y-113.78
X158.285Y-116.78
X161.285Y-92.78
X161.285Y-95.78
X161.285Y-98.78
X161.285Y-101.78
X161.285Y-104.78
X161.285Y-107.78
X161.285Y-110.78
X161.285Y-113.78
X161.285Y-116.78
T4
X134.668Y-113.732
X146.648Y-100.962
T0
M30
