M48
; DRILL file {KiCad (6.0.5-0)} date Tuesday, 31 May 2022 at 10:27:47
; FORMAT={-:-/ absolute / metric / decimal}
; #@! TF.CreationDate,2022-05-31T10:27:47+08:00
; #@! TF.GenerationSoftware,Kicad,Pcbnew,(6.0.5-0)
; #@! TF.FileFunction,Plated,1,2,PTH
FMAT,2
METRIC
; #@! TA.AperFunction,Plated,PTH,ViaDrill
T1C0.400
; #@! TA.AperFunction,Plated,PTH,ComponentDrill
T2C0.750
; #@! TA.AperFunction,Plated,PTH,ComponentDrill
T3C0.800
; #@! TA.AperFunction,Plated,PTH,ComponentDrill
T4C1.020
%
G90
G05
T1
X126.84Y-90.25
X127.68Y-113.09
X129.5Y-113.19
X132.54Y-99.1
X134.83Y-115.44
X136.31Y-98.92
X139.5Y-111.45
X145.36Y-106.4
X145.39Y-104.2
X147.15Y-96.04
X151.01Y-96.99
X155.29Y-118.54
X155.73Y-101.66
X156.58Y-109.4
X165.86Y-107.63
X165.91Y-101.82
X168.76Y-118.46
X168.77Y-91.17
T2
X129.248Y-91.796
X129.248Y-93.796
X129.248Y-95.796
X129.248Y-100.975
X129.248Y-102.975
X129.248Y-108.169
X129.248Y-110.169
X134.037Y-92.642
X136.037Y-92.642
X138.35Y-97.3
X138.35Y-99.3
X138.35Y-101.3
X141.022Y-92.642
X143.022Y-92.642
X148.1Y-92.642
X150.1Y-92.642
X152.1Y-92.642
X154.1Y-92.642
T3
X143.72Y-97.846
X143.72Y-100.386
T4
X152.59Y-106.11
X155.59Y-106.11
X158.435Y-92.75
X158.435Y-95.75
X158.435Y-98.75
X158.435Y-101.75
X158.435Y-104.75
X158.435Y-107.75
X158.435Y-110.75
X158.435Y-113.75
X158.435Y-116.75
X161.435Y-92.75
X161.435Y-95.75
X161.435Y-98.75
X161.435Y-101.75
X161.435Y-104.75
X161.435Y-107.75
X161.435Y-110.75
X161.435Y-113.75
X161.435Y-116.75
T0
M30
