%TF.GenerationSoftware,KiCad,Pcbnew,(6.0.5-0)*%
%TF.CreationDate,2022-05-29T18:31:12+08:00*%
%TF.ProjectId,StealthBurner,53746561-6c74-4684-9275-726e65722e6b,Bata1*%
%TF.SameCoordinates,Original*%
%TF.FileFunction,Copper,L2,Bot*%
%TF.FilePolarity,Positive*%
%FSLAX46Y46*%
G04 Gerber Fmt 4.6, Leading zero omitted, Abs format (unit mm)*
G04 Created by KiCad (PCBNEW (6.0.5-0)) date 2022-05-29 18:31:12*
%MOMM*%
%LPD*%
G01*
G04 APERTURE LIST*
G04 Aperture macros list*
%AMRoundRect*
0 Rectangle with rounded corners*
0 $1 Rounding radius*
0 $2 $3 $4 $5 $6 $7 $8 $9 X,Y pos of 4 corners*
0 Add a 4 corners polygon primitive as box body*
4,1,4,$2,$3,$4,$5,$6,$7,$8,$9,$2,$3,0*
0 Add four circle primitives for the rounded corners*
1,1,$1+$1,$2,$3*
1,1,$1+$1,$4,$5*
1,1,$1+$1,$6,$7*
1,1,$1+$1,$8,$9*
0 Add four rect primitives between the rounded corners*
20,1,$1+$1,$2,$3,$4,$5,0*
20,1,$1+$1,$4,$5,$6,$7,0*
20,1,$1+$1,$6,$7,$8,$9,0*
20,1,$1+$1,$8,$9,$2,$3,0*%
G04 Aperture macros list end*
%TA.AperFunction,ComponentPad*%
%ADD10RoundRect,0.250000X0.350000X0.625000X-0.350000X0.625000X-0.350000X-0.625000X0.350000X-0.625000X0*%
%TD*%
%TA.AperFunction,ComponentPad*%
%ADD11O,1.200000X1.750000*%
%TD*%
%TA.AperFunction,ComponentPad*%
%ADD12RoundRect,0.250000X-0.625000X0.350000X-0.625000X-0.350000X0.625000X-0.350000X0.625000X0.350000X0*%
%TD*%
%TA.AperFunction,ComponentPad*%
%ADD13O,1.750000X1.200000*%
%TD*%
%TA.AperFunction,ComponentPad*%
%ADD14RoundRect,0.250001X-0.499999X0.499999X-0.499999X-0.499999X0.499999X-0.499999X0.499999X0.499999X0*%
%TD*%
%TA.AperFunction,ComponentPad*%
%ADD15C,1.500000*%
%TD*%
%TA.AperFunction,ComponentPad*%
%ADD16RoundRect,0.250001X0.499999X-0.499999X0.499999X0.499999X-0.499999X0.499999X-0.499999X-0.499999X0*%
%TD*%
%TA.AperFunction,ComponentPad*%
%ADD17R,1.600000X1.600000*%
%TD*%
%TA.AperFunction,ComponentPad*%
%ADD18O,1.600000X1.600000*%
%TD*%
%TA.AperFunction,ViaPad*%
%ADD19C,0.800000*%
%TD*%
%TA.AperFunction,Conductor*%
%ADD20C,0.500000*%
%TD*%
%TA.AperFunction,Conductor*%
%ADD21C,1.000000*%
%TD*%
G04 APERTURE END LIST*
D10*
%TO.P,J5,1,Pin_1*%
%TO.N,/FS*%
X136037370Y-92641658D03*
D11*
%TO.P,J5,2,Pin_2*%
%TO.N,GND*%
X134037370Y-92641658D03*
%TD*%
D12*
%TO.P,J8,1,Pin_1*%
%TO.N,+5V*%
X129247970Y-91796058D03*
D13*
%TO.P,J8,2,Pin_2*%
%TO.N,/DATA*%
X129247970Y-93796058D03*
%TO.P,J8,3,Pin_3*%
%TO.N,GND*%
X129247970Y-95796058D03*
%TD*%
D12*
%TO.P,J6,1,Pin_1*%
%TO.N,/V_FAN*%
X129247970Y-108169198D03*
D13*
%TO.P,J6,2,Pin_2*%
%TO.N,/HEF*%
X129247970Y-110169198D03*
%TD*%
D14*
%TO.P,J9,1,Pin_1*%
%TO.N,+5V*%
X161284970Y-92750000D03*
D15*
%TO.P,J9,2,Pin_2*%
%TO.N,+24V*%
X161284970Y-95750000D03*
%TO.P,J9,3,Pin_3*%
%TO.N,/V_FAN*%
X161284970Y-98750000D03*
%TO.P,J9,4,Pin_4*%
%TO.N,/P_SIG*%
X161284970Y-101750000D03*
%TO.P,J9,5,Pin_5*%
%TO.N,/FS*%
X161284970Y-104750000D03*
%TO.P,J9,6,Pin_6*%
%TO.N,/CBT*%
X161284970Y-107750000D03*
%TO.P,J9,7,Pin_7*%
%TO.N,/HET*%
X161284970Y-110750000D03*
%TO.P,J9,8,Pin_8*%
%TO.N,/PCF*%
X161284970Y-113750000D03*
%TO.P,J9,9,Pin_9*%
%TO.N,/HEF*%
X161284970Y-116750000D03*
%TO.P,J9,10,Pin_10*%
%TO.N,/A+*%
X158284970Y-92750000D03*
%TO.P,J9,11,Pin_11*%
%TO.N,/A-*%
X158284970Y-95750000D03*
%TO.P,J9,12,Pin_12*%
%TO.N,/B+*%
X158284970Y-98750000D03*
%TO.P,J9,13,Pin_13*%
%TO.N,/B-*%
X158284970Y-101750000D03*
%TO.P,J9,14,Pin_14*%
%TO.N,/HE-*%
X158284970Y-104750000D03*
%TO.P,J9,15,Pin_15*%
%TO.N,/HE+*%
X158284970Y-107750000D03*
%TO.P,J9,16,Pin_16*%
%TO.N,/DATA*%
X158284970Y-110750000D03*
%TO.P,J9,17,Pin_17*%
%TO.N,GNDA*%
X158284970Y-113750000D03*
%TO.P,J9,18,Pin_18*%
%TO.N,GND*%
X158284970Y-116750000D03*
%TD*%
D10*
%TO.P,J2,1,Pin_1*%
%TO.N,/A+*%
X154099570Y-92641658D03*
D11*
%TO.P,J2,2,Pin_2*%
%TO.N,/A-*%
X152099570Y-92641658D03*
%TO.P,J2,3,Pin_3*%
%TO.N,/B+*%
X150099570Y-92641658D03*
%TO.P,J2,4,Pin_4*%
%TO.N,/B-*%
X148099570Y-92641658D03*
%TD*%
D16*
%TO.P,J3,1,Pin_1*%
%TO.N,/HE+*%
X152590000Y-106110000D03*
D15*
%TO.P,J3,2,Pin_2*%
%TO.N,/HE-*%
X155590000Y-106110000D03*
%TD*%
D17*
%TO.P,D1,1,K*%
%TO.N,Net-(D1-Pad1)*%
X139900000Y-100390000D03*
D18*
%TO.P,D1,2,A*%
%TO.N,/P_SIG*%
X139900000Y-97850000D03*
%TD*%
D12*
%TO.P,J1,1,Pin_1*%
%TO.N,+24V*%
X136270000Y-97300000D03*
D13*
%TO.P,J1,2,Pin_2*%
%TO.N,Net-(D1-Pad1)*%
X136270000Y-99300000D03*
%TO.P,J1,3,Pin_3*%
%TO.N,GND*%
X136270000Y-101300000D03*
%TD*%
D10*
%TO.P,J4,1,Pin_1*%
%TO.N,/HET*%
X143022370Y-92641658D03*
D11*
%TO.P,J4,2,Pin_2*%
%TO.N,GNDA*%
X141022370Y-92641658D03*
%TD*%
D12*
%TO.P,J7,1,Pin_1*%
%TO.N,/V_FAN*%
X129247970Y-100974858D03*
D13*
%TO.P,J7,2,Pin_2*%
%TO.N,/PCF*%
X129247970Y-102974858D03*
%TD*%
D19*
%TO.N,GNDA*%
X127680000Y-113090000D03*
%TO.N,/CBT*%
X129500000Y-113190000D03*
X145390000Y-104200500D03*
%TD*%
D20*
%TO.N,GNDA*%
X139490000Y-103170000D02*
X130450000Y-112210000D01*
X141030000Y-103170000D02*
X140490000Y-103170000D01*
X158284970Y-113780058D02*
X156690058Y-113780058D01*
X156690058Y-113780058D02*
X150740000Y-107830000D01*
X141810000Y-102390000D02*
X141030000Y-103170000D01*
X150740000Y-105040000D02*
X148870000Y-103170000D01*
X141810000Y-93429288D02*
X141022370Y-92641658D01*
X130450000Y-112210000D02*
X128560000Y-112210000D01*
X141810000Y-102390000D02*
X141810000Y-93429288D01*
X140490000Y-103170000D02*
X139490000Y-103170000D01*
X148870000Y-103170000D02*
X140490000Y-103170000D01*
X150740000Y-107830000D02*
X150740000Y-105040000D01*
X128560000Y-112210000D02*
X127680000Y-113090000D01*
%TO.N,/A+*%
X158146570Y-92641658D02*
X158284970Y-92780058D01*
X154099570Y-92641658D02*
X158146570Y-92641658D01*
%TO.N,/A-*%
X153439109Y-94016178D02*
X156953822Y-94016178D01*
X152099570Y-92676639D02*
X153439109Y-94016178D01*
X152099570Y-92641658D02*
X152099570Y-92676639D01*
X158284970Y-95334970D02*
X158284970Y-95780058D01*
X156953822Y-94016178D02*
X156960000Y-94010000D01*
X156960000Y-94010000D02*
X158284970Y-95334970D01*
%TO.N,/B+*%
X155730000Y-94970000D02*
X156850000Y-96090000D01*
X156850000Y-97345088D02*
X158284970Y-98780058D01*
X150099570Y-92641658D02*
X152427912Y-94970000D01*
X156850000Y-96090000D02*
X156850000Y-97345088D01*
X152427912Y-94970000D02*
X155730000Y-94970000D01*
%TO.N,/B-*%
X155890000Y-99385088D02*
X158284970Y-101780058D01*
X151177432Y-95719520D02*
X154639520Y-95719520D01*
X155890000Y-96970000D02*
X155890000Y-99385088D01*
X154639520Y-95719520D02*
X155890000Y-96970000D01*
X148099570Y-92641658D02*
X151177432Y-95719520D01*
D21*
%TO.N,/HE+*%
X152590000Y-106110000D02*
X152680116Y-106110000D01*
X154320116Y-107750000D02*
X158284970Y-107750000D01*
X152680116Y-106110000D02*
X154320116Y-107750000D01*
%TO.N,/HE-*%
X156985028Y-106080000D02*
X156985028Y-106049942D01*
X156985028Y-106049942D02*
X158284970Y-104750000D01*
X155590000Y-106080000D02*
X156985028Y-106080000D01*
D20*
%TO.N,/HET*%
X158730000Y-91250000D02*
X144414028Y-91250000D01*
X161284970Y-110780058D02*
X160031459Y-109526547D01*
X160031459Y-92551459D02*
X158730000Y-91250000D01*
X160031459Y-109526547D02*
X160031459Y-92551459D01*
X144414028Y-91250000D02*
X143022370Y-92641658D01*
%TO.N,/CBT*%
X145390000Y-104200500D02*
X145390000Y-104190500D01*
X145390000Y-104190500D02*
X145249500Y-104050000D01*
X130535638Y-113190000D02*
X129500000Y-113190000D01*
X145390000Y-104200500D02*
X145390000Y-104160500D01*
X145249500Y-104050000D02*
X139675638Y-104050000D01*
X139675638Y-104050000D02*
X130535638Y-113190000D01*
%TD*%
%TA.AperFunction,Conductor*%
%TO.N,GND*%
G36*
X168984563Y-89302414D02*
G01*
X168989145Y-89303222D01*
X169000000Y-89305136D01*
X169010856Y-89303222D01*
X169021878Y-89303222D01*
X169021878Y-89303779D01*
X169034152Y-89303188D01*
X169177759Y-89314490D01*
X169197285Y-89317583D01*
X169361030Y-89356895D01*
X169379824Y-89363001D01*
X169535405Y-89427445D01*
X169553010Y-89436415D01*
X169696597Y-89524405D01*
X169712592Y-89536027D01*
X169840634Y-89645385D01*
X169854615Y-89659366D01*
X169963973Y-89787408D01*
X169975594Y-89803401D01*
X170063585Y-89946990D01*
X170072555Y-89964595D01*
X170100888Y-90032996D01*
X170136997Y-90120171D01*
X170143105Y-90138970D01*
X170182417Y-90302714D01*
X170185510Y-90322242D01*
X170196812Y-90465845D01*
X170196221Y-90478122D01*
X170196778Y-90478122D01*
X170196778Y-90489144D01*
X170194864Y-90500000D01*
X170196778Y-90510855D01*
X170197586Y-90515437D01*
X170199500Y-90537317D01*
X170199500Y-118962683D01*
X170197586Y-118984563D01*
X170194864Y-119000000D01*
X170196778Y-119010856D01*
X170196778Y-119021878D01*
X170196221Y-119021878D01*
X170196812Y-119034155D01*
X170185510Y-119177758D01*
X170182417Y-119197285D01*
X170173239Y-119235517D01*
X170143107Y-119361025D01*
X170136999Y-119379824D01*
X170072555Y-119535405D01*
X170063585Y-119553010D01*
X169979331Y-119690500D01*
X169975595Y-119696597D01*
X169963973Y-119712592D01*
X169854615Y-119840634D01*
X169840634Y-119854615D01*
X169712592Y-119963973D01*
X169696599Y-119975594D01*
X169553010Y-120063585D01*
X169535405Y-120072555D01*
X169379824Y-120136999D01*
X169361030Y-120143105D01*
X169197286Y-120182417D01*
X169177759Y-120185510D01*
X169034152Y-120196812D01*
X169021878Y-120196221D01*
X169021878Y-120196778D01*
X169010856Y-120196778D01*
X169000000Y-120194864D01*
X168989145Y-120196778D01*
X168984563Y-120197586D01*
X168962683Y-120199500D01*
X154537317Y-120199500D01*
X154515437Y-120197586D01*
X154510855Y-120196778D01*
X154500000Y-120194864D01*
X154489144Y-120196778D01*
X154478122Y-120196778D01*
X154478122Y-120196221D01*
X154465848Y-120196812D01*
X154322241Y-120185510D01*
X154302714Y-120182417D01*
X154138970Y-120143105D01*
X154120176Y-120136999D01*
X153964595Y-120072555D01*
X153946990Y-120063585D01*
X153803401Y-119975594D01*
X153787408Y-119963973D01*
X153659366Y-119854615D01*
X153645385Y-119840634D01*
X153536027Y-119712592D01*
X153524405Y-119696597D01*
X153520669Y-119690500D01*
X153436415Y-119553010D01*
X153427445Y-119535405D01*
X153363001Y-119379824D01*
X153356893Y-119361025D01*
X153326762Y-119235517D01*
X153317583Y-119197285D01*
X153314490Y-119177758D01*
X153303188Y-119034155D01*
X153303779Y-119021878D01*
X153303222Y-119021878D01*
X153303222Y-119010856D01*
X153305136Y-119000000D01*
X153302414Y-118984563D01*
X153300500Y-118962683D01*
X153300500Y-117792088D01*
X157601780Y-117792088D01*
X157611076Y-117804103D01*
X157653074Y-117833510D01*
X157662569Y-117838993D01*
X157850830Y-117926780D01*
X157861122Y-117930526D01*
X158061766Y-117984288D01*
X158072561Y-117986191D01*
X158279495Y-118004296D01*
X158290445Y-118004296D01*
X158497379Y-117986191D01*
X158508174Y-117984288D01*
X158708818Y-117930526D01*
X158719110Y-117926780D01*
X158907371Y-117838993D01*
X158916866Y-117833510D01*
X158959702Y-117803516D01*
X158968077Y-117793039D01*
X158961009Y-117779592D01*
X158297782Y-117116365D01*
X158283838Y-117108751D01*
X158282005Y-117108882D01*
X158275390Y-117113133D01*
X157608210Y-117780313D01*
X157601780Y-117792088D01*
X153300500Y-117792088D01*
X153300500Y-116755475D01*
X157030674Y-116755475D01*
X157048779Y-116962409D01*
X157050682Y-116973204D01*
X157104444Y-117173848D01*
X157108190Y-117184140D01*
X157195980Y-117372406D01*
X157201458Y-117381892D01*
X157231454Y-117424731D01*
X157241931Y-117433106D01*
X157255379Y-117426038D01*
X157918605Y-116762812D01*
X157924983Y-116751132D01*
X158643721Y-116751132D01*
X158643852Y-116752965D01*
X158648103Y-116759580D01*
X159315283Y-117426760D01*
X159327057Y-117433190D01*
X159339073Y-117423893D01*
X159368482Y-117381892D01*
X159373960Y-117372406D01*
X159461750Y-117184140D01*
X159465496Y-117173848D01*
X159519258Y-116973204D01*
X159521161Y-116962409D01*
X159539266Y-116755475D01*
X159539266Y-116744525D01*
X159538456Y-116735262D01*
X160229490Y-116735262D01*
X160232901Y-116775877D01*
X160245969Y-116931497D01*
X160246729Y-116940553D01*
X160248428Y-116946478D01*
X160294997Y-117108882D01*
X160303514Y-117138586D01*
X160306329Y-117144063D01*
X160306330Y-117144066D01*
X160394867Y-117316341D01*
X160397682Y-117321818D01*
X160525647Y-117483270D01*
X160682534Y-117616791D01*
X160862368Y-117717297D01*
X160957208Y-117748113D01*
X161052441Y-117779056D01*
X161052445Y-117779057D01*
X161058299Y-117780959D01*
X161262864Y-117805351D01*
X161268999Y-117804879D01*
X161269001Y-117804879D01*
X161325009Y-117800569D01*
X161468270Y-117789546D01*
X161474200Y-117787890D01*
X161474202Y-117787890D01*
X161660767Y-117735800D01*
X161660766Y-117735800D01*
X161666695Y-117734145D01*
X161672184Y-117731372D01*
X161672190Y-117731370D01*
X161845086Y-117644033D01*
X161850580Y-117641258D01*
X162012921Y-117514424D01*
X162147534Y-117358472D01*
X162168357Y-117321818D01*
X162213199Y-117242881D01*
X162249293Y-117179344D01*
X162314321Y-116983863D01*
X162340141Y-116779474D01*
X162340419Y-116759580D01*
X162340504Y-116753522D01*
X162340504Y-116753518D01*
X162340553Y-116750000D01*
X162320450Y-116544970D01*
X162260905Y-116347749D01*
X162164188Y-116165849D01*
X162090829Y-116075902D01*
X162037876Y-116010975D01*
X162037873Y-116010972D01*
X162033981Y-116006200D01*
X162016756Y-115991950D01*
X161879995Y-115878811D01*
X161879991Y-115878809D01*
X161875245Y-115874882D01*
X161694025Y-115776897D01*
X161497224Y-115715977D01*
X161491099Y-115715333D01*
X161491098Y-115715333D01*
X161298468Y-115695087D01*
X161298466Y-115695087D01*
X161292339Y-115694443D01*
X161205499Y-115702346D01*
X161093312Y-115712555D01*
X161093309Y-115712556D01*
X161087173Y-115713114D01*
X160889542Y-115771280D01*
X160706972Y-115866726D01*
X160702171Y-115870586D01*
X160702168Y-115870588D01*
X160650916Y-115911796D01*
X160546417Y-115995815D01*
X160413994Y-116153630D01*
X160411026Y-116159028D01*
X160411023Y-116159033D01*
X160317713Y-116328765D01*
X160314746Y-116334162D01*
X160252454Y-116530532D01*
X160251768Y-116536649D01*
X160251767Y-116536653D01*
X160234021Y-116694864D01*
X160229490Y-116735262D01*
X159538456Y-116735262D01*
X159521161Y-116537591D01*
X159519258Y-116526796D01*
X159465496Y-116326152D01*
X159461750Y-116315860D01*
X159373960Y-116127594D01*
X159368482Y-116118108D01*
X159338486Y-116075269D01*
X159328009Y-116066894D01*
X159314561Y-116073962D01*
X158651335Y-116737188D01*
X158643721Y-116751132D01*
X157924983Y-116751132D01*
X157926219Y-116748868D01*
X157926088Y-116747035D01*
X157921837Y-116740420D01*
X157254657Y-116073240D01*
X157242883Y-116066810D01*
X157230867Y-116076107D01*
X157201458Y-116118108D01*
X157195980Y-116127594D01*
X157108190Y-116315860D01*
X157104444Y-116326152D01*
X157050682Y-116526796D01*
X157048779Y-116537591D01*
X157030674Y-116744525D01*
X157030674Y-116755475D01*
X153300500Y-116755475D01*
X153300500Y-115706961D01*
X157601864Y-115706961D01*
X157608932Y-115720409D01*
X158272158Y-116383635D01*
X158286102Y-116391249D01*
X158287935Y-116391118D01*
X158294550Y-116386867D01*
X158961730Y-115719687D01*
X158968160Y-115707912D01*
X158958864Y-115695897D01*
X158916866Y-115666490D01*
X158907371Y-115661007D01*
X158719110Y-115573220D01*
X158708818Y-115569474D01*
X158508174Y-115515712D01*
X158497379Y-115513809D01*
X158290445Y-115495704D01*
X158279495Y-115495704D01*
X158072561Y-115513809D01*
X158061766Y-115515712D01*
X157861122Y-115569474D01*
X157850830Y-115573220D01*
X157662564Y-115661010D01*
X157653078Y-115666488D01*
X157610239Y-115696484D01*
X157601864Y-115706961D01*
X153300500Y-115706961D01*
X153300500Y-111537317D01*
X153302414Y-111515437D01*
X153303222Y-111510853D01*
X153305136Y-111500000D01*
X153303906Y-111493022D01*
X153303313Y-111483975D01*
X153303392Y-111483624D01*
X153303223Y-111478480D01*
X153303223Y-111478127D01*
X153304623Y-111478127D01*
X153318831Y-111414695D01*
X153369341Y-111364803D01*
X153438807Y-111350139D01*
X153505173Y-111375358D01*
X153518140Y-111386665D01*
X156290188Y-114158713D01*
X156293841Y-114162522D01*
X156335857Y-114208214D01*
X156363582Y-114225404D01*
X156372841Y-114231145D01*
X156382623Y-114237868D01*
X156417275Y-114264170D01*
X156431253Y-114269704D01*
X156451257Y-114279765D01*
X156464044Y-114287693D01*
X156472295Y-114290090D01*
X156472297Y-114290091D01*
X156505830Y-114299833D01*
X156517060Y-114303678D01*
X156557511Y-114319694D01*
X156566052Y-114320592D01*
X156566053Y-114320592D01*
X156572466Y-114321266D01*
X156594441Y-114325578D01*
X156608883Y-114329773D01*
X156616366Y-114330323D01*
X156617266Y-114330389D01*
X156617277Y-114330389D01*
X156619573Y-114330558D01*
X156654275Y-114330558D01*
X156667445Y-114331248D01*
X156707512Y-114335459D01*
X156715977Y-114334027D01*
X156715986Y-114334027D01*
X156726058Y-114332323D01*
X156747071Y-114330558D01*
X157343698Y-114330558D01*
X157411819Y-114350560D01*
X157442443Y-114378293D01*
X157525647Y-114483270D01*
X157530340Y-114487264D01*
X157530341Y-114487265D01*
X157584187Y-114533091D01*
X157682534Y-114616791D01*
X157862368Y-114717297D01*
X157957208Y-114748113D01*
X158052441Y-114779056D01*
X158052445Y-114779057D01*
X158058299Y-114780959D01*
X158262864Y-114805351D01*
X158268999Y-114804879D01*
X158269001Y-114804879D01*
X158325009Y-114800569D01*
X158468270Y-114789546D01*
X158474200Y-114787890D01*
X158474202Y-114787890D01*
X158660767Y-114735800D01*
X158660766Y-114735800D01*
X158666695Y-114734145D01*
X158672184Y-114731372D01*
X158672190Y-114731370D01*
X158845086Y-114644033D01*
X158850580Y-114641258D01*
X159012921Y-114514424D01*
X159021530Y-114504451D01*
X159143510Y-114363134D01*
X159143510Y-114363133D01*
X159147534Y-114358472D01*
X159155837Y-114343857D01*
X159204056Y-114258976D01*
X159249293Y-114179344D01*
X159314321Y-113983863D01*
X159340141Y-113779474D01*
X159340412Y-113760077D01*
X159340504Y-113753522D01*
X159340504Y-113753518D01*
X159340553Y-113750000D01*
X159339108Y-113735262D01*
X160229490Y-113735262D01*
X160230006Y-113741406D01*
X160246148Y-113933629D01*
X160246729Y-113940553D01*
X160303514Y-114138586D01*
X160306329Y-114144063D01*
X160306330Y-114144066D01*
X160386383Y-114299833D01*
X160397682Y-114321818D01*
X160525647Y-114483270D01*
X160530340Y-114487264D01*
X160530341Y-114487265D01*
X160584187Y-114533091D01*
X160682534Y-114616791D01*
X160862368Y-114717297D01*
X160957208Y-114748113D01*
X161052441Y-114779056D01*
X161052445Y-114779057D01*
X161058299Y-114780959D01*
X161262864Y-114805351D01*
X161268999Y-114804879D01*
X161269001Y-114804879D01*
X161325009Y-114800569D01*
X161468270Y-114789546D01*
X161474200Y-114787890D01*
X161474202Y-114787890D01*
X161660767Y-114735800D01*
X161660766Y-114735800D01*
X161666695Y-114734145D01*
X161672184Y-114731372D01*
X161672190Y-114731370D01*
X161694251Y-114720226D01*
X163802789Y-114720226D01*
X163838877Y-114985395D01*
X163913762Y-115242317D01*
X164025801Y-115485348D01*
X164057800Y-115534155D01*
X164169966Y-115705236D01*
X164169970Y-115705241D01*
X164172532Y-115709149D01*
X164226433Y-115769540D01*
X164308087Y-115861025D01*
X164350730Y-115908803D01*
X164556482Y-116079925D01*
X164560475Y-116082348D01*
X164781276Y-116216334D01*
X164781280Y-116216336D01*
X164785268Y-116218756D01*
X164789576Y-116220563D01*
X164789577Y-116220563D01*
X165027746Y-116320436D01*
X165027751Y-116320438D01*
X165032061Y-116322245D01*
X165036593Y-116323396D01*
X165036596Y-116323397D01*
X165286903Y-116386967D01*
X165286906Y-116386968D01*
X165291440Y-116388119D01*
X165296096Y-116388588D01*
X165296097Y-116388588D01*
X165510572Y-116410184D01*
X165510573Y-116410184D01*
X165513711Y-116410500D01*
X165672914Y-116410500D01*
X165675237Y-116410327D01*
X165675247Y-116410327D01*
X165867182Y-116396064D01*
X165867186Y-116396063D01*
X165871847Y-116395717D01*
X165876411Y-116394684D01*
X165876413Y-116394684D01*
X166083833Y-116347749D01*
X166132861Y-116336655D01*
X166139272Y-116334162D01*
X166377926Y-116241355D01*
X166377928Y-116241354D01*
X166382279Y-116239662D01*
X166423095Y-116216334D01*
X166523350Y-116159033D01*
X166614620Y-116106868D01*
X166824781Y-115941190D01*
X167008145Y-115746269D01*
X167160684Y-115526385D01*
X167164731Y-115518178D01*
X167276981Y-115290559D01*
X167276982Y-115290556D01*
X167279046Y-115286371D01*
X167360632Y-115031497D01*
X167399959Y-114790018D01*
X167402897Y-114771976D01*
X167402897Y-114771975D01*
X167403648Y-114767364D01*
X167407151Y-114499774D01*
X167371063Y-114234605D01*
X167296178Y-113977683D01*
X167184139Y-113734652D01*
X167143597Y-113672816D01*
X167039974Y-113514764D01*
X167039970Y-113514759D01*
X167037408Y-113510851D01*
X166888118Y-113343586D01*
X166862327Y-113314689D01*
X166862325Y-113314687D01*
X166859210Y-113311197D01*
X166653458Y-113140075D01*
X166605236Y-113110813D01*
X166428664Y-113003666D01*
X166428660Y-113003664D01*
X166424672Y-113001244D01*
X166420363Y-112999437D01*
X166182194Y-112899564D01*
X166182189Y-112899562D01*
X166177879Y-112897755D01*
X166173347Y-112896604D01*
X166173344Y-112896603D01*
X165923037Y-112833033D01*
X165923034Y-112833032D01*
X165918500Y-112831881D01*
X165913844Y-112831412D01*
X165913843Y-112831412D01*
X165699368Y-112809816D01*
X165699367Y-112809816D01*
X165696229Y-112809500D01*
X165537026Y-112809500D01*
X165534703Y-112809673D01*
X165534693Y-112809673D01*
X165342758Y-112823936D01*
X165342754Y-112823937D01*
X165338093Y-112824283D01*
X165333529Y-112825316D01*
X165333527Y-112825316D01*
X165281459Y-112837098D01*
X165077079Y-112883345D01*
X165072727Y-112885037D01*
X165072725Y-112885038D01*
X164832014Y-112978645D01*
X164832012Y-112978646D01*
X164827661Y-112980338D01*
X164823607Y-112982655D01*
X164823605Y-112982656D01*
X164774057Y-113010975D01*
X164595320Y-113113132D01*
X164385159Y-113278810D01*
X164201795Y-113473731D01*
X164049256Y-113693615D01*
X164047190Y-113697804D01*
X164047189Y-113697806D01*
X163949277Y-113896353D01*
X163930894Y-113933629D01*
X163929472Y-113938072D01*
X163929471Y-113938074D01*
X163918154Y-113973429D01*
X163849308Y-114188503D01*
X163806292Y-114452636D01*
X163806231Y-114457313D01*
X163802867Y-114714290D01*
X163802789Y-114720226D01*
X161694251Y-114720226D01*
X161845086Y-114644033D01*
X161850580Y-114641258D01*
X162012921Y-114514424D01*
X162021530Y-114504451D01*
X162143510Y-114363134D01*
X162143510Y-114363133D01*
X162147534Y-114358472D01*
X162155837Y-114343857D01*
X162204056Y-114258976D01*
X162249293Y-114179344D01*
X162314321Y-113983863D01*
X162340141Y-113779474D01*
X162340412Y-113760077D01*
X162340504Y-113753522D01*
X162340504Y-113753518D01*
X162340553Y-113750000D01*
X162320450Y-113544970D01*
X162260905Y-113347749D01*
X162164188Y-113165849D01*
X162075555Y-113057174D01*
X162037876Y-113010975D01*
X162037873Y-113010972D01*
X162033981Y-113006200D01*
X162029232Y-113002271D01*
X161879995Y-112878811D01*
X161879991Y-112878809D01*
X161875245Y-112874882D01*
X161694025Y-112776897D01*
X161497224Y-112715977D01*
X161491099Y-112715333D01*
X161491098Y-112715333D01*
X161298468Y-112695087D01*
X161298466Y-112695087D01*
X161292339Y-112694443D01*
X161205499Y-112702346D01*
X161093312Y-112712555D01*
X161093309Y-112712556D01*
X161087173Y-112713114D01*
X160889542Y-112771280D01*
X160884077Y-112774137D01*
X160815830Y-112809816D01*
X160706972Y-112866726D01*
X160702171Y-112870586D01*
X160702168Y-112870588D01*
X160551224Y-112991950D01*
X160546417Y-112995815D01*
X160413994Y-113153630D01*
X160411026Y-113159028D01*
X160411023Y-113159033D01*
X160338383Y-113291166D01*
X160314746Y-113334162D01*
X160252454Y-113530532D01*
X160251768Y-113536649D01*
X160251767Y-113536653D01*
X160234161Y-113693615D01*
X160229490Y-113735262D01*
X159339108Y-113735262D01*
X159320450Y-113544970D01*
X159260905Y-113347749D01*
X159164188Y-113165849D01*
X159075555Y-113057174D01*
X159037876Y-113010975D01*
X159037873Y-113010972D01*
X159033981Y-113006200D01*
X159029232Y-113002271D01*
X158879995Y-112878811D01*
X158879991Y-112878809D01*
X158875245Y-112874882D01*
X158694025Y-112776897D01*
X158497224Y-112715977D01*
X158491099Y-112715333D01*
X158491098Y-112715333D01*
X158298468Y-112695087D01*
X158298466Y-112695087D01*
X158292339Y-112694443D01*
X158205499Y-112702346D01*
X158093312Y-112712555D01*
X158093309Y-112712556D01*
X158087173Y-112713114D01*
X157889542Y-112771280D01*
X157884077Y-112774137D01*
X157815830Y-112809816D01*
X157706972Y-112866726D01*
X157702171Y-112870586D01*
X157702168Y-112870588D01*
X157551224Y-112991950D01*
X157546417Y-112995815D01*
X157413994Y-113153630D01*
X157411024Y-113159033D01*
X157411021Y-113159037D01*
X157408152Y-113164256D01*
X157357808Y-113214316D01*
X157297736Y-113229558D01*
X156970273Y-113229558D01*
X156902152Y-113209556D01*
X156881178Y-113192653D01*
X154423787Y-110735262D01*
X157229490Y-110735262D01*
X157246729Y-110940553D01*
X157248428Y-110946478D01*
X157283761Y-111069698D01*
X157303514Y-111138586D01*
X157306329Y-111144063D01*
X157306330Y-111144066D01*
X157356351Y-111241397D01*
X157397682Y-111321818D01*
X157525647Y-111483270D01*
X157530340Y-111487264D01*
X157530341Y-111487265D01*
X157537106Y-111493022D01*
X157682534Y-111616791D01*
X157862368Y-111717297D01*
X157945022Y-111744153D01*
X158052441Y-111779056D01*
X158052445Y-111779057D01*
X158058299Y-111780959D01*
X158262864Y-111805351D01*
X158268999Y-111804879D01*
X158269001Y-111804879D01*
X158331016Y-111800107D01*
X158468270Y-111789546D01*
X158474200Y-111787890D01*
X158474202Y-111787890D01*
X158660767Y-111735800D01*
X158660766Y-111735800D01*
X158666695Y-111734145D01*
X158672184Y-111731372D01*
X158672190Y-111731370D01*
X158845086Y-111644033D01*
X158850580Y-111641258D01*
X159012921Y-111514424D01*
X159025372Y-111500000D01*
X159143510Y-111363134D01*
X159143510Y-111363133D01*
X159147534Y-111358472D01*
X159168357Y-111321818D01*
X159246246Y-111184707D01*
X159249293Y-111179344D01*
X159314321Y-110983863D01*
X159340141Y-110779474D01*
X159340553Y-110750000D01*
X159320450Y-110544970D01*
X159260905Y-110347749D01*
X159164188Y-110165849D01*
X159082925Y-110066211D01*
X159037876Y-110010975D01*
X159037873Y-110010972D01*
X159033981Y-110006200D01*
X158973452Y-109956126D01*
X158879995Y-109878811D01*
X158879991Y-109878809D01*
X158875245Y-109874882D01*
X158694025Y-109776897D01*
X158497224Y-109715977D01*
X158491099Y-109715333D01*
X158491098Y-109715333D01*
X158298468Y-109695087D01*
X158298466Y-109695087D01*
X158292339Y-109694443D01*
X158205499Y-109702346D01*
X158093312Y-109712555D01*
X158093309Y-109712556D01*
X158087173Y-109713114D01*
X157889542Y-109771280D01*
X157884077Y-109774137D01*
X157807058Y-109814402D01*
X157706972Y-109866726D01*
X157702171Y-109870586D01*
X157702168Y-109870588D01*
X157616246Y-109939671D01*
X157546417Y-109995815D01*
X157413994Y-110153630D01*
X157411026Y-110159028D01*
X157411023Y-110159033D01*
X157347949Y-110273766D01*
X157314746Y-110334162D01*
X157252454Y-110530532D01*
X157251768Y-110536649D01*
X157251767Y-110536653D01*
X157244491Y-110601522D01*
X157229490Y-110735262D01*
X154423787Y-110735262D01*
X151327405Y-107638881D01*
X151293379Y-107576569D01*
X151290500Y-107549786D01*
X151290500Y-106685154D01*
X151310502Y-106617033D01*
X151364158Y-106570540D01*
X151434432Y-106560436D01*
X151499012Y-106589930D01*
X151537396Y-106649656D01*
X151541588Y-106670018D01*
X151548124Y-106724031D01*
X151550364Y-106742547D01*
X151605888Y-106882783D01*
X151697078Y-107002922D01*
X151817217Y-107094112D01*
X151957453Y-107149636D01*
X151965491Y-107150609D01*
X151965492Y-107150609D01*
X151997063Y-107154429D01*
X152047229Y-107160500D01*
X152084545Y-107160500D01*
X152546347Y-107160499D01*
X152614468Y-107180501D01*
X152635442Y-107197404D01*
X153747597Y-108309559D01*
X153748526Y-108310497D01*
X153810975Y-108374268D01*
X153847020Y-108397498D01*
X153857345Y-108404917D01*
X153890850Y-108431663D01*
X153897190Y-108434728D01*
X153920669Y-108446079D01*
X153934080Y-108453605D01*
X153956009Y-108467737D01*
X153956014Y-108467739D01*
X153961933Y-108471554D01*
X154002215Y-108486216D01*
X154013945Y-108491170D01*
X154052538Y-108509827D01*
X154084814Y-108517279D01*
X154099562Y-108521648D01*
X154124071Y-108530568D01*
X154124075Y-108530569D01*
X154130694Y-108532978D01*
X154173234Y-108538352D01*
X154185753Y-108540582D01*
X154227527Y-108550226D01*
X154234568Y-108550251D01*
X154234571Y-108550251D01*
X154267698Y-108550367D01*
X154268571Y-108550396D01*
X154269399Y-108550500D01*
X154305854Y-108550500D01*
X154306294Y-108550501D01*
X154403623Y-108550841D01*
X154403626Y-108550841D01*
X154407116Y-108550853D01*
X154408304Y-108550587D01*
X154409916Y-108550500D01*
X157558283Y-108550500D01*
X157626404Y-108570502D01*
X157639947Y-108580546D01*
X157682534Y-108616791D01*
X157862368Y-108717297D01*
X157957208Y-108748113D01*
X158052441Y-108779056D01*
X158052445Y-108779057D01*
X158058299Y-108780959D01*
X158262864Y-108805351D01*
X158268999Y-108804879D01*
X158269001Y-108804879D01*
X158325009Y-108800569D01*
X158468270Y-108789546D01*
X158474200Y-108787890D01*
X158474202Y-108787890D01*
X158660767Y-108735800D01*
X158660766Y-108735800D01*
X158666695Y-108734145D01*
X158672184Y-108731372D01*
X158672190Y-108731370D01*
X158845086Y-108644033D01*
X158850580Y-108641258D01*
X159012921Y-108514424D01*
X159071915Y-108446079D01*
X159143510Y-108363134D01*
X159143510Y-108363133D01*
X159147534Y-108358472D01*
X159175321Y-108309559D01*
X159245403Y-108186192D01*
X159296442Y-108136841D01*
X159366060Y-108122919D01*
X159432154Y-108148845D01*
X159473739Y-108206388D01*
X159480959Y-108248429D01*
X159480959Y-109511554D01*
X159480848Y-109516830D01*
X159478249Y-109578841D01*
X159480211Y-109587206D01*
X159488186Y-109621209D01*
X159490349Y-109632880D01*
X159496253Y-109675979D01*
X159499665Y-109683863D01*
X159499665Y-109683864D01*
X159502224Y-109689777D01*
X159509258Y-109711046D01*
X159512691Y-109725683D01*
X159516828Y-109733208D01*
X159516829Y-109733211D01*
X159533654Y-109763815D01*
X159538870Y-109774460D01*
X159556154Y-109814402D01*
X159565617Y-109826088D01*
X159578104Y-109844672D01*
X159585352Y-109857855D01*
X159592356Y-109865969D01*
X159616892Y-109890505D01*
X159625717Y-109900306D01*
X159645665Y-109924939D01*
X159651073Y-109931617D01*
X159658071Y-109936590D01*
X159658076Y-109936595D01*
X159666407Y-109942515D01*
X159682513Y-109956126D01*
X160210025Y-110483638D01*
X160244051Y-110545950D01*
X160246145Y-110586778D01*
X160229490Y-110735262D01*
X160246729Y-110940553D01*
X160248428Y-110946478D01*
X160283761Y-111069698D01*
X160303514Y-111138586D01*
X160306329Y-111144063D01*
X160306330Y-111144066D01*
X160356351Y-111241397D01*
X160397682Y-111321818D01*
X160525647Y-111483270D01*
X160530340Y-111487264D01*
X160530341Y-111487265D01*
X160537106Y-111493022D01*
X160682534Y-111616791D01*
X160862368Y-111717297D01*
X160945022Y-111744153D01*
X161052441Y-111779056D01*
X161052445Y-111779057D01*
X161058299Y-111780959D01*
X161262864Y-111805351D01*
X161268999Y-111804879D01*
X161269001Y-111804879D01*
X161331016Y-111800107D01*
X161468270Y-111789546D01*
X161474200Y-111787890D01*
X161474202Y-111787890D01*
X161660767Y-111735800D01*
X161660766Y-111735800D01*
X161666695Y-111734145D01*
X161672184Y-111731372D01*
X161672190Y-111731370D01*
X161845086Y-111644033D01*
X161850580Y-111641258D01*
X162012921Y-111514424D01*
X162025372Y-111500000D01*
X162143510Y-111363134D01*
X162143510Y-111363133D01*
X162147534Y-111358472D01*
X162168357Y-111321818D01*
X162246246Y-111184707D01*
X162249293Y-111179344D01*
X162314321Y-110983863D01*
X162340141Y-110779474D01*
X162340553Y-110750000D01*
X162320450Y-110544970D01*
X162260905Y-110347749D01*
X162164188Y-110165849D01*
X162082925Y-110066211D01*
X162037876Y-110010975D01*
X162037873Y-110010972D01*
X162033981Y-110006200D01*
X161973452Y-109956126D01*
X161879995Y-109878811D01*
X161879991Y-109878809D01*
X161875245Y-109874882D01*
X161694025Y-109776897D01*
X161497224Y-109715977D01*
X161491099Y-109715333D01*
X161491098Y-109715333D01*
X161298468Y-109695087D01*
X161298466Y-109695087D01*
X161292339Y-109694443D01*
X161087173Y-109713114D01*
X161081247Y-109714858D01*
X161077117Y-109715646D01*
X161006455Y-109708764D01*
X160964409Y-109680973D01*
X160618864Y-109335428D01*
X160584838Y-109273116D01*
X160581959Y-109246333D01*
X160581959Y-108775343D01*
X160601961Y-108707222D01*
X160655617Y-108660729D01*
X160725891Y-108650625D01*
X160769429Y-108665355D01*
X160856988Y-108714290D01*
X160862368Y-108717297D01*
X160957208Y-108748113D01*
X161052441Y-108779056D01*
X161052445Y-108779057D01*
X161058299Y-108780959D01*
X161262864Y-108805351D01*
X161268999Y-108804879D01*
X161269001Y-108804879D01*
X161325009Y-108800569D01*
X161468270Y-108789546D01*
X161474200Y-108787890D01*
X161474202Y-108787890D01*
X161660767Y-108735800D01*
X161660766Y-108735800D01*
X161666695Y-108734145D01*
X161672184Y-108731372D01*
X161672190Y-108731370D01*
X161845086Y-108644033D01*
X161850580Y-108641258D01*
X162012921Y-108514424D01*
X162071915Y-108446079D01*
X162143510Y-108363134D01*
X162143510Y-108363133D01*
X162147534Y-108358472D01*
X162175321Y-108309559D01*
X162240991Y-108193958D01*
X162249293Y-108179344D01*
X162314321Y-107983863D01*
X162340141Y-107779474D01*
X162340553Y-107750000D01*
X162320450Y-107544970D01*
X162260905Y-107347749D01*
X162164188Y-107165849D01*
X162090829Y-107075902D01*
X162037876Y-107010975D01*
X162037873Y-107010972D01*
X162033981Y-107006200D01*
X162021752Y-106996083D01*
X161879995Y-106878811D01*
X161879991Y-106878809D01*
X161875245Y-106874882D01*
X161694025Y-106776897D01*
X161497224Y-106715977D01*
X161491099Y-106715333D01*
X161491098Y-106715333D01*
X161298468Y-106695087D01*
X161298466Y-106695087D01*
X161292339Y-106694443D01*
X161205499Y-106702346D01*
X161093312Y-106712555D01*
X161093309Y-106712556D01*
X161087173Y-106713114D01*
X160889542Y-106771280D01*
X160766334Y-106835692D01*
X160696699Y-106849527D01*
X160630639Y-106823517D01*
X160589126Y-106765922D01*
X160581959Y-106724031D01*
X160581959Y-105775343D01*
X160601961Y-105707222D01*
X160655617Y-105660729D01*
X160725891Y-105650625D01*
X160769429Y-105665355D01*
X160862368Y-105717297D01*
X160957208Y-105748112D01*
X161052441Y-105779056D01*
X161052445Y-105779057D01*
X161058299Y-105780959D01*
X161262864Y-105805351D01*
X161268999Y-105804879D01*
X161269001Y-105804879D01*
X161325009Y-105800569D01*
X161468270Y-105789546D01*
X161474200Y-105787890D01*
X161474202Y-105787890D01*
X161660767Y-105735800D01*
X161660766Y-105735800D01*
X161666695Y-105734145D01*
X161672184Y-105731372D01*
X161672190Y-105731370D01*
X161845086Y-105644033D01*
X161850580Y-105641258D01*
X162012921Y-105514424D01*
X162037895Y-105485492D01*
X162143510Y-105363134D01*
X162143510Y-105363133D01*
X162147534Y-105358472D01*
X162249293Y-105179344D01*
X162314321Y-104983863D01*
X162340141Y-104779474D01*
X162340553Y-104750000D01*
X162320450Y-104544970D01*
X162260905Y-104347749D01*
X162164188Y-104165849D01*
X162090829Y-104075902D01*
X162037876Y-104010975D01*
X162037873Y-104010972D01*
X162033981Y-104006200D01*
X162016756Y-103991950D01*
X161879995Y-103878811D01*
X161879991Y-103878809D01*
X161875245Y-103874882D01*
X161694025Y-103776897D01*
X161497224Y-103715977D01*
X161491099Y-103715333D01*
X161491098Y-103715333D01*
X161298468Y-103695087D01*
X161298466Y-103695087D01*
X161292339Y-103694443D01*
X161205499Y-103702346D01*
X161093312Y-103712555D01*
X161093309Y-103712556D01*
X161087173Y-103713114D01*
X160889542Y-103771280D01*
X160766334Y-103835692D01*
X160696699Y-103849527D01*
X160630639Y-103823517D01*
X160589126Y-103765922D01*
X160581959Y-103724031D01*
X160581959Y-102775343D01*
X160601961Y-102707222D01*
X160655617Y-102660729D01*
X160725891Y-102650625D01*
X160769429Y-102665355D01*
X160856988Y-102714290D01*
X160862368Y-102717297D01*
X160937916Y-102741844D01*
X161052441Y-102779056D01*
X161052445Y-102779057D01*
X161058299Y-102780959D01*
X161262864Y-102805351D01*
X161268999Y-102804879D01*
X161269001Y-102804879D01*
X161325009Y-102800569D01*
X161468270Y-102789546D01*
X161474200Y-102787890D01*
X161474202Y-102787890D01*
X161598074Y-102753304D01*
X161666695Y-102734145D01*
X161672184Y-102731372D01*
X161672190Y-102731370D01*
X161834717Y-102649271D01*
X161850580Y-102641258D01*
X161860476Y-102633527D01*
X161943676Y-102568524D01*
X162012921Y-102514424D01*
X162028469Y-102496412D01*
X162143510Y-102363134D01*
X162143510Y-102363133D01*
X162147534Y-102358472D01*
X162168357Y-102321818D01*
X162190247Y-102283283D01*
X162249293Y-102179344D01*
X162314321Y-101983863D01*
X162340141Y-101779474D01*
X162340553Y-101750000D01*
X162320450Y-101544970D01*
X162260905Y-101347749D01*
X162164188Y-101165849D01*
X162055536Y-101032629D01*
X162037876Y-101010975D01*
X162037873Y-101010972D01*
X162033981Y-101006200D01*
X162029232Y-101002271D01*
X161879995Y-100878811D01*
X161879991Y-100878809D01*
X161875245Y-100874882D01*
X161694025Y-100776897D01*
X161497224Y-100715977D01*
X161491099Y-100715333D01*
X161491098Y-100715333D01*
X161298468Y-100695087D01*
X161298466Y-100695087D01*
X161292339Y-100694443D01*
X161205499Y-100702346D01*
X161093312Y-100712555D01*
X161093309Y-100712556D01*
X161087173Y-100713114D01*
X160889542Y-100771280D01*
X160766334Y-100835692D01*
X160696699Y-100849527D01*
X160630639Y-100823517D01*
X160589126Y-100765922D01*
X160581959Y-100724031D01*
X160581959Y-99775343D01*
X160601961Y-99707222D01*
X160655617Y-99660729D01*
X160725891Y-99650625D01*
X160769429Y-99665355D01*
X160856988Y-99714290D01*
X160862368Y-99717297D01*
X160923389Y-99737124D01*
X161052441Y-99779056D01*
X161052445Y-99779057D01*
X161058299Y-99780959D01*
X161262864Y-99805351D01*
X161268999Y-99804879D01*
X161269001Y-99804879D01*
X161325009Y-99800569D01*
X161468270Y-99789546D01*
X161474200Y-99787890D01*
X161474202Y-99787890D01*
X161660767Y-99735800D01*
X161660766Y-99735800D01*
X161666695Y-99734145D01*
X161672184Y-99731372D01*
X161672190Y-99731370D01*
X161845086Y-99644033D01*
X161850580Y-99641258D01*
X162012921Y-99514424D01*
X162032777Y-99491421D01*
X162143510Y-99363134D01*
X162143510Y-99363133D01*
X162147534Y-99358472D01*
X162168357Y-99321818D01*
X162193368Y-99277789D01*
X162249293Y-99179344D01*
X162314321Y-98983863D01*
X162340141Y-98779474D01*
X162340553Y-98750000D01*
X162320450Y-98544970D01*
X162260905Y-98347749D01*
X162164188Y-98165849D01*
X162063931Y-98042922D01*
X162037876Y-98010975D01*
X162037873Y-98010972D01*
X162033981Y-98006200D01*
X162022568Y-97996758D01*
X161879995Y-97878811D01*
X161879991Y-97878809D01*
X161875245Y-97874882D01*
X161718401Y-97790077D01*
X161699444Y-97779827D01*
X161694025Y-97776897D01*
X161497224Y-97715977D01*
X161491099Y-97715333D01*
X161491098Y-97715333D01*
X161298468Y-97695087D01*
X161298466Y-97695087D01*
X161292339Y-97694443D01*
X161205499Y-97702346D01*
X161093312Y-97712555D01*
X161093309Y-97712556D01*
X161087173Y-97713114D01*
X160889542Y-97771280D01*
X160766334Y-97835692D01*
X160696699Y-97849527D01*
X160630639Y-97823517D01*
X160589126Y-97765922D01*
X160581959Y-97724031D01*
X160581959Y-96775343D01*
X160601961Y-96707222D01*
X160655617Y-96660729D01*
X160725891Y-96650625D01*
X160769429Y-96665355D01*
X160856988Y-96714290D01*
X160862368Y-96717297D01*
X160957208Y-96748113D01*
X161052441Y-96779056D01*
X161052445Y-96779057D01*
X161058299Y-96780959D01*
X161262864Y-96805351D01*
X161268999Y-96804879D01*
X161269001Y-96804879D01*
X161325009Y-96800569D01*
X161468270Y-96789546D01*
X161474200Y-96787890D01*
X161474202Y-96787890D01*
X161602867Y-96751966D01*
X161666695Y-96734145D01*
X161672184Y-96731372D01*
X161672190Y-96731370D01*
X161832036Y-96650625D01*
X161850580Y-96641258D01*
X162012921Y-96514424D01*
X162102743Y-96410364D01*
X162143510Y-96363134D01*
X162143510Y-96363133D01*
X162147534Y-96358472D01*
X162249293Y-96179344D01*
X162314321Y-95983863D01*
X162340141Y-95779474D01*
X162340553Y-95750000D01*
X162320450Y-95544970D01*
X162260905Y-95347749D01*
X162164188Y-95165849D01*
X162049200Y-95024860D01*
X162045421Y-95020226D01*
X163802789Y-95020226D01*
X163838877Y-95285395D01*
X163913762Y-95542317D01*
X164025801Y-95785348D01*
X164058042Y-95834524D01*
X164169966Y-96005236D01*
X164169970Y-96005241D01*
X164172532Y-96009149D01*
X164209021Y-96050031D01*
X164346115Y-96203632D01*
X164350730Y-96208803D01*
X164425165Y-96270710D01*
X164530688Y-96358472D01*
X164556482Y-96379925D01*
X164560475Y-96382348D01*
X164781276Y-96516334D01*
X164781280Y-96516336D01*
X164785268Y-96518756D01*
X164789576Y-96520563D01*
X164789577Y-96520563D01*
X165027746Y-96620436D01*
X165027751Y-96620438D01*
X165032061Y-96622245D01*
X165036593Y-96623396D01*
X165036596Y-96623397D01*
X165286903Y-96686967D01*
X165286906Y-96686968D01*
X165291440Y-96688119D01*
X165296096Y-96688588D01*
X165296097Y-96688588D01*
X165510572Y-96710184D01*
X165510573Y-96710184D01*
X165513711Y-96710500D01*
X165672914Y-96710500D01*
X165675237Y-96710327D01*
X165675247Y-96710327D01*
X165867182Y-96696064D01*
X165867186Y-96696063D01*
X165871847Y-96695717D01*
X165876411Y-96694684D01*
X165876413Y-96694684D01*
X166071123Y-96650625D01*
X166132861Y-96636655D01*
X166166954Y-96623397D01*
X166377926Y-96541355D01*
X166377928Y-96541354D01*
X166382279Y-96539662D01*
X166423095Y-96516334D01*
X166511358Y-96465887D01*
X166614620Y-96406868D01*
X166824781Y-96241190D01*
X167008145Y-96046269D01*
X167160684Y-95826385D01*
X167183818Y-95779474D01*
X167276981Y-95590559D01*
X167276982Y-95590556D01*
X167279046Y-95586371D01*
X167290336Y-95551103D01*
X167359209Y-95335942D01*
X167360632Y-95331497D01*
X167403648Y-95067364D01*
X167407151Y-94799774D01*
X167371063Y-94534605D01*
X167296178Y-94277683D01*
X167280076Y-94242754D01*
X167262396Y-94204404D01*
X167184139Y-94034652D01*
X167081036Y-93877394D01*
X167039974Y-93814764D01*
X167039970Y-93814759D01*
X167037408Y-93810851D01*
X166907024Y-93664768D01*
X166862327Y-93614689D01*
X166862325Y-93614687D01*
X166859210Y-93611197D01*
X166686125Y-93467244D01*
X166657052Y-93443064D01*
X166657051Y-93443063D01*
X166653458Y-93440075D01*
X166605236Y-93410813D01*
X166428664Y-93303666D01*
X166428660Y-93303664D01*
X166424672Y-93301244D01*
X166399444Y-93290665D01*
X166182194Y-93199564D01*
X166182189Y-93199562D01*
X166177879Y-93197755D01*
X166173347Y-93196604D01*
X166173344Y-93196603D01*
X165923037Y-93133033D01*
X165923034Y-93133032D01*
X165918500Y-93131881D01*
X165913844Y-93131412D01*
X165913843Y-93131412D01*
X165699368Y-93109816D01*
X165699367Y-93109816D01*
X165696229Y-93109500D01*
X165537026Y-93109500D01*
X165534703Y-93109673D01*
X165534693Y-93109673D01*
X165342758Y-93123936D01*
X165342754Y-93123937D01*
X165338093Y-93124283D01*
X165333529Y-93125316D01*
X165333527Y-93125316D01*
X165194205Y-93156842D01*
X165077079Y-93183345D01*
X165072727Y-93185037D01*
X165072725Y-93185038D01*
X164832014Y-93278645D01*
X164832012Y-93278646D01*
X164827661Y-93280338D01*
X164823607Y-93282655D01*
X164823605Y-93282656D01*
X164774778Y-93310563D01*
X164595320Y-93413132D01*
X164385159Y-93578810D01*
X164201795Y-93773731D01*
X164049256Y-93993615D01*
X164047190Y-93997804D01*
X164047189Y-93997806D01*
X164005719Y-94081900D01*
X163930894Y-94233629D01*
X163929472Y-94238072D01*
X163929471Y-94238074D01*
X163920302Y-94266717D01*
X163849308Y-94488503D01*
X163841800Y-94534605D01*
X163810951Y-94724031D01*
X163806292Y-94752636D01*
X163804798Y-94866726D01*
X163802973Y-95006200D01*
X163802789Y-95020226D01*
X162045421Y-95020226D01*
X162037876Y-95010975D01*
X162037873Y-95010972D01*
X162033981Y-95006200D01*
X162026945Y-95000379D01*
X161879995Y-94878811D01*
X161879991Y-94878809D01*
X161875245Y-94874882D01*
X161694025Y-94776897D01*
X161497224Y-94715977D01*
X161491099Y-94715333D01*
X161491098Y-94715333D01*
X161298468Y-94695087D01*
X161298466Y-94695087D01*
X161292339Y-94694443D01*
X161205499Y-94702346D01*
X161093312Y-94712555D01*
X161093309Y-94712556D01*
X161087173Y-94713114D01*
X160889542Y-94771280D01*
X160766334Y-94835692D01*
X160696699Y-94849527D01*
X160630639Y-94823517D01*
X160589126Y-94765922D01*
X160581959Y-94724031D01*
X160581959Y-93923275D01*
X160601961Y-93855154D01*
X160655617Y-93808661D01*
X160723096Y-93798188D01*
X160735530Y-93799693D01*
X160738438Y-93800045D01*
X160738440Y-93800045D01*
X160742199Y-93800500D01*
X161284612Y-93800500D01*
X161827740Y-93800499D01*
X161831498Y-93800044D01*
X161831503Y-93800044D01*
X161909487Y-93790608D01*
X161909490Y-93790607D01*
X161917517Y-93789636D01*
X162057753Y-93734112D01*
X162177892Y-93642922D01*
X162269082Y-93522783D01*
X162324606Y-93382547D01*
X162335470Y-93292771D01*
X162335469Y-92207230D01*
X162331981Y-92178402D01*
X162325578Y-92125483D01*
X162325577Y-92125480D01*
X162324606Y-92117453D01*
X162269082Y-91977217D01*
X162177892Y-91857078D01*
X162057753Y-91765888D01*
X161917517Y-91710364D01*
X161909479Y-91709391D01*
X161909478Y-91709391D01*
X161877907Y-91705571D01*
X161827741Y-91699500D01*
X161285328Y-91699500D01*
X160742200Y-91699501D01*
X160738442Y-91699956D01*
X160738437Y-91699956D01*
X160660453Y-91709392D01*
X160660450Y-91709393D01*
X160652423Y-91710364D01*
X160512187Y-91765888D01*
X160392048Y-91857078D01*
X160377245Y-91876581D01*
X160360086Y-91899187D01*
X160302969Y-91941354D01*
X160232121Y-91945947D01*
X160170628Y-91912103D01*
X159129882Y-90871358D01*
X159126229Y-90867549D01*
X159090015Y-90828167D01*
X159084201Y-90821844D01*
X159047198Y-90798901D01*
X159037448Y-90792200D01*
X159002783Y-90765888D01*
X158988804Y-90760354D01*
X158968801Y-90750293D01*
X158956014Y-90742365D01*
X158947763Y-90739968D01*
X158947761Y-90739967D01*
X158914228Y-90730225D01*
X158902995Y-90726379D01*
X158882353Y-90718206D01*
X158862547Y-90710364D01*
X158854006Y-90709466D01*
X158854005Y-90709466D01*
X158847592Y-90708792D01*
X158825617Y-90704480D01*
X158811175Y-90700285D01*
X158803692Y-90699735D01*
X158802792Y-90699669D01*
X158802781Y-90699669D01*
X158800485Y-90699500D01*
X158765783Y-90699500D01*
X158752613Y-90698810D01*
X158742384Y-90697735D01*
X158712546Y-90694599D01*
X158704081Y-90696031D01*
X158704072Y-90696031D01*
X158694000Y-90697735D01*
X158672987Y-90699500D01*
X144429021Y-90699500D01*
X144423745Y-90699389D01*
X144419338Y-90699204D01*
X144361734Y-90696790D01*
X144353369Y-90698752D01*
X144319366Y-90706727D01*
X144307695Y-90708890D01*
X144296935Y-90710364D01*
X144264596Y-90714794D01*
X144256712Y-90718206D01*
X144256711Y-90718206D01*
X144250798Y-90720765D01*
X144229529Y-90727799D01*
X144214892Y-90731232D01*
X144207367Y-90735369D01*
X144207364Y-90735370D01*
X144176760Y-90752195D01*
X144166115Y-90757411D01*
X144126173Y-90774695D01*
X144114487Y-90784158D01*
X144095903Y-90796645D01*
X144082720Y-90803893D01*
X144074606Y-90810897D01*
X144050070Y-90835433D01*
X144040269Y-90844258D01*
X144015636Y-90864206D01*
X144008958Y-90869614D01*
X144003984Y-90876613D01*
X144003983Y-90876614D01*
X143998062Y-90884946D01*
X143984452Y-90901051D01*
X143712229Y-91173275D01*
X143456251Y-91429253D01*
X143393938Y-91463278D01*
X143367155Y-91466158D01*
X142629598Y-91466158D01*
X142539823Y-91477022D01*
X142532295Y-91480002D01*
X142532293Y-91480003D01*
X142471328Y-91504141D01*
X142399587Y-91532545D01*
X142279448Y-91623736D01*
X142188257Y-91743875D01*
X142177486Y-91771080D01*
X142136675Y-91874158D01*
X142132734Y-91884111D01*
X142121870Y-91973886D01*
X142121870Y-92040959D01*
X142101868Y-92109080D01*
X142048212Y-92155573D01*
X141977938Y-92165677D01*
X141913358Y-92136183D01*
X141876037Y-92079895D01*
X141851591Y-92004659D01*
X141849549Y-91998374D01*
X141837599Y-91977675D01*
X141758206Y-91840163D01*
X141754903Y-91834442D01*
X141744208Y-91822564D01*
X141632656Y-91698673D01*
X141632654Y-91698672D01*
X141628241Y-91693770D01*
X141531847Y-91623736D01*
X141480442Y-91586388D01*
X141480441Y-91586387D01*
X141475100Y-91582507D01*
X141302173Y-91505514D01*
X141204158Y-91484680D01*
X141123473Y-91467530D01*
X141123469Y-91467530D01*
X141117016Y-91466158D01*
X140927724Y-91466158D01*
X140921271Y-91467530D01*
X140921267Y-91467530D01*
X140840582Y-91484680D01*
X140742567Y-91505514D01*
X140569640Y-91582507D01*
X140564299Y-91586387D01*
X140564298Y-91586388D01*
X140512893Y-91623736D01*
X140416499Y-91693770D01*
X140412086Y-91698672D01*
X140412084Y-91698673D01*
X140300532Y-91822564D01*
X140289837Y-91834442D01*
X140286534Y-91840163D01*
X140207142Y-91977675D01*
X140195191Y-91998374D01*
X140136696Y-92178402D01*
X140136006Y-92184963D01*
X140136006Y-92184965D01*
X140133666Y-92207230D01*
X140121870Y-92319466D01*
X140121870Y-92963850D01*
X140136696Y-93104914D01*
X140195191Y-93284942D01*
X140198494Y-93290664D01*
X140198495Y-93290665D01*
X140269201Y-93413132D01*
X140289837Y-93448874D01*
X140294255Y-93453781D01*
X140294256Y-93453782D01*
X140399550Y-93570722D01*
X140416499Y-93589546D01*
X140421838Y-93593425D01*
X140561583Y-93694955D01*
X140569640Y-93700809D01*
X140742567Y-93777802D01*
X140838476Y-93798188D01*
X140921267Y-93815786D01*
X140921271Y-93815786D01*
X140927724Y-93817158D01*
X141117016Y-93817158D01*
X141121185Y-93816272D01*
X141190171Y-93828890D01*
X141242017Y-93877394D01*
X141259500Y-93941426D01*
X141259500Y-102109784D01*
X141239498Y-102177905D01*
X141222596Y-102198879D01*
X140838881Y-102582595D01*
X140776568Y-102616620D01*
X140749785Y-102619500D01*
X139504993Y-102619500D01*
X139499717Y-102619389D01*
X139495310Y-102619204D01*
X139437706Y-102616790D01*
X139429341Y-102618752D01*
X139395338Y-102626727D01*
X139383667Y-102628890D01*
X139372907Y-102630364D01*
X139340568Y-102634794D01*
X139332684Y-102638206D01*
X139332683Y-102638206D01*
X139326770Y-102640765D01*
X139305501Y-102647799D01*
X139290864Y-102651232D01*
X139283339Y-102655369D01*
X139283336Y-102655370D01*
X139252732Y-102672195D01*
X139242087Y-102677411D01*
X139202145Y-102694695D01*
X139190459Y-102704158D01*
X139171875Y-102716645D01*
X139158692Y-102723893D01*
X139150578Y-102730897D01*
X139126042Y-102755433D01*
X139116241Y-102764258D01*
X139091608Y-102784206D01*
X139084930Y-102789614D01*
X139079957Y-102796612D01*
X139079952Y-102796617D01*
X139074032Y-102804948D01*
X139060421Y-102821054D01*
X130258881Y-111622595D01*
X130196569Y-111656621D01*
X130169786Y-111659500D01*
X128574993Y-111659500D01*
X128569717Y-111659389D01*
X128565310Y-111659204D01*
X128507706Y-111656790D01*
X128499341Y-111658752D01*
X128465338Y-111666727D01*
X128453667Y-111668890D01*
X128438771Y-111670931D01*
X128410568Y-111674794D01*
X128402684Y-111678206D01*
X128402683Y-111678206D01*
X128396770Y-111680765D01*
X128375501Y-111687799D01*
X128360864Y-111691232D01*
X128353339Y-111695369D01*
X128353336Y-111695370D01*
X128322732Y-111712195D01*
X128312087Y-111717411D01*
X128272145Y-111734695D01*
X128260459Y-111744158D01*
X128241875Y-111756645D01*
X128228692Y-111763893D01*
X128220578Y-111770897D01*
X128196042Y-111795433D01*
X128186241Y-111804258D01*
X128161608Y-111824206D01*
X128154930Y-111829614D01*
X128149957Y-111836612D01*
X128149952Y-111836617D01*
X128144032Y-111844948D01*
X128130421Y-111861054D01*
X127628693Y-112362782D01*
X127569013Y-112396205D01*
X127519477Y-112408098D01*
X127434032Y-112428612D01*
X127427288Y-112432093D01*
X127427285Y-112432094D01*
X127298886Y-112498366D01*
X127283369Y-112506375D01*
X127155604Y-112617831D01*
X127151237Y-112624045D01*
X127087079Y-112715333D01*
X127058113Y-112756547D01*
X126996524Y-112914513D01*
X126995532Y-112922046D01*
X126995532Y-112922047D01*
X126977743Y-113057174D01*
X126974394Y-113082611D01*
X126992999Y-113251135D01*
X127051266Y-113410356D01*
X127055502Y-113416659D01*
X127055502Y-113416660D01*
X127064446Y-113429970D01*
X127145830Y-113551083D01*
X127151442Y-113556190D01*
X127151445Y-113556193D01*
X127265612Y-113660077D01*
X127265616Y-113660080D01*
X127271233Y-113665191D01*
X127277906Y-113668814D01*
X127277910Y-113668817D01*
X127413558Y-113742467D01*
X127413560Y-113742468D01*
X127420235Y-113746092D01*
X127427584Y-113748020D01*
X127576883Y-113787188D01*
X127576885Y-113787188D01*
X127584233Y-113789116D01*
X127670609Y-113790473D01*
X127746161Y-113791660D01*
X127746164Y-113791660D01*
X127753760Y-113791779D01*
X127761165Y-113790083D01*
X127761166Y-113790083D01*
X127836558Y-113772816D01*
X127919029Y-113753928D01*
X128070498Y-113677747D01*
X128169379Y-113593294D01*
X128193651Y-113572564D01*
X128193652Y-113572563D01*
X128199423Y-113567634D01*
X128298361Y-113429947D01*
X128306237Y-113410356D01*
X128358766Y-113279687D01*
X128358767Y-113279685D01*
X128361601Y-113272634D01*
X128369901Y-113214316D01*
X128399300Y-113149696D01*
X128405548Y-113142976D01*
X128596891Y-112951633D01*
X128659203Y-112917607D01*
X128730018Y-112922672D01*
X128786854Y-112965219D01*
X128811665Y-113031739D01*
X128810908Y-113057171D01*
X128808508Y-113075403D01*
X128795699Y-113172701D01*
X128794394Y-113182611D01*
X128812999Y-113351135D01*
X128839638Y-113423930D01*
X128860118Y-113479892D01*
X128871266Y-113510356D01*
X128965830Y-113651083D01*
X128971442Y-113656190D01*
X128971445Y-113656193D01*
X129085612Y-113760077D01*
X129085616Y-113760080D01*
X129091233Y-113765191D01*
X129097906Y-113768814D01*
X129097910Y-113768817D01*
X129233558Y-113842467D01*
X129233560Y-113842468D01*
X129240235Y-113846092D01*
X129247584Y-113848020D01*
X129396883Y-113887188D01*
X129396885Y-113887188D01*
X129404233Y-113889116D01*
X129490609Y-113890473D01*
X129566161Y-113891660D01*
X129566164Y-113891660D01*
X129573760Y-113891779D01*
X129581165Y-113890083D01*
X129581166Y-113890083D01*
X129641586Y-113876245D01*
X129739029Y-113853928D01*
X129890498Y-113777747D01*
X129898763Y-113770688D01*
X129900948Y-113769709D01*
X129902602Y-113768610D01*
X129902785Y-113768886D01*
X129963553Y-113741658D01*
X129980593Y-113740500D01*
X130520645Y-113740500D01*
X130525922Y-113740611D01*
X130587932Y-113743210D01*
X130599486Y-113740500D01*
X130630300Y-113733273D01*
X130641971Y-113731110D01*
X130661396Y-113728449D01*
X130685070Y-113725206D01*
X130698868Y-113719235D01*
X130720137Y-113712201D01*
X130726413Y-113710729D01*
X130734774Y-113708768D01*
X130742299Y-113704631D01*
X130742302Y-113704630D01*
X130772906Y-113687805D01*
X130783551Y-113682589D01*
X130823493Y-113665305D01*
X130835179Y-113655842D01*
X130853764Y-113643354D01*
X130861156Y-113639290D01*
X130866946Y-113636107D01*
X130875060Y-113629103D01*
X130899596Y-113604567D01*
X130909397Y-113595742D01*
X130934030Y-113575794D01*
X130934031Y-113575793D01*
X130940708Y-113570386D01*
X130945681Y-113563388D01*
X130945686Y-113563383D01*
X130951606Y-113555052D01*
X130965217Y-113538946D01*
X132460930Y-112043233D01*
X134094906Y-112043233D01*
X134121102Y-112317792D01*
X134122187Y-112322226D01*
X134122188Y-112322232D01*
X134185571Y-112581256D01*
X134186657Y-112585694D01*
X134290199Y-112841326D01*
X134292500Y-112845256D01*
X134292503Y-112845262D01*
X134427255Y-113075403D01*
X134427260Y-113075410D01*
X134429558Y-113079335D01*
X134432405Y-113082895D01*
X134550028Y-113229974D01*
X134601816Y-113294732D01*
X134605157Y-113297853D01*
X134746563Y-113429947D01*
X134803364Y-113483008D01*
X135029979Y-113640216D01*
X135034055Y-113642244D01*
X135034057Y-113642245D01*
X135272827Y-113761032D01*
X135272830Y-113761033D01*
X135276914Y-113763065D01*
X135538998Y-113848980D01*
X135543489Y-113849760D01*
X135543490Y-113849760D01*
X135806957Y-113895506D01*
X135806965Y-113895507D01*
X135810738Y-113896162D01*
X135814575Y-113896353D01*
X135896305Y-113900422D01*
X135896313Y-113900422D01*
X135897876Y-113900500D01*
X136070070Y-113900500D01*
X136072338Y-113900335D01*
X136072350Y-113900335D01*
X136213641Y-113890083D01*
X136275083Y-113885625D01*
X136279538Y-113884641D01*
X136279541Y-113884641D01*
X136539947Y-113827148D01*
X136539950Y-113827147D01*
X136544403Y-113826164D01*
X136802319Y-113728449D01*
X136814301Y-113721794D01*
X137039435Y-113596743D01*
X137039436Y-113596742D01*
X137043428Y-113594525D01*
X137201705Y-113473731D01*
X137259046Y-113429970D01*
X137259047Y-113429969D01*
X137262678Y-113427198D01*
X137286116Y-113403222D01*
X137452283Y-113233242D01*
X137452287Y-113233237D01*
X137455477Y-113229974D01*
X137470339Y-113209556D01*
X137615100Y-113010676D01*
X137615102Y-113010673D01*
X137617787Y-113006984D01*
X137746206Y-112762899D01*
X137838045Y-112502832D01*
X137874516Y-112317792D01*
X137890499Y-112236704D01*
X137890500Y-112236698D01*
X137891380Y-112232232D01*
X137891607Y-112227676D01*
X137904867Y-111961336D01*
X137904867Y-111961330D01*
X137905094Y-111956767D01*
X137878898Y-111682208D01*
X137876799Y-111673628D01*
X137814429Y-111418744D01*
X137813343Y-111414306D01*
X137709801Y-111158674D01*
X137707500Y-111154744D01*
X137707497Y-111154738D01*
X137572745Y-110924597D01*
X137572740Y-110924590D01*
X137570442Y-110920665D01*
X137551766Y-110897312D01*
X137401036Y-110708834D01*
X137401035Y-110708833D01*
X137398184Y-110705268D01*
X137279484Y-110594384D01*
X137199972Y-110520108D01*
X137199969Y-110520106D01*
X137196636Y-110516992D01*
X136970021Y-110359784D01*
X136965943Y-110357755D01*
X136727173Y-110238968D01*
X136727170Y-110238967D01*
X136723086Y-110236935D01*
X136461002Y-110151020D01*
X136456510Y-110150240D01*
X136193043Y-110104494D01*
X136193035Y-110104493D01*
X136189262Y-110103838D01*
X136179029Y-110103329D01*
X136103695Y-110099578D01*
X136103687Y-110099578D01*
X136102124Y-110099500D01*
X135929930Y-110099500D01*
X135927662Y-110099665D01*
X135927650Y-110099665D01*
X135793397Y-110109406D01*
X135724917Y-110114375D01*
X135720462Y-110115359D01*
X135720459Y-110115359D01*
X135460053Y-110172852D01*
X135460050Y-110172853D01*
X135455597Y-110173836D01*
X135197681Y-110271551D01*
X135193694Y-110273765D01*
X135193693Y-110273766D01*
X135042484Y-110357755D01*
X134956572Y-110405475D01*
X134952940Y-110408247D01*
X134773791Y-110544970D01*
X134737322Y-110572802D01*
X134734129Y-110576068D01*
X134734127Y-110576070D01*
X134547717Y-110766758D01*
X134547713Y-110766763D01*
X134544523Y-110770026D01*
X134541836Y-110773718D01*
X134541834Y-110773720D01*
X134420400Y-110940553D01*
X134382213Y-110993016D01*
X134253794Y-111237101D01*
X134161955Y-111497168D01*
X134154042Y-111537317D01*
X134111880Y-111751230D01*
X134108620Y-111767768D01*
X134108393Y-111772322D01*
X134108393Y-111772324D01*
X134099211Y-111956767D01*
X134094906Y-112043233D01*
X132460930Y-112043233D01*
X135414463Y-109089700D01*
X139866757Y-104637405D01*
X139929069Y-104603379D01*
X139955852Y-104600500D01*
X144747647Y-104600500D01*
X144815768Y-104620502D01*
X144845971Y-104650094D01*
X144846628Y-104649527D01*
X144851597Y-104655284D01*
X144855830Y-104661583D01*
X144861442Y-104666690D01*
X144861445Y-104666693D01*
X144975612Y-104770577D01*
X144975616Y-104770580D01*
X144981233Y-104775691D01*
X144987906Y-104779314D01*
X144987910Y-104779317D01*
X145123558Y-104852967D01*
X145123560Y-104852968D01*
X145130235Y-104856592D01*
X145137584Y-104858520D01*
X145286883Y-104897688D01*
X145286885Y-104897688D01*
X145294233Y-104899616D01*
X145380609Y-104900973D01*
X145456161Y-104902160D01*
X145456164Y-104902160D01*
X145463760Y-104902279D01*
X145471165Y-104900583D01*
X145471166Y-104900583D01*
X145575140Y-104876770D01*
X145629029Y-104864428D01*
X145780498Y-104788247D01*
X145873644Y-104708692D01*
X145903651Y-104683064D01*
X145903652Y-104683063D01*
X145909423Y-104678134D01*
X146008361Y-104540447D01*
X146032525Y-104480338D01*
X146068766Y-104390187D01*
X146068767Y-104390185D01*
X146071601Y-104383134D01*
X146082056Y-104309673D01*
X146094909Y-104219362D01*
X146094909Y-104219359D01*
X146095490Y-104215278D01*
X146095645Y-104200500D01*
X146075276Y-104032180D01*
X146021943Y-103891038D01*
X146016575Y-103820244D01*
X146050333Y-103757787D01*
X146112499Y-103723495D01*
X146139809Y-103720500D01*
X148589785Y-103720500D01*
X148657906Y-103740502D01*
X148678880Y-103757405D01*
X149210136Y-104288661D01*
X149244162Y-104350973D01*
X149239097Y-104421788D01*
X149196550Y-104478624D01*
X149130030Y-104503435D01*
X149072315Y-104493953D01*
X148847224Y-104399564D01*
X148847219Y-104399562D01*
X148842909Y-104397755D01*
X148838377Y-104396604D01*
X148838374Y-104396603D01*
X148588067Y-104333033D01*
X148588064Y-104333032D01*
X148583530Y-104331881D01*
X148578874Y-104331412D01*
X148578873Y-104331412D01*
X148364398Y-104309816D01*
X148364397Y-104309816D01*
X148361259Y-104309500D01*
X148202056Y-104309500D01*
X148199733Y-104309673D01*
X148199723Y-104309673D01*
X148007788Y-104323936D01*
X148007784Y-104323937D01*
X148003123Y-104324283D01*
X147998559Y-104325316D01*
X147998557Y-104325316D01*
X147899419Y-104347749D01*
X147742109Y-104383345D01*
X147737757Y-104385037D01*
X147737755Y-104385038D01*
X147497044Y-104478645D01*
X147497042Y-104478646D01*
X147492691Y-104480338D01*
X147488637Y-104482655D01*
X147488635Y-104482656D01*
X147415145Y-104524659D01*
X147260350Y-104613132D01*
X147050189Y-104778810D01*
X146866825Y-104973731D01*
X146714286Y-105193615D01*
X146712220Y-105197804D01*
X146712219Y-105197806D01*
X146634298Y-105355815D01*
X146595924Y-105433629D01*
X146594502Y-105438072D01*
X146594501Y-105438074D01*
X146571552Y-105509766D01*
X146514338Y-105688503D01*
X146471322Y-105952636D01*
X146467819Y-106220226D01*
X146503907Y-106485395D01*
X146578792Y-106742317D01*
X146690831Y-106985348D01*
X146723072Y-107034524D01*
X146834996Y-107205236D01*
X146835000Y-107205241D01*
X146837562Y-107209149D01*
X147015760Y-107408803D01*
X147221512Y-107579925D01*
X147225505Y-107582348D01*
X147446306Y-107716334D01*
X147446310Y-107716336D01*
X147450298Y-107718756D01*
X147454606Y-107720563D01*
X147454607Y-107720563D01*
X147692776Y-107820436D01*
X147692781Y-107820438D01*
X147697091Y-107822245D01*
X147701623Y-107823396D01*
X147701626Y-107823397D01*
X147951933Y-107886967D01*
X147951936Y-107886968D01*
X147956470Y-107888119D01*
X147961126Y-107888588D01*
X147961127Y-107888588D01*
X148175602Y-107910184D01*
X148175603Y-107910184D01*
X148178741Y-107910500D01*
X148337944Y-107910500D01*
X148340267Y-107910327D01*
X148340277Y-107910327D01*
X148532212Y-107896064D01*
X148532216Y-107896063D01*
X148536877Y-107895717D01*
X148541441Y-107894684D01*
X148541443Y-107894684D01*
X148680765Y-107863158D01*
X148797891Y-107836655D01*
X148831984Y-107823397D01*
X149042956Y-107741355D01*
X149042958Y-107741354D01*
X149047309Y-107739662D01*
X149088125Y-107716334D01*
X149223639Y-107638881D01*
X149279650Y-107606868D01*
X149489811Y-107441190D01*
X149673175Y-107246269D01*
X149825714Y-107026385D01*
X149827781Y-107022194D01*
X149942009Y-106790563D01*
X149942010Y-106790560D01*
X149944076Y-106786371D01*
X149945500Y-106781923D01*
X149946676Y-106779012D01*
X149990741Y-106723345D01*
X150057907Y-106700339D01*
X150126849Y-106717298D01*
X150175677Y-106768837D01*
X150189500Y-106826215D01*
X150189500Y-107815007D01*
X150189389Y-107820283D01*
X150189204Y-107824690D01*
X150186790Y-107882294D01*
X150188752Y-107890659D01*
X150196727Y-107924662D01*
X150198890Y-107936333D01*
X150204794Y-107979432D01*
X150208206Y-107987316D01*
X150208206Y-107987317D01*
X150210765Y-107993230D01*
X150217799Y-108014499D01*
X150221232Y-108029136D01*
X150225369Y-108036661D01*
X150225370Y-108036664D01*
X150242195Y-108067268D01*
X150247411Y-108077913D01*
X150264695Y-108117855D01*
X150274158Y-108129541D01*
X150286645Y-108148125D01*
X150293893Y-108161308D01*
X150300897Y-108169422D01*
X150325433Y-108193958D01*
X150334258Y-108203759D01*
X150354206Y-108228392D01*
X150359614Y-108235070D01*
X150366612Y-108240043D01*
X150366617Y-108240048D01*
X150374948Y-108245968D01*
X150391054Y-108259579D01*
X151613335Y-109481860D01*
X151647361Y-109544172D01*
X151642296Y-109614987D01*
X151599749Y-109671823D01*
X151564858Y-109684837D01*
X151559946Y-109688561D01*
X151549956Y-109690395D01*
X151533229Y-109696634D01*
X151521873Y-109696669D01*
X151521873Y-109696777D01*
X151521520Y-109696777D01*
X151518537Y-109696679D01*
X151516025Y-109696687D01*
X151506978Y-109696094D01*
X151500000Y-109694864D01*
X151484563Y-109697586D01*
X151462683Y-109699500D01*
X142537317Y-109699500D01*
X142515437Y-109697586D01*
X142500000Y-109694864D01*
X142493022Y-109696094D01*
X142482587Y-109696778D01*
X142268598Y-109710804D01*
X142268594Y-109710805D01*
X142264483Y-109711074D01*
X142260443Y-109711878D01*
X142260440Y-109711878D01*
X142037046Y-109756313D01*
X142037040Y-109756315D01*
X142032996Y-109757119D01*
X142029090Y-109758445D01*
X142029086Y-109758446D01*
X141909086Y-109799181D01*
X141809500Y-109832986D01*
X141805809Y-109834806D01*
X141805807Y-109834807D01*
X141707360Y-109883356D01*
X141597819Y-109937376D01*
X141594386Y-109939670D01*
X141594384Y-109939671D01*
X141543901Y-109973403D01*
X141401573Y-110068503D01*
X141398479Y-110071217D01*
X141398473Y-110071221D01*
X141284367Y-110171290D01*
X141224123Y-110224123D01*
X141221414Y-110227212D01*
X141071221Y-110398473D01*
X141071217Y-110398479D01*
X141068503Y-110401573D01*
X140937376Y-110597819D01*
X140935550Y-110601522D01*
X140849532Y-110775949D01*
X140832986Y-110809500D01*
X140831662Y-110813401D01*
X140769550Y-110996377D01*
X140757119Y-111032996D01*
X140756315Y-111037040D01*
X140756313Y-111037046D01*
X140715666Y-111241397D01*
X140711074Y-111264483D01*
X140696094Y-111493022D01*
X140694864Y-111500000D01*
X140696778Y-111510853D01*
X140696778Y-111515793D01*
X140698055Y-111534937D01*
X140692903Y-111659500D01*
X140681956Y-111924165D01*
X140681096Y-111934543D01*
X140668118Y-112038664D01*
X140632772Y-112322232D01*
X140629231Y-112350638D01*
X140627518Y-112360902D01*
X140613693Y-112426839D01*
X140541467Y-112771297D01*
X140538911Y-112781392D01*
X140488228Y-112951633D01*
X140419464Y-113182611D01*
X140419263Y-113183285D01*
X140415884Y-113193127D01*
X140267827Y-113572564D01*
X140263459Y-113583757D01*
X140259280Y-113593286D01*
X140089512Y-113940553D01*
X140075116Y-113970000D01*
X140070160Y-113979159D01*
X139855513Y-114339382D01*
X139849817Y-114348100D01*
X139606166Y-114689355D01*
X139599770Y-114697573D01*
X139328755Y-115017560D01*
X139321701Y-115025221D01*
X139025221Y-115321701D01*
X139017560Y-115328755D01*
X138697573Y-115599770D01*
X138689355Y-115606166D01*
X138348100Y-115849817D01*
X138339382Y-115855513D01*
X137979159Y-116070160D01*
X137970004Y-116075114D01*
X137593286Y-116259280D01*
X137583765Y-116263455D01*
X137193127Y-116415884D01*
X137183294Y-116419260D01*
X137011464Y-116470416D01*
X136781392Y-116538911D01*
X136771297Y-116541467D01*
X136641123Y-116568762D01*
X136360902Y-116627518D01*
X136350646Y-116629230D01*
X136142591Y-116655163D01*
X135934543Y-116681096D01*
X135924165Y-116681956D01*
X135699517Y-116691248D01*
X135534937Y-116698055D01*
X135515795Y-116696778D01*
X135510856Y-116696778D01*
X135500000Y-116694864D01*
X135489145Y-116696778D01*
X135484563Y-116697586D01*
X135462683Y-116699500D01*
X127037317Y-116699500D01*
X127015437Y-116697586D01*
X127010855Y-116696778D01*
X127000000Y-116694864D01*
X126989144Y-116696778D01*
X126978122Y-116696778D01*
X126978122Y-116696221D01*
X126965848Y-116696812D01*
X126822241Y-116685510D01*
X126802714Y-116682417D01*
X126800794Y-116681956D01*
X126638970Y-116643105D01*
X126620176Y-116636999D01*
X126464595Y-116572555D01*
X126446990Y-116563585D01*
X126303401Y-116475594D01*
X126287408Y-116463973D01*
X126159366Y-116354615D01*
X126145385Y-116340634D01*
X126036027Y-116212592D01*
X126024405Y-116196597D01*
X125969419Y-116106868D01*
X125936415Y-116053010D01*
X125927445Y-116035405D01*
X125863001Y-115879824D01*
X125856893Y-115861025D01*
X125854203Y-115849817D01*
X125817583Y-115697285D01*
X125814490Y-115677758D01*
X125813172Y-115661007D01*
X125803188Y-115534152D01*
X125803779Y-115521878D01*
X125803222Y-115521878D01*
X125803222Y-115510856D01*
X125805136Y-115500000D01*
X125802414Y-115484563D01*
X125800500Y-115462683D01*
X125800500Y-110263844D01*
X128072470Y-110263844D01*
X128073842Y-110270297D01*
X128073842Y-110270301D01*
X128081247Y-110305136D01*
X128111826Y-110449001D01*
X128188819Y-110621928D01*
X128300082Y-110775069D01*
X128304984Y-110779482D01*
X128304985Y-110779484D01*
X128322164Y-110794952D01*
X128440754Y-110901731D01*
X128446475Y-110905034D01*
X128598865Y-110993016D01*
X128604686Y-110996377D01*
X128784714Y-111054872D01*
X128791275Y-111055562D01*
X128791277Y-111055562D01*
X128844933Y-111061201D01*
X128925778Y-111069698D01*
X129570162Y-111069698D01*
X129651007Y-111061201D01*
X129704663Y-111055562D01*
X129704665Y-111055562D01*
X129711226Y-111054872D01*
X129891254Y-110996377D01*
X129897076Y-110993016D01*
X130049465Y-110905034D01*
X130055186Y-110901731D01*
X130173776Y-110794952D01*
X130190955Y-110779484D01*
X130190956Y-110779482D01*
X130195858Y-110775069D01*
X130307121Y-110621928D01*
X130384114Y-110449001D01*
X130414693Y-110305136D01*
X130422098Y-110270301D01*
X130422098Y-110270297D01*
X130423470Y-110263844D01*
X130423470Y-110074552D01*
X130421698Y-110066211D01*
X130394800Y-109939671D01*
X130384114Y-109889395D01*
X130307121Y-109716468D01*
X130293403Y-109697586D01*
X130199737Y-109568666D01*
X130195858Y-109563327D01*
X130174585Y-109544172D01*
X130060094Y-109441084D01*
X130060093Y-109441083D01*
X130055186Y-109436665D01*
X129891254Y-109342019D01*
X129809733Y-109315531D01*
X129751127Y-109275457D01*
X129723490Y-109210061D01*
X129735597Y-109140104D01*
X129783603Y-109087798D01*
X129848669Y-109069698D01*
X129915742Y-109069698D01*
X130005517Y-109058834D01*
X130013045Y-109055854D01*
X130013047Y-109055853D01*
X130082138Y-109028498D01*
X130145753Y-109003311D01*
X130265892Y-108912120D01*
X130357083Y-108791981D01*
X130386652Y-108717297D01*
X130409625Y-108659275D01*
X130409626Y-108659273D01*
X130412606Y-108651745D01*
X130423470Y-108561970D01*
X130423470Y-107776426D01*
X130412606Y-107686651D01*
X130357083Y-107546415D01*
X130265892Y-107426276D01*
X130145753Y-107335085D01*
X130082138Y-107309898D01*
X130013047Y-107282543D01*
X130013045Y-107282542D01*
X130005517Y-107279562D01*
X129915742Y-107268698D01*
X128580198Y-107268698D01*
X128490423Y-107279562D01*
X128482895Y-107282542D01*
X128482893Y-107282543D01*
X128413802Y-107309898D01*
X128350187Y-107335085D01*
X128230048Y-107426276D01*
X128138857Y-107546415D01*
X128083334Y-107686651D01*
X128072470Y-107776426D01*
X128072470Y-108561970D01*
X128083334Y-108651745D01*
X128086314Y-108659273D01*
X128086315Y-108659275D01*
X128109288Y-108717297D01*
X128138857Y-108791981D01*
X128230048Y-108912120D01*
X128350187Y-109003311D01*
X128413802Y-109028498D01*
X128482893Y-109055853D01*
X128482895Y-109055854D01*
X128490423Y-109058834D01*
X128580198Y-109069698D01*
X128647271Y-109069698D01*
X128715392Y-109089700D01*
X128761885Y-109143356D01*
X128771989Y-109213630D01*
X128742495Y-109278210D01*
X128686207Y-109315531D01*
X128604686Y-109342019D01*
X128440754Y-109436665D01*
X128435847Y-109441083D01*
X128435846Y-109441084D01*
X128321356Y-109544172D01*
X128300082Y-109563327D01*
X128296203Y-109568666D01*
X128202538Y-109697586D01*
X128188819Y-109716468D01*
X128111826Y-109889395D01*
X128101140Y-109939671D01*
X128074243Y-110066211D01*
X128072470Y-110074552D01*
X128072470Y-110263844D01*
X125800500Y-110263844D01*
X125800500Y-103069504D01*
X128072470Y-103069504D01*
X128111826Y-103254661D01*
X128188819Y-103427588D01*
X128300082Y-103580729D01*
X128304984Y-103585142D01*
X128304985Y-103585144D01*
X128427089Y-103695087D01*
X128440754Y-103707391D01*
X128446475Y-103710694D01*
X128556362Y-103774137D01*
X128604686Y-103802037D01*
X128784714Y-103860532D01*
X128791275Y-103861222D01*
X128791277Y-103861222D01*
X128843648Y-103866726D01*
X128925778Y-103875358D01*
X129570162Y-103875358D01*
X129652292Y-103866726D01*
X129704663Y-103861222D01*
X129704665Y-103861222D01*
X129711226Y-103860532D01*
X129891254Y-103802037D01*
X129939579Y-103774137D01*
X130049465Y-103710694D01*
X130055186Y-103707391D01*
X130068851Y-103695087D01*
X130190955Y-103585144D01*
X130190956Y-103585142D01*
X130195858Y-103580729D01*
X130307121Y-103427588D01*
X130384114Y-103254661D01*
X130423470Y-103069504D01*
X130423470Y-102880212D01*
X130405702Y-102796617D01*
X130404213Y-102789614D01*
X130384114Y-102695055D01*
X130307121Y-102522128D01*
X130270108Y-102471183D01*
X130199737Y-102374326D01*
X130195858Y-102368987D01*
X130190399Y-102364071D01*
X130060094Y-102246744D01*
X130060093Y-102246743D01*
X130055186Y-102242325D01*
X129955389Y-102184707D01*
X129896977Y-102150983D01*
X129896976Y-102150982D01*
X129891254Y-102147679D01*
X129809733Y-102121191D01*
X129751127Y-102081117D01*
X129723490Y-102015721D01*
X129735597Y-101945764D01*
X129783603Y-101893458D01*
X129848669Y-101875358D01*
X129915742Y-101875358D01*
X130005517Y-101864494D01*
X130013045Y-101861514D01*
X130013047Y-101861513D01*
X130082138Y-101834158D01*
X130145753Y-101808971D01*
X130265892Y-101717780D01*
X130357083Y-101597641D01*
X130370640Y-101563399D01*
X134926976Y-101563399D01*
X134948794Y-101653928D01*
X134952677Y-101665207D01*
X135034597Y-101845378D01*
X135040543Y-101855718D01*
X135155051Y-102017146D01*
X135162844Y-102026174D01*
X135305812Y-102163036D01*
X135315177Y-102170432D01*
X135481440Y-102277787D01*
X135492043Y-102283283D01*
X135675596Y-102357257D01*
X135687051Y-102360650D01*
X135882722Y-102398861D01*
X135891557Y-102399935D01*
X135894242Y-102400000D01*
X136001885Y-102400000D01*
X136017124Y-102395525D01*
X136018329Y-102394135D01*
X136020000Y-102386452D01*
X136020000Y-102381885D01*
X136520000Y-102381885D01*
X136524475Y-102397124D01*
X136525865Y-102398329D01*
X136533548Y-102400000D01*
X136594454Y-102400000D01*
X136600430Y-102399715D01*
X136747974Y-102385638D01*
X136759709Y-102383379D01*
X136949615Y-102327667D01*
X136960691Y-102323237D01*
X137136637Y-102232619D01*
X137146683Y-102226169D01*
X137302314Y-102103919D01*
X137310967Y-102095679D01*
X137440670Y-101946209D01*
X137447604Y-101936489D01*
X137546704Y-101765188D01*
X137551678Y-101754324D01*
X137616599Y-101567371D01*
X137617221Y-101564820D01*
X137615677Y-101553992D01*
X137602112Y-101550000D01*
X136538115Y-101550000D01*
X136522876Y-101554475D01*
X136521671Y-101555865D01*
X136520000Y-101563548D01*
X136520000Y-102381885D01*
X136020000Y-102381885D01*
X136020000Y-101568115D01*
X136015525Y-101552876D01*
X136014135Y-101551671D01*
X136006452Y-101550000D01*
X134941862Y-101550000D01*
X134928331Y-101553973D01*
X134926976Y-101563399D01*
X130370640Y-101563399D01*
X130399671Y-101490075D01*
X130409625Y-101464935D01*
X130409626Y-101464933D01*
X130412606Y-101457405D01*
X130423470Y-101367630D01*
X130423470Y-101234646D01*
X138799500Y-101234646D01*
X138802618Y-101260846D01*
X138848061Y-101363153D01*
X138927287Y-101442241D01*
X138937924Y-101446944D01*
X138937926Y-101446945D01*
X138978619Y-101464935D01*
X139029673Y-101487506D01*
X139055354Y-101490500D01*
X140744646Y-101490500D01*
X140748350Y-101490059D01*
X140748353Y-101490059D01*
X140755746Y-101489179D01*
X140770846Y-101487382D01*
X140873153Y-101441939D01*
X140952241Y-101362713D01*
X140957210Y-101351475D01*
X140993675Y-101268992D01*
X140997506Y-101260327D01*
X141000500Y-101234646D01*
X141000500Y-99545354D01*
X140997382Y-99519154D01*
X140985064Y-99491421D01*
X140956663Y-99427482D01*
X140951939Y-99416847D01*
X140872713Y-99337759D01*
X140862076Y-99333056D01*
X140862074Y-99333055D01*
X140802538Y-99306735D01*
X140770327Y-99292494D01*
X140744646Y-99289500D01*
X139055354Y-99289500D01*
X139051650Y-99289941D01*
X139051647Y-99289941D01*
X139044254Y-99290821D01*
X139029154Y-99292618D01*
X139020514Y-99296456D01*
X139020513Y-99296456D01*
X138963415Y-99321818D01*
X138926847Y-99338061D01*
X138918628Y-99346294D01*
X138918627Y-99346295D01*
X138901818Y-99363134D01*
X138847759Y-99417287D01*
X138843056Y-99427924D01*
X138843055Y-99427926D01*
X138829903Y-99457676D01*
X138802494Y-99519673D01*
X138799500Y-99545354D01*
X138799500Y-101234646D01*
X130423470Y-101234646D01*
X130423470Y-101035180D01*
X134922779Y-101035180D01*
X134924323Y-101046008D01*
X134937888Y-101050000D01*
X137598138Y-101050000D01*
X137611669Y-101046027D01*
X137613024Y-101036601D01*
X137591206Y-100946072D01*
X137587323Y-100934793D01*
X137505403Y-100754622D01*
X137499457Y-100744282D01*
X137384949Y-100582854D01*
X137377156Y-100573826D01*
X137234188Y-100436964D01*
X137224823Y-100429568D01*
X137058560Y-100322213D01*
X137047963Y-100316720D01*
X137015189Y-100303512D01*
X136959482Y-100259497D01*
X136936415Y-100192352D01*
X136953311Y-100123395D01*
X136999286Y-100077526D01*
X137071495Y-100035836D01*
X137077216Y-100032533D01*
X137217888Y-99905871D01*
X137286630Y-99811256D01*
X137325270Y-99758072D01*
X137325271Y-99758071D01*
X137329151Y-99752730D01*
X137406144Y-99579803D01*
X137434638Y-99445747D01*
X137444128Y-99401103D01*
X137444128Y-99401099D01*
X137445500Y-99394646D01*
X137445500Y-99205354D01*
X137443081Y-99193969D01*
X137424142Y-99104874D01*
X137406144Y-99020197D01*
X137329151Y-98847270D01*
X137307938Y-98818072D01*
X137221767Y-98699468D01*
X137217888Y-98694129D01*
X137077216Y-98567467D01*
X136913284Y-98472821D01*
X136831763Y-98446333D01*
X136773157Y-98406259D01*
X136745520Y-98340863D01*
X136757627Y-98270906D01*
X136805633Y-98218600D01*
X136870699Y-98200500D01*
X136937772Y-98200500D01*
X137027547Y-98189636D01*
X137035075Y-98186656D01*
X137035077Y-98186655D01*
X137125977Y-98150665D01*
X137167783Y-98134113D01*
X137287922Y-98042922D01*
X137379113Y-97922783D01*
X137419384Y-97821069D01*
X138795164Y-97821069D01*
X138808392Y-98022894D01*
X138814796Y-98048110D01*
X138846080Y-98171290D01*
X138858178Y-98218928D01*
X138942856Y-98402607D01*
X138946189Y-98407323D01*
X139043468Y-98544970D01*
X139059588Y-98567780D01*
X139204466Y-98708913D01*
X139372637Y-98821282D01*
X139377940Y-98823560D01*
X139377943Y-98823562D01*
X139466291Y-98861519D01*
X139558470Y-98901122D01*
X139654361Y-98922820D01*
X139732729Y-98940553D01*
X139755740Y-98945760D01*
X139761509Y-98945987D01*
X139761512Y-98945987D01*
X139837683Y-98948979D01*
X139957842Y-98953700D01*
X140048517Y-98940553D01*
X140152286Y-98925508D01*
X140152291Y-98925507D01*
X140158007Y-98924678D01*
X140163479Y-98922820D01*
X140163481Y-98922820D01*
X140344067Y-98861519D01*
X140344069Y-98861518D01*
X140349531Y-98859664D01*
X140526001Y-98760837D01*
X140543247Y-98746494D01*
X140660777Y-98648744D01*
X140681505Y-98631505D01*
X140810837Y-98476001D01*
X140813762Y-98470779D01*
X140886517Y-98340863D01*
X140909664Y-98299531D01*
X140935638Y-98223016D01*
X140972820Y-98113481D01*
X140972820Y-98113479D01*
X140974678Y-98108007D01*
X140975507Y-98102291D01*
X140975508Y-98102286D01*
X141001491Y-97923079D01*
X141003700Y-97907842D01*
X141005215Y-97850000D01*
X140986708Y-97648591D01*
X140982384Y-97633257D01*
X140945863Y-97503766D01*
X140931807Y-97453926D01*
X140842351Y-97272527D01*
X140824079Y-97248057D01*
X140724788Y-97115091D01*
X140724787Y-97115090D01*
X140721335Y-97110467D01*
X140703264Y-97093762D01*
X140577053Y-96977094D01*
X140577051Y-96977092D01*
X140572812Y-96973174D01*
X140545374Y-96955862D01*
X140406637Y-96868325D01*
X140401757Y-96865246D01*
X140213898Y-96790298D01*
X140015526Y-96750839D01*
X140009752Y-96750763D01*
X140009748Y-96750763D01*
X139907257Y-96749422D01*
X139813286Y-96748192D01*
X139807589Y-96749171D01*
X139807588Y-96749171D01*
X139619646Y-96781465D01*
X139619645Y-96781465D01*
X139613949Y-96782444D01*
X139424193Y-96852449D01*
X139419232Y-96855401D01*
X139419231Y-96855401D01*
X139332118Y-96907228D01*
X139250371Y-96955862D01*
X139098305Y-97089220D01*
X138973089Y-97248057D01*
X138878914Y-97427053D01*
X138818937Y-97620213D01*
X138795164Y-97821069D01*
X137419384Y-97821069D01*
X137434636Y-97782547D01*
X137445500Y-97692772D01*
X137445500Y-96907228D01*
X137434636Y-96817453D01*
X137423439Y-96789171D01*
X137404300Y-96740832D01*
X137379113Y-96677217D01*
X137287922Y-96557078D01*
X137167783Y-96465887D01*
X137083575Y-96432547D01*
X137035077Y-96413345D01*
X137035075Y-96413344D01*
X137027547Y-96410364D01*
X136937772Y-96399500D01*
X135602228Y-96399500D01*
X135512453Y-96410364D01*
X135504925Y-96413344D01*
X135504923Y-96413345D01*
X135456425Y-96432547D01*
X135372217Y-96465887D01*
X135252078Y-96557078D01*
X135160887Y-96677217D01*
X135135700Y-96740832D01*
X135116562Y-96789171D01*
X135105364Y-96817453D01*
X135094500Y-96907228D01*
X135094500Y-97692772D01*
X135105364Y-97782547D01*
X135160887Y-97922783D01*
X135252078Y-98042922D01*
X135372217Y-98134113D01*
X135414023Y-98150665D01*
X135504923Y-98186655D01*
X135504925Y-98186656D01*
X135512453Y-98189636D01*
X135602228Y-98200500D01*
X135669301Y-98200500D01*
X135737422Y-98220502D01*
X135783915Y-98274158D01*
X135794019Y-98344432D01*
X135764525Y-98409012D01*
X135708237Y-98446333D01*
X135626716Y-98472821D01*
X135462784Y-98567467D01*
X135322112Y-98694129D01*
X135318233Y-98699468D01*
X135232063Y-98818072D01*
X135210849Y-98847270D01*
X135133856Y-99020197D01*
X135115858Y-99104874D01*
X135096920Y-99193969D01*
X135094500Y-99205354D01*
X135094500Y-99394646D01*
X135095872Y-99401099D01*
X135095872Y-99401103D01*
X135105362Y-99445747D01*
X135133856Y-99579803D01*
X135210849Y-99752730D01*
X135214729Y-99758071D01*
X135214730Y-99758072D01*
X135253370Y-99811256D01*
X135322112Y-99905871D01*
X135462784Y-100032533D01*
X135468505Y-100035836D01*
X135541367Y-100077903D01*
X135590360Y-100129286D01*
X135603796Y-100198999D01*
X135577410Y-100264910D01*
X135536059Y-100299038D01*
X135403363Y-100367381D01*
X135393317Y-100373831D01*
X135237686Y-100496081D01*
X135229033Y-100504321D01*
X135099330Y-100653791D01*
X135092396Y-100663511D01*
X134993296Y-100834812D01*
X134988322Y-100845676D01*
X134923401Y-101032629D01*
X134922779Y-101035180D01*
X130423470Y-101035180D01*
X130423470Y-100582086D01*
X130412606Y-100492311D01*
X130398341Y-100456280D01*
X130360245Y-100360062D01*
X130357083Y-100352075D01*
X130265892Y-100231936D01*
X130145753Y-100140745D01*
X130082138Y-100115558D01*
X130013047Y-100088203D01*
X130013045Y-100088202D01*
X130005517Y-100085222D01*
X129915742Y-100074358D01*
X128580198Y-100074358D01*
X128490423Y-100085222D01*
X128482895Y-100088202D01*
X128482893Y-100088203D01*
X128413802Y-100115558D01*
X128350187Y-100140745D01*
X128230048Y-100231936D01*
X128138857Y-100352075D01*
X128135695Y-100360062D01*
X128097600Y-100456280D01*
X128083334Y-100492311D01*
X128072470Y-100582086D01*
X128072470Y-101367630D01*
X128083334Y-101457405D01*
X128086314Y-101464933D01*
X128086315Y-101464935D01*
X128096269Y-101490075D01*
X128138857Y-101597641D01*
X128230048Y-101717780D01*
X128350187Y-101808971D01*
X128413802Y-101834158D01*
X128482893Y-101861513D01*
X128482895Y-101861514D01*
X128490423Y-101864494D01*
X128580198Y-101875358D01*
X128647271Y-101875358D01*
X128715392Y-101895360D01*
X128761885Y-101949016D01*
X128771989Y-102019290D01*
X128742495Y-102083870D01*
X128686207Y-102121191D01*
X128604686Y-102147679D01*
X128598964Y-102150982D01*
X128598963Y-102150983D01*
X128540551Y-102184707D01*
X128440754Y-102242325D01*
X128435847Y-102246743D01*
X128435846Y-102246744D01*
X128305542Y-102364071D01*
X128300082Y-102368987D01*
X128296203Y-102374326D01*
X128225833Y-102471183D01*
X128188819Y-102522128D01*
X128111826Y-102695055D01*
X128091727Y-102789614D01*
X128090239Y-102796617D01*
X128072470Y-102880212D01*
X128072470Y-103069504D01*
X125800500Y-103069504D01*
X125800500Y-96059457D01*
X127904946Y-96059457D01*
X127926764Y-96149986D01*
X127930647Y-96161265D01*
X128012567Y-96341436D01*
X128018513Y-96351776D01*
X128133021Y-96513204D01*
X128140814Y-96522232D01*
X128283782Y-96659094D01*
X128293147Y-96666490D01*
X128459410Y-96773845D01*
X128470013Y-96779341D01*
X128653566Y-96853315D01*
X128665021Y-96856708D01*
X128860692Y-96894919D01*
X128869527Y-96895993D01*
X128872212Y-96896058D01*
X128979855Y-96896058D01*
X128995094Y-96891583D01*
X128996299Y-96890193D01*
X128997970Y-96882510D01*
X128997970Y-96877943D01*
X129497970Y-96877943D01*
X129502445Y-96893182D01*
X129503835Y-96894387D01*
X129511518Y-96896058D01*
X129572424Y-96896058D01*
X129578400Y-96895773D01*
X129725944Y-96881696D01*
X129737679Y-96879437D01*
X129927585Y-96823725D01*
X129938661Y-96819295D01*
X130114607Y-96728677D01*
X130124653Y-96722227D01*
X130280284Y-96599977D01*
X130288937Y-96591737D01*
X130418640Y-96442267D01*
X130425574Y-96432547D01*
X130524674Y-96261246D01*
X130529648Y-96250382D01*
X130594569Y-96063429D01*
X130595191Y-96060878D01*
X130593647Y-96050050D01*
X130580082Y-96046058D01*
X129516085Y-96046058D01*
X129500846Y-96050533D01*
X129499641Y-96051923D01*
X129497970Y-96059606D01*
X129497970Y-96877943D01*
X128997970Y-96877943D01*
X128997970Y-96064173D01*
X128993495Y-96048934D01*
X128992105Y-96047729D01*
X128984422Y-96046058D01*
X127919832Y-96046058D01*
X127906301Y-96050031D01*
X127904946Y-96059457D01*
X125800500Y-96059457D01*
X125800500Y-95531238D01*
X127900749Y-95531238D01*
X127902293Y-95542066D01*
X127915858Y-95546058D01*
X130576108Y-95546058D01*
X130589639Y-95542085D01*
X130590994Y-95532659D01*
X130569176Y-95442130D01*
X130565293Y-95430851D01*
X130483373Y-95250680D01*
X130477427Y-95240340D01*
X130362919Y-95078912D01*
X130355126Y-95069884D01*
X130212158Y-94933022D01*
X130202793Y-94925626D01*
X130036530Y-94818271D01*
X130025933Y-94812778D01*
X129993159Y-94799570D01*
X129937452Y-94755555D01*
X129914385Y-94688410D01*
X129931281Y-94619453D01*
X129977256Y-94573584D01*
X130049465Y-94531894D01*
X130055186Y-94528591D01*
X130104645Y-94484058D01*
X130190955Y-94406344D01*
X130190956Y-94406342D01*
X130195858Y-94401929D01*
X130307121Y-94248788D01*
X130384114Y-94075861D01*
X130408132Y-93962864D01*
X130422098Y-93897161D01*
X130422098Y-93897157D01*
X130423470Y-93890704D01*
X130423470Y-93701412D01*
X130417638Y-93673972D01*
X130393628Y-93561015D01*
X130384114Y-93516255D01*
X130307121Y-93343328D01*
X130275233Y-93299437D01*
X130199737Y-93195526D01*
X130195858Y-93190187D01*
X130190140Y-93185038D01*
X130060094Y-93067944D01*
X130060093Y-93067943D01*
X130055186Y-93063525D01*
X129891254Y-92968879D01*
X129882738Y-92966112D01*
X132937370Y-92966112D01*
X132937655Y-92972088D01*
X132951732Y-93119632D01*
X132953991Y-93131367D01*
X133009703Y-93321273D01*
X133014133Y-93332349D01*
X133104751Y-93508295D01*
X133111201Y-93518341D01*
X133233451Y-93673972D01*
X133241691Y-93682625D01*
X133391161Y-93812328D01*
X133400881Y-93819262D01*
X133572182Y-93918362D01*
X133583046Y-93923336D01*
X133769999Y-93988257D01*
X133772550Y-93988879D01*
X133783378Y-93987335D01*
X133787370Y-93973770D01*
X133787370Y-93969796D01*
X134287370Y-93969796D01*
X134291343Y-93983327D01*
X134300769Y-93984682D01*
X134391298Y-93962864D01*
X134402577Y-93958981D01*
X134582748Y-93877061D01*
X134593088Y-93871115D01*
X134754516Y-93756607D01*
X134763544Y-93748814D01*
X134900406Y-93605846D01*
X134907802Y-93596481D01*
X134972104Y-93496895D01*
X135025859Y-93450517D01*
X135096155Y-93440564D01*
X135160672Y-93470196D01*
X135195107Y-93518857D01*
X135196662Y-93522783D01*
X135203257Y-93539441D01*
X135294448Y-93659580D01*
X135414587Y-93750771D01*
X135461409Y-93769309D01*
X135547293Y-93803313D01*
X135547295Y-93803314D01*
X135554823Y-93806294D01*
X135644598Y-93817158D01*
X136430142Y-93817158D01*
X136519917Y-93806294D01*
X136527445Y-93803314D01*
X136527447Y-93803313D01*
X136613331Y-93769309D01*
X136660153Y-93750771D01*
X136780292Y-93659580D01*
X136871483Y-93539441D01*
X136898899Y-93470196D01*
X136924025Y-93406735D01*
X136924026Y-93406733D01*
X136927006Y-93399205D01*
X136937870Y-93309430D01*
X136937870Y-91973886D01*
X136927006Y-91884111D01*
X136923066Y-91874158D01*
X136882254Y-91771080D01*
X136871483Y-91743875D01*
X136780292Y-91623736D01*
X136660153Y-91532545D01*
X136588412Y-91504141D01*
X136527447Y-91480003D01*
X136527445Y-91480002D01*
X136519917Y-91477022D01*
X136430142Y-91466158D01*
X135644598Y-91466158D01*
X135554823Y-91477022D01*
X135547295Y-91480002D01*
X135547293Y-91480003D01*
X135486328Y-91504141D01*
X135414587Y-91532545D01*
X135294448Y-91623736D01*
X135203257Y-91743875D01*
X135200095Y-91751862D01*
X135200094Y-91751864D01*
X135197032Y-91759596D01*
X135153356Y-91815568D01*
X135086352Y-91839042D01*
X135017294Y-91822564D01*
X134975343Y-91778709D01*
X134973228Y-91780067D01*
X134963539Y-91764975D01*
X134841289Y-91609344D01*
X134833049Y-91600691D01*
X134683579Y-91470988D01*
X134673859Y-91464054D01*
X134502558Y-91364954D01*
X134491694Y-91359980D01*
X134304741Y-91295059D01*
X134302190Y-91294437D01*
X134291362Y-91295981D01*
X134287370Y-91309546D01*
X134287370Y-93969796D01*
X133787370Y-93969796D01*
X133787370Y-92909773D01*
X133782895Y-92894534D01*
X133781505Y-92893329D01*
X133773822Y-92891658D01*
X132955485Y-92891658D01*
X132940246Y-92896133D01*
X132939041Y-92897523D01*
X132937370Y-92905206D01*
X132937370Y-92966112D01*
X129882738Y-92966112D01*
X129809733Y-92942391D01*
X129751127Y-92902317D01*
X129723490Y-92836921D01*
X129735597Y-92766964D01*
X129783603Y-92714658D01*
X129848669Y-92696558D01*
X129915742Y-92696558D01*
X130005517Y-92685694D01*
X130013045Y-92682714D01*
X130013047Y-92682713D01*
X130082138Y-92655358D01*
X130145753Y-92630171D01*
X130265892Y-92538980D01*
X130357083Y-92418841D01*
X130375018Y-92373543D01*
X132937370Y-92373543D01*
X132941845Y-92388782D01*
X132943235Y-92389987D01*
X132950918Y-92391658D01*
X133769255Y-92391658D01*
X133784494Y-92387183D01*
X133785699Y-92385793D01*
X133787370Y-92378110D01*
X133787370Y-91313520D01*
X133783397Y-91299989D01*
X133773971Y-91298634D01*
X133683442Y-91320452D01*
X133672163Y-91324335D01*
X133491992Y-91406255D01*
X133481652Y-91412201D01*
X133320224Y-91526709D01*
X133311196Y-91534502D01*
X133174334Y-91677470D01*
X133166938Y-91686835D01*
X133059583Y-91853098D01*
X133054087Y-91863701D01*
X132980113Y-92047254D01*
X132976720Y-92058709D01*
X132938509Y-92254380D01*
X132937435Y-92263215D01*
X132937370Y-92265900D01*
X132937370Y-92373543D01*
X130375018Y-92373543D01*
X130382270Y-92355226D01*
X130409625Y-92286135D01*
X130409626Y-92286133D01*
X130412606Y-92278605D01*
X130423470Y-92188830D01*
X130423470Y-91403286D01*
X130412606Y-91313511D01*
X130407253Y-91299989D01*
X130360245Y-91181262D01*
X130357083Y-91173275D01*
X130265892Y-91053136D01*
X130145753Y-90961945D01*
X130082138Y-90936758D01*
X130013047Y-90909403D01*
X130013045Y-90909402D01*
X130005517Y-90906422D01*
X129915742Y-90895558D01*
X128580198Y-90895558D01*
X128490423Y-90906422D01*
X128482895Y-90909402D01*
X128482893Y-90909403D01*
X128413802Y-90936758D01*
X128350187Y-90961945D01*
X128230048Y-91053136D01*
X128138857Y-91173275D01*
X128135695Y-91181262D01*
X128088688Y-91299989D01*
X128083334Y-91313511D01*
X128072470Y-91403286D01*
X128072470Y-92188830D01*
X128083334Y-92278605D01*
X128086314Y-92286133D01*
X128086315Y-92286135D01*
X128113670Y-92355226D01*
X128138857Y-92418841D01*
X128230048Y-92538980D01*
X128350187Y-92630171D01*
X128413802Y-92655358D01*
X128482893Y-92682713D01*
X128482895Y-92682714D01*
X128490423Y-92685694D01*
X128580198Y-92696558D01*
X128647271Y-92696558D01*
X128715392Y-92716560D01*
X128761885Y-92770216D01*
X128771989Y-92840490D01*
X128742495Y-92905070D01*
X128686207Y-92942391D01*
X128604686Y-92968879D01*
X128440754Y-93063525D01*
X128435847Y-93067943D01*
X128435846Y-93067944D01*
X128305801Y-93185038D01*
X128300082Y-93190187D01*
X128296203Y-93195526D01*
X128220708Y-93299437D01*
X128188819Y-93343328D01*
X128111826Y-93516255D01*
X128102312Y-93561015D01*
X128078303Y-93673972D01*
X128072470Y-93701412D01*
X128072470Y-93890704D01*
X128073842Y-93897157D01*
X128073842Y-93897161D01*
X128087808Y-93962864D01*
X128111826Y-94075861D01*
X128188819Y-94248788D01*
X128300082Y-94401929D01*
X128304984Y-94406342D01*
X128304985Y-94406344D01*
X128391295Y-94484058D01*
X128440754Y-94528591D01*
X128446475Y-94531894D01*
X128519337Y-94573961D01*
X128568330Y-94625344D01*
X128581766Y-94695057D01*
X128555380Y-94760968D01*
X128514029Y-94795096D01*
X128381333Y-94863439D01*
X128371287Y-94869889D01*
X128215656Y-94992139D01*
X128207003Y-95000379D01*
X128077300Y-95149849D01*
X128070366Y-95159569D01*
X127971266Y-95330870D01*
X127966292Y-95341734D01*
X127901371Y-95528687D01*
X127900749Y-95531238D01*
X125800500Y-95531238D01*
X125800500Y-90537317D01*
X125802414Y-90515437D01*
X125803222Y-90510855D01*
X125805136Y-90500000D01*
X125803222Y-90489144D01*
X125803222Y-90478122D01*
X125803779Y-90478122D01*
X125803188Y-90465845D01*
X125814490Y-90322242D01*
X125817583Y-90302714D01*
X125856895Y-90138970D01*
X125863003Y-90120171D01*
X125899112Y-90032996D01*
X125927445Y-89964595D01*
X125936415Y-89946990D01*
X126024406Y-89803401D01*
X126036027Y-89787408D01*
X126145385Y-89659366D01*
X126159366Y-89645385D01*
X126287408Y-89536027D01*
X126303403Y-89524405D01*
X126446990Y-89436415D01*
X126464595Y-89427445D01*
X126620176Y-89363001D01*
X126638970Y-89356895D01*
X126802715Y-89317583D01*
X126822241Y-89314490D01*
X126965848Y-89303188D01*
X126978122Y-89303779D01*
X126978122Y-89303222D01*
X126989144Y-89303222D01*
X127000000Y-89305136D01*
X127015437Y-89302414D01*
X127037317Y-89300500D01*
X168962683Y-89300500D01*
X168984563Y-89302414D01*
G37*
%TD.AperFunction*%
%TD*%
%TA.AperFunction,NonConductor*%
G36*
X157508219Y-91820502D02*
G01*
X157554712Y-91874158D01*
X157564816Y-91944432D01*
X157536619Y-92007491D01*
X157504181Y-92046149D01*
X157445072Y-92085476D01*
X157407660Y-92091158D01*
X155125544Y-92091158D01*
X155057423Y-92071156D01*
X155010930Y-92017500D01*
X155000070Y-91973944D01*
X155000070Y-91973886D01*
X154996167Y-91941637D01*
X155007839Y-91871608D01*
X155055520Y-91819006D01*
X155121254Y-91800500D01*
X157440098Y-91800500D01*
X157508219Y-91820502D01*
G37*
%TD.AperFunction*%
%TA.AperFunction,NonConductor*%
G36*
X149236516Y-91820502D02*
G01*
X149283009Y-91874158D01*
X149293113Y-91944432D01*
X149277516Y-91989496D01*
X149275697Y-91992647D01*
X149272391Y-91998374D01*
X149270349Y-92004659D01*
X149219403Y-92161453D01*
X149179329Y-92220059D01*
X149113933Y-92247696D01*
X149043976Y-92235589D01*
X148991670Y-92187583D01*
X148979737Y-92161453D01*
X148928791Y-92004659D01*
X148926749Y-91998374D01*
X148923443Y-91992647D01*
X148921624Y-91989496D01*
X148921126Y-91987443D01*
X148920761Y-91986623D01*
X148920911Y-91986556D01*
X148904888Y-91920500D01*
X148928111Y-91853409D01*
X148983920Y-91809524D01*
X149030745Y-91800500D01*
X149168395Y-91800500D01*
X149236516Y-91820502D01*
G37*
%TD.AperFunction*%
%TA.AperFunction,NonConductor*%
G36*
X151236516Y-91820502D02*
G01*
X151283009Y-91874158D01*
X151293113Y-91944432D01*
X151277516Y-91989496D01*
X151275697Y-91992647D01*
X151272391Y-91998374D01*
X151270349Y-92004659D01*
X151219403Y-92161453D01*
X151179329Y-92220059D01*
X151113933Y-92247696D01*
X151043976Y-92235589D01*
X150991670Y-92187583D01*
X150979737Y-92161453D01*
X150928791Y-92004659D01*
X150926749Y-91998374D01*
X150923443Y-91992647D01*
X150921624Y-91989496D01*
X150921126Y-91987443D01*
X150920761Y-91986623D01*
X150920911Y-91986556D01*
X150904888Y-91920500D01*
X150928111Y-91853409D01*
X150983920Y-91809524D01*
X151030745Y-91800500D01*
X151168395Y-91800500D01*
X151236516Y-91820502D01*
G37*
%TD.AperFunction*%
%TA.AperFunction,NonConductor*%
G36*
X157322256Y-93212160D02*
G01*
X157366202Y-93260564D01*
X157391321Y-93309440D01*
X157397682Y-93321818D01*
X157433161Y-93366581D01*
X157459797Y-93432387D01*
X157446627Y-93502152D01*
X157397830Y-93553721D01*
X157328899Y-93570722D01*
X157258237Y-93545208D01*
X157239625Y-93531081D01*
X157239624Y-93531080D01*
X157232783Y-93525888D01*
X157224797Y-93522726D01*
X157217315Y-93518510D01*
X157217402Y-93518356D01*
X157216809Y-93518046D01*
X157216732Y-93518205D01*
X157209002Y-93514469D01*
X157201847Y-93509715D01*
X157150346Y-93492981D01*
X157142899Y-93490300D01*
X157092547Y-93470364D01*
X157084006Y-93469467D01*
X157075662Y-93467417D01*
X157075704Y-93467244D01*
X157075060Y-93467107D01*
X157075028Y-93467283D01*
X157066577Y-93465762D01*
X157058402Y-93463106D01*
X157049813Y-93462746D01*
X157004296Y-93460838D01*
X156996404Y-93460259D01*
X156963393Y-93456790D01*
X156942546Y-93454599D01*
X156934077Y-93456031D01*
X156925492Y-93456301D01*
X156925486Y-93456122D01*
X156924825Y-93456164D01*
X156924842Y-93456341D01*
X156916289Y-93457150D01*
X156907706Y-93456790D01*
X156899341Y-93458752D01*
X156884005Y-93462349D01*
X156855233Y-93465678D01*
X155123328Y-93465678D01*
X155055207Y-93445676D01*
X155008714Y-93392020D01*
X154998241Y-93324541D01*
X155000070Y-93309430D01*
X155000070Y-93309427D01*
X155000178Y-93309440D01*
X155023845Y-93243772D01*
X155080205Y-93200598D01*
X155125544Y-93192158D01*
X157254135Y-93192158D01*
X157322256Y-93212160D01*
G37*
%TD.AperFunction*%
%TA.AperFunction,NonConductor*%
G36*
X152418574Y-93789919D02*
G01*
X152463074Y-93818668D01*
X152720268Y-94075861D01*
X152848811Y-94204404D01*
X152882836Y-94266717D01*
X152877772Y-94337532D01*
X152835225Y-94394368D01*
X152768705Y-94419179D01*
X152759716Y-94419500D01*
X152708127Y-94419500D01*
X152640006Y-94399498D01*
X152619032Y-94382595D01*
X152242339Y-94005902D01*
X152208313Y-93943590D01*
X152213378Y-93872775D01*
X152255925Y-93815939D01*
X152305238Y-93793560D01*
X152347783Y-93784517D01*
X152418574Y-93789919D01*
G37*
%TD.AperFunction*%
%TA.AperFunction,NonConductor*%
G36*
X150447424Y-93783788D02*
G01*
X150491924Y-93812537D01*
X151098888Y-94419500D01*
X151633313Y-94953925D01*
X151667338Y-95016237D01*
X151662274Y-95087052D01*
X151619727Y-95143888D01*
X151553207Y-95168699D01*
X151544218Y-95169020D01*
X151457647Y-95169020D01*
X151389526Y-95149018D01*
X151368552Y-95132115D01*
X150242339Y-94005902D01*
X150208313Y-93943590D01*
X150213378Y-93872775D01*
X150255925Y-93815939D01*
X150305238Y-93793560D01*
X150376633Y-93778385D01*
X150447424Y-93783788D01*
G37*
%TD.AperFunction*%
%TA.AperFunction,NonConductor*%
G36*
X159432154Y-93148845D02*
G01*
X159473739Y-93206388D01*
X159480959Y-93248429D01*
X159480959Y-95256251D01*
X159460957Y-95324372D01*
X159407301Y-95370865D01*
X159337027Y-95380969D01*
X159272447Y-95351475D01*
X159243707Y-95315404D01*
X159167081Y-95171290D01*
X159164188Y-95165849D01*
X159049200Y-95024860D01*
X159037876Y-95010975D01*
X159037873Y-95010972D01*
X159033981Y-95006200D01*
X159026945Y-95000379D01*
X158879995Y-94878811D01*
X158879991Y-94878809D01*
X158875245Y-94874882D01*
X158694025Y-94776897D01*
X158497224Y-94715977D01*
X158491099Y-94715333D01*
X158491098Y-94715333D01*
X158485777Y-94714774D01*
X158482685Y-94714449D01*
X158417028Y-94687437D01*
X158406759Y-94678234D01*
X157560146Y-93831621D01*
X157526120Y-93769309D01*
X157531185Y-93698494D01*
X157573732Y-93641658D01*
X157640252Y-93616847D01*
X157710708Y-93632537D01*
X157862368Y-93717297D01*
X157923848Y-93737273D01*
X158052441Y-93779056D01*
X158052445Y-93779057D01*
X158058299Y-93780959D01*
X158262864Y-93805351D01*
X158268999Y-93804879D01*
X158269001Y-93804879D01*
X158331835Y-93800044D01*
X158468270Y-93789546D01*
X158474200Y-93787890D01*
X158474202Y-93787890D01*
X158625743Y-93745579D01*
X158666695Y-93734145D01*
X158672184Y-93731372D01*
X158672190Y-93731370D01*
X158814309Y-93659580D01*
X158850580Y-93641258D01*
X158892888Y-93608204D01*
X158973519Y-93545208D01*
X159012921Y-93514424D01*
X159018212Y-93508295D01*
X159143510Y-93363134D01*
X159143510Y-93363133D01*
X159147534Y-93358472D01*
X159168357Y-93321818D01*
X159245403Y-93186192D01*
X159296442Y-93136841D01*
X159366060Y-93122919D01*
X159432154Y-93148845D01*
G37*
%TD.AperFunction*%
%TA.AperFunction,NonConductor*%
G36*
X156754084Y-94586680D02*
G01*
X156775058Y-94603583D01*
X157315567Y-95144092D01*
X157349593Y-95206404D01*
X157344528Y-95277219D01*
X157336886Y-95293888D01*
X157317716Y-95328757D01*
X157317711Y-95328769D01*
X157314746Y-95334162D01*
X157270948Y-95472232D01*
X157231286Y-95531114D01*
X157166084Y-95559207D01*
X157096044Y-95547590D01*
X157061752Y-95523227D01*
X156320298Y-94781773D01*
X156286272Y-94719461D01*
X156291337Y-94648646D01*
X156333884Y-94591810D01*
X156400404Y-94566999D01*
X156409393Y-94566678D01*
X156685963Y-94566678D01*
X156754084Y-94586680D01*
G37*
%TD.AperFunction*%
%TA.AperFunction,NonConductor*%
G36*
X159432154Y-96148845D02*
G01*
X159473739Y-96206388D01*
X159480959Y-96248429D01*
X159480959Y-98256251D01*
X159460957Y-98324372D01*
X159407301Y-98370865D01*
X159337027Y-98380969D01*
X159272447Y-98351475D01*
X159243707Y-98315404D01*
X159167081Y-98171290D01*
X159164188Y-98165849D01*
X159063931Y-98042922D01*
X159037876Y-98010975D01*
X159037873Y-98010972D01*
X159033981Y-98006200D01*
X159022568Y-97996758D01*
X158879995Y-97878811D01*
X158879991Y-97878809D01*
X158875245Y-97874882D01*
X158718401Y-97790077D01*
X158699444Y-97779827D01*
X158694025Y-97776897D01*
X158497224Y-97715977D01*
X158491099Y-97715333D01*
X158491098Y-97715333D01*
X158298468Y-97695087D01*
X158298466Y-97695087D01*
X158292339Y-97694443D01*
X158087173Y-97713114D01*
X158081247Y-97714858D01*
X158077117Y-97715646D01*
X158006455Y-97708764D01*
X157964409Y-97680973D01*
X157437405Y-97153969D01*
X157403379Y-97091657D01*
X157400500Y-97064874D01*
X157400500Y-96649450D01*
X157420502Y-96581329D01*
X157474158Y-96534836D01*
X157544432Y-96524732D01*
X157608162Y-96553495D01*
X157682534Y-96616791D01*
X157687912Y-96619797D01*
X157687914Y-96619798D01*
X157694354Y-96623397D01*
X157862368Y-96717297D01*
X157957208Y-96748113D01*
X158052441Y-96779056D01*
X158052445Y-96779057D01*
X158058299Y-96780959D01*
X158262864Y-96805351D01*
X158268999Y-96804879D01*
X158269001Y-96804879D01*
X158325009Y-96800569D01*
X158468270Y-96789546D01*
X158474200Y-96787890D01*
X158474202Y-96787890D01*
X158602867Y-96751966D01*
X158666695Y-96734145D01*
X158672184Y-96731372D01*
X158672190Y-96731370D01*
X158832036Y-96650625D01*
X158850580Y-96641258D01*
X159012921Y-96514424D01*
X159102743Y-96410364D01*
X159143510Y-96363134D01*
X159143510Y-96363133D01*
X159147534Y-96358472D01*
X159176818Y-96306924D01*
X159245403Y-96186192D01*
X159296442Y-96136841D01*
X159366060Y-96122919D01*
X159432154Y-96148845D01*
G37*
%TD.AperFunction*%
%TA.AperFunction,NonConductor*%
G36*
X156649012Y-97923079D02*
G01*
X156655595Y-97929208D01*
X157210025Y-98483638D01*
X157244051Y-98545950D01*
X157246145Y-98586778D01*
X157229490Y-98735262D01*
X157230006Y-98741406D01*
X157245466Y-98925508D01*
X157246729Y-98940553D01*
X157248428Y-98946478D01*
X157299022Y-99122919D01*
X157303514Y-99138586D01*
X157306329Y-99144063D01*
X157306330Y-99144066D01*
X157382675Y-99292618D01*
X157397682Y-99321818D01*
X157525647Y-99483270D01*
X157530340Y-99487264D01*
X157530341Y-99487265D01*
X157634444Y-99575863D01*
X157682534Y-99616791D01*
X157687912Y-99619797D01*
X157687914Y-99619798D01*
X157719533Y-99637469D01*
X157862368Y-99717297D01*
X157923389Y-99737124D01*
X158052441Y-99779056D01*
X158052445Y-99779057D01*
X158058299Y-99780959D01*
X158262864Y-99805351D01*
X158268999Y-99804879D01*
X158269001Y-99804879D01*
X158325009Y-99800569D01*
X158468270Y-99789546D01*
X158474200Y-99787890D01*
X158474202Y-99787890D01*
X158660767Y-99735800D01*
X158660766Y-99735800D01*
X158666695Y-99734145D01*
X158672184Y-99731372D01*
X158672190Y-99731370D01*
X158845086Y-99644033D01*
X158850580Y-99641258D01*
X159012921Y-99514424D01*
X159032777Y-99491421D01*
X159143510Y-99363134D01*
X159143510Y-99363133D01*
X159147534Y-99358472D01*
X159168357Y-99321818D01*
X159245403Y-99186192D01*
X159296442Y-99136841D01*
X159366060Y-99122919D01*
X159432154Y-99148845D01*
X159473739Y-99206388D01*
X159480959Y-99248429D01*
X159480959Y-101256251D01*
X159460957Y-101324372D01*
X159407301Y-101370865D01*
X159337027Y-101380969D01*
X159272447Y-101351475D01*
X159243707Y-101315404D01*
X159167081Y-101171290D01*
X159164188Y-101165849D01*
X159055536Y-101032629D01*
X159037876Y-101010975D01*
X159037873Y-101010972D01*
X159033981Y-101006200D01*
X159029232Y-101002271D01*
X158879995Y-100878811D01*
X158879991Y-100878809D01*
X158875245Y-100874882D01*
X158694025Y-100776897D01*
X158497224Y-100715977D01*
X158491099Y-100715333D01*
X158491098Y-100715333D01*
X158298468Y-100695087D01*
X158298466Y-100695087D01*
X158292339Y-100694443D01*
X158087173Y-100713114D01*
X158081247Y-100714858D01*
X158077117Y-100715646D01*
X158006455Y-100708764D01*
X157964409Y-100680973D01*
X156477405Y-99193969D01*
X156443379Y-99131657D01*
X156440500Y-99104874D01*
X156440500Y-98018303D01*
X156460502Y-97950182D01*
X156514158Y-97903689D01*
X156584432Y-97893585D01*
X156649012Y-97923079D01*
G37*
%TD.AperFunction*%
%TA.AperFunction,NonConductor*%
G36*
X147236516Y-91820502D02*
G01*
X147283009Y-91874158D01*
X147293113Y-91944432D01*
X147277516Y-91989496D01*
X147275697Y-91992647D01*
X147272391Y-91998374D01*
X147213896Y-92178402D01*
X147213206Y-92184963D01*
X147213206Y-92184965D01*
X147210866Y-92207230D01*
X147199070Y-92319466D01*
X147199070Y-92963850D01*
X147213896Y-93104914D01*
X147272391Y-93284942D01*
X147275694Y-93290664D01*
X147275695Y-93290665D01*
X147346401Y-93413132D01*
X147367037Y-93448874D01*
X147371455Y-93453781D01*
X147371456Y-93453782D01*
X147476750Y-93570722D01*
X147493699Y-93589546D01*
X147499038Y-93593425D01*
X147638783Y-93694955D01*
X147646840Y-93700809D01*
X147819767Y-93777802D01*
X147915676Y-93798188D01*
X147998467Y-93815786D01*
X147998471Y-93815786D01*
X148004924Y-93817158D01*
X148194216Y-93817158D01*
X148253194Y-93804622D01*
X148376633Y-93778385D01*
X148447423Y-93783787D01*
X148491924Y-93812537D01*
X150777550Y-96098162D01*
X150781203Y-96101971D01*
X150823231Y-96147676D01*
X150830531Y-96152202D01*
X150830532Y-96152203D01*
X150860215Y-96170607D01*
X150869985Y-96177321D01*
X150904648Y-96203632D01*
X150918625Y-96209166D01*
X150938634Y-96219229D01*
X150944120Y-96222631D01*
X150944124Y-96222633D01*
X150951418Y-96227155D01*
X150959660Y-96229549D01*
X150959663Y-96229551D01*
X150993216Y-96239299D01*
X151004429Y-96243138D01*
X151044885Y-96259155D01*
X151053428Y-96260053D01*
X151053429Y-96260053D01*
X151059834Y-96260726D01*
X151081812Y-96265038D01*
X151096257Y-96269235D01*
X151102840Y-96269718D01*
X151102843Y-96269719D01*
X151104640Y-96269851D01*
X151104651Y-96269851D01*
X151106947Y-96270020D01*
X151141651Y-96270020D01*
X151154822Y-96270710D01*
X151194886Y-96274921D01*
X151203351Y-96273489D01*
X151203360Y-96273489D01*
X151213432Y-96271785D01*
X151234445Y-96270020D01*
X154359304Y-96270020D01*
X154427425Y-96290022D01*
X154448399Y-96306924D01*
X155302595Y-97161119D01*
X155336620Y-97223432D01*
X155339500Y-97250215D01*
X155339500Y-99370095D01*
X155339389Y-99375371D01*
X155336790Y-99437382D01*
X155338752Y-99445747D01*
X155346727Y-99479750D01*
X155348890Y-99491421D01*
X155354794Y-99534520D01*
X155358206Y-99542404D01*
X155358206Y-99542405D01*
X155360765Y-99548318D01*
X155367799Y-99569587D01*
X155371232Y-99584224D01*
X155375369Y-99591749D01*
X155375370Y-99591752D01*
X155392195Y-99622356D01*
X155397411Y-99633001D01*
X155414695Y-99672943D01*
X155424158Y-99684629D01*
X155436645Y-99703213D01*
X155443893Y-99716396D01*
X155450897Y-99724510D01*
X155475433Y-99749046D01*
X155484258Y-99758847D01*
X155502755Y-99781688D01*
X155509614Y-99790158D01*
X155516612Y-99795131D01*
X155516617Y-99795136D01*
X155524948Y-99801056D01*
X155541054Y-99814667D01*
X157210025Y-101483638D01*
X157244051Y-101545950D01*
X157246145Y-101586778D01*
X157229490Y-101735262D01*
X157246729Y-101940553D01*
X157248428Y-101946478D01*
X157299022Y-102122919D01*
X157303514Y-102138586D01*
X157306329Y-102144063D01*
X157306330Y-102144066D01*
X157327217Y-102184707D01*
X157397682Y-102321818D01*
X157525647Y-102483270D01*
X157682534Y-102616791D01*
X157687912Y-102619797D01*
X157687914Y-102619798D01*
X157725430Y-102640765D01*
X157862368Y-102717297D01*
X157937916Y-102741844D01*
X158052441Y-102779056D01*
X158052445Y-102779057D01*
X158058299Y-102780959D01*
X158262864Y-102805351D01*
X158268999Y-102804879D01*
X158269001Y-102804879D01*
X158325009Y-102800569D01*
X158468270Y-102789546D01*
X158474200Y-102787890D01*
X158474202Y-102787890D01*
X158598074Y-102753304D01*
X158666695Y-102734145D01*
X158672184Y-102731372D01*
X158672190Y-102731370D01*
X158834717Y-102649271D01*
X158850580Y-102641258D01*
X158860476Y-102633527D01*
X158943676Y-102568524D01*
X159012921Y-102514424D01*
X159028469Y-102496412D01*
X159143510Y-102363134D01*
X159143510Y-102363133D01*
X159147534Y-102358472D01*
X159167551Y-102323237D01*
X159245403Y-102186192D01*
X159296442Y-102136841D01*
X159366060Y-102122919D01*
X159432154Y-102148845D01*
X159473739Y-102206388D01*
X159480959Y-102248429D01*
X159480959Y-104256251D01*
X159460957Y-104324372D01*
X159407301Y-104370865D01*
X159337027Y-104380969D01*
X159272447Y-104351475D01*
X159243707Y-104315404D01*
X159167081Y-104171290D01*
X159164188Y-104165849D01*
X159090829Y-104075902D01*
X159037876Y-104010975D01*
X159037873Y-104010972D01*
X159033981Y-104006200D01*
X159016756Y-103991950D01*
X158879995Y-103878811D01*
X158879991Y-103878809D01*
X158875245Y-103874882D01*
X158694025Y-103776897D01*
X158497224Y-103715977D01*
X158491099Y-103715333D01*
X158491098Y-103715333D01*
X158298468Y-103695087D01*
X158298466Y-103695087D01*
X158292339Y-103694443D01*
X158205499Y-103702346D01*
X158093312Y-103712555D01*
X158093309Y-103712556D01*
X158087173Y-103713114D01*
X157889542Y-103771280D01*
X157706972Y-103866726D01*
X157702171Y-103870586D01*
X157702168Y-103870588D01*
X157551224Y-103991950D01*
X157546417Y-103995815D01*
X157413994Y-104153630D01*
X157411026Y-104159028D01*
X157411023Y-104159033D01*
X157357578Y-104256251D01*
X157314746Y-104334162D01*
X157252454Y-104530532D01*
X157250147Y-104551103D01*
X157242223Y-104621740D01*
X157214752Y-104687206D01*
X157206103Y-104696789D01*
X156660297Y-105242595D01*
X156597985Y-105276621D01*
X156571202Y-105279500D01*
X156279572Y-105279500D01*
X156211451Y-105259498D01*
X156199257Y-105250585D01*
X156189598Y-105242595D01*
X156180275Y-105234882D01*
X155999055Y-105136897D01*
X155802254Y-105075977D01*
X155796129Y-105075333D01*
X155796128Y-105075333D01*
X155603498Y-105055087D01*
X155603496Y-105055087D01*
X155597369Y-105054443D01*
X155510529Y-105062346D01*
X155398342Y-105072555D01*
X155398339Y-105072556D01*
X155392203Y-105073114D01*
X155194572Y-105131280D01*
X155189107Y-105134137D01*
X155131857Y-105164067D01*
X155012002Y-105226726D01*
X155007201Y-105230586D01*
X155007198Y-105230588D01*
X154874578Y-105337217D01*
X154851447Y-105355815D01*
X154719024Y-105513630D01*
X154716056Y-105519028D01*
X154716053Y-105519033D01*
X154640477Y-105656506D01*
X154619776Y-105694162D01*
X154557484Y-105890532D01*
X154556798Y-105896649D01*
X154556797Y-105896653D01*
X154535207Y-106089137D01*
X154534520Y-106095262D01*
X154551759Y-106300553D01*
X154553458Y-106306478D01*
X154604762Y-106485395D01*
X154608544Y-106498586D01*
X154611359Y-106504063D01*
X154611360Y-106504066D01*
X154671890Y-106621845D01*
X154685237Y-106691576D01*
X154658766Y-106757453D01*
X154600882Y-106798561D01*
X154529962Y-106801849D01*
X154470728Y-106768534D01*
X153677404Y-105975210D01*
X153643378Y-105912898D01*
X153640499Y-105886115D01*
X153640499Y-105567230D01*
X153640044Y-105563467D01*
X153630608Y-105485483D01*
X153630607Y-105485480D01*
X153629636Y-105477453D01*
X153574112Y-105337217D01*
X153482922Y-105217078D01*
X153362783Y-105125888D01*
X153222547Y-105070364D01*
X153214509Y-105069391D01*
X153214508Y-105069391D01*
X153182937Y-105065571D01*
X153132771Y-105059500D01*
X152590358Y-105059500D01*
X152047230Y-105059501D01*
X152043472Y-105059956D01*
X152043467Y-105059956D01*
X151965483Y-105069392D01*
X151965480Y-105069393D01*
X151957453Y-105070364D01*
X151817217Y-105125888D01*
X151697078Y-105217078D01*
X151605888Y-105337217D01*
X151550364Y-105477453D01*
X151549391Y-105485491D01*
X151549391Y-105485492D01*
X151541587Y-105549983D01*
X151513547Y-105615208D01*
X151454694Y-105654918D01*
X151383715Y-105656506D01*
X151323145Y-105619468D01*
X151292215Y-105555563D01*
X151290500Y-105534846D01*
X151290500Y-105054993D01*
X151290611Y-105049717D01*
X151292850Y-104996291D01*
X151293210Y-104987706D01*
X151289135Y-104970331D01*
X151283273Y-104945338D01*
X151281110Y-104933667D01*
X151276372Y-104899081D01*
X151275206Y-104890568D01*
X151269235Y-104876770D01*
X151262201Y-104855501D01*
X151260730Y-104849228D01*
X151260729Y-104849226D01*
X151258768Y-104840864D01*
X151237805Y-104802734D01*
X151232583Y-104792073D01*
X151218716Y-104760027D01*
X151218715Y-104760026D01*
X151215305Y-104752145D01*
X151205842Y-104740459D01*
X151193351Y-104721871D01*
X151186106Y-104708692D01*
X151179102Y-104700578D01*
X151154567Y-104676043D01*
X151145742Y-104666242D01*
X151125794Y-104641608D01*
X151125793Y-104641607D01*
X151120386Y-104634930D01*
X151113384Y-104629954D01*
X151113382Y-104629952D01*
X151105051Y-104624032D01*
X151088945Y-104610421D01*
X149269882Y-102791358D01*
X149266229Y-102787549D01*
X149263155Y-102784206D01*
X149224201Y-102741844D01*
X149187198Y-102718901D01*
X149177448Y-102712200D01*
X149142783Y-102685888D01*
X149128804Y-102680354D01*
X149108801Y-102670293D01*
X149096014Y-102662365D01*
X149087763Y-102659968D01*
X149087761Y-102659967D01*
X149054228Y-102650225D01*
X149042995Y-102646379D01*
X149022353Y-102638206D01*
X149002547Y-102630364D01*
X148994006Y-102629466D01*
X148994005Y-102629466D01*
X148987592Y-102628792D01*
X148965617Y-102624480D01*
X148951175Y-102620285D01*
X148943692Y-102619735D01*
X148942792Y-102619669D01*
X148942781Y-102619669D01*
X148940485Y-102619500D01*
X148905783Y-102619500D01*
X148892613Y-102618810D01*
X148882384Y-102617735D01*
X148852546Y-102614599D01*
X148844081Y-102616031D01*
X148844072Y-102616031D01*
X148834000Y-102617735D01*
X148812987Y-102619500D01*
X142483020Y-102619500D01*
X142414899Y-102599498D01*
X142368406Y-102545842D01*
X142359224Y-102472866D01*
X142359715Y-102471175D01*
X142360500Y-102460485D01*
X142360500Y-102425790D01*
X142361190Y-102412619D01*
X142364504Y-102381089D01*
X142365402Y-102372545D01*
X142362265Y-102353998D01*
X142360500Y-102332985D01*
X142360500Y-99273233D01*
X146094906Y-99273233D01*
X146121102Y-99547792D01*
X146122187Y-99552226D01*
X146122188Y-99552232D01*
X146183075Y-99801056D01*
X146186657Y-99815694D01*
X146290199Y-100071326D01*
X146292500Y-100075256D01*
X146292503Y-100075262D01*
X146427255Y-100305403D01*
X146427260Y-100305410D01*
X146429558Y-100309335D01*
X146432405Y-100312895D01*
X146550028Y-100459974D01*
X146601816Y-100524732D01*
X146605157Y-100527853D01*
X146798821Y-100708764D01*
X146803364Y-100713008D01*
X147029979Y-100870216D01*
X147034055Y-100872244D01*
X147034057Y-100872245D01*
X147272827Y-100991032D01*
X147272830Y-100991033D01*
X147276914Y-100993065D01*
X147538998Y-101078980D01*
X147543489Y-101079760D01*
X147543490Y-101079760D01*
X147806957Y-101125506D01*
X147806965Y-101125507D01*
X147810738Y-101126162D01*
X147814575Y-101126353D01*
X147896305Y-101130422D01*
X147896313Y-101130422D01*
X147897876Y-101130500D01*
X148070070Y-101130500D01*
X148072338Y-101130335D01*
X148072350Y-101130335D01*
X148206603Y-101120594D01*
X148275083Y-101115625D01*
X148279538Y-101114641D01*
X148279541Y-101114641D01*
X148539947Y-101057148D01*
X148539950Y-101057147D01*
X148544403Y-101056164D01*
X148802319Y-100958449D01*
X149043428Y-100824525D01*
X149213876Y-100694443D01*
X149259046Y-100659970D01*
X149259047Y-100659969D01*
X149262678Y-100657198D01*
X149336105Y-100582086D01*
X149452283Y-100463242D01*
X149452287Y-100463237D01*
X149455477Y-100459974D01*
X149534015Y-100352075D01*
X149615100Y-100240676D01*
X149615102Y-100240673D01*
X149617787Y-100236984D01*
X149746206Y-99992899D01*
X149838045Y-99732832D01*
X149867017Y-99585842D01*
X149890499Y-99466704D01*
X149890500Y-99466698D01*
X149891380Y-99462232D01*
X149893618Y-99417287D01*
X149904867Y-99191336D01*
X149904867Y-99191330D01*
X149905094Y-99186767D01*
X149878898Y-98912208D01*
X149876498Y-98902397D01*
X149814429Y-98648744D01*
X149813343Y-98644306D01*
X149709801Y-98388674D01*
X149707500Y-98384744D01*
X149707497Y-98384738D01*
X149572745Y-98154597D01*
X149572740Y-98154590D01*
X149570442Y-98150665D01*
X149488426Y-98048110D01*
X149401036Y-97938834D01*
X149401035Y-97938833D01*
X149398184Y-97935268D01*
X149324810Y-97866726D01*
X149199972Y-97750108D01*
X149199969Y-97750106D01*
X149196636Y-97746992D01*
X148970021Y-97589784D01*
X148792667Y-97501551D01*
X148727173Y-97468968D01*
X148727170Y-97468967D01*
X148723086Y-97466935D01*
X148461002Y-97381020D01*
X148456510Y-97380240D01*
X148193043Y-97334494D01*
X148193035Y-97334493D01*
X148189262Y-97333838D01*
X148179029Y-97333329D01*
X148103695Y-97329578D01*
X148103687Y-97329578D01*
X148102124Y-97329500D01*
X147929930Y-97329500D01*
X147927662Y-97329665D01*
X147927650Y-97329665D01*
X147793397Y-97339406D01*
X147724917Y-97344375D01*
X147720462Y-97345359D01*
X147720459Y-97345359D01*
X147460053Y-97402852D01*
X147460050Y-97402853D01*
X147455597Y-97403836D01*
X147197681Y-97501551D01*
X146956572Y-97635475D01*
X146952940Y-97638247D01*
X146771266Y-97776897D01*
X146737322Y-97802802D01*
X146734129Y-97806068D01*
X146734127Y-97806070D01*
X146547717Y-97996758D01*
X146547713Y-97996763D01*
X146544523Y-98000026D01*
X146541836Y-98003718D01*
X146541834Y-98003720D01*
X146385189Y-98218928D01*
X146382213Y-98223016D01*
X146253794Y-98467101D01*
X146161955Y-98727168D01*
X146155319Y-98760837D01*
X146111361Y-98983863D01*
X146108620Y-98997768D01*
X146108393Y-99002322D01*
X146108393Y-99002324D01*
X146096141Y-99248429D01*
X146094906Y-99273233D01*
X142360500Y-99273233D01*
X142360500Y-93920698D01*
X142380502Y-93852577D01*
X142434158Y-93806084D01*
X142504432Y-93795980D01*
X142525859Y-93801679D01*
X142532294Y-93803313D01*
X142539823Y-93806294D01*
X142629598Y-93817158D01*
X143415142Y-93817158D01*
X143504917Y-93806294D01*
X143512445Y-93803314D01*
X143512447Y-93803313D01*
X143598331Y-93769309D01*
X143645153Y-93750771D01*
X143765292Y-93659580D01*
X143856483Y-93539441D01*
X143883899Y-93470196D01*
X143909025Y-93406735D01*
X143909026Y-93406733D01*
X143912006Y-93399205D01*
X143922870Y-93309430D01*
X143922870Y-92571873D01*
X143942872Y-92503752D01*
X143959775Y-92482778D01*
X144605148Y-91837405D01*
X144667460Y-91803379D01*
X144694243Y-91800500D01*
X147168395Y-91800500D01*
X147236516Y-91820502D01*
G37*
%TD.AperFunction*%
%TA.AperFunction,NonConductor*%
G36*
X159432154Y-105148845D02*
G01*
X159473739Y-105206388D01*
X159480959Y-105248429D01*
X159480959Y-107256251D01*
X159460957Y-107324372D01*
X159407301Y-107370865D01*
X159337027Y-107380969D01*
X159272447Y-107351475D01*
X159243707Y-107315404D01*
X159189068Y-107212641D01*
X159164188Y-107165849D01*
X159090829Y-107075902D01*
X159037876Y-107010975D01*
X159037873Y-107010972D01*
X159033981Y-107006200D01*
X159021752Y-106996083D01*
X158879995Y-106878811D01*
X158879991Y-106878809D01*
X158875245Y-106874882D01*
X158694025Y-106776897D01*
X158497224Y-106715977D01*
X158491099Y-106715333D01*
X158491098Y-106715333D01*
X158298468Y-106695087D01*
X158298466Y-106695087D01*
X158292339Y-106694443D01*
X158205499Y-106702346D01*
X158093312Y-106712555D01*
X158093309Y-106712556D01*
X158087173Y-106713114D01*
X157889542Y-106771280D01*
X157706972Y-106866726D01*
X157702171Y-106870586D01*
X157702162Y-106870592D01*
X157638600Y-106921697D01*
X157572978Y-106948793D01*
X157559649Y-106949500D01*
X157544748Y-106949500D01*
X157476627Y-106929498D01*
X157430134Y-106875842D01*
X157420030Y-106805568D01*
X157449524Y-106740988D01*
X157470016Y-106723582D01*
X157469426Y-106722827D01*
X157473982Y-106719267D01*
X157475047Y-106718522D01*
X157475476Y-106718182D01*
X157480983Y-106714794D01*
X157483004Y-106712815D01*
X157485403Y-106711316D01*
X157515108Y-106681818D01*
X157546833Y-106650313D01*
X157547460Y-106649695D01*
X157604672Y-106593669D01*
X157609296Y-106589141D01*
X157610829Y-106586762D01*
X157612835Y-106584770D01*
X157658456Y-106512883D01*
X157675746Y-106491302D01*
X158336978Y-105830070D01*
X158399290Y-105796044D01*
X158416403Y-105793537D01*
X158468270Y-105789546D01*
X158666695Y-105734145D01*
X158672184Y-105731372D01*
X158672190Y-105731370D01*
X158845086Y-105644033D01*
X158850580Y-105641258D01*
X159012921Y-105514424D01*
X159037895Y-105485492D01*
X159143510Y-105363134D01*
X159143510Y-105363133D01*
X159147534Y-105358472D01*
X159192397Y-105279500D01*
X159245403Y-105186192D01*
X159296442Y-105136841D01*
X159366060Y-105122919D01*
X159432154Y-105148845D01*
G37*
%TD.AperFunction*%
M02*
