%TF.GenerationSoftware,KiCad,Pcbnew,(6.0.5-0)*%
%TF.CreationDate,2022-05-22T19:36:29+08:00*%
%TF.ProjectId,StealthBurner,53746561-6c74-4684-9275-726e65722e6b,rev?*%
%TF.SameCoordinates,Original*%
%TF.FileFunction,Copper,L1,Top*%
%TF.FilePolarity,Positive*%
%FSLAX46Y46*%
G04 Gerber Fmt 4.6, Leading zero omitted, Abs format (unit mm)*
G04 Created by KiCad (PCBNEW (6.0.5-0)) date 2022-05-22 19:36:29*
%MOMM*%
%LPD*%
G01*
G04 APERTURE LIST*
G04 Aperture macros list*
%AMRoundRect*
0 Rectangle with rounded corners*
0 $1 Rounding radius*
0 $2 $3 $4 $5 $6 $7 $8 $9 X,Y pos of 4 corners*
0 Add a 4 corners polygon primitive as box body*
4,1,4,$2,$3,$4,$5,$6,$7,$8,$9,$2,$3,0*
0 Add four circle primitives for the rounded corners*
1,1,$1+$1,$2,$3*
1,1,$1+$1,$4,$5*
1,1,$1+$1,$6,$7*
1,1,$1+$1,$8,$9*
0 Add four rect primitives between the rounded corners*
20,1,$1+$1,$2,$3,$4,$5,0*
20,1,$1+$1,$4,$5,$6,$7,0*
20,1,$1+$1,$6,$7,$8,$9,0*
20,1,$1+$1,$8,$9,$2,$3,0*%
G04 Aperture macros list end*
%TA.AperFunction,ComponentPad*%
%ADD10RoundRect,0.250000X0.350000X0.625000X-0.350000X0.625000X-0.350000X-0.625000X0.350000X-0.625000X0*%
%TD*%
%TA.AperFunction,ComponentPad*%
%ADD11O,1.200000X1.750000*%
%TD*%
%TA.AperFunction,SMDPad,CuDef*%
%ADD12RoundRect,0.250000X0.262500X0.450000X-0.262500X0.450000X-0.262500X-0.450000X0.262500X-0.450000X0*%
%TD*%
%TA.AperFunction,ComponentPad*%
%ADD13RoundRect,0.250000X-0.625000X0.350000X-0.625000X-0.350000X0.625000X-0.350000X0.625000X0.350000X0*%
%TD*%
%TA.AperFunction,ComponentPad*%
%ADD14O,1.750000X1.200000*%
%TD*%
%TA.AperFunction,ComponentPad*%
%ADD15C,5.700000*%
%TD*%
%TA.AperFunction,ComponentPad*%
%ADD16RoundRect,0.250001X-0.499999X0.499999X-0.499999X-0.499999X0.499999X-0.499999X0.499999X0.499999X0*%
%TD*%
%TA.AperFunction,ComponentPad*%
%ADD17C,1.500000*%
%TD*%
%TA.AperFunction,ComponentPad*%
%ADD18RoundRect,0.250001X0.499999X0.499999X-0.499999X0.499999X-0.499999X-0.499999X0.499999X-0.499999X0*%
%TD*%
%TA.AperFunction,ComponentPad*%
%ADD19R,1.500000X1.500000*%
%TD*%
%TA.AperFunction,ComponentPad*%
%ADD20O,1.500000X1.500000*%
%TD*%
%TA.AperFunction,ViaPad*%
%ADD21C,0.800000*%
%TD*%
%TA.AperFunction,Conductor*%
%ADD22C,0.300000*%
%TD*%
%TA.AperFunction,Conductor*%
%ADD23C,0.500000*%
%TD*%
G04 APERTURE END LIST*
D10*
%TO.P,J5,1,Pin_1*%
%TO.N,/FS*%
X136037370Y-92641658D03*
D11*
%TO.P,J5,2,Pin_2*%
%TO.N,GND*%
X134037370Y-92641658D03*
%TD*%
D12*
%TO.P,TH1,1*%
%TO.N,/CBT*%
X129499688Y-115214398D03*
%TO.P,TH1,2*%
%TO.N,GNDA*%
X127674688Y-115214398D03*
%TD*%
D13*
%TO.P,J8,1,Pin_1*%
%TO.N,+5V*%
X129247970Y-91796058D03*
D14*
%TO.P,J8,2,Pin_2*%
%TO.N,/DATA*%
X129247970Y-93796058D03*
%TO.P,J8,3,Pin_3*%
%TO.N,GND*%
X129247970Y-95796058D03*
%TD*%
D15*
%TO.P,M1,1*%
%TO.N,GND*%
X134667970Y-113731658D03*
%TD*%
D13*
%TO.P,J6,1,Pin_1*%
%TO.N,/V_FAN*%
X129247970Y-108169198D03*
D14*
%TO.P,J6,2,Pin_2*%
%TO.N,/HEF*%
X129247970Y-110169198D03*
%TD*%
D16*
%TO.P,J9,1,Pin_1*%
%TO.N,+5V*%
X161284970Y-92780058D03*
D17*
%TO.P,J9,2,Pin_2*%
%TO.N,+24V*%
X161284970Y-95780058D03*
%TO.P,J9,3,Pin_3*%
%TO.N,/V_FAN*%
X161284970Y-98780058D03*
%TO.P,J9,4,Pin_4*%
%TO.N,/HE-*%
X161284970Y-101780058D03*
%TO.P,J9,5,Pin_5*%
%TO.N,/HE+*%
X161284970Y-104780058D03*
%TO.P,J9,6,Pin_6*%
%TO.N,/CBT*%
X161284970Y-107780058D03*
%TO.P,J9,7,Pin_7*%
%TO.N,/HET*%
X161284970Y-110780058D03*
%TO.P,J9,8,Pin_8*%
%TO.N,/HEF*%
X161284970Y-113780058D03*
%TO.P,J9,9,Pin_9*%
%TO.N,/PCF*%
X161284970Y-116780058D03*
%TO.P,J9,10,Pin_10*%
%TO.N,/A+*%
X158284970Y-92780058D03*
%TO.P,J9,11,Pin_11*%
%TO.N,/A-*%
X158284970Y-95780058D03*
%TO.P,J9,12,Pin_12*%
%TO.N,/B+*%
X158284970Y-98780058D03*
%TO.P,J9,13,Pin_13*%
%TO.N,/B-*%
X158284970Y-101780058D03*
%TO.P,J9,14,Pin_14*%
%TO.N,/P_SIG*%
X158284970Y-104780058D03*
%TO.P,J9,15,Pin_15*%
%TO.N,/FS*%
X158284970Y-107780058D03*
%TO.P,J9,16,Pin_16*%
%TO.N,/DATA*%
X158284970Y-110780058D03*
%TO.P,J9,17,Pin_17*%
%TO.N,GNDA*%
X158284970Y-113780058D03*
%TO.P,J9,18,Pin_18*%
%TO.N,GND*%
X158284970Y-116780058D03*
%TD*%
D10*
%TO.P,J2,1,Pin_1*%
%TO.N,/A+*%
X154099570Y-92641658D03*
D11*
%TO.P,J2,2,Pin_2*%
%TO.N,/A-*%
X152099570Y-92641658D03*
%TO.P,J2,3,Pin_3*%
%TO.N,/B+*%
X150099570Y-92641658D03*
%TO.P,J2,4,Pin_4*%
%TO.N,/B-*%
X148099570Y-92641658D03*
%TD*%
D18*
%TO.P,J3,1,Pin_1*%
%TO.N,/HE+*%
X139059970Y-99948658D03*
D17*
%TO.P,J3,2,Pin_2*%
%TO.N,/HE-*%
X139059970Y-96948658D03*
%TD*%
D19*
%TO.P,D1,1,K*%
%TO.N,Net-(D1-Pad1)*%
X150921770Y-102965458D03*
D20*
%TO.P,D1,2,A*%
%TO.N,/P_SIG*%
X153461770Y-102965458D03*
%TD*%
D10*
%TO.P,J1,1,Pin_1*%
%TO.N,+24V*%
X152007370Y-107452458D03*
D11*
%TO.P,J1,2,Pin_2*%
%TO.N,Net-(D1-Pad1)*%
X150007370Y-107452458D03*
%TO.P,J1,3,Pin_3*%
%TO.N,GND*%
X148007370Y-107452458D03*
%TD*%
D15*
%TO.P,M2,1*%
%TO.N,GND*%
X146647970Y-100961658D03*
%TD*%
D10*
%TO.P,J4,1,Pin_1*%
%TO.N,/HET*%
X143022370Y-92641658D03*
D11*
%TO.P,J4,2,Pin_2*%
%TO.N,GNDA*%
X141022370Y-92641658D03*
%TD*%
D13*
%TO.P,J7,1,Pin_1*%
%TO.N,/V_FAN*%
X129247970Y-100974858D03*
D14*
%TO.P,J7,2,Pin_2*%
%TO.N,/PCF*%
X129247970Y-102974858D03*
%TD*%
D21*
%TO.N,GND*%
X146679970Y-97123458D03*
X133319570Y-101746258D03*
X140533170Y-107435858D03*
X138450370Y-101949458D03*
X133522770Y-106724658D03*
X133903770Y-95574058D03*
X143250970Y-97225058D03*
X154503170Y-97072658D03*
X144419370Y-107537458D03*
X139644170Y-112896858D03*
%TO.N,GNDA*%
X127782370Y-113989058D03*
%TO.N,/PCF*%
X132379770Y-95294658D03*
%TD*%
D22*
%TO.N,+5V*%
X128023450Y-93020578D02*
X128023450Y-94189362D01*
X159132810Y-90627898D02*
X161284970Y-92780058D01*
X131312970Y-93348882D02*
X131312970Y-92195858D01*
X128579666Y-94745578D02*
X129916274Y-94745578D01*
X131312970Y-92195858D02*
X132880930Y-90627898D01*
X129247970Y-91796058D02*
X128023450Y-93020578D01*
X132880930Y-90627898D02*
X159132810Y-90627898D01*
X129916274Y-94745578D02*
X131312970Y-93348882D01*
X128023450Y-94189362D02*
X128579666Y-94745578D01*
D23*
%TO.N,GNDA*%
X127782370Y-113989058D02*
X127604570Y-114166858D01*
D22*
X127604570Y-115144280D02*
X127674688Y-115214398D01*
D23*
X127604570Y-114166858D02*
X127604570Y-115144280D01*
D22*
%TO.N,Net-(D1-Pad1)*%
X150921770Y-102965458D02*
X150921770Y-106538058D01*
X150921770Y-106538058D02*
X150007370Y-107452458D01*
D23*
%TO.N,+24V*%
X160085459Y-104692658D02*
X160085459Y-96979569D01*
X152879281Y-106580547D02*
X158197570Y-106580547D01*
X158197570Y-106580547D02*
X160085459Y-104692658D01*
X152007370Y-107452458D02*
X152879281Y-106580547D01*
X160085459Y-96979569D02*
X161284970Y-95780058D01*
%TO.N,/A+*%
X158146570Y-92641658D02*
X158284970Y-92780058D01*
X154099570Y-92641658D02*
X158146570Y-92641658D01*
%TO.N,/A-*%
X153424090Y-93966178D02*
X157441890Y-93966178D01*
X157441890Y-93966178D02*
X158284970Y-94809258D01*
X158284970Y-94809258D02*
X158284970Y-95780058D01*
X152099570Y-92641658D02*
X153424090Y-93966178D01*
%TO.N,/B+*%
X156789170Y-97284258D02*
X158284970Y-98780058D01*
X156789170Y-95396258D02*
X156789170Y-97284258D01*
X152123610Y-94665698D02*
X156058610Y-94665698D01*
X150099570Y-92641658D02*
X152123610Y-94665698D01*
X156058610Y-94665698D02*
X156789170Y-95396258D01*
%TO.N,/B-*%
X148099570Y-92641658D02*
X150823129Y-95365217D01*
X150823129Y-95365217D02*
X154878529Y-95365217D01*
X154878529Y-95365217D02*
X155900170Y-96386858D01*
X155900170Y-99395258D02*
X158284970Y-101780058D01*
X155900170Y-96386858D02*
X155900170Y-99395258D01*
%TO.N,/HEF*%
X162984010Y-112081018D02*
X162984010Y-91783400D01*
X127423930Y-108345158D02*
X129247970Y-110169198D01*
X160729468Y-89528858D02*
X129550900Y-89528858D01*
X161284970Y-113780058D02*
X162984010Y-112081018D01*
X162984010Y-91783400D02*
X160729468Y-89528858D01*
X129550900Y-89528858D02*
X127423930Y-91655828D01*
X127423930Y-91655828D02*
X127423930Y-108345158D01*
%TO.N,/PCF*%
X129247970Y-102939128D02*
X129247970Y-102974858D01*
X132379770Y-95294658D02*
X132379770Y-99807328D01*
X132379770Y-99807328D02*
X129247970Y-102939128D01*
D22*
%TO.N,/DATA*%
X162384490Y-108235482D02*
X160898114Y-109721858D01*
X160481138Y-90128378D02*
X162384490Y-92031730D01*
X130472490Y-92571538D02*
X130472490Y-91207538D01*
X130472490Y-91207538D02*
X131551650Y-90128378D01*
X162384490Y-92031730D02*
X162384490Y-108235482D01*
X160898114Y-109721858D02*
X159343170Y-109721858D01*
X129247970Y-93796058D02*
X130472490Y-92571538D01*
X131551650Y-90128378D02*
X160481138Y-90128378D01*
X159343170Y-109721858D02*
X158284970Y-110780058D01*
D23*
%TO.N,/CBT*%
X158741608Y-109345786D02*
X160307336Y-107780058D01*
X141609288Y-109354268D02*
X141617770Y-109345786D01*
X133255360Y-109354268D02*
X141609288Y-109354268D01*
X129499688Y-113109940D02*
X133255360Y-109354268D01*
X141617770Y-109345786D02*
X158741608Y-109345786D01*
X160307336Y-107780058D02*
X161284970Y-107780058D01*
X129499688Y-115214398D02*
X129499688Y-113109940D01*
D22*
%TO.N,/P_SIG*%
X153461770Y-102965458D02*
X154680970Y-102965458D01*
X156495570Y-104780058D02*
X158284970Y-104780058D01*
X154680970Y-102965458D02*
X156495570Y-104780058D01*
%TO.N,/FS*%
X141193570Y-95370858D02*
X138464370Y-92641658D01*
X141193570Y-102508258D02*
X141193570Y-95370858D01*
X158284970Y-107780058D02*
X157388050Y-108676978D01*
X147362290Y-108676978D02*
X141193570Y-102508258D01*
X138464370Y-92641658D02*
X136037370Y-92641658D01*
X157388050Y-108676978D02*
X147362290Y-108676978D01*
%TD*%
%TA.AperFunction,Conductor*%
%TO.N,GND*%
G36*
X168911553Y-89229537D02*
G01*
X168936095Y-89232800D01*
X168946860Y-89230428D01*
X168957875Y-89229961D01*
X168957901Y-89230574D01*
X168970121Y-89229480D01*
X169036465Y-89232021D01*
X169118923Y-89235180D01*
X169139071Y-89237589D01*
X169308609Y-89271879D01*
X169328105Y-89277489D01*
X169489947Y-89338561D01*
X169508298Y-89347234D01*
X169658218Y-89433492D01*
X169674940Y-89444999D01*
X169809073Y-89554219D01*
X169823729Y-89568262D01*
X169938575Y-89697594D01*
X169950787Y-89713808D01*
X170043381Y-89859912D01*
X170052830Y-89877876D01*
X170120760Y-90036944D01*
X170127203Y-90056194D01*
X170168711Y-90224116D01*
X170171978Y-90244150D01*
X170184034Y-90392570D01*
X170183466Y-90404817D01*
X170184079Y-90404817D01*
X170184084Y-90415838D01*
X170182174Y-90426697D01*
X170184093Y-90437553D01*
X170184886Y-90442038D01*
X170186810Y-90463971D01*
X170186810Y-119088692D01*
X170184897Y-119110562D01*
X170182174Y-119126012D01*
X170184089Y-119136869D01*
X170184090Y-119147894D01*
X170183534Y-119147894D01*
X170184124Y-119160173D01*
X170172833Y-119303769D01*
X170169741Y-119323300D01*
X170130439Y-119487039D01*
X170124330Y-119505845D01*
X170059893Y-119661427D01*
X170050916Y-119679045D01*
X169962938Y-119822620D01*
X169951320Y-119838613D01*
X169841954Y-119966668D01*
X169827978Y-119980643D01*
X169699929Y-120090007D01*
X169683933Y-120101629D01*
X169540354Y-120189612D01*
X169522739Y-120198587D01*
X169460305Y-120224446D01*
X169367164Y-120263023D01*
X169348359Y-120269133D01*
X169297572Y-120281324D01*
X169184611Y-120308439D01*
X169165088Y-120311529D01*
X169050240Y-120320562D01*
X169021566Y-120322817D01*
X169009208Y-120322223D01*
X169009208Y-120322769D01*
X168998183Y-120322769D01*
X168987328Y-120320854D01*
X168971879Y-120323577D01*
X168950008Y-120325490D01*
X156832908Y-120325490D01*
X156811038Y-120323577D01*
X156810820Y-120323539D01*
X156795588Y-120320854D01*
X156784731Y-120322769D01*
X156773706Y-120322770D01*
X156773706Y-120322214D01*
X156761426Y-120322804D01*
X156617831Y-120311512D01*
X156598301Y-120308420D01*
X156434567Y-120269119D01*
X156415762Y-120263010D01*
X156260181Y-120198574D01*
X156242572Y-120189603D01*
X156098976Y-120101613D01*
X156082996Y-120090002D01*
X155954950Y-119980643D01*
X155940968Y-119966662D01*
X155831606Y-119838613D01*
X155819985Y-119822617D01*
X155732002Y-119679038D01*
X155723025Y-119661418D01*
X155658594Y-119505853D01*
X155652484Y-119487048D01*
X155652482Y-119487039D01*
X155613180Y-119323300D01*
X155610089Y-119303777D01*
X155610089Y-119303769D01*
X155598793Y-119160141D01*
X155599382Y-119147902D01*
X155598820Y-119147902D01*
X155598821Y-119136876D01*
X155600736Y-119126020D01*
X155598013Y-119110570D01*
X155596100Y-119088699D01*
X155596100Y-117857011D01*
X157637626Y-117857011D01*
X157646922Y-117869026D01*
X157649059Y-117870522D01*
X157658554Y-117876005D01*
X157848083Y-117964384D01*
X157858375Y-117968130D01*
X158060371Y-118022254D01*
X158071166Y-118024157D01*
X158279495Y-118042384D01*
X158290445Y-118042384D01*
X158498774Y-118024157D01*
X158509569Y-118022254D01*
X158711565Y-117968130D01*
X158721857Y-117964384D01*
X158911386Y-117876005D01*
X158920881Y-117870522D01*
X158923856Y-117868439D01*
X158932231Y-117857962D01*
X158925163Y-117844515D01*
X158297782Y-117217134D01*
X158283838Y-117209520D01*
X158282005Y-117209651D01*
X158275390Y-117213902D01*
X157644056Y-117845236D01*
X157637626Y-117857011D01*
X155596100Y-117857011D01*
X155596100Y-116785533D01*
X157022644Y-116785533D01*
X157040871Y-116993862D01*
X157042774Y-117004657D01*
X157096898Y-117206653D01*
X157100644Y-117216945D01*
X157189025Y-117406476D01*
X157194505Y-117415967D01*
X157196589Y-117418944D01*
X157207066Y-117427319D01*
X157220513Y-117420251D01*
X157847894Y-116792870D01*
X157854272Y-116781190D01*
X158714432Y-116781190D01*
X158714563Y-116783023D01*
X158718814Y-116789638D01*
X159350148Y-117420972D01*
X159361922Y-117427402D01*
X159373938Y-117418105D01*
X159375435Y-117415967D01*
X159380915Y-117406476D01*
X159469296Y-117216945D01*
X159473042Y-117206653D01*
X159527166Y-117004657D01*
X159529069Y-116993862D01*
X159547296Y-116785533D01*
X159547296Y-116774583D01*
X159546486Y-116765320D01*
X160229490Y-116765320D01*
X160232907Y-116806007D01*
X160237904Y-116865513D01*
X160246729Y-116970611D01*
X160303514Y-117168644D01*
X160306329Y-117174121D01*
X160306330Y-117174124D01*
X160394867Y-117346399D01*
X160397682Y-117351876D01*
X160525647Y-117513328D01*
X160530340Y-117517322D01*
X160530341Y-117517323D01*
X160567589Y-117549023D01*
X160682534Y-117646849D01*
X160862368Y-117747355D01*
X160957208Y-117778170D01*
X161052441Y-117809114D01*
X161052445Y-117809115D01*
X161058299Y-117811017D01*
X161262864Y-117835409D01*
X161268999Y-117834937D01*
X161269001Y-117834937D01*
X161325009Y-117830627D01*
X161468270Y-117819604D01*
X161474200Y-117817948D01*
X161474202Y-117817948D01*
X161660767Y-117765858D01*
X161660766Y-117765858D01*
X161666695Y-117764203D01*
X161672184Y-117761430D01*
X161672190Y-117761428D01*
X161845086Y-117674091D01*
X161850580Y-117671316D01*
X162012921Y-117544482D01*
X162120154Y-117420251D01*
X162143510Y-117393192D01*
X162143510Y-117393191D01*
X162147534Y-117388530D01*
X162168357Y-117351876D01*
X162232852Y-117238343D01*
X162249293Y-117209402D01*
X162314321Y-117013921D01*
X162340141Y-116809532D01*
X162340419Y-116789638D01*
X162340504Y-116783580D01*
X162340504Y-116783576D01*
X162340553Y-116780058D01*
X162320450Y-116575028D01*
X162260905Y-116377807D01*
X162164188Y-116195907D01*
X162051159Y-116057320D01*
X162037876Y-116041033D01*
X162037873Y-116041030D01*
X162033981Y-116036258D01*
X162016756Y-116022008D01*
X161879995Y-115908869D01*
X161879991Y-115908867D01*
X161875245Y-115904940D01*
X161694025Y-115806955D01*
X161497224Y-115746035D01*
X161491099Y-115745391D01*
X161491098Y-115745391D01*
X161298468Y-115725145D01*
X161298466Y-115725145D01*
X161292339Y-115724501D01*
X161205499Y-115732404D01*
X161093312Y-115742613D01*
X161093309Y-115742614D01*
X161087173Y-115743172D01*
X160889542Y-115801338D01*
X160884077Y-115804195D01*
X160882283Y-115805133D01*
X160706972Y-115896784D01*
X160702171Y-115900644D01*
X160702168Y-115900646D01*
X160618588Y-115967846D01*
X160546417Y-116025873D01*
X160413994Y-116183688D01*
X160411026Y-116189086D01*
X160411023Y-116189091D01*
X160343702Y-116311549D01*
X160314746Y-116364220D01*
X160252454Y-116560590D01*
X160251768Y-116566707D01*
X160251767Y-116566711D01*
X160237529Y-116693650D01*
X160229490Y-116765320D01*
X159546486Y-116765320D01*
X159529069Y-116566254D01*
X159527166Y-116555459D01*
X159473042Y-116353463D01*
X159469296Y-116343171D01*
X159380915Y-116153640D01*
X159375435Y-116144149D01*
X159373351Y-116141172D01*
X159362874Y-116132797D01*
X159349427Y-116139865D01*
X158722046Y-116767246D01*
X158714432Y-116781190D01*
X157854272Y-116781190D01*
X157855508Y-116778926D01*
X157855377Y-116777093D01*
X157851126Y-116770478D01*
X157219792Y-116139144D01*
X157208018Y-116132714D01*
X157196002Y-116142011D01*
X157194505Y-116144149D01*
X157189025Y-116153640D01*
X157100644Y-116343171D01*
X157096898Y-116353463D01*
X157042774Y-116555459D01*
X157040871Y-116566254D01*
X157022644Y-116774583D01*
X157022644Y-116785533D01*
X155596100Y-116785533D01*
X155596100Y-115702154D01*
X157637709Y-115702154D01*
X157644777Y-115715601D01*
X158272158Y-116342982D01*
X158286102Y-116350596D01*
X158287935Y-116350465D01*
X158294550Y-116346214D01*
X158925884Y-115714880D01*
X158932314Y-115703105D01*
X158923018Y-115691090D01*
X158920881Y-115689594D01*
X158911386Y-115684111D01*
X158721857Y-115595732D01*
X158711565Y-115591986D01*
X158509569Y-115537862D01*
X158498774Y-115535959D01*
X158290445Y-115517732D01*
X158279495Y-115517732D01*
X158071166Y-115535959D01*
X158060371Y-115537862D01*
X157858375Y-115591986D01*
X157848083Y-115595732D01*
X157658552Y-115684113D01*
X157649061Y-115689593D01*
X157646084Y-115691677D01*
X157637709Y-115702154D01*
X155596100Y-115702154D01*
X155596100Y-113765320D01*
X157229490Y-113765320D01*
X157230006Y-113771464D01*
X157246148Y-113963687D01*
X157246729Y-113970611D01*
X157248428Y-113976536D01*
X157301357Y-114161120D01*
X157303514Y-114168644D01*
X157306329Y-114174121D01*
X157306330Y-114174124D01*
X157334681Y-114229289D01*
X157397682Y-114351876D01*
X157525647Y-114513328D01*
X157530340Y-114517322D01*
X157530341Y-114517323D01*
X157674360Y-114639892D01*
X157682534Y-114646849D01*
X157862368Y-114747355D01*
X157957208Y-114778171D01*
X158052441Y-114809114D01*
X158052445Y-114809115D01*
X158058299Y-114811017D01*
X158262864Y-114835409D01*
X158268999Y-114834937D01*
X158269001Y-114834937D01*
X158325009Y-114830627D01*
X158468270Y-114819604D01*
X158474200Y-114817948D01*
X158474202Y-114817948D01*
X158660767Y-114765858D01*
X158660766Y-114765858D01*
X158666695Y-114764203D01*
X158672184Y-114761430D01*
X158672190Y-114761428D01*
X158845086Y-114674091D01*
X158850580Y-114671316D01*
X159012921Y-114544482D01*
X159021530Y-114534509D01*
X159143510Y-114393192D01*
X159143510Y-114393191D01*
X159147534Y-114388530D01*
X159160171Y-114366286D01*
X159205706Y-114286129D01*
X159249293Y-114209402D01*
X159314321Y-114013921D01*
X159340141Y-113809532D01*
X159340553Y-113780058D01*
X159320450Y-113575028D01*
X159260905Y-113377807D01*
X159164188Y-113195907D01*
X159038480Y-113041774D01*
X159037876Y-113041033D01*
X159037873Y-113041030D01*
X159033981Y-113036258D01*
X159029232Y-113032329D01*
X158879995Y-112908869D01*
X158879991Y-112908867D01*
X158875245Y-112904940D01*
X158694025Y-112806955D01*
X158497224Y-112746035D01*
X158491099Y-112745391D01*
X158491098Y-112745391D01*
X158298468Y-112725145D01*
X158298466Y-112725145D01*
X158292339Y-112724501D01*
X158205499Y-112732404D01*
X158093312Y-112742613D01*
X158093309Y-112742614D01*
X158087173Y-112743172D01*
X157889542Y-112801338D01*
X157884077Y-112804195D01*
X157815830Y-112839874D01*
X157706972Y-112896784D01*
X157702171Y-112900644D01*
X157702168Y-112900646D01*
X157562563Y-113012891D01*
X157546417Y-113025873D01*
X157413994Y-113183688D01*
X157411026Y-113189086D01*
X157411023Y-113189091D01*
X157332925Y-113331152D01*
X157314746Y-113364220D01*
X157252454Y-113560590D01*
X157251768Y-113566707D01*
X157251767Y-113566711D01*
X157234161Y-113723673D01*
X157229490Y-113765320D01*
X155596100Y-113765320D01*
X155596100Y-111289807D01*
X155598022Y-111267885D01*
X155598818Y-111263380D01*
X155598818Y-111263379D01*
X155600736Y-111252523D01*
X155599764Y-111246998D01*
X155583919Y-111010568D01*
X155572021Y-110952304D01*
X155536249Y-110777123D01*
X155536247Y-110777115D01*
X155535401Y-110772973D01*
X155455455Y-110544031D01*
X155448685Y-110530718D01*
X155347450Y-110331659D01*
X155347449Y-110331658D01*
X155345528Y-110327880D01*
X155343123Y-110324403D01*
X155343120Y-110324397D01*
X155210007Y-110131901D01*
X155210005Y-110131898D01*
X155207603Y-110128425D01*
X155194304Y-110113846D01*
X155188244Y-110107202D01*
X155157112Y-110043395D01*
X155165419Y-109972886D01*
X155210527Y-109918061D01*
X155281331Y-109896286D01*
X157384946Y-109896286D01*
X157453067Y-109916288D01*
X157499560Y-109969944D01*
X157509664Y-110040218D01*
X157481469Y-110103275D01*
X157413994Y-110183688D01*
X157411026Y-110189086D01*
X157411023Y-110189091D01*
X157320830Y-110353153D01*
X157314746Y-110364220D01*
X157252454Y-110560590D01*
X157251768Y-110566707D01*
X157251767Y-110566711D01*
X157230177Y-110759195D01*
X157229490Y-110765320D01*
X157230006Y-110771464D01*
X157245192Y-110952304D01*
X157246729Y-110970611D01*
X157248428Y-110976536D01*
X157298858Y-111152405D01*
X157303514Y-111168644D01*
X157306329Y-111174121D01*
X157306330Y-111174124D01*
X157370906Y-111299775D01*
X157397682Y-111351876D01*
X157525647Y-111513328D01*
X157682534Y-111646849D01*
X157687912Y-111649855D01*
X157687914Y-111649856D01*
X157770184Y-111695835D01*
X157862368Y-111747355D01*
X157957208Y-111778170D01*
X158052441Y-111809114D01*
X158052445Y-111809115D01*
X158058299Y-111811017D01*
X158262864Y-111835409D01*
X158268999Y-111834937D01*
X158269001Y-111834937D01*
X158325009Y-111830627D01*
X158468270Y-111819604D01*
X158474200Y-111817948D01*
X158474202Y-111817948D01*
X158660767Y-111765858D01*
X158660766Y-111765858D01*
X158666695Y-111764203D01*
X158672184Y-111761430D01*
X158672190Y-111761428D01*
X158845086Y-111674091D01*
X158850580Y-111671316D01*
X159012921Y-111544482D01*
X159147534Y-111388530D01*
X159168357Y-111351876D01*
X159202874Y-111291114D01*
X159249293Y-111209402D01*
X159314321Y-111013921D01*
X159340141Y-110809532D01*
X159340553Y-110780058D01*
X159320450Y-110575028D01*
X159297408Y-110498709D01*
X159296867Y-110427714D01*
X159328935Y-110373196D01*
X159492868Y-110209263D01*
X159555180Y-110175237D01*
X159581963Y-110172358D01*
X160207168Y-110172358D01*
X160275289Y-110192360D01*
X160321782Y-110246016D01*
X160331886Y-110316290D01*
X160319632Y-110352934D01*
X160320143Y-110353153D01*
X160317713Y-110358823D01*
X160314746Y-110364220D01*
X160252454Y-110560590D01*
X160251768Y-110566707D01*
X160251767Y-110566711D01*
X160230177Y-110759195D01*
X160229490Y-110765320D01*
X160230006Y-110771464D01*
X160245192Y-110952304D01*
X160246729Y-110970611D01*
X160248428Y-110976536D01*
X160298858Y-111152405D01*
X160303514Y-111168644D01*
X160306329Y-111174121D01*
X160306330Y-111174124D01*
X160370906Y-111299775D01*
X160397682Y-111351876D01*
X160525647Y-111513328D01*
X160682534Y-111646849D01*
X160687912Y-111649855D01*
X160687914Y-111649856D01*
X160770184Y-111695835D01*
X160862368Y-111747355D01*
X160957208Y-111778170D01*
X161052441Y-111809114D01*
X161052445Y-111809115D01*
X161058299Y-111811017D01*
X161262864Y-111835409D01*
X161268999Y-111834937D01*
X161269001Y-111834937D01*
X161325009Y-111830627D01*
X161468270Y-111819604D01*
X161474200Y-111817948D01*
X161474202Y-111817948D01*
X161660767Y-111765858D01*
X161660766Y-111765858D01*
X161666695Y-111764203D01*
X161672184Y-111761430D01*
X161672190Y-111761428D01*
X161845086Y-111674091D01*
X161850580Y-111671316D01*
X162012921Y-111544482D01*
X162147534Y-111388530D01*
X162162599Y-111362012D01*
X162197954Y-111299775D01*
X162248993Y-111250424D01*
X162318611Y-111236502D01*
X162384705Y-111262428D01*
X162426290Y-111319971D01*
X162433510Y-111362012D01*
X162433510Y-111800804D01*
X162413508Y-111868925D01*
X162396605Y-111889899D01*
X161578853Y-112707651D01*
X161516541Y-112741677D01*
X161476588Y-112743866D01*
X161298468Y-112725145D01*
X161298466Y-112725145D01*
X161292339Y-112724501D01*
X161205499Y-112732404D01*
X161093312Y-112742613D01*
X161093309Y-112742614D01*
X161087173Y-112743172D01*
X160889542Y-112801338D01*
X160884077Y-112804195D01*
X160815830Y-112839874D01*
X160706972Y-112896784D01*
X160702171Y-112900644D01*
X160702168Y-112900646D01*
X160562563Y-113012891D01*
X160546417Y-113025873D01*
X160413994Y-113183688D01*
X160411026Y-113189086D01*
X160411023Y-113189091D01*
X160332925Y-113331152D01*
X160314746Y-113364220D01*
X160252454Y-113560590D01*
X160251768Y-113566707D01*
X160251767Y-113566711D01*
X160234161Y-113723673D01*
X160229490Y-113765320D01*
X160230006Y-113771464D01*
X160246148Y-113963687D01*
X160246729Y-113970611D01*
X160248428Y-113976536D01*
X160301357Y-114161120D01*
X160303514Y-114168644D01*
X160306329Y-114174121D01*
X160306330Y-114174124D01*
X160334681Y-114229289D01*
X160397682Y-114351876D01*
X160525647Y-114513328D01*
X160530340Y-114517322D01*
X160530341Y-114517323D01*
X160674360Y-114639892D01*
X160682534Y-114646849D01*
X160862368Y-114747355D01*
X160957208Y-114778171D01*
X161052441Y-114809114D01*
X161052445Y-114809115D01*
X161058299Y-114811017D01*
X161262864Y-114835409D01*
X161268999Y-114834937D01*
X161269001Y-114834937D01*
X161325009Y-114830627D01*
X161468270Y-114819604D01*
X161474200Y-114817948D01*
X161474202Y-114817948D01*
X161660767Y-114765858D01*
X161660766Y-114765858D01*
X161666695Y-114764203D01*
X161672184Y-114761430D01*
X161672190Y-114761428D01*
X161694251Y-114750284D01*
X163802789Y-114750284D01*
X163838877Y-115015453D01*
X163913762Y-115272375D01*
X164025801Y-115515406D01*
X164058042Y-115564582D01*
X164169966Y-115735294D01*
X164169970Y-115735299D01*
X164172532Y-115739207D01*
X164214406Y-115786123D01*
X164342105Y-115929197D01*
X164350730Y-115938861D01*
X164556482Y-116109983D01*
X164560475Y-116112406D01*
X164781276Y-116246392D01*
X164781280Y-116246394D01*
X164785268Y-116248814D01*
X164789576Y-116250621D01*
X164789577Y-116250621D01*
X165027746Y-116350494D01*
X165027751Y-116350496D01*
X165032061Y-116352303D01*
X165036593Y-116353454D01*
X165036596Y-116353455D01*
X165286903Y-116417025D01*
X165286906Y-116417026D01*
X165291440Y-116418177D01*
X165296096Y-116418646D01*
X165296097Y-116418646D01*
X165510572Y-116440242D01*
X165510573Y-116440242D01*
X165513711Y-116440558D01*
X165672914Y-116440558D01*
X165675237Y-116440385D01*
X165675247Y-116440385D01*
X165867182Y-116426122D01*
X165867186Y-116426121D01*
X165871847Y-116425775D01*
X165876411Y-116424742D01*
X165876413Y-116424742D01*
X166083833Y-116377807D01*
X166132861Y-116366713D01*
X166139272Y-116364220D01*
X166377926Y-116271413D01*
X166377928Y-116271412D01*
X166382279Y-116269720D01*
X166423095Y-116246392D01*
X166495503Y-116205007D01*
X166614620Y-116136926D01*
X166824781Y-115971248D01*
X167008145Y-115776327D01*
X167160684Y-115556443D01*
X167279046Y-115316429D01*
X167360632Y-115061555D01*
X167399959Y-114820076D01*
X167402897Y-114802034D01*
X167402897Y-114802033D01*
X167403648Y-114797422D01*
X167405710Y-114639892D01*
X167407090Y-114534509D01*
X167407090Y-114534506D01*
X167407151Y-114529832D01*
X167371063Y-114264663D01*
X167296178Y-114007741D01*
X167184139Y-113764710D01*
X167067636Y-113587014D01*
X167039974Y-113544822D01*
X167039970Y-113544817D01*
X167037408Y-113540909D01*
X166924735Y-113414670D01*
X166862327Y-113344747D01*
X166862325Y-113344745D01*
X166859210Y-113341255D01*
X166653458Y-113170133D01*
X166596991Y-113135868D01*
X166428664Y-113033724D01*
X166428660Y-113033722D01*
X166424672Y-113031302D01*
X166418622Y-113028765D01*
X166182194Y-112929622D01*
X166182189Y-112929620D01*
X166177879Y-112927813D01*
X166173347Y-112926662D01*
X166173344Y-112926661D01*
X165923037Y-112863091D01*
X165923034Y-112863090D01*
X165918500Y-112861939D01*
X165913844Y-112861470D01*
X165913843Y-112861470D01*
X165699368Y-112839874D01*
X165699367Y-112839874D01*
X165696229Y-112839558D01*
X165537026Y-112839558D01*
X165534703Y-112839731D01*
X165534693Y-112839731D01*
X165342758Y-112853994D01*
X165342754Y-112853995D01*
X165338093Y-112854341D01*
X165333529Y-112855374D01*
X165333527Y-112855374D01*
X165263835Y-112871144D01*
X165077079Y-112913403D01*
X165072727Y-112915095D01*
X165072725Y-112915096D01*
X164832014Y-113008703D01*
X164832012Y-113008704D01*
X164827661Y-113010396D01*
X164823607Y-113012713D01*
X164823605Y-113012714D01*
X164784004Y-113035348D01*
X164595320Y-113143190D01*
X164385159Y-113308868D01*
X164201795Y-113503789D01*
X164049256Y-113723673D01*
X164047190Y-113727862D01*
X164047189Y-113727864D01*
X164004892Y-113813635D01*
X163930894Y-113963687D01*
X163929472Y-113968130D01*
X163929471Y-113968132D01*
X163918154Y-114003487D01*
X163849308Y-114218561D01*
X163848558Y-114223167D01*
X163808038Y-114471976D01*
X163806292Y-114482694D01*
X163806231Y-114487371D01*
X163802867Y-114744348D01*
X163802789Y-114750284D01*
X161694251Y-114750284D01*
X161845086Y-114674091D01*
X161850580Y-114671316D01*
X162012921Y-114544482D01*
X162021530Y-114534509D01*
X162143510Y-114393192D01*
X162143510Y-114393191D01*
X162147534Y-114388530D01*
X162160171Y-114366286D01*
X162205706Y-114286129D01*
X162249293Y-114209402D01*
X162314321Y-114013921D01*
X162340141Y-113809532D01*
X162340553Y-113780058D01*
X162321625Y-113587013D01*
X162334885Y-113517267D01*
X162357929Y-113485624D01*
X163362665Y-112480888D01*
X163366474Y-112477235D01*
X163405843Y-112441033D01*
X163412166Y-112435219D01*
X163435105Y-112398221D01*
X163441807Y-112388470D01*
X163468122Y-112353802D01*
X163473656Y-112339825D01*
X163483719Y-112319816D01*
X163487121Y-112314330D01*
X163487123Y-112314326D01*
X163491645Y-112307032D01*
X163494039Y-112298790D01*
X163494041Y-112298787D01*
X163503789Y-112265234D01*
X163507628Y-112254021D01*
X163523645Y-112213565D01*
X163525216Y-112198616D01*
X163529529Y-112176633D01*
X163531883Y-112168532D01*
X163533725Y-112162193D01*
X163534510Y-112151503D01*
X163534510Y-112116799D01*
X163535200Y-112103628D01*
X163538513Y-112072106D01*
X163539411Y-112063564D01*
X163537979Y-112055099D01*
X163537979Y-112055090D01*
X163536275Y-112045018D01*
X163534510Y-112024005D01*
X163534510Y-95050284D01*
X163802789Y-95050284D01*
X163838877Y-95315453D01*
X163913762Y-95572375D01*
X164025801Y-95815406D01*
X164058042Y-95864582D01*
X164169966Y-96035294D01*
X164169970Y-96035299D01*
X164172532Y-96039207D01*
X164261631Y-96139034D01*
X164307663Y-96190608D01*
X164350730Y-96238861D01*
X164381667Y-96264591D01*
X164530688Y-96388530D01*
X164556482Y-96409983D01*
X164560475Y-96412406D01*
X164781276Y-96546392D01*
X164781280Y-96546394D01*
X164785268Y-96548814D01*
X164789576Y-96550621D01*
X164789577Y-96550621D01*
X165027746Y-96650494D01*
X165027751Y-96650496D01*
X165032061Y-96652303D01*
X165036593Y-96653454D01*
X165036596Y-96653455D01*
X165286903Y-96717025D01*
X165286906Y-96717026D01*
X165291440Y-96718177D01*
X165296096Y-96718646D01*
X165296097Y-96718646D01*
X165510572Y-96740242D01*
X165510573Y-96740242D01*
X165513711Y-96740558D01*
X165672914Y-96740558D01*
X165675237Y-96740385D01*
X165675247Y-96740385D01*
X165867182Y-96726122D01*
X165867186Y-96726121D01*
X165871847Y-96725775D01*
X165876411Y-96724742D01*
X165876413Y-96724742D01*
X166108877Y-96672140D01*
X166132861Y-96666713D01*
X166137215Y-96665020D01*
X166377926Y-96571413D01*
X166377928Y-96571412D01*
X166382279Y-96569720D01*
X166412746Y-96552307D01*
X166498980Y-96503020D01*
X166614620Y-96436926D01*
X166824781Y-96271248D01*
X167008145Y-96076327D01*
X167160684Y-95856443D01*
X167166753Y-95844137D01*
X167276981Y-95620617D01*
X167276982Y-95620614D01*
X167279046Y-95616429D01*
X167290336Y-95581161D01*
X167349079Y-95397645D01*
X167360632Y-95361555D01*
X167391916Y-95169462D01*
X167402897Y-95102034D01*
X167402897Y-95102033D01*
X167403648Y-95097422D01*
X167407151Y-94829832D01*
X167371063Y-94564663D01*
X167296178Y-94307741D01*
X167184139Y-94064710D01*
X167128241Y-93979452D01*
X167039974Y-93844822D01*
X167039970Y-93844817D01*
X167037408Y-93840909D01*
X166895381Y-93681781D01*
X166862327Y-93644747D01*
X166862325Y-93644745D01*
X166859210Y-93641255D01*
X166653458Y-93470133D01*
X166609057Y-93443190D01*
X166428664Y-93333724D01*
X166428660Y-93333722D01*
X166424672Y-93331302D01*
X166374817Y-93310396D01*
X166182194Y-93229622D01*
X166182189Y-93229620D01*
X166177879Y-93227813D01*
X166173347Y-93226662D01*
X166173344Y-93226661D01*
X165923037Y-93163091D01*
X165923034Y-93163090D01*
X165918500Y-93161939D01*
X165913844Y-93161470D01*
X165913843Y-93161470D01*
X165699368Y-93139874D01*
X165699367Y-93139874D01*
X165696229Y-93139558D01*
X165537026Y-93139558D01*
X165534703Y-93139731D01*
X165534693Y-93139731D01*
X165342758Y-93153994D01*
X165342754Y-93153995D01*
X165338093Y-93154341D01*
X165333529Y-93155374D01*
X165333527Y-93155374D01*
X165194205Y-93186900D01*
X165077079Y-93213403D01*
X165072727Y-93215095D01*
X165072725Y-93215096D01*
X164832014Y-93308703D01*
X164832012Y-93308704D01*
X164827661Y-93310396D01*
X164823607Y-93312713D01*
X164823605Y-93312714D01*
X164784030Y-93335333D01*
X164595320Y-93443190D01*
X164385159Y-93608868D01*
X164201795Y-93803789D01*
X164049256Y-94023673D01*
X164047190Y-94027862D01*
X164047189Y-94027864D01*
X164013985Y-94095196D01*
X163930894Y-94263687D01*
X163849308Y-94518561D01*
X163832013Y-94624759D01*
X163817963Y-94711033D01*
X163806292Y-94782694D01*
X163805426Y-94848869D01*
X163802856Y-95045187D01*
X163802789Y-95050284D01*
X163534510Y-95050284D01*
X163534510Y-91798393D01*
X163534621Y-91793117D01*
X163536860Y-91739691D01*
X163537220Y-91731106D01*
X163532166Y-91709557D01*
X163527283Y-91688738D01*
X163525120Y-91677067D01*
X163520382Y-91642481D01*
X163519216Y-91633968D01*
X163513245Y-91620170D01*
X163506211Y-91598901D01*
X163504739Y-91592625D01*
X163502778Y-91584264D01*
X163498641Y-91576739D01*
X163498640Y-91576736D01*
X163481815Y-91546132D01*
X163476599Y-91535487D01*
X163459315Y-91495545D01*
X163449852Y-91483859D01*
X163437364Y-91465274D01*
X163433300Y-91457882D01*
X163430117Y-91452092D01*
X163423113Y-91443978D01*
X163398577Y-91419442D01*
X163389752Y-91409641D01*
X163369804Y-91385008D01*
X163369803Y-91385007D01*
X163364396Y-91378330D01*
X163357398Y-91373357D01*
X163357393Y-91373352D01*
X163349062Y-91367432D01*
X163332956Y-91353821D01*
X162378902Y-90399767D01*
X161422667Y-89443533D01*
X161388642Y-89381221D01*
X161393706Y-89310406D01*
X161436253Y-89253570D01*
X161502773Y-89228759D01*
X161511762Y-89228438D01*
X168894947Y-89228438D01*
X168911553Y-89229537D01*
G37*
%TD.AperFunction*%
%TA.AperFunction,Conductor*%
G36*
X128836726Y-89248440D02*
G01*
X128883219Y-89302096D01*
X128893323Y-89372370D01*
X128863829Y-89436950D01*
X128857700Y-89443533D01*
X127045288Y-91255946D01*
X127041479Y-91259599D01*
X126995774Y-91301627D01*
X126972831Y-91338630D01*
X126966130Y-91348380D01*
X126939818Y-91383045D01*
X126935425Y-91394141D01*
X126934284Y-91397023D01*
X126924223Y-91417027D01*
X126916295Y-91429814D01*
X126913898Y-91438065D01*
X126913897Y-91438067D01*
X126904155Y-91471600D01*
X126900310Y-91482830D01*
X126884294Y-91523281D01*
X126883396Y-91531822D01*
X126883396Y-91531823D01*
X126882722Y-91538236D01*
X126878410Y-91560211D01*
X126874215Y-91574653D01*
X126873430Y-91585343D01*
X126873430Y-91620045D01*
X126872740Y-91633215D01*
X126868529Y-91673282D01*
X126869961Y-91681747D01*
X126869961Y-91681756D01*
X126871665Y-91691828D01*
X126873430Y-91712841D01*
X126873430Y-108330165D01*
X126873319Y-108335441D01*
X126870720Y-108397452D01*
X126872682Y-108405817D01*
X126880657Y-108439820D01*
X126882820Y-108451491D01*
X126888724Y-108494590D01*
X126892136Y-108502474D01*
X126892136Y-108502475D01*
X126894695Y-108508388D01*
X126901729Y-108529657D01*
X126905162Y-108544294D01*
X126909299Y-108551819D01*
X126909300Y-108551822D01*
X126926125Y-108582426D01*
X126931341Y-108593071D01*
X126948625Y-108633013D01*
X126958088Y-108644699D01*
X126970575Y-108663283D01*
X126977823Y-108676466D01*
X126984827Y-108684580D01*
X127009363Y-108709116D01*
X127018188Y-108718917D01*
X127038136Y-108743550D01*
X127043544Y-108750228D01*
X127050542Y-108755201D01*
X127050547Y-108755206D01*
X127058878Y-108761126D01*
X127074984Y-108774737D01*
X128077091Y-109776844D01*
X128111117Y-109839156D01*
X128111243Y-109892135D01*
X128093017Y-109977885D01*
X128072470Y-110074552D01*
X128072470Y-110263844D01*
X128073842Y-110270297D01*
X128073842Y-110270301D01*
X128084786Y-110321787D01*
X128111826Y-110449001D01*
X128188819Y-110621928D01*
X128300082Y-110775069D01*
X128304984Y-110779482D01*
X128304985Y-110779484D01*
X128407603Y-110871882D01*
X128440754Y-110901731D01*
X128446475Y-110905034D01*
X128549420Y-110964469D01*
X128604686Y-110996377D01*
X128784714Y-111054872D01*
X128791275Y-111055562D01*
X128791277Y-111055562D01*
X128829680Y-111059598D01*
X128925778Y-111069698D01*
X129570162Y-111069698D01*
X129666260Y-111059598D01*
X129704663Y-111055562D01*
X129704665Y-111055562D01*
X129711226Y-111054872D01*
X129891254Y-110996377D01*
X129946521Y-110964469D01*
X130049465Y-110905034D01*
X130055186Y-110901731D01*
X130088337Y-110871882D01*
X130190955Y-110779484D01*
X130190956Y-110779482D01*
X130195858Y-110775069D01*
X130307121Y-110621928D01*
X130384114Y-110449001D01*
X130411154Y-110321787D01*
X130422098Y-110270301D01*
X130422098Y-110270297D01*
X130423470Y-110263844D01*
X130423470Y-110074552D01*
X130422098Y-110068093D01*
X130401235Y-109969944D01*
X130384114Y-109889395D01*
X130307121Y-109716468D01*
X130291947Y-109695582D01*
X130199737Y-109568666D01*
X130195858Y-109563327D01*
X130055186Y-109436665D01*
X129891254Y-109342019D01*
X129809733Y-109315531D01*
X129751127Y-109275457D01*
X129723490Y-109210061D01*
X129735597Y-109140104D01*
X129783603Y-109087798D01*
X129848669Y-109069698D01*
X129915742Y-109069698D01*
X130005517Y-109058834D01*
X130013045Y-109055854D01*
X130013047Y-109055853D01*
X130082138Y-109028498D01*
X130145753Y-109003311D01*
X130265892Y-108912120D01*
X130357083Y-108791981D01*
X130400837Y-108681470D01*
X130409625Y-108659275D01*
X130409626Y-108659273D01*
X130412606Y-108651745D01*
X130423470Y-108561970D01*
X130423470Y-107776426D01*
X130412606Y-107686651D01*
X130357083Y-107546415D01*
X130265892Y-107426276D01*
X130145753Y-107335085D01*
X130040918Y-107293578D01*
X130013047Y-107282543D01*
X130013045Y-107282542D01*
X130005517Y-107279562D01*
X129915742Y-107268698D01*
X128580198Y-107268698D01*
X128490423Y-107279562D01*
X128482895Y-107282542D01*
X128482893Y-107282543D01*
X128455022Y-107293578D01*
X128350187Y-107335085D01*
X128230048Y-107426276D01*
X128224860Y-107433111D01*
X128200793Y-107464818D01*
X128143675Y-107506984D01*
X128072827Y-107511577D01*
X128010743Y-107477138D01*
X127977134Y-107414600D01*
X127974430Y-107388638D01*
X127974430Y-104378884D01*
X137257789Y-104378884D01*
X137293877Y-104644053D01*
X137368762Y-104900975D01*
X137480801Y-105144006D01*
X137510424Y-105189189D01*
X137624966Y-105363894D01*
X137624970Y-105363899D01*
X137627532Y-105367807D01*
X137805730Y-105567461D01*
X138011482Y-105738583D01*
X138015475Y-105741006D01*
X138236276Y-105874992D01*
X138236280Y-105874994D01*
X138240268Y-105877414D01*
X138244576Y-105879221D01*
X138244577Y-105879221D01*
X138482746Y-105979094D01*
X138482751Y-105979096D01*
X138487061Y-105980903D01*
X138491593Y-105982054D01*
X138491596Y-105982055D01*
X138741903Y-106045625D01*
X138741906Y-106045626D01*
X138746440Y-106046777D01*
X138751096Y-106047246D01*
X138751097Y-106047246D01*
X138965572Y-106068842D01*
X138965573Y-106068842D01*
X138968711Y-106069158D01*
X139127914Y-106069158D01*
X139130237Y-106068985D01*
X139130247Y-106068985D01*
X139322182Y-106054722D01*
X139322186Y-106054721D01*
X139326847Y-106054375D01*
X139331411Y-106053342D01*
X139331413Y-106053342D01*
X139470735Y-106021816D01*
X139587861Y-105995313D01*
X139621954Y-105982055D01*
X139832926Y-105900013D01*
X139832928Y-105900012D01*
X139837279Y-105898320D01*
X139878095Y-105874992D01*
X139975003Y-105819604D01*
X140069620Y-105765526D01*
X140279781Y-105599848D01*
X140463145Y-105404927D01*
X140615684Y-105185043D01*
X140633994Y-105147915D01*
X140731981Y-104949217D01*
X140731982Y-104949214D01*
X140734046Y-104945029D01*
X140815632Y-104690155D01*
X140852360Y-104464633D01*
X140857897Y-104430634D01*
X140857897Y-104430633D01*
X140858648Y-104426022D01*
X140861654Y-104196429D01*
X140862090Y-104163109D01*
X140862090Y-104163106D01*
X140862151Y-104158432D01*
X140826063Y-103893263D01*
X140816220Y-103859491D01*
X140786624Y-103757951D01*
X140751178Y-103636341D01*
X140639139Y-103393310D01*
X140552196Y-103260700D01*
X140494974Y-103173422D01*
X140494970Y-103173417D01*
X140492408Y-103169509D01*
X140314210Y-102969855D01*
X140131562Y-102817948D01*
X140112052Y-102801722D01*
X140112051Y-102801721D01*
X140108458Y-102798733D01*
X140051775Y-102764337D01*
X139883664Y-102662324D01*
X139883660Y-102662322D01*
X139879672Y-102659902D01*
X139869964Y-102655831D01*
X139637194Y-102558222D01*
X139637189Y-102558220D01*
X139632879Y-102556413D01*
X139628347Y-102555262D01*
X139628344Y-102555261D01*
X139378037Y-102491691D01*
X139378034Y-102491690D01*
X139373500Y-102490539D01*
X139368844Y-102490070D01*
X139368843Y-102490070D01*
X139154368Y-102468474D01*
X139154367Y-102468474D01*
X139151229Y-102468158D01*
X138992026Y-102468158D01*
X138989703Y-102468331D01*
X138989693Y-102468331D01*
X138797758Y-102482594D01*
X138797754Y-102482595D01*
X138793093Y-102482941D01*
X138788529Y-102483974D01*
X138788527Y-102483974D01*
X138654963Y-102514197D01*
X138532079Y-102542003D01*
X138527727Y-102543695D01*
X138527725Y-102543696D01*
X138287014Y-102637303D01*
X138287012Y-102637304D01*
X138282661Y-102638996D01*
X138278607Y-102641313D01*
X138278605Y-102641314D01*
X138209857Y-102680607D01*
X138050320Y-102771790D01*
X137840159Y-102937468D01*
X137656795Y-103132389D01*
X137504256Y-103352273D01*
X137502190Y-103356462D01*
X137502189Y-103356464D01*
X137389417Y-103585144D01*
X137385894Y-103592287D01*
X137304308Y-103847161D01*
X137287625Y-103949603D01*
X137272735Y-104041033D01*
X137261292Y-104111294D01*
X137261231Y-104115971D01*
X137258553Y-104320557D01*
X137257789Y-104378884D01*
X127974430Y-104378884D01*
X127974430Y-103520295D01*
X127994432Y-103452174D01*
X128048088Y-103405681D01*
X128118362Y-103395577D01*
X128182942Y-103425071D01*
X128202366Y-103446234D01*
X128300082Y-103580729D01*
X128304984Y-103585142D01*
X128304985Y-103585144D01*
X128435846Y-103702972D01*
X128440754Y-103707391D01*
X128446475Y-103710694D01*
X128577436Y-103786304D01*
X128604686Y-103802037D01*
X128784714Y-103860532D01*
X128791275Y-103861222D01*
X128791277Y-103861222D01*
X128844933Y-103866861D01*
X128925778Y-103875358D01*
X129570162Y-103875358D01*
X129651007Y-103866861D01*
X129704663Y-103861222D01*
X129704665Y-103861222D01*
X129711226Y-103860532D01*
X129891254Y-103802037D01*
X129918505Y-103786304D01*
X130049465Y-103710694D01*
X130055186Y-103707391D01*
X130060094Y-103702972D01*
X130190955Y-103585144D01*
X130190956Y-103585142D01*
X130195858Y-103580729D01*
X130307121Y-103427588D01*
X130384114Y-103254661D01*
X130409289Y-103136222D01*
X130422098Y-103075961D01*
X130422098Y-103075957D01*
X130423470Y-103069504D01*
X130423470Y-102880212D01*
X130421943Y-102873024D01*
X130385485Y-102701505D01*
X130384114Y-102695055D01*
X130381432Y-102689032D01*
X130379581Y-102683334D01*
X130377554Y-102612367D01*
X130410319Y-102555304D01*
X132758412Y-100207210D01*
X132762221Y-100203557D01*
X132801603Y-100167343D01*
X132807926Y-100161529D01*
X132830869Y-100124526D01*
X132837570Y-100114776D01*
X132863882Y-100080111D01*
X132869416Y-100066132D01*
X132879477Y-100046129D01*
X132887405Y-100033342D01*
X132899545Y-99991556D01*
X132903391Y-99980323D01*
X132916243Y-99947863D01*
X132919406Y-99939875D01*
X132920978Y-99924920D01*
X132925290Y-99902945D01*
X132929485Y-99888503D01*
X132930270Y-99877813D01*
X132930270Y-99843111D01*
X132930960Y-99829941D01*
X132934273Y-99798416D01*
X132935171Y-99789874D01*
X132933739Y-99781409D01*
X132933739Y-99781400D01*
X132932035Y-99771328D01*
X132930270Y-99750315D01*
X132930270Y-99405887D01*
X138009470Y-99405887D01*
X138009471Y-100491428D01*
X138009926Y-100495186D01*
X138009926Y-100495191D01*
X138013874Y-100527814D01*
X138020334Y-100581205D01*
X138075858Y-100721441D01*
X138167048Y-100841580D01*
X138287187Y-100932770D01*
X138427423Y-100988294D01*
X138435461Y-100989267D01*
X138435462Y-100989267D01*
X138467033Y-100993087D01*
X138517199Y-100999158D01*
X139059612Y-100999158D01*
X139602740Y-100999157D01*
X139606498Y-100998702D01*
X139606503Y-100998702D01*
X139684487Y-100989266D01*
X139684490Y-100989265D01*
X139692517Y-100988294D01*
X139832753Y-100932770D01*
X139952892Y-100841580D01*
X140044082Y-100721441D01*
X140099606Y-100581205D01*
X140110470Y-100491429D01*
X140110469Y-99405888D01*
X140110014Y-99402125D01*
X140100578Y-99324141D01*
X140100577Y-99324138D01*
X140099606Y-99316111D01*
X140044082Y-99175875D01*
X139952892Y-99055736D01*
X139832753Y-98964546D01*
X139692517Y-98909022D01*
X139684479Y-98908049D01*
X139684478Y-98908049D01*
X139652907Y-98904229D01*
X139602741Y-98898158D01*
X139060328Y-98898158D01*
X138517200Y-98898159D01*
X138513442Y-98898614D01*
X138513437Y-98898614D01*
X138435453Y-98908050D01*
X138435450Y-98908051D01*
X138427423Y-98909022D01*
X138287187Y-98964546D01*
X138167048Y-99055736D01*
X138075858Y-99175875D01*
X138020334Y-99316111D01*
X138009470Y-99405887D01*
X132930270Y-99405887D01*
X132930270Y-96933920D01*
X138004490Y-96933920D01*
X138021729Y-97139211D01*
X138078514Y-97337244D01*
X138081329Y-97342721D01*
X138081330Y-97342724D01*
X138102217Y-97383365D01*
X138172682Y-97520476D01*
X138300647Y-97681928D01*
X138305340Y-97685922D01*
X138305341Y-97685923D01*
X138450999Y-97809887D01*
X138457534Y-97815449D01*
X138462912Y-97818455D01*
X138462914Y-97818456D01*
X138498122Y-97838133D01*
X138637368Y-97915955D01*
X138732208Y-97946771D01*
X138827441Y-97977714D01*
X138827445Y-97977715D01*
X138833299Y-97979617D01*
X139037864Y-98004009D01*
X139043999Y-98003537D01*
X139044001Y-98003537D01*
X139100009Y-97999227D01*
X139243270Y-97988204D01*
X139249200Y-97986548D01*
X139249202Y-97986548D01*
X139435767Y-97934458D01*
X139435766Y-97934458D01*
X139441695Y-97932803D01*
X139447184Y-97930030D01*
X139447190Y-97930028D01*
X139579922Y-97862980D01*
X139625580Y-97839916D01*
X139633405Y-97833803D01*
X139746567Y-97745391D01*
X139787921Y-97713082D01*
X139849602Y-97641624D01*
X139918510Y-97561792D01*
X139918510Y-97561791D01*
X139922534Y-97557130D01*
X139943357Y-97520476D01*
X140021246Y-97383365D01*
X140024293Y-97378002D01*
X140089321Y-97182521D01*
X140115141Y-96978132D01*
X140115553Y-96948658D01*
X140095450Y-96743628D01*
X140035905Y-96546407D01*
X139939188Y-96364507D01*
X139848838Y-96253727D01*
X139812876Y-96209633D01*
X139812873Y-96209630D01*
X139808981Y-96204858D01*
X139791756Y-96190608D01*
X139654995Y-96077469D01*
X139654991Y-96077467D01*
X139650245Y-96073540D01*
X139469025Y-95975555D01*
X139272224Y-95914635D01*
X139266099Y-95913991D01*
X139266098Y-95913991D01*
X139073468Y-95893745D01*
X139073466Y-95893745D01*
X139067339Y-95893101D01*
X138980499Y-95901004D01*
X138868312Y-95911213D01*
X138868309Y-95911214D01*
X138862173Y-95911772D01*
X138664542Y-95969938D01*
X138481972Y-96065384D01*
X138477171Y-96069244D01*
X138477168Y-96069246D01*
X138422538Y-96113170D01*
X138321417Y-96194473D01*
X138188994Y-96352288D01*
X138186026Y-96357686D01*
X138186023Y-96357691D01*
X138106129Y-96503020D01*
X138089746Y-96532820D01*
X138087883Y-96538693D01*
X138030948Y-96718177D01*
X138027454Y-96729190D01*
X138026768Y-96735307D01*
X138026767Y-96735311D01*
X138007276Y-96909084D01*
X138004490Y-96933920D01*
X132930270Y-96933920D01*
X132930270Y-95769620D01*
X132953947Y-95696094D01*
X132993700Y-95640771D01*
X132998131Y-95634605D01*
X133008163Y-95609651D01*
X133058536Y-95484345D01*
X133058537Y-95484343D01*
X133061371Y-95477292D01*
X133076304Y-95372368D01*
X133084679Y-95313520D01*
X133084679Y-95313517D01*
X133085260Y-95309436D01*
X133085415Y-95294658D01*
X133083610Y-95279738D01*
X133079627Y-95246826D01*
X133065046Y-95126338D01*
X133005115Y-94967735D01*
X132995358Y-94953538D01*
X132913384Y-94834266D01*
X132913383Y-94834265D01*
X132909082Y-94828007D01*
X132894166Y-94814717D01*
X132788162Y-94720270D01*
X132788158Y-94720268D01*
X132782491Y-94715218D01*
X132632651Y-94635882D01*
X132468211Y-94594577D01*
X132460613Y-94594537D01*
X132460611Y-94594537D01*
X132383438Y-94594133D01*
X132298665Y-94593689D01*
X132291278Y-94595463D01*
X132291274Y-94595463D01*
X132195380Y-94618486D01*
X132133802Y-94633270D01*
X132127058Y-94636751D01*
X132127055Y-94636752D01*
X132065857Y-94668339D01*
X131983139Y-94711033D01*
X131977417Y-94716025D01*
X131977415Y-94716026D01*
X131940076Y-94748599D01*
X131855374Y-94822489D01*
X131814245Y-94881009D01*
X131767764Y-94947146D01*
X131757883Y-94961205D01*
X131696294Y-95119171D01*
X131695302Y-95126704D01*
X131695302Y-95126705D01*
X131680796Y-95236896D01*
X131674164Y-95287269D01*
X131692769Y-95455793D01*
X131700637Y-95477292D01*
X131731120Y-95560590D01*
X131751036Y-95615014D01*
X131755272Y-95621317D01*
X131755274Y-95621322D01*
X131807852Y-95699567D01*
X131829270Y-95769842D01*
X131829270Y-99527113D01*
X131809268Y-99595234D01*
X131792365Y-99616208D01*
X131138096Y-100270478D01*
X130638565Y-100770009D01*
X130576253Y-100804034D01*
X130505438Y-100798970D01*
X130448602Y-100756423D01*
X130423791Y-100689903D01*
X130423470Y-100680914D01*
X130423470Y-100582086D01*
X130412606Y-100492311D01*
X130357083Y-100352075D01*
X130265892Y-100231936D01*
X130145753Y-100140745D01*
X130080114Y-100114757D01*
X130013047Y-100088203D01*
X130013045Y-100088202D01*
X130005517Y-100085222D01*
X129915742Y-100074358D01*
X128580198Y-100074358D01*
X128490423Y-100085222D01*
X128482895Y-100088202D01*
X128482893Y-100088203D01*
X128415826Y-100114757D01*
X128350187Y-100140745D01*
X128230048Y-100231936D01*
X128224860Y-100238771D01*
X128200793Y-100270478D01*
X128143675Y-100312644D01*
X128072827Y-100317237D01*
X128010743Y-100282798D01*
X127977134Y-100220260D01*
X127974430Y-100194298D01*
X127974430Y-96669075D01*
X127994432Y-96600954D01*
X128048088Y-96554461D01*
X128118362Y-96544357D01*
X128187560Y-96578057D01*
X128278795Y-96665396D01*
X128288166Y-96672796D01*
X128455711Y-96780979D01*
X128466315Y-96786475D01*
X128651282Y-96861019D01*
X128662740Y-96864413D01*
X128859898Y-96902915D01*
X128868761Y-96903992D01*
X128871470Y-96904058D01*
X128929855Y-96904058D01*
X128945094Y-96899583D01*
X128946299Y-96898193D01*
X128947970Y-96890510D01*
X128947970Y-96885943D01*
X129547970Y-96885943D01*
X129552445Y-96901182D01*
X129553835Y-96902387D01*
X129561518Y-96904058D01*
X129572802Y-96904058D01*
X129578778Y-96903773D01*
X129727464Y-96889587D01*
X129739198Y-96887328D01*
X129930569Y-96831186D01*
X129941645Y-96826756D01*
X130118948Y-96735439D01*
X130128994Y-96728989D01*
X130285827Y-96605796D01*
X130294476Y-96597559D01*
X130425182Y-96446935D01*
X130432117Y-96437211D01*
X130531980Y-96264591D01*
X130536954Y-96253727D01*
X130585764Y-96113170D01*
X130586449Y-96099086D01*
X130580590Y-96096058D01*
X129566085Y-96096058D01*
X129550846Y-96100533D01*
X129549641Y-96101923D01*
X129547970Y-96109606D01*
X129547970Y-96885943D01*
X128947970Y-96885943D01*
X128947970Y-95622058D01*
X128967972Y-95553937D01*
X129021628Y-95507444D01*
X129073970Y-95496058D01*
X130572286Y-95496058D01*
X130585817Y-95492085D01*
X130587172Y-95482659D01*
X130576775Y-95439517D01*
X130572889Y-95428232D01*
X130490341Y-95246676D01*
X130484394Y-95236334D01*
X130370916Y-95076359D01*
X130347818Y-95009225D01*
X130364682Y-94940260D01*
X130384591Y-94914364D01*
X131607320Y-93691635D01*
X131618409Y-93681781D01*
X131637679Y-93666589D01*
X131637681Y-93666587D01*
X131645080Y-93660754D01*
X131650616Y-93652745D01*
X131678425Y-93612507D01*
X131680727Y-93609285D01*
X131683171Y-93605977D01*
X131715604Y-93562066D01*
X131717997Y-93555250D01*
X131722101Y-93549313D01*
X131730116Y-93523972D01*
X131733701Y-93512636D01*
X131739796Y-93493363D01*
X131741041Y-93489632D01*
X131757366Y-93443145D01*
X131757366Y-93443143D01*
X131760489Y-93434251D01*
X131760771Y-93427063D01*
X131760782Y-93427004D01*
X131762950Y-93420152D01*
X131763470Y-93413545D01*
X131763470Y-93360866D01*
X131763567Y-93355919D01*
X131765438Y-93308300D01*
X131765808Y-93298888D01*
X131763924Y-93291782D01*
X131763470Y-93283538D01*
X131763470Y-92966490D01*
X132929370Y-92966490D01*
X132929655Y-92972466D01*
X132943841Y-93121152D01*
X132946100Y-93132886D01*
X133002242Y-93324257D01*
X133006672Y-93335333D01*
X133097989Y-93512636D01*
X133104439Y-93522682D01*
X133227632Y-93679515D01*
X133235869Y-93688164D01*
X133386493Y-93818870D01*
X133396217Y-93825805D01*
X133568837Y-93925668D01*
X133579701Y-93930642D01*
X133720258Y-93979452D01*
X133734342Y-93980137D01*
X133737370Y-93974278D01*
X133737370Y-92959773D01*
X133732895Y-92944534D01*
X133731505Y-92943329D01*
X133723822Y-92941658D01*
X132947485Y-92941658D01*
X132932246Y-92946133D01*
X132931041Y-92947523D01*
X132929370Y-92955206D01*
X132929370Y-92966490D01*
X131763470Y-92966490D01*
X131763470Y-92434651D01*
X131783472Y-92366530D01*
X131800375Y-92345556D01*
X133030628Y-91115303D01*
X133092940Y-91081277D01*
X133119723Y-91078398D01*
X133612202Y-91078398D01*
X133680323Y-91098400D01*
X133726816Y-91152056D01*
X133736920Y-91222330D01*
X133707426Y-91286910D01*
X133664353Y-91319099D01*
X133487988Y-91399287D01*
X133477646Y-91405234D01*
X133314973Y-91520626D01*
X133305945Y-91528419D01*
X133168028Y-91672489D01*
X133160632Y-91681854D01*
X133052449Y-91849399D01*
X133046953Y-91860003D01*
X132972409Y-92044970D01*
X132969015Y-92056428D01*
X132930513Y-92253586D01*
X132929436Y-92262449D01*
X132929370Y-92265158D01*
X132929370Y-92323543D01*
X132933845Y-92338782D01*
X132935235Y-92339987D01*
X132942918Y-92341658D01*
X134211370Y-92341658D01*
X134279491Y-92361660D01*
X134325984Y-92415316D01*
X134337370Y-92467658D01*
X134337370Y-93965974D01*
X134341343Y-93979505D01*
X134350769Y-93980860D01*
X134393911Y-93970463D01*
X134405196Y-93966577D01*
X134586752Y-93884029D01*
X134597094Y-93878082D01*
X134759767Y-93762690D01*
X134768795Y-93754897D01*
X134906712Y-93610827D01*
X134914114Y-93601455D01*
X134975725Y-93506037D01*
X135029480Y-93459659D01*
X135099775Y-93449706D01*
X135164293Y-93479338D01*
X135195878Y-93523973D01*
X135195879Y-93523972D01*
X135195887Y-93523986D01*
X135198727Y-93528000D01*
X135203257Y-93539441D01*
X135294448Y-93659580D01*
X135414587Y-93750771D01*
X135448513Y-93764203D01*
X135547293Y-93803313D01*
X135547295Y-93803314D01*
X135554823Y-93806294D01*
X135644598Y-93817158D01*
X136430142Y-93817158D01*
X136519917Y-93806294D01*
X136527445Y-93803314D01*
X136527447Y-93803313D01*
X136626227Y-93764203D01*
X136660153Y-93750771D01*
X136780292Y-93659580D01*
X136871483Y-93539441D01*
X136909609Y-93443145D01*
X136924025Y-93406735D01*
X136924026Y-93406733D01*
X136927006Y-93399205D01*
X136937870Y-93309430D01*
X136937870Y-93218158D01*
X136957872Y-93150037D01*
X137011528Y-93103544D01*
X137063870Y-93092158D01*
X138225577Y-93092158D01*
X138293698Y-93112160D01*
X138314672Y-93129063D01*
X140706165Y-95520556D01*
X140740191Y-95582868D01*
X140743070Y-95609651D01*
X140743070Y-102474038D01*
X140742197Y-102488847D01*
X140738206Y-102522568D01*
X140739898Y-102531832D01*
X140739898Y-102531833D01*
X140748742Y-102580259D01*
X140749392Y-102584162D01*
X140752858Y-102607211D01*
X140758121Y-102642220D01*
X140761249Y-102648733D01*
X140762545Y-102655831D01*
X140789595Y-102707905D01*
X140791338Y-102711395D01*
X140816761Y-102764337D01*
X140821647Y-102769623D01*
X140821680Y-102769671D01*
X140824991Y-102776046D01*
X140829295Y-102781086D01*
X140866522Y-102818313D01*
X140869951Y-102821878D01*
X140908716Y-102863814D01*
X140915075Y-102867507D01*
X140921233Y-102873024D01*
X146628400Y-108580191D01*
X146662426Y-108642503D01*
X146657361Y-108713318D01*
X146614814Y-108770154D01*
X146548294Y-108794965D01*
X146539305Y-108795286D01*
X141632763Y-108795286D01*
X141627487Y-108795175D01*
X141622476Y-108794965D01*
X141565476Y-108792576D01*
X141535590Y-108799586D01*
X141531952Y-108800439D01*
X141503180Y-108803768D01*
X133270353Y-108803768D01*
X133265077Y-108803657D01*
X133260670Y-108803472D01*
X133203066Y-108801058D01*
X133194701Y-108803020D01*
X133160698Y-108810995D01*
X133149027Y-108813158D01*
X133134131Y-108815199D01*
X133105928Y-108819062D01*
X133098044Y-108822474D01*
X133098043Y-108822474D01*
X133092130Y-108825033D01*
X133070861Y-108832067D01*
X133064588Y-108833538D01*
X133064586Y-108833539D01*
X133056224Y-108835500D01*
X133048696Y-108839639D01*
X133048695Y-108839639D01*
X133018095Y-108856462D01*
X133007433Y-108861685D01*
X132975387Y-108875552D01*
X132975386Y-108875553D01*
X132967505Y-108878963D01*
X132960832Y-108884367D01*
X132955819Y-108888426D01*
X132937231Y-108900917D01*
X132924052Y-108908162D01*
X132915938Y-108915165D01*
X132891402Y-108939701D01*
X132881601Y-108948526D01*
X132856968Y-108968474D01*
X132850290Y-108973882D01*
X132845317Y-108980880D01*
X132845312Y-108980885D01*
X132839392Y-108989216D01*
X132825781Y-109005322D01*
X129121046Y-112710058D01*
X129117237Y-112713711D01*
X129071532Y-112755739D01*
X129048589Y-112792742D01*
X129041888Y-112802492D01*
X129015576Y-112837157D01*
X129010042Y-112851135D01*
X128999981Y-112871139D01*
X128992053Y-112883926D01*
X128989656Y-112892177D01*
X128989655Y-112892179D01*
X128979913Y-112925712D01*
X128976068Y-112936942D01*
X128960052Y-112977393D01*
X128959154Y-112985934D01*
X128959154Y-112985935D01*
X128958480Y-112992348D01*
X128954168Y-113014323D01*
X128949973Y-113028765D01*
X128949188Y-113039455D01*
X128949188Y-113074157D01*
X128948498Y-113087327D01*
X128944287Y-113127394D01*
X128945719Y-113135859D01*
X128945719Y-113135868D01*
X128947423Y-113145940D01*
X128949188Y-113166953D01*
X128949188Y-114229289D01*
X128929186Y-114297410D01*
X128899372Y-114329648D01*
X128844266Y-114371476D01*
X128753075Y-114491615D01*
X128730644Y-114548271D01*
X128704340Y-114614707D01*
X128660666Y-114670680D01*
X128593663Y-114694157D01*
X128524604Y-114677681D01*
X128475415Y-114626486D01*
X128470036Y-114614707D01*
X128421301Y-114491615D01*
X128406394Y-114471976D01*
X128381140Y-114405623D01*
X128396336Y-114335121D01*
X128400731Y-114329005D01*
X128403562Y-114321962D01*
X128403565Y-114321957D01*
X128461136Y-114178745D01*
X128461137Y-114178743D01*
X128463971Y-114171692D01*
X128478266Y-114071249D01*
X128487279Y-114007920D01*
X128487279Y-114007917D01*
X128487860Y-114003836D01*
X128488015Y-113989058D01*
X128486210Y-113974138D01*
X128468558Y-113828278D01*
X128467646Y-113820738D01*
X128407715Y-113662135D01*
X128398954Y-113649388D01*
X128315984Y-113528666D01*
X128315983Y-113528665D01*
X128311682Y-113522407D01*
X128270398Y-113485624D01*
X128190762Y-113414670D01*
X128190758Y-113414668D01*
X128185091Y-113409618D01*
X128035251Y-113330282D01*
X127870811Y-113288977D01*
X127863213Y-113288937D01*
X127863211Y-113288937D01*
X127786038Y-113288533D01*
X127701265Y-113288089D01*
X127693878Y-113289863D01*
X127693874Y-113289863D01*
X127559877Y-113322034D01*
X127536402Y-113327670D01*
X127529658Y-113331151D01*
X127529655Y-113331152D01*
X127392487Y-113401950D01*
X127385739Y-113405433D01*
X127257974Y-113516889D01*
X127160483Y-113655605D01*
X127098894Y-113813571D01*
X127097902Y-113821104D01*
X127097902Y-113821105D01*
X127078220Y-113970611D01*
X127076764Y-113981669D01*
X127076936Y-113983229D01*
X127070119Y-114017977D01*
X127070145Y-114017983D01*
X127070010Y-114018533D01*
X127068860Y-114024394D01*
X127064934Y-114034311D01*
X127064036Y-114042852D01*
X127064036Y-114042853D01*
X127063362Y-114049266D01*
X127059050Y-114071241D01*
X127054855Y-114085683D01*
X127054070Y-114096373D01*
X127054070Y-114131075D01*
X127053380Y-114144245D01*
X127049169Y-114184312D01*
X127050601Y-114192777D01*
X127050601Y-114192786D01*
X127052305Y-114202858D01*
X127054070Y-114223871D01*
X127054070Y-114286129D01*
X127034068Y-114354250D01*
X127021634Y-114369678D01*
X127019266Y-114371476D01*
X126928075Y-114491615D01*
X126924913Y-114499602D01*
X126879340Y-114614707D01*
X126872552Y-114631851D01*
X126861688Y-114721626D01*
X126861688Y-115707170D01*
X126872552Y-115796945D01*
X126875532Y-115804473D01*
X126875533Y-115804475D01*
X126901739Y-115870664D01*
X126928075Y-115937181D01*
X127019266Y-116057320D01*
X127139405Y-116148511D01*
X127203020Y-116173698D01*
X127272111Y-116201053D01*
X127272113Y-116201054D01*
X127279641Y-116204034D01*
X127369416Y-116214898D01*
X127979960Y-116214898D01*
X128069735Y-116204034D01*
X128077263Y-116201054D01*
X128077265Y-116201053D01*
X128146356Y-116173698D01*
X128209971Y-116148511D01*
X128330110Y-116057320D01*
X128421301Y-115937181D01*
X128470037Y-115814088D01*
X128513710Y-115758116D01*
X128580713Y-115734639D01*
X128649772Y-115751115D01*
X128698961Y-115802310D01*
X128704338Y-115814085D01*
X128753075Y-115937181D01*
X128844266Y-116057320D01*
X128964405Y-116148511D01*
X129028020Y-116173698D01*
X129097111Y-116201053D01*
X129097113Y-116201054D01*
X129104641Y-116204034D01*
X129194416Y-116214898D01*
X129804960Y-116214898D01*
X129894735Y-116204034D01*
X129902263Y-116201054D01*
X129902265Y-116201053D01*
X129971356Y-116173698D01*
X130034971Y-116148511D01*
X130155110Y-116057320D01*
X130246301Y-115937181D01*
X130272637Y-115870664D01*
X130298843Y-115804475D01*
X130298844Y-115804473D01*
X130301824Y-115796945D01*
X130312688Y-115707170D01*
X130312688Y-114721626D01*
X130301824Y-114631851D01*
X130295037Y-114614707D01*
X130249463Y-114499602D01*
X130246301Y-114491615D01*
X130155110Y-114371476D01*
X130100006Y-114329649D01*
X130057841Y-114272533D01*
X130050188Y-114229289D01*
X130050188Y-113390155D01*
X130070190Y-113322034D01*
X130087093Y-113301060D01*
X131683183Y-111704970D01*
X131745495Y-111670944D01*
X131816310Y-111676009D01*
X131873146Y-111718556D01*
X131897957Y-111785076D01*
X131882866Y-111854450D01*
X131876366Y-111865070D01*
X131793359Y-111986753D01*
X131789829Y-111992581D01*
X131621724Y-112307415D01*
X131618848Y-112313584D01*
X131485724Y-112644739D01*
X131483531Y-112651179D01*
X131386949Y-112994779D01*
X131385466Y-113001414D01*
X131326559Y-113353431D01*
X131325800Y-113360203D01*
X131305254Y-113716520D01*
X131305230Y-113723315D01*
X131323288Y-114079785D01*
X131323998Y-114086541D01*
X131380448Y-114438963D01*
X131381887Y-114445618D01*
X131476064Y-114789873D01*
X131478213Y-114796334D01*
X131609023Y-115128414D01*
X131611854Y-115134597D01*
X131777762Y-115450607D01*
X131781245Y-115456449D01*
X131980310Y-115752689D01*
X131984413Y-115758133D01*
X132079172Y-115870664D01*
X132091911Y-115879107D01*
X132102355Y-115873009D01*
X134242574Y-113732790D01*
X135097432Y-113732790D01*
X135097563Y-113734623D01*
X135101814Y-113741238D01*
X137232515Y-115871939D01*
X137246112Y-115879364D01*
X137255723Y-115872664D01*
X137330160Y-115786123D01*
X137334318Y-115780723D01*
X137536473Y-115486587D01*
X137540020Y-115480776D01*
X137709220Y-115166537D01*
X137712127Y-115160359D01*
X137846405Y-114829674D01*
X137848619Y-114823244D01*
X137946397Y-114479989D01*
X137947904Y-114473359D01*
X138008043Y-114121531D01*
X138008823Y-114114791D01*
X138030710Y-113756933D01*
X138030826Y-113753331D01*
X138030896Y-113733478D01*
X138030804Y-113729851D01*
X138011416Y-113371866D01*
X138010681Y-113365100D01*
X137953004Y-113012891D01*
X137951537Y-113006219D01*
X137856164Y-112662313D01*
X137853990Y-112655850D01*
X137722023Y-112324233D01*
X137719167Y-112318053D01*
X137552164Y-112002639D01*
X137548652Y-111996795D01*
X137348556Y-111701253D01*
X137344443Y-111695835D01*
X137256862Y-111592563D01*
X137244037Y-111584127D01*
X137233713Y-111590179D01*
X135105046Y-113718846D01*
X135097432Y-113732790D01*
X134242574Y-113732790D01*
X136810422Y-111164942D01*
X136817268Y-111152405D01*
X136809041Y-111141318D01*
X136560925Y-110952304D01*
X136555301Y-110948482D01*
X136249692Y-110764127D01*
X136243680Y-110760930D01*
X135919936Y-110610653D01*
X135913636Y-110608133D01*
X135575565Y-110493703D01*
X135568987Y-110491867D01*
X135220562Y-110414623D01*
X135213827Y-110413508D01*
X134859076Y-110374343D01*
X134852294Y-110373964D01*
X134495365Y-110373341D01*
X134488592Y-110373696D01*
X134133684Y-110411624D01*
X134126975Y-110412711D01*
X133778259Y-110488744D01*
X133771684Y-110490555D01*
X133433220Y-110603803D01*
X133426898Y-110606306D01*
X133102650Y-110755443D01*
X133096607Y-110758629D01*
X132807519Y-110931645D01*
X132738795Y-110949465D01*
X132671347Y-110927301D01*
X132626589Y-110872190D01*
X132618731Y-110801630D01*
X132653718Y-110734434D01*
X133446479Y-109941673D01*
X133508791Y-109907647D01*
X133535574Y-109904768D01*
X140739921Y-109904768D01*
X140808042Y-109924770D01*
X140854535Y-109978426D01*
X140864639Y-110048700D01*
X140834654Y-110113843D01*
X140798262Y-110155341D01*
X140667134Y-110351593D01*
X140665311Y-110355289D01*
X140665308Y-110355295D01*
X140566971Y-110554717D01*
X140562747Y-110563283D01*
X140486886Y-110786787D01*
X140486081Y-110790832D01*
X140486080Y-110790838D01*
X140481666Y-110813036D01*
X140440849Y-111018282D01*
X140440579Y-111022399D01*
X140440579Y-111022402D01*
X140427982Y-111214765D01*
X140425882Y-111246828D01*
X140424652Y-111253806D01*
X140427374Y-111269236D01*
X140429288Y-111291114D01*
X140429288Y-116821211D01*
X140427373Y-116843093D01*
X140424652Y-116858523D01*
X140426566Y-116869381D01*
X140426566Y-116880404D01*
X140426009Y-116880404D01*
X140426599Y-116892682D01*
X140415295Y-117036276D01*
X140412202Y-117055804D01*
X140372890Y-117219539D01*
X140366780Y-117238343D01*
X140302338Y-117393911D01*
X140293362Y-117411527D01*
X140205378Y-117555100D01*
X140193756Y-117571096D01*
X140084397Y-117699136D01*
X140070418Y-117713115D01*
X140014701Y-117760700D01*
X139942366Y-117822478D01*
X139926371Y-117834098D01*
X139887428Y-117857962D01*
X139782799Y-117922077D01*
X139765183Y-117931052D01*
X139724504Y-117947902D01*
X139609614Y-117995489D01*
X139590810Y-118001599D01*
X139504772Y-118022254D01*
X139427072Y-118040907D01*
X139407549Y-118044000D01*
X139263783Y-118055313D01*
X139251669Y-118054730D01*
X139251669Y-118055307D01*
X139240645Y-118055307D01*
X139229790Y-118053393D01*
X139214350Y-118056115D01*
X139192474Y-118058029D01*
X127163322Y-118058029D01*
X127141446Y-118056115D01*
X127126006Y-118053393D01*
X127115150Y-118055307D01*
X127104128Y-118055307D01*
X127104128Y-118054751D01*
X127091853Y-118055341D01*
X126948255Y-118044040D01*
X126928727Y-118040947D01*
X126764990Y-118001637D01*
X126746185Y-117995526D01*
X126653064Y-117956953D01*
X126590625Y-117931090D01*
X126573009Y-117922114D01*
X126488821Y-117870522D01*
X126429437Y-117834131D01*
X126413441Y-117822509D01*
X126347113Y-117765858D01*
X126285401Y-117713149D01*
X126271422Y-117699169D01*
X126162065Y-117571123D01*
X126150444Y-117555128D01*
X126062466Y-117411554D01*
X126053490Y-117393935D01*
X125989061Y-117238375D01*
X125982952Y-117219572D01*
X125943646Y-117055830D01*
X125940553Y-117036300D01*
X125934903Y-116964469D01*
X125929235Y-116892422D01*
X125929812Y-116880429D01*
X125929218Y-116880429D01*
X125929219Y-116869409D01*
X125931134Y-116858551D01*
X125928411Y-116843104D01*
X125926498Y-116821230D01*
X125926498Y-116310613D01*
X132518999Y-116310613D01*
X132527137Y-116321619D01*
X132765312Y-116504378D01*
X132770942Y-116508233D01*
X133075899Y-116693650D01*
X133081901Y-116696868D01*
X133405109Y-116848269D01*
X133411414Y-116850817D01*
X133749087Y-116966429D01*
X133755638Y-116968282D01*
X134103808Y-117046745D01*
X134110527Y-117047882D01*
X134465144Y-117088286D01*
X134471934Y-117088689D01*
X134828835Y-117090557D01*
X134835636Y-117090225D01*
X135190656Y-117053538D01*
X135197384Y-117052472D01*
X135546372Y-116977655D01*
X135552920Y-116975876D01*
X135891790Y-116863805D01*
X135898132Y-116861319D01*
X136222891Y-116713318D01*
X136228945Y-116710153D01*
X136535809Y-116527951D01*
X136541490Y-116524148D01*
X136809558Y-116322876D01*
X136818012Y-116311549D01*
X136811267Y-116299219D01*
X134680782Y-114168734D01*
X134666838Y-114161120D01*
X134665005Y-114161251D01*
X134658390Y-114165502D01*
X132525880Y-116298012D01*
X132518999Y-116310613D01*
X125926498Y-116310613D01*
X125926498Y-90434924D01*
X125928856Y-90411246D01*
X125928872Y-90410576D01*
X125931046Y-90399767D01*
X125929392Y-90388866D01*
X125929656Y-90377849D01*
X125930413Y-90377867D01*
X125930166Y-90365635D01*
X125947812Y-90205706D01*
X125952021Y-90184491D01*
X126003256Y-90007491D01*
X126011030Y-89987308D01*
X126030637Y-89947092D01*
X126091788Y-89821666D01*
X126102895Y-89803119D01*
X126210790Y-89653733D01*
X126224912Y-89637351D01*
X126356762Y-89508623D01*
X126373477Y-89494897D01*
X126469003Y-89429326D01*
X126525405Y-89390611D01*
X126544216Y-89379950D01*
X126711741Y-89303185D01*
X126732105Y-89295896D01*
X126815536Y-89273897D01*
X126910287Y-89248913D01*
X126931592Y-89245215D01*
X127092011Y-89231396D01*
X127104120Y-89231934D01*
X127104120Y-89231160D01*
X127115143Y-89231160D01*
X127125998Y-89233074D01*
X127141435Y-89230352D01*
X127163315Y-89228438D01*
X128768605Y-89228438D01*
X128836726Y-89248440D01*
G37*
%TD.AperFunction*%
%TA.AperFunction,Conductor*%
G36*
X158962138Y-91098400D02*
G01*
X158983112Y-91115303D01*
X160197565Y-92329756D01*
X160231591Y-92392068D01*
X160234470Y-92418851D01*
X160234471Y-93322828D01*
X160234926Y-93326586D01*
X160234926Y-93326591D01*
X160243713Y-93399205D01*
X160245334Y-93412605D01*
X160300858Y-93552841D01*
X160392048Y-93672980D01*
X160512187Y-93764170D01*
X160652423Y-93819694D01*
X160660461Y-93820667D01*
X160660462Y-93820667D01*
X160692033Y-93824487D01*
X160742199Y-93830558D01*
X160916935Y-93830558D01*
X161807990Y-93830557D01*
X161876111Y-93850559D01*
X161922604Y-93904215D01*
X161933990Y-93956557D01*
X161933990Y-94725336D01*
X161913988Y-94793457D01*
X161860332Y-94839950D01*
X161790058Y-94850054D01*
X161748062Y-94836172D01*
X161699448Y-94809887D01*
X161699446Y-94809886D01*
X161694025Y-94806955D01*
X161497224Y-94746035D01*
X161491099Y-94745391D01*
X161491098Y-94745391D01*
X161298468Y-94725145D01*
X161298466Y-94725145D01*
X161292339Y-94724501D01*
X161212420Y-94731774D01*
X161093312Y-94742613D01*
X161093309Y-94742614D01*
X161087173Y-94743172D01*
X160889542Y-94801338D01*
X160884077Y-94804195D01*
X160858637Y-94817495D01*
X160706972Y-94896784D01*
X160702171Y-94900644D01*
X160702168Y-94900646D01*
X160581251Y-94997866D01*
X160546417Y-95025873D01*
X160413994Y-95183688D01*
X160411026Y-95189086D01*
X160411023Y-95189091D01*
X160337446Y-95322929D01*
X160314746Y-95364220D01*
X160252454Y-95560590D01*
X160251768Y-95566707D01*
X160251767Y-95566711D01*
X160245721Y-95620617D01*
X160229490Y-95765320D01*
X160241339Y-95906425D01*
X160246729Y-95970611D01*
X160245269Y-95970734D01*
X160238658Y-96034070D01*
X160211195Y-96075309D01*
X159706817Y-96579687D01*
X159703008Y-96583340D01*
X159657303Y-96625368D01*
X159634360Y-96662371D01*
X159627659Y-96672121D01*
X159601347Y-96706786D01*
X159595813Y-96720764D01*
X159585752Y-96740768D01*
X159577824Y-96753555D01*
X159575427Y-96761806D01*
X159575426Y-96761808D01*
X159565684Y-96795341D01*
X159561839Y-96806571D01*
X159545823Y-96847022D01*
X159544925Y-96855563D01*
X159544925Y-96855564D01*
X159544251Y-96861977D01*
X159539939Y-96883952D01*
X159535744Y-96898394D01*
X159534959Y-96909084D01*
X159534959Y-96943786D01*
X159534269Y-96956956D01*
X159530058Y-96997023D01*
X159531490Y-97005488D01*
X159531490Y-97005497D01*
X159533194Y-97015569D01*
X159534959Y-97036582D01*
X159534959Y-98432247D01*
X159514957Y-98500368D01*
X159461301Y-98546861D01*
X159391027Y-98556965D01*
X159326447Y-98527471D01*
X159288337Y-98468665D01*
X159262687Y-98383708D01*
X159262686Y-98383705D01*
X159260905Y-98377807D01*
X159164188Y-98195907D01*
X159090829Y-98105960D01*
X159037876Y-98041033D01*
X159037873Y-98041030D01*
X159033981Y-98036258D01*
X158994999Y-98004009D01*
X158879995Y-97908869D01*
X158879991Y-97908867D01*
X158875245Y-97904940D01*
X158709734Y-97815449D01*
X158699444Y-97809885D01*
X158694025Y-97806955D01*
X158497224Y-97746035D01*
X158491099Y-97745391D01*
X158491098Y-97745391D01*
X158298468Y-97725145D01*
X158298466Y-97725145D01*
X158292339Y-97724501D01*
X158090438Y-97742875D01*
X158020786Y-97729130D01*
X157989925Y-97706489D01*
X157376575Y-97093139D01*
X157342549Y-97030827D01*
X157339670Y-97004044D01*
X157339670Y-96627738D01*
X157359672Y-96559617D01*
X157413328Y-96513124D01*
X157483602Y-96503020D01*
X157547333Y-96531784D01*
X157603619Y-96579687D01*
X157665867Y-96632664D01*
X157682534Y-96646849D01*
X157687912Y-96649855D01*
X157687914Y-96649856D01*
X157731278Y-96674091D01*
X157862368Y-96747355D01*
X157957208Y-96778171D01*
X158052441Y-96809114D01*
X158052445Y-96809115D01*
X158058299Y-96811017D01*
X158262864Y-96835409D01*
X158268999Y-96834937D01*
X158269001Y-96834937D01*
X158325009Y-96830627D01*
X158468270Y-96819604D01*
X158474200Y-96817948D01*
X158474202Y-96817948D01*
X158660767Y-96765858D01*
X158660766Y-96765858D01*
X158666695Y-96764203D01*
X158672184Y-96761430D01*
X158672190Y-96761428D01*
X158845086Y-96674091D01*
X158850580Y-96671316D01*
X158858158Y-96665396D01*
X158978451Y-96571413D01*
X159012921Y-96544482D01*
X159022988Y-96532820D01*
X159143510Y-96393192D01*
X159143510Y-96393191D01*
X159147534Y-96388530D01*
X159168357Y-96351876D01*
X159212517Y-96274139D01*
X159249293Y-96209402D01*
X159314321Y-96013921D01*
X159340141Y-95809532D01*
X159340553Y-95780058D01*
X159320450Y-95575028D01*
X159260905Y-95377807D01*
X159164188Y-95195907D01*
X159057382Y-95064950D01*
X159037876Y-95041033D01*
X159037873Y-95041030D01*
X159033981Y-95036258D01*
X159017402Y-95022542D01*
X158943258Y-94961205D01*
X158881621Y-94910214D01*
X158841882Y-94851381D01*
X158836047Y-94807853D01*
X158836813Y-94789585D01*
X158838180Y-94756964D01*
X158834814Y-94742613D01*
X158828243Y-94714596D01*
X158826080Y-94702925D01*
X158821342Y-94668339D01*
X158820176Y-94659826D01*
X158814205Y-94646028D01*
X158807171Y-94624759D01*
X158805700Y-94618486D01*
X158805699Y-94618484D01*
X158803738Y-94610122D01*
X158782775Y-94571992D01*
X158777553Y-94561331D01*
X158763686Y-94529285D01*
X158763685Y-94529284D01*
X158760275Y-94521403D01*
X158750812Y-94509717D01*
X158738321Y-94491129D01*
X158731076Y-94477950D01*
X158724073Y-94469836D01*
X158699537Y-94445300D01*
X158690712Y-94435499D01*
X158670764Y-94410866D01*
X158670763Y-94410865D01*
X158665356Y-94404188D01*
X158658358Y-94399215D01*
X158658353Y-94399210D01*
X158650022Y-94393290D01*
X158633916Y-94379679D01*
X158295730Y-94041493D01*
X158261704Y-93979181D01*
X158266769Y-93908366D01*
X158309316Y-93851530D01*
X158375158Y-93826769D01*
X158462129Y-93820077D01*
X158462134Y-93820076D01*
X158468270Y-93819604D01*
X158474200Y-93817948D01*
X158474202Y-93817948D01*
X158613071Y-93779175D01*
X158666695Y-93764203D01*
X158672184Y-93761430D01*
X158672190Y-93761428D01*
X158810355Y-93691635D01*
X158850580Y-93671316D01*
X158856631Y-93666589D01*
X158997015Y-93556909D01*
X159012921Y-93544482D01*
X159017273Y-93539441D01*
X159143510Y-93393192D01*
X159143510Y-93393191D01*
X159147534Y-93388530D01*
X159163250Y-93360866D01*
X159203129Y-93290665D01*
X159249293Y-93209402D01*
X159314321Y-93013921D01*
X159340141Y-92809532D01*
X159340553Y-92780058D01*
X159320450Y-92575028D01*
X159260905Y-92377807D01*
X159164188Y-92195907D01*
X159078757Y-92091158D01*
X159037876Y-92041033D01*
X159037873Y-92041030D01*
X159033981Y-92036258D01*
X159029232Y-92032329D01*
X158879995Y-91908869D01*
X158879991Y-91908867D01*
X158875245Y-91904940D01*
X158694025Y-91806955D01*
X158497224Y-91746035D01*
X158491099Y-91745391D01*
X158491098Y-91745391D01*
X158298468Y-91725145D01*
X158298466Y-91725145D01*
X158292339Y-91724501D01*
X158205499Y-91732404D01*
X158093312Y-91742613D01*
X158093309Y-91742614D01*
X158087173Y-91743172D01*
X157889542Y-91801338D01*
X157706972Y-91896784D01*
X157702171Y-91900644D01*
X157702168Y-91900646D01*
X157621454Y-91965542D01*
X157546417Y-92025873D01*
X157542458Y-92030591D01*
X157542456Y-92030593D01*
X157529401Y-92046151D01*
X157470291Y-92085476D01*
X157432881Y-92091158D01*
X155125544Y-92091158D01*
X155057423Y-92071156D01*
X155010930Y-92017500D01*
X155000070Y-91973944D01*
X155000070Y-91973886D01*
X154989206Y-91884111D01*
X154933683Y-91743875D01*
X154842492Y-91623736D01*
X154722353Y-91532545D01*
X154628901Y-91495545D01*
X154589647Y-91480003D01*
X154589645Y-91480002D01*
X154582117Y-91477022D01*
X154492342Y-91466158D01*
X153706798Y-91466158D01*
X153617023Y-91477022D01*
X153609495Y-91480002D01*
X153609493Y-91480003D01*
X153570239Y-91495545D01*
X153476787Y-91532545D01*
X153356648Y-91623736D01*
X153265457Y-91743875D01*
X153209934Y-91884111D01*
X153199070Y-91973886D01*
X153199070Y-92040959D01*
X153179068Y-92109080D01*
X153125412Y-92155573D01*
X153055138Y-92165677D01*
X152990558Y-92136183D01*
X152953237Y-92079895D01*
X152928791Y-92004659D01*
X152926749Y-91998374D01*
X152914799Y-91977675D01*
X152835406Y-91840163D01*
X152832103Y-91834442D01*
X152827684Y-91829534D01*
X152709856Y-91698673D01*
X152709854Y-91698672D01*
X152705441Y-91693770D01*
X152676150Y-91672489D01*
X152557642Y-91586388D01*
X152557641Y-91586387D01*
X152552300Y-91582507D01*
X152379373Y-91505514D01*
X152277526Y-91483866D01*
X152200673Y-91467530D01*
X152200669Y-91467530D01*
X152194216Y-91466158D01*
X152004924Y-91466158D01*
X151998471Y-91467530D01*
X151998467Y-91467530D01*
X151921614Y-91483866D01*
X151819767Y-91505514D01*
X151646840Y-91582507D01*
X151641499Y-91586387D01*
X151641498Y-91586388D01*
X151522990Y-91672489D01*
X151493699Y-91693770D01*
X151489286Y-91698672D01*
X151489284Y-91698673D01*
X151371456Y-91829534D01*
X151367037Y-91834442D01*
X151363734Y-91840163D01*
X151284342Y-91977675D01*
X151272391Y-91998374D01*
X151270349Y-92004659D01*
X151219403Y-92161453D01*
X151179329Y-92220059D01*
X151113933Y-92247696D01*
X151043976Y-92235589D01*
X150991670Y-92187583D01*
X150979737Y-92161453D01*
X150928791Y-92004659D01*
X150926749Y-91998374D01*
X150914799Y-91977675D01*
X150835406Y-91840163D01*
X150832103Y-91834442D01*
X150827684Y-91829534D01*
X150709856Y-91698673D01*
X150709854Y-91698672D01*
X150705441Y-91693770D01*
X150676150Y-91672489D01*
X150557642Y-91586388D01*
X150557641Y-91586387D01*
X150552300Y-91582507D01*
X150379373Y-91505514D01*
X150277526Y-91483866D01*
X150200673Y-91467530D01*
X150200669Y-91467530D01*
X150194216Y-91466158D01*
X150004924Y-91466158D01*
X149998471Y-91467530D01*
X149998467Y-91467530D01*
X149921614Y-91483866D01*
X149819767Y-91505514D01*
X149646840Y-91582507D01*
X149641499Y-91586387D01*
X149641498Y-91586388D01*
X149522990Y-91672489D01*
X149493699Y-91693770D01*
X149489286Y-91698672D01*
X149489284Y-91698673D01*
X149371456Y-91829534D01*
X149367037Y-91834442D01*
X149363734Y-91840163D01*
X149284342Y-91977675D01*
X149272391Y-91998374D01*
X149270349Y-92004659D01*
X149219403Y-92161453D01*
X149179329Y-92220059D01*
X149113933Y-92247696D01*
X149043976Y-92235589D01*
X148991670Y-92187583D01*
X148979737Y-92161453D01*
X148928791Y-92004659D01*
X148926749Y-91998374D01*
X148914799Y-91977675D01*
X148835406Y-91840163D01*
X148832103Y-91834442D01*
X148827684Y-91829534D01*
X148709856Y-91698673D01*
X148709854Y-91698672D01*
X148705441Y-91693770D01*
X148676150Y-91672489D01*
X148557642Y-91586388D01*
X148557641Y-91586387D01*
X148552300Y-91582507D01*
X148379373Y-91505514D01*
X148277526Y-91483866D01*
X148200673Y-91467530D01*
X148200669Y-91467530D01*
X148194216Y-91466158D01*
X148004924Y-91466158D01*
X147998471Y-91467530D01*
X147998467Y-91467530D01*
X147921614Y-91483866D01*
X147819767Y-91505514D01*
X147646840Y-91582507D01*
X147641499Y-91586387D01*
X147641498Y-91586388D01*
X147522990Y-91672489D01*
X147493699Y-91693770D01*
X147489286Y-91698672D01*
X147489284Y-91698673D01*
X147371456Y-91829534D01*
X147367037Y-91834442D01*
X147363734Y-91840163D01*
X147284342Y-91977675D01*
X147272391Y-91998374D01*
X147213896Y-92178402D01*
X147213206Y-92184963D01*
X147213206Y-92184965D01*
X147212272Y-92193856D01*
X147199070Y-92319466D01*
X147199070Y-92963850D01*
X147213896Y-93104914D01*
X147272391Y-93284942D01*
X147275694Y-93290664D01*
X147275695Y-93290665D01*
X147314795Y-93358388D01*
X147367037Y-93448874D01*
X147371455Y-93453781D01*
X147371456Y-93453782D01*
X147475776Y-93569640D01*
X147493699Y-93589546D01*
X147499038Y-93593425D01*
X147629436Y-93688164D01*
X147646840Y-93700809D01*
X147819767Y-93777802D01*
X147917782Y-93798636D01*
X147998467Y-93815786D01*
X147998471Y-93815786D01*
X148004924Y-93817158D01*
X148194216Y-93817158D01*
X148257113Y-93803789D01*
X148376633Y-93778385D01*
X148447423Y-93783787D01*
X148491924Y-93812537D01*
X150423247Y-95743859D01*
X150426900Y-95747668D01*
X150468928Y-95793373D01*
X150505931Y-95816316D01*
X150515681Y-95823017D01*
X150550346Y-95849329D01*
X150564324Y-95854863D01*
X150584328Y-95864924D01*
X150597115Y-95872852D01*
X150605366Y-95875249D01*
X150605368Y-95875250D01*
X150638901Y-95884992D01*
X150650131Y-95888837D01*
X150690582Y-95904853D01*
X150699123Y-95905751D01*
X150699124Y-95905751D01*
X150705537Y-95906425D01*
X150727512Y-95910737D01*
X150741954Y-95914932D01*
X150749437Y-95915481D01*
X150750337Y-95915548D01*
X150750348Y-95915548D01*
X150752644Y-95915717D01*
X150787346Y-95915717D01*
X150800516Y-95916407D01*
X150840583Y-95920618D01*
X150849048Y-95919186D01*
X150849057Y-95919186D01*
X150859129Y-95917482D01*
X150880142Y-95915717D01*
X154598314Y-95915717D01*
X154666435Y-95935719D01*
X154687409Y-95952622D01*
X155312765Y-96577978D01*
X155346791Y-96640290D01*
X155349670Y-96667073D01*
X155349670Y-99380265D01*
X155349559Y-99385541D01*
X155346960Y-99447552D01*
X155348922Y-99455917D01*
X155356897Y-99489920D01*
X155359060Y-99501591D01*
X155364964Y-99544690D01*
X155368376Y-99552574D01*
X155368376Y-99552575D01*
X155370935Y-99558488D01*
X155377969Y-99579757D01*
X155381402Y-99594394D01*
X155385539Y-99601919D01*
X155385540Y-99601922D01*
X155402365Y-99632526D01*
X155407581Y-99643171D01*
X155424865Y-99683113D01*
X155434328Y-99694799D01*
X155446815Y-99713383D01*
X155454063Y-99726566D01*
X155461067Y-99734680D01*
X155485603Y-99759216D01*
X155494428Y-99769017D01*
X155504456Y-99781400D01*
X155519784Y-99800328D01*
X155526782Y-99805301D01*
X155526787Y-99805306D01*
X155535118Y-99811226D01*
X155551224Y-99824837D01*
X157213057Y-101486670D01*
X157247083Y-101548982D01*
X157249177Y-101589807D01*
X157229490Y-101765320D01*
X157230006Y-101771464D01*
X157244916Y-101949016D01*
X157246729Y-101970611D01*
X157248428Y-101976536D01*
X157299315Y-102153999D01*
X157303514Y-102168644D01*
X157306329Y-102174121D01*
X157306330Y-102174124D01*
X157394867Y-102346399D01*
X157397682Y-102351876D01*
X157525647Y-102513328D01*
X157530340Y-102517322D01*
X157530341Y-102517323D01*
X157675367Y-102640749D01*
X157682534Y-102646849D01*
X157687912Y-102649855D01*
X157687914Y-102649856D01*
X157706099Y-102660019D01*
X157862368Y-102747355D01*
X157924245Y-102767460D01*
X158052441Y-102809114D01*
X158052445Y-102809115D01*
X158058299Y-102811017D01*
X158262864Y-102835409D01*
X158268999Y-102834937D01*
X158269001Y-102834937D01*
X158325009Y-102830627D01*
X158468270Y-102819604D01*
X158474200Y-102817948D01*
X158474202Y-102817948D01*
X158647827Y-102769471D01*
X158666695Y-102764203D01*
X158672184Y-102761430D01*
X158672190Y-102761428D01*
X158845086Y-102674091D01*
X158850580Y-102671316D01*
X158857578Y-102665849D01*
X158962133Y-102584162D01*
X159012921Y-102544482D01*
X159018483Y-102538039D01*
X159143510Y-102393192D01*
X159143510Y-102393191D01*
X159147534Y-102388530D01*
X159154351Y-102376531D01*
X159186026Y-102320772D01*
X159249293Y-102209402D01*
X159289401Y-102088833D01*
X159329882Y-102030509D01*
X159395470Y-102003329D01*
X159465341Y-102015924D01*
X159517311Y-102064294D01*
X159534959Y-102128605D01*
X159534959Y-104412443D01*
X159514957Y-104480564D01*
X159498054Y-104501538D01*
X159493461Y-104506131D01*
X159431149Y-104540157D01*
X159360334Y-104535092D01*
X159303498Y-104492545D01*
X159283744Y-104453454D01*
X159276855Y-104430634D01*
X159260905Y-104377807D01*
X159164188Y-104195907D01*
X159070323Y-104080817D01*
X159037876Y-104041033D01*
X159037873Y-104041030D01*
X159033981Y-104036258D01*
X159016756Y-104022008D01*
X158879995Y-103908869D01*
X158879991Y-103908867D01*
X158875245Y-103904940D01*
X158694025Y-103806955D01*
X158497224Y-103746035D01*
X158491099Y-103745391D01*
X158491098Y-103745391D01*
X158298468Y-103725145D01*
X158298466Y-103725145D01*
X158292339Y-103724501D01*
X158205499Y-103732404D01*
X158093312Y-103742613D01*
X158093309Y-103742614D01*
X158087173Y-103743172D01*
X157889542Y-103801338D01*
X157706972Y-103896784D01*
X157702171Y-103900644D01*
X157702168Y-103900646D01*
X157561108Y-104014061D01*
X157546417Y-104025873D01*
X157413994Y-104183688D01*
X157411027Y-104189086D01*
X157411023Y-104189091D01*
X157369700Y-104264259D01*
X157319355Y-104314317D01*
X157259285Y-104329558D01*
X156734363Y-104329558D01*
X156666242Y-104309556D01*
X156645268Y-104292653D01*
X155023723Y-102671108D01*
X155013869Y-102660019D01*
X154998677Y-102640749D01*
X154998675Y-102640747D01*
X154992842Y-102633348D01*
X154985095Y-102627993D01*
X154985093Y-102627992D01*
X154959584Y-102610362D01*
X154944585Y-102599996D01*
X154941373Y-102597701D01*
X154901728Y-102568418D01*
X154901727Y-102568417D01*
X154894154Y-102562824D01*
X154887338Y-102560431D01*
X154881401Y-102556327D01*
X154872421Y-102553487D01*
X154872419Y-102553486D01*
X154843129Y-102544223D01*
X154825451Y-102538632D01*
X154821720Y-102537387D01*
X154775233Y-102521062D01*
X154775231Y-102521062D01*
X154766339Y-102517939D01*
X154759151Y-102517657D01*
X154759092Y-102517646D01*
X154752240Y-102515478D01*
X154745633Y-102514958D01*
X154692954Y-102514958D01*
X154688007Y-102514861D01*
X154630976Y-102512620D01*
X154623870Y-102514504D01*
X154615623Y-102514958D01*
X154487760Y-102514958D01*
X154419639Y-102494956D01*
X154376508Y-102448111D01*
X154344829Y-102388530D01*
X154340988Y-102381307D01*
X154224943Y-102239022D01*
X154214676Y-102226433D01*
X154214673Y-102226430D01*
X154210781Y-102221658D01*
X154153830Y-102174544D01*
X154056795Y-102094269D01*
X154056791Y-102094267D01*
X154052045Y-102090340D01*
X153870825Y-101992355D01*
X153674024Y-101931435D01*
X153667899Y-101930791D01*
X153667898Y-101930791D01*
X153475268Y-101910545D01*
X153475266Y-101910545D01*
X153469139Y-101909901D01*
X153382299Y-101917804D01*
X153270112Y-101928013D01*
X153270109Y-101928014D01*
X153263973Y-101928572D01*
X153066342Y-101986738D01*
X152883772Y-102082184D01*
X152878971Y-102086044D01*
X152878968Y-102086046D01*
X152769421Y-102174124D01*
X152723217Y-102211273D01*
X152590794Y-102369088D01*
X152587826Y-102374486D01*
X152587823Y-102374491D01*
X152510544Y-102515063D01*
X152491546Y-102549620D01*
X152489683Y-102555493D01*
X152441094Y-102708667D01*
X152429254Y-102745990D01*
X152428568Y-102752107D01*
X152428567Y-102752111D01*
X152416041Y-102863785D01*
X152406290Y-102950720D01*
X152423529Y-103156011D01*
X152480314Y-103354044D01*
X152483129Y-103359521D01*
X152483130Y-103359524D01*
X152534364Y-103459215D01*
X152574482Y-103537276D01*
X152702447Y-103698728D01*
X152707140Y-103702722D01*
X152707141Y-103702723D01*
X152851221Y-103825344D01*
X152859334Y-103832249D01*
X152864712Y-103835255D01*
X152864714Y-103835256D01*
X152873113Y-103839950D01*
X153039168Y-103932755D01*
X153104184Y-103953880D01*
X153229241Y-103994514D01*
X153229245Y-103994515D01*
X153235099Y-103996417D01*
X153439664Y-104020809D01*
X153445799Y-104020337D01*
X153445801Y-104020337D01*
X153508440Y-104015517D01*
X153645070Y-104005004D01*
X153651000Y-104003348D01*
X153651002Y-104003348D01*
X153837567Y-103951258D01*
X153837566Y-103951258D01*
X153843495Y-103949603D01*
X153848984Y-103946830D01*
X153848990Y-103946828D01*
X153991156Y-103875014D01*
X154027380Y-103856716D01*
X154033715Y-103851767D01*
X154141253Y-103767749D01*
X154189721Y-103729882D01*
X154193884Y-103725060D01*
X154320310Y-103578592D01*
X154320310Y-103578591D01*
X154324334Y-103573930D01*
X154336295Y-103552876D01*
X154361466Y-103508566D01*
X154412505Y-103459215D01*
X154482123Y-103445293D01*
X154548217Y-103471219D01*
X154560117Y-103481708D01*
X156152817Y-105074408D01*
X156162671Y-105085497D01*
X156177864Y-105104768D01*
X156183698Y-105112168D01*
X156191446Y-105117523D01*
X156191448Y-105117525D01*
X156231970Y-105145532D01*
X156235189Y-105147832D01*
X156282387Y-105182692D01*
X156289201Y-105185085D01*
X156295139Y-105189189D01*
X156304116Y-105192028D01*
X156304118Y-105192029D01*
X156351087Y-105206883D01*
X156354836Y-105208134D01*
X156410201Y-105227577D01*
X156417388Y-105227859D01*
X156417450Y-105227871D01*
X156424300Y-105230038D01*
X156430907Y-105230558D01*
X156483586Y-105230558D01*
X156488532Y-105230655D01*
X156545564Y-105232896D01*
X156552670Y-105231012D01*
X156560917Y-105230558D01*
X157258423Y-105230558D01*
X157326544Y-105250560D01*
X157370488Y-105298961D01*
X157397682Y-105351876D01*
X157525647Y-105513328D01*
X157530340Y-105517322D01*
X157530341Y-105517323D01*
X157634712Y-105606149D01*
X157682534Y-105646849D01*
X157862368Y-105747355D01*
X157925430Y-105767845D01*
X157961078Y-105779428D01*
X158019684Y-105819502D01*
X158047321Y-105884898D01*
X158035214Y-105954855D01*
X158011237Y-105988356D01*
X158006451Y-105993142D01*
X157944139Y-106027168D01*
X157917356Y-106030047D01*
X152894274Y-106030047D01*
X152888998Y-106029936D01*
X152884591Y-106029751D01*
X152826987Y-106027337D01*
X152818622Y-106029299D01*
X152784619Y-106037274D01*
X152772948Y-106039437D01*
X152758052Y-106041478D01*
X152729849Y-106045341D01*
X152721965Y-106048753D01*
X152721964Y-106048753D01*
X152716051Y-106051312D01*
X152694782Y-106058346D01*
X152688509Y-106059817D01*
X152688507Y-106059818D01*
X152680145Y-106061779D01*
X152672617Y-106065918D01*
X152672616Y-106065918D01*
X152642016Y-106082741D01*
X152631354Y-106087964D01*
X152599308Y-106101831D01*
X152599307Y-106101832D01*
X152591426Y-106105242D01*
X152580637Y-106113979D01*
X152579740Y-106114705D01*
X152561152Y-106127196D01*
X152547973Y-106134441D01*
X152539859Y-106141445D01*
X152515324Y-106165980D01*
X152505523Y-106174805D01*
X152474211Y-106200161D01*
X152469235Y-106207163D01*
X152469233Y-106207165D01*
X152463313Y-106215496D01*
X152449702Y-106231602D01*
X152441251Y-106240053D01*
X152378939Y-106274079D01*
X152352156Y-106276958D01*
X151614598Y-106276958D01*
X151573300Y-106281956D01*
X151532860Y-106286849D01*
X151532857Y-106286850D01*
X151524823Y-106287822D01*
X151524795Y-106287592D01*
X151458334Y-106285138D01*
X151400065Y-106244576D01*
X151372976Y-106178951D01*
X151372270Y-106165634D01*
X151372270Y-104141958D01*
X151392272Y-104073837D01*
X151445928Y-104027344D01*
X151498270Y-104015958D01*
X151716416Y-104015958D01*
X151720120Y-104015517D01*
X151720123Y-104015517D01*
X151727516Y-104014637D01*
X151742616Y-104012840D01*
X151760258Y-104005004D01*
X151834288Y-103972121D01*
X151844923Y-103967397D01*
X151858417Y-103953880D01*
X151910197Y-103902009D01*
X151924011Y-103888171D01*
X151935926Y-103861222D01*
X151965445Y-103794450D01*
X151969276Y-103785785D01*
X151972270Y-103760104D01*
X151972270Y-102170812D01*
X151969152Y-102144612D01*
X151943744Y-102087409D01*
X151928433Y-102052940D01*
X151923709Y-102042305D01*
X151911893Y-102030509D01*
X151852715Y-101971435D01*
X151844483Y-101963217D01*
X151833846Y-101958514D01*
X151833844Y-101958513D01*
X151774308Y-101932193D01*
X151742097Y-101917952D01*
X151716416Y-101914958D01*
X150127124Y-101914958D01*
X150123420Y-101915399D01*
X150123417Y-101915399D01*
X150116024Y-101916279D01*
X150100924Y-101918076D01*
X150079353Y-101927658D01*
X150008982Y-101937031D01*
X149944711Y-101906869D01*
X149906949Y-101846748D01*
X149907027Y-101777988D01*
X149926400Y-101709977D01*
X149927904Y-101703359D01*
X149988043Y-101351531D01*
X149988823Y-101344791D01*
X150010710Y-100986933D01*
X150010826Y-100983331D01*
X150010896Y-100963478D01*
X150010804Y-100959851D01*
X149991416Y-100601866D01*
X149990681Y-100595100D01*
X149933004Y-100242891D01*
X149931537Y-100236219D01*
X149836164Y-99892313D01*
X149833990Y-99885850D01*
X149702023Y-99554233D01*
X149699167Y-99548053D01*
X149532164Y-99232639D01*
X149528652Y-99226795D01*
X149328556Y-98931253D01*
X149324443Y-98925835D01*
X149236862Y-98822563D01*
X149224037Y-98814127D01*
X149213713Y-98820179D01*
X147085046Y-100948846D01*
X147077432Y-100962790D01*
X147077563Y-100964623D01*
X147081814Y-100971238D01*
X149212515Y-103101939D01*
X149226112Y-103109364D01*
X149235723Y-103102664D01*
X149310160Y-103016123D01*
X149314318Y-103010723D01*
X149516473Y-102716587D01*
X149520020Y-102710776D01*
X149634330Y-102498479D01*
X149684237Y-102447983D01*
X149753521Y-102432484D01*
X149820186Y-102456904D01*
X149863065Y-102513489D01*
X149871270Y-102558214D01*
X149871270Y-103760104D01*
X149874388Y-103786304D01*
X149878226Y-103794944D01*
X149878226Y-103794945D01*
X149903981Y-103852927D01*
X149919831Y-103888611D01*
X149999057Y-103967699D01*
X150009694Y-103972402D01*
X150009696Y-103972403D01*
X150059710Y-103994514D01*
X150101443Y-104012964D01*
X150127124Y-104015958D01*
X150345270Y-104015958D01*
X150413391Y-104035960D01*
X150459884Y-104089616D01*
X150471270Y-104141958D01*
X150471270Y-106204257D01*
X150451268Y-106272378D01*
X150397612Y-106318871D01*
X150327338Y-106328975D01*
X150299513Y-106320947D01*
X150299483Y-106321040D01*
X150296682Y-106320130D01*
X150294014Y-106319360D01*
X150287173Y-106316314D01*
X150280718Y-106314942D01*
X150280715Y-106314941D01*
X150108473Y-106278330D01*
X150108469Y-106278330D01*
X150102016Y-106276958D01*
X149912724Y-106276958D01*
X149906271Y-106278330D01*
X149906267Y-106278330D01*
X149825582Y-106295480D01*
X149727567Y-106316314D01*
X149554640Y-106393307D01*
X149549299Y-106397187D01*
X149549298Y-106397188D01*
X149525331Y-106414601D01*
X149401499Y-106504570D01*
X149397086Y-106509472D01*
X149397084Y-106509473D01*
X149279256Y-106640334D01*
X149274837Y-106645242D01*
X149271534Y-106650963D01*
X149234222Y-106715589D01*
X149182839Y-106764582D01*
X149113126Y-106778018D01*
X149047215Y-106751632D01*
X149013087Y-106710281D01*
X148946751Y-106581480D01*
X148940301Y-106571434D01*
X148817108Y-106414601D01*
X148808871Y-106405952D01*
X148658247Y-106275246D01*
X148648523Y-106268311D01*
X148475903Y-106168448D01*
X148465039Y-106163474D01*
X148324482Y-106114664D01*
X148310398Y-106113979D01*
X148307370Y-106119838D01*
X148307370Y-107626458D01*
X148287368Y-107694579D01*
X148233712Y-107741072D01*
X148181370Y-107752458D01*
X147833370Y-107752458D01*
X147765249Y-107732456D01*
X147718756Y-107678800D01*
X147707370Y-107626458D01*
X147707370Y-106128142D01*
X147703397Y-106114611D01*
X147693971Y-106113256D01*
X147650829Y-106123653D01*
X147639544Y-106127539D01*
X147457988Y-106210087D01*
X147447646Y-106216034D01*
X147284973Y-106331426D01*
X147275945Y-106339219D01*
X147138028Y-106483289D01*
X147130632Y-106492654D01*
X147022449Y-106660199D01*
X147016953Y-106670803D01*
X146942409Y-106855770D01*
X146939015Y-106867228D01*
X146900513Y-107064386D01*
X146899436Y-107073249D01*
X146899370Y-107075958D01*
X146899370Y-107272765D01*
X146879368Y-107340886D01*
X146825712Y-107387379D01*
X146755438Y-107397483D01*
X146690858Y-107367989D01*
X146684275Y-107361860D01*
X142863028Y-103540613D01*
X144498999Y-103540613D01*
X144507137Y-103551619D01*
X144745312Y-103734378D01*
X144750942Y-103738233D01*
X145055899Y-103923650D01*
X145061901Y-103926868D01*
X145385109Y-104078269D01*
X145391414Y-104080817D01*
X145729087Y-104196429D01*
X145735638Y-104198282D01*
X146083808Y-104276745D01*
X146090527Y-104277882D01*
X146445144Y-104318286D01*
X146451934Y-104318689D01*
X146808835Y-104320557D01*
X146815636Y-104320225D01*
X147170656Y-104283538D01*
X147177384Y-104282472D01*
X147526372Y-104207655D01*
X147532920Y-104205876D01*
X147871790Y-104093805D01*
X147878132Y-104091319D01*
X148202891Y-103943318D01*
X148208945Y-103940153D01*
X148515809Y-103757951D01*
X148521490Y-103754148D01*
X148789558Y-103552876D01*
X148798012Y-103541549D01*
X148791267Y-103529219D01*
X146660782Y-101398734D01*
X146646838Y-101391120D01*
X146645005Y-101391251D01*
X146638390Y-101395502D01*
X144505880Y-103528012D01*
X144498999Y-103540613D01*
X142863028Y-103540613D01*
X141680975Y-102358560D01*
X141646949Y-102296248D01*
X141644070Y-102269465D01*
X141644070Y-100953315D01*
X143285230Y-100953315D01*
X143303288Y-101309785D01*
X143303998Y-101316541D01*
X143360448Y-101668963D01*
X143361887Y-101675618D01*
X143456064Y-102019873D01*
X143458213Y-102026334D01*
X143589023Y-102358414D01*
X143591854Y-102364597D01*
X143757762Y-102680607D01*
X143761245Y-102686449D01*
X143960310Y-102982689D01*
X143964413Y-102988133D01*
X144059172Y-103100664D01*
X144071911Y-103109107D01*
X144082355Y-103103009D01*
X146210894Y-100974470D01*
X146218508Y-100960526D01*
X146218377Y-100958693D01*
X146214126Y-100952078D01*
X144083530Y-98821482D01*
X144069993Y-98814090D01*
X144060292Y-98820877D01*
X143978619Y-98916505D01*
X143974485Y-98921913D01*
X143773364Y-99216744D01*
X143769829Y-99222581D01*
X143601724Y-99537415D01*
X143598848Y-99543584D01*
X143465724Y-99874739D01*
X143463531Y-99881179D01*
X143366949Y-100224779D01*
X143365466Y-100231414D01*
X143306559Y-100583431D01*
X143305800Y-100590203D01*
X143285254Y-100946520D01*
X143285230Y-100953315D01*
X141644070Y-100953315D01*
X141644070Y-98382227D01*
X144498307Y-98382227D01*
X144505014Y-98394438D01*
X146635158Y-100524582D01*
X146649102Y-100532196D01*
X146650935Y-100532065D01*
X146657550Y-100527814D01*
X148790422Y-98394942D01*
X148797268Y-98382405D01*
X148789041Y-98371318D01*
X148540925Y-98182304D01*
X148535301Y-98178482D01*
X148229692Y-97994127D01*
X148223680Y-97990930D01*
X147899936Y-97840653D01*
X147893636Y-97838133D01*
X147555565Y-97723703D01*
X147548987Y-97721867D01*
X147200562Y-97644623D01*
X147193827Y-97643508D01*
X146839076Y-97604343D01*
X146832294Y-97603964D01*
X146475365Y-97603341D01*
X146468592Y-97603696D01*
X146113684Y-97641624D01*
X146106975Y-97642711D01*
X145758259Y-97718744D01*
X145751684Y-97720555D01*
X145413220Y-97833803D01*
X145406898Y-97836306D01*
X145082650Y-97985443D01*
X145076607Y-97988629D01*
X144770374Y-98171906D01*
X144764714Y-98175724D01*
X144506766Y-98370810D01*
X144498307Y-98382227D01*
X141644070Y-98382227D01*
X141644070Y-95405078D01*
X141644943Y-95390269D01*
X141647827Y-95365901D01*
X141648934Y-95356548D01*
X141647242Y-95347284D01*
X141647242Y-95347280D01*
X141638397Y-95298847D01*
X141637748Y-95294946D01*
X141630421Y-95246213D01*
X141630419Y-95246205D01*
X141629019Y-95236896D01*
X141625893Y-95230386D01*
X141624596Y-95223285D01*
X141604028Y-95183688D01*
X141597552Y-95171221D01*
X141595784Y-95167683D01*
X141574456Y-95123269D01*
X141570379Y-95114779D01*
X141565492Y-95109493D01*
X141565465Y-95109453D01*
X141562150Y-95103070D01*
X141557845Y-95098030D01*
X141520618Y-95060803D01*
X141517188Y-95057237D01*
X141488196Y-95025873D01*
X141478424Y-95015302D01*
X141472065Y-95011609D01*
X141465907Y-95006092D01*
X139423665Y-92963850D01*
X140121870Y-92963850D01*
X140136696Y-93104914D01*
X140195191Y-93284942D01*
X140198494Y-93290664D01*
X140198495Y-93290665D01*
X140237595Y-93358388D01*
X140289837Y-93448874D01*
X140294255Y-93453781D01*
X140294256Y-93453782D01*
X140398576Y-93569640D01*
X140416499Y-93589546D01*
X140421838Y-93593425D01*
X140552236Y-93688164D01*
X140569640Y-93700809D01*
X140742567Y-93777802D01*
X140840582Y-93798636D01*
X140921267Y-93815786D01*
X140921271Y-93815786D01*
X140927724Y-93817158D01*
X141117016Y-93817158D01*
X141123469Y-93815786D01*
X141123473Y-93815786D01*
X141204158Y-93798636D01*
X141302173Y-93777802D01*
X141475100Y-93700809D01*
X141492505Y-93688164D01*
X141622902Y-93593425D01*
X141628241Y-93589546D01*
X141646165Y-93569640D01*
X141750484Y-93453782D01*
X141750485Y-93453781D01*
X141754903Y-93448874D01*
X141807145Y-93358388D01*
X141846245Y-93290665D01*
X141846246Y-93290664D01*
X141849549Y-93284942D01*
X141871249Y-93218158D01*
X141876037Y-93203421D01*
X141916111Y-93144815D01*
X141981507Y-93117178D01*
X142051464Y-93129285D01*
X142103770Y-93177291D01*
X142121870Y-93242357D01*
X142121870Y-93309430D01*
X142132734Y-93399205D01*
X142135714Y-93406733D01*
X142135715Y-93406735D01*
X142150131Y-93443145D01*
X142188257Y-93539441D01*
X142279448Y-93659580D01*
X142399587Y-93750771D01*
X142433513Y-93764203D01*
X142532293Y-93803313D01*
X142532295Y-93803314D01*
X142539823Y-93806294D01*
X142629598Y-93817158D01*
X143415142Y-93817158D01*
X143504917Y-93806294D01*
X143512445Y-93803314D01*
X143512447Y-93803313D01*
X143611227Y-93764203D01*
X143645153Y-93750771D01*
X143765292Y-93659580D01*
X143856483Y-93539441D01*
X143894609Y-93443145D01*
X143909025Y-93406735D01*
X143909026Y-93406733D01*
X143912006Y-93399205D01*
X143922870Y-93309430D01*
X143922870Y-91973886D01*
X143912006Y-91884111D01*
X143856483Y-91743875D01*
X143765292Y-91623736D01*
X143645153Y-91532545D01*
X143551701Y-91495545D01*
X143512447Y-91480003D01*
X143512445Y-91480002D01*
X143504917Y-91477022D01*
X143415142Y-91466158D01*
X142629598Y-91466158D01*
X142539823Y-91477022D01*
X142532295Y-91480002D01*
X142532293Y-91480003D01*
X142493039Y-91495545D01*
X142399587Y-91532545D01*
X142279448Y-91623736D01*
X142188257Y-91743875D01*
X142132734Y-91884111D01*
X142121870Y-91973886D01*
X142121870Y-92040959D01*
X142101868Y-92109080D01*
X142048212Y-92155573D01*
X141977938Y-92165677D01*
X141913358Y-92136183D01*
X141876037Y-92079895D01*
X141851591Y-92004659D01*
X141849549Y-91998374D01*
X141837599Y-91977675D01*
X141758206Y-91840163D01*
X141754903Y-91834442D01*
X141750484Y-91829534D01*
X141632656Y-91698673D01*
X141632654Y-91698672D01*
X141628241Y-91693770D01*
X141598950Y-91672489D01*
X141480442Y-91586388D01*
X141480441Y-91586387D01*
X141475100Y-91582507D01*
X141302173Y-91505514D01*
X141200326Y-91483866D01*
X141123473Y-91467530D01*
X141123469Y-91467530D01*
X141117016Y-91466158D01*
X140927724Y-91466158D01*
X140921271Y-91467530D01*
X140921267Y-91467530D01*
X140844414Y-91483866D01*
X140742567Y-91505514D01*
X140569640Y-91582507D01*
X140564299Y-91586387D01*
X140564298Y-91586388D01*
X140445790Y-91672489D01*
X140416499Y-91693770D01*
X140412086Y-91698672D01*
X140412084Y-91698673D01*
X140294256Y-91829534D01*
X140289837Y-91834442D01*
X140286534Y-91840163D01*
X140207142Y-91977675D01*
X140195191Y-91998374D01*
X140136696Y-92178402D01*
X140136006Y-92184963D01*
X140136006Y-92184965D01*
X140135072Y-92193856D01*
X140121870Y-92319466D01*
X140121870Y-92963850D01*
X139423665Y-92963850D01*
X138807123Y-92347308D01*
X138797269Y-92336219D01*
X138782077Y-92316949D01*
X138782075Y-92316947D01*
X138776242Y-92309548D01*
X138768495Y-92304193D01*
X138768493Y-92304192D01*
X138727995Y-92276203D01*
X138724773Y-92273901D01*
X138685128Y-92244618D01*
X138685127Y-92244617D01*
X138677554Y-92239024D01*
X138670738Y-92236631D01*
X138664801Y-92232527D01*
X138655821Y-92229687D01*
X138655819Y-92229686D01*
X138625378Y-92220059D01*
X138608851Y-92214832D01*
X138605120Y-92213587D01*
X138558633Y-92197262D01*
X138558631Y-92197262D01*
X138549739Y-92194139D01*
X138542551Y-92193857D01*
X138542492Y-92193846D01*
X138535640Y-92191678D01*
X138529033Y-92191158D01*
X138476354Y-92191158D01*
X138471407Y-92191061D01*
X138414376Y-92188820D01*
X138407270Y-92190704D01*
X138399023Y-92191158D01*
X137063870Y-92191158D01*
X136995749Y-92171156D01*
X136949256Y-92117500D01*
X136937870Y-92065158D01*
X136937870Y-91973886D01*
X136927006Y-91884111D01*
X136871483Y-91743875D01*
X136780292Y-91623736D01*
X136660153Y-91532545D01*
X136566701Y-91495545D01*
X136527447Y-91480003D01*
X136527445Y-91480002D01*
X136519917Y-91477022D01*
X136430142Y-91466158D01*
X135644598Y-91466158D01*
X135554823Y-91477022D01*
X135547295Y-91480002D01*
X135547293Y-91480003D01*
X135508039Y-91495545D01*
X135414587Y-91532545D01*
X135294448Y-91623736D01*
X135203257Y-91743875D01*
X135200095Y-91751862D01*
X135195879Y-91759344D01*
X135194320Y-91758465D01*
X135157065Y-91806215D01*
X135090063Y-91829693D01*
X135021004Y-91813221D01*
X134977555Y-91771932D01*
X134970303Y-91760636D01*
X134847108Y-91603801D01*
X134838871Y-91595152D01*
X134688247Y-91464446D01*
X134678523Y-91457511D01*
X134505903Y-91357648D01*
X134495039Y-91352674D01*
X134410814Y-91323426D01*
X134353024Y-91282184D01*
X134326705Y-91216246D01*
X134340213Y-91146546D01*
X134389259Y-91095214D01*
X134452147Y-91078398D01*
X158894017Y-91078398D01*
X158962138Y-91098400D01*
G37*
%TD.AperFunction*%
%TD*%
%TA.AperFunction,NonConductor*%
G36*
X130727498Y-90099360D02*
G01*
X130773991Y-90153016D01*
X130784095Y-90223290D01*
X130754601Y-90287870D01*
X130748472Y-90294453D01*
X130178140Y-90864785D01*
X130167052Y-90874639D01*
X130143167Y-90893469D01*
X130077288Y-90919935D01*
X130018778Y-90911672D01*
X130005517Y-90906422D01*
X129915742Y-90895558D01*
X129266914Y-90895558D01*
X129198793Y-90875556D01*
X129152300Y-90821900D01*
X129142196Y-90751626D01*
X129171690Y-90687046D01*
X129177819Y-90680463D01*
X129742019Y-90116263D01*
X129804331Y-90082237D01*
X129831114Y-90079358D01*
X130659377Y-90079358D01*
X130727498Y-90099360D01*
G37*
%TD.AperFunction*%
%TA.AperFunction,NonConductor*%
G36*
X160310466Y-90598880D02*
G01*
X160331440Y-90615783D01*
X161230121Y-91514464D01*
X161264147Y-91576776D01*
X161259082Y-91647591D01*
X161216535Y-91704427D01*
X161150015Y-91729238D01*
X161141039Y-91729559D01*
X160923764Y-91729559D01*
X160855643Y-91709557D01*
X160834669Y-91692654D01*
X159935988Y-90793973D01*
X159901962Y-90731661D01*
X159907027Y-90660846D01*
X159949574Y-90604010D01*
X160016094Y-90579199D01*
X160025083Y-90578878D01*
X160242345Y-90578878D01*
X160310466Y-90598880D01*
G37*
%TD.AperFunction*%
%TA.AperFunction,NonConductor*%
G36*
X132056778Y-90598880D02*
G01*
X132103271Y-90652536D01*
X132113375Y-90722810D01*
X132083881Y-90787390D01*
X132077752Y-90793973D01*
X131138085Y-91733640D01*
X131075773Y-91767666D01*
X131004958Y-91762601D01*
X130948122Y-91720054D01*
X130923311Y-91653534D01*
X130922990Y-91644545D01*
X130922990Y-91446331D01*
X130942992Y-91378210D01*
X130959895Y-91357236D01*
X131701348Y-90615783D01*
X131763660Y-90581757D01*
X131790443Y-90578878D01*
X131988657Y-90578878D01*
X132056778Y-90598880D01*
G37*
%TD.AperFunction*%
%TA.AperFunction,NonConductor*%
G36*
X150447424Y-93783788D02*
G01*
X150491921Y-93812534D01*
X151279011Y-94599624D01*
X151313035Y-94661934D01*
X151307971Y-94732749D01*
X151265424Y-94789585D01*
X151198904Y-94814396D01*
X151189915Y-94814717D01*
X151103344Y-94814717D01*
X151035223Y-94794715D01*
X151014249Y-94777812D01*
X150242339Y-94005902D01*
X150208313Y-93943590D01*
X150213378Y-93872775D01*
X150255925Y-93815939D01*
X150305238Y-93793560D01*
X150376633Y-93778385D01*
X150447424Y-93783788D01*
G37*
%TD.AperFunction*%
%TA.AperFunction,NonConductor*%
G36*
X157229795Y-94536680D02*
G01*
X157250769Y-94553583D01*
X157546055Y-94848869D01*
X157580081Y-94911181D01*
X157575016Y-94981996D01*
X157546576Y-95025745D01*
X157546417Y-95025873D01*
X157465968Y-95121748D01*
X157406861Y-95161073D01*
X157335873Y-95162199D01*
X157275546Y-95124768D01*
X157265942Y-95111793D01*
X157264475Y-95108403D01*
X157255012Y-95096717D01*
X157242524Y-95078132D01*
X157241549Y-95076359D01*
X157235277Y-95064950D01*
X157228273Y-95056836D01*
X157203737Y-95032300D01*
X157194912Y-95022499D01*
X157174964Y-94997866D01*
X157174963Y-94997865D01*
X157169556Y-94991188D01*
X157154225Y-94980292D01*
X157138119Y-94966682D01*
X157021491Y-94850054D01*
X156903209Y-94731773D01*
X156869185Y-94669461D01*
X156874249Y-94598646D01*
X156916796Y-94541810D01*
X156983316Y-94516999D01*
X156992305Y-94516678D01*
X157161674Y-94516678D01*
X157229795Y-94536680D01*
G37*
%TD.AperFunction*%
%TA.AperFunction,NonConductor*%
G36*
X161886692Y-96735596D02*
G01*
X161927396Y-96793766D01*
X161933990Y-96833993D01*
X161933990Y-97725336D01*
X161913988Y-97793457D01*
X161860332Y-97839950D01*
X161790058Y-97850054D01*
X161748062Y-97836172D01*
X161699448Y-97809887D01*
X161699446Y-97809886D01*
X161694025Y-97806955D01*
X161497224Y-97746035D01*
X161491099Y-97745391D01*
X161491098Y-97745391D01*
X161298468Y-97725145D01*
X161298466Y-97725145D01*
X161292339Y-97724501D01*
X161205499Y-97732404D01*
X161093312Y-97742613D01*
X161093309Y-97742614D01*
X161087173Y-97743172D01*
X160889542Y-97801338D01*
X160822912Y-97836172D01*
X160820335Y-97837519D01*
X160750699Y-97851354D01*
X160684638Y-97825344D01*
X160643126Y-97767749D01*
X160635959Y-97725858D01*
X160635959Y-97259784D01*
X160655961Y-97191663D01*
X160672864Y-97170689D01*
X160992018Y-96851535D01*
X161054330Y-96817509D01*
X161096030Y-96815516D01*
X161262864Y-96835409D01*
X161268999Y-96834937D01*
X161269001Y-96834937D01*
X161325009Y-96830627D01*
X161468270Y-96819604D01*
X161474200Y-96817948D01*
X161474202Y-96817948D01*
X161660767Y-96765858D01*
X161660766Y-96765858D01*
X161666695Y-96764203D01*
X161672184Y-96761430D01*
X161672190Y-96761428D01*
X161745177Y-96724559D01*
X161751179Y-96721527D01*
X161821001Y-96708667D01*
X161886692Y-96735596D01*
G37*
%TD.AperFunction*%
%TA.AperFunction,NonConductor*%
G36*
X161886692Y-99735596D02*
G01*
X161927396Y-99793766D01*
X161933990Y-99833993D01*
X161933990Y-100725336D01*
X161913988Y-100793457D01*
X161860332Y-100839950D01*
X161790058Y-100850054D01*
X161748062Y-100836172D01*
X161699448Y-100809887D01*
X161699446Y-100809886D01*
X161694025Y-100806955D01*
X161497224Y-100746035D01*
X161491099Y-100745391D01*
X161491098Y-100745391D01*
X161298468Y-100725145D01*
X161298466Y-100725145D01*
X161292339Y-100724501D01*
X161205499Y-100732404D01*
X161093312Y-100742613D01*
X161093309Y-100742614D01*
X161087173Y-100743172D01*
X160889542Y-100801338D01*
X160822912Y-100836172D01*
X160820335Y-100837519D01*
X160750699Y-100851354D01*
X160684638Y-100825344D01*
X160643126Y-100767749D01*
X160635959Y-100725858D01*
X160635959Y-99835581D01*
X160655961Y-99767460D01*
X160709617Y-99720967D01*
X160779891Y-99710863D01*
X160823426Y-99725591D01*
X160862368Y-99747355D01*
X160924245Y-99767460D01*
X161052441Y-99809114D01*
X161052445Y-99809115D01*
X161058299Y-99811017D01*
X161262864Y-99835409D01*
X161268999Y-99834937D01*
X161269001Y-99834937D01*
X161325009Y-99830627D01*
X161468270Y-99819604D01*
X161474200Y-99817948D01*
X161474202Y-99817948D01*
X161649453Y-99769017D01*
X161666695Y-99764203D01*
X161672184Y-99761430D01*
X161672190Y-99761428D01*
X161751179Y-99721527D01*
X161821001Y-99708667D01*
X161886692Y-99735596D01*
G37*
%TD.AperFunction*%
%TA.AperFunction,NonConductor*%
G36*
X156659182Y-97933249D02*
G01*
X156665765Y-97939378D01*
X157213057Y-98486670D01*
X157247083Y-98548982D01*
X157249177Y-98589807D01*
X157229490Y-98765320D01*
X157230006Y-98771464D01*
X157242640Y-98921913D01*
X157246729Y-98970611D01*
X157248428Y-98976536D01*
X157280629Y-99088833D01*
X157303514Y-99168644D01*
X157306329Y-99174121D01*
X157306330Y-99174124D01*
X157375436Y-99308590D01*
X157397682Y-99351876D01*
X157525647Y-99513328D01*
X157530340Y-99517322D01*
X157530341Y-99517323D01*
X157671822Y-99637732D01*
X157682534Y-99646849D01*
X157862368Y-99747355D01*
X157924245Y-99767460D01*
X158052441Y-99809114D01*
X158052445Y-99809115D01*
X158058299Y-99811017D01*
X158262864Y-99835409D01*
X158268999Y-99834937D01*
X158269001Y-99834937D01*
X158325009Y-99830627D01*
X158468270Y-99819604D01*
X158474200Y-99817948D01*
X158474202Y-99817948D01*
X158649453Y-99769017D01*
X158666695Y-99764203D01*
X158672184Y-99761430D01*
X158672190Y-99761428D01*
X158827226Y-99683113D01*
X158850580Y-99671316D01*
X158886583Y-99643188D01*
X159008071Y-99548271D01*
X159012921Y-99544482D01*
X159027914Y-99527113D01*
X159143510Y-99393192D01*
X159143510Y-99393191D01*
X159147534Y-99388530D01*
X159168357Y-99351876D01*
X159192949Y-99308585D01*
X159249293Y-99209402D01*
X159289401Y-99088833D01*
X159329882Y-99030509D01*
X159395470Y-99003329D01*
X159465341Y-99015924D01*
X159517311Y-99064294D01*
X159534959Y-99128605D01*
X159534959Y-101432247D01*
X159514957Y-101500368D01*
X159461301Y-101546861D01*
X159391027Y-101556965D01*
X159326447Y-101527471D01*
X159288337Y-101468665D01*
X159262687Y-101383708D01*
X159262686Y-101383705D01*
X159260905Y-101377807D01*
X159164188Y-101195907D01*
X159090829Y-101105960D01*
X159037876Y-101041033D01*
X159037873Y-101041030D01*
X159033981Y-101036258D01*
X158977179Y-100989267D01*
X158879995Y-100908869D01*
X158879991Y-100908867D01*
X158875245Y-100904940D01*
X158694025Y-100806955D01*
X158497224Y-100746035D01*
X158491099Y-100745391D01*
X158491098Y-100745391D01*
X158298468Y-100725145D01*
X158298466Y-100725145D01*
X158292339Y-100724501D01*
X158090440Y-100742875D01*
X158020787Y-100729130D01*
X157989926Y-100706489D01*
X156487575Y-99204139D01*
X156453550Y-99141827D01*
X156450670Y-99115044D01*
X156450670Y-98028473D01*
X156470672Y-97960352D01*
X156524328Y-97913859D01*
X156594602Y-97903755D01*
X156659182Y-97933249D01*
G37*
%TD.AperFunction*%
%TA.AperFunction,NonConductor*%
G36*
X128182942Y-101660194D02*
G01*
X128200792Y-101679237D01*
X128230048Y-101717780D01*
X128350187Y-101808971D01*
X128413802Y-101834158D01*
X128482893Y-101861513D01*
X128482895Y-101861514D01*
X128490423Y-101864494D01*
X128580198Y-101875358D01*
X128647271Y-101875358D01*
X128715392Y-101895360D01*
X128761885Y-101949016D01*
X128771989Y-102019290D01*
X128742495Y-102083870D01*
X128686207Y-102121191D01*
X128604686Y-102147679D01*
X128440754Y-102242325D01*
X128435847Y-102246743D01*
X128435846Y-102246744D01*
X128305220Y-102364361D01*
X128300082Y-102368987D01*
X128296203Y-102374326D01*
X128202366Y-102503482D01*
X128146144Y-102546836D01*
X128075408Y-102552911D01*
X128012616Y-102519780D01*
X127977705Y-102457960D01*
X127974430Y-102429421D01*
X127974430Y-101755418D01*
X127994432Y-101687297D01*
X128048088Y-101640804D01*
X128118362Y-101630700D01*
X128182942Y-101660194D01*
G37*
%TD.AperFunction*%
%TA.AperFunction,NonConductor*%
G36*
X161886692Y-102735596D02*
G01*
X161927396Y-102793766D01*
X161933990Y-102833993D01*
X161933990Y-103725336D01*
X161913988Y-103793457D01*
X161860332Y-103839950D01*
X161790058Y-103850054D01*
X161748062Y-103836172D01*
X161699448Y-103809887D01*
X161699446Y-103809886D01*
X161694025Y-103806955D01*
X161497224Y-103746035D01*
X161491099Y-103745391D01*
X161491098Y-103745391D01*
X161298468Y-103725145D01*
X161298466Y-103725145D01*
X161292339Y-103724501D01*
X161205499Y-103732404D01*
X161093312Y-103742613D01*
X161093309Y-103742614D01*
X161087173Y-103743172D01*
X160889542Y-103801338D01*
X160822912Y-103836172D01*
X160820335Y-103837519D01*
X160750699Y-103851354D01*
X160684638Y-103825344D01*
X160643126Y-103767749D01*
X160635959Y-103725858D01*
X160635959Y-102835581D01*
X160655961Y-102767460D01*
X160709617Y-102720967D01*
X160779891Y-102710863D01*
X160823426Y-102725591D01*
X160862368Y-102747355D01*
X160924245Y-102767460D01*
X161052441Y-102809114D01*
X161052445Y-102809115D01*
X161058299Y-102811017D01*
X161262864Y-102835409D01*
X161268999Y-102834937D01*
X161269001Y-102834937D01*
X161325009Y-102830627D01*
X161468270Y-102819604D01*
X161474200Y-102817948D01*
X161474202Y-102817948D01*
X161647827Y-102769471D01*
X161666695Y-102764203D01*
X161672184Y-102761430D01*
X161672190Y-102761428D01*
X161751179Y-102721527D01*
X161821001Y-102708667D01*
X161886692Y-102735596D01*
G37*
%TD.AperFunction*%
%TA.AperFunction,NonConductor*%
G36*
X160345513Y-105315294D02*
G01*
X160400225Y-105355085D01*
X160525647Y-105513328D01*
X160530340Y-105517322D01*
X160530341Y-105517323D01*
X160634712Y-105606149D01*
X160682534Y-105646849D01*
X160862368Y-105747355D01*
X160925430Y-105767845D01*
X161052441Y-105809114D01*
X161052445Y-105809115D01*
X161058299Y-105811017D01*
X161262864Y-105835409D01*
X161268999Y-105834937D01*
X161269001Y-105834937D01*
X161325009Y-105830627D01*
X161468270Y-105819604D01*
X161474200Y-105817948D01*
X161474202Y-105817948D01*
X161612165Y-105779428D01*
X161666695Y-105764203D01*
X161672184Y-105761430D01*
X161672190Y-105761428D01*
X161751179Y-105721527D01*
X161821001Y-105708667D01*
X161886692Y-105735596D01*
X161927396Y-105793766D01*
X161933990Y-105833993D01*
X161933990Y-106725336D01*
X161913988Y-106793457D01*
X161860332Y-106839950D01*
X161790058Y-106850054D01*
X161748062Y-106836172D01*
X161699448Y-106809887D01*
X161699446Y-106809886D01*
X161694025Y-106806955D01*
X161497224Y-106746035D01*
X161491099Y-106745391D01*
X161491098Y-106745391D01*
X161298468Y-106725145D01*
X161298466Y-106725145D01*
X161292339Y-106724501D01*
X161205499Y-106732404D01*
X161093312Y-106742613D01*
X161093309Y-106742614D01*
X161087173Y-106743172D01*
X160889542Y-106801338D01*
X160706972Y-106896784D01*
X160702171Y-106900644D01*
X160702168Y-106900646D01*
X160590958Y-106990061D01*
X160546417Y-107025873D01*
X160413994Y-107183688D01*
X160411923Y-107181950D01*
X160365952Y-107219453D01*
X160311759Y-107229225D01*
X160291520Y-107228377D01*
X160255042Y-107226848D01*
X160246677Y-107228810D01*
X160212674Y-107236785D01*
X160201003Y-107238948D01*
X160186107Y-107240989D01*
X160157904Y-107244852D01*
X160150020Y-107248264D01*
X160150019Y-107248264D01*
X160144106Y-107250823D01*
X160122837Y-107257857D01*
X160108200Y-107261290D01*
X160100675Y-107265427D01*
X160100672Y-107265428D01*
X160070068Y-107282253D01*
X160059423Y-107287469D01*
X160019481Y-107304753D01*
X160007795Y-107314216D01*
X159989211Y-107326703D01*
X159976028Y-107333951D01*
X159967914Y-107340955D01*
X159943378Y-107365491D01*
X159933577Y-107374316D01*
X159908944Y-107394264D01*
X159902266Y-107399672D01*
X159897293Y-107406670D01*
X159897288Y-107406675D01*
X159891368Y-107415006D01*
X159877757Y-107431112D01*
X159545847Y-107763022D01*
X159483535Y-107797048D01*
X159412720Y-107791983D01*
X159355884Y-107749436D01*
X159331353Y-107686223D01*
X159321051Y-107581160D01*
X159320450Y-107575028D01*
X159260905Y-107377807D01*
X159164188Y-107195907D01*
X159066360Y-107075958D01*
X159037876Y-107041033D01*
X159037873Y-107041030D01*
X159033981Y-107036258D01*
X159016756Y-107022008D01*
X158879990Y-106908865D01*
X158879987Y-106908863D01*
X158875245Y-106904940D01*
X158869832Y-106902013D01*
X158868029Y-106900797D01*
X158822741Y-106846121D01*
X158814203Y-106775640D01*
X158849396Y-106707246D01*
X160212386Y-105344255D01*
X160274698Y-105310230D01*
X160345513Y-105315294D01*
G37*
%TD.AperFunction*%
%TA.AperFunction,NonConductor*%
G36*
X157298000Y-107151049D02*
G01*
X157344493Y-107204705D01*
X157354597Y-107274979D01*
X157340294Y-107317748D01*
X157328367Y-107339444D01*
X157314746Y-107364220D01*
X157252454Y-107560590D01*
X157251768Y-107566707D01*
X157251767Y-107566711D01*
X157239195Y-107678800D01*
X157229490Y-107765320D01*
X157246729Y-107970611D01*
X157273200Y-108062926D01*
X157272750Y-108133918D01*
X157241176Y-108186749D01*
X157238352Y-108189573D01*
X157176040Y-108223599D01*
X157149257Y-108226478D01*
X153033870Y-108226478D01*
X152965749Y-108206476D01*
X152919256Y-108152820D01*
X152907870Y-108100478D01*
X152907870Y-107382673D01*
X152927872Y-107314552D01*
X152944775Y-107293578D01*
X153070401Y-107167952D01*
X153132713Y-107133926D01*
X153159496Y-107131047D01*
X157229879Y-107131047D01*
X157298000Y-107151049D01*
G37*
%TD.AperFunction*%
%TA.AperFunction,NonConductor*%
G36*
X160483517Y-108486568D02*
G01*
X160525191Y-108513864D01*
X160525647Y-108513328D01*
X160530334Y-108517317D01*
X160530335Y-108517318D01*
X160677427Y-108642503D01*
X160682534Y-108646849D01*
X160687912Y-108649855D01*
X160687914Y-108649856D01*
X160752975Y-108686217D01*
X160862368Y-108747355D01*
X160904751Y-108761126D01*
X160948456Y-108775327D01*
X161007061Y-108815401D01*
X161034698Y-108880798D01*
X161022591Y-108950755D01*
X160998614Y-108984255D01*
X160748416Y-109234453D01*
X160686104Y-109268479D01*
X160659321Y-109271358D01*
X159898752Y-109271358D01*
X159830631Y-109251356D01*
X159784138Y-109197700D01*
X159774034Y-109127426D01*
X159803528Y-109062846D01*
X159809656Y-109056263D01*
X160350389Y-108515529D01*
X160412702Y-108481504D01*
X160483517Y-108486568D01*
G37*
%TD.AperFunction*%
%TA.AperFunction,NonConductor*%
G36*
X162351542Y-109009699D02*
G01*
X162408378Y-109052246D01*
X162433189Y-109118766D01*
X162433510Y-109127755D01*
X162433510Y-110197069D01*
X162413508Y-110265190D01*
X162359852Y-110311683D01*
X162289578Y-110321787D01*
X162224998Y-110292293D01*
X162196259Y-110256222D01*
X162167086Y-110201356D01*
X162167082Y-110201350D01*
X162164188Y-110195907D01*
X162065213Y-110074552D01*
X162037876Y-110041033D01*
X162037873Y-110041030D01*
X162033981Y-110036258D01*
X162021428Y-110025873D01*
X161879995Y-109908869D01*
X161879991Y-109908867D01*
X161875245Y-109904940D01*
X161694025Y-109806955D01*
X161693267Y-109806720D01*
X161639658Y-109763061D01*
X161617587Y-109695582D01*
X161635501Y-109626883D01*
X161654433Y-109602642D01*
X162218415Y-109038660D01*
X162280727Y-109004634D01*
X162351542Y-109009699D01*
G37*
%TD.AperFunction*%
M02*
