%TF.GenerationSoftware,KiCad,Pcbnew,(6.0.5-0)*%
%TF.CreationDate,2022-05-31T10:27:56+08:00*%
%TF.ProjectId,StealthBurner,53746561-6c74-4684-9275-726e65722e6b,Bata1*%
%TF.SameCoordinates,Original*%
%TF.FileFunction,Copper,L1,Top*%
%TF.FilePolarity,Positive*%
%FSLAX46Y46*%
G04 Gerber Fmt 4.6, Leading zero omitted, Abs format (unit mm)*
G04 Created by KiCad (PCBNEW (6.0.5-0)) date 2022-05-31 10:27:56*
%MOMM*%
%LPD*%
G01*
G04 APERTURE LIST*
G04 Aperture macros list*
%AMRoundRect*
0 Rectangle with rounded corners*
0 $1 Rounding radius*
0 $2 $3 $4 $5 $6 $7 $8 $9 X,Y pos of 4 corners*
0 Add a 4 corners polygon primitive as box body*
4,1,4,$2,$3,$4,$5,$6,$7,$8,$9,$2,$3,0*
0 Add four circle primitives for the rounded corners*
1,1,$1+$1,$2,$3*
1,1,$1+$1,$4,$5*
1,1,$1+$1,$6,$7*
1,1,$1+$1,$8,$9*
0 Add four rect primitives between the rounded corners*
20,1,$1+$1,$2,$3,$4,$5,0*
20,1,$1+$1,$4,$5,$6,$7,0*
20,1,$1+$1,$6,$7,$8,$9,0*
20,1,$1+$1,$8,$9,$2,$3,0*%
G04 Aperture macros list end*
%TA.AperFunction,ComponentPad*%
%ADD10RoundRect,0.250000X0.350000X0.625000X-0.350000X0.625000X-0.350000X-0.625000X0.350000X-0.625000X0*%
%TD*%
%TA.AperFunction,ComponentPad*%
%ADD11O,1.200000X1.750000*%
%TD*%
%TA.AperFunction,SMDPad,CuDef*%
%ADD12RoundRect,0.250000X0.262500X0.450000X-0.262500X0.450000X-0.262500X-0.450000X0.262500X-0.450000X0*%
%TD*%
%TA.AperFunction,ComponentPad*%
%ADD13RoundRect,0.250000X-0.625000X0.350000X-0.625000X-0.350000X0.625000X-0.350000X0.625000X0.350000X0*%
%TD*%
%TA.AperFunction,ComponentPad*%
%ADD14O,1.750000X1.200000*%
%TD*%
%TA.AperFunction,ComponentPad*%
%ADD15RoundRect,0.250001X-0.499999X0.499999X-0.499999X-0.499999X0.499999X-0.499999X0.499999X0.499999X0*%
%TD*%
%TA.AperFunction,ComponentPad*%
%ADD16C,1.500000*%
%TD*%
%TA.AperFunction,ComponentPad*%
%ADD17RoundRect,0.250001X0.499999X-0.499999X0.499999X0.499999X-0.499999X0.499999X-0.499999X-0.499999X0*%
%TD*%
%TA.AperFunction,ComponentPad*%
%ADD18R,1.600000X1.600000*%
%TD*%
%TA.AperFunction,ComponentPad*%
%ADD19O,1.600000X1.600000*%
%TD*%
%TA.AperFunction,ViaPad*%
%ADD20C,0.800000*%
%TD*%
%TA.AperFunction,Conductor*%
%ADD21C,0.500000*%
%TD*%
%TA.AperFunction,Conductor*%
%ADD22C,0.254000*%
%TD*%
G04 APERTURE END LIST*
D10*
%TO.P,J5,1,Pin_1*%
%TO.N,/FS*%
X136037370Y-92641658D03*
D11*
%TO.P,J5,2,Pin_2*%
%TO.N,GND*%
X134037370Y-92641658D03*
%TD*%
D12*
%TO.P,TH1,1*%
%TO.N,/CBT*%
X129499688Y-115214398D03*
%TO.P,TH1,2*%
%TO.N,GNDA*%
X127674688Y-115214398D03*
%TD*%
D13*
%TO.P,J8,1,Pin_1*%
%TO.N,+5V*%
X129247970Y-91796058D03*
D14*
%TO.P,J8,2,Pin_2*%
%TO.N,/DATA*%
X129247970Y-93796058D03*
%TO.P,J8,3,Pin_3*%
%TO.N,GND*%
X129247970Y-95796058D03*
%TD*%
D13*
%TO.P,J6,1,Pin_1*%
%TO.N,/V_FAN*%
X129247970Y-108169198D03*
D14*
%TO.P,J6,2,Pin_2*%
%TO.N,/HEF*%
X129247970Y-110169198D03*
%TD*%
D15*
%TO.P,J9,1,Pin_1*%
%TO.N,+5V*%
X161435000Y-92750000D03*
D16*
%TO.P,J9,2,Pin_2*%
%TO.N,+24V*%
X161435000Y-95750000D03*
%TO.P,J9,3,Pin_3*%
%TO.N,/V_FAN*%
X161435000Y-98750000D03*
%TO.P,J9,4,Pin_4*%
%TO.N,/P_SIG*%
X161435000Y-101750000D03*
%TO.P,J9,5,Pin_5*%
%TO.N,/FS*%
X161435000Y-104750000D03*
%TO.P,J9,6,Pin_6*%
%TO.N,/CBT*%
X161435000Y-107750000D03*
%TO.P,J9,7,Pin_7*%
%TO.N,/HET*%
X161435000Y-110750000D03*
%TO.P,J9,8,Pin_8*%
%TO.N,/PCF*%
X161435000Y-113750000D03*
%TO.P,J9,9,Pin_9*%
%TO.N,/HEF*%
X161435000Y-116750000D03*
%TO.P,J9,10,Pin_10*%
%TO.N,/A+*%
X158435000Y-92750000D03*
%TO.P,J9,11,Pin_11*%
%TO.N,/A-*%
X158435000Y-95750000D03*
%TO.P,J9,12,Pin_12*%
%TO.N,/B+*%
X158435000Y-98750000D03*
%TO.P,J9,13,Pin_13*%
%TO.N,/B-*%
X158435000Y-101750000D03*
%TO.P,J9,14,Pin_14*%
%TO.N,/HE-*%
X158435000Y-104750000D03*
%TO.P,J9,15,Pin_15*%
%TO.N,/HE+*%
X158435000Y-107750000D03*
%TO.P,J9,16,Pin_16*%
%TO.N,/DATA*%
X158435000Y-110750000D03*
%TO.P,J9,17,Pin_17*%
%TO.N,GNDA*%
X158435000Y-113750000D03*
%TO.P,J9,18,Pin_18*%
%TO.N,GND*%
X158435000Y-116750000D03*
%TD*%
D10*
%TO.P,J2,1,Pin_1*%
%TO.N,/A+*%
X154099570Y-92641658D03*
D11*
%TO.P,J2,2,Pin_2*%
%TO.N,/A-*%
X152099570Y-92641658D03*
%TO.P,J2,3,Pin_3*%
%TO.N,/B+*%
X150099570Y-92641658D03*
%TO.P,J2,4,Pin_4*%
%TO.N,/B-*%
X148099570Y-92641658D03*
%TD*%
D17*
%TO.P,J3,1,Pin_1*%
%TO.N,/HE+*%
X152590000Y-106110000D03*
D16*
%TO.P,J3,2,Pin_2*%
%TO.N,/HE-*%
X155590000Y-106110000D03*
%TD*%
D18*
%TO.P,D1,1,K*%
%TO.N,Net-(D1-Pad1)*%
X143720000Y-97845686D03*
D19*
%TO.P,D1,2,A*%
%TO.N,/P_SIG*%
X143720000Y-100385686D03*
%TD*%
D13*
%TO.P,J1,1,Pin_1*%
%TO.N,+24V*%
X138350000Y-97300000D03*
D14*
%TO.P,J1,2,Pin_2*%
%TO.N,Net-(D1-Pad1)*%
X138350000Y-99300000D03*
%TO.P,J1,3,Pin_3*%
%TO.N,GND*%
X138350000Y-101300000D03*
%TD*%
D10*
%TO.P,J4,1,Pin_1*%
%TO.N,/HET*%
X143022370Y-92641658D03*
D11*
%TO.P,J4,2,Pin_2*%
%TO.N,GNDA*%
X141022370Y-92641658D03*
%TD*%
D13*
%TO.P,J7,1,Pin_1*%
%TO.N,/V_FAN*%
X129247970Y-100975000D03*
D14*
%TO.P,J7,2,Pin_2*%
%TO.N,/PCF*%
X129247970Y-102975000D03*
%TD*%
D20*
%TO.N,GND*%
X155290000Y-118540000D03*
X132540000Y-99100000D03*
X147150000Y-96040000D03*
X136310000Y-98920000D03*
X126840000Y-90250000D03*
X168770000Y-91170000D03*
X155730000Y-101660000D03*
X168760000Y-118460000D03*
X165860000Y-107630000D03*
X134830000Y-115440000D03*
X139500000Y-111450000D03*
X165910000Y-101820000D03*
X145360000Y-106400000D03*
X151010000Y-96990000D03*
X156580000Y-109400000D03*
%TO.N,GNDA*%
X127680000Y-113090000D03*
%TO.N,/CBT*%
X129500000Y-113190000D03*
X145390000Y-104200500D03*
%TD*%
D21*
%TO.N,+5V*%
X159948138Y-91263138D02*
X161435000Y-92750000D01*
X129247970Y-91796058D02*
X129780890Y-91263138D01*
X129780890Y-91263138D02*
X159948138Y-91263138D01*
%TO.N,GNDA*%
X127674688Y-113095312D02*
X127680000Y-113090000D01*
X127674688Y-115214398D02*
X127674688Y-113095312D01*
D22*
%TO.N,Net-(D1-Pad1)*%
X138350000Y-99300000D02*
X142265686Y-99300000D01*
X142265686Y-99300000D02*
X143720000Y-97845686D01*
D21*
%TO.N,+24V*%
X159885000Y-94200000D02*
X161435000Y-95750000D01*
X139370000Y-94200000D02*
X159885000Y-94200000D01*
X138350000Y-95220000D02*
X139370000Y-94200000D01*
X138350000Y-97300000D02*
X138350000Y-95220000D01*
%TO.N,/HEF*%
X152322821Y-109420561D02*
X156270000Y-113367740D01*
X156270000Y-114410000D02*
X157100000Y-115240000D01*
X157100000Y-115240000D02*
X159925000Y-115240000D01*
X129247970Y-110169198D02*
X129996607Y-109420561D01*
X156270000Y-113367740D02*
X156270000Y-114410000D01*
X159925000Y-115240000D02*
X161435000Y-116750000D01*
X129996607Y-109420561D02*
X152322821Y-109420561D01*
%TO.N,/PCF*%
X156370000Y-112210000D02*
X159895000Y-112210000D01*
X129247970Y-102975000D02*
X129247970Y-105487970D01*
X152827041Y-108667041D02*
X156370000Y-112210000D01*
X132427041Y-108667041D02*
X152827041Y-108667041D01*
X159895000Y-112210000D02*
X161435000Y-113750000D01*
X129247970Y-105487970D02*
X132427041Y-108667041D01*
D22*
%TO.N,/DATA*%
X155801690Y-110750000D02*
X158435000Y-110750000D01*
X153088212Y-108036522D02*
X155801690Y-110750000D01*
X135916522Y-108036522D02*
X153088212Y-108036522D01*
X134172480Y-106292480D02*
X135916522Y-108036522D01*
X129247970Y-93796058D02*
X132996058Y-93796058D01*
X132996058Y-93796058D02*
X134172480Y-94972480D01*
X134172480Y-94972480D02*
X134172480Y-106292480D01*
D21*
%TO.N,/CBT*%
X129499688Y-113190312D02*
X129500000Y-113190000D01*
X145559480Y-104050000D02*
X155812757Y-104050000D01*
X158012237Y-106250000D02*
X159935000Y-106250000D01*
X129499688Y-115214398D02*
X129499688Y-113190312D01*
X159935000Y-106250000D02*
X161435000Y-107750000D01*
X145390000Y-104200500D02*
X145539980Y-104050520D01*
X155812757Y-104050520D02*
X158012237Y-106250000D01*
X145390000Y-104200500D02*
X145409500Y-104200500D01*
X145539980Y-104050520D02*
X145559480Y-104050520D01*
%TO.N,/V_FAN*%
X127300000Y-106221228D02*
X129247970Y-108169198D01*
X162910000Y-97275000D02*
X161435000Y-98750000D01*
X127300000Y-99026888D02*
X127300000Y-99027030D01*
X161349618Y-90509618D02*
X162910000Y-92070000D01*
X128493772Y-90509618D02*
X161349618Y-90509618D01*
X127300000Y-99026888D02*
X127300000Y-91703390D01*
X127300000Y-99026888D02*
X127300000Y-106221228D01*
X127300000Y-99027030D02*
X129247970Y-100975000D01*
X127300000Y-91703390D02*
X128493772Y-90509618D01*
X162910000Y-92070000D02*
X162910000Y-97275000D01*
D22*
%TO.N,/P_SIG*%
X144410000Y-102912480D02*
X143720000Y-102222480D01*
X161435000Y-101750000D02*
X160273040Y-102911960D01*
X160273040Y-102911960D02*
X144410520Y-102911960D01*
X143720000Y-102222480D02*
X143720000Y-100385686D01*
%TO.N,/FS*%
X145297791Y-103420000D02*
X145298311Y-103419480D01*
X160104480Y-103419480D02*
X161435000Y-104750000D01*
X145298311Y-103419480D02*
X160104480Y-103419480D01*
X134680000Y-95450000D02*
X134680000Y-102480000D01*
X134680000Y-102480000D02*
X135620000Y-103420000D01*
X136037370Y-92641658D02*
X136037370Y-94092630D01*
X135620000Y-103420000D02*
X145297791Y-103420000D01*
X136037370Y-94092630D02*
X134680000Y-95450000D01*
%TD*%
%TA.AperFunction,Conductor*%
%TO.N,GND*%
G36*
X168984563Y-89302414D02*
G01*
X168989145Y-89303222D01*
X169000000Y-89305136D01*
X169010856Y-89303222D01*
X169021878Y-89303222D01*
X169021878Y-89303779D01*
X169034152Y-89303188D01*
X169177759Y-89314490D01*
X169197285Y-89317583D01*
X169361030Y-89356895D01*
X169379824Y-89363001D01*
X169535405Y-89427445D01*
X169553010Y-89436415D01*
X169696597Y-89524405D01*
X169712592Y-89536027D01*
X169840634Y-89645385D01*
X169854615Y-89659366D01*
X169963973Y-89787408D01*
X169975594Y-89803401D01*
X170063585Y-89946990D01*
X170072555Y-89964595D01*
X170120963Y-90081462D01*
X170136997Y-90120171D01*
X170143105Y-90138970D01*
X170182417Y-90302714D01*
X170185510Y-90322242D01*
X170196812Y-90465845D01*
X170196221Y-90478122D01*
X170196778Y-90478122D01*
X170196778Y-90489144D01*
X170194864Y-90500000D01*
X170196778Y-90510855D01*
X170197586Y-90515437D01*
X170199500Y-90537317D01*
X170199500Y-118962683D01*
X170197586Y-118984563D01*
X170194864Y-119000000D01*
X170196778Y-119010856D01*
X170196778Y-119021878D01*
X170196221Y-119021878D01*
X170196812Y-119034155D01*
X170185510Y-119177758D01*
X170182417Y-119197285D01*
X170173239Y-119235517D01*
X170143107Y-119361025D01*
X170136999Y-119379824D01*
X170072555Y-119535405D01*
X170063585Y-119553010D01*
X169979331Y-119690500D01*
X169975595Y-119696597D01*
X169963973Y-119712592D01*
X169854615Y-119840634D01*
X169840634Y-119854615D01*
X169712592Y-119963973D01*
X169696599Y-119975594D01*
X169553010Y-120063585D01*
X169535405Y-120072555D01*
X169379824Y-120136999D01*
X169361030Y-120143105D01*
X169197286Y-120182417D01*
X169177759Y-120185510D01*
X169034152Y-120196812D01*
X169021878Y-120196221D01*
X169021878Y-120196778D01*
X169010856Y-120196778D01*
X169000000Y-120194864D01*
X168989145Y-120196778D01*
X168984563Y-120197586D01*
X168962683Y-120199500D01*
X154537317Y-120199500D01*
X154515437Y-120197586D01*
X154510855Y-120196778D01*
X154500000Y-120194864D01*
X154489144Y-120196778D01*
X154478122Y-120196778D01*
X154478122Y-120196221D01*
X154465848Y-120196812D01*
X154322241Y-120185510D01*
X154302714Y-120182417D01*
X154138970Y-120143105D01*
X154120176Y-120136999D01*
X153964595Y-120072555D01*
X153946990Y-120063585D01*
X153803401Y-119975594D01*
X153787408Y-119963973D01*
X153659366Y-119854615D01*
X153645385Y-119840634D01*
X153536027Y-119712592D01*
X153524405Y-119696597D01*
X153520669Y-119690500D01*
X153436415Y-119553010D01*
X153427445Y-119535405D01*
X153363001Y-119379824D01*
X153356893Y-119361025D01*
X153326762Y-119235517D01*
X153317583Y-119197285D01*
X153314490Y-119177758D01*
X153303188Y-119034155D01*
X153303779Y-119021878D01*
X153303222Y-119021878D01*
X153303222Y-119010856D01*
X153305136Y-119000000D01*
X153302414Y-118984563D01*
X153300500Y-118962683D01*
X153300500Y-117792088D01*
X157751810Y-117792088D01*
X157761106Y-117804103D01*
X157803104Y-117833510D01*
X157812599Y-117838993D01*
X158000860Y-117926780D01*
X158011152Y-117930526D01*
X158211796Y-117984288D01*
X158222591Y-117986191D01*
X158429525Y-118004296D01*
X158440475Y-118004296D01*
X158647409Y-117986191D01*
X158658204Y-117984288D01*
X158858848Y-117930526D01*
X158869140Y-117926780D01*
X159057401Y-117838993D01*
X159066896Y-117833510D01*
X159109732Y-117803516D01*
X159118107Y-117793039D01*
X159111039Y-117779592D01*
X158447812Y-117116365D01*
X158433868Y-117108751D01*
X158432035Y-117108882D01*
X158425420Y-117113133D01*
X157758240Y-117780313D01*
X157751810Y-117792088D01*
X153300500Y-117792088D01*
X153300500Y-111537317D01*
X153302414Y-111515437D01*
X153303222Y-111510853D01*
X153305136Y-111500000D01*
X153303906Y-111493022D01*
X153303341Y-111484403D01*
X153312939Y-111451718D01*
X153319398Y-111422935D01*
X153322205Y-111420165D01*
X153323227Y-111416684D01*
X153343727Y-111398922D01*
X153369927Y-111373062D01*
X153374744Y-111372047D01*
X153376884Y-111370193D01*
X153421003Y-111359076D01*
X153421416Y-111359049D01*
X153421620Y-111362170D01*
X153439398Y-111358424D01*
X153505755Y-111383670D01*
X153518676Y-111394941D01*
X154512767Y-112389031D01*
X155682595Y-113558859D01*
X155716621Y-113621171D01*
X155719500Y-113647954D01*
X155719500Y-114395007D01*
X155719389Y-114400283D01*
X155716790Y-114462294D01*
X155718752Y-114470659D01*
X155726727Y-114504662D01*
X155728890Y-114516333D01*
X155734794Y-114559432D01*
X155738206Y-114567316D01*
X155738206Y-114567317D01*
X155740765Y-114573230D01*
X155747799Y-114594499D01*
X155751232Y-114609136D01*
X155755369Y-114616661D01*
X155755370Y-114616664D01*
X155772195Y-114647268D01*
X155777411Y-114657913D01*
X155794695Y-114697855D01*
X155804158Y-114709541D01*
X155816645Y-114728125D01*
X155823893Y-114741308D01*
X155830897Y-114749422D01*
X155855433Y-114773958D01*
X155864258Y-114783759D01*
X155883339Y-114807321D01*
X155889614Y-114815070D01*
X155896613Y-114820044D01*
X155896614Y-114820045D01*
X155904946Y-114825966D01*
X155921051Y-114839576D01*
X156700130Y-115618654D01*
X156703783Y-115622464D01*
X156745799Y-115668156D01*
X156753099Y-115672682D01*
X156753100Y-115672683D01*
X156782783Y-115691087D01*
X156792553Y-115697801D01*
X156827216Y-115724112D01*
X156841193Y-115729646D01*
X156861202Y-115739709D01*
X156866688Y-115743111D01*
X156866692Y-115743113D01*
X156873986Y-115747635D01*
X156882228Y-115750029D01*
X156882231Y-115750031D01*
X156915784Y-115759779D01*
X156926997Y-115763618D01*
X156967453Y-115779635D01*
X156975996Y-115780533D01*
X156975997Y-115780533D01*
X156982402Y-115781206D01*
X157004380Y-115785518D01*
X157018825Y-115789715D01*
X157025408Y-115790198D01*
X157025411Y-115790199D01*
X157027208Y-115790331D01*
X157027219Y-115790331D01*
X157029515Y-115790500D01*
X157064219Y-115790500D01*
X157077390Y-115791190D01*
X157117454Y-115795401D01*
X157125919Y-115793969D01*
X157125928Y-115793969D01*
X157136000Y-115792265D01*
X157157013Y-115790500D01*
X157338837Y-115790500D01*
X157406958Y-115810502D01*
X157453451Y-115864158D01*
X157463555Y-115934432D01*
X157442050Y-115988771D01*
X157351490Y-116118104D01*
X157346007Y-116127600D01*
X157258220Y-116315860D01*
X157254474Y-116326152D01*
X157200712Y-116526796D01*
X157198809Y-116537591D01*
X157180704Y-116744525D01*
X157180704Y-116755475D01*
X157198809Y-116962409D01*
X157200712Y-116973204D01*
X157254474Y-117173848D01*
X157258220Y-117184140D01*
X157346010Y-117372406D01*
X157351488Y-117381892D01*
X157381484Y-117424731D01*
X157391961Y-117433106D01*
X157405409Y-117426038D01*
X158345905Y-116485542D01*
X158408217Y-116451516D01*
X158479032Y-116456581D01*
X158524095Y-116485542D01*
X159465313Y-117426760D01*
X159477087Y-117433190D01*
X159489103Y-117423893D01*
X159518512Y-117381892D01*
X159523990Y-117372406D01*
X159611780Y-117184140D01*
X159615526Y-117173848D01*
X159669288Y-116973204D01*
X159671191Y-116962409D01*
X159689296Y-116755475D01*
X159689296Y-116744525D01*
X159671191Y-116537591D01*
X159669288Y-116526796D01*
X159615526Y-116326152D01*
X159611780Y-116315860D01*
X159523993Y-116127600D01*
X159518510Y-116118104D01*
X159427950Y-115988771D01*
X159405262Y-115921497D01*
X159422547Y-115852636D01*
X159474317Y-115804052D01*
X159531163Y-115790500D01*
X159644785Y-115790500D01*
X159712906Y-115810502D01*
X159733880Y-115827405D01*
X160363087Y-116456612D01*
X160397113Y-116518924D01*
X160399207Y-116559749D01*
X160379520Y-116735262D01*
X160380036Y-116741406D01*
X160395999Y-116931497D01*
X160396759Y-116940553D01*
X160398458Y-116946478D01*
X160445027Y-117108882D01*
X160453544Y-117138586D01*
X160456359Y-117144063D01*
X160456360Y-117144066D01*
X160544897Y-117316341D01*
X160547712Y-117321818D01*
X160675677Y-117483270D01*
X160832564Y-117616791D01*
X161012398Y-117717297D01*
X161107238Y-117748113D01*
X161202471Y-117779056D01*
X161202475Y-117779057D01*
X161208329Y-117780959D01*
X161412894Y-117805351D01*
X161419029Y-117804879D01*
X161419031Y-117804879D01*
X161475039Y-117800569D01*
X161618300Y-117789546D01*
X161624230Y-117787890D01*
X161624232Y-117787890D01*
X161810797Y-117735800D01*
X161810796Y-117735800D01*
X161816725Y-117734145D01*
X161822214Y-117731372D01*
X161822220Y-117731370D01*
X161995116Y-117644033D01*
X162000610Y-117641258D01*
X162162951Y-117514424D01*
X162297564Y-117358472D01*
X162318387Y-117321818D01*
X162363229Y-117242881D01*
X162399323Y-117179344D01*
X162464351Y-116983863D01*
X162490171Y-116779474D01*
X162490390Y-116763806D01*
X162490534Y-116753522D01*
X162490534Y-116753518D01*
X162490583Y-116750000D01*
X162470480Y-116544970D01*
X162410935Y-116347749D01*
X162314218Y-116165849D01*
X162225704Y-116057320D01*
X162187906Y-116010975D01*
X162187903Y-116010972D01*
X162184011Y-116006200D01*
X162162943Y-115988771D01*
X162030025Y-115878811D01*
X162030021Y-115878809D01*
X162025275Y-115874882D01*
X161860001Y-115785519D01*
X161849474Y-115779827D01*
X161844055Y-115776897D01*
X161647254Y-115715977D01*
X161641129Y-115715333D01*
X161641128Y-115715333D01*
X161448498Y-115695087D01*
X161448496Y-115695087D01*
X161442369Y-115694443D01*
X161240468Y-115712817D01*
X161170816Y-115699072D01*
X161139955Y-115676431D01*
X160324882Y-114861358D01*
X160321229Y-114857549D01*
X160285015Y-114818167D01*
X160279201Y-114811844D01*
X160242198Y-114788901D01*
X160232448Y-114782200D01*
X160197783Y-114755888D01*
X160183804Y-114750354D01*
X160163801Y-114740293D01*
X160151014Y-114732365D01*
X160142763Y-114729968D01*
X160142761Y-114729967D01*
X160109228Y-114720225D01*
X160097995Y-114716379D01*
X160068066Y-114704529D01*
X160057547Y-114700364D01*
X160049006Y-114699466D01*
X160049005Y-114699466D01*
X160042592Y-114698792D01*
X160020617Y-114694480D01*
X160006175Y-114690285D01*
X159998692Y-114689735D01*
X159997792Y-114689669D01*
X159997781Y-114689669D01*
X159995485Y-114689500D01*
X159960783Y-114689500D01*
X159947613Y-114688810D01*
X159937384Y-114687735D01*
X159907546Y-114684599D01*
X159899081Y-114686031D01*
X159899072Y-114686031D01*
X159889000Y-114687735D01*
X159867987Y-114689500D01*
X159287038Y-114689500D01*
X159218917Y-114669498D01*
X159172424Y-114615842D01*
X159162320Y-114545568D01*
X159191656Y-114481170D01*
X159293536Y-114363140D01*
X159293542Y-114363132D01*
X159297564Y-114358472D01*
X159305867Y-114343857D01*
X159346384Y-114272533D01*
X159399323Y-114179344D01*
X159464351Y-113983863D01*
X159490171Y-113779474D01*
X159490583Y-113750000D01*
X159470480Y-113544970D01*
X159410935Y-113347749D01*
X159314218Y-113165849D01*
X159204587Y-113031428D01*
X159187906Y-113010975D01*
X159187903Y-113010972D01*
X159184011Y-113006200D01*
X159178021Y-113001244D01*
X159156674Y-112983585D01*
X159116936Y-112924751D01*
X159115313Y-112853773D01*
X159152322Y-112793186D01*
X159216212Y-112762225D01*
X159236989Y-112760500D01*
X159614785Y-112760500D01*
X159682906Y-112780502D01*
X159703880Y-112797405D01*
X160363087Y-113456612D01*
X160397113Y-113518924D01*
X160399207Y-113559749D01*
X160379520Y-113735262D01*
X160380036Y-113741406D01*
X160396178Y-113933629D01*
X160396759Y-113940553D01*
X160453544Y-114138586D01*
X160456359Y-114144063D01*
X160456360Y-114144066D01*
X160481565Y-114193109D01*
X160547712Y-114321818D01*
X160675677Y-114483270D01*
X160680370Y-114487264D01*
X160680371Y-114487265D01*
X160734217Y-114533091D01*
X160832564Y-114616791D01*
X160837942Y-114619797D01*
X160837944Y-114619798D01*
X160869563Y-114637469D01*
X161012398Y-114717297D01*
X161072705Y-114736892D01*
X161202471Y-114779056D01*
X161202475Y-114779057D01*
X161208329Y-114780959D01*
X161412894Y-114805351D01*
X161419029Y-114804879D01*
X161419031Y-114804879D01*
X161475039Y-114800569D01*
X161618300Y-114789546D01*
X161624230Y-114787890D01*
X161624232Y-114787890D01*
X161762009Y-114749422D01*
X161816725Y-114734145D01*
X161822214Y-114731372D01*
X161822220Y-114731370D01*
X161844281Y-114720226D01*
X163952819Y-114720226D01*
X163988907Y-114985395D01*
X164063792Y-115242317D01*
X164175831Y-115485348D01*
X164207830Y-115534155D01*
X164319996Y-115705236D01*
X164320000Y-115705241D01*
X164322562Y-115709149D01*
X164359051Y-115750031D01*
X164458117Y-115861025D01*
X164500760Y-115908803D01*
X164706512Y-116079925D01*
X164710505Y-116082348D01*
X164931306Y-116216334D01*
X164931310Y-116216336D01*
X164935298Y-116218756D01*
X164939606Y-116220563D01*
X164939607Y-116220563D01*
X165177776Y-116320436D01*
X165177781Y-116320438D01*
X165182091Y-116322245D01*
X165186623Y-116323396D01*
X165186626Y-116323397D01*
X165436933Y-116386967D01*
X165436936Y-116386968D01*
X165441470Y-116388119D01*
X165446126Y-116388588D01*
X165446127Y-116388588D01*
X165660602Y-116410184D01*
X165660603Y-116410184D01*
X165663741Y-116410500D01*
X165822944Y-116410500D01*
X165825267Y-116410327D01*
X165825277Y-116410327D01*
X166017212Y-116396064D01*
X166017216Y-116396063D01*
X166021877Y-116395717D01*
X166026441Y-116394684D01*
X166026443Y-116394684D01*
X166233863Y-116347749D01*
X166282891Y-116336655D01*
X166316984Y-116323397D01*
X166527956Y-116241355D01*
X166527958Y-116241354D01*
X166532309Y-116239662D01*
X166573125Y-116216334D01*
X166669811Y-116161073D01*
X166764650Y-116106868D01*
X166974811Y-115941190D01*
X167158175Y-115746269D01*
X167310714Y-115526385D01*
X167314761Y-115518178D01*
X167427011Y-115290559D01*
X167427012Y-115290556D01*
X167429076Y-115286371D01*
X167510662Y-115031497D01*
X167549989Y-114790018D01*
X167552927Y-114771976D01*
X167552927Y-114771975D01*
X167553678Y-114767364D01*
X167556400Y-114559432D01*
X167557120Y-114504451D01*
X167557120Y-114504448D01*
X167557181Y-114499774D01*
X167521093Y-114234605D01*
X167446208Y-113977683D01*
X167334169Y-113734652D01*
X167272254Y-113640216D01*
X167190004Y-113514764D01*
X167190000Y-113514759D01*
X167187438Y-113510851D01*
X167064075Y-113372634D01*
X167012357Y-113314689D01*
X167012355Y-113314687D01*
X167009240Y-113311197D01*
X166803488Y-113140075D01*
X166752051Y-113108862D01*
X166578694Y-113003666D01*
X166578690Y-113003664D01*
X166574702Y-113001244D01*
X166569608Y-112999108D01*
X166332224Y-112899564D01*
X166332219Y-112899562D01*
X166327909Y-112897755D01*
X166323377Y-112896604D01*
X166323374Y-112896603D01*
X166073067Y-112833033D01*
X166073064Y-112833032D01*
X166068530Y-112831881D01*
X166063874Y-112831412D01*
X166063873Y-112831412D01*
X165849398Y-112809816D01*
X165849397Y-112809816D01*
X165846259Y-112809500D01*
X165687056Y-112809500D01*
X165684733Y-112809673D01*
X165684723Y-112809673D01*
X165492788Y-112823936D01*
X165492784Y-112823937D01*
X165488123Y-112824283D01*
X165483559Y-112825316D01*
X165483557Y-112825316D01*
X165444482Y-112834158D01*
X165227109Y-112883345D01*
X165222757Y-112885037D01*
X165222755Y-112885038D01*
X164982044Y-112978645D01*
X164982042Y-112978646D01*
X164977691Y-112980338D01*
X164973637Y-112982655D01*
X164973635Y-112982656D01*
X164924087Y-113010975D01*
X164745350Y-113113132D01*
X164535189Y-113278810D01*
X164351825Y-113473731D01*
X164199286Y-113693615D01*
X164197220Y-113697804D01*
X164197219Y-113697806D01*
X164099307Y-113896353D01*
X164080924Y-113933629D01*
X164079502Y-113938072D01*
X164079501Y-113938074D01*
X164068184Y-113973429D01*
X163999338Y-114188503D01*
X163998588Y-114193109D01*
X163969540Y-114371476D01*
X163956322Y-114452636D01*
X163955035Y-114550919D01*
X163952897Y-114714290D01*
X163952819Y-114720226D01*
X161844281Y-114720226D01*
X161967605Y-114657930D01*
X162000610Y-114641258D01*
X162012651Y-114631851D01*
X162158101Y-114518213D01*
X162162951Y-114514424D01*
X162171378Y-114504662D01*
X162293540Y-114363134D01*
X162293540Y-114363133D01*
X162297564Y-114358472D01*
X162305867Y-114343857D01*
X162346384Y-114272533D01*
X162399323Y-114179344D01*
X162464351Y-113983863D01*
X162490171Y-113779474D01*
X162490583Y-113750000D01*
X162470480Y-113544970D01*
X162410935Y-113347749D01*
X162314218Y-113165849D01*
X162204587Y-113031428D01*
X162187906Y-113010975D01*
X162187903Y-113010972D01*
X162184011Y-113006200D01*
X162179262Y-113002271D01*
X162030025Y-112878811D01*
X162030021Y-112878809D01*
X162025275Y-112874882D01*
X161844055Y-112776897D01*
X161647254Y-112715977D01*
X161641129Y-112715333D01*
X161641128Y-112715333D01*
X161448498Y-112695087D01*
X161448496Y-112695087D01*
X161442369Y-112694443D01*
X161240468Y-112712817D01*
X161170816Y-112699072D01*
X161139955Y-112676431D01*
X160294882Y-111831358D01*
X160291229Y-111827549D01*
X160255015Y-111788167D01*
X160249201Y-111781844D01*
X160212198Y-111758901D01*
X160202448Y-111752200D01*
X160167783Y-111725888D01*
X160153804Y-111720354D01*
X160133801Y-111710293D01*
X160121014Y-111702365D01*
X160112763Y-111699968D01*
X160112761Y-111699967D01*
X160079228Y-111690225D01*
X160067995Y-111686379D01*
X160027547Y-111670364D01*
X160019006Y-111669466D01*
X160019005Y-111669466D01*
X160012592Y-111668792D01*
X159990617Y-111664480D01*
X159976175Y-111660285D01*
X159968692Y-111659736D01*
X159967792Y-111659669D01*
X159967781Y-111659669D01*
X159965485Y-111659500D01*
X159930783Y-111659500D01*
X159917613Y-111658810D01*
X159907384Y-111657735D01*
X159877546Y-111654599D01*
X159869081Y-111656031D01*
X159869072Y-111656031D01*
X159859000Y-111657735D01*
X159837987Y-111659500D01*
X159312933Y-111659500D01*
X159244812Y-111639498D01*
X159198319Y-111585842D01*
X159188215Y-111515568D01*
X159217551Y-111451170D01*
X159293536Y-111363140D01*
X159293542Y-111363132D01*
X159297564Y-111358472D01*
X159318387Y-111321818D01*
X159368803Y-111233068D01*
X159399323Y-111179344D01*
X159464351Y-110983863D01*
X159490171Y-110779474D01*
X159490583Y-110750000D01*
X159489138Y-110735262D01*
X160379520Y-110735262D01*
X160396759Y-110940553D01*
X160398458Y-110946478D01*
X160433791Y-111069698D01*
X160453544Y-111138586D01*
X160456359Y-111144063D01*
X160456360Y-111144066D01*
X160516168Y-111260440D01*
X160547712Y-111321818D01*
X160675677Y-111483270D01*
X160680370Y-111487264D01*
X160680371Y-111487265D01*
X160720063Y-111521045D01*
X160832564Y-111616791D01*
X160837942Y-111619797D01*
X160837944Y-111619798D01*
X160907748Y-111658810D01*
X161012398Y-111717297D01*
X161107238Y-111748113D01*
X161202471Y-111779056D01*
X161202475Y-111779057D01*
X161208329Y-111780959D01*
X161412894Y-111805351D01*
X161419029Y-111804879D01*
X161419031Y-111804879D01*
X161475039Y-111800569D01*
X161618300Y-111789546D01*
X161624230Y-111787890D01*
X161624232Y-111787890D01*
X161748104Y-111753304D01*
X161816725Y-111734145D01*
X161822214Y-111731372D01*
X161822220Y-111731370D01*
X161971364Y-111656031D01*
X162000610Y-111641258D01*
X162162951Y-111514424D01*
X162175402Y-111500000D01*
X162293540Y-111363134D01*
X162293540Y-111363133D01*
X162297564Y-111358472D01*
X162318387Y-111321818D01*
X162368803Y-111233068D01*
X162399323Y-111179344D01*
X162464351Y-110983863D01*
X162490171Y-110779474D01*
X162490583Y-110750000D01*
X162470480Y-110544970D01*
X162410935Y-110347749D01*
X162314218Y-110165849D01*
X162234492Y-110068095D01*
X162187906Y-110010975D01*
X162187903Y-110010972D01*
X162184011Y-110006200D01*
X162155299Y-109982447D01*
X162030025Y-109878811D01*
X162030021Y-109878809D01*
X162025275Y-109874882D01*
X161844055Y-109776897D01*
X161647254Y-109715977D01*
X161641129Y-109715333D01*
X161641128Y-109715333D01*
X161448498Y-109695087D01*
X161448496Y-109695087D01*
X161442369Y-109694443D01*
X161355529Y-109702346D01*
X161243342Y-109712555D01*
X161243339Y-109712556D01*
X161237203Y-109713114D01*
X161039572Y-109771280D01*
X160857002Y-109866726D01*
X160852201Y-109870586D01*
X160852198Y-109870588D01*
X160704934Y-109988991D01*
X160696447Y-109995815D01*
X160564024Y-110153630D01*
X160561056Y-110159028D01*
X160561053Y-110159033D01*
X160497979Y-110273766D01*
X160464776Y-110334162D01*
X160402484Y-110530532D01*
X160401798Y-110536649D01*
X160401797Y-110536653D01*
X160394521Y-110601522D01*
X160379520Y-110735262D01*
X159489138Y-110735262D01*
X159470480Y-110544970D01*
X159410935Y-110347749D01*
X159314218Y-110165849D01*
X159234492Y-110068095D01*
X159187906Y-110010975D01*
X159187903Y-110010972D01*
X159184011Y-110006200D01*
X159155299Y-109982447D01*
X159030025Y-109878811D01*
X159030021Y-109878809D01*
X159025275Y-109874882D01*
X158844055Y-109776897D01*
X158647254Y-109715977D01*
X158641129Y-109715333D01*
X158641128Y-109715333D01*
X158448498Y-109695087D01*
X158448496Y-109695087D01*
X158442369Y-109694443D01*
X158355529Y-109702346D01*
X158243342Y-109712555D01*
X158243339Y-109712556D01*
X158237203Y-109713114D01*
X158039572Y-109771280D01*
X157857002Y-109866726D01*
X157852201Y-109870586D01*
X157852198Y-109870588D01*
X157704934Y-109988991D01*
X157696447Y-109995815D01*
X157564024Y-110153630D01*
X157561054Y-110159032D01*
X157561048Y-110159041D01*
X157507084Y-110257201D01*
X157456739Y-110307260D01*
X157396670Y-110322500D01*
X156030956Y-110322500D01*
X155962835Y-110302498D01*
X155941861Y-110285595D01*
X153413735Y-107757469D01*
X153403880Y-107746380D01*
X153395115Y-107735262D01*
X153384162Y-107721368D01*
X153376415Y-107716013D01*
X153376413Y-107716012D01*
X153338434Y-107689764D01*
X153335255Y-107687493D01*
X153290512Y-107654445D01*
X153284046Y-107652174D01*
X153278410Y-107648279D01*
X153247866Y-107638619D01*
X153225421Y-107631520D01*
X153221669Y-107630268D01*
X153178110Y-107614972D01*
X153178109Y-107614972D01*
X153169222Y-107611851D01*
X153162375Y-107611582D01*
X153155843Y-107609516D01*
X153149567Y-107609022D01*
X153099715Y-107609022D01*
X153094767Y-107608925D01*
X153092750Y-107608846D01*
X153040771Y-107606803D01*
X153033949Y-107608612D01*
X153026497Y-107609022D01*
X149623449Y-107609022D01*
X149555328Y-107589020D01*
X149508835Y-107535364D01*
X149498731Y-107465090D01*
X149531674Y-107396689D01*
X149669976Y-107249670D01*
X149669978Y-107249667D01*
X149673175Y-107246269D01*
X149825714Y-107026385D01*
X149827781Y-107022194D01*
X149942011Y-106790559D01*
X149942012Y-106790556D01*
X149944076Y-106786371D01*
X149948858Y-106771434D01*
X149996381Y-106622970D01*
X150025662Y-106531497D01*
X150050571Y-106378545D01*
X150067927Y-106271976D01*
X150067927Y-106271975D01*
X150068678Y-106267364D01*
X150072181Y-105999774D01*
X150036093Y-105734605D01*
X150034334Y-105728568D01*
X150011783Y-105651200D01*
X149987308Y-105567229D01*
X151539500Y-105567229D01*
X151539501Y-106652770D01*
X151539956Y-106656529D01*
X151539956Y-106656532D01*
X151546803Y-106713114D01*
X151550364Y-106742547D01*
X151605888Y-106882783D01*
X151697078Y-107002922D01*
X151817217Y-107094112D01*
X151957453Y-107149636D01*
X151965491Y-107150609D01*
X151965492Y-107150609D01*
X151990458Y-107153630D01*
X152047229Y-107160500D01*
X152589642Y-107160500D01*
X153132770Y-107160499D01*
X153136528Y-107160044D01*
X153136533Y-107160044D01*
X153214517Y-107150608D01*
X153214520Y-107150607D01*
X153222547Y-107149636D01*
X153362783Y-107094112D01*
X153482922Y-107002922D01*
X153574112Y-106882783D01*
X153629636Y-106742547D01*
X153632550Y-106718472D01*
X153640045Y-106656532D01*
X153640045Y-106656530D01*
X153640500Y-106652771D01*
X153640499Y-105567230D01*
X153640044Y-105563467D01*
X153630608Y-105485483D01*
X153630607Y-105485480D01*
X153629636Y-105477453D01*
X153574112Y-105337217D01*
X153482922Y-105217078D01*
X153362783Y-105125888D01*
X153222547Y-105070364D01*
X153214509Y-105069391D01*
X153214508Y-105069391D01*
X153182937Y-105065571D01*
X153132771Y-105059500D01*
X152590358Y-105059500D01*
X152047230Y-105059501D01*
X152043472Y-105059956D01*
X152043467Y-105059956D01*
X151965483Y-105069392D01*
X151965480Y-105069393D01*
X151957453Y-105070364D01*
X151817217Y-105125888D01*
X151697078Y-105217078D01*
X151605888Y-105337217D01*
X151550364Y-105477453D01*
X151549391Y-105485491D01*
X151549391Y-105485492D01*
X151548704Y-105491169D01*
X151539500Y-105567229D01*
X149987308Y-105567229D01*
X149961208Y-105477683D01*
X149957633Y-105469927D01*
X149935313Y-105421512D01*
X149849169Y-105234652D01*
X149777860Y-105125888D01*
X149705004Y-105014764D01*
X149705000Y-105014759D01*
X149702438Y-105010851D01*
X149524240Y-104811197D01*
X149525744Y-104809855D01*
X149494780Y-104755407D01*
X149498620Y-104684514D01*
X149540178Y-104626952D01*
X149606260Y-104600995D01*
X149617419Y-104600500D01*
X155532022Y-104600500D01*
X155600143Y-104620502D01*
X155621117Y-104637405D01*
X155838327Y-104854615D01*
X155872353Y-104916927D01*
X155867288Y-104987742D01*
X155824741Y-105044578D01*
X155758221Y-105069389D01*
X155736062Y-105069020D01*
X155603498Y-105055087D01*
X155603496Y-105055087D01*
X155597369Y-105054443D01*
X155510529Y-105062346D01*
X155398342Y-105072555D01*
X155398339Y-105072556D01*
X155392203Y-105073114D01*
X155194572Y-105131280D01*
X155012002Y-105226726D01*
X155007201Y-105230586D01*
X155007198Y-105230588D01*
X154874578Y-105337217D01*
X154851447Y-105355815D01*
X154719024Y-105513630D01*
X154716056Y-105519028D01*
X154716053Y-105519033D01*
X154627838Y-105679498D01*
X154619776Y-105694162D01*
X154557484Y-105890532D01*
X154556798Y-105896649D01*
X154556797Y-105896653D01*
X154544706Y-106004451D01*
X154534520Y-106095262D01*
X154535036Y-106101406D01*
X154550192Y-106281887D01*
X154551759Y-106300553D01*
X154553458Y-106306478D01*
X154604762Y-106485395D01*
X154608544Y-106498586D01*
X154611359Y-106504063D01*
X154611360Y-106504066D01*
X154687783Y-106652770D01*
X154702712Y-106681818D01*
X154830677Y-106843270D01*
X154835370Y-106847264D01*
X154835371Y-106847265D01*
X154876735Y-106882468D01*
X154987564Y-106976791D01*
X154992942Y-106979797D01*
X154992944Y-106979798D01*
X155021603Y-106995815D01*
X155167398Y-107077297D01*
X155228878Y-107097273D01*
X155357471Y-107139056D01*
X155357475Y-107139057D01*
X155363329Y-107140959D01*
X155567894Y-107165351D01*
X155574029Y-107164879D01*
X155574031Y-107164879D01*
X155636865Y-107160044D01*
X155773300Y-107149546D01*
X155779230Y-107147890D01*
X155779232Y-107147890D01*
X155903104Y-107113304D01*
X155971725Y-107094145D01*
X155977214Y-107091372D01*
X155977220Y-107091370D01*
X156114164Y-107022194D01*
X156155610Y-107001258D01*
X156317951Y-106874424D01*
X156381714Y-106800554D01*
X156448540Y-106723134D01*
X156448540Y-106723133D01*
X156452564Y-106718472D01*
X156455777Y-106712817D01*
X156528281Y-106585186D01*
X156554323Y-106539344D01*
X156619351Y-106343863D01*
X156645171Y-106139474D01*
X156645390Y-106123806D01*
X156645534Y-106113522D01*
X156645534Y-106113518D01*
X156645583Y-106110000D01*
X156631207Y-105963379D01*
X156644467Y-105893632D01*
X156693329Y-105842125D01*
X156762282Y-105825212D01*
X156829433Y-105848262D01*
X156845701Y-105861989D01*
X157612367Y-106628655D01*
X157616020Y-106632464D01*
X157658036Y-106678156D01*
X157695034Y-106701095D01*
X157704785Y-106707797D01*
X157739453Y-106734112D01*
X157745198Y-106736387D01*
X157793916Y-106786421D01*
X157808081Y-106855990D01*
X157782386Y-106922174D01*
X157761484Y-106943524D01*
X157701258Y-106991946D01*
X157701253Y-106991951D01*
X157696447Y-106995815D01*
X157564024Y-107153630D01*
X157561056Y-107159028D01*
X157561053Y-107159033D01*
X157467743Y-107328765D01*
X157464776Y-107334162D01*
X157402484Y-107530532D01*
X157401798Y-107536649D01*
X157401797Y-107536653D01*
X157384802Y-107688172D01*
X157379520Y-107735262D01*
X157396759Y-107940553D01*
X157398458Y-107946478D01*
X157447223Y-108116541D01*
X157453544Y-108138586D01*
X157456359Y-108144063D01*
X157456360Y-108144066D01*
X157477247Y-108184707D01*
X157547712Y-108321818D01*
X157675677Y-108483270D01*
X157832564Y-108616791D01*
X158012398Y-108717297D01*
X158107238Y-108748113D01*
X158202471Y-108779056D01*
X158202475Y-108779057D01*
X158208329Y-108780959D01*
X158412894Y-108805351D01*
X158419029Y-108804879D01*
X158419031Y-108804879D01*
X158475039Y-108800569D01*
X158618300Y-108789546D01*
X158624230Y-108787890D01*
X158624232Y-108787890D01*
X158810797Y-108735800D01*
X158810796Y-108735800D01*
X158816725Y-108734145D01*
X158822214Y-108731372D01*
X158822220Y-108731370D01*
X158995116Y-108644033D01*
X159000610Y-108641258D01*
X159162951Y-108514424D01*
X159297564Y-108358472D01*
X159318387Y-108321818D01*
X159396276Y-108184707D01*
X159399323Y-108179344D01*
X159464351Y-107983863D01*
X159490171Y-107779474D01*
X159490583Y-107750000D01*
X159470480Y-107544970D01*
X159410935Y-107347749D01*
X159314218Y-107165849D01*
X159184011Y-107006200D01*
X159186331Y-107004308D01*
X159158469Y-106953283D01*
X159163534Y-106882468D01*
X159206081Y-106825632D01*
X159272601Y-106800821D01*
X159281590Y-106800500D01*
X159654785Y-106800500D01*
X159722906Y-106820502D01*
X159743880Y-106837405D01*
X160363087Y-107456612D01*
X160397113Y-107518924D01*
X160399207Y-107559749D01*
X160379520Y-107735262D01*
X160396759Y-107940553D01*
X160398458Y-107946478D01*
X160447223Y-108116541D01*
X160453544Y-108138586D01*
X160456359Y-108144063D01*
X160456360Y-108144066D01*
X160477247Y-108184707D01*
X160547712Y-108321818D01*
X160675677Y-108483270D01*
X160832564Y-108616791D01*
X161012398Y-108717297D01*
X161107238Y-108748113D01*
X161202471Y-108779056D01*
X161202475Y-108779057D01*
X161208329Y-108780959D01*
X161412894Y-108805351D01*
X161419029Y-108804879D01*
X161419031Y-108804879D01*
X161475039Y-108800569D01*
X161618300Y-108789546D01*
X161624230Y-108787890D01*
X161624232Y-108787890D01*
X161810797Y-108735800D01*
X161810796Y-108735800D01*
X161816725Y-108734145D01*
X161822214Y-108731372D01*
X161822220Y-108731370D01*
X161995116Y-108644033D01*
X162000610Y-108641258D01*
X162162951Y-108514424D01*
X162297564Y-108358472D01*
X162318387Y-108321818D01*
X162396276Y-108184707D01*
X162399323Y-108179344D01*
X162464351Y-107983863D01*
X162490171Y-107779474D01*
X162490583Y-107750000D01*
X162470480Y-107544970D01*
X162410935Y-107347749D01*
X162314218Y-107165849D01*
X162225215Y-107056721D01*
X162187906Y-107010975D01*
X162187903Y-107010972D01*
X162184011Y-107006200D01*
X162166781Y-106991946D01*
X162030025Y-106878811D01*
X162030021Y-106878809D01*
X162025275Y-106874882D01*
X161844055Y-106776897D01*
X161647254Y-106715977D01*
X161641129Y-106715333D01*
X161641128Y-106715333D01*
X161448498Y-106695087D01*
X161448496Y-106695087D01*
X161442369Y-106694443D01*
X161240468Y-106712817D01*
X161170816Y-106699072D01*
X161139955Y-106676431D01*
X160334882Y-105871358D01*
X160331229Y-105867549D01*
X160295015Y-105828167D01*
X160289201Y-105821844D01*
X160252198Y-105798901D01*
X160242448Y-105792200D01*
X160207783Y-105765888D01*
X160193804Y-105760354D01*
X160173801Y-105750293D01*
X160161014Y-105742365D01*
X160152763Y-105739968D01*
X160152761Y-105739967D01*
X160119228Y-105730225D01*
X160107995Y-105726379D01*
X160067547Y-105710364D01*
X160059006Y-105709466D01*
X160059005Y-105709466D01*
X160052592Y-105708792D01*
X160030617Y-105704480D01*
X160016175Y-105700285D01*
X160008692Y-105699736D01*
X160007792Y-105699669D01*
X160007781Y-105699669D01*
X160005485Y-105699500D01*
X159970783Y-105699500D01*
X159957613Y-105698810D01*
X159947384Y-105697735D01*
X159917546Y-105694599D01*
X159909081Y-105696031D01*
X159909072Y-105696031D01*
X159899000Y-105697735D01*
X159877987Y-105699500D01*
X159278406Y-105699500D01*
X159210285Y-105679498D01*
X159163792Y-105625842D01*
X159153688Y-105555568D01*
X159183024Y-105491169D01*
X159293540Y-105363134D01*
X159293540Y-105363133D01*
X159297564Y-105358472D01*
X159318387Y-105321818D01*
X159353535Y-105259946D01*
X159399323Y-105179344D01*
X159464351Y-104983863D01*
X159490171Y-104779474D01*
X159490390Y-104763806D01*
X159490534Y-104753522D01*
X159490534Y-104753518D01*
X159490583Y-104750000D01*
X159470480Y-104544970D01*
X159410935Y-104347749D01*
X159314218Y-104165849D01*
X159304253Y-104153630D01*
X159221867Y-104052616D01*
X159194313Y-103987184D01*
X159206508Y-103917243D01*
X159254581Y-103864998D01*
X159319510Y-103846980D01*
X159875212Y-103846980D01*
X159943333Y-103866982D01*
X159964307Y-103883884D01*
X160398518Y-104318094D01*
X160432543Y-104380407D01*
X160429525Y-104445287D01*
X160402484Y-104530532D01*
X160401798Y-104536649D01*
X160401797Y-104536653D01*
X160398265Y-104568145D01*
X160379520Y-104735262D01*
X160380036Y-104741406D01*
X160393403Y-104900583D01*
X160396759Y-104940553D01*
X160398458Y-104946478D01*
X160451392Y-105131080D01*
X160453544Y-105138586D01*
X160456359Y-105144063D01*
X160456360Y-105144066D01*
X160500826Y-105230588D01*
X160547712Y-105321818D01*
X160675677Y-105483270D01*
X160680370Y-105487264D01*
X160680371Y-105487265D01*
X160806141Y-105594303D01*
X160832564Y-105616791D01*
X160837942Y-105619797D01*
X160837944Y-105619798D01*
X160912597Y-105661520D01*
X161012398Y-105717297D01*
X161069652Y-105735900D01*
X161202471Y-105779056D01*
X161202475Y-105779057D01*
X161208329Y-105780959D01*
X161412894Y-105805351D01*
X161419029Y-105804879D01*
X161419031Y-105804879D01*
X161475039Y-105800569D01*
X161618300Y-105789546D01*
X161624230Y-105787890D01*
X161624232Y-105787890D01*
X161810797Y-105735800D01*
X161810796Y-105735800D01*
X161816725Y-105734145D01*
X161822214Y-105731372D01*
X161822220Y-105731370D01*
X161995116Y-105644033D01*
X162000610Y-105641258D01*
X162005546Y-105637402D01*
X162140865Y-105531679D01*
X162162951Y-105514424D01*
X162187925Y-105485492D01*
X162293540Y-105363134D01*
X162293540Y-105363133D01*
X162297564Y-105358472D01*
X162318387Y-105321818D01*
X162353535Y-105259946D01*
X162399323Y-105179344D01*
X162464351Y-104983863D01*
X162490171Y-104779474D01*
X162490390Y-104763806D01*
X162490534Y-104753522D01*
X162490534Y-104753518D01*
X162490583Y-104750000D01*
X162470480Y-104544970D01*
X162410935Y-104347749D01*
X162314218Y-104165849D01*
X162221867Y-104052616D01*
X162187906Y-104010975D01*
X162187903Y-104010972D01*
X162184011Y-104006200D01*
X162161025Y-103987184D01*
X162030025Y-103878811D01*
X162030021Y-103878809D01*
X162025275Y-103874882D01*
X161844055Y-103776897D01*
X161647254Y-103715977D01*
X161641129Y-103715333D01*
X161641128Y-103715333D01*
X161448498Y-103695087D01*
X161448496Y-103695087D01*
X161442369Y-103694443D01*
X161355529Y-103702346D01*
X161243342Y-103712555D01*
X161243339Y-103712556D01*
X161237203Y-103713114D01*
X161231291Y-103714854D01*
X161127783Y-103745317D01*
X161056787Y-103745361D01*
X161003114Y-103713538D01*
X160628672Y-103339096D01*
X160594646Y-103276784D01*
X160599711Y-103205969D01*
X160628671Y-103160906D01*
X161002998Y-102786579D01*
X161065309Y-102752555D01*
X161131027Y-102755842D01*
X161208329Y-102780959D01*
X161214449Y-102781689D01*
X161214450Y-102781689D01*
X161266456Y-102787890D01*
X161412894Y-102805351D01*
X161419029Y-102804879D01*
X161419031Y-102804879D01*
X161475039Y-102800569D01*
X161618300Y-102789546D01*
X161624230Y-102787890D01*
X161624232Y-102787890D01*
X161810797Y-102735800D01*
X161810796Y-102735800D01*
X161816725Y-102734145D01*
X161822214Y-102731372D01*
X161822220Y-102731370D01*
X161995116Y-102644033D01*
X162000610Y-102641258D01*
X162162951Y-102514424D01*
X162191513Y-102481335D01*
X162293540Y-102363134D01*
X162293540Y-102363133D01*
X162297564Y-102358472D01*
X162304945Y-102345480D01*
X162340277Y-102283283D01*
X162399323Y-102179344D01*
X162464351Y-101983863D01*
X162490171Y-101779474D01*
X162490583Y-101750000D01*
X162470480Y-101544970D01*
X162410935Y-101347749D01*
X162314218Y-101165849D01*
X162192106Y-101016125D01*
X162187906Y-101010975D01*
X162187903Y-101010972D01*
X162184011Y-101006200D01*
X162171458Y-100995815D01*
X162030025Y-100878811D01*
X162030021Y-100878809D01*
X162025275Y-100874882D01*
X161844055Y-100776897D01*
X161647254Y-100715977D01*
X161641129Y-100715333D01*
X161641128Y-100715333D01*
X161448498Y-100695087D01*
X161448496Y-100695087D01*
X161442369Y-100694443D01*
X161355529Y-100702346D01*
X161243342Y-100712555D01*
X161243339Y-100712556D01*
X161237203Y-100713114D01*
X161039572Y-100771280D01*
X160857002Y-100866726D01*
X160852201Y-100870586D01*
X160852198Y-100870588D01*
X160758315Y-100946072D01*
X160696447Y-100995815D01*
X160564024Y-101153630D01*
X160561056Y-101159028D01*
X160561053Y-101159033D01*
X160487497Y-101292832D01*
X160464776Y-101334162D01*
X160402484Y-101530532D01*
X160401798Y-101536649D01*
X160401797Y-101536653D01*
X160394173Y-101604623D01*
X160379520Y-101735262D01*
X160380036Y-101741406D01*
X160385722Y-101809113D01*
X160396759Y-101940553D01*
X160426825Y-102045404D01*
X160430478Y-102058145D01*
X160430027Y-102129140D01*
X160398454Y-102181970D01*
X160132869Y-102447555D01*
X160070557Y-102481581D01*
X160043774Y-102484460D01*
X159442482Y-102484460D01*
X159374361Y-102464458D01*
X159327868Y-102410802D01*
X159317764Y-102340528D01*
X159332926Y-102296223D01*
X159333822Y-102294647D01*
X159399323Y-102179344D01*
X159464351Y-101983863D01*
X159490171Y-101779474D01*
X159490583Y-101750000D01*
X159470480Y-101544970D01*
X159410935Y-101347749D01*
X159314218Y-101165849D01*
X159192106Y-101016125D01*
X159187906Y-101010975D01*
X159187903Y-101010972D01*
X159184011Y-101006200D01*
X159171458Y-100995815D01*
X159030025Y-100878811D01*
X159030021Y-100878809D01*
X159025275Y-100874882D01*
X158844055Y-100776897D01*
X158647254Y-100715977D01*
X158641129Y-100715333D01*
X158641128Y-100715333D01*
X158448498Y-100695087D01*
X158448496Y-100695087D01*
X158442369Y-100694443D01*
X158355529Y-100702346D01*
X158243342Y-100712555D01*
X158243339Y-100712556D01*
X158237203Y-100713114D01*
X158039572Y-100771280D01*
X157857002Y-100866726D01*
X157852201Y-100870586D01*
X157852198Y-100870588D01*
X157758315Y-100946072D01*
X157696447Y-100995815D01*
X157564024Y-101153630D01*
X157561056Y-101159028D01*
X157561053Y-101159033D01*
X157487497Y-101292832D01*
X157464776Y-101334162D01*
X157402484Y-101530532D01*
X157401798Y-101536649D01*
X157401797Y-101536653D01*
X157394173Y-101604623D01*
X157379520Y-101735262D01*
X157380036Y-101741406D01*
X157385722Y-101809113D01*
X157396759Y-101940553D01*
X157398458Y-101946478D01*
X157448597Y-102121333D01*
X157453544Y-102138586D01*
X157456359Y-102144063D01*
X157456360Y-102144066D01*
X157536944Y-102300866D01*
X157550291Y-102370597D01*
X157523821Y-102436474D01*
X157465936Y-102477582D01*
X157424877Y-102484460D01*
X144638746Y-102484460D01*
X144570625Y-102464458D01*
X144549651Y-102447555D01*
X144184405Y-102082309D01*
X144150379Y-102019997D01*
X144147500Y-101993214D01*
X144147500Y-101481538D01*
X144167502Y-101413417D01*
X144211933Y-101371604D01*
X144346001Y-101296523D01*
X144408433Y-101244599D01*
X144418625Y-101236122D01*
X144501505Y-101167191D01*
X144630837Y-101011687D01*
X144729664Y-100835217D01*
X144733294Y-100824525D01*
X144792820Y-100649167D01*
X144792820Y-100649165D01*
X144794678Y-100643693D01*
X144795507Y-100637977D01*
X144795508Y-100637972D01*
X144817698Y-100484923D01*
X144823700Y-100443528D01*
X144825215Y-100385686D01*
X144806708Y-100184277D01*
X144751807Y-99989612D01*
X144662351Y-99808213D01*
X144644079Y-99783743D01*
X144544788Y-99650777D01*
X144544787Y-99650776D01*
X144541335Y-99646153D01*
X144518350Y-99624906D01*
X144397053Y-99512780D01*
X144397051Y-99512778D01*
X144392812Y-99508860D01*
X144365374Y-99491548D01*
X144226637Y-99404011D01*
X144221757Y-99400932D01*
X144033898Y-99325984D01*
X143835526Y-99286525D01*
X143829752Y-99286449D01*
X143829748Y-99286449D01*
X143727257Y-99285108D01*
X143633286Y-99283878D01*
X143627589Y-99284857D01*
X143627588Y-99284857D01*
X143439646Y-99317151D01*
X143439645Y-99317151D01*
X143433949Y-99318130D01*
X143244193Y-99388135D01*
X143070371Y-99491548D01*
X142918305Y-99624906D01*
X142793089Y-99783743D01*
X142698914Y-99962739D01*
X142638937Y-100155899D01*
X142615164Y-100356755D01*
X142628392Y-100558580D01*
X142629815Y-100564182D01*
X142668366Y-100715977D01*
X142678178Y-100754614D01*
X142762856Y-100938293D01*
X142766189Y-100943009D01*
X142831329Y-101035180D01*
X142879588Y-101103466D01*
X142883730Y-101107501D01*
X142892070Y-101115625D01*
X143024466Y-101244599D01*
X143192637Y-101356968D01*
X143197949Y-101359250D01*
X143216236Y-101367107D01*
X143270930Y-101412374D01*
X143292500Y-101482875D01*
X143292500Y-102189626D01*
X143291627Y-102204435D01*
X143287884Y-102236059D01*
X143289576Y-102245323D01*
X143289576Y-102245324D01*
X143297871Y-102290741D01*
X143298521Y-102294647D01*
X143306783Y-102349602D01*
X143309749Y-102355779D01*
X143310980Y-102362519D01*
X143315320Y-102370873D01*
X143315320Y-102370874D01*
X143336600Y-102411839D01*
X143338369Y-102415379D01*
X143362429Y-102465485D01*
X143367082Y-102470519D01*
X143370239Y-102476596D01*
X143374327Y-102481384D01*
X143409572Y-102516629D01*
X143413001Y-102520194D01*
X143449689Y-102559883D01*
X143455788Y-102563426D01*
X143461344Y-102568402D01*
X143670347Y-102777405D01*
X143704373Y-102839717D01*
X143699308Y-102910532D01*
X143656761Y-102967368D01*
X143590241Y-102992179D01*
X143581252Y-102992500D01*
X135849266Y-102992500D01*
X135781145Y-102972498D01*
X135760171Y-102955595D01*
X135144405Y-102339829D01*
X135110379Y-102277517D01*
X135107500Y-102250734D01*
X135107500Y-101563399D01*
X137006976Y-101563399D01*
X137028794Y-101653928D01*
X137032677Y-101665207D01*
X137114597Y-101845378D01*
X137120543Y-101855718D01*
X137235051Y-102017146D01*
X137242844Y-102026174D01*
X137385812Y-102163036D01*
X137395177Y-102170432D01*
X137561440Y-102277787D01*
X137572043Y-102283283D01*
X137755596Y-102357257D01*
X137767051Y-102360650D01*
X137962722Y-102398861D01*
X137971557Y-102399935D01*
X137974242Y-102400000D01*
X138081885Y-102400000D01*
X138097124Y-102395525D01*
X138098329Y-102394135D01*
X138100000Y-102386452D01*
X138100000Y-102381885D01*
X138600000Y-102381885D01*
X138604475Y-102397124D01*
X138605865Y-102398329D01*
X138613548Y-102400000D01*
X138674454Y-102400000D01*
X138680430Y-102399715D01*
X138827974Y-102385638D01*
X138839709Y-102383379D01*
X139029615Y-102327667D01*
X139040691Y-102323237D01*
X139216637Y-102232619D01*
X139226683Y-102226169D01*
X139382314Y-102103919D01*
X139390967Y-102095679D01*
X139520670Y-101946209D01*
X139527604Y-101936489D01*
X139626704Y-101765188D01*
X139631678Y-101754324D01*
X139696599Y-101567371D01*
X139697221Y-101564820D01*
X139695677Y-101553992D01*
X139682112Y-101550000D01*
X138618115Y-101550000D01*
X138602876Y-101554475D01*
X138601671Y-101555865D01*
X138600000Y-101563548D01*
X138600000Y-102381885D01*
X138100000Y-102381885D01*
X138100000Y-101568115D01*
X138095525Y-101552876D01*
X138094135Y-101551671D01*
X138086452Y-101550000D01*
X137021862Y-101550000D01*
X137008331Y-101553973D01*
X137006976Y-101563399D01*
X135107500Y-101563399D01*
X135107500Y-95679267D01*
X135127502Y-95611146D01*
X135144405Y-95590172D01*
X136316424Y-94418152D01*
X136327513Y-94408297D01*
X136345127Y-94394411D01*
X136352524Y-94388580D01*
X136384137Y-94342840D01*
X136386399Y-94339673D01*
X136419447Y-94294930D01*
X136421718Y-94288464D01*
X136425613Y-94282828D01*
X136442372Y-94229839D01*
X136443624Y-94226087D01*
X136458920Y-94182528D01*
X136458920Y-94182527D01*
X136462041Y-94173640D01*
X136462310Y-94166793D01*
X136464376Y-94160261D01*
X136464870Y-94153985D01*
X136464870Y-94104133D01*
X136464967Y-94099185D01*
X136465884Y-94075861D01*
X136467089Y-94045189D01*
X136465280Y-94038367D01*
X136464870Y-94030915D01*
X136464870Y-93913718D01*
X136484872Y-93845597D01*
X136544487Y-93796566D01*
X136660153Y-93750771D01*
X136780292Y-93659580D01*
X136871483Y-93539441D01*
X136906690Y-93450517D01*
X136924025Y-93406735D01*
X136924026Y-93406733D01*
X136927006Y-93399205D01*
X136937870Y-93309430D01*
X136937870Y-91973886D01*
X136935557Y-91954775D01*
X136947229Y-91884747D01*
X136994910Y-91832144D01*
X137060644Y-91813638D01*
X140084174Y-91813638D01*
X140152295Y-91833640D01*
X140198788Y-91887296D01*
X140208892Y-91957570D01*
X140199280Y-91990889D01*
X140198497Y-91992649D01*
X140195191Y-91998374D01*
X140136696Y-92178402D01*
X140121870Y-92319466D01*
X140121870Y-92963850D01*
X140136696Y-93104914D01*
X140195191Y-93284942D01*
X140198494Y-93290664D01*
X140198495Y-93290665D01*
X140209329Y-93309430D01*
X140289837Y-93448874D01*
X140291596Y-93450827D01*
X140314959Y-93516305D01*
X140298880Y-93585457D01*
X140247966Y-93634938D01*
X140189165Y-93649500D01*
X139384993Y-93649500D01*
X139379717Y-93649389D01*
X139375310Y-93649204D01*
X139317706Y-93646790D01*
X139309341Y-93648752D01*
X139275338Y-93656727D01*
X139263667Y-93658890D01*
X139252907Y-93660364D01*
X139220568Y-93664794D01*
X139212684Y-93668206D01*
X139212683Y-93668206D01*
X139206770Y-93670765D01*
X139185501Y-93677799D01*
X139170864Y-93681232D01*
X139163339Y-93685369D01*
X139163336Y-93685370D01*
X139132732Y-93702195D01*
X139122087Y-93707411D01*
X139082145Y-93724695D01*
X139070459Y-93734158D01*
X139051875Y-93746645D01*
X139038692Y-93753893D01*
X139030578Y-93760897D01*
X139006042Y-93785433D01*
X138996241Y-93794258D01*
X138975751Y-93810851D01*
X138964930Y-93819614D01*
X138959957Y-93826612D01*
X138959952Y-93826617D01*
X138954032Y-93834948D01*
X138940427Y-93851048D01*
X137971334Y-94820142D01*
X137967548Y-94823772D01*
X137921844Y-94865799D01*
X137898901Y-94902802D01*
X137892200Y-94912552D01*
X137865888Y-94947217D01*
X137861218Y-94959012D01*
X137860354Y-94961195D01*
X137850293Y-94981199D01*
X137842365Y-94993986D01*
X137839968Y-95002237D01*
X137839967Y-95002239D01*
X137830225Y-95035772D01*
X137826380Y-95047002D01*
X137810364Y-95087453D01*
X137809466Y-95095994D01*
X137809466Y-95095995D01*
X137808792Y-95102408D01*
X137804480Y-95124383D01*
X137800285Y-95138825D01*
X137799500Y-95149515D01*
X137799500Y-95184217D01*
X137798810Y-95197387D01*
X137794599Y-95237454D01*
X137796031Y-95245919D01*
X137796031Y-95245928D01*
X137797735Y-95256000D01*
X137799500Y-95277013D01*
X137799500Y-96274026D01*
X137779498Y-96342147D01*
X137725842Y-96388640D01*
X137682286Y-96399500D01*
X137682228Y-96399500D01*
X137678462Y-96399956D01*
X137678458Y-96399956D01*
X137645240Y-96403976D01*
X137592453Y-96410364D01*
X137584925Y-96413344D01*
X137584923Y-96413345D01*
X137536425Y-96432547D01*
X137452217Y-96465887D01*
X137332078Y-96557078D01*
X137240887Y-96677217D01*
X137215700Y-96740832D01*
X137191490Y-96801981D01*
X137185364Y-96817453D01*
X137174500Y-96907228D01*
X137174500Y-97692772D01*
X137185364Y-97782547D01*
X137240887Y-97922783D01*
X137332078Y-98042922D01*
X137452217Y-98134113D01*
X137489573Y-98148903D01*
X137584923Y-98186655D01*
X137584925Y-98186656D01*
X137592453Y-98189636D01*
X137682228Y-98200500D01*
X137749301Y-98200500D01*
X137817422Y-98220502D01*
X137863915Y-98274158D01*
X137874019Y-98344432D01*
X137844525Y-98409012D01*
X137788237Y-98446333D01*
X137706716Y-98472821D01*
X137700994Y-98476124D01*
X137700993Y-98476125D01*
X137591973Y-98539068D01*
X137542784Y-98567467D01*
X137402112Y-98694129D01*
X137398233Y-98699468D01*
X137319555Y-98807760D01*
X137290849Y-98847270D01*
X137213856Y-99020197D01*
X137196565Y-99101547D01*
X137177480Y-99191336D01*
X137174500Y-99205354D01*
X137174500Y-99394646D01*
X137175872Y-99401099D01*
X137175872Y-99401103D01*
X137187897Y-99457676D01*
X137213856Y-99579803D01*
X137290849Y-99752730D01*
X137294729Y-99758071D01*
X137294730Y-99758072D01*
X137333370Y-99811256D01*
X137402112Y-99905871D01*
X137407014Y-99910284D01*
X137407015Y-99910286D01*
X137498766Y-99992899D01*
X137542784Y-100032533D01*
X137548505Y-100035836D01*
X137621367Y-100077903D01*
X137670360Y-100129286D01*
X137683796Y-100198999D01*
X137657410Y-100264910D01*
X137616059Y-100299038D01*
X137483363Y-100367381D01*
X137473317Y-100373831D01*
X137317686Y-100496081D01*
X137309033Y-100504321D01*
X137179330Y-100653791D01*
X137172396Y-100663511D01*
X137073296Y-100834812D01*
X137068322Y-100845676D01*
X137003401Y-101032629D01*
X137002779Y-101035180D01*
X137004323Y-101046008D01*
X137017888Y-101050000D01*
X139678138Y-101050000D01*
X139691669Y-101046027D01*
X139693024Y-101036601D01*
X139671206Y-100946072D01*
X139667323Y-100934793D01*
X139585403Y-100754622D01*
X139579457Y-100744282D01*
X139464949Y-100582854D01*
X139457156Y-100573826D01*
X139314188Y-100436964D01*
X139304823Y-100429568D01*
X139138560Y-100322213D01*
X139127963Y-100316720D01*
X139095189Y-100303512D01*
X139039482Y-100259497D01*
X139016415Y-100192352D01*
X139033311Y-100123395D01*
X139079286Y-100077526D01*
X139151495Y-100035836D01*
X139157216Y-100032533D01*
X139201234Y-99992899D01*
X139292985Y-99910286D01*
X139292986Y-99910284D01*
X139297888Y-99905871D01*
X139366630Y-99811256D01*
X139389746Y-99779439D01*
X139445968Y-99736085D01*
X139491682Y-99727500D01*
X142232832Y-99727500D01*
X142247641Y-99728373D01*
X142279265Y-99732116D01*
X142288529Y-99730424D01*
X142288530Y-99730424D01*
X142333947Y-99722129D01*
X142337853Y-99721479D01*
X142365669Y-99717297D01*
X142392808Y-99713217D01*
X142398985Y-99710251D01*
X142405725Y-99709020D01*
X142455046Y-99683399D01*
X142458586Y-99681631D01*
X142500201Y-99661648D01*
X142500202Y-99661647D01*
X142508691Y-99657571D01*
X142513725Y-99652918D01*
X142519802Y-99649761D01*
X142524590Y-99645673D01*
X142559836Y-99610427D01*
X142563402Y-99606997D01*
X142596176Y-99576702D01*
X142596178Y-99576699D01*
X142603089Y-99570311D01*
X142606632Y-99564210D01*
X142611612Y-99558651D01*
X142897030Y-99273233D01*
X146094906Y-99273233D01*
X146121102Y-99547792D01*
X146122187Y-99552226D01*
X146122188Y-99552232D01*
X146166381Y-99732832D01*
X146186657Y-99815694D01*
X146290199Y-100071326D01*
X146292500Y-100075256D01*
X146292503Y-100075262D01*
X146427255Y-100305403D01*
X146427260Y-100305410D01*
X146429558Y-100309335D01*
X146432405Y-100312895D01*
X146550028Y-100459974D01*
X146601816Y-100524732D01*
X146605157Y-100527853D01*
X146784180Y-100695087D01*
X146803364Y-100713008D01*
X147029979Y-100870216D01*
X147034055Y-100872244D01*
X147034057Y-100872245D01*
X147272827Y-100991032D01*
X147272830Y-100991033D01*
X147276914Y-100993065D01*
X147538998Y-101078980D01*
X147543489Y-101079760D01*
X147543490Y-101079760D01*
X147806957Y-101125506D01*
X147806965Y-101125507D01*
X147810738Y-101126162D01*
X147814575Y-101126353D01*
X147896305Y-101130422D01*
X147896313Y-101130422D01*
X147897876Y-101130500D01*
X148070070Y-101130500D01*
X148072338Y-101130335D01*
X148072350Y-101130335D01*
X148206603Y-101120594D01*
X148275083Y-101115625D01*
X148279538Y-101114641D01*
X148279541Y-101114641D01*
X148539947Y-101057148D01*
X148539950Y-101057147D01*
X148544403Y-101056164D01*
X148802319Y-100958449D01*
X148830117Y-100943009D01*
X149039435Y-100826743D01*
X149039436Y-100826742D01*
X149043428Y-100824525D01*
X149262678Y-100657198D01*
X149339631Y-100578479D01*
X149452283Y-100463242D01*
X149452287Y-100463237D01*
X149455477Y-100459974D01*
X149458166Y-100456280D01*
X149615100Y-100240676D01*
X149615102Y-100240673D01*
X149617787Y-100236984D01*
X149746206Y-99992899D01*
X149838045Y-99732832D01*
X149874516Y-99547792D01*
X149890499Y-99466704D01*
X149890500Y-99466698D01*
X149891380Y-99462232D01*
X149894279Y-99404011D01*
X149904867Y-99191336D01*
X149904867Y-99191330D01*
X149905094Y-99186767D01*
X149878898Y-98912208D01*
X149864485Y-98853304D01*
X149835600Y-98735262D01*
X157379520Y-98735262D01*
X157380036Y-98741406D01*
X157390803Y-98869621D01*
X157396759Y-98940553D01*
X157398458Y-98946478D01*
X157439524Y-99089691D01*
X157453544Y-99138586D01*
X157456359Y-99144063D01*
X157456360Y-99144066D01*
X157529535Y-99286449D01*
X157547712Y-99321818D01*
X157675677Y-99483270D01*
X157680370Y-99487264D01*
X157680371Y-99487265D01*
X157764250Y-99558651D01*
X157832564Y-99616791D01*
X157837942Y-99619797D01*
X157837944Y-99619798D01*
X157902321Y-99655777D01*
X158012398Y-99717297D01*
X158073419Y-99737124D01*
X158202471Y-99779056D01*
X158202475Y-99779057D01*
X158208329Y-99780959D01*
X158412894Y-99805351D01*
X158419029Y-99804879D01*
X158419031Y-99804879D01*
X158475039Y-99800569D01*
X158618300Y-99789546D01*
X158624230Y-99787890D01*
X158624232Y-99787890D01*
X158806055Y-99737124D01*
X158816725Y-99734145D01*
X158822214Y-99731372D01*
X158822220Y-99731370D01*
X158977527Y-99652918D01*
X159000610Y-99641258D01*
X159162951Y-99514424D01*
X159179409Y-99495358D01*
X159293540Y-99363134D01*
X159293540Y-99363133D01*
X159297564Y-99358472D01*
X159318387Y-99321818D01*
X159343398Y-99277789D01*
X159399323Y-99179344D01*
X159464351Y-98983863D01*
X159490171Y-98779474D01*
X159490583Y-98750000D01*
X159470480Y-98544970D01*
X159410935Y-98347749D01*
X159314218Y-98165849D01*
X159213961Y-98042922D01*
X159187906Y-98010975D01*
X159187903Y-98010972D01*
X159184011Y-98006200D01*
X159102580Y-97938834D01*
X159030025Y-97878811D01*
X159030021Y-97878809D01*
X159025275Y-97874882D01*
X158868431Y-97790077D01*
X158849474Y-97779827D01*
X158844055Y-97776897D01*
X158647254Y-97715977D01*
X158641129Y-97715333D01*
X158641128Y-97715333D01*
X158448498Y-97695087D01*
X158448496Y-97695087D01*
X158442369Y-97694443D01*
X158355529Y-97702346D01*
X158243342Y-97712555D01*
X158243339Y-97712556D01*
X158237203Y-97713114D01*
X158039572Y-97771280D01*
X157857002Y-97866726D01*
X157852201Y-97870586D01*
X157852198Y-97870588D01*
X157767317Y-97938834D01*
X157696447Y-97995815D01*
X157564024Y-98153630D01*
X157561056Y-98159028D01*
X157561053Y-98159033D01*
X157523659Y-98227054D01*
X157464776Y-98334162D01*
X157402484Y-98530532D01*
X157401798Y-98536649D01*
X157401797Y-98536653D01*
X157384629Y-98689714D01*
X157379520Y-98735262D01*
X149835600Y-98735262D01*
X149814429Y-98648744D01*
X149813343Y-98644306D01*
X149709801Y-98388674D01*
X149707500Y-98384744D01*
X149707497Y-98384738D01*
X149572745Y-98154597D01*
X149572740Y-98154590D01*
X149570442Y-98150665D01*
X149488426Y-98048110D01*
X149401036Y-97938834D01*
X149401035Y-97938833D01*
X149398184Y-97935268D01*
X149242758Y-97790077D01*
X149199972Y-97750108D01*
X149199969Y-97750106D01*
X149196636Y-97746992D01*
X148970021Y-97589784D01*
X148899345Y-97554623D01*
X148727173Y-97468968D01*
X148727170Y-97468967D01*
X148723086Y-97466935D01*
X148461002Y-97381020D01*
X148456510Y-97380240D01*
X148193043Y-97334494D01*
X148193035Y-97334493D01*
X148189262Y-97333838D01*
X148179029Y-97333329D01*
X148103695Y-97329578D01*
X148103687Y-97329578D01*
X148102124Y-97329500D01*
X147929930Y-97329500D01*
X147927662Y-97329665D01*
X147927650Y-97329665D01*
X147793397Y-97339406D01*
X147724917Y-97344375D01*
X147720462Y-97345359D01*
X147720459Y-97345359D01*
X147460053Y-97402852D01*
X147460050Y-97402853D01*
X147455597Y-97403836D01*
X147197681Y-97501551D01*
X147193694Y-97503765D01*
X147193693Y-97503766D01*
X146967867Y-97629201D01*
X146956572Y-97635475D01*
X146886460Y-97688983D01*
X146771266Y-97776897D01*
X146737322Y-97802802D01*
X146734129Y-97806068D01*
X146734127Y-97806070D01*
X146547717Y-97996758D01*
X146547713Y-97996763D01*
X146544523Y-98000026D01*
X146541836Y-98003718D01*
X146541834Y-98003720D01*
X146406510Y-98189636D01*
X146382213Y-98223016D01*
X146253794Y-98467101D01*
X146161955Y-98727168D01*
X146152340Y-98775949D01*
X146111361Y-98983863D01*
X146108620Y-98997768D01*
X146108393Y-99002322D01*
X146108393Y-99002324D01*
X146097957Y-99211957D01*
X146094906Y-99273233D01*
X142897030Y-99273233D01*
X143187172Y-98983091D01*
X143249484Y-98949065D01*
X143276267Y-98946186D01*
X144564646Y-98946186D01*
X144568350Y-98945745D01*
X144568353Y-98945745D01*
X144575746Y-98944865D01*
X144590846Y-98943068D01*
X144693153Y-98897625D01*
X144772241Y-98818399D01*
X144817506Y-98716013D01*
X144820500Y-98690332D01*
X144820500Y-97001040D01*
X144817382Y-96974840D01*
X144782389Y-96896058D01*
X144776663Y-96883168D01*
X144771939Y-96872533D01*
X144756087Y-96856708D01*
X144709220Y-96809923D01*
X144692713Y-96793445D01*
X144682076Y-96788742D01*
X144682074Y-96788741D01*
X144622538Y-96762421D01*
X144590327Y-96748180D01*
X144564646Y-96745186D01*
X142875354Y-96745186D01*
X142871650Y-96745627D01*
X142871647Y-96745627D01*
X142864254Y-96746507D01*
X142849154Y-96748304D01*
X142840514Y-96752142D01*
X142840513Y-96752142D01*
X142760033Y-96787890D01*
X142746847Y-96793747D01*
X142738628Y-96801980D01*
X142738627Y-96801981D01*
X142716921Y-96823725D01*
X142667759Y-96872973D01*
X142663056Y-96883610D01*
X142663055Y-96883612D01*
X142636735Y-96943148D01*
X142622494Y-96975359D01*
X142619500Y-97001040D01*
X142619500Y-98289420D01*
X142599498Y-98357541D01*
X142582595Y-98378515D01*
X142125515Y-98835595D01*
X142063203Y-98869621D01*
X142036420Y-98872500D01*
X139491682Y-98872500D01*
X139423561Y-98852498D01*
X139389746Y-98820561D01*
X139301767Y-98699468D01*
X139297888Y-98694129D01*
X139157216Y-98567467D01*
X139108027Y-98539068D01*
X138999007Y-98476125D01*
X138999006Y-98476124D01*
X138993284Y-98472821D01*
X138911763Y-98446333D01*
X138853157Y-98406259D01*
X138825520Y-98340863D01*
X138837627Y-98270906D01*
X138885633Y-98218600D01*
X138950699Y-98200500D01*
X139017772Y-98200500D01*
X139107547Y-98189636D01*
X139115075Y-98186656D01*
X139115077Y-98186655D01*
X139210427Y-98148903D01*
X139247783Y-98134113D01*
X139367922Y-98042922D01*
X139459113Y-97922783D01*
X139514636Y-97782547D01*
X139525500Y-97692772D01*
X139525500Y-96907228D01*
X139514636Y-96817453D01*
X139508511Y-96801981D01*
X139484300Y-96740832D01*
X139459113Y-96677217D01*
X139367922Y-96557078D01*
X139247783Y-96465887D01*
X139163575Y-96432547D01*
X139115077Y-96413345D01*
X139115075Y-96413344D01*
X139107547Y-96410364D01*
X139054760Y-96403976D01*
X139021542Y-96399956D01*
X139021538Y-96399956D01*
X139018238Y-96399556D01*
X139018237Y-96399556D01*
X139017772Y-96399500D01*
X139017785Y-96399393D01*
X138952114Y-96375725D01*
X138908940Y-96319365D01*
X138900500Y-96274026D01*
X138900500Y-95500216D01*
X138920502Y-95432095D01*
X138937404Y-95411121D01*
X139561119Y-94787405D01*
X139623432Y-94753380D01*
X139650215Y-94750500D01*
X157643761Y-94750500D01*
X157711882Y-94770502D01*
X157758375Y-94824158D01*
X157768479Y-94894432D01*
X157738985Y-94959012D01*
X157722712Y-94974697D01*
X157701258Y-94991946D01*
X157701253Y-94991951D01*
X157696447Y-94995815D01*
X157564024Y-95153630D01*
X157561056Y-95159028D01*
X157561053Y-95159033D01*
X157468773Y-95326891D01*
X157464776Y-95334162D01*
X157402484Y-95530532D01*
X157401798Y-95536649D01*
X157401797Y-95536653D01*
X157391655Y-95627077D01*
X157379520Y-95735262D01*
X157396759Y-95940553D01*
X157398458Y-95946478D01*
X157431262Y-96060878D01*
X157453544Y-96138586D01*
X157456359Y-96144063D01*
X157456360Y-96144066D01*
X157510999Y-96250382D01*
X157547712Y-96321818D01*
X157675677Y-96483270D01*
X157680370Y-96487264D01*
X157680371Y-96487265D01*
X157812808Y-96599977D01*
X157832564Y-96616791D01*
X157837942Y-96619797D01*
X157837944Y-96619798D01*
X157844384Y-96623397D01*
X158012398Y-96717297D01*
X158098231Y-96745186D01*
X158202471Y-96779056D01*
X158202475Y-96779057D01*
X158208329Y-96780959D01*
X158412894Y-96805351D01*
X158419029Y-96804879D01*
X158419031Y-96804879D01*
X158475039Y-96800569D01*
X158618300Y-96789546D01*
X158624230Y-96787890D01*
X158624232Y-96787890D01*
X158766457Y-96748180D01*
X158816725Y-96734145D01*
X158822214Y-96731372D01*
X158822220Y-96731370D01*
X158995116Y-96644033D01*
X159000610Y-96641258D01*
X159162951Y-96514424D01*
X159252773Y-96410364D01*
X159293540Y-96363134D01*
X159293540Y-96363133D01*
X159297564Y-96358472D01*
X159318387Y-96321818D01*
X159362547Y-96244081D01*
X159399323Y-96179344D01*
X159464351Y-95983863D01*
X159490171Y-95779474D01*
X159490583Y-95750000D01*
X159470480Y-95544970D01*
X159410935Y-95347749D01*
X159314218Y-95165849D01*
X159212782Y-95041476D01*
X159187906Y-95010975D01*
X159187903Y-95010972D01*
X159184011Y-95006200D01*
X159174374Y-94998227D01*
X159144586Y-94973585D01*
X159104848Y-94914751D01*
X159103225Y-94843773D01*
X159140234Y-94783186D01*
X159204124Y-94752225D01*
X159224901Y-94750500D01*
X159604785Y-94750500D01*
X159672906Y-94770502D01*
X159693880Y-94787405D01*
X160363087Y-95456612D01*
X160397113Y-95518924D01*
X160399207Y-95559749D01*
X160379520Y-95735262D01*
X160396759Y-95940553D01*
X160398458Y-95946478D01*
X160431262Y-96060878D01*
X160453544Y-96138586D01*
X160456359Y-96144063D01*
X160456360Y-96144066D01*
X160510999Y-96250382D01*
X160547712Y-96321818D01*
X160675677Y-96483270D01*
X160680370Y-96487264D01*
X160680371Y-96487265D01*
X160812808Y-96599977D01*
X160832564Y-96616791D01*
X160837942Y-96619797D01*
X160837944Y-96619798D01*
X160844384Y-96623397D01*
X161012398Y-96717297D01*
X161098231Y-96745186D01*
X161202471Y-96779056D01*
X161202475Y-96779057D01*
X161208329Y-96780959D01*
X161412894Y-96805351D01*
X161419029Y-96804879D01*
X161419031Y-96804879D01*
X161475039Y-96800569D01*
X161618300Y-96789546D01*
X161624230Y-96787890D01*
X161624232Y-96787890D01*
X161766457Y-96748180D01*
X161816725Y-96734145D01*
X161822214Y-96731372D01*
X161822220Y-96731370D01*
X161995116Y-96644033D01*
X162000610Y-96641258D01*
X162031927Y-96616791D01*
X162155927Y-96519912D01*
X162221921Y-96493735D01*
X162291592Y-96507393D01*
X162342819Y-96556549D01*
X162359500Y-96619202D01*
X162359500Y-96994785D01*
X162339498Y-97062906D01*
X162322595Y-97083880D01*
X161728882Y-97677593D01*
X161666570Y-97711619D01*
X161626617Y-97713808D01*
X161448497Y-97695087D01*
X161448496Y-97695087D01*
X161442369Y-97694443D01*
X161355529Y-97702346D01*
X161243342Y-97712555D01*
X161243339Y-97712556D01*
X161237203Y-97713114D01*
X161039572Y-97771280D01*
X160857002Y-97866726D01*
X160852201Y-97870586D01*
X160852198Y-97870588D01*
X160767317Y-97938834D01*
X160696447Y-97995815D01*
X160564024Y-98153630D01*
X160561056Y-98159028D01*
X160561053Y-98159033D01*
X160523659Y-98227054D01*
X160464776Y-98334162D01*
X160402484Y-98530532D01*
X160401798Y-98536649D01*
X160401797Y-98536653D01*
X160384629Y-98689714D01*
X160379520Y-98735262D01*
X160380036Y-98741406D01*
X160390803Y-98869621D01*
X160396759Y-98940553D01*
X160398458Y-98946478D01*
X160439524Y-99089691D01*
X160453544Y-99138586D01*
X160456359Y-99144063D01*
X160456360Y-99144066D01*
X160529535Y-99286449D01*
X160547712Y-99321818D01*
X160675677Y-99483270D01*
X160680370Y-99487264D01*
X160680371Y-99487265D01*
X160764250Y-99558651D01*
X160832564Y-99616791D01*
X160837942Y-99619797D01*
X160837944Y-99619798D01*
X160902321Y-99655777D01*
X161012398Y-99717297D01*
X161073419Y-99737124D01*
X161202471Y-99779056D01*
X161202475Y-99779057D01*
X161208329Y-99780959D01*
X161412894Y-99805351D01*
X161419029Y-99804879D01*
X161419031Y-99804879D01*
X161475039Y-99800569D01*
X161618300Y-99789546D01*
X161624230Y-99787890D01*
X161624232Y-99787890D01*
X161806055Y-99737124D01*
X161816725Y-99734145D01*
X161822214Y-99731372D01*
X161822220Y-99731370D01*
X161977527Y-99652918D01*
X162000610Y-99641258D01*
X162162951Y-99514424D01*
X162179409Y-99495358D01*
X162293540Y-99363134D01*
X162293540Y-99363133D01*
X162297564Y-99358472D01*
X162318387Y-99321818D01*
X162343398Y-99277789D01*
X162399323Y-99179344D01*
X162464351Y-98983863D01*
X162490171Y-98779474D01*
X162490583Y-98750000D01*
X162471655Y-98556955D01*
X162484915Y-98487208D01*
X162507959Y-98455565D01*
X163288642Y-97674882D01*
X163292451Y-97671229D01*
X163293178Y-97670561D01*
X163338156Y-97629201D01*
X163361099Y-97592198D01*
X163367800Y-97582448D01*
X163394112Y-97547783D01*
X163399646Y-97533804D01*
X163409707Y-97513801D01*
X163417635Y-97501014D01*
X163429775Y-97459228D01*
X163433621Y-97447995D01*
X163446473Y-97415535D01*
X163449636Y-97407547D01*
X163451208Y-97392592D01*
X163455520Y-97370617D01*
X163459715Y-97356175D01*
X163460500Y-97345485D01*
X163460500Y-97310783D01*
X163461190Y-97297613D01*
X163464503Y-97266088D01*
X163465401Y-97257546D01*
X163463969Y-97249081D01*
X163463969Y-97249072D01*
X163462265Y-97239000D01*
X163460500Y-97217987D01*
X163460500Y-95020226D01*
X163952819Y-95020226D01*
X163988907Y-95285395D01*
X164063792Y-95542317D01*
X164175831Y-95785348D01*
X164208072Y-95834524D01*
X164319996Y-96005236D01*
X164320000Y-96005241D01*
X164322562Y-96009149D01*
X164359068Y-96050050D01*
X164432802Y-96132662D01*
X164500760Y-96208803D01*
X164633696Y-96319365D01*
X164680718Y-96358472D01*
X164706512Y-96379925D01*
X164710505Y-96382348D01*
X164931306Y-96516334D01*
X164931310Y-96516336D01*
X164935298Y-96518756D01*
X164939606Y-96520563D01*
X164939607Y-96520563D01*
X165177776Y-96620436D01*
X165177781Y-96620438D01*
X165182091Y-96622245D01*
X165186623Y-96623396D01*
X165186626Y-96623397D01*
X165436933Y-96686967D01*
X165436936Y-96686968D01*
X165441470Y-96688119D01*
X165446126Y-96688588D01*
X165446127Y-96688588D01*
X165660602Y-96710184D01*
X165660603Y-96710184D01*
X165663741Y-96710500D01*
X165822944Y-96710500D01*
X165825267Y-96710327D01*
X165825277Y-96710327D01*
X166017212Y-96696064D01*
X166017216Y-96696063D01*
X166021877Y-96695717D01*
X166026441Y-96694684D01*
X166026443Y-96694684D01*
X166250285Y-96644033D01*
X166282891Y-96636655D01*
X166316984Y-96623397D01*
X166527956Y-96541355D01*
X166527958Y-96541354D01*
X166532309Y-96539662D01*
X166566865Y-96519912D01*
X166661388Y-96465887D01*
X166764650Y-96406868D01*
X166974811Y-96241190D01*
X167158175Y-96046269D01*
X167310714Y-95826385D01*
X167333848Y-95779474D01*
X167427011Y-95590559D01*
X167427012Y-95590556D01*
X167429076Y-95586371D01*
X167440366Y-95551103D01*
X167509239Y-95335942D01*
X167510662Y-95331497D01*
X167546303Y-95112651D01*
X167552927Y-95071976D01*
X167552927Y-95071975D01*
X167553678Y-95067364D01*
X167555766Y-94907833D01*
X167557120Y-94804451D01*
X167557120Y-94804448D01*
X167557181Y-94799774D01*
X167521093Y-94534605D01*
X167446208Y-94277683D01*
X167430106Y-94242754D01*
X167395087Y-94166793D01*
X167334169Y-94034652D01*
X167283511Y-93957386D01*
X167190004Y-93814764D01*
X167190000Y-93814759D01*
X167187438Y-93810851D01*
X167066393Y-93675231D01*
X167012357Y-93614689D01*
X167012355Y-93614687D01*
X167009240Y-93611197D01*
X166803488Y-93440075D01*
X166763853Y-93416024D01*
X166578694Y-93303666D01*
X166578690Y-93303664D01*
X166574702Y-93301244D01*
X166545446Y-93288976D01*
X166332224Y-93199564D01*
X166332219Y-93199562D01*
X166327909Y-93197755D01*
X166323377Y-93196604D01*
X166323374Y-93196603D01*
X166073067Y-93133033D01*
X166073064Y-93133032D01*
X166068530Y-93131881D01*
X166063874Y-93131412D01*
X166063873Y-93131412D01*
X165849398Y-93109816D01*
X165849397Y-93109816D01*
X165846259Y-93109500D01*
X165687056Y-93109500D01*
X165684733Y-93109673D01*
X165684723Y-93109673D01*
X165492788Y-93123936D01*
X165492784Y-93123937D01*
X165488123Y-93124283D01*
X165483559Y-93125316D01*
X165483557Y-93125316D01*
X165397385Y-93144815D01*
X165227109Y-93183345D01*
X165222757Y-93185037D01*
X165222755Y-93185038D01*
X164982044Y-93278645D01*
X164982042Y-93278646D01*
X164977691Y-93280338D01*
X164973637Y-93282655D01*
X164973635Y-93282656D01*
X164905116Y-93321818D01*
X164745350Y-93413132D01*
X164535189Y-93578810D01*
X164351825Y-93773731D01*
X164199286Y-93993615D01*
X164197220Y-93997804D01*
X164197219Y-93997806D01*
X164083725Y-94227950D01*
X164080924Y-94233629D01*
X164079502Y-94238072D01*
X164079501Y-94238074D01*
X164046993Y-94339630D01*
X163999338Y-94488503D01*
X163991830Y-94534605D01*
X163960516Y-94726886D01*
X163956322Y-94752636D01*
X163954841Y-94865799D01*
X163953003Y-95006200D01*
X163952819Y-95020226D01*
X163460500Y-95020226D01*
X163460500Y-92084993D01*
X163460611Y-92079717D01*
X163462850Y-92026291D01*
X163463210Y-92017706D01*
X163458676Y-91998374D01*
X163453273Y-91975338D01*
X163451110Y-91963667D01*
X163446372Y-91929081D01*
X163445206Y-91920568D01*
X163439235Y-91906770D01*
X163432201Y-91885501D01*
X163430730Y-91879228D01*
X163430729Y-91879226D01*
X163428768Y-91870864D01*
X163407805Y-91832734D01*
X163402583Y-91822073D01*
X163388716Y-91790027D01*
X163388715Y-91790026D01*
X163385305Y-91782145D01*
X163375842Y-91770459D01*
X163363351Y-91751871D01*
X163356106Y-91738692D01*
X163349102Y-91730578D01*
X163324567Y-91706043D01*
X163315742Y-91696242D01*
X163295794Y-91671608D01*
X163295793Y-91671607D01*
X163290386Y-91664930D01*
X163283384Y-91659954D01*
X163283382Y-91659952D01*
X163275051Y-91654032D01*
X163258945Y-91640421D01*
X161749500Y-90130976D01*
X161745847Y-90127167D01*
X161709633Y-90087785D01*
X161703819Y-90081462D01*
X161666816Y-90058519D01*
X161657066Y-90051818D01*
X161622401Y-90025506D01*
X161608422Y-90019972D01*
X161588419Y-90009911D01*
X161575632Y-90001983D01*
X161567381Y-89999586D01*
X161567379Y-89999585D01*
X161533846Y-89989843D01*
X161522613Y-89985997D01*
X161501971Y-89977824D01*
X161482165Y-89969982D01*
X161473624Y-89969084D01*
X161473623Y-89969084D01*
X161467210Y-89968410D01*
X161445235Y-89964098D01*
X161430793Y-89959903D01*
X161423310Y-89959354D01*
X161422410Y-89959287D01*
X161422399Y-89959287D01*
X161420103Y-89959118D01*
X161385401Y-89959118D01*
X161372231Y-89958428D01*
X161362002Y-89957353D01*
X161332164Y-89954217D01*
X161323699Y-89955649D01*
X161323690Y-89955649D01*
X161313618Y-89957353D01*
X161292605Y-89959118D01*
X128508765Y-89959118D01*
X128503489Y-89959007D01*
X128499082Y-89958822D01*
X128441478Y-89956408D01*
X128433113Y-89958370D01*
X128399110Y-89966345D01*
X128387439Y-89968508D01*
X128376679Y-89969982D01*
X128344340Y-89974412D01*
X128336456Y-89977824D01*
X128336455Y-89977824D01*
X128330542Y-89980383D01*
X128309273Y-89987417D01*
X128303000Y-89988888D01*
X128302998Y-89988889D01*
X128294636Y-89990850D01*
X128287110Y-89994988D01*
X128287106Y-89994989D01*
X128256506Y-90011812D01*
X128245844Y-90017035D01*
X128213803Y-90030900D01*
X128213801Y-90030901D01*
X128205917Y-90034313D01*
X128194234Y-90043774D01*
X128175646Y-90056265D01*
X128162465Y-90063511D01*
X128154350Y-90070515D01*
X128129814Y-90095051D01*
X128120013Y-90103876D01*
X128099891Y-90120171D01*
X128088702Y-90129232D01*
X128083729Y-90136230D01*
X128083724Y-90136235D01*
X128077804Y-90144566D01*
X128064193Y-90160672D01*
X126921358Y-91303508D01*
X126917549Y-91307161D01*
X126871844Y-91349189D01*
X126848901Y-91386192D01*
X126842200Y-91395942D01*
X126815888Y-91430607D01*
X126810354Y-91444585D01*
X126800293Y-91464589D01*
X126792365Y-91477376D01*
X126789968Y-91485627D01*
X126789967Y-91485629D01*
X126780225Y-91519162D01*
X126776380Y-91530392D01*
X126760364Y-91570843D01*
X126759466Y-91579384D01*
X126759466Y-91579385D01*
X126758792Y-91585798D01*
X126754480Y-91607773D01*
X126750285Y-91622215D01*
X126749500Y-91632905D01*
X126749500Y-91667607D01*
X126748810Y-91680777D01*
X126744599Y-91720844D01*
X126746031Y-91729309D01*
X126746031Y-91729318D01*
X126747735Y-91739390D01*
X126749500Y-91760403D01*
X126749500Y-99012037D01*
X126749389Y-99017313D01*
X126746790Y-99079324D01*
X126748752Y-99087687D01*
X126748941Y-99089691D01*
X126749500Y-99101547D01*
X126749500Y-106206235D01*
X126749389Y-106211511D01*
X126746790Y-106273522D01*
X126748752Y-106281887D01*
X126756727Y-106315890D01*
X126758890Y-106327561D01*
X126764794Y-106370660D01*
X126768206Y-106378544D01*
X126768206Y-106378545D01*
X126770765Y-106384458D01*
X126777799Y-106405727D01*
X126781232Y-106420364D01*
X126785369Y-106427889D01*
X126785370Y-106427892D01*
X126802195Y-106458496D01*
X126807411Y-106469141D01*
X126824695Y-106509083D01*
X126834158Y-106520769D01*
X126846645Y-106539353D01*
X126853893Y-106552536D01*
X126860897Y-106560650D01*
X126885433Y-106585186D01*
X126894258Y-106594987D01*
X126914206Y-106619620D01*
X126919614Y-106626298D01*
X126926612Y-106631271D01*
X126926617Y-106631276D01*
X126934948Y-106637196D01*
X126951054Y-106650807D01*
X128035565Y-107735318D01*
X128069591Y-107797630D01*
X128072470Y-107824413D01*
X128072470Y-108561970D01*
X128083334Y-108651745D01*
X128138857Y-108791981D01*
X128230048Y-108912120D01*
X128350187Y-109003311D01*
X128413802Y-109028498D01*
X128482893Y-109055853D01*
X128482895Y-109055854D01*
X128490423Y-109058834D01*
X128580198Y-109069698D01*
X128647271Y-109069698D01*
X128715392Y-109089700D01*
X128761885Y-109143356D01*
X128771989Y-109213630D01*
X128742495Y-109278210D01*
X128686207Y-109315531D01*
X128604686Y-109342019D01*
X128440754Y-109436665D01*
X128300082Y-109563327D01*
X128188819Y-109716468D01*
X128111826Y-109889395D01*
X128094468Y-109971061D01*
X128085984Y-110010975D01*
X128072470Y-110074552D01*
X128072470Y-110263844D01*
X128073842Y-110270297D01*
X128073842Y-110270301D01*
X128086269Y-110328765D01*
X128111826Y-110449001D01*
X128188819Y-110621928D01*
X128300082Y-110775069D01*
X128304984Y-110779482D01*
X128304985Y-110779484D01*
X128322164Y-110794952D01*
X128440754Y-110901731D01*
X128446475Y-110905034D01*
X128598865Y-110993016D01*
X128604686Y-110996377D01*
X128784714Y-111054872D01*
X128791275Y-111055562D01*
X128791277Y-111055562D01*
X128844933Y-111061201D01*
X128925778Y-111069698D01*
X129570162Y-111069698D01*
X129651007Y-111061201D01*
X129704663Y-111055562D01*
X129704665Y-111055562D01*
X129711226Y-111054872D01*
X129891254Y-110996377D01*
X129897076Y-110993016D01*
X130049465Y-110905034D01*
X130055186Y-110901731D01*
X130173776Y-110794952D01*
X130190955Y-110779484D01*
X130190956Y-110779482D01*
X130195858Y-110775069D01*
X130307121Y-110621928D01*
X130384114Y-110449001D01*
X130409671Y-110328765D01*
X130422098Y-110270301D01*
X130422098Y-110270297D01*
X130423470Y-110263844D01*
X130423470Y-110097061D01*
X130443472Y-110028940D01*
X130497128Y-109982447D01*
X130549470Y-109971061D01*
X135302601Y-109971061D01*
X135370722Y-109991063D01*
X135417215Y-110044719D01*
X135427319Y-110114993D01*
X135397825Y-110179573D01*
X135347243Y-110214888D01*
X135197681Y-110271551D01*
X135193694Y-110273765D01*
X135193693Y-110273766D01*
X135042484Y-110357755D01*
X134956572Y-110405475D01*
X134952940Y-110408247D01*
X134773791Y-110544970D01*
X134737322Y-110572802D01*
X134734129Y-110576068D01*
X134734127Y-110576070D01*
X134547717Y-110766758D01*
X134547713Y-110766763D01*
X134544523Y-110770026D01*
X134541836Y-110773718D01*
X134541834Y-110773720D01*
X134420400Y-110940553D01*
X134382213Y-110993016D01*
X134253794Y-111237101D01*
X134161955Y-111497168D01*
X134154042Y-111537317D01*
X134116875Y-111725888D01*
X134108620Y-111767768D01*
X134108393Y-111772322D01*
X134108393Y-111772324D01*
X134099211Y-111956767D01*
X134094906Y-112043233D01*
X134121102Y-112317792D01*
X134122187Y-112322226D01*
X134122188Y-112322232D01*
X134169508Y-112515612D01*
X134186657Y-112585694D01*
X134290199Y-112841326D01*
X134292500Y-112845256D01*
X134292503Y-112845262D01*
X134427255Y-113075403D01*
X134427260Y-113075410D01*
X134429558Y-113079335D01*
X134432405Y-113082895D01*
X134550028Y-113229974D01*
X134601816Y-113294732D01*
X134605157Y-113297853D01*
X134746563Y-113429947D01*
X134803364Y-113483008D01*
X135029979Y-113640216D01*
X135034055Y-113642244D01*
X135034057Y-113642245D01*
X135272827Y-113761032D01*
X135272830Y-113761033D01*
X135276914Y-113763065D01*
X135538998Y-113848980D01*
X135543489Y-113849760D01*
X135543490Y-113849760D01*
X135806957Y-113895506D01*
X135806965Y-113895507D01*
X135810738Y-113896162D01*
X135814575Y-113896353D01*
X135896305Y-113900422D01*
X135896313Y-113900422D01*
X135897876Y-113900500D01*
X136070070Y-113900500D01*
X136072338Y-113900335D01*
X136072350Y-113900335D01*
X136206603Y-113890594D01*
X136275083Y-113885625D01*
X136279538Y-113884641D01*
X136279541Y-113884641D01*
X136539947Y-113827148D01*
X136539950Y-113827147D01*
X136544403Y-113826164D01*
X136802319Y-113728449D01*
X136871937Y-113689780D01*
X137039435Y-113596743D01*
X137039436Y-113596742D01*
X137043428Y-113594525D01*
X137201705Y-113473731D01*
X137259046Y-113429970D01*
X137259047Y-113429969D01*
X137262678Y-113427198D01*
X137286116Y-113403222D01*
X137452283Y-113233242D01*
X137452287Y-113233237D01*
X137455477Y-113229974D01*
X137458166Y-113226280D01*
X137615100Y-113010676D01*
X137615102Y-113010673D01*
X137617787Y-113006984D01*
X137746206Y-112762899D01*
X137838045Y-112502832D01*
X137874516Y-112317792D01*
X137890499Y-112236704D01*
X137890500Y-112236698D01*
X137891380Y-112232232D01*
X137891607Y-112227676D01*
X137904867Y-111961336D01*
X137904867Y-111961330D01*
X137905094Y-111956767D01*
X137878898Y-111682208D01*
X137875781Y-111669466D01*
X137814429Y-111418744D01*
X137813343Y-111414306D01*
X137709801Y-111158674D01*
X137707500Y-111154744D01*
X137707497Y-111154738D01*
X137572745Y-110924597D01*
X137572740Y-110924590D01*
X137570442Y-110920665D01*
X137551766Y-110897312D01*
X137401036Y-110708834D01*
X137401035Y-110708833D01*
X137398184Y-110705268D01*
X137233152Y-110551103D01*
X137199972Y-110520108D01*
X137199969Y-110520106D01*
X137196636Y-110516992D01*
X136970021Y-110359784D01*
X136965943Y-110357755D01*
X136727173Y-110238968D01*
X136727170Y-110238967D01*
X136723086Y-110236935D01*
X136661640Y-110216792D01*
X136603140Y-110176565D01*
X136575674Y-110111096D01*
X136587964Y-110041171D01*
X136636107Y-109988991D01*
X136700890Y-109971061D01*
X141177910Y-109971061D01*
X141246031Y-109991063D01*
X141292524Y-110044719D01*
X141302628Y-110114993D01*
X141273134Y-110179573D01*
X141260988Y-110191792D01*
X141227220Y-110221406D01*
X141227212Y-110221414D01*
X141224123Y-110224123D01*
X141221414Y-110227212D01*
X141071221Y-110398473D01*
X141071217Y-110398479D01*
X141068503Y-110401573D01*
X140937376Y-110597819D01*
X140935550Y-110601522D01*
X140849532Y-110775949D01*
X140832986Y-110809500D01*
X140831662Y-110813401D01*
X140769550Y-110996377D01*
X140757119Y-111032996D01*
X140756315Y-111037040D01*
X140756313Y-111037046D01*
X140711878Y-111260440D01*
X140711074Y-111264483D01*
X140696094Y-111493022D01*
X140694864Y-111500000D01*
X140696778Y-111510853D01*
X140696778Y-111515793D01*
X140698055Y-111534937D01*
X140692903Y-111659500D01*
X140681956Y-111924165D01*
X140681096Y-111934543D01*
X140668118Y-112038664D01*
X140632772Y-112322232D01*
X140629231Y-112350638D01*
X140627518Y-112360902D01*
X140591623Y-112532094D01*
X140541467Y-112771297D01*
X140538911Y-112781392D01*
X140483054Y-112969012D01*
X140419464Y-113182611D01*
X140419263Y-113183285D01*
X140415884Y-113193127D01*
X140272826Y-113559752D01*
X140263459Y-113583757D01*
X140259280Y-113593286D01*
X140089512Y-113940553D01*
X140075116Y-113970000D01*
X140070160Y-113979159D01*
X139855513Y-114339382D01*
X139849817Y-114348100D01*
X139606166Y-114689355D01*
X139599770Y-114697573D01*
X139328755Y-115017560D01*
X139321701Y-115025221D01*
X139025221Y-115321701D01*
X139017560Y-115328755D01*
X138697573Y-115599770D01*
X138689355Y-115606166D01*
X138348100Y-115849817D01*
X138339382Y-115855513D01*
X138152277Y-115967004D01*
X137992001Y-116062508D01*
X137979159Y-116070160D01*
X137970004Y-116075114D01*
X137593286Y-116259280D01*
X137583765Y-116263455D01*
X137193127Y-116415884D01*
X137183294Y-116419260D01*
X137011464Y-116470416D01*
X136781392Y-116538911D01*
X136771297Y-116541467D01*
X136641123Y-116568762D01*
X136360902Y-116627518D01*
X136350646Y-116629230D01*
X136142591Y-116655163D01*
X135934543Y-116681096D01*
X135924165Y-116681956D01*
X135699517Y-116691248D01*
X135534937Y-116698055D01*
X135515795Y-116696778D01*
X135510856Y-116696778D01*
X135500000Y-116694864D01*
X135489145Y-116696778D01*
X135484563Y-116697586D01*
X135462683Y-116699500D01*
X127037317Y-116699500D01*
X127015437Y-116697586D01*
X127010855Y-116696778D01*
X127000000Y-116694864D01*
X126989144Y-116696778D01*
X126978122Y-116696778D01*
X126978122Y-116696221D01*
X126965848Y-116696812D01*
X126822241Y-116685510D01*
X126802714Y-116682417D01*
X126800794Y-116681956D01*
X126638970Y-116643105D01*
X126620176Y-116636999D01*
X126464595Y-116572555D01*
X126446990Y-116563585D01*
X126303401Y-116475594D01*
X126287408Y-116463973D01*
X126159366Y-116354615D01*
X126145385Y-116340634D01*
X126036027Y-116212592D01*
X126024405Y-116196597D01*
X126002636Y-116161073D01*
X125936415Y-116053010D01*
X125927445Y-116035405D01*
X125863001Y-115879824D01*
X125856893Y-115861025D01*
X125854203Y-115849817D01*
X125819956Y-115707170D01*
X126861688Y-115707170D01*
X126872552Y-115796945D01*
X126875532Y-115804473D01*
X126875533Y-115804475D01*
X126897923Y-115861025D01*
X126928075Y-115937181D01*
X127019266Y-116057320D01*
X127139405Y-116148511D01*
X127183196Y-116165849D01*
X127272111Y-116201053D01*
X127272113Y-116201054D01*
X127279641Y-116204034D01*
X127369416Y-116214898D01*
X127979960Y-116214898D01*
X128069735Y-116204034D01*
X128077263Y-116201054D01*
X128077265Y-116201053D01*
X128166180Y-116165849D01*
X128209971Y-116148511D01*
X128330110Y-116057320D01*
X128421301Y-115937181D01*
X128470037Y-115814088D01*
X128513710Y-115758116D01*
X128580713Y-115734639D01*
X128649772Y-115751115D01*
X128698961Y-115802310D01*
X128704338Y-115814085D01*
X128753075Y-115937181D01*
X128844266Y-116057320D01*
X128964405Y-116148511D01*
X129008196Y-116165849D01*
X129097111Y-116201053D01*
X129097113Y-116201054D01*
X129104641Y-116204034D01*
X129194416Y-116214898D01*
X129804960Y-116214898D01*
X129894735Y-116204034D01*
X129902263Y-116201054D01*
X129902265Y-116201053D01*
X129991180Y-116165849D01*
X130034971Y-116148511D01*
X130155110Y-116057320D01*
X130246301Y-115937181D01*
X130276453Y-115861025D01*
X130298843Y-115804475D01*
X130298844Y-115804473D01*
X130301824Y-115796945D01*
X130312688Y-115707170D01*
X130312688Y-114721626D01*
X130301824Y-114631851D01*
X130295862Y-114616791D01*
X130256087Y-114516333D01*
X130246301Y-114491615D01*
X130155110Y-114371476D01*
X130100006Y-114329649D01*
X130057841Y-114272533D01*
X130050188Y-114229289D01*
X130050188Y-113665396D01*
X130073865Y-113591870D01*
X130113930Y-113536113D01*
X130118361Y-113529947D01*
X130126237Y-113510356D01*
X130178766Y-113379687D01*
X130178767Y-113379685D01*
X130181601Y-113372634D01*
X130202430Y-113226280D01*
X130204909Y-113208862D01*
X130204909Y-113208859D01*
X130205490Y-113204778D01*
X130205645Y-113190000D01*
X130204833Y-113183285D01*
X130193563Y-113090161D01*
X130185276Y-113021680D01*
X130125345Y-112863077D01*
X130119893Y-112855145D01*
X130033614Y-112729608D01*
X130033613Y-112729607D01*
X130029312Y-112723349D01*
X130017514Y-112712837D01*
X129908392Y-112615612D01*
X129908388Y-112615610D01*
X129902721Y-112610560D01*
X129752881Y-112531224D01*
X129588441Y-112489919D01*
X129580843Y-112489879D01*
X129580841Y-112489879D01*
X129503668Y-112489475D01*
X129418895Y-112489031D01*
X129411508Y-112490805D01*
X129411504Y-112490805D01*
X129268162Y-112525220D01*
X129254032Y-112528612D01*
X129247288Y-112532093D01*
X129247285Y-112532094D01*
X129135240Y-112589925D01*
X129103369Y-112606375D01*
X129097647Y-112611367D01*
X129097645Y-112611368D01*
X129083911Y-112623349D01*
X128975604Y-112717831D01*
X128943930Y-112762899D01*
X128895449Y-112831881D01*
X128878113Y-112856547D01*
X128816524Y-113014513D01*
X128815532Y-113022046D01*
X128815532Y-113022047D01*
X128796601Y-113165849D01*
X128794394Y-113182611D01*
X128812999Y-113351135D01*
X128839638Y-113423930D01*
X128862720Y-113487002D01*
X128871266Y-113510356D01*
X128875502Y-113516659D01*
X128875502Y-113516660D01*
X128884824Y-113530532D01*
X128923854Y-113588615D01*
X128927770Y-113594443D01*
X128949188Y-113664719D01*
X128949188Y-114229289D01*
X128929186Y-114297410D01*
X128899372Y-114329648D01*
X128844266Y-114371476D01*
X128753075Y-114491615D01*
X128706373Y-114609573D01*
X128704340Y-114614707D01*
X128660666Y-114670680D01*
X128593663Y-114694157D01*
X128524604Y-114677681D01*
X128475415Y-114626486D01*
X128470036Y-114614707D01*
X128468004Y-114609573D01*
X128421301Y-114491615D01*
X128330110Y-114371476D01*
X128275006Y-114329649D01*
X128232841Y-114272533D01*
X128225188Y-114229289D01*
X128225188Y-113572354D01*
X128248865Y-113498828D01*
X128257363Y-113487002D01*
X128298361Y-113429947D01*
X128306237Y-113410356D01*
X128358766Y-113279687D01*
X128358767Y-113279685D01*
X128361601Y-113272634D01*
X128374413Y-113182611D01*
X128384909Y-113108862D01*
X128384909Y-113108859D01*
X128385490Y-113104778D01*
X128385645Y-113090000D01*
X128383840Y-113075080D01*
X128379863Y-113042222D01*
X128365276Y-112921680D01*
X128305345Y-112763077D01*
X128282342Y-112729608D01*
X128213614Y-112629608D01*
X128213613Y-112629607D01*
X128209312Y-112623349D01*
X128203119Y-112617831D01*
X128088392Y-112515612D01*
X128088388Y-112515610D01*
X128082721Y-112510560D01*
X128068126Y-112502832D01*
X128015080Y-112474746D01*
X127932881Y-112431224D01*
X127768441Y-112389919D01*
X127760843Y-112389879D01*
X127760841Y-112389879D01*
X127683668Y-112389475D01*
X127598895Y-112389031D01*
X127591508Y-112390805D01*
X127591504Y-112390805D01*
X127448162Y-112425220D01*
X127434032Y-112428612D01*
X127427288Y-112432093D01*
X127427285Y-112432094D01*
X127298886Y-112498366D01*
X127283369Y-112506375D01*
X127277647Y-112511367D01*
X127277645Y-112511368D01*
X127250812Y-112534776D01*
X127155604Y-112617831D01*
X127151237Y-112624045D01*
X127080956Y-112724045D01*
X127058113Y-112756547D01*
X126996524Y-112914513D01*
X126995532Y-112922046D01*
X126995532Y-112922047D01*
X126975632Y-113073211D01*
X126974394Y-113082611D01*
X126992999Y-113251135D01*
X127014979Y-113311197D01*
X127040196Y-113380105D01*
X127051266Y-113410356D01*
X127091568Y-113470331D01*
X127102770Y-113487002D01*
X127124188Y-113557278D01*
X127124188Y-114229289D01*
X127104186Y-114297410D01*
X127074372Y-114329648D01*
X127019266Y-114371476D01*
X126928075Y-114491615D01*
X126918289Y-114516333D01*
X126878515Y-114616791D01*
X126872552Y-114631851D01*
X126861688Y-114721626D01*
X126861688Y-115707170D01*
X125819956Y-115707170D01*
X125817583Y-115697285D01*
X125814490Y-115677758D01*
X125809985Y-115620513D01*
X125803188Y-115534152D01*
X125803779Y-115521878D01*
X125803222Y-115521878D01*
X125803222Y-115510856D01*
X125805136Y-115500000D01*
X125802414Y-115484563D01*
X125800500Y-115462683D01*
X125800500Y-90537317D01*
X125802414Y-90515437D01*
X125803222Y-90510855D01*
X125805136Y-90500000D01*
X125803222Y-90489144D01*
X125803222Y-90478122D01*
X125803779Y-90478122D01*
X125803188Y-90465845D01*
X125814490Y-90322242D01*
X125817583Y-90302714D01*
X125856895Y-90138970D01*
X125863003Y-90120171D01*
X125879037Y-90081462D01*
X125927445Y-89964595D01*
X125936415Y-89946990D01*
X126024406Y-89803401D01*
X126036027Y-89787408D01*
X126145385Y-89659366D01*
X126159366Y-89645385D01*
X126287408Y-89536027D01*
X126303403Y-89524405D01*
X126446990Y-89436415D01*
X126464595Y-89427445D01*
X126620176Y-89363001D01*
X126638970Y-89356895D01*
X126802715Y-89317583D01*
X126822241Y-89314490D01*
X126965848Y-89303188D01*
X126978122Y-89303779D01*
X126978122Y-89303222D01*
X126989144Y-89303222D01*
X127000000Y-89305136D01*
X127015437Y-89302414D01*
X127037317Y-89300500D01*
X168962683Y-89300500D01*
X168984563Y-89302414D01*
G37*
%TD.AperFunction*%
%TA.AperFunction,Conductor*%
G36*
X132834911Y-94243560D02*
G01*
X132855885Y-94260462D01*
X133708075Y-95112651D01*
X133742100Y-95174964D01*
X133744980Y-95201747D01*
X133744980Y-106259626D01*
X133744107Y-106274435D01*
X133740364Y-106306059D01*
X133742056Y-106315323D01*
X133742056Y-106315324D01*
X133750351Y-106360741D01*
X133751001Y-106364647D01*
X133759263Y-106419602D01*
X133762229Y-106425779D01*
X133763460Y-106432519D01*
X133767800Y-106440873D01*
X133767800Y-106440874D01*
X133789080Y-106481839D01*
X133790849Y-106485379D01*
X133814909Y-106535485D01*
X133819562Y-106540519D01*
X133822719Y-106546596D01*
X133826807Y-106551384D01*
X133862053Y-106586630D01*
X133865483Y-106590196D01*
X133895778Y-106622970D01*
X133895781Y-106622972D01*
X133902169Y-106629883D01*
X133908270Y-106633426D01*
X133913829Y-106638406D01*
X135176869Y-107901446D01*
X135210895Y-107963758D01*
X135205830Y-108034573D01*
X135163283Y-108091409D01*
X135096763Y-108116220D01*
X135087774Y-108116541D01*
X132707255Y-108116541D01*
X132639134Y-108096539D01*
X132618160Y-108079636D01*
X129835375Y-105296851D01*
X129801349Y-105234539D01*
X129798470Y-105207756D01*
X129798470Y-103923871D01*
X129818472Y-103855750D01*
X129872128Y-103809257D01*
X129884322Y-103804510D01*
X129884975Y-103804219D01*
X129891254Y-103802179D01*
X130055186Y-103707533D01*
X130060094Y-103703114D01*
X130190955Y-103585286D01*
X130190956Y-103585284D01*
X130195858Y-103580871D01*
X130307121Y-103427730D01*
X130384114Y-103254803D01*
X130423470Y-103069646D01*
X130423470Y-102880354D01*
X130416768Y-102848820D01*
X130397004Y-102755842D01*
X130384114Y-102695197D01*
X130307121Y-102522270D01*
X130298037Y-102509766D01*
X130199737Y-102374468D01*
X130195858Y-102369129D01*
X130184023Y-102358472D01*
X130060094Y-102246886D01*
X130060093Y-102246885D01*
X130055186Y-102242467D01*
X129935716Y-102173491D01*
X129896977Y-102151125D01*
X129896976Y-102151124D01*
X129891254Y-102147821D01*
X129809733Y-102121333D01*
X129751127Y-102081259D01*
X129723490Y-102015863D01*
X129735597Y-101945906D01*
X129783603Y-101893600D01*
X129848669Y-101875500D01*
X129915742Y-101875500D01*
X130005517Y-101864636D01*
X130013045Y-101861656D01*
X130013047Y-101861655D01*
X130082138Y-101834300D01*
X130145753Y-101809113D01*
X130265892Y-101717922D01*
X130357083Y-101597783D01*
X130402578Y-101482875D01*
X130409625Y-101465077D01*
X130409626Y-101465075D01*
X130412606Y-101457547D01*
X130423470Y-101367772D01*
X130423470Y-100582228D01*
X130412606Y-100492453D01*
X130390637Y-100436964D01*
X130368871Y-100381991D01*
X130357083Y-100352217D01*
X130265892Y-100232078D01*
X130145753Y-100140887D01*
X130082138Y-100115700D01*
X130013047Y-100088345D01*
X130013045Y-100088344D01*
X130005517Y-100085364D01*
X129915742Y-100074500D01*
X129178185Y-100074500D01*
X129110064Y-100054498D01*
X129089090Y-100037595D01*
X127887405Y-98835911D01*
X127853380Y-98773599D01*
X127850500Y-98746816D01*
X127850500Y-96510329D01*
X127870502Y-96442208D01*
X127924158Y-96395715D01*
X127994432Y-96385611D01*
X128059012Y-96415105D01*
X128079270Y-96437429D01*
X128133021Y-96513204D01*
X128140814Y-96522232D01*
X128283782Y-96659094D01*
X128293147Y-96666490D01*
X128459410Y-96773845D01*
X128470013Y-96779341D01*
X128653566Y-96853315D01*
X128665021Y-96856708D01*
X128860692Y-96894919D01*
X128869527Y-96895993D01*
X128872212Y-96896058D01*
X128979855Y-96896058D01*
X128995094Y-96891583D01*
X128996299Y-96890193D01*
X128997970Y-96882510D01*
X128997970Y-96877943D01*
X129497970Y-96877943D01*
X129502445Y-96893182D01*
X129503835Y-96894387D01*
X129511518Y-96896058D01*
X129572424Y-96896058D01*
X129578400Y-96895773D01*
X129725944Y-96881696D01*
X129737679Y-96879437D01*
X129927585Y-96823725D01*
X129938661Y-96819295D01*
X130114607Y-96728677D01*
X130124653Y-96722227D01*
X130280284Y-96599977D01*
X130288937Y-96591737D01*
X130418640Y-96442267D01*
X130425574Y-96432547D01*
X130524674Y-96261246D01*
X130529648Y-96250382D01*
X130594569Y-96063429D01*
X130595191Y-96060878D01*
X130593647Y-96050050D01*
X130580082Y-96046058D01*
X129516085Y-96046058D01*
X129500846Y-96050533D01*
X129499641Y-96051923D01*
X129497970Y-96059606D01*
X129497970Y-96877943D01*
X128997970Y-96877943D01*
X128997970Y-95672058D01*
X129017972Y-95603937D01*
X129071628Y-95557444D01*
X129123970Y-95546058D01*
X130576108Y-95546058D01*
X130589639Y-95542085D01*
X130590994Y-95532659D01*
X130569176Y-95442130D01*
X130565293Y-95430851D01*
X130483373Y-95250680D01*
X130477427Y-95240340D01*
X130362919Y-95078912D01*
X130355126Y-95069884D01*
X130212158Y-94933022D01*
X130202793Y-94925626D01*
X130036530Y-94818271D01*
X130025933Y-94812778D01*
X129993159Y-94799570D01*
X129937452Y-94755555D01*
X129914385Y-94688410D01*
X129931281Y-94619453D01*
X129977256Y-94573584D01*
X130049465Y-94531894D01*
X130055186Y-94528591D01*
X130177841Y-94418152D01*
X130190955Y-94406344D01*
X130190956Y-94406342D01*
X130195858Y-94401929D01*
X130282859Y-94282182D01*
X130287716Y-94275497D01*
X130343938Y-94232143D01*
X130389652Y-94223558D01*
X132766790Y-94223558D01*
X132834911Y-94243560D01*
G37*
%TD.AperFunction*%
%TA.AperFunction,Conductor*%
G36*
X134808492Y-103213523D02*
G01*
X134815075Y-103219652D01*
X135294481Y-103699058D01*
X135304336Y-103710147D01*
X135324050Y-103735154D01*
X135331800Y-103740510D01*
X135331804Y-103740514D01*
X135369762Y-103766748D01*
X135372984Y-103769050D01*
X135417700Y-103802078D01*
X135424169Y-103804350D01*
X135429802Y-103808243D01*
X135438785Y-103811084D01*
X135438787Y-103811085D01*
X135482752Y-103824989D01*
X135486508Y-103826242D01*
X135530100Y-103841551D01*
X135530106Y-103841552D01*
X135538990Y-103844672D01*
X135545840Y-103844941D01*
X135552369Y-103847006D01*
X135558645Y-103847500D01*
X135608487Y-103847500D01*
X135613434Y-103847597D01*
X135667441Y-103849719D01*
X135674263Y-103847910D01*
X135681716Y-103847500D01*
X144591370Y-103847500D01*
X144659491Y-103867502D01*
X144705984Y-103921158D01*
X144716088Y-103991432D01*
X144711058Y-104010548D01*
X144711173Y-104010577D01*
X144709284Y-104017934D01*
X144706524Y-104025013D01*
X144705532Y-104032546D01*
X144705532Y-104032547D01*
X144687267Y-104171290D01*
X144684394Y-104193111D01*
X144702999Y-104361635D01*
X144761266Y-104520856D01*
X144855830Y-104661583D01*
X144861442Y-104666690D01*
X144861445Y-104666693D01*
X144975612Y-104770577D01*
X144975616Y-104770580D01*
X144981233Y-104775691D01*
X144987906Y-104779314D01*
X144987910Y-104779317D01*
X145123558Y-104852967D01*
X145123560Y-104852968D01*
X145130235Y-104856592D01*
X145137584Y-104858520D01*
X145286883Y-104897688D01*
X145286885Y-104897688D01*
X145294233Y-104899616D01*
X145380609Y-104900973D01*
X145456161Y-104902160D01*
X145456164Y-104902160D01*
X145463760Y-104902279D01*
X145471165Y-104900583D01*
X145471166Y-104900583D01*
X145531586Y-104886745D01*
X145629029Y-104864428D01*
X145780498Y-104788247D01*
X145909423Y-104678134D01*
X145927503Y-104652974D01*
X145983495Y-104609326D01*
X146029824Y-104600500D01*
X146926408Y-104600500D01*
X146994529Y-104620502D01*
X147041022Y-104674158D01*
X147051126Y-104744432D01*
X147018183Y-104812833D01*
X146903814Y-104934411D01*
X146866825Y-104973731D01*
X146714286Y-105193615D01*
X146712220Y-105197804D01*
X146712219Y-105197806D01*
X146634298Y-105355815D01*
X146595924Y-105433629D01*
X146594502Y-105438072D01*
X146594501Y-105438074D01*
X146571552Y-105509766D01*
X146514338Y-105688503D01*
X146471322Y-105952636D01*
X146467819Y-106220226D01*
X146503907Y-106485395D01*
X146505215Y-106489882D01*
X146505215Y-106489883D01*
X146519634Y-106539354D01*
X146578792Y-106742317D01*
X146580752Y-106746570D01*
X146580753Y-106746571D01*
X146585854Y-106757635D01*
X146690831Y-106985348D01*
X146723072Y-107034524D01*
X146834996Y-107205236D01*
X146835000Y-107205241D01*
X146837562Y-107209149D01*
X146840679Y-107212641D01*
X147007118Y-107399121D01*
X147037556Y-107463262D01*
X147028484Y-107533677D01*
X146982784Y-107588009D01*
X146913115Y-107609022D01*
X136145789Y-107609022D01*
X136077668Y-107589020D01*
X136056694Y-107572117D01*
X134636885Y-106152309D01*
X134602860Y-106089997D01*
X134599980Y-106063214D01*
X134599980Y-103308747D01*
X134619982Y-103240626D01*
X134673638Y-103194133D01*
X134743912Y-103184029D01*
X134808492Y-103213523D01*
G37*
%TD.AperFunction*%
%TA.AperFunction,Conductor*%
G36*
X132955758Y-91833640D02*
G01*
X133002251Y-91887296D01*
X133012355Y-91957570D01*
X133004503Y-91986737D01*
X132980112Y-92047258D01*
X132976720Y-92058709D01*
X132938509Y-92254380D01*
X132937435Y-92263215D01*
X132937370Y-92265900D01*
X132937370Y-92373543D01*
X132941845Y-92388782D01*
X132943235Y-92389987D01*
X132950918Y-92391658D01*
X134161370Y-92391658D01*
X134229491Y-92411660D01*
X134275984Y-92465316D01*
X134287370Y-92517658D01*
X134287370Y-93969796D01*
X134291343Y-93983327D01*
X134300769Y-93984682D01*
X134391298Y-93962864D01*
X134402577Y-93958981D01*
X134582748Y-93877061D01*
X134593088Y-93871115D01*
X134754516Y-93756607D01*
X134763544Y-93748814D01*
X134900406Y-93605846D01*
X134907802Y-93596481D01*
X134972104Y-93496895D01*
X135025859Y-93450517D01*
X135096155Y-93440564D01*
X135160672Y-93470196D01*
X135195107Y-93518857D01*
X135196662Y-93522783D01*
X135203257Y-93539441D01*
X135294448Y-93659580D01*
X135414587Y-93750771D01*
X135494182Y-93782285D01*
X135550154Y-93825958D01*
X135573631Y-93892961D01*
X135557155Y-93962020D01*
X135536892Y-93988531D01*
X134742029Y-94783394D01*
X134679717Y-94817420D01*
X134608902Y-94812355D01*
X134552066Y-94769808D01*
X134539352Y-94748844D01*
X134534127Y-94737964D01*
X134530051Y-94729475D01*
X134525398Y-94724441D01*
X134522241Y-94718364D01*
X134518153Y-94713576D01*
X134482907Y-94678330D01*
X134479477Y-94674764D01*
X134449182Y-94641990D01*
X134449179Y-94641988D01*
X134442791Y-94635077D01*
X134436690Y-94631534D01*
X134431136Y-94626559D01*
X134144207Y-94339630D01*
X133824274Y-94019698D01*
X133790250Y-93957386D01*
X133787370Y-93930603D01*
X133787370Y-92909773D01*
X133782895Y-92894534D01*
X133781505Y-92893329D01*
X133773822Y-92891658D01*
X132955485Y-92891658D01*
X132940246Y-92896133D01*
X132939041Y-92897523D01*
X132937370Y-92905206D01*
X132937370Y-92966112D01*
X132937655Y-92972088D01*
X132951732Y-93119632D01*
X132953991Y-93131367D01*
X132976205Y-93207089D01*
X132976187Y-93278086D01*
X132937789Y-93337803D01*
X132873201Y-93367280D01*
X132855300Y-93368558D01*
X130389652Y-93368558D01*
X130321531Y-93348556D01*
X130287716Y-93316619D01*
X130199737Y-93195526D01*
X130195858Y-93190187D01*
X130190140Y-93185038D01*
X130060094Y-93067944D01*
X130060093Y-93067943D01*
X130055186Y-93063525D01*
X129891254Y-92968879D01*
X129809733Y-92942391D01*
X129751127Y-92902317D01*
X129723490Y-92836921D01*
X129735597Y-92766964D01*
X129783603Y-92714658D01*
X129848669Y-92696558D01*
X129915742Y-92696558D01*
X130005517Y-92685694D01*
X130013045Y-92682714D01*
X130013047Y-92682713D01*
X130082138Y-92655358D01*
X130145753Y-92630171D01*
X130265892Y-92538980D01*
X130357083Y-92418841D01*
X130390610Y-92334162D01*
X130409625Y-92286135D01*
X130409626Y-92286133D01*
X130412606Y-92278605D01*
X130423470Y-92188830D01*
X130423470Y-91939638D01*
X130443472Y-91871517D01*
X130497128Y-91825024D01*
X130549470Y-91813638D01*
X132887637Y-91813638D01*
X132955758Y-91833640D01*
G37*
%TD.AperFunction*%
%TD*%
%TA.AperFunction,NonConductor*%
G36*
X161137524Y-91080120D02*
G01*
X161158498Y-91097023D01*
X161545881Y-91484406D01*
X161579907Y-91546718D01*
X161574842Y-91617533D01*
X161532295Y-91674369D01*
X161465775Y-91699180D01*
X161456800Y-91699501D01*
X161215215Y-91699501D01*
X161147094Y-91679499D01*
X161126120Y-91662596D01*
X160738737Y-91275213D01*
X160704711Y-91212901D01*
X160709776Y-91142086D01*
X160752323Y-91085250D01*
X160818843Y-91060439D01*
X160827832Y-91060118D01*
X161069403Y-91060118D01*
X161137524Y-91080120D01*
G37*
%TD.AperFunction*%
%TA.AperFunction,NonConductor*%
G36*
X157647226Y-91833640D02*
G01*
X157693719Y-91887296D01*
X157703823Y-91957570D01*
X157675628Y-92020627D01*
X157564024Y-92153630D01*
X157561056Y-92159028D01*
X157561053Y-92159033D01*
X157491179Y-92286135D01*
X157464776Y-92334162D01*
X157402484Y-92530532D01*
X157401798Y-92536649D01*
X157401797Y-92536653D01*
X157391890Y-92624979D01*
X157379520Y-92735262D01*
X157380036Y-92741406D01*
X157394226Y-92910384D01*
X157396759Y-92940553D01*
X157398458Y-92946478D01*
X157449443Y-93124283D01*
X157453544Y-93138586D01*
X157456359Y-93144063D01*
X157456360Y-93144066D01*
X157532783Y-93292770D01*
X157547712Y-93321818D01*
X157622379Y-93416024D01*
X157645531Y-93445235D01*
X157672169Y-93511045D01*
X157658998Y-93580810D01*
X157610201Y-93632379D01*
X157546786Y-93649500D01*
X155075511Y-93649500D01*
X155007390Y-93629498D01*
X154960897Y-93575842D01*
X154950793Y-93505568D01*
X154958359Y-93477117D01*
X154986225Y-93406735D01*
X154986226Y-93406733D01*
X154989206Y-93399205D01*
X155000070Y-93309430D01*
X155000070Y-91973886D01*
X154997757Y-91954775D01*
X155009429Y-91884747D01*
X155057110Y-91832144D01*
X155122844Y-91813638D01*
X157579105Y-91813638D01*
X157647226Y-91833640D01*
G37*
%TD.AperFunction*%
%TA.AperFunction,NonConductor*%
G36*
X142051464Y-93129285D02*
G01*
X142103770Y-93177291D01*
X142121870Y-93242357D01*
X142121870Y-93309430D01*
X142132734Y-93399205D01*
X142135714Y-93406733D01*
X142135715Y-93406735D01*
X142163581Y-93477117D01*
X142170060Y-93547817D01*
X142137287Y-93610797D01*
X142075667Y-93646061D01*
X142046429Y-93649500D01*
X141855575Y-93649500D01*
X141787454Y-93629498D01*
X141740961Y-93575842D01*
X141730857Y-93505568D01*
X141753020Y-93450965D01*
X141754903Y-93448874D01*
X141835411Y-93309430D01*
X141846245Y-93290665D01*
X141846246Y-93290664D01*
X141849549Y-93284942D01*
X141876037Y-93203421D01*
X141916111Y-93144815D01*
X141981507Y-93117178D01*
X142051464Y-93129285D01*
G37*
%TD.AperFunction*%
%TA.AperFunction,NonConductor*%
G36*
X147229495Y-91833640D02*
G01*
X147275988Y-91887296D01*
X147286092Y-91957570D01*
X147276480Y-91990889D01*
X147275697Y-91992649D01*
X147272391Y-91998374D01*
X147213896Y-92178402D01*
X147199070Y-92319466D01*
X147199070Y-92963850D01*
X147213896Y-93104914D01*
X147272391Y-93284942D01*
X147275694Y-93290664D01*
X147275695Y-93290665D01*
X147286529Y-93309430D01*
X147367037Y-93448874D01*
X147368796Y-93450827D01*
X147392159Y-93516305D01*
X147376080Y-93585457D01*
X147325166Y-93634938D01*
X147266365Y-93649500D01*
X143998311Y-93649500D01*
X143930190Y-93629498D01*
X143883697Y-93575842D01*
X143873593Y-93505568D01*
X143881159Y-93477117D01*
X143909025Y-93406735D01*
X143909026Y-93406733D01*
X143912006Y-93399205D01*
X143922870Y-93309430D01*
X143922870Y-91973886D01*
X143920557Y-91954775D01*
X143932229Y-91884747D01*
X143979910Y-91832144D01*
X144045644Y-91813638D01*
X147161374Y-91813638D01*
X147229495Y-91833640D01*
G37*
%TD.AperFunction*%
%TA.AperFunction,NonConductor*%
G36*
X149155164Y-93047727D02*
G01*
X149207470Y-93095733D01*
X149219403Y-93121863D01*
X149272391Y-93284942D01*
X149275694Y-93290664D01*
X149275695Y-93290665D01*
X149286529Y-93309430D01*
X149367037Y-93448874D01*
X149368796Y-93450827D01*
X149392159Y-93516305D01*
X149376080Y-93585457D01*
X149325166Y-93634938D01*
X149266365Y-93649500D01*
X148932775Y-93649500D01*
X148864654Y-93629498D01*
X148818161Y-93575842D01*
X148808057Y-93505568D01*
X148830220Y-93450965D01*
X148832103Y-93448874D01*
X148912611Y-93309430D01*
X148923445Y-93290665D01*
X148923446Y-93290664D01*
X148926749Y-93284942D01*
X148979737Y-93121863D01*
X149019811Y-93063257D01*
X149085207Y-93035620D01*
X149155164Y-93047727D01*
G37*
%TD.AperFunction*%
%TA.AperFunction,NonConductor*%
G36*
X151155164Y-93047727D02*
G01*
X151207470Y-93095733D01*
X151219403Y-93121863D01*
X151272391Y-93284942D01*
X151275694Y-93290664D01*
X151275695Y-93290665D01*
X151286529Y-93309430D01*
X151367037Y-93448874D01*
X151368796Y-93450827D01*
X151392159Y-93516305D01*
X151376080Y-93585457D01*
X151325166Y-93634938D01*
X151266365Y-93649500D01*
X150932775Y-93649500D01*
X150864654Y-93629498D01*
X150818161Y-93575842D01*
X150808057Y-93505568D01*
X150830220Y-93450965D01*
X150832103Y-93448874D01*
X150912611Y-93309430D01*
X150923445Y-93290665D01*
X150923446Y-93290664D01*
X150926749Y-93284942D01*
X150979737Y-93121863D01*
X151019811Y-93063257D01*
X151085207Y-93035620D01*
X151155164Y-93047727D01*
G37*
%TD.AperFunction*%
%TA.AperFunction,NonConductor*%
G36*
X153128664Y-93129285D02*
G01*
X153180970Y-93177291D01*
X153199070Y-93242357D01*
X153199070Y-93309430D01*
X153209934Y-93399205D01*
X153212914Y-93406733D01*
X153212915Y-93406735D01*
X153240781Y-93477117D01*
X153247260Y-93547817D01*
X153214487Y-93610797D01*
X153152867Y-93646061D01*
X153123629Y-93649500D01*
X152932775Y-93649500D01*
X152864654Y-93629498D01*
X152818161Y-93575842D01*
X152808057Y-93505568D01*
X152830220Y-93450965D01*
X152832103Y-93448874D01*
X152912611Y-93309430D01*
X152923445Y-93290665D01*
X152923446Y-93290664D01*
X152926749Y-93284942D01*
X152953237Y-93203421D01*
X152993311Y-93144815D01*
X153058707Y-93117178D01*
X153128664Y-93129285D01*
G37*
%TD.AperFunction*%
%TA.AperFunction,NonConductor*%
G36*
X128059012Y-92255824D02*
G01*
X128093652Y-92304664D01*
X128138857Y-92418841D01*
X128230048Y-92538980D01*
X128350187Y-92630171D01*
X128413802Y-92655358D01*
X128482893Y-92682713D01*
X128482895Y-92682714D01*
X128490423Y-92685694D01*
X128580198Y-92696558D01*
X128647271Y-92696558D01*
X128715392Y-92716560D01*
X128761885Y-92770216D01*
X128771989Y-92840490D01*
X128742495Y-92905070D01*
X128686207Y-92942391D01*
X128604686Y-92968879D01*
X128440754Y-93063525D01*
X128435847Y-93067943D01*
X128435846Y-93067944D01*
X128305801Y-93185038D01*
X128300082Y-93190187D01*
X128296203Y-93195526D01*
X128220708Y-93299437D01*
X128188819Y-93343328D01*
X128111826Y-93516255D01*
X128099747Y-93573083D01*
X128066019Y-93635556D01*
X128003869Y-93669878D01*
X127933030Y-93665150D01*
X127875993Y-93622875D01*
X127850865Y-93556473D01*
X127850500Y-93546886D01*
X127850500Y-92351048D01*
X127870502Y-92282927D01*
X127924158Y-92236434D01*
X127994432Y-92226330D01*
X128059012Y-92255824D01*
G37*
%TD.AperFunction*%
%TA.AperFunction,NonConductor*%
G36*
X159736044Y-91833640D02*
G01*
X159757018Y-91850543D01*
X160347595Y-92441120D01*
X160381621Y-92503432D01*
X160384500Y-92530215D01*
X160384501Y-92909773D01*
X160384501Y-93292770D01*
X160384956Y-93296528D01*
X160384956Y-93296533D01*
X160394014Y-93371387D01*
X160395364Y-93382547D01*
X160450888Y-93522783D01*
X160542078Y-93642922D01*
X160662217Y-93734112D01*
X160802453Y-93789636D01*
X160810491Y-93790609D01*
X160810492Y-93790609D01*
X160840647Y-93794258D01*
X160892229Y-93800500D01*
X161434642Y-93800500D01*
X161977770Y-93800499D01*
X161981528Y-93800044D01*
X161981533Y-93800044D01*
X162059517Y-93790608D01*
X162059520Y-93790607D01*
X162067547Y-93789636D01*
X162150968Y-93756607D01*
X162187116Y-93742295D01*
X162257816Y-93735816D01*
X162320796Y-93768588D01*
X162356060Y-93830208D01*
X162359500Y-93859447D01*
X162359500Y-94883613D01*
X162339498Y-94951734D01*
X162285842Y-94998227D01*
X162215568Y-95008331D01*
X162153185Y-94980698D01*
X162030025Y-94878811D01*
X162030021Y-94878809D01*
X162025275Y-94874882D01*
X161844055Y-94776897D01*
X161647254Y-94715977D01*
X161641129Y-94715333D01*
X161641128Y-94715333D01*
X161448498Y-94695087D01*
X161448496Y-94695087D01*
X161442369Y-94694443D01*
X161240468Y-94712817D01*
X161170816Y-94699072D01*
X161139955Y-94676431D01*
X160284882Y-93821358D01*
X160281229Y-93817549D01*
X160270879Y-93806294D01*
X160239201Y-93771844D01*
X160202198Y-93748901D01*
X160192448Y-93742200D01*
X160157783Y-93715888D01*
X160143804Y-93710354D01*
X160123801Y-93700293D01*
X160111014Y-93692365D01*
X160102763Y-93689968D01*
X160102761Y-93689967D01*
X160069228Y-93680225D01*
X160057995Y-93676379D01*
X160037353Y-93668206D01*
X160017547Y-93660364D01*
X160009006Y-93659466D01*
X160009005Y-93659466D01*
X160002592Y-93658792D01*
X159980617Y-93654480D01*
X159966175Y-93650285D01*
X159958692Y-93649736D01*
X159957792Y-93649669D01*
X159957781Y-93649669D01*
X159955485Y-93649500D01*
X159920783Y-93649500D01*
X159907613Y-93648810D01*
X159897384Y-93647735D01*
X159867546Y-93644599D01*
X159859081Y-93646031D01*
X159859072Y-93646031D01*
X159849000Y-93647735D01*
X159827987Y-93649500D01*
X159321564Y-93649500D01*
X159253443Y-93629498D01*
X159206950Y-93575842D01*
X159196846Y-93505568D01*
X159226183Y-93441169D01*
X159293535Y-93363141D01*
X159293540Y-93363134D01*
X159297564Y-93358472D01*
X159318387Y-93321818D01*
X159343230Y-93278086D01*
X159399323Y-93179344D01*
X159464351Y-92983863D01*
X159490171Y-92779474D01*
X159490583Y-92750000D01*
X159470480Y-92544970D01*
X159410935Y-92347749D01*
X159314218Y-92165849D01*
X159194674Y-92019274D01*
X159167120Y-91953842D01*
X159179315Y-91883901D01*
X159227388Y-91831656D01*
X159292317Y-91813638D01*
X159667923Y-91813638D01*
X159736044Y-91833640D01*
G37*
%TD.AperFunction*%
%TA.AperFunction,NonConductor*%
G36*
X128059012Y-93950006D02*
G01*
X128097396Y-94009732D01*
X128099747Y-94019031D01*
X128111826Y-94075861D01*
X128188819Y-94248788D01*
X128192699Y-94254129D01*
X128192700Y-94254130D01*
X128213081Y-94282182D01*
X128300082Y-94401929D01*
X128304984Y-94406342D01*
X128304985Y-94406344D01*
X128318099Y-94418152D01*
X128440754Y-94528591D01*
X128446475Y-94531894D01*
X128519337Y-94573961D01*
X128568330Y-94625344D01*
X128581766Y-94695057D01*
X128555380Y-94760968D01*
X128514029Y-94795096D01*
X128381333Y-94863439D01*
X128371287Y-94869889D01*
X128215656Y-94992139D01*
X128207003Y-95000379D01*
X128073369Y-95154379D01*
X128071832Y-95153046D01*
X128023239Y-95191199D01*
X127952558Y-95197892D01*
X127889479Y-95165311D01*
X127854029Y-95103798D01*
X127850500Y-95074188D01*
X127850500Y-94045230D01*
X127870502Y-93977109D01*
X127924158Y-93930616D01*
X127994432Y-93920512D01*
X128059012Y-93950006D01*
G37*
%TD.AperFunction*%
%TA.AperFunction,NonConductor*%
G36*
X128059012Y-101434766D02*
G01*
X128093652Y-101483606D01*
X128138857Y-101597783D01*
X128230048Y-101717922D01*
X128350187Y-101809113D01*
X128413802Y-101834300D01*
X128482893Y-101861655D01*
X128482895Y-101861656D01*
X128490423Y-101864636D01*
X128580198Y-101875500D01*
X128647271Y-101875500D01*
X128715392Y-101895502D01*
X128761885Y-101949158D01*
X128771989Y-102019432D01*
X128742495Y-102084012D01*
X128686207Y-102121333D01*
X128604686Y-102147821D01*
X128598964Y-102151124D01*
X128598963Y-102151125D01*
X128560224Y-102173491D01*
X128440754Y-102242467D01*
X128435847Y-102246885D01*
X128435846Y-102246886D01*
X128311918Y-102358472D01*
X128300082Y-102369129D01*
X128296203Y-102374468D01*
X128197904Y-102509766D01*
X128188819Y-102522270D01*
X128111826Y-102695197D01*
X128103196Y-102735800D01*
X128099747Y-102752025D01*
X128066019Y-102814498D01*
X128003869Y-102848820D01*
X127933030Y-102844092D01*
X127875993Y-102801817D01*
X127850865Y-102735415D01*
X127850500Y-102725828D01*
X127850500Y-101529990D01*
X127870502Y-101461869D01*
X127924158Y-101415376D01*
X127994432Y-101405272D01*
X128059012Y-101434766D01*
G37*
%TD.AperFunction*%
%TA.AperFunction,NonConductor*%
G36*
X157619248Y-103866982D02*
G01*
X157665741Y-103920638D01*
X157675845Y-103990912D01*
X157647650Y-104053969D01*
X157564024Y-104153630D01*
X157561056Y-104159028D01*
X157561053Y-104159033D01*
X157473609Y-104318094D01*
X157464776Y-104334162D01*
X157402484Y-104530532D01*
X157401527Y-104539068D01*
X157398265Y-104568145D01*
X157370794Y-104633611D01*
X157312290Y-104673833D01*
X157241328Y-104676040D01*
X157183955Y-104643194D01*
X156602836Y-104062075D01*
X156568810Y-103999763D01*
X156573875Y-103928948D01*
X156616422Y-103872112D01*
X156682942Y-103847301D01*
X156691931Y-103846980D01*
X157551127Y-103846980D01*
X157619248Y-103866982D01*
G37*
%TD.AperFunction*%
%TA.AperFunction,NonConductor*%
G36*
X128059012Y-103128948D02*
G01*
X128097396Y-103188674D01*
X128099747Y-103197973D01*
X128111826Y-103254803D01*
X128188819Y-103427730D01*
X128300082Y-103580871D01*
X128304984Y-103585284D01*
X128304985Y-103585286D01*
X128435846Y-103703114D01*
X128440754Y-103707533D01*
X128604686Y-103802179D01*
X128610967Y-103804220D01*
X128617000Y-103806906D01*
X128616440Y-103808163D01*
X128669014Y-103844114D01*
X128696649Y-103909511D01*
X128697470Y-103923871D01*
X128697470Y-105472977D01*
X128697359Y-105478253D01*
X128694760Y-105540264D01*
X128696722Y-105548629D01*
X128704697Y-105582632D01*
X128706860Y-105594303D01*
X128712764Y-105637402D01*
X128716176Y-105645286D01*
X128716176Y-105645287D01*
X128718735Y-105651200D01*
X128725769Y-105672469D01*
X128729202Y-105687106D01*
X128733339Y-105694631D01*
X128733340Y-105694634D01*
X128750165Y-105725238D01*
X128755381Y-105735883D01*
X128772665Y-105775825D01*
X128782128Y-105787511D01*
X128794615Y-105806095D01*
X128801863Y-105819278D01*
X128808867Y-105827392D01*
X128833403Y-105851928D01*
X128842228Y-105861729D01*
X128850026Y-105871358D01*
X128867584Y-105893040D01*
X128874582Y-105898013D01*
X128874587Y-105898018D01*
X128882918Y-105903938D01*
X128899024Y-105917549D01*
X130038198Y-107056722D01*
X130072222Y-107119033D01*
X130067158Y-107189848D01*
X130024611Y-107246684D01*
X129958091Y-107271495D01*
X129933973Y-107270904D01*
X129915742Y-107268698D01*
X129178185Y-107268698D01*
X129110064Y-107248696D01*
X129089090Y-107231793D01*
X127887405Y-106030109D01*
X127853380Y-105967797D01*
X127850500Y-105941014D01*
X127850500Y-103224172D01*
X127870502Y-103156051D01*
X127924158Y-103109558D01*
X127994432Y-103099454D01*
X128059012Y-103128948D01*
G37*
%TD.AperFunction*%
%TA.AperFunction,NonConductor*%
G36*
X130616828Y-107638619D02*
G01*
X130635447Y-107653971D01*
X131636442Y-108654966D01*
X131670468Y-108717278D01*
X131665403Y-108788093D01*
X131622856Y-108844929D01*
X131556336Y-108869740D01*
X131547347Y-108870061D01*
X130511572Y-108870061D01*
X130443451Y-108850059D01*
X130396958Y-108796403D01*
X130386854Y-108726129D01*
X130394420Y-108697678D01*
X130409625Y-108659275D01*
X130409626Y-108659273D01*
X130412606Y-108651745D01*
X130423470Y-108561970D01*
X130423470Y-107776426D01*
X130421264Y-107758200D01*
X130432939Y-107688172D01*
X130480621Y-107635570D01*
X130549172Y-107617098D01*
X130616828Y-107638619D01*
G37*
%TD.AperFunction*%
%TA.AperFunction,NonConductor*%
G36*
X157464753Y-111197502D02*
G01*
X157508698Y-111245905D01*
X157547712Y-111321818D01*
X157625661Y-111420165D01*
X157653457Y-111455235D01*
X157680095Y-111521045D01*
X157666924Y-111590810D01*
X157618127Y-111642379D01*
X157554712Y-111659500D01*
X156650215Y-111659500D01*
X156582094Y-111639498D01*
X156561120Y-111622595D01*
X156331120Y-111392595D01*
X156297094Y-111330283D01*
X156302159Y-111259468D01*
X156344706Y-111202632D01*
X156411226Y-111177821D01*
X156420215Y-111177500D01*
X157396632Y-111177500D01*
X157464753Y-111197502D01*
G37*
%TD.AperFunction*%
%TA.AperFunction,NonConductor*%
G36*
X157699444Y-112780502D02*
G01*
X157745937Y-112834158D01*
X157756041Y-112904432D01*
X157726547Y-112969012D01*
X157710275Y-112984697D01*
X157696447Y-112995815D01*
X157564024Y-113153630D01*
X157561056Y-113159028D01*
X157561053Y-113159033D01*
X157488413Y-113291166D01*
X157464776Y-113334162D01*
X157402484Y-113530532D01*
X157401798Y-113536649D01*
X157401797Y-113536653D01*
X157384191Y-113693615D01*
X157379520Y-113735262D01*
X157380036Y-113741406D01*
X157396178Y-113933629D01*
X157396759Y-113940553D01*
X157453544Y-114138586D01*
X157456359Y-114144063D01*
X157456360Y-114144066D01*
X157481565Y-114193109D01*
X157547712Y-114321818D01*
X157651397Y-114452636D01*
X157675677Y-114483270D01*
X157673986Y-114484610D01*
X157702396Y-114538856D01*
X157696104Y-114609573D01*
X157652578Y-114665662D01*
X157578830Y-114689500D01*
X157380216Y-114689500D01*
X157312095Y-114669498D01*
X157291121Y-114652596D01*
X156857405Y-114218881D01*
X156823380Y-114156568D01*
X156820500Y-114129785D01*
X156820500Y-113382733D01*
X156820611Y-113377457D01*
X156821856Y-113347749D01*
X156823210Y-113315446D01*
X156819084Y-113297853D01*
X156813273Y-113273078D01*
X156811110Y-113261407D01*
X156806372Y-113226821D01*
X156805206Y-113218308D01*
X156799235Y-113204510D01*
X156792201Y-113183241D01*
X156790729Y-113176965D01*
X156788768Y-113168604D01*
X156784631Y-113161079D01*
X156784630Y-113161076D01*
X156767805Y-113130472D01*
X156762589Y-113119827D01*
X156745305Y-113079885D01*
X156735842Y-113068199D01*
X156723354Y-113049614D01*
X156719290Y-113042222D01*
X156716107Y-113036432D01*
X156709103Y-113028318D01*
X156684567Y-113003782D01*
X156675741Y-112993981D01*
X156674097Y-112991950D01*
X156652916Y-112965794D01*
X156625591Y-112900266D01*
X156638031Y-112830368D01*
X156686286Y-112778291D01*
X156750837Y-112760500D01*
X157631323Y-112760500D01*
X157699444Y-112780502D01*
G37*
%TD.AperFunction*%
M02*
