%TF.GenerationSoftware,KiCad,Pcbnew,(6.0.5-0)*%
%TF.CreationDate,2022-05-29T18:31:12+08:00*%
%TF.ProjectId,StealthBurner,53746561-6c74-4684-9275-726e65722e6b,Bata1*%
%TF.SameCoordinates,Original*%
%TF.FileFunction,Soldermask,Bot*%
%TF.FilePolarity,Negative*%
%FSLAX46Y46*%
G04 Gerber Fmt 4.6, Leading zero omitted, Abs format (unit mm)*
G04 Created by KiCad (PCBNEW (6.0.5-0)) date 2022-05-29 18:31:12*
%MOMM*%
%LPD*%
G01*
G04 APERTURE LIST*
G04 Aperture macros list*
%AMRoundRect*
0 Rectangle with rounded corners*
0 $1 Rounding radius*
0 $2 $3 $4 $5 $6 $7 $8 $9 X,Y pos of 4 corners*
0 Add a 4 corners polygon primitive as box body*
4,1,4,$2,$3,$4,$5,$6,$7,$8,$9,$2,$3,0*
0 Add four circle primitives for the rounded corners*
1,1,$1+$1,$2,$3*
1,1,$1+$1,$4,$5*
1,1,$1+$1,$6,$7*
1,1,$1+$1,$8,$9*
0 Add four rect primitives between the rounded corners*
20,1,$1+$1,$2,$3,$4,$5,0*
20,1,$1+$1,$4,$5,$6,$7,0*
20,1,$1+$1,$6,$7,$8,$9,0*
20,1,$1+$1,$8,$9,$2,$3,0*%
G04 Aperture macros list end*
%ADD10RoundRect,0.250000X0.350000X0.625000X-0.350000X0.625000X-0.350000X-0.625000X0.350000X-0.625000X0*%
%ADD11O,1.200000X1.750000*%
%ADD12RoundRect,0.250000X-0.625000X0.350000X-0.625000X-0.350000X0.625000X-0.350000X0.625000X0.350000X0*%
%ADD13O,1.750000X1.200000*%
%ADD14C,3.000000*%
%ADD15RoundRect,0.250001X-0.499999X0.499999X-0.499999X-0.499999X0.499999X-0.499999X0.499999X0.499999X0*%
%ADD16C,1.500000*%
%ADD17RoundRect,0.250001X0.499999X-0.499999X0.499999X0.499999X-0.499999X0.499999X-0.499999X-0.499999X0*%
%ADD18R,1.600000X1.600000*%
%ADD19O,1.600000X1.600000*%
%ADD20C,3.200000*%
G04 APERTURE END LIST*
D10*
%TO.C,J5*%
X136037370Y-92641658D03*
D11*
X134037370Y-92641658D03*
%TD*%
D12*
%TO.C,J8*%
X129247970Y-91796058D03*
D13*
X129247970Y-93796058D03*
X129247970Y-95796058D03*
%TD*%
D12*
%TO.C,J6*%
X129247970Y-108169198D03*
D13*
X129247970Y-110169198D03*
%TD*%
D14*
%TO.C,J9*%
X165604970Y-114610000D03*
X165604970Y-94910000D03*
D15*
X161284970Y-92750000D03*
D16*
X161284970Y-95750000D03*
X161284970Y-98750000D03*
X161284970Y-101750000D03*
X161284970Y-104750000D03*
X161284970Y-107750000D03*
X161284970Y-110750000D03*
X161284970Y-113750000D03*
X161284970Y-116750000D03*
X158284970Y-92750000D03*
X158284970Y-95750000D03*
X158284970Y-98750000D03*
X158284970Y-101750000D03*
X158284970Y-104750000D03*
X158284970Y-107750000D03*
X158284970Y-110750000D03*
X158284970Y-113750000D03*
X158284970Y-116750000D03*
%TD*%
D10*
%TO.C,J2*%
X154099570Y-92641658D03*
D11*
X152099570Y-92641658D03*
X150099570Y-92641658D03*
X148099570Y-92641658D03*
%TD*%
D14*
%TO.C,J3*%
X148270000Y-106110000D03*
D17*
X152590000Y-106110000D03*
D16*
X155590000Y-106110000D03*
%TD*%
D18*
%TO.C,D1*%
X139900000Y-100390000D03*
D19*
X139900000Y-97850000D03*
%TD*%
D12*
%TO.C,J1*%
X136270000Y-97300000D03*
D13*
X136270000Y-99300000D03*
X136270000Y-101300000D03*
%TD*%
D20*
%TO.C,M2*%
X136000000Y-112000000D03*
%TD*%
%TO.C,M1*%
X148000000Y-99230000D03*
%TD*%
D10*
%TO.C,J4*%
X143022370Y-92641658D03*
D11*
X141022370Y-92641658D03*
%TD*%
D12*
%TO.C,J7*%
X129247970Y-100974858D03*
D13*
X129247970Y-102974858D03*
%TD*%
M02*
