%TF.GenerationSoftware,KiCad,Pcbnew,(6.0.5-0)*%
%TF.CreationDate,2022-06-02T09:51:47+08:00*%
%TF.ProjectId,StealthBurner,53746561-6c74-4684-9275-726e65722e6b,Bata2*%
%TF.SameCoordinates,Original*%
%TF.FileFunction,Copper,L1,Top*%
%TF.FilePolarity,Positive*%
%FSLAX46Y46*%
G04 Gerber Fmt 4.6, Leading zero omitted, Abs format (unit mm)*
G04 Created by KiCad (PCBNEW (6.0.5-0)) date 2022-06-02 09:51:47*
%MOMM*%
%LPD*%
G01*
G04 APERTURE LIST*
G04 Aperture macros list*
%AMRoundRect*
0 Rectangle with rounded corners*
0 $1 Rounding radius*
0 $2 $3 $4 $5 $6 $7 $8 $9 X,Y pos of 4 corners*
0 Add a 4 corners polygon primitive as box body*
4,1,4,$2,$3,$4,$5,$6,$7,$8,$9,$2,$3,0*
0 Add four circle primitives for the rounded corners*
1,1,$1+$1,$2,$3*
1,1,$1+$1,$4,$5*
1,1,$1+$1,$6,$7*
1,1,$1+$1,$8,$9*
0 Add four rect primitives between the rounded corners*
20,1,$1+$1,$2,$3,$4,$5,0*
20,1,$1+$1,$4,$5,$6,$7,0*
20,1,$1+$1,$6,$7,$8,$9,0*
20,1,$1+$1,$8,$9,$2,$3,0*%
G04 Aperture macros list end*
%TA.AperFunction,ComponentPad*%
%ADD10O,1.200000X1.750000*%
%TD*%
%TA.AperFunction,ComponentPad*%
%ADD11RoundRect,0.250000X0.350000X0.625000X-0.350000X0.625000X-0.350000X-0.625000X0.350000X-0.625000X0*%
%TD*%
%TA.AperFunction,SMDPad,CuDef*%
%ADD12RoundRect,0.250000X0.262500X0.450000X-0.262500X0.450000X-0.262500X-0.450000X0.262500X-0.450000X0*%
%TD*%
%TA.AperFunction,ComponentPad*%
%ADD13O,1.750000X1.200000*%
%TD*%
%TA.AperFunction,ComponentPad*%
%ADD14RoundRect,0.250000X-0.625000X0.350000X-0.625000X-0.350000X0.625000X-0.350000X0.625000X0.350000X0*%
%TD*%
%TA.AperFunction,ComponentPad*%
%ADD15RoundRect,0.250001X-0.499999X0.499999X-0.499999X-0.499999X0.499999X-0.499999X0.499999X0.499999X0*%
%TD*%
%TA.AperFunction,ComponentPad*%
%ADD16C,1.500000*%
%TD*%
%TA.AperFunction,ComponentPad*%
%ADD17RoundRect,0.250001X0.499999X0.499999X-0.499999X0.499999X-0.499999X-0.499999X0.499999X-0.499999X0*%
%TD*%
%TA.AperFunction,ComponentPad*%
%ADD18R,1.600000X1.600000*%
%TD*%
%TA.AperFunction,ComponentPad*%
%ADD19O,1.600000X1.600000*%
%TD*%
%TA.AperFunction,ViaPad*%
%ADD20C,0.800000*%
%TD*%
%TA.AperFunction,Conductor*%
%ADD21C,0.254000*%
%TD*%
%TA.AperFunction,Conductor*%
%ADD22C,0.500000*%
%TD*%
%TA.AperFunction,Conductor*%
%ADD23C,1.000000*%
%TD*%
G04 APERTURE END LIST*
D10*
%TO.P,J5,2,Pin_2*%
%TO.N,GND*%
X134250000Y-92850000D03*
D11*
%TO.P,J5,1,Pin_1*%
%TO.N,/FS*%
X136250000Y-92850000D03*
%TD*%
D12*
%TO.P,TH1,1*%
%TO.N,/CBT*%
X130612500Y-114400000D03*
%TO.P,TH1,2*%
%TO.N,GNDA*%
X128787500Y-114400000D03*
%TD*%
D13*
%TO.P,J8,3,Pin_3*%
%TO.N,GND*%
X129250000Y-96000000D03*
%TO.P,J8,2,Pin_2*%
%TO.N,/DATA*%
X129250000Y-94000000D03*
D14*
%TO.P,J8,1,Pin_1*%
%TO.N,+5V*%
X129250000Y-92000000D03*
%TD*%
%TO.P,J6,1,Pin_1*%
%TO.N,/V_FAN*%
X129250000Y-108500000D03*
D13*
%TO.P,J6,2,Pin_2*%
%TO.N,/HEF*%
X129250000Y-110500000D03*
%TD*%
D15*
%TO.P,J9,1,Pin_1*%
%TO.N,+5V*%
X161450000Y-92750000D03*
D16*
%TO.P,J9,2,Pin_2*%
%TO.N,+24V*%
X161450000Y-95750000D03*
%TO.P,J9,3,Pin_3*%
%TO.N,/V_FAN*%
X161450000Y-98750000D03*
%TO.P,J9,4,Pin_4*%
%TO.N,/P_SIG*%
X161450000Y-101750000D03*
%TO.P,J9,5,Pin_5*%
%TO.N,/FS*%
X161450000Y-104750000D03*
%TO.P,J9,6,Pin_6*%
%TO.N,/CBT*%
X161450000Y-107750000D03*
%TO.P,J9,7,Pin_7*%
%TO.N,/HET*%
X161450000Y-110750000D03*
%TO.P,J9,8,Pin_8*%
%TO.N,/PCF*%
X161450000Y-113750000D03*
%TO.P,J9,9,Pin_9*%
%TO.N,/HEF*%
X161450000Y-116750000D03*
%TO.P,J9,10,Pin_10*%
%TO.N,/A+*%
X158450000Y-92750000D03*
%TO.P,J9,11,Pin_11*%
%TO.N,/A-*%
X158450000Y-95750000D03*
%TO.P,J9,12,Pin_12*%
%TO.N,/B+*%
X158450000Y-98750000D03*
%TO.P,J9,13,Pin_13*%
%TO.N,/B-*%
X158450000Y-101750000D03*
%TO.P,J9,14,Pin_14*%
%TO.N,/HE-*%
X158450000Y-104750000D03*
%TO.P,J9,15,Pin_15*%
%TO.N,/HE+*%
X158450000Y-107750000D03*
%TO.P,J9,16,Pin_16*%
%TO.N,/DATA*%
X158450000Y-110750000D03*
%TO.P,J9,17,Pin_17*%
%TO.N,GNDA*%
X158450000Y-113750000D03*
%TO.P,J9,18,Pin_18*%
%TO.N,GND*%
X158450000Y-116750000D03*
%TD*%
D11*
%TO.P,J2,1,Pin_1*%
%TO.N,/A+*%
X154750000Y-92850000D03*
D10*
%TO.P,J2,2,Pin_2*%
%TO.N,/A-*%
X152750000Y-92850000D03*
%TO.P,J2,3,Pin_3*%
%TO.N,/B+*%
X150750000Y-92850000D03*
%TO.P,J2,4,Pin_4*%
%TO.N,/B-*%
X148750000Y-92850000D03*
%TD*%
D17*
%TO.P,J3,1,Pin_1*%
%TO.N,/HE+*%
X141000000Y-99750000D03*
D16*
%TO.P,J3,2,Pin_2*%
%TO.N,/HE-*%
X141000000Y-96750000D03*
%TD*%
D18*
%TO.P,D1,1,K*%
%TO.N,Net-(D1-Pad1)*%
X152300000Y-97770000D03*
D19*
%TO.P,D1,2,A*%
%TO.N,/P_SIG*%
X154840000Y-97770000D03*
%TD*%
D14*
%TO.P,J1,1,Pin_1*%
%TO.N,GND*%
X154350000Y-101500000D03*
D13*
%TO.P,J1,2,Pin_2*%
%TO.N,Net-(D1-Pad1)*%
X154350000Y-103500000D03*
%TO.P,J1,3,Pin_3*%
%TO.N,+24V*%
X154350000Y-105500000D03*
%TD*%
D10*
%TO.P,J4,2,Pin_2*%
%TO.N,GNDA*%
X141500000Y-92850000D03*
D11*
%TO.P,J4,1,Pin_1*%
%TO.N,/HET*%
X143500000Y-92850000D03*
%TD*%
D14*
%TO.P,J7,1,Pin_1*%
%TO.N,/V_FAN*%
X129250000Y-101250000D03*
D13*
%TO.P,J7,2,Pin_2*%
%TO.N,/PCF*%
X129250000Y-103250000D03*
%TD*%
D20*
%TO.N,GND*%
X134830000Y-99890000D03*
X155290000Y-118540000D03*
X147150000Y-96040000D03*
X126840000Y-90250000D03*
X168770000Y-91170000D03*
X138390000Y-95670000D03*
X168760000Y-118460000D03*
X145960000Y-102340000D03*
X165860000Y-107630000D03*
X134150000Y-115720000D03*
X165910000Y-101820000D03*
X139380000Y-100710000D03*
X155270000Y-114950000D03*
X153800000Y-99970000D03*
X156580000Y-109400000D03*
%TO.N,GNDA*%
X126990000Y-110880000D03*
%TO.N,/CBT*%
X132200000Y-110880000D03*
%TD*%
D21*
%TO.N,/P_SIG*%
X154840000Y-97770000D02*
X154840000Y-99960000D01*
X157920000Y-103040000D02*
X160160000Y-103040000D01*
X154840000Y-99960000D02*
X157920000Y-103040000D01*
X160160000Y-103040000D02*
X161450000Y-101750000D01*
D22*
%TO.N,GNDA*%
X126990000Y-110880000D02*
X126990000Y-113850000D01*
X126990000Y-113850000D02*
X127540000Y-114400000D01*
X127540000Y-114400000D02*
X128787500Y-114400000D01*
%TO.N,/CBT*%
X130612500Y-114400000D02*
X131720000Y-114400000D01*
X131720000Y-114400000D02*
X132200000Y-113920000D01*
X132200000Y-113920000D02*
X132200000Y-110880000D01*
D21*
%TO.N,Net-(D1-Pad1)*%
X152300000Y-97770000D02*
X152300000Y-102630000D01*
X152300000Y-102630000D02*
X153170000Y-103500000D01*
X153170000Y-103500000D02*
X154350000Y-103500000D01*
D22*
%TO.N,+24V*%
X161435000Y-95750000D02*
X160055000Y-97130000D01*
X160055000Y-97130000D02*
X156590000Y-97130000D01*
X156590000Y-97130000D02*
X155710000Y-96250000D01*
X155710000Y-96250000D02*
X151440000Y-96250000D01*
X151440000Y-96250000D02*
X150450000Y-97240000D01*
X150450000Y-97240000D02*
X150450000Y-103490000D01*
X150450000Y-103490000D02*
X152460000Y-105500000D01*
X152460000Y-105500000D02*
X154350000Y-105500000D01*
%TO.N,/HEF*%
X161450000Y-116750000D02*
X159940000Y-115240000D01*
X159940000Y-115240000D02*
X157100000Y-115240000D01*
X157100000Y-115240000D02*
X156270000Y-114410000D01*
X156270000Y-114410000D02*
X156270000Y-113367740D01*
X156270000Y-113367740D02*
X152322821Y-109420561D01*
X152322821Y-109420561D02*
X131729439Y-109420561D01*
X131729439Y-109420561D02*
X130650000Y-110500000D01*
X130650000Y-110500000D02*
X129250000Y-110500000D01*
%TO.N,/PCF*%
X132427041Y-108667041D02*
X152827041Y-108667041D01*
X152827041Y-108667041D02*
X156370000Y-112210000D01*
X156370000Y-112210000D02*
X159910000Y-112210000D01*
X129250000Y-105490000D02*
X132427041Y-108667041D01*
X129250000Y-103250000D02*
X129250000Y-105490000D01*
X159910000Y-112210000D02*
X161450000Y-113750000D01*
D21*
%TO.N,/DATA*%
X158450000Y-110750000D02*
X155801690Y-110750000D01*
X155801690Y-110750000D02*
X153088212Y-108036522D01*
X153088212Y-108036522D02*
X132688212Y-108036522D01*
X132688212Y-108036522D02*
X131320000Y-106668310D01*
X131320000Y-106668310D02*
X131320000Y-94870000D01*
X131320000Y-94870000D02*
X130450000Y-94000000D01*
X130450000Y-94000000D02*
X129250000Y-94000000D01*
D23*
%TO.N,/HE+*%
X141000000Y-99750000D02*
X142690000Y-99750000D01*
X142690000Y-99750000D02*
X144220000Y-101280000D01*
X146406000Y-107156000D02*
X157856000Y-107156000D01*
X157856000Y-107156000D02*
X158450000Y-107750000D01*
X144220000Y-101280000D02*
X144220000Y-104970000D01*
X144220000Y-104970000D02*
X146406000Y-107156000D01*
D22*
%TO.N,/V_FAN*%
X127871480Y-99218520D02*
X127871480Y-91337882D01*
X127871480Y-91337882D02*
X128491402Y-90717960D01*
X128491402Y-90717960D02*
X161557960Y-90717960D01*
X161557960Y-90717960D02*
X162910000Y-92070000D01*
X162910000Y-92070000D02*
X162910000Y-97290000D01*
X162910000Y-97290000D02*
X161450000Y-98750000D01*
%TO.N,+5V*%
X129250000Y-92000000D02*
X130690000Y-92000000D01*
X130690000Y-92000000D02*
X131218520Y-91471480D01*
X131218520Y-91471480D02*
X160156480Y-91471480D01*
X160156480Y-91471480D02*
X161435000Y-92750000D01*
%TO.N,/V_FAN*%
X129250000Y-100597040D02*
X127871480Y-99218520D01*
X129250000Y-101250000D02*
X129250000Y-100597040D01*
X127871480Y-99218520D02*
X127871480Y-107121480D01*
X129250000Y-108500000D02*
X127871480Y-107121480D01*
%TD*%
%TA.AperFunction,Conductor*%
%TO.N,GND*%
G36*
X168984563Y-89302414D02*
G01*
X168989145Y-89303222D01*
X169000000Y-89305136D01*
X169010856Y-89303222D01*
X169021878Y-89303222D01*
X169021878Y-89303779D01*
X169034152Y-89303188D01*
X169177759Y-89314490D01*
X169197285Y-89317583D01*
X169361030Y-89356895D01*
X169379824Y-89363001D01*
X169535405Y-89427445D01*
X169553010Y-89436415D01*
X169696597Y-89524405D01*
X169712592Y-89536027D01*
X169840634Y-89645385D01*
X169854615Y-89659366D01*
X169963973Y-89787408D01*
X169975594Y-89803401D01*
X170063585Y-89946990D01*
X170072555Y-89964595D01*
X170100888Y-90032996D01*
X170136997Y-90120171D01*
X170143105Y-90138970D01*
X170180836Y-90296127D01*
X170182417Y-90302714D01*
X170185510Y-90322241D01*
X170187268Y-90344574D01*
X170196812Y-90465845D01*
X170196221Y-90478122D01*
X170196778Y-90478122D01*
X170196778Y-90489144D01*
X170194864Y-90500000D01*
X170196778Y-90510855D01*
X170197586Y-90515437D01*
X170199500Y-90537317D01*
X170199500Y-118962683D01*
X170197586Y-118984563D01*
X170194864Y-119000000D01*
X170196778Y-119010856D01*
X170196778Y-119021878D01*
X170196221Y-119021878D01*
X170196812Y-119034155D01*
X170185510Y-119177758D01*
X170182417Y-119197285D01*
X170173239Y-119235517D01*
X170143107Y-119361025D01*
X170136999Y-119379824D01*
X170072555Y-119535405D01*
X170063585Y-119553010D01*
X169979331Y-119690500D01*
X169975595Y-119696597D01*
X169963973Y-119712592D01*
X169854615Y-119840634D01*
X169840634Y-119854615D01*
X169712592Y-119963973D01*
X169696599Y-119975594D01*
X169553010Y-120063585D01*
X169535405Y-120072555D01*
X169379824Y-120136999D01*
X169361030Y-120143105D01*
X169197286Y-120182417D01*
X169177759Y-120185510D01*
X169034152Y-120196812D01*
X169021878Y-120196221D01*
X169021878Y-120196778D01*
X169010856Y-120196778D01*
X169000000Y-120194864D01*
X168989145Y-120196778D01*
X168984563Y-120197586D01*
X168962683Y-120199500D01*
X154537317Y-120199500D01*
X154515437Y-120197586D01*
X154510855Y-120196778D01*
X154500000Y-120194864D01*
X154489144Y-120196778D01*
X154478122Y-120196778D01*
X154478122Y-120196221D01*
X154465848Y-120196812D01*
X154322241Y-120185510D01*
X154302714Y-120182417D01*
X154138970Y-120143105D01*
X154120176Y-120136999D01*
X153964595Y-120072555D01*
X153946990Y-120063585D01*
X153803401Y-119975594D01*
X153787408Y-119963973D01*
X153659366Y-119854615D01*
X153645385Y-119840634D01*
X153536027Y-119712592D01*
X153524405Y-119696597D01*
X153520669Y-119690500D01*
X153436415Y-119553010D01*
X153427445Y-119535405D01*
X153363001Y-119379824D01*
X153356893Y-119361025D01*
X153326762Y-119235517D01*
X153317583Y-119197285D01*
X153314490Y-119177758D01*
X153303188Y-119034155D01*
X153303779Y-119021878D01*
X153303222Y-119021878D01*
X153303222Y-119010856D01*
X153305136Y-119000000D01*
X153302414Y-118984563D01*
X153300500Y-118962683D01*
X153300500Y-117792088D01*
X157766810Y-117792088D01*
X157776106Y-117804103D01*
X157818104Y-117833510D01*
X157827599Y-117838993D01*
X158015860Y-117926780D01*
X158026152Y-117930526D01*
X158226796Y-117984288D01*
X158237591Y-117986191D01*
X158444525Y-118004296D01*
X158455475Y-118004296D01*
X158662409Y-117986191D01*
X158673204Y-117984288D01*
X158873848Y-117930526D01*
X158884140Y-117926780D01*
X159072401Y-117838993D01*
X159081896Y-117833510D01*
X159124732Y-117803516D01*
X159133107Y-117793039D01*
X159126039Y-117779592D01*
X158462812Y-117116365D01*
X158448868Y-117108751D01*
X158447035Y-117108882D01*
X158440420Y-117113133D01*
X157773240Y-117780313D01*
X157766810Y-117792088D01*
X153300500Y-117792088D01*
X153300500Y-111537317D01*
X153302414Y-111515437D01*
X153303222Y-111510853D01*
X153305136Y-111500000D01*
X153303906Y-111493022D01*
X153303341Y-111484403D01*
X153312939Y-111451718D01*
X153319398Y-111422935D01*
X153322205Y-111420165D01*
X153323227Y-111416684D01*
X153343727Y-111398922D01*
X153369927Y-111373062D01*
X153374744Y-111372047D01*
X153376884Y-111370193D01*
X153421003Y-111359076D01*
X153421416Y-111359049D01*
X153421620Y-111362170D01*
X153439398Y-111358424D01*
X153505755Y-111383670D01*
X153518676Y-111394941D01*
X154531834Y-112408098D01*
X155682595Y-113558859D01*
X155716621Y-113621171D01*
X155719500Y-113647954D01*
X155719500Y-114395007D01*
X155719389Y-114400283D01*
X155716790Y-114462294D01*
X155718752Y-114470659D01*
X155726727Y-114504662D01*
X155728890Y-114516333D01*
X155734794Y-114559432D01*
X155738206Y-114567316D01*
X155738206Y-114567317D01*
X155740765Y-114573230D01*
X155747799Y-114594499D01*
X155751232Y-114609136D01*
X155755369Y-114616661D01*
X155755370Y-114616664D01*
X155772195Y-114647268D01*
X155777411Y-114657913D01*
X155794695Y-114697855D01*
X155804158Y-114709541D01*
X155816645Y-114728125D01*
X155823893Y-114741308D01*
X155830897Y-114749422D01*
X155855433Y-114773958D01*
X155864258Y-114783759D01*
X155882060Y-114805742D01*
X155889614Y-114815070D01*
X155896613Y-114820044D01*
X155896614Y-114820045D01*
X155904946Y-114825966D01*
X155921051Y-114839576D01*
X156700130Y-115618654D01*
X156703783Y-115622464D01*
X156745799Y-115668156D01*
X156753099Y-115672682D01*
X156753100Y-115672683D01*
X156782783Y-115691087D01*
X156792553Y-115697801D01*
X156827216Y-115724112D01*
X156841193Y-115729646D01*
X156861202Y-115739709D01*
X156866688Y-115743111D01*
X156866692Y-115743113D01*
X156873986Y-115747635D01*
X156882228Y-115750029D01*
X156882231Y-115750031D01*
X156915784Y-115759779D01*
X156926997Y-115763618D01*
X156967453Y-115779635D01*
X156975996Y-115780533D01*
X156975997Y-115780533D01*
X156982402Y-115781206D01*
X157004380Y-115785518D01*
X157018825Y-115789715D01*
X157025408Y-115790198D01*
X157025411Y-115790199D01*
X157027208Y-115790331D01*
X157027219Y-115790331D01*
X157029515Y-115790500D01*
X157064219Y-115790500D01*
X157077390Y-115791190D01*
X157117454Y-115795401D01*
X157125919Y-115793969D01*
X157125928Y-115793969D01*
X157136000Y-115792265D01*
X157157013Y-115790500D01*
X157353837Y-115790500D01*
X157421958Y-115810502D01*
X157468451Y-115864158D01*
X157478555Y-115934432D01*
X157457050Y-115988771D01*
X157366490Y-116118104D01*
X157361007Y-116127600D01*
X157273220Y-116315860D01*
X157269474Y-116326152D01*
X157215712Y-116526796D01*
X157213809Y-116537591D01*
X157195704Y-116744525D01*
X157195704Y-116755475D01*
X157213809Y-116962409D01*
X157215712Y-116973204D01*
X157269474Y-117173848D01*
X157273220Y-117184140D01*
X157361010Y-117372406D01*
X157366488Y-117381892D01*
X157396484Y-117424731D01*
X157406961Y-117433106D01*
X157420409Y-117426038D01*
X158360905Y-116485542D01*
X158423217Y-116451516D01*
X158494032Y-116456581D01*
X158539095Y-116485542D01*
X159480313Y-117426760D01*
X159492087Y-117433190D01*
X159504103Y-117423893D01*
X159533512Y-117381892D01*
X159538990Y-117372406D01*
X159626780Y-117184140D01*
X159630526Y-117173848D01*
X159684288Y-116973204D01*
X159686191Y-116962409D01*
X159704296Y-116755475D01*
X159704296Y-116744525D01*
X159686191Y-116537591D01*
X159684288Y-116526796D01*
X159630526Y-116326152D01*
X159626780Y-116315860D01*
X159538993Y-116127600D01*
X159533510Y-116118104D01*
X159442950Y-115988771D01*
X159420262Y-115921497D01*
X159437547Y-115852636D01*
X159489317Y-115804052D01*
X159546163Y-115790500D01*
X159659785Y-115790500D01*
X159727906Y-115810502D01*
X159748880Y-115827405D01*
X160378087Y-116456612D01*
X160412113Y-116518924D01*
X160414207Y-116559749D01*
X160394520Y-116735262D01*
X160395036Y-116741406D01*
X160410999Y-116931497D01*
X160411759Y-116940553D01*
X160413458Y-116946478D01*
X160460027Y-117108882D01*
X160468544Y-117138586D01*
X160471359Y-117144063D01*
X160471360Y-117144066D01*
X160559897Y-117316341D01*
X160562712Y-117321818D01*
X160690677Y-117483270D01*
X160847564Y-117616791D01*
X161027398Y-117717297D01*
X161122238Y-117748113D01*
X161217471Y-117779056D01*
X161217475Y-117779057D01*
X161223329Y-117780959D01*
X161427894Y-117805351D01*
X161434029Y-117804879D01*
X161434031Y-117804879D01*
X161490039Y-117800569D01*
X161633300Y-117789546D01*
X161639230Y-117787890D01*
X161639232Y-117787890D01*
X161825797Y-117735800D01*
X161825796Y-117735800D01*
X161831725Y-117734145D01*
X161837214Y-117731372D01*
X161837220Y-117731370D01*
X162010116Y-117644033D01*
X162015610Y-117641258D01*
X162177951Y-117514424D01*
X162312564Y-117358472D01*
X162333387Y-117321818D01*
X162378229Y-117242881D01*
X162414323Y-117179344D01*
X162479351Y-116983863D01*
X162505171Y-116779474D01*
X162505390Y-116763806D01*
X162505534Y-116753522D01*
X162505534Y-116753518D01*
X162505583Y-116750000D01*
X162485480Y-116544970D01*
X162425935Y-116347749D01*
X162329218Y-116165849D01*
X162251176Y-116070160D01*
X162202906Y-116010975D01*
X162202903Y-116010972D01*
X162199011Y-116006200D01*
X162177943Y-115988771D01*
X162045025Y-115878811D01*
X162045021Y-115878809D01*
X162040275Y-115874882D01*
X161875001Y-115785519D01*
X161864474Y-115779827D01*
X161859055Y-115776897D01*
X161662254Y-115715977D01*
X161656129Y-115715333D01*
X161656128Y-115715333D01*
X161463498Y-115695087D01*
X161463496Y-115695087D01*
X161457369Y-115694443D01*
X161255468Y-115712817D01*
X161185816Y-115699072D01*
X161154955Y-115676431D01*
X160339882Y-114861358D01*
X160336229Y-114857549D01*
X160328634Y-114849290D01*
X160294201Y-114811844D01*
X160257198Y-114788901D01*
X160247448Y-114782200D01*
X160212783Y-114755888D01*
X160198804Y-114750354D01*
X160178801Y-114740293D01*
X160166014Y-114732365D01*
X160157763Y-114729968D01*
X160157761Y-114729967D01*
X160124228Y-114720225D01*
X160112995Y-114716379D01*
X160083066Y-114704529D01*
X160072547Y-114700364D01*
X160064006Y-114699466D01*
X160064005Y-114699466D01*
X160057592Y-114698792D01*
X160035617Y-114694480D01*
X160021175Y-114690285D01*
X160013692Y-114689735D01*
X160012792Y-114689669D01*
X160012781Y-114689669D01*
X160010485Y-114689500D01*
X159975783Y-114689500D01*
X159962613Y-114688810D01*
X159952384Y-114687735D01*
X159922546Y-114684599D01*
X159914081Y-114686031D01*
X159914072Y-114686031D01*
X159904000Y-114687735D01*
X159882987Y-114689500D01*
X159302038Y-114689500D01*
X159233917Y-114669498D01*
X159187424Y-114615842D01*
X159177320Y-114545568D01*
X159206656Y-114481170D01*
X159308536Y-114363140D01*
X159308542Y-114363132D01*
X159312564Y-114358472D01*
X159320867Y-114343857D01*
X159357132Y-114280019D01*
X159414323Y-114179344D01*
X159479351Y-113983863D01*
X159505171Y-113779474D01*
X159505583Y-113750000D01*
X159485480Y-113544970D01*
X159425935Y-113347749D01*
X159329218Y-113165849D01*
X159219587Y-113031428D01*
X159202906Y-113010975D01*
X159202903Y-113010972D01*
X159199011Y-113006200D01*
X159193021Y-113001244D01*
X159171674Y-112983585D01*
X159131936Y-112924751D01*
X159130313Y-112853773D01*
X159167322Y-112793186D01*
X159231212Y-112762225D01*
X159251989Y-112760500D01*
X159629785Y-112760500D01*
X159697906Y-112780502D01*
X159718880Y-112797405D01*
X160378087Y-113456612D01*
X160412113Y-113518924D01*
X160414207Y-113559749D01*
X160394520Y-113735262D01*
X160395036Y-113741406D01*
X160411178Y-113933629D01*
X160411759Y-113940553D01*
X160413458Y-113946478D01*
X160458695Y-114104237D01*
X160468544Y-114138586D01*
X160471359Y-114144063D01*
X160471360Y-114144066D01*
X160537157Y-114272094D01*
X160562712Y-114321818D01*
X160690677Y-114483270D01*
X160695370Y-114487264D01*
X160695371Y-114487265D01*
X160749217Y-114533091D01*
X160847564Y-114616791D01*
X161027398Y-114717297D01*
X161087705Y-114736892D01*
X161217471Y-114779056D01*
X161217475Y-114779057D01*
X161223329Y-114780959D01*
X161427894Y-114805351D01*
X161434029Y-114804879D01*
X161434031Y-114804879D01*
X161490039Y-114800569D01*
X161633300Y-114789546D01*
X161639230Y-114787890D01*
X161639232Y-114787890D01*
X161777009Y-114749422D01*
X161831725Y-114734145D01*
X161837214Y-114731372D01*
X161837220Y-114731370D01*
X161859281Y-114720226D01*
X163967819Y-114720226D01*
X164003907Y-114985395D01*
X164078792Y-115242317D01*
X164080752Y-115246570D01*
X164080753Y-115246571D01*
X164091568Y-115270030D01*
X164190831Y-115485348D01*
X164222830Y-115534155D01*
X164334996Y-115705236D01*
X164335000Y-115705241D01*
X164337562Y-115709149D01*
X164374051Y-115750031D01*
X164473117Y-115861025D01*
X164515760Y-115908803D01*
X164721512Y-116079925D01*
X164725505Y-116082348D01*
X164946306Y-116216334D01*
X164946310Y-116216336D01*
X164950298Y-116218756D01*
X164954606Y-116220563D01*
X164954607Y-116220563D01*
X165192776Y-116320436D01*
X165192781Y-116320438D01*
X165197091Y-116322245D01*
X165201623Y-116323396D01*
X165201626Y-116323397D01*
X165451933Y-116386967D01*
X165451936Y-116386968D01*
X165456470Y-116388119D01*
X165461126Y-116388588D01*
X165461127Y-116388588D01*
X165675602Y-116410184D01*
X165675603Y-116410184D01*
X165678741Y-116410500D01*
X165837944Y-116410500D01*
X165840267Y-116410327D01*
X165840277Y-116410327D01*
X166032212Y-116396064D01*
X166032216Y-116396063D01*
X166036877Y-116395717D01*
X166041441Y-116394684D01*
X166041443Y-116394684D01*
X166248863Y-116347749D01*
X166297891Y-116336655D01*
X166331984Y-116323397D01*
X166542956Y-116241355D01*
X166542958Y-116241354D01*
X166547309Y-116239662D01*
X166588125Y-116216334D01*
X166684811Y-116161073D01*
X166779650Y-116106868D01*
X166989811Y-115941190D01*
X167173175Y-115746269D01*
X167325714Y-115526385D01*
X167329761Y-115518178D01*
X167442011Y-115290559D01*
X167442012Y-115290556D01*
X167444076Y-115286371D01*
X167456324Y-115248110D01*
X167524239Y-115035942D01*
X167525662Y-115031497D01*
X167564989Y-114790018D01*
X167567927Y-114771976D01*
X167567927Y-114771975D01*
X167568678Y-114767364D01*
X167571400Y-114559432D01*
X167572120Y-114504451D01*
X167572120Y-114504448D01*
X167572181Y-114499774D01*
X167536093Y-114234605D01*
X167521576Y-114184797D01*
X167485357Y-114060537D01*
X167461208Y-113977683D01*
X167451366Y-113956333D01*
X167418315Y-113884641D01*
X167349169Y-113734652D01*
X167286971Y-113639784D01*
X167205004Y-113514764D01*
X167205000Y-113514759D01*
X167202438Y-113510851D01*
X167056864Y-113347749D01*
X167027357Y-113314689D01*
X167027355Y-113314687D01*
X167024240Y-113311197D01*
X166818488Y-113140075D01*
X166732289Y-113087768D01*
X166593694Y-113003666D01*
X166593690Y-113003664D01*
X166589702Y-113001244D01*
X166584608Y-112999108D01*
X166347224Y-112899564D01*
X166347219Y-112899562D01*
X166342909Y-112897755D01*
X166338377Y-112896604D01*
X166338374Y-112896603D01*
X166088067Y-112833033D01*
X166088064Y-112833032D01*
X166083530Y-112831881D01*
X166078874Y-112831412D01*
X166078873Y-112831412D01*
X165864398Y-112809816D01*
X165864397Y-112809816D01*
X165861259Y-112809500D01*
X165702056Y-112809500D01*
X165699733Y-112809673D01*
X165699723Y-112809673D01*
X165507788Y-112823936D01*
X165507784Y-112823937D01*
X165503123Y-112824283D01*
X165498559Y-112825316D01*
X165498557Y-112825316D01*
X165459482Y-112834158D01*
X165242109Y-112883345D01*
X165237757Y-112885037D01*
X165237755Y-112885038D01*
X164997044Y-112978645D01*
X164997042Y-112978646D01*
X164992691Y-112980338D01*
X164988637Y-112982655D01*
X164988635Y-112982656D01*
X164939087Y-113010975D01*
X164760350Y-113113132D01*
X164550189Y-113278810D01*
X164366825Y-113473731D01*
X164214286Y-113693615D01*
X164212220Y-113697804D01*
X164212219Y-113697806D01*
X164107040Y-113911089D01*
X164095924Y-113933629D01*
X164094502Y-113938072D01*
X164094501Y-113938074D01*
X164077971Y-113989715D01*
X164014338Y-114188503D01*
X163971322Y-114452636D01*
X163970035Y-114550919D01*
X163967897Y-114714290D01*
X163967819Y-114720226D01*
X161859281Y-114720226D01*
X161982605Y-114657930D01*
X162015610Y-114641258D01*
X162177951Y-114514424D01*
X162186378Y-114504662D01*
X162308540Y-114363134D01*
X162308540Y-114363133D01*
X162312564Y-114358472D01*
X162320867Y-114343857D01*
X162357132Y-114280019D01*
X162414323Y-114179344D01*
X162479351Y-113983863D01*
X162505171Y-113779474D01*
X162505583Y-113750000D01*
X162485480Y-113544970D01*
X162425935Y-113347749D01*
X162329218Y-113165849D01*
X162219587Y-113031428D01*
X162202906Y-113010975D01*
X162202903Y-113010972D01*
X162199011Y-113006200D01*
X162194262Y-113002271D01*
X162045025Y-112878811D01*
X162045021Y-112878809D01*
X162040275Y-112874882D01*
X161859055Y-112776897D01*
X161662254Y-112715977D01*
X161656129Y-112715333D01*
X161656128Y-112715333D01*
X161463498Y-112695087D01*
X161463496Y-112695087D01*
X161457369Y-112694443D01*
X161255468Y-112712817D01*
X161185816Y-112699072D01*
X161154955Y-112676431D01*
X160309882Y-111831358D01*
X160306229Y-111827549D01*
X160270015Y-111788167D01*
X160264201Y-111781844D01*
X160227198Y-111758901D01*
X160217448Y-111752200D01*
X160182783Y-111725888D01*
X160168804Y-111720354D01*
X160148801Y-111710293D01*
X160136014Y-111702365D01*
X160127763Y-111699968D01*
X160127761Y-111699967D01*
X160094228Y-111690225D01*
X160082995Y-111686379D01*
X160042547Y-111670364D01*
X160034006Y-111669466D01*
X160034005Y-111669466D01*
X160027592Y-111668792D01*
X160005617Y-111664480D01*
X159991175Y-111660285D01*
X159983692Y-111659736D01*
X159982792Y-111659669D01*
X159982781Y-111659669D01*
X159980485Y-111659500D01*
X159945783Y-111659500D01*
X159932613Y-111658810D01*
X159922384Y-111657735D01*
X159892546Y-111654599D01*
X159884081Y-111656031D01*
X159884072Y-111656031D01*
X159874000Y-111657735D01*
X159852987Y-111659500D01*
X159327933Y-111659500D01*
X159259812Y-111639498D01*
X159213319Y-111585842D01*
X159203215Y-111515568D01*
X159232551Y-111451170D01*
X159308536Y-111363140D01*
X159308542Y-111363132D01*
X159312564Y-111358472D01*
X159333387Y-111321818D01*
X159391257Y-111219947D01*
X159414323Y-111179344D01*
X159479351Y-110983863D01*
X159505171Y-110779474D01*
X159505583Y-110750000D01*
X159504138Y-110735262D01*
X160394520Y-110735262D01*
X160395036Y-110741406D01*
X160406707Y-110880386D01*
X160411759Y-110940553D01*
X160416983Y-110958770D01*
X160460430Y-111110288D01*
X160468544Y-111138586D01*
X160471359Y-111144063D01*
X160471360Y-111144066D01*
X160543743Y-111284909D01*
X160562712Y-111321818D01*
X160690677Y-111483270D01*
X160695370Y-111487264D01*
X160695371Y-111487265D01*
X160735063Y-111521045D01*
X160847564Y-111616791D01*
X160852942Y-111619797D01*
X160852944Y-111619798D01*
X160922748Y-111658810D01*
X161027398Y-111717297D01*
X161122238Y-111748113D01*
X161217471Y-111779056D01*
X161217475Y-111779057D01*
X161223329Y-111780959D01*
X161427894Y-111805351D01*
X161434029Y-111804879D01*
X161434031Y-111804879D01*
X161490039Y-111800569D01*
X161633300Y-111789546D01*
X161639230Y-111787890D01*
X161639232Y-111787890D01*
X161763104Y-111753304D01*
X161831725Y-111734145D01*
X161837214Y-111731372D01*
X161837220Y-111731370D01*
X161986364Y-111656031D01*
X162015610Y-111641258D01*
X162177951Y-111514424D01*
X162190402Y-111500000D01*
X162308540Y-111363134D01*
X162308540Y-111363133D01*
X162312564Y-111358472D01*
X162333387Y-111321818D01*
X162391257Y-111219947D01*
X162414323Y-111179344D01*
X162479351Y-110983863D01*
X162505171Y-110779474D01*
X162505583Y-110750000D01*
X162485480Y-110544970D01*
X162425935Y-110347749D01*
X162329218Y-110165849D01*
X162232507Y-110047270D01*
X162202906Y-110010975D01*
X162202903Y-110010972D01*
X162199011Y-110006200D01*
X162178209Y-109988991D01*
X162045025Y-109878811D01*
X162045021Y-109878809D01*
X162040275Y-109874882D01*
X161859055Y-109776897D01*
X161662254Y-109715977D01*
X161656129Y-109715333D01*
X161656128Y-109715333D01*
X161463498Y-109695087D01*
X161463496Y-109695087D01*
X161457369Y-109694443D01*
X161370529Y-109702346D01*
X161258342Y-109712555D01*
X161258339Y-109712556D01*
X161252203Y-109713114D01*
X161054572Y-109771280D01*
X160872002Y-109866726D01*
X160867201Y-109870586D01*
X160867198Y-109870588D01*
X160814952Y-109912595D01*
X160711447Y-109995815D01*
X160579024Y-110153630D01*
X160576056Y-110159028D01*
X160576053Y-110159033D01*
X160497495Y-110301931D01*
X160479776Y-110334162D01*
X160417484Y-110530532D01*
X160416798Y-110536649D01*
X160416797Y-110536653D01*
X160403879Y-110651825D01*
X160394520Y-110735262D01*
X159504138Y-110735262D01*
X159485480Y-110544970D01*
X159425935Y-110347749D01*
X159329218Y-110165849D01*
X159232507Y-110047270D01*
X159202906Y-110010975D01*
X159202903Y-110010972D01*
X159199011Y-110006200D01*
X159178209Y-109988991D01*
X159045025Y-109878811D01*
X159045021Y-109878809D01*
X159040275Y-109874882D01*
X158859055Y-109776897D01*
X158662254Y-109715977D01*
X158656129Y-109715333D01*
X158656128Y-109715333D01*
X158463498Y-109695087D01*
X158463496Y-109695087D01*
X158457369Y-109694443D01*
X158370529Y-109702346D01*
X158258342Y-109712555D01*
X158258339Y-109712556D01*
X158252203Y-109713114D01*
X158054572Y-109771280D01*
X157872002Y-109866726D01*
X157867201Y-109870586D01*
X157867198Y-109870588D01*
X157814952Y-109912595D01*
X157711447Y-109995815D01*
X157579024Y-110153630D01*
X157576054Y-110159032D01*
X157576048Y-110159041D01*
X157522084Y-110257201D01*
X157471739Y-110307260D01*
X157411670Y-110322500D01*
X156030956Y-110322500D01*
X155962835Y-110302498D01*
X155941861Y-110285595D01*
X153827861Y-108171595D01*
X153793835Y-108109283D01*
X153798900Y-108038468D01*
X153841447Y-107981632D01*
X153907967Y-107956821D01*
X153916956Y-107956500D01*
X157321384Y-107956500D01*
X157389505Y-107976502D01*
X157435998Y-108030158D01*
X157442503Y-108047770D01*
X157460639Y-108111017D01*
X157468544Y-108138586D01*
X157471359Y-108144063D01*
X157471360Y-108144066D01*
X157492247Y-108184707D01*
X157562712Y-108321818D01*
X157690677Y-108483270D01*
X157847564Y-108616791D01*
X158027398Y-108717297D01*
X158122238Y-108748113D01*
X158217471Y-108779056D01*
X158217475Y-108779057D01*
X158223329Y-108780959D01*
X158427894Y-108805351D01*
X158434029Y-108804879D01*
X158434031Y-108804879D01*
X158490039Y-108800569D01*
X158633300Y-108789546D01*
X158639230Y-108787890D01*
X158639232Y-108787890D01*
X158825797Y-108735800D01*
X158825796Y-108735800D01*
X158831725Y-108734145D01*
X158837214Y-108731372D01*
X158837220Y-108731370D01*
X159010116Y-108644033D01*
X159015610Y-108641258D01*
X159177951Y-108514424D01*
X159312564Y-108358472D01*
X159333387Y-108321818D01*
X159411276Y-108184707D01*
X159414323Y-108179344D01*
X159479351Y-107983863D01*
X159505171Y-107779474D01*
X159505583Y-107750000D01*
X159504138Y-107735262D01*
X160394520Y-107735262D01*
X160411759Y-107940553D01*
X160413458Y-107946478D01*
X160460639Y-108111017D01*
X160468544Y-108138586D01*
X160471359Y-108144063D01*
X160471360Y-108144066D01*
X160492247Y-108184707D01*
X160562712Y-108321818D01*
X160690677Y-108483270D01*
X160847564Y-108616791D01*
X161027398Y-108717297D01*
X161122238Y-108748113D01*
X161217471Y-108779056D01*
X161217475Y-108779057D01*
X161223329Y-108780959D01*
X161427894Y-108805351D01*
X161434029Y-108804879D01*
X161434031Y-108804879D01*
X161490039Y-108800569D01*
X161633300Y-108789546D01*
X161639230Y-108787890D01*
X161639232Y-108787890D01*
X161825797Y-108735800D01*
X161825796Y-108735800D01*
X161831725Y-108734145D01*
X161837214Y-108731372D01*
X161837220Y-108731370D01*
X162010116Y-108644033D01*
X162015610Y-108641258D01*
X162177951Y-108514424D01*
X162312564Y-108358472D01*
X162333387Y-108321818D01*
X162411276Y-108184707D01*
X162414323Y-108179344D01*
X162479351Y-107983863D01*
X162505171Y-107779474D01*
X162505583Y-107750000D01*
X162485480Y-107544970D01*
X162425935Y-107347749D01*
X162329218Y-107165849D01*
X162255859Y-107075902D01*
X162202906Y-107010975D01*
X162202903Y-107010972D01*
X162199011Y-107006200D01*
X162107338Y-106930361D01*
X162045025Y-106878811D01*
X162045021Y-106878809D01*
X162040275Y-106874882D01*
X161859055Y-106776897D01*
X161662254Y-106715977D01*
X161656129Y-106715333D01*
X161656128Y-106715333D01*
X161463498Y-106695087D01*
X161463496Y-106695087D01*
X161457369Y-106694443D01*
X161370529Y-106702346D01*
X161258342Y-106712555D01*
X161258339Y-106712556D01*
X161252203Y-106713114D01*
X161054572Y-106771280D01*
X160872002Y-106866726D01*
X160867201Y-106870586D01*
X160867198Y-106870588D01*
X160716254Y-106991950D01*
X160711447Y-106995815D01*
X160579024Y-107153630D01*
X160576056Y-107159028D01*
X160576053Y-107159033D01*
X160519228Y-107262399D01*
X160479776Y-107334162D01*
X160417484Y-107530532D01*
X160416798Y-107536649D01*
X160416797Y-107536653D01*
X160401719Y-107671079D01*
X160394520Y-107735262D01*
X159504138Y-107735262D01*
X159485480Y-107544970D01*
X159425935Y-107347749D01*
X159329218Y-107165849D01*
X159255859Y-107075902D01*
X159202906Y-107010975D01*
X159202903Y-107010972D01*
X159199011Y-107006200D01*
X159107338Y-106930361D01*
X159045025Y-106878811D01*
X159045021Y-106878809D01*
X159040275Y-106874882D01*
X158859055Y-106776897D01*
X158662254Y-106715977D01*
X158656132Y-106715334D01*
X158656129Y-106715333D01*
X158617939Y-106711319D01*
X158579016Y-106707229D01*
X158513360Y-106680216D01*
X158503092Y-106671014D01*
X158428519Y-106596441D01*
X158427590Y-106595503D01*
X158427325Y-106595232D01*
X158365141Y-106531732D01*
X158359221Y-106527917D01*
X158359215Y-106527912D01*
X158329109Y-106508510D01*
X158318755Y-106501070D01*
X158290774Y-106478733D01*
X158285266Y-106474336D01*
X158255441Y-106459918D01*
X158242025Y-106452389D01*
X158220109Y-106438265D01*
X158214183Y-106434446D01*
X158173909Y-106419787D01*
X158162169Y-106414828D01*
X158129916Y-106399237D01*
X158129917Y-106399237D01*
X158123578Y-106396173D01*
X158116723Y-106394590D01*
X158116719Y-106394589D01*
X158097757Y-106390212D01*
X158091302Y-106388721D01*
X158076554Y-106384352D01*
X158052045Y-106375432D01*
X158052041Y-106375431D01*
X158045422Y-106373022D01*
X158002882Y-106367648D01*
X157990363Y-106365418D01*
X157948589Y-106355774D01*
X157941548Y-106355749D01*
X157941545Y-106355749D01*
X157908418Y-106355633D01*
X157907545Y-106355604D01*
X157906717Y-106355500D01*
X157870262Y-106355500D01*
X157869822Y-106355499D01*
X157772493Y-106355159D01*
X157772490Y-106355159D01*
X157769000Y-106355147D01*
X157767812Y-106355413D01*
X157766200Y-106355500D01*
X155348888Y-106355500D01*
X155280767Y-106335498D01*
X155234274Y-106281842D01*
X155224170Y-106211568D01*
X155253664Y-106146988D01*
X155264573Y-106135868D01*
X155297888Y-106105871D01*
X155323585Y-106070502D01*
X155405270Y-105958072D01*
X155405271Y-105958071D01*
X155409151Y-105952730D01*
X155486144Y-105779803D01*
X155515003Y-105644033D01*
X155524128Y-105601103D01*
X155524128Y-105601099D01*
X155525500Y-105594646D01*
X155525500Y-105405354D01*
X155522175Y-105389707D01*
X155495024Y-105261976D01*
X155486144Y-105220197D01*
X155409151Y-105047270D01*
X155327155Y-104934411D01*
X155301767Y-104899468D01*
X155297888Y-104894129D01*
X155292983Y-104889712D01*
X155162124Y-104771886D01*
X155162123Y-104771885D01*
X155157216Y-104767467D01*
X154993284Y-104672821D01*
X154830205Y-104619833D01*
X154771599Y-104579759D01*
X154743962Y-104514363D01*
X154756069Y-104444406D01*
X154804075Y-104392100D01*
X154830205Y-104380167D01*
X154946716Y-104342310D01*
X154993284Y-104327179D01*
X155157216Y-104232533D01*
X155168151Y-104222687D01*
X155292985Y-104110286D01*
X155292986Y-104110284D01*
X155297888Y-104105871D01*
X155321705Y-104073090D01*
X155405270Y-103958072D01*
X155405271Y-103958071D01*
X155409151Y-103952730D01*
X155486144Y-103779803D01*
X155513048Y-103653230D01*
X155524128Y-103601103D01*
X155524128Y-103601099D01*
X155525500Y-103594646D01*
X155525500Y-103405354D01*
X155523465Y-103395777D01*
X155505298Y-103310311D01*
X155486144Y-103220197D01*
X155409151Y-103047270D01*
X155396108Y-103029317D01*
X155301767Y-102899468D01*
X155297888Y-102894129D01*
X155286768Y-102884116D01*
X155165921Y-102775305D01*
X155128682Y-102714859D01*
X155130034Y-102643875D01*
X155169548Y-102584891D01*
X155210356Y-102562145D01*
X155288368Y-102536118D01*
X155301547Y-102529944D01*
X155437804Y-102445626D01*
X155449205Y-102436590D01*
X155562418Y-102323179D01*
X155571430Y-102311768D01*
X155655516Y-102175354D01*
X155661663Y-102162173D01*
X155712251Y-102009657D01*
X155715118Y-101996281D01*
X155724672Y-101903034D01*
X155725000Y-101896618D01*
X155725000Y-101753767D01*
X155745002Y-101685646D01*
X155798658Y-101639153D01*
X155868932Y-101629049D01*
X155933512Y-101658543D01*
X155940095Y-101664672D01*
X157594481Y-103319058D01*
X157604336Y-103330147D01*
X157617620Y-103346997D01*
X157624050Y-103355154D01*
X157631800Y-103360510D01*
X157631804Y-103360514D01*
X157669762Y-103386748D01*
X157672984Y-103389050D01*
X157695058Y-103405354D01*
X157717700Y-103422078D01*
X157724169Y-103424350D01*
X157729802Y-103428243D01*
X157738785Y-103431084D01*
X157738787Y-103431085D01*
X157782752Y-103444989D01*
X157786508Y-103446242D01*
X157830100Y-103461551D01*
X157830106Y-103461552D01*
X157838990Y-103464672D01*
X157845840Y-103464941D01*
X157852369Y-103467006D01*
X157858645Y-103467500D01*
X157908487Y-103467500D01*
X157913434Y-103467597D01*
X157967441Y-103469719D01*
X157974263Y-103467910D01*
X157981716Y-103467500D01*
X158212347Y-103467500D01*
X158280468Y-103487502D01*
X158326961Y-103541158D01*
X158337065Y-103611432D01*
X158307571Y-103676012D01*
X158247922Y-103714374D01*
X158054572Y-103771280D01*
X157872002Y-103866726D01*
X157867201Y-103870586D01*
X157867198Y-103870588D01*
X157723858Y-103985836D01*
X157711447Y-103995815D01*
X157579024Y-104153630D01*
X157576056Y-104159028D01*
X157576053Y-104159033D01*
X157533831Y-104235836D01*
X157479776Y-104334162D01*
X157417484Y-104530532D01*
X157416798Y-104536649D01*
X157416797Y-104536653D01*
X157411962Y-104579759D01*
X157394520Y-104735262D01*
X157395036Y-104741406D01*
X157410831Y-104929498D01*
X157411759Y-104940553D01*
X157413458Y-104946478D01*
X157442360Y-105047270D01*
X157468544Y-105138586D01*
X157471359Y-105144063D01*
X157471360Y-105144066D01*
X157559897Y-105316341D01*
X157562712Y-105321818D01*
X157690677Y-105483270D01*
X157695370Y-105487264D01*
X157695371Y-105487265D01*
X157829131Y-105601103D01*
X157847564Y-105616791D01*
X158027398Y-105717297D01*
X158090900Y-105737930D01*
X158217471Y-105779056D01*
X158217475Y-105779057D01*
X158223329Y-105780959D01*
X158427894Y-105805351D01*
X158434029Y-105804879D01*
X158434031Y-105804879D01*
X158490039Y-105800569D01*
X158633300Y-105789546D01*
X158639230Y-105787890D01*
X158639232Y-105787890D01*
X158763104Y-105753304D01*
X158831725Y-105734145D01*
X158837214Y-105731372D01*
X158837220Y-105731370D01*
X159010116Y-105644033D01*
X159015610Y-105641258D01*
X159028844Y-105630919D01*
X159153267Y-105533709D01*
X159177951Y-105514424D01*
X159190963Y-105499350D01*
X159308540Y-105363134D01*
X159308540Y-105363133D01*
X159312564Y-105358472D01*
X159315843Y-105352701D01*
X159367381Y-105261976D01*
X159414323Y-105179344D01*
X159479351Y-104983863D01*
X159505171Y-104779474D01*
X159505583Y-104750000D01*
X159504138Y-104735262D01*
X160394520Y-104735262D01*
X160395036Y-104741406D01*
X160410831Y-104929498D01*
X160411759Y-104940553D01*
X160413458Y-104946478D01*
X160442360Y-105047270D01*
X160468544Y-105138586D01*
X160471359Y-105144063D01*
X160471360Y-105144066D01*
X160559897Y-105316341D01*
X160562712Y-105321818D01*
X160690677Y-105483270D01*
X160695370Y-105487264D01*
X160695371Y-105487265D01*
X160829131Y-105601103D01*
X160847564Y-105616791D01*
X161027398Y-105717297D01*
X161090900Y-105737930D01*
X161217471Y-105779056D01*
X161217475Y-105779057D01*
X161223329Y-105780959D01*
X161427894Y-105805351D01*
X161434029Y-105804879D01*
X161434031Y-105804879D01*
X161490039Y-105800569D01*
X161633300Y-105789546D01*
X161639230Y-105787890D01*
X161639232Y-105787890D01*
X161763104Y-105753304D01*
X161831725Y-105734145D01*
X161837214Y-105731372D01*
X161837220Y-105731370D01*
X162010116Y-105644033D01*
X162015610Y-105641258D01*
X162028844Y-105630919D01*
X162153267Y-105533709D01*
X162177951Y-105514424D01*
X162190963Y-105499350D01*
X162308540Y-105363134D01*
X162308540Y-105363133D01*
X162312564Y-105358472D01*
X162315843Y-105352701D01*
X162367381Y-105261976D01*
X162414323Y-105179344D01*
X162479351Y-104983863D01*
X162505171Y-104779474D01*
X162505583Y-104750000D01*
X162485480Y-104544970D01*
X162425935Y-104347749D01*
X162329218Y-104165849D01*
X162245727Y-104063479D01*
X162202906Y-104010975D01*
X162202903Y-104010972D01*
X162199011Y-104006200D01*
X162181786Y-103991950D01*
X162045025Y-103878811D01*
X162045021Y-103878809D01*
X162040275Y-103874882D01*
X161882427Y-103789534D01*
X161864474Y-103779827D01*
X161859055Y-103776897D01*
X161662254Y-103715977D01*
X161656129Y-103715333D01*
X161656128Y-103715333D01*
X161463498Y-103695087D01*
X161463496Y-103695087D01*
X161457369Y-103694443D01*
X161370529Y-103702346D01*
X161258342Y-103712555D01*
X161258339Y-103712556D01*
X161252203Y-103713114D01*
X161054572Y-103771280D01*
X160872002Y-103866726D01*
X160867201Y-103870586D01*
X160867198Y-103870588D01*
X160723858Y-103985836D01*
X160711447Y-103995815D01*
X160579024Y-104153630D01*
X160576056Y-104159028D01*
X160576053Y-104159033D01*
X160533831Y-104235836D01*
X160479776Y-104334162D01*
X160417484Y-104530532D01*
X160416798Y-104536649D01*
X160416797Y-104536653D01*
X160411962Y-104579759D01*
X160394520Y-104735262D01*
X159504138Y-104735262D01*
X159485480Y-104544970D01*
X159425935Y-104347749D01*
X159329218Y-104165849D01*
X159245727Y-104063479D01*
X159202906Y-104010975D01*
X159202903Y-104010972D01*
X159199011Y-104006200D01*
X159181786Y-103991950D01*
X159045025Y-103878811D01*
X159045021Y-103878809D01*
X159040275Y-103874882D01*
X158882427Y-103789534D01*
X158864474Y-103779827D01*
X158859055Y-103776897D01*
X158733173Y-103737930D01*
X158668141Y-103717799D01*
X158668138Y-103717798D01*
X158662254Y-103715977D01*
X158662061Y-103715957D01*
X158601180Y-103683634D01*
X158566427Y-103621725D01*
X158570661Y-103550855D01*
X158612539Y-103493524D01*
X158678763Y-103467935D01*
X158689225Y-103467500D01*
X160127146Y-103467500D01*
X160141955Y-103468373D01*
X160173579Y-103472116D01*
X160182843Y-103470424D01*
X160182844Y-103470424D01*
X160228261Y-103462129D01*
X160232167Y-103461479D01*
X160246282Y-103459357D01*
X160287122Y-103453217D01*
X160293299Y-103450251D01*
X160300039Y-103449020D01*
X160321864Y-103437683D01*
X160349359Y-103423400D01*
X160352900Y-103421631D01*
X160394515Y-103401648D01*
X160394516Y-103401647D01*
X160403005Y-103397571D01*
X160408039Y-103392918D01*
X160414116Y-103389761D01*
X160418904Y-103385673D01*
X160454150Y-103350427D01*
X160457716Y-103346997D01*
X160490490Y-103316702D01*
X160490492Y-103316699D01*
X160497403Y-103310311D01*
X160500946Y-103304210D01*
X160505921Y-103298656D01*
X160757307Y-103047270D01*
X161017996Y-102786580D01*
X161080309Y-102752555D01*
X161146027Y-102755842D01*
X161223329Y-102780959D01*
X161427894Y-102805351D01*
X161434029Y-102804879D01*
X161434031Y-102804879D01*
X161490039Y-102800569D01*
X161633300Y-102789546D01*
X161639230Y-102787890D01*
X161639232Y-102787890D01*
X161802832Y-102742212D01*
X161831725Y-102734145D01*
X161837214Y-102731372D01*
X161837220Y-102731370D01*
X161969952Y-102664322D01*
X162015610Y-102641258D01*
X162024610Y-102634227D01*
X162173101Y-102518213D01*
X162177951Y-102514424D01*
X162217533Y-102468568D01*
X162308540Y-102363134D01*
X162308540Y-102363133D01*
X162312564Y-102358472D01*
X162321158Y-102343345D01*
X162411276Y-102184707D01*
X162414323Y-102179344D01*
X162479351Y-101983863D01*
X162505171Y-101779474D01*
X162505390Y-101763806D01*
X162505534Y-101753522D01*
X162505534Y-101753518D01*
X162505583Y-101750000D01*
X162485480Y-101544970D01*
X162425935Y-101347749D01*
X162329218Y-101165849D01*
X162238442Y-101054547D01*
X162202906Y-101010975D01*
X162202903Y-101010972D01*
X162199011Y-101006200D01*
X162186458Y-100995815D01*
X162045025Y-100878811D01*
X162045021Y-100878809D01*
X162040275Y-100874882D01*
X161859055Y-100776897D01*
X161662254Y-100715977D01*
X161656129Y-100715333D01*
X161656128Y-100715333D01*
X161463498Y-100695087D01*
X161463496Y-100695087D01*
X161457369Y-100694443D01*
X161370529Y-100702346D01*
X161258342Y-100712555D01*
X161258339Y-100712556D01*
X161252203Y-100713114D01*
X161054572Y-100771280D01*
X160872002Y-100866726D01*
X160867201Y-100870586D01*
X160867198Y-100870588D01*
X160760676Y-100956234D01*
X160711447Y-100995815D01*
X160579024Y-101153630D01*
X160576056Y-101159028D01*
X160576053Y-101159033D01*
X160505284Y-101287763D01*
X160479776Y-101334162D01*
X160417484Y-101530532D01*
X160416798Y-101536649D01*
X160416797Y-101536653D01*
X160406086Y-101632150D01*
X160394520Y-101735262D01*
X160395036Y-101741406D01*
X160408070Y-101896618D01*
X160411759Y-101940553D01*
X160428106Y-101997560D01*
X160445478Y-102058145D01*
X160445027Y-102129140D01*
X160413454Y-102181970D01*
X160019829Y-102575595D01*
X159957517Y-102609621D01*
X159930734Y-102612500D01*
X159368502Y-102612500D01*
X159300381Y-102592498D01*
X159253888Y-102538842D01*
X159243784Y-102468568D01*
X159273120Y-102404170D01*
X159308536Y-102363140D01*
X159308542Y-102363132D01*
X159312564Y-102358472D01*
X159321158Y-102343345D01*
X159411276Y-102184707D01*
X159414323Y-102179344D01*
X159479351Y-101983863D01*
X159505171Y-101779474D01*
X159505390Y-101763806D01*
X159505534Y-101753522D01*
X159505534Y-101753518D01*
X159505583Y-101750000D01*
X159485480Y-101544970D01*
X159425935Y-101347749D01*
X159329218Y-101165849D01*
X159238442Y-101054547D01*
X159202906Y-101010975D01*
X159202903Y-101010972D01*
X159199011Y-101006200D01*
X159186458Y-100995815D01*
X159045025Y-100878811D01*
X159045021Y-100878809D01*
X159040275Y-100874882D01*
X158859055Y-100776897D01*
X158662254Y-100715977D01*
X158656129Y-100715333D01*
X158656128Y-100715333D01*
X158463498Y-100695087D01*
X158463496Y-100695087D01*
X158457369Y-100694443D01*
X158370529Y-100702346D01*
X158258342Y-100712555D01*
X158258339Y-100712556D01*
X158252203Y-100713114D01*
X158054572Y-100771280D01*
X157872002Y-100866726D01*
X157867201Y-100870586D01*
X157867198Y-100870588D01*
X157760676Y-100956234D01*
X157711447Y-100995815D01*
X157579024Y-101153630D01*
X157576056Y-101159028D01*
X157576053Y-101159033D01*
X157505284Y-101287763D01*
X157479776Y-101334162D01*
X157417484Y-101530532D01*
X157416798Y-101536649D01*
X157416797Y-101536653D01*
X157406086Y-101632150D01*
X157378615Y-101697616D01*
X157320112Y-101737839D01*
X157249149Y-101740047D01*
X157191776Y-101707200D01*
X155304405Y-99819829D01*
X155270379Y-99757517D01*
X155267500Y-99730734D01*
X155267500Y-98865852D01*
X155287502Y-98797731D01*
X155331933Y-98755918D01*
X155432674Y-98699501D01*
X155460964Y-98683658D01*
X155460965Y-98683657D01*
X155466001Y-98680837D01*
X155528433Y-98628913D01*
X155617073Y-98555191D01*
X155621505Y-98551505D01*
X155750837Y-98396001D01*
X155849664Y-98219531D01*
X155870201Y-98159033D01*
X155912820Y-98033481D01*
X155912820Y-98033479D01*
X155914678Y-98028007D01*
X155915507Y-98022291D01*
X155915508Y-98022286D01*
X155943167Y-97831516D01*
X155943700Y-97827842D01*
X155945215Y-97770000D01*
X155926708Y-97568591D01*
X155926610Y-97568243D01*
X155933685Y-97499370D01*
X155977971Y-97443879D01*
X156045227Y-97421139D01*
X156114101Y-97438371D01*
X156139416Y-97457941D01*
X156190130Y-97508655D01*
X156193783Y-97512464D01*
X156235799Y-97558156D01*
X156272802Y-97581099D01*
X156282552Y-97587800D01*
X156317217Y-97614112D01*
X156331195Y-97619646D01*
X156351199Y-97629707D01*
X156363986Y-97637635D01*
X156372237Y-97640032D01*
X156372239Y-97640033D01*
X156405772Y-97649775D01*
X156417002Y-97653620D01*
X156457453Y-97669636D01*
X156465994Y-97670534D01*
X156465995Y-97670534D01*
X156472408Y-97671208D01*
X156494383Y-97675520D01*
X156508825Y-97679715D01*
X156516308Y-97680264D01*
X156517208Y-97680331D01*
X156517219Y-97680331D01*
X156519515Y-97680500D01*
X156554217Y-97680500D01*
X156567387Y-97681190D01*
X156607454Y-97685401D01*
X156615919Y-97683969D01*
X156615928Y-97683969D01*
X156626000Y-97682265D01*
X156647013Y-97680500D01*
X157745823Y-97680500D01*
X157813944Y-97700502D01*
X157860437Y-97754158D01*
X157870541Y-97824432D01*
X157841047Y-97889012D01*
X157824775Y-97904697D01*
X157770300Y-97948496D01*
X157711447Y-97995815D01*
X157579024Y-98153630D01*
X157576056Y-98159028D01*
X157576053Y-98159033D01*
X157538659Y-98227054D01*
X157479776Y-98334162D01*
X157417484Y-98530532D01*
X157416798Y-98536649D01*
X157416797Y-98536653D01*
X157403506Y-98655152D01*
X157394520Y-98735262D01*
X157396826Y-98762727D01*
X157410831Y-98929498D01*
X157411759Y-98940553D01*
X157413458Y-98946478D01*
X157466302Y-99130766D01*
X157468544Y-99138586D01*
X157471359Y-99144063D01*
X157471360Y-99144066D01*
X157551052Y-99299130D01*
X157562712Y-99321818D01*
X157690677Y-99483270D01*
X157847564Y-99616791D01*
X158027398Y-99717297D01*
X158122238Y-99748113D01*
X158217471Y-99779056D01*
X158217475Y-99779057D01*
X158223329Y-99780959D01*
X158427894Y-99805351D01*
X158434029Y-99804879D01*
X158434031Y-99804879D01*
X158490039Y-99800569D01*
X158633300Y-99789546D01*
X158639230Y-99787890D01*
X158639232Y-99787890D01*
X158825797Y-99735800D01*
X158825796Y-99735800D01*
X158831725Y-99734145D01*
X158837214Y-99731372D01*
X158837220Y-99731370D01*
X159010116Y-99644033D01*
X159015610Y-99641258D01*
X159177951Y-99514424D01*
X159312564Y-99358472D01*
X159333387Y-99321818D01*
X159358398Y-99277789D01*
X159414323Y-99179344D01*
X159479351Y-98983863D01*
X159505171Y-98779474D01*
X159505583Y-98750000D01*
X159485480Y-98544970D01*
X159425935Y-98347749D01*
X159329218Y-98165849D01*
X159221261Y-98033481D01*
X159202906Y-98010975D01*
X159202903Y-98010972D01*
X159199011Y-98006200D01*
X159074969Y-97903583D01*
X159035232Y-97844751D01*
X159033610Y-97773773D01*
X159070620Y-97713185D01*
X159134510Y-97682225D01*
X159155286Y-97680500D01*
X160040007Y-97680500D01*
X160045284Y-97680611D01*
X160107294Y-97683210D01*
X160118848Y-97680500D01*
X160149662Y-97673273D01*
X160161333Y-97671110D01*
X160176229Y-97669069D01*
X160204432Y-97665206D01*
X160218230Y-97659235D01*
X160239499Y-97652201D01*
X160245775Y-97650729D01*
X160254136Y-97648768D01*
X160261661Y-97644631D01*
X160261664Y-97644630D01*
X160292268Y-97627805D01*
X160302913Y-97622589D01*
X160342855Y-97605305D01*
X160354541Y-97595842D01*
X160373126Y-97583354D01*
X160386308Y-97576107D01*
X160394422Y-97569103D01*
X160418958Y-97544567D01*
X160428759Y-97535742D01*
X160453392Y-97515794D01*
X160453393Y-97515793D01*
X160460070Y-97510386D01*
X160465043Y-97503388D01*
X160465048Y-97503383D01*
X160470968Y-97495052D01*
X160484579Y-97478946D01*
X161143646Y-96819879D01*
X161205958Y-96785853D01*
X161247659Y-96783860D01*
X161427894Y-96805351D01*
X161434029Y-96804879D01*
X161434031Y-96804879D01*
X161490939Y-96800500D01*
X161633300Y-96789546D01*
X161639230Y-96787890D01*
X161639232Y-96787890D01*
X161763104Y-96753304D01*
X161831725Y-96734145D01*
X161837214Y-96731372D01*
X161837220Y-96731370D01*
X161969952Y-96664322D01*
X162015610Y-96641258D01*
X162109034Y-96568268D01*
X162155927Y-96531631D01*
X162221921Y-96505454D01*
X162291592Y-96519112D01*
X162342819Y-96568268D01*
X162359500Y-96630921D01*
X162359500Y-97009785D01*
X162339498Y-97077906D01*
X162322595Y-97098880D01*
X161743882Y-97677593D01*
X161681570Y-97711619D01*
X161641617Y-97713808D01*
X161635690Y-97713185D01*
X161620790Y-97711619D01*
X161463497Y-97695087D01*
X161463496Y-97695087D01*
X161457369Y-97694443D01*
X161390790Y-97700502D01*
X161258342Y-97712555D01*
X161258339Y-97712556D01*
X161252203Y-97713114D01*
X161054572Y-97771280D01*
X161049107Y-97774137D01*
X160989401Y-97805351D01*
X160872002Y-97866726D01*
X160867201Y-97870586D01*
X160867198Y-97870588D01*
X160770300Y-97948496D01*
X160711447Y-97995815D01*
X160579024Y-98153630D01*
X160576056Y-98159028D01*
X160576053Y-98159033D01*
X160538659Y-98227054D01*
X160479776Y-98334162D01*
X160417484Y-98530532D01*
X160416798Y-98536649D01*
X160416797Y-98536653D01*
X160403506Y-98655152D01*
X160394520Y-98735262D01*
X160396826Y-98762727D01*
X160410831Y-98929498D01*
X160411759Y-98940553D01*
X160413458Y-98946478D01*
X160466302Y-99130766D01*
X160468544Y-99138586D01*
X160471359Y-99144063D01*
X160471360Y-99144066D01*
X160551052Y-99299130D01*
X160562712Y-99321818D01*
X160690677Y-99483270D01*
X160847564Y-99616791D01*
X161027398Y-99717297D01*
X161122238Y-99748113D01*
X161217471Y-99779056D01*
X161217475Y-99779057D01*
X161223329Y-99780959D01*
X161427894Y-99805351D01*
X161434029Y-99804879D01*
X161434031Y-99804879D01*
X161490039Y-99800569D01*
X161633300Y-99789546D01*
X161639230Y-99787890D01*
X161639232Y-99787890D01*
X161825797Y-99735800D01*
X161825796Y-99735800D01*
X161831725Y-99734145D01*
X161837214Y-99731372D01*
X161837220Y-99731370D01*
X162010116Y-99644033D01*
X162015610Y-99641258D01*
X162177951Y-99514424D01*
X162312564Y-99358472D01*
X162333387Y-99321818D01*
X162358398Y-99277789D01*
X162414323Y-99179344D01*
X162479351Y-98983863D01*
X162505171Y-98779474D01*
X162505583Y-98750000D01*
X162486655Y-98556955D01*
X162499915Y-98487208D01*
X162522959Y-98455565D01*
X163288642Y-97689882D01*
X163292451Y-97686229D01*
X163297931Y-97681190D01*
X163338156Y-97644201D01*
X163361099Y-97607198D01*
X163367800Y-97597448D01*
X163394112Y-97562783D01*
X163399646Y-97548804D01*
X163409707Y-97528801D01*
X163417635Y-97516014D01*
X163421194Y-97503766D01*
X163429775Y-97474228D01*
X163433621Y-97462995D01*
X163441190Y-97443879D01*
X163449636Y-97422547D01*
X163451208Y-97407592D01*
X163455520Y-97385617D01*
X163459715Y-97371175D01*
X163460264Y-97363692D01*
X163460331Y-97362792D01*
X163460331Y-97362781D01*
X163460500Y-97360485D01*
X163460500Y-97325783D01*
X163461190Y-97312613D01*
X163461465Y-97309992D01*
X163465401Y-97272546D01*
X163463969Y-97264081D01*
X163463969Y-97264072D01*
X163462265Y-97254000D01*
X163460500Y-97232987D01*
X163460500Y-95020226D01*
X163967819Y-95020226D01*
X164003907Y-95285395D01*
X164078792Y-95542317D01*
X164190831Y-95785348D01*
X164223072Y-95834524D01*
X164334996Y-96005236D01*
X164335000Y-96005241D01*
X164337562Y-96009149D01*
X164426661Y-96108976D01*
X164471339Y-96159033D01*
X164515760Y-96208803D01*
X164651646Y-96321818D01*
X164695718Y-96358472D01*
X164721512Y-96379925D01*
X164725505Y-96382348D01*
X164946306Y-96516334D01*
X164946310Y-96516336D01*
X164950298Y-96518756D01*
X164954606Y-96520563D01*
X164954607Y-96520563D01*
X165192776Y-96620436D01*
X165192781Y-96620438D01*
X165197091Y-96622245D01*
X165201623Y-96623396D01*
X165201626Y-96623397D01*
X165451933Y-96686967D01*
X165451936Y-96686968D01*
X165456470Y-96688119D01*
X165461126Y-96688588D01*
X165461127Y-96688588D01*
X165675602Y-96710184D01*
X165675603Y-96710184D01*
X165678741Y-96710500D01*
X165837944Y-96710500D01*
X165840267Y-96710327D01*
X165840277Y-96710327D01*
X166032212Y-96696064D01*
X166032216Y-96696063D01*
X166036877Y-96695717D01*
X166041441Y-96694684D01*
X166041443Y-96694684D01*
X166180765Y-96663158D01*
X166297891Y-96636655D01*
X166331984Y-96623397D01*
X166542956Y-96541355D01*
X166542958Y-96541354D01*
X166547309Y-96539662D01*
X166561361Y-96531631D01*
X166696619Y-96454324D01*
X166779650Y-96406868D01*
X166989811Y-96241190D01*
X167173175Y-96046269D01*
X167325714Y-95826385D01*
X167327781Y-95822194D01*
X167442011Y-95590559D01*
X167442012Y-95590556D01*
X167444076Y-95586371D01*
X167455366Y-95551103D01*
X167524239Y-95335942D01*
X167525662Y-95331497D01*
X167568678Y-95067364D01*
X167570969Y-94892352D01*
X167572120Y-94804451D01*
X167572120Y-94804448D01*
X167572181Y-94799774D01*
X167536093Y-94534605D01*
X167534466Y-94529021D01*
X167462519Y-94282182D01*
X167461208Y-94277683D01*
X167349169Y-94034652D01*
X167254965Y-93890967D01*
X167205004Y-93814764D01*
X167205000Y-93814759D01*
X167202438Y-93810851D01*
X167060765Y-93652120D01*
X167027357Y-93614689D01*
X167027355Y-93614687D01*
X167024240Y-93611197D01*
X166818488Y-93440075D01*
X166751570Y-93399468D01*
X166593694Y-93303666D01*
X166593690Y-93303664D01*
X166589702Y-93301244D01*
X166535810Y-93278645D01*
X166347224Y-93199564D01*
X166347219Y-93199562D01*
X166342909Y-93197755D01*
X166338377Y-93196604D01*
X166338374Y-93196603D01*
X166088067Y-93133033D01*
X166088064Y-93133032D01*
X166083530Y-93131881D01*
X166078874Y-93131412D01*
X166078873Y-93131412D01*
X165864398Y-93109816D01*
X165864397Y-93109816D01*
X165861259Y-93109500D01*
X165702056Y-93109500D01*
X165699733Y-93109673D01*
X165699723Y-93109673D01*
X165507788Y-93123936D01*
X165507784Y-93123937D01*
X165503123Y-93124283D01*
X165498559Y-93125316D01*
X165498557Y-93125316D01*
X165405677Y-93146333D01*
X165242109Y-93183345D01*
X165237757Y-93185037D01*
X165237755Y-93185038D01*
X164997044Y-93278645D01*
X164997042Y-93278646D01*
X164992691Y-93280338D01*
X164988637Y-93282655D01*
X164988635Y-93282656D01*
X164929699Y-93316341D01*
X164760350Y-93413132D01*
X164550189Y-93578810D01*
X164366825Y-93773731D01*
X164214286Y-93993615D01*
X164212220Y-93997804D01*
X164212219Y-93997806D01*
X164126708Y-94171206D01*
X164095924Y-94233629D01*
X164014338Y-94488503D01*
X164007865Y-94528249D01*
X163977647Y-94713801D01*
X163971322Y-94752636D01*
X163970996Y-94777526D01*
X163967951Y-95010172D01*
X163967819Y-95020226D01*
X163460500Y-95020226D01*
X163460500Y-92084993D01*
X163460611Y-92079717D01*
X163462159Y-92042784D01*
X163463210Y-92017706D01*
X163461248Y-92009341D01*
X163453273Y-91975338D01*
X163451110Y-91963667D01*
X163446372Y-91929081D01*
X163445206Y-91920568D01*
X163439235Y-91906770D01*
X163432201Y-91885501D01*
X163430730Y-91879228D01*
X163430729Y-91879226D01*
X163428768Y-91870864D01*
X163407805Y-91832734D01*
X163402583Y-91822073D01*
X163388716Y-91790027D01*
X163388715Y-91790026D01*
X163385305Y-91782145D01*
X163375842Y-91770459D01*
X163363351Y-91751871D01*
X163356106Y-91738692D01*
X163349102Y-91730578D01*
X163324567Y-91706043D01*
X163315742Y-91696242D01*
X163295794Y-91671608D01*
X163295793Y-91671607D01*
X163290386Y-91664930D01*
X163283384Y-91659954D01*
X163283382Y-91659952D01*
X163275051Y-91654032D01*
X163258945Y-91640421D01*
X161957842Y-90339318D01*
X161954189Y-90335509D01*
X161941989Y-90322242D01*
X161912161Y-90289804D01*
X161875158Y-90266861D01*
X161865408Y-90260160D01*
X161830743Y-90233848D01*
X161816764Y-90228314D01*
X161796761Y-90218253D01*
X161783974Y-90210325D01*
X161775723Y-90207928D01*
X161775721Y-90207927D01*
X161742188Y-90198185D01*
X161730955Y-90194339D01*
X161710313Y-90186166D01*
X161690507Y-90178324D01*
X161681966Y-90177426D01*
X161681965Y-90177426D01*
X161675552Y-90176752D01*
X161653577Y-90172440D01*
X161639135Y-90168245D01*
X161631652Y-90167695D01*
X161630752Y-90167629D01*
X161630741Y-90167629D01*
X161628445Y-90167460D01*
X161593743Y-90167460D01*
X161580573Y-90166770D01*
X161570344Y-90165695D01*
X161540506Y-90162559D01*
X161532041Y-90163991D01*
X161532032Y-90163991D01*
X161521960Y-90165695D01*
X161500947Y-90167460D01*
X128506395Y-90167460D01*
X128501119Y-90167349D01*
X128496712Y-90167164D01*
X128439108Y-90164750D01*
X128430743Y-90166712D01*
X128396740Y-90174687D01*
X128385069Y-90176850D01*
X128374309Y-90178324D01*
X128341970Y-90182754D01*
X128334086Y-90186166D01*
X128334085Y-90186166D01*
X128328172Y-90188725D01*
X128306903Y-90195759D01*
X128292266Y-90199192D01*
X128284741Y-90203329D01*
X128284738Y-90203330D01*
X128254134Y-90220155D01*
X128243489Y-90225371D01*
X128203547Y-90242655D01*
X128191861Y-90252118D01*
X128173277Y-90264605D01*
X128160094Y-90271853D01*
X128151980Y-90278857D01*
X128127444Y-90303393D01*
X128117643Y-90312218D01*
X128105265Y-90322242D01*
X128086332Y-90337574D01*
X128081358Y-90344573D01*
X128081357Y-90344574D01*
X128075436Y-90352906D01*
X128061825Y-90369011D01*
X127492824Y-90938012D01*
X127489016Y-90941664D01*
X127456491Y-90971574D01*
X127443324Y-90983681D01*
X127420381Y-91020684D01*
X127413680Y-91030434D01*
X127387368Y-91065099D01*
X127381834Y-91079077D01*
X127371773Y-91099081D01*
X127363845Y-91111868D01*
X127361448Y-91120119D01*
X127361447Y-91120121D01*
X127351705Y-91153654D01*
X127347860Y-91164884D01*
X127331844Y-91205335D01*
X127330946Y-91213876D01*
X127330946Y-91213877D01*
X127330272Y-91220290D01*
X127325960Y-91242265D01*
X127321765Y-91256707D01*
X127320980Y-91267397D01*
X127320980Y-91302099D01*
X127320290Y-91315269D01*
X127316079Y-91355336D01*
X127317511Y-91363801D01*
X127317511Y-91363810D01*
X127319215Y-91373882D01*
X127320980Y-91394895D01*
X127320980Y-99203527D01*
X127320869Y-99208803D01*
X127318270Y-99270814D01*
X127320232Y-99279177D01*
X127320421Y-99281181D01*
X127320980Y-99293037D01*
X127320980Y-107106487D01*
X127320869Y-107111763D01*
X127318270Y-107173774D01*
X127320232Y-107182139D01*
X127328207Y-107216142D01*
X127330370Y-107227813D01*
X127336274Y-107270912D01*
X127339686Y-107278796D01*
X127339686Y-107278797D01*
X127342245Y-107284710D01*
X127349279Y-107305979D01*
X127352712Y-107320616D01*
X127356849Y-107328141D01*
X127356850Y-107328144D01*
X127373675Y-107358748D01*
X127378891Y-107369393D01*
X127396175Y-107409335D01*
X127405638Y-107421021D01*
X127418125Y-107439605D01*
X127425373Y-107452788D01*
X127432377Y-107460902D01*
X127456913Y-107485438D01*
X127465738Y-107495239D01*
X127485686Y-107519872D01*
X127491094Y-107526550D01*
X127498092Y-107531523D01*
X127498097Y-107531528D01*
X127506428Y-107537448D01*
X127522534Y-107551059D01*
X128037595Y-108066120D01*
X128071621Y-108128432D01*
X128074500Y-108155215D01*
X128074500Y-108892772D01*
X128085364Y-108982547D01*
X128140887Y-109122783D01*
X128232078Y-109242922D01*
X128352217Y-109334113D01*
X128415832Y-109359300D01*
X128484923Y-109386655D01*
X128484925Y-109386656D01*
X128492453Y-109389636D01*
X128582228Y-109400500D01*
X128649301Y-109400500D01*
X128717422Y-109420502D01*
X128763915Y-109474158D01*
X128774019Y-109544432D01*
X128744525Y-109609012D01*
X128688237Y-109646333D01*
X128606716Y-109672821D01*
X128600994Y-109676124D01*
X128600993Y-109676125D01*
X128536926Y-109713114D01*
X128442784Y-109767467D01*
X128437877Y-109771885D01*
X128437876Y-109771886D01*
X128307018Y-109889712D01*
X128302112Y-109894129D01*
X128298233Y-109899468D01*
X128223543Y-110002271D01*
X128190849Y-110047270D01*
X128113856Y-110220197D01*
X128096603Y-110301368D01*
X128075963Y-110398473D01*
X128074500Y-110405354D01*
X128074500Y-110594646D01*
X128075872Y-110601099D01*
X128075872Y-110601103D01*
X128093022Y-110681788D01*
X128113856Y-110779803D01*
X128190849Y-110952730D01*
X128194729Y-110958071D01*
X128194730Y-110958072D01*
X128255079Y-111041135D01*
X128302112Y-111105871D01*
X128307014Y-111110284D01*
X128307015Y-111110286D01*
X128420979Y-111212900D01*
X128442784Y-111232533D01*
X128448505Y-111235836D01*
X128505251Y-111268598D01*
X128606716Y-111327179D01*
X128786744Y-111385674D01*
X128793305Y-111386364D01*
X128793307Y-111386364D01*
X128846963Y-111392003D01*
X128927808Y-111400500D01*
X129572192Y-111400500D01*
X129653037Y-111392003D01*
X129706693Y-111386364D01*
X129706695Y-111386364D01*
X129713256Y-111385674D01*
X129893284Y-111327179D01*
X129994750Y-111268598D01*
X130051495Y-111235836D01*
X130057216Y-111232533D01*
X130079021Y-111212900D01*
X130192983Y-111110288D01*
X130192985Y-111110285D01*
X130197888Y-111105871D01*
X130201770Y-111100528D01*
X130206185Y-111095624D01*
X130207584Y-111096883D01*
X130256608Y-111059083D01*
X130302317Y-111050500D01*
X130635007Y-111050500D01*
X130640284Y-111050611D01*
X130702294Y-111053210D01*
X130713848Y-111050500D01*
X130744662Y-111043273D01*
X130756333Y-111041110D01*
X130771229Y-111039069D01*
X130799432Y-111035206D01*
X130813230Y-111029235D01*
X130834499Y-111022201D01*
X130840775Y-111020729D01*
X130849136Y-111018768D01*
X130856661Y-111014631D01*
X130856664Y-111014630D01*
X130887268Y-110997805D01*
X130897913Y-110992589D01*
X130937855Y-110975305D01*
X130949541Y-110965842D01*
X130968126Y-110953354D01*
X130975518Y-110949290D01*
X130981308Y-110946107D01*
X130989422Y-110939103D01*
X131013958Y-110914567D01*
X131023759Y-110905742D01*
X131048392Y-110885794D01*
X131048393Y-110885793D01*
X131055070Y-110880386D01*
X131060596Y-110872611D01*
X131065966Y-110865054D01*
X131079576Y-110848949D01*
X131298407Y-110630118D01*
X131360717Y-110596094D01*
X131431533Y-110601158D01*
X131488369Y-110643705D01*
X131513180Y-110710225D01*
X131512423Y-110735659D01*
X131495385Y-110865079D01*
X131495385Y-110865080D01*
X131494394Y-110872611D01*
X131512999Y-111041135D01*
X131536689Y-111105871D01*
X131563577Y-111179344D01*
X131571266Y-111200356D01*
X131575502Y-111206659D01*
X131575504Y-111206664D01*
X131628082Y-111284909D01*
X131649500Y-111355184D01*
X131649500Y-113639784D01*
X131629498Y-113707905D01*
X131612597Y-113728878D01*
X131581297Y-113760179D01*
X131518986Y-113794204D01*
X131448170Y-113789140D01*
X131391334Y-113746595D01*
X131375049Y-113717467D01*
X131362275Y-113685204D01*
X131359113Y-113677217D01*
X131267922Y-113557078D01*
X131147783Y-113465887D01*
X131084168Y-113440700D01*
X131015077Y-113413345D01*
X131015075Y-113413344D01*
X131007547Y-113410364D01*
X130917772Y-113399500D01*
X130307228Y-113399500D01*
X130217453Y-113410364D01*
X130209925Y-113413344D01*
X130209923Y-113413345D01*
X130140832Y-113440700D01*
X130077217Y-113465887D01*
X129957078Y-113557078D01*
X129865887Y-113677217D01*
X129826797Y-113775949D01*
X129817152Y-113800309D01*
X129773478Y-113856282D01*
X129706475Y-113879759D01*
X129637416Y-113863283D01*
X129588227Y-113812088D01*
X129582848Y-113800309D01*
X129573204Y-113775949D01*
X129534113Y-113677217D01*
X129442922Y-113557078D01*
X129322783Y-113465887D01*
X129259168Y-113440700D01*
X129190077Y-113413345D01*
X129190075Y-113413344D01*
X129182547Y-113410364D01*
X129092772Y-113399500D01*
X128482228Y-113399500D01*
X128392453Y-113410364D01*
X128384925Y-113413344D01*
X128384923Y-113413345D01*
X128315832Y-113440700D01*
X128252217Y-113465887D01*
X128132078Y-113557078D01*
X128040887Y-113677217D01*
X128012071Y-113750000D01*
X128004198Y-113769884D01*
X127960524Y-113825857D01*
X127887046Y-113849500D01*
X127820214Y-113849500D01*
X127752093Y-113829498D01*
X127731119Y-113812595D01*
X127577405Y-113658881D01*
X127543379Y-113596569D01*
X127540500Y-113569786D01*
X127540500Y-111354962D01*
X127564177Y-111281436D01*
X127589708Y-111245906D01*
X127608361Y-111219947D01*
X127617384Y-111197502D01*
X127668766Y-111069687D01*
X127668767Y-111069685D01*
X127671601Y-111062634D01*
X127688967Y-110940614D01*
X127694909Y-110898862D01*
X127694909Y-110898859D01*
X127695490Y-110894778D01*
X127695645Y-110880000D01*
X127693840Y-110865080D01*
X127687586Y-110813401D01*
X127675276Y-110711680D01*
X127615345Y-110553077D01*
X127519312Y-110413349D01*
X127513119Y-110407831D01*
X127398392Y-110305612D01*
X127398388Y-110305610D01*
X127392721Y-110300560D01*
X127242881Y-110221224D01*
X127078441Y-110179919D01*
X127070843Y-110179879D01*
X127070841Y-110179879D01*
X126993668Y-110179475D01*
X126908895Y-110179031D01*
X126901508Y-110180805D01*
X126901504Y-110180805D01*
X126762584Y-110214158D01*
X126744032Y-110218612D01*
X126737288Y-110222093D01*
X126737285Y-110222094D01*
X126637173Y-110273766D01*
X126593369Y-110296375D01*
X126465604Y-110407831D01*
X126424475Y-110466351D01*
X126375067Y-110536653D01*
X126368113Y-110546547D01*
X126306524Y-110704513D01*
X126305532Y-110712046D01*
X126305532Y-110712047D01*
X126285386Y-110865079D01*
X126284394Y-110872611D01*
X126302999Y-111041135D01*
X126326689Y-111105871D01*
X126353577Y-111179344D01*
X126361266Y-111200356D01*
X126365502Y-111206659D01*
X126365504Y-111206664D01*
X126418082Y-111284909D01*
X126439500Y-111355184D01*
X126439500Y-113835007D01*
X126439389Y-113840283D01*
X126436790Y-113902294D01*
X126438752Y-113910659D01*
X126446727Y-113944662D01*
X126448890Y-113956333D01*
X126454794Y-113999432D01*
X126458206Y-114007316D01*
X126458206Y-114007317D01*
X126460765Y-114013230D01*
X126467799Y-114034499D01*
X126471232Y-114049136D01*
X126475369Y-114056661D01*
X126475370Y-114056664D01*
X126492195Y-114087268D01*
X126497411Y-114097913D01*
X126514695Y-114137855D01*
X126524158Y-114149541D01*
X126536645Y-114168125D01*
X126543893Y-114181308D01*
X126550897Y-114189422D01*
X126575433Y-114213958D01*
X126584258Y-114223759D01*
X126604206Y-114248392D01*
X126609614Y-114255070D01*
X126616612Y-114260043D01*
X126616617Y-114260048D01*
X126624948Y-114265968D01*
X126641054Y-114279579D01*
X127140130Y-114778655D01*
X127143783Y-114782464D01*
X127185799Y-114828156D01*
X127222797Y-114851095D01*
X127232548Y-114857797D01*
X127267216Y-114884112D01*
X127281193Y-114889646D01*
X127301202Y-114899709D01*
X127306688Y-114903111D01*
X127306692Y-114903113D01*
X127313986Y-114907635D01*
X127322228Y-114910029D01*
X127322231Y-114910031D01*
X127355784Y-114919779D01*
X127366997Y-114923618D01*
X127407453Y-114939635D01*
X127415996Y-114940533D01*
X127415997Y-114940533D01*
X127422402Y-114941206D01*
X127444380Y-114945518D01*
X127458825Y-114949715D01*
X127465408Y-114950198D01*
X127465411Y-114950199D01*
X127467208Y-114950331D01*
X127467219Y-114950331D01*
X127469515Y-114950500D01*
X127504219Y-114950500D01*
X127517390Y-114951190D01*
X127557454Y-114955401D01*
X127565919Y-114953969D01*
X127565928Y-114953969D01*
X127576000Y-114952265D01*
X127597013Y-114950500D01*
X127887046Y-114950500D01*
X127955167Y-114970502D01*
X128004198Y-115030115D01*
X128040887Y-115122783D01*
X128132078Y-115242922D01*
X128252217Y-115334113D01*
X128315832Y-115359300D01*
X128384923Y-115386655D01*
X128384925Y-115386656D01*
X128392453Y-115389636D01*
X128482228Y-115400500D01*
X129092772Y-115400500D01*
X129182547Y-115389636D01*
X129190075Y-115386656D01*
X129190077Y-115386655D01*
X129259168Y-115359300D01*
X129322783Y-115334113D01*
X129442922Y-115242922D01*
X129534113Y-115122783D01*
X129582849Y-114999690D01*
X129626522Y-114943718D01*
X129693525Y-114920241D01*
X129762584Y-114936717D01*
X129811773Y-114987912D01*
X129817150Y-114999687D01*
X129865887Y-115122783D01*
X129957078Y-115242922D01*
X130077217Y-115334113D01*
X130140832Y-115359300D01*
X130209923Y-115386655D01*
X130209925Y-115386656D01*
X130217453Y-115389636D01*
X130307228Y-115400500D01*
X130917772Y-115400500D01*
X131007547Y-115389636D01*
X131015075Y-115386656D01*
X131015077Y-115386655D01*
X131084168Y-115359300D01*
X131147783Y-115334113D01*
X131267922Y-115242922D01*
X131359113Y-115122783D01*
X131395802Y-115030115D01*
X131439476Y-114974143D01*
X131512954Y-114950500D01*
X131705007Y-114950500D01*
X131710284Y-114950611D01*
X131772294Y-114953210D01*
X131783848Y-114950500D01*
X131814662Y-114943273D01*
X131826333Y-114941110D01*
X131841229Y-114939069D01*
X131869432Y-114935206D01*
X131883230Y-114929235D01*
X131904499Y-114922201D01*
X131910775Y-114920729D01*
X131919136Y-114918768D01*
X131926661Y-114914631D01*
X131926664Y-114914630D01*
X131957268Y-114897805D01*
X131967913Y-114892589D01*
X132007855Y-114875305D01*
X132019541Y-114865842D01*
X132038126Y-114853354D01*
X132045518Y-114849290D01*
X132051308Y-114846107D01*
X132059422Y-114839103D01*
X132083958Y-114814567D01*
X132093759Y-114805742D01*
X132118392Y-114785794D01*
X132118393Y-114785793D01*
X132125070Y-114780386D01*
X132130043Y-114773388D01*
X132130048Y-114773383D01*
X132135968Y-114765052D01*
X132149579Y-114748946D01*
X132578655Y-114319870D01*
X132582464Y-114316217D01*
X132621829Y-114280019D01*
X132628156Y-114274201D01*
X132651091Y-114237211D01*
X132657794Y-114227457D01*
X132684113Y-114192783D01*
X132689649Y-114178802D01*
X132699709Y-114158798D01*
X132707635Y-114146014D01*
X132719773Y-114104235D01*
X132723617Y-114093008D01*
X132736473Y-114060537D01*
X132736474Y-114060534D01*
X132739636Y-114052547D01*
X132740535Y-114043998D01*
X132741209Y-114037591D01*
X132745520Y-114015615D01*
X132747874Y-114007512D01*
X132747874Y-114007511D01*
X132749715Y-114001175D01*
X132750500Y-113990485D01*
X132750500Y-113955790D01*
X132751190Y-113942619D01*
X132754504Y-113911089D01*
X132755402Y-113902545D01*
X132753908Y-113893709D01*
X132752265Y-113883998D01*
X132750500Y-113862985D01*
X132750500Y-111354962D01*
X132774177Y-111281436D01*
X132799708Y-111245906D01*
X132818361Y-111219947D01*
X132827384Y-111197502D01*
X132878766Y-111069687D01*
X132878767Y-111069685D01*
X132881601Y-111062634D01*
X132898967Y-110940614D01*
X132904909Y-110898862D01*
X132904909Y-110898859D01*
X132905490Y-110894778D01*
X132905645Y-110880000D01*
X132903840Y-110865080D01*
X132897586Y-110813401D01*
X132885276Y-110711680D01*
X132825345Y-110553077D01*
X132729312Y-110413349D01*
X132723119Y-110407831D01*
X132608392Y-110305612D01*
X132608388Y-110305610D01*
X132602721Y-110300560D01*
X132452881Y-110221224D01*
X132445082Y-110219265D01*
X132444799Y-110219098D01*
X132438423Y-110216651D01*
X132438831Y-110215588D01*
X132383887Y-110183270D01*
X132351866Y-110119904D01*
X132359187Y-110049286D01*
X132403524Y-109993836D01*
X132475778Y-109971061D01*
X135302601Y-109971061D01*
X135370722Y-109991063D01*
X135417215Y-110044719D01*
X135427319Y-110114993D01*
X135397825Y-110179573D01*
X135347243Y-110214888D01*
X135197681Y-110271551D01*
X135193694Y-110273765D01*
X135193693Y-110273766D01*
X134963597Y-110401573D01*
X134956572Y-110405475D01*
X134922815Y-110431238D01*
X134773791Y-110544970D01*
X134737322Y-110572802D01*
X134734129Y-110576068D01*
X134734127Y-110576070D01*
X134547717Y-110766758D01*
X134547713Y-110766763D01*
X134544523Y-110770026D01*
X134541836Y-110773718D01*
X134541834Y-110773720D01*
X134399039Y-110969900D01*
X134382213Y-110993016D01*
X134253794Y-111237101D01*
X134161955Y-111497168D01*
X134154042Y-111537317D01*
X134116875Y-111725888D01*
X134108620Y-111767768D01*
X134108393Y-111772322D01*
X134108393Y-111772324D01*
X134099211Y-111956767D01*
X134094906Y-112043233D01*
X134121102Y-112317792D01*
X134122187Y-112322226D01*
X134122188Y-112322232D01*
X134165288Y-112498366D01*
X134186657Y-112585694D01*
X134290199Y-112841326D01*
X134292500Y-112845256D01*
X134292503Y-112845262D01*
X134427255Y-113075403D01*
X134427260Y-113075410D01*
X134429558Y-113079335D01*
X134432405Y-113082895D01*
X134550028Y-113229974D01*
X134601816Y-113294732D01*
X134605157Y-113297853D01*
X134724558Y-113409391D01*
X134803364Y-113483008D01*
X135029979Y-113640216D01*
X135034055Y-113642244D01*
X135034057Y-113642245D01*
X135272827Y-113761032D01*
X135272830Y-113761033D01*
X135276914Y-113763065D01*
X135538998Y-113848980D01*
X135543489Y-113849760D01*
X135543490Y-113849760D01*
X135806957Y-113895506D01*
X135806965Y-113895507D01*
X135810738Y-113896162D01*
X135814575Y-113896353D01*
X135896305Y-113900422D01*
X135896313Y-113900422D01*
X135897876Y-113900500D01*
X136070070Y-113900500D01*
X136072338Y-113900335D01*
X136072350Y-113900335D01*
X136206603Y-113890594D01*
X136275083Y-113885625D01*
X136279538Y-113884641D01*
X136279541Y-113884641D01*
X136539947Y-113827148D01*
X136539950Y-113827147D01*
X136544403Y-113826164D01*
X136802319Y-113728449D01*
X136822091Y-113717467D01*
X137039435Y-113596743D01*
X137039436Y-113596742D01*
X137043428Y-113594525D01*
X137205180Y-113471079D01*
X137259046Y-113429970D01*
X137259047Y-113429969D01*
X137262678Y-113427198D01*
X137265873Y-113423930D01*
X137452283Y-113233242D01*
X137452287Y-113233237D01*
X137455477Y-113229974D01*
X137458166Y-113226280D01*
X137615100Y-113010676D01*
X137615102Y-113010673D01*
X137617787Y-113006984D01*
X137746206Y-112762899D01*
X137838045Y-112502832D01*
X137874516Y-112317792D01*
X137890499Y-112236704D01*
X137890500Y-112236698D01*
X137891380Y-112232232D01*
X137891607Y-112227676D01*
X137904867Y-111961336D01*
X137904867Y-111961330D01*
X137905094Y-111956767D01*
X137878898Y-111682208D01*
X137875781Y-111669466D01*
X137814429Y-111418744D01*
X137813343Y-111414306D01*
X137709801Y-111158674D01*
X137707500Y-111154744D01*
X137707497Y-111154738D01*
X137572745Y-110924597D01*
X137572740Y-110924590D01*
X137570442Y-110920665D01*
X137513089Y-110848949D01*
X137401036Y-110708834D01*
X137401035Y-110708833D01*
X137398184Y-110705268D01*
X137253413Y-110570030D01*
X137199972Y-110520108D01*
X137199969Y-110520106D01*
X137196636Y-110516992D01*
X136970021Y-110359784D01*
X136965943Y-110357755D01*
X136727173Y-110238968D01*
X136727170Y-110238967D01*
X136723086Y-110236935D01*
X136684003Y-110224123D01*
X136661640Y-110216792D01*
X136603140Y-110176565D01*
X136575674Y-110111096D01*
X136587964Y-110041171D01*
X136636107Y-109988991D01*
X136700890Y-109971061D01*
X141177910Y-109971061D01*
X141246031Y-109991063D01*
X141292524Y-110044719D01*
X141302628Y-110114993D01*
X141273134Y-110179573D01*
X141260988Y-110191792D01*
X141227220Y-110221406D01*
X141227212Y-110221414D01*
X141224123Y-110224123D01*
X141221414Y-110227212D01*
X141071221Y-110398473D01*
X141071217Y-110398479D01*
X141068503Y-110401573D01*
X141048682Y-110431238D01*
X140962526Y-110560180D01*
X140937376Y-110597819D01*
X140935550Y-110601522D01*
X140849532Y-110775949D01*
X140832986Y-110809500D01*
X140831662Y-110813401D01*
X140759912Y-111024769D01*
X140757119Y-111032996D01*
X140756315Y-111037040D01*
X140756313Y-111037046D01*
X140711878Y-111260440D01*
X140711074Y-111264483D01*
X140696094Y-111493022D01*
X140694864Y-111500000D01*
X140696778Y-111510853D01*
X140696778Y-111515793D01*
X140698055Y-111534937D01*
X140692903Y-111659500D01*
X140681956Y-111924165D01*
X140681096Y-111934543D01*
X140668118Y-112038664D01*
X140632772Y-112322232D01*
X140629231Y-112350638D01*
X140627518Y-112360902D01*
X140598695Y-112498366D01*
X140541467Y-112771297D01*
X140538911Y-112781392D01*
X140483054Y-112969012D01*
X140421145Y-113176965D01*
X140419263Y-113183285D01*
X140415884Y-113193127D01*
X140268911Y-113569786D01*
X140263459Y-113583757D01*
X140259280Y-113593286D01*
X140089512Y-113940553D01*
X140075116Y-113970000D01*
X140070161Y-113979156D01*
X140058080Y-113999432D01*
X139855513Y-114339382D01*
X139849817Y-114348100D01*
X139606166Y-114689355D01*
X139599770Y-114697573D01*
X139328755Y-115017560D01*
X139321701Y-115025221D01*
X139025221Y-115321701D01*
X139017560Y-115328755D01*
X138697573Y-115599770D01*
X138689355Y-115606166D01*
X138348100Y-115849817D01*
X138339382Y-115855513D01*
X137979159Y-116070160D01*
X137970004Y-116075114D01*
X137593286Y-116259280D01*
X137583765Y-116263455D01*
X137193127Y-116415884D01*
X137183294Y-116419260D01*
X137011464Y-116470416D01*
X136781392Y-116538911D01*
X136771297Y-116541467D01*
X136641123Y-116568762D01*
X136360902Y-116627518D01*
X136350646Y-116629230D01*
X136142591Y-116655163D01*
X135934543Y-116681096D01*
X135924165Y-116681956D01*
X135699517Y-116691248D01*
X135534937Y-116698055D01*
X135515795Y-116696778D01*
X135510856Y-116696778D01*
X135500000Y-116694864D01*
X135489145Y-116696778D01*
X135484563Y-116697586D01*
X135462683Y-116699500D01*
X127037317Y-116699500D01*
X127015437Y-116697586D01*
X127010855Y-116696778D01*
X127000000Y-116694864D01*
X126989144Y-116696778D01*
X126978122Y-116696778D01*
X126978122Y-116696221D01*
X126965848Y-116696812D01*
X126822241Y-116685510D01*
X126802714Y-116682417D01*
X126800794Y-116681956D01*
X126638970Y-116643105D01*
X126620176Y-116636999D01*
X126464595Y-116572555D01*
X126446990Y-116563585D01*
X126303401Y-116475594D01*
X126287408Y-116463973D01*
X126159366Y-116354615D01*
X126145385Y-116340634D01*
X126036027Y-116212592D01*
X126024405Y-116196597D01*
X126002636Y-116161073D01*
X125936415Y-116053010D01*
X125927445Y-116035405D01*
X125863001Y-115879824D01*
X125856893Y-115861025D01*
X125854203Y-115849817D01*
X125817583Y-115697285D01*
X125814490Y-115677758D01*
X125809985Y-115620513D01*
X125803188Y-115534152D01*
X125803779Y-115521878D01*
X125803222Y-115521878D01*
X125803222Y-115510856D01*
X125805136Y-115500000D01*
X125802414Y-115484563D01*
X125800500Y-115462683D01*
X125800500Y-90537317D01*
X125802414Y-90515437D01*
X125803222Y-90510855D01*
X125805136Y-90500000D01*
X125803222Y-90489144D01*
X125803222Y-90478122D01*
X125803779Y-90478122D01*
X125803188Y-90465845D01*
X125812733Y-90344574D01*
X125814490Y-90322241D01*
X125817583Y-90302714D01*
X125819164Y-90296127D01*
X125856895Y-90138970D01*
X125863003Y-90120171D01*
X125899112Y-90032996D01*
X125927445Y-89964595D01*
X125936415Y-89946990D01*
X126024406Y-89803401D01*
X126036027Y-89787408D01*
X126145385Y-89659366D01*
X126159366Y-89645385D01*
X126287408Y-89536027D01*
X126303403Y-89524405D01*
X126446990Y-89436415D01*
X126464595Y-89427445D01*
X126620176Y-89363001D01*
X126638970Y-89356895D01*
X126802715Y-89317583D01*
X126822241Y-89314490D01*
X126965848Y-89303188D01*
X126978122Y-89303779D01*
X126978122Y-89303222D01*
X126989144Y-89303222D01*
X127000000Y-89305136D01*
X127015437Y-89302414D01*
X127037317Y-89300500D01*
X168962683Y-89300500D01*
X168984563Y-89302414D01*
G37*
%TD.AperFunction*%
%TA.AperFunction,Conductor*%
G36*
X133168388Y-92041982D02*
G01*
X133214881Y-92095638D01*
X133224985Y-92165912D01*
X133217133Y-92195079D01*
X133192742Y-92255600D01*
X133189350Y-92267051D01*
X133151139Y-92462722D01*
X133150065Y-92471557D01*
X133150000Y-92474242D01*
X133150000Y-92581885D01*
X133154475Y-92597124D01*
X133155865Y-92598329D01*
X133163548Y-92600000D01*
X134374000Y-92600000D01*
X134442121Y-92620002D01*
X134488614Y-92673658D01*
X134500000Y-92726000D01*
X134500000Y-94178138D01*
X134503973Y-94191669D01*
X134513399Y-94193024D01*
X134603928Y-94171206D01*
X134615207Y-94167323D01*
X134795378Y-94085403D01*
X134805718Y-94079457D01*
X134967146Y-93964949D01*
X134976174Y-93957156D01*
X135113036Y-93814188D01*
X135120432Y-93804823D01*
X135184734Y-93705237D01*
X135238489Y-93658859D01*
X135308785Y-93648906D01*
X135373302Y-93678538D01*
X135407737Y-93727199D01*
X135409389Y-93731370D01*
X135415887Y-93747783D01*
X135507078Y-93867922D01*
X135627217Y-93959113D01*
X135688698Y-93983455D01*
X135759923Y-94011655D01*
X135759925Y-94011656D01*
X135767453Y-94014636D01*
X135857228Y-94025500D01*
X136642772Y-94025500D01*
X136732547Y-94014636D01*
X136740075Y-94011656D01*
X136740077Y-94011655D01*
X136811302Y-93983455D01*
X136872783Y-93959113D01*
X136992922Y-93867922D01*
X137084113Y-93747783D01*
X137121544Y-93653242D01*
X137136655Y-93615077D01*
X137136656Y-93615075D01*
X137139636Y-93607547D01*
X137150500Y-93517772D01*
X137150500Y-92182228D01*
X137148187Y-92163117D01*
X137159859Y-92093089D01*
X137207540Y-92040486D01*
X137273274Y-92021980D01*
X140561804Y-92021980D01*
X140629925Y-92041982D01*
X140676418Y-92095638D01*
X140686522Y-92165912D01*
X140676910Y-92199231D01*
X140676127Y-92200991D01*
X140672821Y-92206716D01*
X140614326Y-92386744D01*
X140599500Y-92527808D01*
X140599500Y-93172192D01*
X140600850Y-93185038D01*
X140613064Y-93301244D01*
X140614326Y-93313256D01*
X140672821Y-93493284D01*
X140676124Y-93499006D01*
X140676125Y-93499007D01*
X140730823Y-93593746D01*
X140767467Y-93657216D01*
X140771885Y-93662123D01*
X140771886Y-93662124D01*
X140887043Y-93790018D01*
X140894129Y-93797888D01*
X140899468Y-93801767D01*
X140997664Y-93873110D01*
X141047270Y-93909151D01*
X141220197Y-93986144D01*
X141318212Y-94006978D01*
X141398897Y-94024128D01*
X141398901Y-94024128D01*
X141405354Y-94025500D01*
X141594646Y-94025500D01*
X141601099Y-94024128D01*
X141601103Y-94024128D01*
X141681788Y-94006978D01*
X141779803Y-93986144D01*
X141952730Y-93909151D01*
X142002337Y-93873110D01*
X142100532Y-93801767D01*
X142105871Y-93797888D01*
X142112958Y-93790018D01*
X142228114Y-93662124D01*
X142228115Y-93662123D01*
X142232533Y-93657216D01*
X142269177Y-93593746D01*
X142323875Y-93499007D01*
X142323876Y-93499006D01*
X142327179Y-93493284D01*
X142353667Y-93411763D01*
X142393741Y-93353157D01*
X142459137Y-93325520D01*
X142529094Y-93337627D01*
X142581400Y-93385633D01*
X142599500Y-93450699D01*
X142599500Y-93517772D01*
X142610364Y-93607547D01*
X142613344Y-93615075D01*
X142613345Y-93615077D01*
X142628456Y-93653242D01*
X142665887Y-93747783D01*
X142757078Y-93867922D01*
X142877217Y-93959113D01*
X142938698Y-93983455D01*
X143009923Y-94011655D01*
X143009925Y-94011656D01*
X143017453Y-94014636D01*
X143107228Y-94025500D01*
X143892772Y-94025500D01*
X143982547Y-94014636D01*
X143990075Y-94011656D01*
X143990077Y-94011655D01*
X144061302Y-93983455D01*
X144122783Y-93959113D01*
X144242922Y-93867922D01*
X144334113Y-93747783D01*
X144371544Y-93653242D01*
X144386655Y-93615077D01*
X144386656Y-93615075D01*
X144389636Y-93607547D01*
X144400500Y-93517772D01*
X144400500Y-92182228D01*
X144398187Y-92163117D01*
X144409859Y-92093089D01*
X144457540Y-92040486D01*
X144523274Y-92021980D01*
X147811804Y-92021980D01*
X147879925Y-92041982D01*
X147926418Y-92095638D01*
X147936522Y-92165912D01*
X147926910Y-92199231D01*
X147926127Y-92200991D01*
X147922821Y-92206716D01*
X147864326Y-92386744D01*
X147849500Y-92527808D01*
X147849500Y-93172192D01*
X147850850Y-93185038D01*
X147863064Y-93301244D01*
X147864326Y-93313256D01*
X147922821Y-93493284D01*
X147926124Y-93499006D01*
X147926125Y-93499007D01*
X147980823Y-93593746D01*
X148017467Y-93657216D01*
X148021885Y-93662123D01*
X148021886Y-93662124D01*
X148137043Y-93790018D01*
X148144129Y-93797888D01*
X148149468Y-93801767D01*
X148247664Y-93873110D01*
X148297270Y-93909151D01*
X148470197Y-93986144D01*
X148568212Y-94006978D01*
X148648897Y-94024128D01*
X148648901Y-94024128D01*
X148655354Y-94025500D01*
X148844646Y-94025500D01*
X148851099Y-94024128D01*
X148851103Y-94024128D01*
X148931788Y-94006978D01*
X149029803Y-93986144D01*
X149202730Y-93909151D01*
X149252337Y-93873110D01*
X149350532Y-93801767D01*
X149355871Y-93797888D01*
X149362958Y-93790018D01*
X149478114Y-93662124D01*
X149478115Y-93662123D01*
X149482533Y-93657216D01*
X149519177Y-93593746D01*
X149573875Y-93499007D01*
X149573876Y-93499006D01*
X149577179Y-93493284D01*
X149630167Y-93330205D01*
X149670241Y-93271599D01*
X149735637Y-93243962D01*
X149805594Y-93256069D01*
X149857900Y-93304075D01*
X149869833Y-93330205D01*
X149922821Y-93493284D01*
X149926124Y-93499006D01*
X149926125Y-93499007D01*
X149980823Y-93593746D01*
X150017467Y-93657216D01*
X150021885Y-93662123D01*
X150021886Y-93662124D01*
X150137043Y-93790018D01*
X150144129Y-93797888D01*
X150149468Y-93801767D01*
X150247664Y-93873110D01*
X150297270Y-93909151D01*
X150470197Y-93986144D01*
X150568212Y-94006978D01*
X150648897Y-94024128D01*
X150648901Y-94024128D01*
X150655354Y-94025500D01*
X150844646Y-94025500D01*
X150851099Y-94024128D01*
X150851103Y-94024128D01*
X150931788Y-94006978D01*
X151029803Y-93986144D01*
X151202730Y-93909151D01*
X151252337Y-93873110D01*
X151350532Y-93801767D01*
X151355871Y-93797888D01*
X151362958Y-93790018D01*
X151478114Y-93662124D01*
X151478115Y-93662123D01*
X151482533Y-93657216D01*
X151519177Y-93593746D01*
X151573875Y-93499007D01*
X151573876Y-93499006D01*
X151577179Y-93493284D01*
X151630167Y-93330205D01*
X151670241Y-93271599D01*
X151735637Y-93243962D01*
X151805594Y-93256069D01*
X151857900Y-93304075D01*
X151869833Y-93330205D01*
X151922821Y-93493284D01*
X151926124Y-93499006D01*
X151926125Y-93499007D01*
X151980823Y-93593746D01*
X152017467Y-93657216D01*
X152021885Y-93662123D01*
X152021886Y-93662124D01*
X152137043Y-93790018D01*
X152144129Y-93797888D01*
X152149468Y-93801767D01*
X152247664Y-93873110D01*
X152297270Y-93909151D01*
X152470197Y-93986144D01*
X152568212Y-94006978D01*
X152648897Y-94024128D01*
X152648901Y-94024128D01*
X152655354Y-94025500D01*
X152844646Y-94025500D01*
X152851099Y-94024128D01*
X152851103Y-94024128D01*
X152931788Y-94006978D01*
X153029803Y-93986144D01*
X153202730Y-93909151D01*
X153252337Y-93873110D01*
X153350532Y-93801767D01*
X153355871Y-93797888D01*
X153362958Y-93790018D01*
X153478114Y-93662124D01*
X153478115Y-93662123D01*
X153482533Y-93657216D01*
X153519177Y-93593746D01*
X153573875Y-93499007D01*
X153573876Y-93499006D01*
X153577179Y-93493284D01*
X153603667Y-93411763D01*
X153643741Y-93353157D01*
X153709137Y-93325520D01*
X153779094Y-93337627D01*
X153831400Y-93385633D01*
X153849500Y-93450699D01*
X153849500Y-93517772D01*
X153860364Y-93607547D01*
X153863344Y-93615075D01*
X153863345Y-93615077D01*
X153878456Y-93653242D01*
X153915887Y-93747783D01*
X154007078Y-93867922D01*
X154127217Y-93959113D01*
X154188698Y-93983455D01*
X154259923Y-94011655D01*
X154259925Y-94011656D01*
X154267453Y-94014636D01*
X154357228Y-94025500D01*
X155142772Y-94025500D01*
X155232547Y-94014636D01*
X155240075Y-94011656D01*
X155240077Y-94011655D01*
X155311302Y-93983455D01*
X155372783Y-93959113D01*
X155492922Y-93867922D01*
X155584113Y-93747783D01*
X155621544Y-93653242D01*
X155636655Y-93615077D01*
X155636656Y-93615075D01*
X155639636Y-93607547D01*
X155650500Y-93517772D01*
X155650500Y-92182228D01*
X155648187Y-92163117D01*
X155659859Y-92093089D01*
X155707540Y-92040486D01*
X155773274Y-92021980D01*
X157438345Y-92021980D01*
X157506466Y-92041982D01*
X157552959Y-92095638D01*
X157563063Y-92165912D01*
X157548761Y-92208679D01*
X157479776Y-92334162D01*
X157417484Y-92530532D01*
X157416798Y-92536649D01*
X157416797Y-92536653D01*
X157401430Y-92673658D01*
X157394520Y-92735262D01*
X157395036Y-92741406D01*
X157409916Y-92918600D01*
X157411759Y-92940553D01*
X157413458Y-92946478D01*
X157464443Y-93124283D01*
X157468544Y-93138586D01*
X157471359Y-93144063D01*
X157471360Y-93144066D01*
X157547783Y-93292770D01*
X157562712Y-93321818D01*
X157690677Y-93483270D01*
X157695370Y-93487264D01*
X157695371Y-93487265D01*
X157799735Y-93576085D01*
X157847564Y-93616791D01*
X157852942Y-93619797D01*
X157852944Y-93619798D01*
X157882083Y-93636083D01*
X158027398Y-93717297D01*
X158088878Y-93737273D01*
X158217471Y-93779056D01*
X158217475Y-93779057D01*
X158223329Y-93780959D01*
X158427894Y-93805351D01*
X158434029Y-93804879D01*
X158434031Y-93804879D01*
X158496865Y-93800044D01*
X158633300Y-93789546D01*
X158639230Y-93787890D01*
X158639232Y-93787890D01*
X158811485Y-93739796D01*
X158831725Y-93734145D01*
X158837214Y-93731372D01*
X158837220Y-93731370D01*
X158980766Y-93658859D01*
X159015610Y-93641258D01*
X159048385Y-93615652D01*
X159135910Y-93547270D01*
X159177951Y-93514424D01*
X159191259Y-93499007D01*
X159308540Y-93363134D01*
X159308540Y-93363133D01*
X159312564Y-93358472D01*
X159333387Y-93321818D01*
X159403864Y-93197755D01*
X159414323Y-93179344D01*
X159479351Y-92983863D01*
X159505171Y-92779474D01*
X159505583Y-92750000D01*
X159485480Y-92544970D01*
X159425935Y-92347749D01*
X159351169Y-92207133D01*
X159336850Y-92137595D01*
X159362398Y-92071355D01*
X159419703Y-92029442D01*
X159462421Y-92021980D01*
X159876265Y-92021980D01*
X159944386Y-92041982D01*
X159965360Y-92058885D01*
X160362595Y-92456120D01*
X160396621Y-92518432D01*
X160399500Y-92545215D01*
X160399501Y-92918600D01*
X160399501Y-93292770D01*
X160399956Y-93296528D01*
X160399956Y-93296533D01*
X160406808Y-93353157D01*
X160410364Y-93382547D01*
X160465888Y-93522783D01*
X160557078Y-93642922D01*
X160677217Y-93734112D01*
X160817453Y-93789636D01*
X160825491Y-93790609D01*
X160825492Y-93790609D01*
X160857063Y-93794429D01*
X160907229Y-93800500D01*
X161449642Y-93800500D01*
X161992770Y-93800499D01*
X161996528Y-93800044D01*
X161996533Y-93800044D01*
X162074517Y-93790608D01*
X162074520Y-93790607D01*
X162082547Y-93789636D01*
X162170979Y-93754623D01*
X162187116Y-93748234D01*
X162257816Y-93741755D01*
X162320796Y-93774527D01*
X162356060Y-93836147D01*
X162359500Y-93865386D01*
X162359500Y-94871204D01*
X162339498Y-94939325D01*
X162285842Y-94985818D01*
X162215568Y-94995922D01*
X162153185Y-94968289D01*
X162045025Y-94878811D01*
X162045021Y-94878809D01*
X162040275Y-94874882D01*
X161859055Y-94776897D01*
X161662254Y-94715977D01*
X161656129Y-94715333D01*
X161656128Y-94715333D01*
X161463498Y-94695087D01*
X161463496Y-94695087D01*
X161457369Y-94694443D01*
X161370529Y-94702346D01*
X161258342Y-94712555D01*
X161258339Y-94712556D01*
X161252203Y-94713114D01*
X161054572Y-94771280D01*
X161049107Y-94774137D01*
X161038223Y-94779827D01*
X160872002Y-94866726D01*
X160867201Y-94870586D01*
X160867198Y-94870588D01*
X160723881Y-94985818D01*
X160711447Y-94995815D01*
X160579024Y-95153630D01*
X160576056Y-95159028D01*
X160576053Y-95159033D01*
X160483773Y-95326891D01*
X160479776Y-95334162D01*
X160417484Y-95530532D01*
X160416798Y-95536649D01*
X160416797Y-95536653D01*
X160399081Y-95694599D01*
X160394520Y-95735262D01*
X160408443Y-95901055D01*
X160411061Y-95932237D01*
X160396830Y-96001793D01*
X160374599Y-96031876D01*
X159863881Y-96542595D01*
X159801568Y-96576620D01*
X159774785Y-96579500D01*
X159396986Y-96579500D01*
X159328865Y-96559498D01*
X159282372Y-96505842D01*
X159272268Y-96435568D01*
X159301606Y-96371168D01*
X159308535Y-96363141D01*
X159308540Y-96363134D01*
X159312564Y-96358472D01*
X159333387Y-96321818D01*
X159370853Y-96255865D01*
X159414323Y-96179344D01*
X159479351Y-95983863D01*
X159505171Y-95779474D01*
X159505496Y-95756215D01*
X159505534Y-95753522D01*
X159505534Y-95753518D01*
X159505583Y-95750000D01*
X159485480Y-95544970D01*
X159425935Y-95347749D01*
X159329218Y-95165849D01*
X159212071Y-95022213D01*
X159202906Y-95010975D01*
X159202903Y-95010972D01*
X159199011Y-95006200D01*
X159181786Y-94991950D01*
X159045025Y-94878811D01*
X159045021Y-94878809D01*
X159040275Y-94874882D01*
X158859055Y-94776897D01*
X158662254Y-94715977D01*
X158656129Y-94715333D01*
X158656128Y-94715333D01*
X158463498Y-94695087D01*
X158463496Y-94695087D01*
X158457369Y-94694443D01*
X158370529Y-94702346D01*
X158258342Y-94712555D01*
X158258339Y-94712556D01*
X158252203Y-94713114D01*
X158054572Y-94771280D01*
X158049107Y-94774137D01*
X158038223Y-94779827D01*
X157872002Y-94866726D01*
X157867201Y-94870586D01*
X157867198Y-94870588D01*
X157723881Y-94985818D01*
X157711447Y-94995815D01*
X157579024Y-95153630D01*
X157576056Y-95159028D01*
X157576053Y-95159033D01*
X157483773Y-95326891D01*
X157479776Y-95334162D01*
X157417484Y-95530532D01*
X157416798Y-95536649D01*
X157416797Y-95536653D01*
X157399081Y-95694599D01*
X157394520Y-95735262D01*
X157396380Y-95757417D01*
X157411061Y-95932237D01*
X157411759Y-95940553D01*
X157413458Y-95946478D01*
X157442073Y-96046269D01*
X157468544Y-96138586D01*
X157471359Y-96144063D01*
X157471360Y-96144066D01*
X157528817Y-96255865D01*
X157562712Y-96321818D01*
X157566535Y-96326642D01*
X157566538Y-96326646D01*
X157605050Y-96375235D01*
X157631688Y-96441045D01*
X157618517Y-96510809D01*
X157569720Y-96562378D01*
X157506305Y-96579500D01*
X156870216Y-96579500D01*
X156802095Y-96559498D01*
X156781121Y-96542596D01*
X156109870Y-95871346D01*
X156106217Y-95867536D01*
X156080991Y-95840103D01*
X156064201Y-95821844D01*
X156027198Y-95798901D01*
X156017448Y-95792200D01*
X155982783Y-95765888D01*
X155968804Y-95760354D01*
X155948801Y-95750293D01*
X155936014Y-95742365D01*
X155927763Y-95739968D01*
X155927761Y-95739967D01*
X155894228Y-95730225D01*
X155882995Y-95726379D01*
X155856723Y-95715977D01*
X155842547Y-95710364D01*
X155834006Y-95709466D01*
X155834005Y-95709466D01*
X155827592Y-95708792D01*
X155805617Y-95704480D01*
X155791175Y-95700285D01*
X155783692Y-95699736D01*
X155782792Y-95699669D01*
X155782781Y-95699669D01*
X155780485Y-95699500D01*
X155745783Y-95699500D01*
X155732613Y-95698810D01*
X155722384Y-95697735D01*
X155692546Y-95694599D01*
X155684081Y-95696031D01*
X155684072Y-95696031D01*
X155674000Y-95697735D01*
X155652987Y-95699500D01*
X151454993Y-95699500D01*
X151449717Y-95699389D01*
X151445310Y-95699204D01*
X151387706Y-95696790D01*
X151379341Y-95698752D01*
X151345338Y-95706727D01*
X151333667Y-95708890D01*
X151322907Y-95710364D01*
X151290568Y-95714794D01*
X151282684Y-95718206D01*
X151282683Y-95718206D01*
X151276770Y-95720765D01*
X151255501Y-95727799D01*
X151249228Y-95729270D01*
X151249226Y-95729271D01*
X151240864Y-95731232D01*
X151233336Y-95735371D01*
X151233335Y-95735371D01*
X151202735Y-95752194D01*
X151192073Y-95757417D01*
X151160027Y-95771284D01*
X151160026Y-95771285D01*
X151152145Y-95774695D01*
X151145472Y-95780099D01*
X151140459Y-95784158D01*
X151121871Y-95796649D01*
X151108692Y-95803894D01*
X151100578Y-95810898D01*
X151076043Y-95835433D01*
X151066242Y-95844258D01*
X151034930Y-95869614D01*
X151029954Y-95876616D01*
X151029952Y-95876618D01*
X151024032Y-95884949D01*
X151010421Y-95901055D01*
X150071358Y-96840118D01*
X150067549Y-96843771D01*
X150021844Y-96885799D01*
X149998901Y-96922802D01*
X149992200Y-96932552D01*
X149965888Y-96967217D01*
X149960354Y-96981195D01*
X149950293Y-97001199D01*
X149942365Y-97013986D01*
X149939968Y-97022237D01*
X149939967Y-97022239D01*
X149930225Y-97055772D01*
X149926380Y-97067002D01*
X149910364Y-97107453D01*
X149909466Y-97115994D01*
X149909466Y-97115995D01*
X149908792Y-97122408D01*
X149904480Y-97144383D01*
X149900285Y-97158825D01*
X149899500Y-97169515D01*
X149899500Y-97204217D01*
X149898810Y-97217387D01*
X149894599Y-97257454D01*
X149896031Y-97265919D01*
X149896031Y-97265928D01*
X149897735Y-97276000D01*
X149899500Y-97297013D01*
X149899500Y-98248096D01*
X149879498Y-98316217D01*
X149825842Y-98362710D01*
X149755568Y-98372814D01*
X149690988Y-98343320D01*
X149664768Y-98311761D01*
X149572751Y-98154607D01*
X149572745Y-98154598D01*
X149570442Y-98150665D01*
X149450386Y-98000543D01*
X149401036Y-97938834D01*
X149401035Y-97938833D01*
X149398184Y-97935268D01*
X149258604Y-97804879D01*
X149199972Y-97750108D01*
X149199969Y-97750106D01*
X149196636Y-97746992D01*
X148970021Y-97589784D01*
X148958833Y-97584218D01*
X148727173Y-97468968D01*
X148727170Y-97468967D01*
X148723086Y-97466935D01*
X148461002Y-97381020D01*
X148456510Y-97380240D01*
X148193043Y-97334494D01*
X148193035Y-97334493D01*
X148189262Y-97333838D01*
X148179029Y-97333329D01*
X148103695Y-97329578D01*
X148103687Y-97329578D01*
X148102124Y-97329500D01*
X147929930Y-97329500D01*
X147927662Y-97329665D01*
X147927650Y-97329665D01*
X147793397Y-97339406D01*
X147724917Y-97344375D01*
X147720462Y-97345359D01*
X147720459Y-97345359D01*
X147460053Y-97402852D01*
X147460050Y-97402853D01*
X147455597Y-97403836D01*
X147197681Y-97501551D01*
X147193694Y-97503765D01*
X147193693Y-97503766D01*
X146966953Y-97629709D01*
X146956572Y-97635475D01*
X146901018Y-97677873D01*
X146768437Y-97779056D01*
X146737322Y-97802802D01*
X146734129Y-97806068D01*
X146734127Y-97806070D01*
X146547717Y-97996758D01*
X146547713Y-97996763D01*
X146544523Y-98000026D01*
X146541836Y-98003718D01*
X146541834Y-98003720D01*
X146388727Y-98214067D01*
X146382213Y-98223016D01*
X146253794Y-98467101D01*
X146161955Y-98727168D01*
X146150955Y-98782978D01*
X146111361Y-98983863D01*
X146108620Y-98997768D01*
X146108393Y-99002322D01*
X146108393Y-99002324D01*
X146095454Y-99262229D01*
X146094906Y-99273233D01*
X146121102Y-99547792D01*
X146122187Y-99552226D01*
X146122188Y-99552232D01*
X146162579Y-99717297D01*
X146186657Y-99815694D01*
X146290199Y-100071326D01*
X146292500Y-100075256D01*
X146292503Y-100075262D01*
X146427255Y-100305403D01*
X146427260Y-100305410D01*
X146429558Y-100309335D01*
X146432405Y-100312895D01*
X146550028Y-100459974D01*
X146601816Y-100524732D01*
X146605157Y-100527853D01*
X146784180Y-100695087D01*
X146803364Y-100713008D01*
X147029979Y-100870216D01*
X147034055Y-100872244D01*
X147034057Y-100872245D01*
X147272827Y-100991032D01*
X147272830Y-100991033D01*
X147276914Y-100993065D01*
X147538998Y-101078980D01*
X147543489Y-101079760D01*
X147543490Y-101079760D01*
X147806957Y-101125506D01*
X147806965Y-101125507D01*
X147810738Y-101126162D01*
X147814575Y-101126353D01*
X147896305Y-101130422D01*
X147896313Y-101130422D01*
X147897876Y-101130500D01*
X148070070Y-101130500D01*
X148072338Y-101130335D01*
X148072350Y-101130335D01*
X148206603Y-101120594D01*
X148275083Y-101115625D01*
X148279538Y-101114641D01*
X148279541Y-101114641D01*
X148539947Y-101057148D01*
X148539950Y-101057147D01*
X148544403Y-101056164D01*
X148802319Y-100958449D01*
X148900638Y-100903838D01*
X149039435Y-100826743D01*
X149039436Y-100826742D01*
X149043428Y-100824525D01*
X149262678Y-100657198D01*
X149267571Y-100652193D01*
X149452283Y-100463242D01*
X149452287Y-100463237D01*
X149455477Y-100459974D01*
X149511835Y-100382547D01*
X149615100Y-100240676D01*
X149615102Y-100240673D01*
X149617787Y-100236984D01*
X149619910Y-100232949D01*
X149619918Y-100232936D01*
X149661992Y-100152966D01*
X149711411Y-100101993D01*
X149780543Y-100085830D01*
X149847440Y-100109609D01*
X149890860Y-100165780D01*
X149899500Y-100211633D01*
X149899500Y-103475007D01*
X149899389Y-103480283D01*
X149896790Y-103542294D01*
X149898752Y-103550659D01*
X149906727Y-103584662D01*
X149908890Y-103596333D01*
X149910931Y-103611229D01*
X149914794Y-103639432D01*
X149918206Y-103647316D01*
X149918206Y-103647317D01*
X149920765Y-103653230D01*
X149927799Y-103674499D01*
X149931232Y-103689136D01*
X149935369Y-103696661D01*
X149935370Y-103696664D01*
X149952195Y-103727268D01*
X149957411Y-103737913D01*
X149974695Y-103777855D01*
X149984158Y-103789541D01*
X149996645Y-103808125D01*
X150003893Y-103821308D01*
X150010897Y-103829422D01*
X150035433Y-103853958D01*
X150044258Y-103863759D01*
X150064206Y-103888392D01*
X150069614Y-103895070D01*
X150076612Y-103900043D01*
X150076617Y-103900048D01*
X150084948Y-103905968D01*
X150101054Y-103919579D01*
X152060118Y-105878642D01*
X152063771Y-105882451D01*
X152105799Y-105928156D01*
X152113099Y-105932682D01*
X152113100Y-105932683D01*
X152142783Y-105951087D01*
X152152553Y-105957801D01*
X152187216Y-105984112D01*
X152201193Y-105989646D01*
X152221202Y-105999709D01*
X152226688Y-106003111D01*
X152226692Y-106003113D01*
X152233986Y-106007635D01*
X152242228Y-106010029D01*
X152242231Y-106010031D01*
X152275784Y-106019779D01*
X152286997Y-106023618D01*
X152327453Y-106039635D01*
X152335996Y-106040533D01*
X152335997Y-106040533D01*
X152342402Y-106041206D01*
X152364380Y-106045518D01*
X152378825Y-106049715D01*
X152385408Y-106050198D01*
X152385411Y-106050199D01*
X152387208Y-106050331D01*
X152387219Y-106050331D01*
X152389515Y-106050500D01*
X152424219Y-106050500D01*
X152437390Y-106051190D01*
X152477454Y-106055401D01*
X152485919Y-106053969D01*
X152485928Y-106053969D01*
X152496000Y-106052265D01*
X152517013Y-106050500D01*
X153297683Y-106050500D01*
X153365804Y-106070502D01*
X153393093Y-106096274D01*
X153393815Y-106095624D01*
X153398229Y-106100527D01*
X153402112Y-106105871D01*
X153435423Y-106135864D01*
X153472662Y-106196309D01*
X153471311Y-106267293D01*
X153431797Y-106326278D01*
X153366667Y-106354536D01*
X153351112Y-106355500D01*
X146789768Y-106355500D01*
X146721647Y-106335498D01*
X146700673Y-106318595D01*
X145057405Y-104675327D01*
X145023379Y-104613015D01*
X145020500Y-104586232D01*
X145020500Y-101289083D01*
X145020507Y-101287763D01*
X145021367Y-101205634D01*
X145021441Y-101198593D01*
X145019953Y-101191710D01*
X145012384Y-101156698D01*
X145010324Y-101144120D01*
X145006331Y-101108522D01*
X145006330Y-101108518D01*
X145005546Y-101101528D01*
X144997966Y-101079760D01*
X144994654Y-101070247D01*
X144990492Y-101055442D01*
X144984978Y-101029940D01*
X144983490Y-101023058D01*
X144965373Y-100984206D01*
X144960579Y-100972401D01*
X144948801Y-100938578D01*
X144946485Y-100931927D01*
X144928933Y-100903838D01*
X144921592Y-100890318D01*
X144910568Y-100866677D01*
X144910568Y-100866676D01*
X144907591Y-100860293D01*
X144881322Y-100826427D01*
X144874037Y-100815986D01*
X144851316Y-100779625D01*
X144822976Y-100751087D01*
X144822416Y-100750488D01*
X144821901Y-100749824D01*
X144796182Y-100724105D01*
X144766726Y-100694443D01*
X144727229Y-100654669D01*
X144727227Y-100654667D01*
X144724770Y-100652193D01*
X144723743Y-100651541D01*
X144722531Y-100650454D01*
X143262520Y-99190442D01*
X143261591Y-99189504D01*
X143245910Y-99173491D01*
X143199141Y-99125732D01*
X143193221Y-99121917D01*
X143193215Y-99121912D01*
X143163109Y-99102510D01*
X143152755Y-99095070D01*
X143124774Y-99072733D01*
X143119266Y-99068336D01*
X143089441Y-99053918D01*
X143076025Y-99046389D01*
X143054109Y-99032265D01*
X143048183Y-99028446D01*
X143007909Y-99013787D01*
X142996169Y-99008828D01*
X142963916Y-98993237D01*
X142963917Y-98993237D01*
X142957578Y-98990173D01*
X142950723Y-98988590D01*
X142950719Y-98988589D01*
X142930247Y-98983863D01*
X142925302Y-98982721D01*
X142910554Y-98978352D01*
X142886045Y-98969432D01*
X142886041Y-98969431D01*
X142879422Y-98967022D01*
X142836882Y-98961648D01*
X142824363Y-98959418D01*
X142782589Y-98949774D01*
X142775548Y-98949749D01*
X142775545Y-98949749D01*
X142742418Y-98949633D01*
X142741545Y-98949604D01*
X142740717Y-98949500D01*
X142704262Y-98949500D01*
X142703822Y-98949499D01*
X142606493Y-98949159D01*
X142606490Y-98949159D01*
X142603000Y-98949147D01*
X142601812Y-98949413D01*
X142600200Y-98949500D01*
X142025621Y-98949500D01*
X141957500Y-98929498D01*
X141925260Y-98899682D01*
X141892922Y-98857078D01*
X141772783Y-98765888D01*
X141632547Y-98710364D01*
X141624509Y-98709391D01*
X141624508Y-98709391D01*
X141592937Y-98705571D01*
X141542771Y-98699500D01*
X141000358Y-98699500D01*
X140457230Y-98699501D01*
X140453472Y-98699956D01*
X140453467Y-98699956D01*
X140375483Y-98709392D01*
X140375480Y-98709393D01*
X140367453Y-98710364D01*
X140227217Y-98765888D01*
X140107078Y-98857078D01*
X140015888Y-98977217D01*
X139960364Y-99117453D01*
X139959391Y-99125491D01*
X139959391Y-99125492D01*
X139957807Y-99138586D01*
X139949500Y-99207229D01*
X139949501Y-100292770D01*
X139949956Y-100296528D01*
X139949956Y-100296533D01*
X139958041Y-100363345D01*
X139960364Y-100382547D01*
X140015888Y-100522783D01*
X140107078Y-100642922D01*
X140227217Y-100734112D01*
X140367453Y-100789636D01*
X140375491Y-100790609D01*
X140375492Y-100790609D01*
X140407063Y-100794429D01*
X140457229Y-100800500D01*
X140999642Y-100800500D01*
X141542770Y-100800499D01*
X141546528Y-100800044D01*
X141546533Y-100800044D01*
X141624517Y-100790608D01*
X141624520Y-100790607D01*
X141632547Y-100789636D01*
X141772783Y-100734112D01*
X141892922Y-100642922D01*
X141925259Y-100600319D01*
X141982376Y-100558153D01*
X142025621Y-100550500D01*
X142306232Y-100550500D01*
X142374353Y-100570502D01*
X142395327Y-100587405D01*
X143382595Y-101574673D01*
X143416621Y-101636985D01*
X143419500Y-101663768D01*
X143419500Y-104960917D01*
X143419493Y-104962237D01*
X143418559Y-105051407D01*
X143427615Y-105093292D01*
X143429676Y-105105874D01*
X143432681Y-105132662D01*
X143434454Y-105148472D01*
X143445350Y-105179759D01*
X143449511Y-105194564D01*
X143452777Y-105209669D01*
X143456511Y-105226942D01*
X143474630Y-105265799D01*
X143479414Y-105277582D01*
X143493515Y-105318073D01*
X143497249Y-105324048D01*
X143511070Y-105346167D01*
X143518408Y-105359682D01*
X143532409Y-105389707D01*
X143536728Y-105395274D01*
X143536728Y-105395275D01*
X143558674Y-105423567D01*
X143565969Y-105434024D01*
X143584950Y-105464400D01*
X143588684Y-105470375D01*
X143593646Y-105475372D01*
X143593647Y-105475373D01*
X143617003Y-105498893D01*
X143617585Y-105499515D01*
X143618099Y-105500177D01*
X143643957Y-105526035D01*
X143715230Y-105597807D01*
X143716257Y-105598459D01*
X143717465Y-105599543D01*
X144714364Y-106596441D01*
X145511850Y-107393927D01*
X145545875Y-107456239D01*
X145540811Y-107527054D01*
X145498264Y-107583890D01*
X145431744Y-107608701D01*
X145422755Y-107609022D01*
X132917479Y-107609022D01*
X132849358Y-107589020D01*
X132828384Y-107572117D01*
X131784405Y-106528139D01*
X131750380Y-106465827D01*
X131747500Y-106439044D01*
X131747500Y-104180226D01*
X139197819Y-104180226D01*
X139233907Y-104445395D01*
X139308792Y-104702317D01*
X139420831Y-104945348D01*
X139453072Y-104994524D01*
X139564996Y-105165236D01*
X139565000Y-105165241D01*
X139567562Y-105169149D01*
X139603832Y-105209786D01*
X139737624Y-105359687D01*
X139745760Y-105368803D01*
X139951512Y-105539925D01*
X139955505Y-105542348D01*
X140176306Y-105676334D01*
X140176310Y-105676336D01*
X140180298Y-105678756D01*
X140184606Y-105680563D01*
X140184607Y-105680563D01*
X140422776Y-105780436D01*
X140422781Y-105780438D01*
X140427091Y-105782245D01*
X140431623Y-105783396D01*
X140431626Y-105783397D01*
X140681933Y-105846967D01*
X140681936Y-105846968D01*
X140686470Y-105848119D01*
X140691126Y-105848588D01*
X140691127Y-105848588D01*
X140905602Y-105870184D01*
X140905603Y-105870184D01*
X140908741Y-105870500D01*
X141067944Y-105870500D01*
X141070267Y-105870327D01*
X141070277Y-105870327D01*
X141262212Y-105856064D01*
X141262216Y-105856063D01*
X141266877Y-105855717D01*
X141271441Y-105854684D01*
X141271443Y-105854684D01*
X141477197Y-105808126D01*
X141527891Y-105796655D01*
X141532245Y-105794962D01*
X141772956Y-105701355D01*
X141772958Y-105701354D01*
X141777309Y-105699662D01*
X141782555Y-105696664D01*
X141879495Y-105641258D01*
X142009650Y-105566868D01*
X142219811Y-105401190D01*
X142403175Y-105206269D01*
X142555714Y-104986385D01*
X142557781Y-104982194D01*
X142672011Y-104750559D01*
X142672012Y-104750556D01*
X142674076Y-104746371D01*
X142755662Y-104491497D01*
X142798678Y-104227364D01*
X142802181Y-103959774D01*
X142766093Y-103694605D01*
X142691208Y-103437683D01*
X142687066Y-103428697D01*
X142665313Y-103381512D01*
X142579169Y-103194652D01*
X142482541Y-103047270D01*
X142435004Y-102974764D01*
X142435000Y-102974759D01*
X142432438Y-102970851D01*
X142341549Y-102869019D01*
X142257357Y-102774689D01*
X142257355Y-102774687D01*
X142254240Y-102771197D01*
X142065623Y-102614326D01*
X142052082Y-102603064D01*
X142052081Y-102603063D01*
X142048488Y-102600075D01*
X142000266Y-102570813D01*
X141823694Y-102463666D01*
X141823690Y-102463664D01*
X141819702Y-102461244D01*
X141784375Y-102446430D01*
X141577224Y-102359564D01*
X141577219Y-102359562D01*
X141572909Y-102357755D01*
X141568377Y-102356604D01*
X141568374Y-102356603D01*
X141318067Y-102293033D01*
X141318064Y-102293032D01*
X141313530Y-102291881D01*
X141308874Y-102291412D01*
X141308873Y-102291412D01*
X141094398Y-102269816D01*
X141094397Y-102269816D01*
X141091259Y-102269500D01*
X140932056Y-102269500D01*
X140929733Y-102269673D01*
X140929723Y-102269673D01*
X140737788Y-102283936D01*
X140737784Y-102283937D01*
X140733123Y-102284283D01*
X140728559Y-102285316D01*
X140728557Y-102285316D01*
X140589235Y-102316842D01*
X140472109Y-102343345D01*
X140467757Y-102345037D01*
X140467755Y-102345038D01*
X140227044Y-102438645D01*
X140227042Y-102438646D01*
X140222691Y-102440338D01*
X140218637Y-102442655D01*
X140218635Y-102442656D01*
X140173299Y-102468568D01*
X139990350Y-102573132D01*
X139780189Y-102738810D01*
X139596825Y-102933731D01*
X139444286Y-103153615D01*
X139442220Y-103157804D01*
X139442219Y-103157806D01*
X139342255Y-103360514D01*
X139325924Y-103393629D01*
X139324502Y-103398072D01*
X139324501Y-103398074D01*
X139303997Y-103462129D01*
X139244338Y-103648503D01*
X139236495Y-103696664D01*
X139205295Y-103888243D01*
X139201322Y-103912636D01*
X139200876Y-103946696D01*
X139198735Y-104110286D01*
X139197819Y-104180226D01*
X131747500Y-104180226D01*
X131747500Y-96735262D01*
X139944520Y-96735262D01*
X139945036Y-96741406D01*
X139961089Y-96932571D01*
X139961759Y-96940553D01*
X139963458Y-96946478D01*
X140009617Y-97107453D01*
X140018544Y-97138586D01*
X140021359Y-97144063D01*
X140021360Y-97144066D01*
X140099964Y-97297013D01*
X140112712Y-97321818D01*
X140240677Y-97483270D01*
X140245370Y-97487264D01*
X140245371Y-97487265D01*
X140388316Y-97608920D01*
X140397564Y-97616791D01*
X140402942Y-97619797D01*
X140402944Y-97619798D01*
X140473508Y-97659235D01*
X140577398Y-97717297D01*
X140650561Y-97741069D01*
X140767471Y-97779056D01*
X140767475Y-97779057D01*
X140773329Y-97780959D01*
X140977894Y-97805351D01*
X140984029Y-97804879D01*
X140984031Y-97804879D01*
X141047047Y-97800030D01*
X141183300Y-97789546D01*
X141189230Y-97787890D01*
X141189232Y-97787890D01*
X141375797Y-97735800D01*
X141375796Y-97735800D01*
X141381725Y-97734145D01*
X141387214Y-97731372D01*
X141387220Y-97731370D01*
X141524956Y-97661794D01*
X141565610Y-97641258D01*
X141586493Y-97624943D01*
X141687599Y-97545950D01*
X141727951Y-97514424D01*
X141733703Y-97507761D01*
X141858540Y-97363134D01*
X141858540Y-97363133D01*
X141862564Y-97358472D01*
X141876186Y-97334494D01*
X141933849Y-97232987D01*
X141964323Y-97179344D01*
X142029351Y-96983863D01*
X142055171Y-96779474D01*
X142055583Y-96750000D01*
X142035480Y-96544970D01*
X141975935Y-96347749D01*
X141879218Y-96165849D01*
X141781691Y-96046269D01*
X141752906Y-96010975D01*
X141752903Y-96010972D01*
X141749011Y-96006200D01*
X141729084Y-95989715D01*
X141595025Y-95878811D01*
X141595021Y-95878809D01*
X141590275Y-95874882D01*
X141409055Y-95776897D01*
X141212254Y-95715977D01*
X141206129Y-95715333D01*
X141206128Y-95715333D01*
X141013498Y-95695087D01*
X141013496Y-95695087D01*
X141007369Y-95694443D01*
X140920529Y-95702346D01*
X140808342Y-95712555D01*
X140808339Y-95712556D01*
X140802203Y-95713114D01*
X140604572Y-95771280D01*
X140422002Y-95866726D01*
X140417201Y-95870586D01*
X140417198Y-95870588D01*
X140406971Y-95878811D01*
X140261447Y-95995815D01*
X140129024Y-96153630D01*
X140126056Y-96159028D01*
X140126053Y-96159033D01*
X140061833Y-96275850D01*
X140029776Y-96334162D01*
X139967484Y-96530532D01*
X139966798Y-96536649D01*
X139966797Y-96536653D01*
X139948956Y-96695717D01*
X139944520Y-96735262D01*
X131747500Y-96735262D01*
X131747500Y-94902854D01*
X131748373Y-94888044D01*
X131751009Y-94865773D01*
X131752116Y-94856421D01*
X131742129Y-94801739D01*
X131741479Y-94797833D01*
X131734617Y-94752192D01*
X131733217Y-94742878D01*
X131730251Y-94736701D01*
X131729020Y-94729961D01*
X131720626Y-94713801D01*
X131703400Y-94680641D01*
X131701631Y-94677100D01*
X131681648Y-94635485D01*
X131681647Y-94635484D01*
X131677571Y-94626995D01*
X131672918Y-94621961D01*
X131669761Y-94615884D01*
X131665673Y-94611097D01*
X131630439Y-94575863D01*
X131627009Y-94572297D01*
X131590311Y-94532597D01*
X131584209Y-94529053D01*
X131578647Y-94524071D01*
X130775523Y-93720947D01*
X130765668Y-93709858D01*
X130751781Y-93692243D01*
X130745950Y-93684846D01*
X130738203Y-93679491D01*
X130738201Y-93679490D01*
X130713074Y-93662124D01*
X130700210Y-93653233D01*
X130697043Y-93650971D01*
X130652300Y-93617923D01*
X130645834Y-93615652D01*
X130640198Y-93611757D01*
X130601462Y-93599506D01*
X130587209Y-93594998D01*
X130583457Y-93593746D01*
X130539898Y-93578450D01*
X130539897Y-93578450D01*
X130531010Y-93575329D01*
X130524163Y-93575060D01*
X130517631Y-93572994D01*
X130511355Y-93572500D01*
X130461503Y-93572500D01*
X130456555Y-93572403D01*
X130454051Y-93572305D01*
X130402559Y-93570281D01*
X130401131Y-93570660D01*
X130335353Y-93558986D01*
X130289494Y-93520214D01*
X130201767Y-93399468D01*
X130197888Y-93394129D01*
X130188453Y-93385633D01*
X130062124Y-93271886D01*
X130062123Y-93271885D01*
X130057216Y-93267467D01*
X130016504Y-93243962D01*
X129899007Y-93176125D01*
X129899006Y-93176124D01*
X129896113Y-93174454D01*
X133150000Y-93174454D01*
X133150285Y-93180430D01*
X133164362Y-93327974D01*
X133166621Y-93339709D01*
X133222333Y-93529615D01*
X133226763Y-93540691D01*
X133317381Y-93716637D01*
X133323831Y-93726683D01*
X133446081Y-93882314D01*
X133454321Y-93890967D01*
X133603791Y-94020670D01*
X133613511Y-94027604D01*
X133784812Y-94126704D01*
X133795676Y-94131678D01*
X133982629Y-94196599D01*
X133985180Y-94197221D01*
X133996008Y-94195677D01*
X134000000Y-94182112D01*
X134000000Y-93118115D01*
X133995525Y-93102876D01*
X133994135Y-93101671D01*
X133986452Y-93100000D01*
X133168115Y-93100000D01*
X133152876Y-93104475D01*
X133151671Y-93105865D01*
X133150000Y-93113548D01*
X133150000Y-93174454D01*
X129896113Y-93174454D01*
X129893284Y-93172821D01*
X129811763Y-93146333D01*
X129753157Y-93106259D01*
X129725520Y-93040863D01*
X129737627Y-92970906D01*
X129785633Y-92918600D01*
X129850699Y-92900500D01*
X129917772Y-92900500D01*
X130007547Y-92889636D01*
X130015075Y-92886656D01*
X130015077Y-92886655D01*
X130084168Y-92859300D01*
X130147783Y-92834113D01*
X130267922Y-92742922D01*
X130359113Y-92622783D01*
X130362274Y-92614800D01*
X130362360Y-92614647D01*
X130413226Y-92565118D01*
X130472133Y-92550500D01*
X130675007Y-92550500D01*
X130680284Y-92550611D01*
X130742294Y-92553210D01*
X130753848Y-92550500D01*
X130784662Y-92543273D01*
X130796333Y-92541110D01*
X130811239Y-92539068D01*
X130839432Y-92535206D01*
X130853230Y-92529235D01*
X130874499Y-92522201D01*
X130880775Y-92520729D01*
X130889136Y-92518768D01*
X130896661Y-92514631D01*
X130896664Y-92514630D01*
X130927268Y-92497805D01*
X130937913Y-92492589D01*
X130977855Y-92475305D01*
X130989541Y-92465842D01*
X131008126Y-92453354D01*
X131015518Y-92449290D01*
X131021308Y-92446107D01*
X131029422Y-92439103D01*
X131053958Y-92414567D01*
X131063759Y-92405742D01*
X131088392Y-92385794D01*
X131088393Y-92385793D01*
X131095070Y-92380386D01*
X131105966Y-92365054D01*
X131119576Y-92348949D01*
X131261809Y-92206716D01*
X131409639Y-92058885D01*
X131471952Y-92024860D01*
X131498735Y-92021980D01*
X133100267Y-92021980D01*
X133168388Y-92041982D01*
G37*
%TD.AperFunction*%
%TA.AperFunction,Conductor*%
G36*
X130408840Y-94563417D02*
G01*
X130855595Y-95010172D01*
X130889621Y-95072484D01*
X130892500Y-95099267D01*
X130892500Y-106049786D01*
X130872498Y-106117907D01*
X130818842Y-106164400D01*
X130748568Y-106174504D01*
X130683988Y-106145010D01*
X130677405Y-106138881D01*
X129837405Y-105298881D01*
X129803379Y-105236569D01*
X129800500Y-105209786D01*
X129800500Y-104198871D01*
X129820502Y-104130750D01*
X129874158Y-104084257D01*
X129886352Y-104079510D01*
X129887005Y-104079219D01*
X129893284Y-104077179D01*
X130057216Y-103982533D01*
X130078020Y-103963801D01*
X130192985Y-103860286D01*
X130192986Y-103860284D01*
X130197888Y-103855871D01*
X130245639Y-103790147D01*
X130305270Y-103708072D01*
X130305271Y-103708071D01*
X130309151Y-103702730D01*
X130386144Y-103529803D01*
X130407731Y-103428243D01*
X130424128Y-103351103D01*
X130424128Y-103351099D01*
X130425500Y-103344646D01*
X130425500Y-103155354D01*
X130386144Y-102970197D01*
X130309151Y-102797270D01*
X130297301Y-102780959D01*
X130201767Y-102649468D01*
X130197888Y-102644129D01*
X130190492Y-102637469D01*
X130062124Y-102521886D01*
X130062123Y-102521885D01*
X130057216Y-102517467D01*
X130039488Y-102507232D01*
X129899007Y-102426125D01*
X129899006Y-102426124D01*
X129893284Y-102422821D01*
X129811763Y-102396333D01*
X129753157Y-102356259D01*
X129725520Y-102290863D01*
X129737627Y-102220906D01*
X129785633Y-102168600D01*
X129850699Y-102150500D01*
X129917772Y-102150500D01*
X130007547Y-102139636D01*
X130015075Y-102136656D01*
X130015077Y-102136655D01*
X130084168Y-102109300D01*
X130147783Y-102084113D01*
X130267922Y-101992922D01*
X130359113Y-101872783D01*
X130394669Y-101782978D01*
X130411655Y-101740077D01*
X130411656Y-101740075D01*
X130414636Y-101732547D01*
X130425500Y-101642772D01*
X130425500Y-100857228D01*
X130414636Y-100767453D01*
X130408163Y-100751102D01*
X130369689Y-100653930D01*
X130359113Y-100627217D01*
X130267922Y-100507078D01*
X130147783Y-100415887D01*
X130043294Y-100374517D01*
X130015077Y-100363345D01*
X130015075Y-100363344D01*
X130007547Y-100360364D01*
X129917772Y-100349500D01*
X129818050Y-100349500D01*
X129749929Y-100329498D01*
X129720127Y-100302791D01*
X129719285Y-100301750D01*
X129715844Y-100297501D01*
X129703354Y-100278914D01*
X129699290Y-100271522D01*
X129696107Y-100265732D01*
X129689103Y-100257618D01*
X129664567Y-100233082D01*
X129655742Y-100223281D01*
X129635794Y-100198648D01*
X129635793Y-100198647D01*
X129630386Y-100191970D01*
X129623388Y-100186997D01*
X129623383Y-100186992D01*
X129615052Y-100181072D01*
X129598946Y-100167461D01*
X128458885Y-99027401D01*
X128424860Y-98965089D01*
X128421980Y-98938306D01*
X128421980Y-97149733D01*
X128441982Y-97081612D01*
X128495638Y-97035119D01*
X128565912Y-97025015D01*
X128595079Y-97032867D01*
X128655600Y-97057258D01*
X128667051Y-97060650D01*
X128862722Y-97098861D01*
X128871557Y-97099935D01*
X128874242Y-97100000D01*
X128981885Y-97100000D01*
X128997124Y-97095525D01*
X128998329Y-97094135D01*
X129000000Y-97086452D01*
X129000000Y-97081885D01*
X129500000Y-97081885D01*
X129504475Y-97097124D01*
X129505865Y-97098329D01*
X129513548Y-97100000D01*
X129574454Y-97100000D01*
X129580430Y-97099715D01*
X129727974Y-97085638D01*
X129739709Y-97083379D01*
X129929615Y-97027667D01*
X129940691Y-97023237D01*
X130116637Y-96932619D01*
X130126683Y-96926169D01*
X130282314Y-96803919D01*
X130290967Y-96795679D01*
X130420670Y-96646209D01*
X130427604Y-96636489D01*
X130526704Y-96465188D01*
X130531678Y-96454324D01*
X130596599Y-96267371D01*
X130597221Y-96264820D01*
X130595677Y-96253992D01*
X130582112Y-96250000D01*
X129518115Y-96250000D01*
X129502876Y-96254475D01*
X129501671Y-96255865D01*
X129500000Y-96263548D01*
X129500000Y-97081885D01*
X129000000Y-97081885D01*
X129000000Y-95876000D01*
X129020002Y-95807879D01*
X129073658Y-95761386D01*
X129126000Y-95750000D01*
X130578138Y-95750000D01*
X130591669Y-95746027D01*
X130593024Y-95736601D01*
X130571206Y-95646072D01*
X130567323Y-95634793D01*
X130485403Y-95454622D01*
X130479457Y-95444282D01*
X130364949Y-95282854D01*
X130357156Y-95273826D01*
X130214188Y-95136964D01*
X130204823Y-95129568D01*
X130038560Y-95022213D01*
X130027963Y-95016720D01*
X129995189Y-95003512D01*
X129939482Y-94959497D01*
X129916415Y-94892352D01*
X129933311Y-94823395D01*
X129979286Y-94777526D01*
X130051495Y-94735836D01*
X130057216Y-94732533D01*
X130062124Y-94728114D01*
X130192985Y-94610286D01*
X130192986Y-94610284D01*
X130197888Y-94605871D01*
X130217810Y-94578451D01*
X130274029Y-94535098D01*
X130344765Y-94529021D01*
X130408840Y-94563417D01*
G37*
%TD.AperFunction*%
%TA.AperFunction,Conductor*%
G36*
X154011950Y-96820502D02*
G01*
X154058443Y-96874158D01*
X154068547Y-96944432D01*
X154037485Y-97008573D01*
X154038305Y-97009220D01*
X153913089Y-97168057D01*
X153818914Y-97347053D01*
X153758937Y-97540213D01*
X153735164Y-97741069D01*
X153748392Y-97942894D01*
X153798178Y-98138928D01*
X153882856Y-98322607D01*
X153904794Y-98353649D01*
X153988010Y-98471397D01*
X153999588Y-98487780D01*
X154144466Y-98628913D01*
X154312637Y-98741282D01*
X154326906Y-98747412D01*
X154336236Y-98751421D01*
X154390930Y-98796688D01*
X154412500Y-98867189D01*
X154412500Y-99927146D01*
X154411627Y-99941955D01*
X154407884Y-99973579D01*
X154409576Y-99982843D01*
X154409576Y-99982844D01*
X154417871Y-100028261D01*
X154418521Y-100032167D01*
X154426783Y-100087122D01*
X154429749Y-100093299D01*
X154430980Y-100100039D01*
X154435320Y-100108393D01*
X154435320Y-100108394D01*
X154456600Y-100149359D01*
X154458369Y-100152899D01*
X154482429Y-100203005D01*
X154487082Y-100208039D01*
X154490239Y-100214116D01*
X154494327Y-100218904D01*
X154529573Y-100254150D01*
X154533003Y-100257716D01*
X154569689Y-100297403D01*
X154566895Y-100299985D01*
X154597062Y-100343153D01*
X154600752Y-100410085D01*
X154600000Y-100413542D01*
X154600000Y-101624000D01*
X154579998Y-101692121D01*
X154526342Y-101738614D01*
X154474000Y-101750000D01*
X154226000Y-101750000D01*
X154157879Y-101729998D01*
X154111386Y-101676342D01*
X154100000Y-101624000D01*
X154100000Y-100418116D01*
X154095525Y-100402877D01*
X154094135Y-100401672D01*
X154086452Y-100400001D01*
X153678433Y-100400001D01*
X153671913Y-100400339D01*
X153577440Y-100410140D01*
X153564049Y-100413031D01*
X153411632Y-100463882D01*
X153398453Y-100470056D01*
X153262196Y-100554374D01*
X153250796Y-100563409D01*
X153137582Y-100676821D01*
X153128570Y-100688232D01*
X153044484Y-100824646D01*
X153038337Y-100837827D01*
X152987749Y-100990343D01*
X152984882Y-101003718D01*
X152978844Y-101062648D01*
X152952003Y-101128375D01*
X152893888Y-101169157D01*
X152822950Y-101172045D01*
X152761712Y-101136123D01*
X152729615Y-101072796D01*
X152727500Y-101049805D01*
X152727500Y-98996500D01*
X152747502Y-98928379D01*
X152801158Y-98881886D01*
X152853500Y-98870500D01*
X153144646Y-98870500D01*
X153148350Y-98870059D01*
X153148353Y-98870059D01*
X153155746Y-98869179D01*
X153170846Y-98867382D01*
X153205731Y-98851887D01*
X153262518Y-98826663D01*
X153273153Y-98821939D01*
X153352241Y-98742713D01*
X153357140Y-98731634D01*
X153393675Y-98648992D01*
X153397506Y-98640327D01*
X153400500Y-98614646D01*
X153400500Y-96926500D01*
X153420502Y-96858379D01*
X153474158Y-96811886D01*
X153526500Y-96800500D01*
X153943829Y-96800500D01*
X154011950Y-96820502D01*
G37*
%TD.AperFunction*%
%TD*%
%TA.AperFunction,NonConductor*%
G36*
X161345865Y-91288462D02*
G01*
X161366839Y-91305365D01*
X161545880Y-91484406D01*
X161579906Y-91546718D01*
X161574841Y-91617533D01*
X161532294Y-91674369D01*
X161465774Y-91699180D01*
X161456799Y-91699501D01*
X161215215Y-91699501D01*
X161147094Y-91679499D01*
X161126120Y-91662596D01*
X160947079Y-91483555D01*
X160913053Y-91421243D01*
X160918118Y-91350428D01*
X160960665Y-91293592D01*
X161027185Y-91268781D01*
X161036174Y-91268460D01*
X161277744Y-91268460D01*
X161345865Y-91288462D01*
G37*
%TD.AperFunction*%
%TA.AperFunction,NonConductor*%
G36*
X152936012Y-101854490D02*
G01*
X152974396Y-101914216D01*
X152978827Y-101936712D01*
X152985140Y-101997560D01*
X152988031Y-102010951D01*
X153038882Y-102163368D01*
X153045056Y-102176547D01*
X153129374Y-102312804D01*
X153138410Y-102324205D01*
X153251821Y-102437418D01*
X153263232Y-102446430D01*
X153399646Y-102530516D01*
X153412827Y-102536663D01*
X153489438Y-102562074D01*
X153547797Y-102602505D01*
X153575034Y-102668069D01*
X153562500Y-102737951D01*
X153534081Y-102775303D01*
X153413233Y-102884116D01*
X153402112Y-102894129D01*
X153391995Y-102908055D01*
X153390605Y-102909967D01*
X153334381Y-102953320D01*
X153263645Y-102959394D01*
X153199575Y-102924999D01*
X152764405Y-102489829D01*
X152730379Y-102427517D01*
X152727500Y-102400734D01*
X152727500Y-101949714D01*
X152747502Y-101881593D01*
X152801158Y-101835100D01*
X152871432Y-101824996D01*
X152936012Y-101854490D01*
G37*
%TD.AperFunction*%
%TA.AperFunction,NonConductor*%
G36*
X151209012Y-98684646D02*
G01*
X151241651Y-98728722D01*
X151248061Y-98743153D01*
X151256294Y-98751372D01*
X151256295Y-98751373D01*
X151276037Y-98771080D01*
X151327287Y-98822241D01*
X151337924Y-98826944D01*
X151337926Y-98826945D01*
X151394344Y-98851887D01*
X151429673Y-98867506D01*
X151455354Y-98870500D01*
X151746500Y-98870500D01*
X151814621Y-98890502D01*
X151861114Y-98944158D01*
X151872500Y-98996500D01*
X151872500Y-102597146D01*
X151871627Y-102611955D01*
X151867884Y-102643579D01*
X151869576Y-102652843D01*
X151869576Y-102652844D01*
X151877871Y-102698261D01*
X151878521Y-102702167D01*
X151886783Y-102757122D01*
X151889749Y-102763299D01*
X151890980Y-102770039D01*
X151895320Y-102778393D01*
X151895320Y-102778394D01*
X151916600Y-102819359D01*
X151918369Y-102822899D01*
X151942429Y-102873005D01*
X151947082Y-102878039D01*
X151950239Y-102884116D01*
X151954327Y-102888904D01*
X151989573Y-102924150D01*
X151993003Y-102927716D01*
X152023298Y-102960490D01*
X152023301Y-102960492D01*
X152029689Y-102967403D01*
X152035790Y-102970946D01*
X152041349Y-102975926D01*
X152844481Y-103779058D01*
X152854336Y-103790147D01*
X152874050Y-103815154D01*
X152881800Y-103820510D01*
X152881804Y-103820514D01*
X152919762Y-103846748D01*
X152922984Y-103849050D01*
X152957958Y-103874882D01*
X152967700Y-103882078D01*
X152974169Y-103884350D01*
X152979802Y-103888243D01*
X152988785Y-103891084D01*
X152988787Y-103891085D01*
X153032752Y-103904989D01*
X153036508Y-103906242D01*
X153080100Y-103921551D01*
X153080106Y-103921552D01*
X153088990Y-103924672D01*
X153095840Y-103924941D01*
X153102369Y-103927006D01*
X153108645Y-103927500D01*
X153158487Y-103927500D01*
X153163433Y-103927597D01*
X153166955Y-103927735D01*
X153214729Y-103929612D01*
X153282011Y-103952273D01*
X153311718Y-103981454D01*
X153378295Y-104073090D01*
X153402112Y-104105871D01*
X153407014Y-104110284D01*
X153407015Y-104110286D01*
X153531849Y-104222687D01*
X153542784Y-104232533D01*
X153706716Y-104327179D01*
X153753284Y-104342310D01*
X153869795Y-104380167D01*
X153928401Y-104420241D01*
X153956038Y-104485637D01*
X153943931Y-104555594D01*
X153895925Y-104607900D01*
X153869794Y-104619833D01*
X153706716Y-104672821D01*
X153542784Y-104767467D01*
X153537877Y-104771885D01*
X153537876Y-104771886D01*
X153407017Y-104889712D01*
X153407015Y-104889714D01*
X153402112Y-104894129D01*
X153398230Y-104899472D01*
X153393815Y-104904376D01*
X153392416Y-104903117D01*
X153343392Y-104940917D01*
X153297683Y-104949500D01*
X152740215Y-104949500D01*
X152672094Y-104929498D01*
X152651120Y-104912595D01*
X151037405Y-103298881D01*
X151003380Y-103236569D01*
X151000500Y-103209786D01*
X151000500Y-98779870D01*
X151020502Y-98711749D01*
X151074158Y-98665256D01*
X151144432Y-98655152D01*
X151209012Y-98684646D01*
G37*
%TD.AperFunction*%
%TA.AperFunction,NonConductor*%
G36*
X128599228Y-104073090D02*
G01*
X128601000Y-104073879D01*
X128606716Y-104077179D01*
X128612993Y-104079219D01*
X128619027Y-104081905D01*
X128618468Y-104083161D01*
X128671044Y-104119114D01*
X128698679Y-104184511D01*
X128699500Y-104198871D01*
X128699500Y-105475007D01*
X128699389Y-105480283D01*
X128696790Y-105542294D01*
X128698752Y-105550659D01*
X128706727Y-105584662D01*
X128708890Y-105596333D01*
X128710931Y-105611229D01*
X128714794Y-105639432D01*
X128718206Y-105647316D01*
X128718206Y-105647317D01*
X128720765Y-105653230D01*
X128727799Y-105674499D01*
X128731232Y-105689136D01*
X128735369Y-105696661D01*
X128735370Y-105696664D01*
X128752195Y-105727268D01*
X128757411Y-105737913D01*
X128774695Y-105777855D01*
X128784158Y-105789541D01*
X128796645Y-105808125D01*
X128803893Y-105821308D01*
X128810897Y-105829422D01*
X128835433Y-105853958D01*
X128844258Y-105863759D01*
X128857825Y-105880512D01*
X128869614Y-105895070D01*
X128876612Y-105900043D01*
X128876617Y-105900048D01*
X128884948Y-105905968D01*
X128901054Y-105919579D01*
X131652793Y-108671318D01*
X131686819Y-108733630D01*
X131681754Y-108804445D01*
X131639207Y-108861281D01*
X131595987Y-108879004D01*
X131596790Y-108881880D01*
X131588520Y-108884189D01*
X131580007Y-108885355D01*
X131572123Y-108888767D01*
X131572122Y-108888767D01*
X131566209Y-108891326D01*
X131544940Y-108898360D01*
X131538667Y-108899831D01*
X131538665Y-108899832D01*
X131530303Y-108901793D01*
X131522775Y-108905932D01*
X131522774Y-108905932D01*
X131492174Y-108922755D01*
X131481512Y-108927978D01*
X131449466Y-108941845D01*
X131449465Y-108941846D01*
X131441584Y-108945256D01*
X131434911Y-108950660D01*
X131429898Y-108954719D01*
X131411310Y-108967210D01*
X131398131Y-108974455D01*
X131390017Y-108981458D01*
X131365481Y-109005994D01*
X131355680Y-109014819D01*
X131331047Y-109034767D01*
X131324369Y-109040175D01*
X131319395Y-109047174D01*
X131319394Y-109047175D01*
X131313473Y-109055507D01*
X131299863Y-109071612D01*
X130458881Y-109912595D01*
X130396568Y-109946620D01*
X130369785Y-109949500D01*
X130302317Y-109949500D01*
X130234196Y-109929498D01*
X130206907Y-109903726D01*
X130206185Y-109904376D01*
X130201770Y-109899472D01*
X130197888Y-109894129D01*
X130192985Y-109889714D01*
X130192983Y-109889712D01*
X130062124Y-109771886D01*
X130062123Y-109771885D01*
X130057216Y-109767467D01*
X129963074Y-109713114D01*
X129899007Y-109676125D01*
X129899006Y-109676124D01*
X129893284Y-109672821D01*
X129811763Y-109646333D01*
X129753157Y-109606259D01*
X129725520Y-109540863D01*
X129737627Y-109470906D01*
X129785633Y-109418600D01*
X129850699Y-109400500D01*
X129917772Y-109400500D01*
X130007547Y-109389636D01*
X130015075Y-109386656D01*
X130015077Y-109386655D01*
X130084168Y-109359300D01*
X130147783Y-109334113D01*
X130267922Y-109242922D01*
X130359113Y-109122783D01*
X130414636Y-108982547D01*
X130425500Y-108892772D01*
X130425500Y-108107228D01*
X130414636Y-108017453D01*
X130398423Y-107976502D01*
X130362275Y-107885204D01*
X130359113Y-107877217D01*
X130267922Y-107757078D01*
X130147783Y-107665887D01*
X130084168Y-107640700D01*
X130015077Y-107613345D01*
X130015075Y-107613344D01*
X130007547Y-107610364D01*
X129917772Y-107599500D01*
X129180216Y-107599500D01*
X129112095Y-107579498D01*
X129091121Y-107562596D01*
X128458885Y-106930361D01*
X128424860Y-106868048D01*
X128421980Y-106841265D01*
X128421980Y-104188197D01*
X128441982Y-104120076D01*
X128495638Y-104073583D01*
X128565912Y-104063479D01*
X128599228Y-104073090D01*
G37*
%TD.AperFunction*%
%TA.AperFunction,NonConductor*%
G36*
X157479753Y-111197502D02*
G01*
X157523698Y-111245905D01*
X157562712Y-111321818D01*
X157640661Y-111420165D01*
X157668457Y-111455235D01*
X157695095Y-111521045D01*
X157681924Y-111590810D01*
X157633127Y-111642379D01*
X157569712Y-111659500D01*
X156650215Y-111659500D01*
X156582094Y-111639498D01*
X156561120Y-111622595D01*
X156331120Y-111392595D01*
X156297094Y-111330283D01*
X156302159Y-111259468D01*
X156344706Y-111202632D01*
X156411226Y-111177821D01*
X156420215Y-111177500D01*
X157411632Y-111177500D01*
X157479753Y-111197502D01*
G37*
%TD.AperFunction*%
%TA.AperFunction,NonConductor*%
G36*
X157714444Y-112780502D02*
G01*
X157760937Y-112834158D01*
X157771041Y-112904432D01*
X157741547Y-112969012D01*
X157725275Y-112984697D01*
X157711447Y-112995815D01*
X157579024Y-113153630D01*
X157576056Y-113159028D01*
X157576053Y-113159033D01*
X157503413Y-113291166D01*
X157479776Y-113334162D01*
X157417484Y-113530532D01*
X157416798Y-113536649D01*
X157416797Y-113536653D01*
X157396516Y-113717467D01*
X157394520Y-113735262D01*
X157395036Y-113741406D01*
X157411178Y-113933629D01*
X157411759Y-113940553D01*
X157413458Y-113946478D01*
X157458695Y-114104237D01*
X157468544Y-114138586D01*
X157471359Y-114144063D01*
X157471360Y-114144066D01*
X157537157Y-114272094D01*
X157562712Y-114321818D01*
X157666397Y-114452636D01*
X157690677Y-114483270D01*
X157688986Y-114484610D01*
X157717396Y-114538856D01*
X157711104Y-114609573D01*
X157667578Y-114665662D01*
X157593830Y-114689500D01*
X157380216Y-114689500D01*
X157312095Y-114669498D01*
X157291121Y-114652596D01*
X156857405Y-114218881D01*
X156823380Y-114156568D01*
X156820500Y-114129785D01*
X156820500Y-113382733D01*
X156820611Y-113377457D01*
X156822179Y-113340035D01*
X156823210Y-113315446D01*
X156819084Y-113297853D01*
X156813273Y-113273078D01*
X156811110Y-113261407D01*
X156806372Y-113226821D01*
X156805206Y-113218308D01*
X156799235Y-113204510D01*
X156792201Y-113183241D01*
X156790729Y-113176965D01*
X156788768Y-113168604D01*
X156784631Y-113161079D01*
X156784630Y-113161076D01*
X156767805Y-113130472D01*
X156762589Y-113119827D01*
X156745305Y-113079885D01*
X156735842Y-113068199D01*
X156723354Y-113049614D01*
X156719290Y-113042222D01*
X156716107Y-113036432D01*
X156709103Y-113028318D01*
X156684567Y-113003782D01*
X156675741Y-112993981D01*
X156674097Y-112991950D01*
X156652916Y-112965794D01*
X156625591Y-112900266D01*
X156638031Y-112830368D01*
X156686286Y-112778291D01*
X156750837Y-112760500D01*
X157646323Y-112760500D01*
X157714444Y-112780502D01*
G37*
%TD.AperFunction*%
M02*
