%TF.GenerationSoftware,KiCad,Pcbnew,(6.0.5-0)*%
%TF.CreationDate,2022-06-04T20:42:06+08:00*%
%TF.ProjectId,StealthBurner,53746561-6c74-4684-9275-726e65722e6b,Bata2*%
%TF.SameCoordinates,Original*%
%TF.FileFunction,Soldermask,Top*%
%TF.FilePolarity,Negative*%
%FSLAX46Y46*%
G04 Gerber Fmt 4.6, Leading zero omitted, Abs format (unit mm)*
G04 Created by KiCad (PCBNEW (6.0.5-0)) date 2022-06-04 20:42:06*
%MOMM*%
%LPD*%
G01*
G04 APERTURE LIST*
G04 Aperture macros list*
%AMRoundRect*
0 Rectangle with rounded corners*
0 $1 Rounding radius*
0 $2 $3 $4 $5 $6 $7 $8 $9 X,Y pos of 4 corners*
0 Add a 4 corners polygon primitive as box body*
4,1,4,$2,$3,$4,$5,$6,$7,$8,$9,$2,$3,0*
0 Add four circle primitives for the rounded corners*
1,1,$1+$1,$2,$3*
1,1,$1+$1,$4,$5*
1,1,$1+$1,$6,$7*
1,1,$1+$1,$8,$9*
0 Add four rect primitives between the rounded corners*
20,1,$1+$1,$2,$3,$4,$5,0*
20,1,$1+$1,$4,$5,$6,$7,0*
20,1,$1+$1,$6,$7,$8,$9,0*
20,1,$1+$1,$8,$9,$2,$3,0*%
G04 Aperture macros list end*
%ADD10O,1.200000X1.750000*%
%ADD11RoundRect,0.250000X0.350000X0.625000X-0.350000X0.625000X-0.350000X-0.625000X0.350000X-0.625000X0*%
%ADD12RoundRect,0.250000X0.262500X0.450000X-0.262500X0.450000X-0.262500X-0.450000X0.262500X-0.450000X0*%
%ADD13O,1.750000X1.200000*%
%ADD14RoundRect,0.250000X-0.625000X0.350000X-0.625000X-0.350000X0.625000X-0.350000X0.625000X0.350000X0*%
%ADD15C,1.500000*%
%ADD16RoundRect,0.250001X-0.499999X0.499999X-0.499999X-0.499999X0.499999X-0.499999X0.499999X0.499999X0*%
%ADD17C,3.000000*%
%ADD18RoundRect,0.250001X0.499999X0.499999X-0.499999X0.499999X-0.499999X-0.499999X0.499999X-0.499999X0*%
%ADD19O,1.600000X1.600000*%
%ADD20R,1.600000X1.600000*%
%ADD21C,3.200000*%
G04 APERTURE END LIST*
D10*
%TO.C,J5*%
X134250000Y-92850000D03*
D11*
X136250000Y-92850000D03*
%TD*%
D12*
%TO.C,TH1*%
X128575000Y-114400000D03*
X130400000Y-114400000D03*
%TD*%
D13*
%TO.C,J8*%
X129250000Y-96000000D03*
X129250000Y-94000000D03*
D14*
X129250000Y-92000000D03*
%TD*%
D13*
%TO.C,J6*%
X129250000Y-110500000D03*
D14*
X129250000Y-108500000D03*
%TD*%
D15*
%TO.C,J9*%
X158450000Y-116750000D03*
X158450000Y-113750000D03*
X158450000Y-110750000D03*
X158450000Y-107750000D03*
X158450000Y-104750000D03*
X158450000Y-101750000D03*
X158450000Y-98750000D03*
X158450000Y-95750000D03*
X158450000Y-92750000D03*
X161450000Y-116750000D03*
X161450000Y-113750000D03*
X161450000Y-110750000D03*
X161450000Y-107750000D03*
X161450000Y-104750000D03*
X161450000Y-101750000D03*
X161450000Y-98750000D03*
X161450000Y-95750000D03*
D16*
X161450000Y-92750000D03*
D17*
X165770000Y-94910000D03*
X165770000Y-114610000D03*
%TD*%
D10*
%TO.C,J2*%
X148750000Y-92850000D03*
X150750000Y-92850000D03*
X152750000Y-92850000D03*
D11*
X154750000Y-92850000D03*
%TD*%
D15*
%TO.C,J3*%
X140860000Y-96575000D03*
D18*
X140860000Y-99575000D03*
D17*
X140860000Y-103895000D03*
%TD*%
D19*
%TO.C,D1*%
X154840000Y-97770000D03*
D20*
X152300000Y-97770000D03*
%TD*%
D13*
%TO.C,J1*%
X154350000Y-105500000D03*
X154350000Y-103500000D03*
D14*
X154350000Y-101500000D03*
%TD*%
D21*
%TO.C,M2*%
X136000000Y-112000000D03*
%TD*%
%TO.C,M1*%
X148000000Y-99230000D03*
%TD*%
D10*
%TO.C,J4*%
X141500000Y-92850000D03*
D11*
X143500000Y-92850000D03*
%TD*%
D13*
%TO.C,J7*%
X129250000Y-103250000D03*
D14*
X129250000Y-101250000D03*
%TD*%
M02*
